G04 #@! TF.GenerationSoftware,KiCad,Pcbnew,(5.1.0)-1*
G04 #@! TF.CreationDate,2019-09-22T18:00:15+02:00*
G04 #@! TF.ProjectId,Arduino_HM_1,41726475-696e-46f5-9f48-4d5f312e6b69,rev?*
G04 #@! TF.SameCoordinates,Original*
G04 #@! TF.FileFunction,Copper,L1,Top*
G04 #@! TF.FilePolarity,Positive*
%FSLAX46Y46*%
G04 Gerber Fmt 4.6, Leading zero omitted, Abs format (unit mm)*
G04 Created by KiCad (PCBNEW (5.1.0)-1) date 2019-09-22 18:00:15*
%MOMM*%
%LPD*%
G04 APERTURE LIST*
%ADD10C,2.000000*%
%ADD11C,1.524000*%
%ADD12C,1.980000*%
%ADD13C,1.935000*%
%ADD14R,1.980000X1.980000*%
%ADD15C,1.000000*%
%ADD16C,1.500000*%
%ADD17O,1.600000X1.600000*%
%ADD18R,1.600000X1.600000*%
%ADD19C,0.800000*%
%ADD20C,0.250000*%
%ADD21C,1.500000*%
G04 APERTURE END LIST*
D10*
X17780000Y-19685000D03*
X17780000Y-24765000D03*
X17780000Y-29845000D03*
X66040000Y-19685000D03*
X66040000Y-24765000D03*
X66040000Y-29845000D03*
X17780000Y-43180000D03*
X17780000Y-38100000D03*
X17780000Y-33020000D03*
X66040000Y-33020000D03*
X66040000Y-38100000D03*
X66040000Y-43180000D03*
D11*
X60325000Y-43815000D03*
X60248800Y-41275000D03*
X60325000Y-38735000D03*
X60325000Y-33655000D03*
X60248800Y-36195000D03*
X60325000Y-23495000D03*
X60325000Y-26035000D03*
X60248800Y-31115000D03*
X60325000Y-28575000D03*
X60248800Y-20955000D03*
X60325000Y-18415000D03*
X60325000Y-15875000D03*
X60325000Y-13335000D03*
X55245000Y-43815000D03*
X55168800Y-41275000D03*
X55245000Y-38735000D03*
X55245000Y-33655000D03*
X55168800Y-36195000D03*
X55245000Y-23495000D03*
X55245000Y-26035000D03*
X55168800Y-31115000D03*
X55245000Y-28575000D03*
X55168800Y-20955000D03*
X55245000Y-18415000D03*
X55245000Y-15875000D03*
X55245000Y-13335000D03*
D12*
X18130000Y-49145000D03*
X30130000Y-49145000D03*
X30130000Y-61345000D03*
D13*
X24130000Y-63345000D03*
D14*
X18130000Y-61345000D03*
D11*
X20955000Y-43815000D03*
X20878800Y-41275000D03*
X20955000Y-38735000D03*
X20955000Y-33655000D03*
X20878800Y-36195000D03*
X20955000Y-23495000D03*
X20955000Y-26035000D03*
X20878800Y-31115000D03*
X20955000Y-28575000D03*
X20878800Y-20955000D03*
X20955000Y-18415000D03*
X20955000Y-15875000D03*
X20955000Y-13335000D03*
X62865000Y-43815000D03*
X62788800Y-41275000D03*
X62865000Y-38735000D03*
X62865000Y-33655000D03*
X62788800Y-36195000D03*
X62865000Y-23495000D03*
X62865000Y-26035000D03*
X62788800Y-31115000D03*
X62865000Y-28575000D03*
X62788800Y-20955000D03*
X62865000Y-18415000D03*
X62865000Y-15875000D03*
X62865000Y-13335000D03*
X57785000Y-43815000D03*
X57708800Y-41275000D03*
X57785000Y-38735000D03*
X57785000Y-33655000D03*
X57708800Y-36195000D03*
X57785000Y-23495000D03*
X57785000Y-26035000D03*
X57708800Y-31115000D03*
X57785000Y-28575000D03*
X57708800Y-20955000D03*
X57785000Y-18415000D03*
X57785000Y-15875000D03*
X57785000Y-13335000D03*
X23495000Y-43815000D03*
X23418800Y-41275000D03*
X23495000Y-38735000D03*
X23495000Y-33655000D03*
X23418800Y-36195000D03*
X23495000Y-23495000D03*
X23495000Y-26035000D03*
X23418800Y-31115000D03*
X23495000Y-28575000D03*
X23418800Y-20955000D03*
X23495000Y-18415000D03*
X23495000Y-15875000D03*
X23495000Y-13335000D03*
X28575000Y-43815000D03*
X28498800Y-41275000D03*
X28575000Y-38735000D03*
X28575000Y-33655000D03*
X28498800Y-36195000D03*
X28575000Y-23495000D03*
X28575000Y-26035000D03*
X28498800Y-31115000D03*
X28575000Y-28575000D03*
X28498800Y-20955000D03*
X28575000Y-18415000D03*
X28575000Y-15875000D03*
X28575000Y-13335000D03*
X26035000Y-43815000D03*
X25958800Y-41275000D03*
X26035000Y-38735000D03*
X26035000Y-33655000D03*
X25958800Y-36195000D03*
X26035000Y-23495000D03*
X26035000Y-26035000D03*
X25958800Y-31115000D03*
X26035000Y-28575000D03*
X25958800Y-20955000D03*
X26035000Y-18415000D03*
X26035000Y-15875000D03*
X26035000Y-13335000D03*
X52705000Y-13335000D03*
X52781200Y-15875000D03*
X52705000Y-18415000D03*
X52705000Y-23495000D03*
X52781200Y-20955000D03*
X52705000Y-33655000D03*
X52705000Y-31115000D03*
X52781200Y-26035000D03*
X52705000Y-28575000D03*
X52781200Y-36195000D03*
X52705000Y-38735000D03*
X52705000Y-41275000D03*
X52705000Y-43815000D03*
X31115000Y-43815000D03*
X31038800Y-41275000D03*
X31115000Y-38735000D03*
X31115000Y-33655000D03*
X31038800Y-36195000D03*
X31115000Y-23495000D03*
X31115000Y-26035000D03*
X31038800Y-31115000D03*
X31115000Y-28575000D03*
X31038800Y-20955000D03*
X31115000Y-18415000D03*
X31115000Y-15875000D03*
X31115000Y-13335000D03*
D12*
X54960000Y-49145000D03*
X66960000Y-49145000D03*
X66960000Y-61345000D03*
D13*
X60960000Y-63345000D03*
D14*
X54960000Y-61345000D03*
D15*
X50625000Y-65675000D03*
D16*
X50636600Y-63152400D03*
D15*
X50645000Y-60615000D03*
X33263000Y-69277000D03*
X33263000Y-67245000D03*
X33263000Y-65213000D03*
X33263000Y-63181000D03*
X33263000Y-61149000D03*
X33263000Y-59117000D03*
X33263000Y-57085000D03*
X33263000Y-55053000D03*
D17*
X49530000Y-52070000D03*
X34290000Y-52070000D03*
X49530000Y-16510000D03*
X34290000Y-49530000D03*
X49530000Y-19050000D03*
X34290000Y-46990000D03*
X49530000Y-21590000D03*
X34290000Y-44450000D03*
X49530000Y-24130000D03*
X34290000Y-41910000D03*
X49530000Y-26670000D03*
X34290000Y-39370000D03*
X49530000Y-29210000D03*
X34290000Y-36830000D03*
X49530000Y-31750000D03*
X34290000Y-34290000D03*
X49530000Y-34290000D03*
X34290000Y-31750000D03*
X49530000Y-36830000D03*
X34290000Y-29210000D03*
X49530000Y-39370000D03*
X34290000Y-26670000D03*
X49530000Y-41910000D03*
X34290000Y-24130000D03*
X49530000Y-44450000D03*
X34290000Y-21590000D03*
X49530000Y-46990000D03*
X34290000Y-19050000D03*
X49530000Y-49530000D03*
D18*
X34290000Y-16510000D03*
D19*
X42545000Y-23495000D03*
X41275000Y-64135000D03*
X29364200Y-34816000D03*
D20*
X49530000Y-52070000D02*
X49530000Y-50944700D01*
X49530000Y-50944700D02*
X49811300Y-50944700D01*
X49811300Y-50944700D02*
X50662200Y-50093800D01*
X50662200Y-50093800D02*
X50662200Y-49059700D01*
X50662200Y-49059700D02*
X50007100Y-48404600D01*
X50007100Y-48404600D02*
X41317000Y-48404600D01*
X41317000Y-48404600D02*
X38632400Y-45720000D01*
X38632400Y-45720000D02*
X33913400Y-45720000D01*
X33913400Y-45720000D02*
X32990000Y-44796600D01*
X32990000Y-44796600D02*
X32990000Y-43226200D01*
X32990000Y-43226200D02*
X31038800Y-41275000D01*
X49080000Y-52070000D02*
X49530000Y-52070000D01*
X49080000Y-52070000D02*
X48404700Y-52070000D01*
X48404700Y-52070000D02*
X39325700Y-61149000D01*
X39325700Y-61149000D02*
X33263000Y-61149000D01*
X34290000Y-49530000D02*
X34290000Y-50655300D01*
X34290000Y-50655300D02*
X34008700Y-50655300D01*
X34008700Y-50655300D02*
X32415300Y-52248700D01*
X32415300Y-52248700D02*
X32415300Y-58269300D01*
X32415300Y-58269300D02*
X33263000Y-59117000D01*
X57785000Y-18415000D02*
X59055000Y-19685000D01*
X59055000Y-19685000D02*
X66040000Y-19685000D01*
X56697600Y-19502400D02*
X57785000Y-18415000D01*
X50655300Y-19050000D02*
X51107700Y-19502400D01*
X51107700Y-19502400D02*
X56697600Y-19502400D01*
X56697600Y-19502400D02*
X56697600Y-19943800D01*
X56697600Y-19943800D02*
X57708800Y-20955000D01*
X49530000Y-19050000D02*
X50655300Y-19050000D01*
X35415300Y-24130000D02*
X40495300Y-19050000D01*
X40495300Y-19050000D02*
X49530000Y-19050000D01*
X27249400Y-42600600D02*
X26035000Y-43815000D01*
X25958800Y-41275000D02*
X27249400Y-42565600D01*
X27249400Y-42565600D02*
X27249400Y-42600600D01*
X31115000Y-43815000D02*
X29900600Y-42600600D01*
X29900600Y-42600600D02*
X27249400Y-42600600D01*
X57785000Y-43815000D02*
X53624900Y-47975100D01*
X53624900Y-47975100D02*
X53624900Y-49693200D01*
X53624900Y-49693200D02*
X65276700Y-61345000D01*
X65276700Y-61345000D02*
X66960000Y-61345000D01*
X34290000Y-24130000D02*
X35415300Y-24130000D01*
X57708800Y-31115000D02*
X57785000Y-31191200D01*
X57785000Y-31191200D02*
X57785000Y-33655000D01*
X25958800Y-20955000D02*
X24688800Y-19685000D01*
X24688800Y-19685000D02*
X17780000Y-19685000D01*
X26035000Y-38735000D02*
X25958800Y-38811200D01*
X25958800Y-38811200D02*
X25958800Y-41275000D01*
X26897100Y-24596100D02*
X26897100Y-24357100D01*
X26897100Y-24357100D02*
X26035000Y-23495000D01*
X26035000Y-26035000D02*
X26897100Y-25172900D01*
X26897100Y-25172900D02*
X26897100Y-24596100D01*
X33164700Y-24130000D02*
X32698600Y-24596100D01*
X32698600Y-24596100D02*
X26897100Y-24596100D01*
X34290000Y-24130000D02*
X33164700Y-24130000D01*
X40495300Y-21445300D02*
X42545000Y-23495000D01*
X40495300Y-19050000D02*
X40495300Y-21445300D01*
X30130000Y-62745071D02*
X30130000Y-61345000D01*
X30130000Y-67365002D02*
X30130000Y-62745071D01*
X32866999Y-70102001D02*
X30130000Y-67365002D01*
X35307999Y-70102001D02*
X32866999Y-70102001D01*
X41275000Y-64135000D02*
X35307999Y-70102001D01*
X34290000Y-46990000D02*
X34290000Y-48115300D01*
X34290000Y-48115300D02*
X34008700Y-48115300D01*
X34008700Y-48115300D02*
X31964900Y-50159100D01*
X31964900Y-50159100D02*
X31964900Y-67978900D01*
X31964900Y-67978900D02*
X33263000Y-69277000D01*
X49530000Y-49530000D02*
X38786000Y-49530000D01*
X38786000Y-49530000D02*
X33263000Y-55053000D01*
X49530000Y-21590000D02*
X50655300Y-21590000D01*
X50655300Y-21590000D02*
X52560300Y-23495000D01*
X52560300Y-23495000D02*
X52705000Y-23495000D01*
X34290000Y-44450000D02*
X34290000Y-43324700D01*
X34290000Y-43324700D02*
X34571300Y-43324700D01*
X34571300Y-43324700D02*
X35465500Y-42430500D01*
X35465500Y-42430500D02*
X35465500Y-33873300D01*
X35465500Y-33873300D02*
X34756800Y-33164600D01*
X34756800Y-33164600D02*
X33088400Y-33164600D01*
X33088400Y-33164600D02*
X31038800Y-31115000D01*
X62788800Y-20955000D02*
X62788800Y-23418800D01*
X62788800Y-23418800D02*
X62865000Y-23495000D01*
X64135000Y-24765000D02*
X62865000Y-26035000D01*
X66040000Y-24765000D02*
X64135000Y-24765000D01*
X62865000Y-23495000D02*
X64135000Y-24765000D01*
X49530000Y-26670000D02*
X52146200Y-26670000D01*
X52146200Y-26670000D02*
X52781200Y-26035000D01*
X49530000Y-29210000D02*
X50655300Y-29210000D01*
X50655300Y-29210000D02*
X51290300Y-28575000D01*
X51290300Y-28575000D02*
X52705000Y-28575000D01*
X49530000Y-31750000D02*
X52070000Y-31750000D01*
X52070000Y-31750000D02*
X52705000Y-31115000D01*
X34290000Y-34290000D02*
X33164700Y-34290000D01*
X33164700Y-34290000D02*
X32638700Y-34816000D01*
X32638700Y-34816000D02*
X29364200Y-34816000D01*
X49530000Y-34290000D02*
X52070000Y-34290000D01*
X52070000Y-34290000D02*
X52705000Y-33655000D01*
X49530000Y-36830000D02*
X52146200Y-36830000D01*
X52146200Y-36830000D02*
X52781200Y-36195000D01*
X49530000Y-39370000D02*
X52070000Y-39370000D01*
X52070000Y-39370000D02*
X52705000Y-38735000D01*
X49530000Y-41910000D02*
X52070000Y-41910000D01*
X52070000Y-41910000D02*
X52705000Y-41275000D01*
X49530000Y-44450000D02*
X52070000Y-44450000D01*
X52070000Y-44450000D02*
X52705000Y-43815000D01*
X34290000Y-16510000D02*
X31750000Y-16510000D01*
X31750000Y-16510000D02*
X31115000Y-15875000D01*
X34290000Y-21590000D02*
X35415300Y-21590000D01*
X35415300Y-21590000D02*
X39081300Y-17924000D01*
X39081300Y-17924000D02*
X52214000Y-17924000D01*
X52214000Y-17924000D02*
X52705000Y-18415000D01*
X28575000Y-43815000D02*
X27460300Y-44929700D01*
X27460300Y-44929700D02*
X24609700Y-44929700D01*
X24609700Y-44929700D02*
X23495000Y-43815000D01*
X23495000Y-33655000D02*
X24585000Y-34745000D01*
X24585000Y-34745000D02*
X27485000Y-34745000D01*
X27485000Y-34745000D02*
X28575000Y-33655000D01*
X28498800Y-36195000D02*
X27394500Y-37299300D01*
X27394500Y-37299300D02*
X24523100Y-37299300D01*
X24523100Y-37299300D02*
X23418800Y-36195000D01*
X28575000Y-26035000D02*
X27476000Y-27134000D01*
X27476000Y-27134000D02*
X24594000Y-27134000D01*
X24594000Y-27134000D02*
X23495000Y-26035000D01*
X23418800Y-31115000D02*
X22148800Y-29845000D01*
X22148800Y-29845000D02*
X17780000Y-29845000D01*
X23418800Y-31115000D02*
X24512500Y-32208700D01*
X24512500Y-32208700D02*
X27405100Y-32208700D01*
X27405100Y-32208700D02*
X28498800Y-31115000D01*
X28575000Y-28575000D02*
X29685600Y-29685600D01*
X29685600Y-29685600D02*
X31476400Y-29685600D01*
X31476400Y-29685600D02*
X32191500Y-30400700D01*
X32191500Y-30400700D02*
X50282300Y-30400700D01*
X50282300Y-30400700D02*
X50838000Y-29845000D01*
X50838000Y-29845000D02*
X66040000Y-29845000D01*
X23495000Y-28575000D02*
X24585000Y-29665000D01*
X24585000Y-29665000D02*
X27485000Y-29665000D01*
X27485000Y-29665000D02*
X28575000Y-28575000D01*
X28498800Y-20955000D02*
X27369500Y-22084300D01*
X27369500Y-22084300D02*
X24548100Y-22084300D01*
X24548100Y-22084300D02*
X23418800Y-20955000D01*
X28575000Y-18415000D02*
X27485400Y-19504600D01*
X27485400Y-19504600D02*
X25287300Y-19504600D01*
X25287300Y-19504600D02*
X24197700Y-18415000D01*
X24197700Y-18415000D02*
X23495000Y-18415000D01*
X28575000Y-15875000D02*
X27463800Y-16986200D01*
X27463800Y-16986200D02*
X24606200Y-16986200D01*
X24606200Y-16986200D02*
X23495000Y-15875000D01*
X28575000Y-13335000D02*
X27463800Y-14446200D01*
X27463800Y-14446200D02*
X24606200Y-14446200D01*
X24606200Y-14446200D02*
X23495000Y-13335000D01*
X55168800Y-41275000D02*
X56258700Y-42364900D01*
X56258700Y-42364900D02*
X59158900Y-42364900D01*
X59158900Y-42364900D02*
X60248800Y-41275000D01*
X60325000Y-38735000D02*
X59217000Y-39843000D01*
X59217000Y-39843000D02*
X56353000Y-39843000D01*
X56353000Y-39843000D02*
X55245000Y-38735000D01*
X55245000Y-33655000D02*
X56353000Y-34763000D01*
X56353000Y-34763000D02*
X59217000Y-34763000D01*
X59217000Y-34763000D02*
X60325000Y-33655000D01*
X60248800Y-36195000D02*
X59158900Y-37284900D01*
X59158900Y-37284900D02*
X56258700Y-37284900D01*
X56258700Y-37284900D02*
X55168800Y-36195000D01*
X55245000Y-26035000D02*
X56348900Y-24931100D01*
X56348900Y-24931100D02*
X59221100Y-24931100D01*
X59221100Y-24931100D02*
X60325000Y-26035000D01*
X55245000Y-28575000D02*
X56344100Y-27475900D01*
X56344100Y-27475900D02*
X59225900Y-27475900D01*
X59225900Y-27475900D02*
X60325000Y-28575000D01*
X55168800Y-20955000D02*
X56261900Y-22048100D01*
X56261900Y-22048100D02*
X59155700Y-22048100D01*
X59155700Y-22048100D02*
X60248800Y-20955000D01*
X55245000Y-18415000D02*
X56344000Y-17316000D01*
X56344000Y-17316000D02*
X59226000Y-17316000D01*
X59226000Y-17316000D02*
X60325000Y-18415000D01*
X55245000Y-15875000D02*
X56344000Y-14776000D01*
X56344000Y-14776000D02*
X59226000Y-14776000D01*
X59226000Y-14776000D02*
X60325000Y-15875000D01*
X55245000Y-13335000D02*
X56359400Y-12220600D01*
X56359400Y-12220600D02*
X59210600Y-12220600D01*
X59210600Y-12220600D02*
X60325000Y-13335000D01*
D21*
X54960000Y-49145000D02*
X62880800Y-49145000D01*
X62880800Y-49145000D02*
X67996000Y-44029800D01*
X67996000Y-44029800D02*
X67996000Y-34976000D01*
X67996000Y-34976000D02*
X66040000Y-33020000D01*
X30130000Y-49145000D02*
X20986700Y-49145000D01*
X20986700Y-49145000D02*
X15824000Y-43982300D01*
X15824000Y-43982300D02*
X15824000Y-34976000D01*
X15824000Y-34976000D02*
X17780000Y-33020000D01*
M02*
