G04 #@! TF.GenerationSoftware,KiCad,Pcbnew,(5.1.0)-1*
G04 #@! TF.CreationDate,2019-09-22T18:07:31+02:00*
G04 #@! TF.ProjectId,Arduino_HM_1,41726475-696e-46f5-9f48-4d5f312e6b69,rev?*
G04 #@! TF.SameCoordinates,Original*
G04 #@! TF.FileFunction,Legend,Top*
G04 #@! TF.FilePolarity,Positive*
%FSLAX46Y46*%
G04 Gerber Fmt 4.6, Leading zero omitted, Abs format (unit mm)*
G04 Created by KiCad (PCBNEW (5.1.0)-1) date 2019-09-22 18:07:31*
%MOMM*%
%LPD*%
G04 APERTURE LIST*
%ADD10C,0.120000*%
%ADD11C,0.300000*%
%ADD12C,0.127000*%
%ADD13C,0.150000*%
%ADD14C,0.050000*%
G04 APERTURE END LIST*
D10*
X12065000Y-72390000D02*
X19685000Y-72390000D01*
X12065000Y-12065000D02*
X12065000Y-72390000D01*
X19685000Y-12065000D02*
X12065000Y-12065000D01*
X71755000Y-12065000D02*
X64135000Y-12065000D01*
X71755000Y-72390000D02*
X71755000Y-12065000D01*
X64135000Y-72390000D02*
X71755000Y-72390000D01*
X19685000Y-72390000D02*
X64135000Y-72390000D01*
X14605000Y-17145000D02*
X14605000Y-67310000D01*
X64135000Y-12065000D02*
X19685000Y-12065000D01*
X69215000Y-67310000D02*
X69215000Y-17145000D01*
X14605000Y-67310000D02*
X19685000Y-72390000D01*
X69215000Y-67310000D02*
X64135000Y-72390000D01*
X64135000Y-12065000D02*
X69215000Y-17145000D01*
X19685000Y-12065000D02*
X14605000Y-17145000D01*
X32385000Y-72009000D02*
X32385000Y-53975000D01*
X52451000Y-72009000D02*
X32385000Y-72009000D01*
X52451000Y-53975000D02*
X52451000Y-72009000D01*
X32385000Y-53975000D02*
X52451000Y-53975000D01*
X33771000Y-69277000D02*
G75*
G03X33771000Y-69277000I-508000J0D01*
G01*
X33771000Y-67245000D02*
G75*
G03X33771000Y-67245000I-508000J0D01*
G01*
X33771000Y-61149000D02*
G75*
G03X33771000Y-61149000I-508000J0D01*
G01*
X33771000Y-65213000D02*
G75*
G03X33771000Y-65213000I-508000J0D01*
G01*
X33771000Y-63181000D02*
G75*
G03X33771000Y-63181000I-508000J0D01*
G01*
X33771000Y-59117000D02*
G75*
G03X33771000Y-59117000I-508000J0D01*
G01*
X33771000Y-57085000D02*
G75*
G03X33771000Y-57085000I-508000J0D01*
G01*
X33771000Y-55053000D02*
G75*
G03X33771000Y-55053000I-508000J0D01*
G01*
X19050000Y-18415000D02*
X19050000Y-31115000D01*
X16510000Y-18415000D02*
X19050000Y-18415000D01*
X16510000Y-31115000D02*
X16510000Y-18415000D01*
X19050000Y-31115000D02*
X16510000Y-31115000D01*
X67310000Y-18415000D02*
X67310000Y-31115000D01*
X64770000Y-18415000D02*
X67310000Y-18415000D01*
X64770000Y-31115000D02*
X64770000Y-18415000D01*
X67310000Y-31115000D02*
X64770000Y-31115000D01*
X16510000Y-44450000D02*
X16510000Y-31750000D01*
X19050000Y-44450000D02*
X16510000Y-44450000D01*
X19050000Y-31750000D02*
X19050000Y-44450000D01*
X16510000Y-31750000D02*
X19050000Y-31750000D01*
X67310000Y-31750000D02*
X67310000Y-44450000D01*
X64770000Y-31750000D02*
X67310000Y-31750000D01*
X64770000Y-44450000D02*
X64770000Y-31750000D01*
X67310000Y-44450000D02*
X64770000Y-44450000D01*
X59055000Y-12065000D02*
X59055000Y-45085000D01*
X61595000Y-12065000D02*
X59055000Y-12065000D01*
X61595000Y-45085000D02*
X61595000Y-12065000D01*
X59055000Y-45085000D02*
X61595000Y-45085000D01*
X53975000Y-12065000D02*
X53975000Y-45085000D01*
X56515000Y-12065000D02*
X53975000Y-12065000D01*
X56515000Y-45085000D02*
X56515000Y-12065000D01*
X53975000Y-45085000D02*
X56515000Y-45085000D01*
D11*
X18111000Y-65445000D02*
G75*
G03X18111000Y-65445000I-100000J0D01*
G01*
D12*
X31880000Y-45695000D02*
X31880000Y-64795000D01*
X16380000Y-45695000D02*
X31880000Y-45695000D01*
X16380000Y-64795000D02*
X16380000Y-45695000D01*
X31880000Y-64795000D02*
X16380000Y-64795000D01*
D10*
X19685000Y-12065000D02*
X19685000Y-45085000D01*
X22225000Y-12065000D02*
X19685000Y-12065000D01*
X22225000Y-45085000D02*
X22225000Y-12065000D01*
X19685000Y-45085000D02*
X22225000Y-45085000D01*
X61595000Y-12065000D02*
X61595000Y-45085000D01*
X64135000Y-12065000D02*
X61595000Y-12065000D01*
X64135000Y-45085000D02*
X64135000Y-12065000D01*
X61595000Y-45085000D02*
X64135000Y-45085000D01*
X56515000Y-12065000D02*
X56515000Y-45085000D01*
X59055000Y-12065000D02*
X56515000Y-12065000D01*
X59055000Y-45085000D02*
X59055000Y-12065000D01*
X56515000Y-45085000D02*
X59055000Y-45085000D01*
X22225000Y-12065000D02*
X22225000Y-45085000D01*
X24765000Y-12065000D02*
X22225000Y-12065000D01*
X24765000Y-45085000D02*
X24765000Y-12065000D01*
X22225000Y-45085000D02*
X24765000Y-45085000D01*
X27305000Y-12065000D02*
X27305000Y-45085000D01*
X29845000Y-12065000D02*
X27305000Y-12065000D01*
X29845000Y-45085000D02*
X29845000Y-12065000D01*
X27305000Y-45085000D02*
X29845000Y-45085000D01*
X24765000Y-12065000D02*
X24765000Y-45085000D01*
X27305000Y-12065000D02*
X24765000Y-12065000D01*
X27305000Y-45085000D02*
X27305000Y-12065000D01*
X24765000Y-45085000D02*
X27305000Y-45085000D01*
X53975000Y-45085000D02*
X53975000Y-12065000D01*
X51435000Y-45085000D02*
X53975000Y-45085000D01*
X51435000Y-12065000D02*
X51435000Y-45085000D01*
X53975000Y-12065000D02*
X51435000Y-12065000D01*
X29845000Y-12065000D02*
X29845000Y-45085000D01*
X32385000Y-12065000D02*
X29845000Y-12065000D01*
X32385000Y-45085000D02*
X32385000Y-12065000D01*
X29845000Y-45085000D02*
X32385000Y-45085000D01*
D11*
X54941000Y-65445000D02*
G75*
G03X54941000Y-65445000I-100000J0D01*
G01*
D12*
X68710000Y-45695000D02*
X68710000Y-64795000D01*
X53210000Y-45695000D02*
X68710000Y-45695000D01*
X53210000Y-64795000D02*
X53210000Y-45695000D01*
X68710000Y-64795000D02*
X53210000Y-64795000D01*
D10*
X50930000Y-12570000D02*
X32890000Y-12570000D01*
X50930000Y-56010000D02*
X50930000Y-12570000D01*
X32890000Y-56010000D02*
X50930000Y-56010000D01*
X35560000Y-53340000D02*
X32890000Y-53340000D01*
X35560000Y-17780000D02*
X35560000Y-53340000D01*
X35560000Y-17780000D02*
X32890000Y-17780000D01*
X48260000Y-53340000D02*
X50930000Y-53340000D01*
X48260000Y-15240000D02*
X48260000Y-53340000D01*
X48260000Y-15240000D02*
X50930000Y-15240000D01*
X32890000Y-12570000D02*
X32890000Y-15240000D01*
X32890000Y-17780000D02*
X32890000Y-56010000D01*
X35560000Y-15240000D02*
X32890000Y-15240000D01*
X35560000Y-17780000D02*
X35560000Y-15240000D01*
D13*
X30246904Y-53227380D02*
X30246904Y-54036904D01*
X30294523Y-54132142D01*
X30342142Y-54179761D01*
X30437380Y-54227380D01*
X30627857Y-54227380D01*
X30723095Y-54179761D01*
X30770714Y-54132142D01*
X30818333Y-54036904D01*
X30818333Y-53227380D01*
X31818333Y-54227380D02*
X31246904Y-54227380D01*
X31532619Y-54227380D02*
X31532619Y-53227380D01*
X31437380Y-53370238D01*
X31342142Y-53465476D01*
X31246904Y-53513095D01*
X32770714Y-54227380D02*
X32199285Y-54227380D01*
X32485000Y-54227380D02*
X32485000Y-53227380D01*
X32389761Y-53370238D01*
X32294523Y-53465476D01*
X32199285Y-53513095D01*
X30151666Y-58291380D02*
X29818333Y-57815190D01*
X29580238Y-58291380D02*
X29580238Y-57291380D01*
X29961190Y-57291380D01*
X30056428Y-57339000D01*
X30104047Y-57386619D01*
X30151666Y-57481857D01*
X30151666Y-57624714D01*
X30104047Y-57719952D01*
X30056428Y-57767571D01*
X29961190Y-57815190D01*
X29580238Y-57815190D01*
X30580238Y-57767571D02*
X30913571Y-57767571D01*
X31056428Y-58291380D02*
X30580238Y-58291380D01*
X30580238Y-57291380D01*
X31056428Y-57291380D01*
X31818333Y-57767571D02*
X31485000Y-57767571D01*
X31485000Y-58291380D02*
X31485000Y-57291380D01*
X31961190Y-57291380D01*
X32485000Y-57291380D02*
X32485000Y-57529476D01*
X32246904Y-57434238D02*
X32485000Y-57529476D01*
X32723095Y-57434238D01*
X32342142Y-57719952D02*
X32485000Y-57529476D01*
X32627857Y-57719952D01*
X33246904Y-57291380D02*
X33246904Y-57529476D01*
X33008809Y-57434238D02*
X33246904Y-57529476D01*
X33485000Y-57434238D01*
X33104047Y-57719952D02*
X33246904Y-57529476D01*
X33389761Y-57719952D01*
X68707095Y-67402380D02*
X68707095Y-66402380D01*
X68707095Y-66878571D02*
X69278523Y-66878571D01*
X69278523Y-67402380D02*
X69278523Y-66402380D01*
X70183285Y-66735714D02*
X70183285Y-67402380D01*
X69945190Y-66354761D02*
X69707095Y-67069047D01*
X70326142Y-67069047D01*
X18716666Y-30067380D02*
X18716666Y-30781666D01*
X18669047Y-30924523D01*
X18573809Y-31019761D01*
X18430952Y-31067380D01*
X18335714Y-31067380D01*
X19621428Y-30400714D02*
X19621428Y-31067380D01*
X19383333Y-30019761D02*
X19145238Y-30734047D01*
X19764285Y-30734047D01*
X66976666Y-30067380D02*
X66976666Y-30781666D01*
X66929047Y-30924523D01*
X66833809Y-31019761D01*
X66690952Y-31067380D01*
X66595714Y-31067380D01*
X67357619Y-30067380D02*
X67976666Y-30067380D01*
X67643333Y-30448333D01*
X67786190Y-30448333D01*
X67881428Y-30495952D01*
X67929047Y-30543571D01*
X67976666Y-30638809D01*
X67976666Y-30876904D01*
X67929047Y-30972142D01*
X67881428Y-31019761D01*
X67786190Y-31067380D01*
X67500476Y-31067380D01*
X67405238Y-31019761D01*
X67357619Y-30972142D01*
X16176666Y-31702380D02*
X16176666Y-32416666D01*
X16129047Y-32559523D01*
X16033809Y-32654761D01*
X15890952Y-32702380D01*
X15795714Y-32702380D01*
X16605238Y-31797619D02*
X16652857Y-31750000D01*
X16748095Y-31702380D01*
X16986190Y-31702380D01*
X17081428Y-31750000D01*
X17129047Y-31797619D01*
X17176666Y-31892857D01*
X17176666Y-31988095D01*
X17129047Y-32130952D01*
X16557619Y-32702380D01*
X17176666Y-32702380D01*
X66976666Y-43402380D02*
X66976666Y-44116666D01*
X66929047Y-44259523D01*
X66833809Y-44354761D01*
X66690952Y-44402380D01*
X66595714Y-44402380D01*
X67976666Y-44402380D02*
X67405238Y-44402380D01*
X67690952Y-44402380D02*
X67690952Y-43402380D01*
X67595714Y-43545238D01*
X67500476Y-43640476D01*
X67405238Y-43688095D01*
X57023095Y-10747380D02*
X57023095Y-11556904D01*
X57070714Y-11652142D01*
X57118333Y-11699761D01*
X57213571Y-11747380D01*
X57404047Y-11747380D01*
X57499285Y-11699761D01*
X57546904Y-11652142D01*
X57594523Y-11556904D01*
X57594523Y-10747380D01*
X58118333Y-11747380D02*
X58308809Y-11747380D01*
X58404047Y-11699761D01*
X58451666Y-11652142D01*
X58546904Y-11509285D01*
X58594523Y-11318809D01*
X58594523Y-10937857D01*
X58546904Y-10842619D01*
X58499285Y-10795000D01*
X58404047Y-10747380D01*
X58213571Y-10747380D01*
X58118333Y-10795000D01*
X58070714Y-10842619D01*
X58023095Y-10937857D01*
X58023095Y-11175952D01*
X58070714Y-11271190D01*
X58118333Y-11318809D01*
X58213571Y-11366428D01*
X58404047Y-11366428D01*
X58499285Y-11318809D01*
X58546904Y-11271190D01*
X58594523Y-11175952D01*
X51943095Y-10747380D02*
X51943095Y-11556904D01*
X51990714Y-11652142D01*
X52038333Y-11699761D01*
X52133571Y-11747380D01*
X52324047Y-11747380D01*
X52419285Y-11699761D01*
X52466904Y-11652142D01*
X52514523Y-11556904D01*
X52514523Y-10747380D01*
X52895476Y-10747380D02*
X53562142Y-10747380D01*
X53133571Y-11747380D01*
D14*
X15746581Y-63243851D02*
X14746491Y-63243851D01*
X15746581Y-62672371D02*
X15175101Y-63100981D01*
X14746491Y-62672371D02*
X15317971Y-63243851D01*
X14841738Y-62291385D02*
X14794115Y-62243761D01*
X14746491Y-62148515D01*
X14746491Y-61910398D01*
X14794115Y-61815151D01*
X14841738Y-61767528D01*
X14936985Y-61719905D01*
X15032231Y-61719905D01*
X15175101Y-61767528D01*
X15746581Y-62339008D01*
X15746581Y-61719905D01*
X33202587Y-68778962D02*
X33250221Y-68636060D01*
X33250221Y-68397891D01*
X33202587Y-68302624D01*
X33154953Y-68254990D01*
X33059685Y-68207356D01*
X32964418Y-68207356D01*
X32869150Y-68254990D01*
X32821516Y-68302624D01*
X32773883Y-68397891D01*
X32726249Y-68588427D01*
X32678615Y-68683694D01*
X32630981Y-68731328D01*
X32535714Y-68778962D01*
X32440446Y-68778962D01*
X32345178Y-68731328D01*
X32297545Y-68683694D01*
X32249911Y-68588427D01*
X32249911Y-68350258D01*
X32297545Y-68207356D01*
X33250221Y-67207046D02*
X32773883Y-67540483D01*
X33250221Y-67778652D02*
X32249911Y-67778652D01*
X32249911Y-67397581D01*
X32297545Y-67302314D01*
X32345178Y-67254680D01*
X32440446Y-67207046D01*
X32583347Y-67207046D01*
X32678615Y-67254680D01*
X32726249Y-67302314D01*
X32773883Y-67397581D01*
X32773883Y-67778652D01*
X33250221Y-66778342D02*
X32249911Y-66778342D01*
X32249911Y-66540173D01*
X32297545Y-66397271D01*
X32392812Y-66302004D01*
X32488080Y-66254370D01*
X32678615Y-66206736D01*
X32821516Y-66206736D01*
X33012052Y-66254370D01*
X33107319Y-66302004D01*
X33202587Y-66397271D01*
X33250221Y-66540173D01*
X33250221Y-66778342D01*
X32869150Y-65778032D02*
X32869150Y-65015891D01*
X32249911Y-64349018D02*
X32249911Y-64253750D01*
X32297545Y-64158482D01*
X32345178Y-64110849D01*
X32440446Y-64063215D01*
X32630981Y-64015581D01*
X32869150Y-64015581D01*
X33059685Y-64063215D01*
X33154953Y-64110849D01*
X33202587Y-64158482D01*
X33250221Y-64253750D01*
X33250221Y-64349018D01*
X33202587Y-64444285D01*
X33154953Y-64491919D01*
X33059685Y-64539553D01*
X32869150Y-64587187D01*
X32630981Y-64587187D01*
X32440446Y-64539553D01*
X32345178Y-64491919D01*
X32297545Y-64444285D01*
X32249911Y-64349018D01*
X32249911Y-63110539D02*
X32249911Y-63586877D01*
X32726249Y-63634510D01*
X32678615Y-63586877D01*
X32630981Y-63491609D01*
X32630981Y-63253440D01*
X32678615Y-63158172D01*
X32726249Y-63110539D01*
X32821516Y-63062905D01*
X33059685Y-63062905D01*
X33154953Y-63110539D01*
X33202587Y-63158172D01*
X33250221Y-63253440D01*
X33250221Y-63491609D01*
X33202587Y-63586877D01*
X33154953Y-63634510D01*
X32249911Y-62777102D02*
X33250221Y-62443665D01*
X32249911Y-62110229D01*
X33250221Y-61776792D02*
X32249911Y-61776792D01*
X32249911Y-61538623D01*
X32297545Y-61395721D01*
X32392812Y-61300454D01*
X32488080Y-61252820D01*
X32678615Y-61205186D01*
X32821516Y-61205186D01*
X33012052Y-61252820D01*
X33107319Y-61300454D01*
X33202587Y-61395721D01*
X33250221Y-61538623D01*
X33250221Y-61776792D01*
X33154953Y-60204876D02*
X33202587Y-60252510D01*
X33250221Y-60395411D01*
X33250221Y-60490679D01*
X33202587Y-60633580D01*
X33107319Y-60728848D01*
X33012052Y-60776482D01*
X32821516Y-60824116D01*
X32678615Y-60824116D01*
X32488080Y-60776482D01*
X32392812Y-60728848D01*
X32297545Y-60633580D01*
X32249911Y-60490679D01*
X32249911Y-60395411D01*
X32297545Y-60252510D01*
X32345178Y-60204876D01*
X32869150Y-59776172D02*
X32869150Y-59014031D01*
X33202587Y-58585327D02*
X33250221Y-58442425D01*
X33250221Y-58204256D01*
X33202587Y-58108989D01*
X33154953Y-58061355D01*
X33059685Y-58013721D01*
X32964418Y-58013721D01*
X32869150Y-58061355D01*
X32821516Y-58108989D01*
X32773883Y-58204256D01*
X32726249Y-58394791D01*
X32678615Y-58490059D01*
X32630981Y-58537693D01*
X32535714Y-58585327D01*
X32440446Y-58585327D01*
X32345178Y-58537693D01*
X32297545Y-58490059D01*
X32249911Y-58394791D01*
X32249911Y-58156622D01*
X32297545Y-58013721D01*
X33250221Y-57108679D02*
X33250221Y-57585017D01*
X32249911Y-57585017D01*
X32869150Y-56775242D02*
X32869150Y-56013101D01*
X33154953Y-54965157D02*
X33202587Y-55012791D01*
X33250221Y-55155692D01*
X33250221Y-55250960D01*
X33202587Y-55393861D01*
X33107319Y-55489129D01*
X33012052Y-55536763D01*
X32821516Y-55584397D01*
X32678615Y-55584397D01*
X32488080Y-55536763D01*
X32392812Y-55489129D01*
X32297545Y-55393861D01*
X32249911Y-55250960D01*
X32249911Y-55155692D01*
X32297545Y-55012791D01*
X32345178Y-54965157D01*
D13*
X17653095Y-10747380D02*
X17653095Y-11556904D01*
X17700714Y-11652142D01*
X17748333Y-11699761D01*
X17843571Y-11747380D01*
X18034047Y-11747380D01*
X18129285Y-11699761D01*
X18176904Y-11652142D01*
X18224523Y-11556904D01*
X18224523Y-10747380D01*
X19224523Y-11747380D02*
X18653095Y-11747380D01*
X18938809Y-11747380D02*
X18938809Y-10747380D01*
X18843571Y-10890238D01*
X18748333Y-10985476D01*
X18653095Y-11033095D01*
X59086904Y-10747380D02*
X59086904Y-11556904D01*
X59134523Y-11652142D01*
X59182142Y-11699761D01*
X59277380Y-11747380D01*
X59467857Y-11747380D01*
X59563095Y-11699761D01*
X59610714Y-11652142D01*
X59658333Y-11556904D01*
X59658333Y-10747380D01*
X60658333Y-11747380D02*
X60086904Y-11747380D01*
X60372619Y-11747380D02*
X60372619Y-10747380D01*
X60277380Y-10890238D01*
X60182142Y-10985476D01*
X60086904Y-11033095D01*
X61277380Y-10747380D02*
X61372619Y-10747380D01*
X61467857Y-10795000D01*
X61515476Y-10842619D01*
X61563095Y-10937857D01*
X61610714Y-11128333D01*
X61610714Y-11366428D01*
X61563095Y-11556904D01*
X61515476Y-11652142D01*
X61467857Y-11699761D01*
X61372619Y-11747380D01*
X61277380Y-11747380D01*
X61182142Y-11699761D01*
X61134523Y-11652142D01*
X61086904Y-11556904D01*
X61039285Y-11366428D01*
X61039285Y-11128333D01*
X61086904Y-10937857D01*
X61134523Y-10842619D01*
X61182142Y-10795000D01*
X61277380Y-10747380D01*
X54483095Y-10747380D02*
X54483095Y-11556904D01*
X54530714Y-11652142D01*
X54578333Y-11699761D01*
X54673571Y-11747380D01*
X54864047Y-11747380D01*
X54959285Y-11699761D01*
X55006904Y-11652142D01*
X55054523Y-11556904D01*
X55054523Y-10747380D01*
X55673571Y-11175952D02*
X55578333Y-11128333D01*
X55530714Y-11080714D01*
X55483095Y-10985476D01*
X55483095Y-10937857D01*
X55530714Y-10842619D01*
X55578333Y-10795000D01*
X55673571Y-10747380D01*
X55864047Y-10747380D01*
X55959285Y-10795000D01*
X56006904Y-10842619D01*
X56054523Y-10937857D01*
X56054523Y-10985476D01*
X56006904Y-11080714D01*
X55959285Y-11128333D01*
X55864047Y-11175952D01*
X55673571Y-11175952D01*
X55578333Y-11223571D01*
X55530714Y-11271190D01*
X55483095Y-11366428D01*
X55483095Y-11556904D01*
X55530714Y-11652142D01*
X55578333Y-11699761D01*
X55673571Y-11747380D01*
X55864047Y-11747380D01*
X55959285Y-11699761D01*
X56006904Y-11652142D01*
X56054523Y-11556904D01*
X56054523Y-11366428D01*
X56006904Y-11271190D01*
X55959285Y-11223571D01*
X55864047Y-11175952D01*
X20193095Y-10747380D02*
X20193095Y-11556904D01*
X20240714Y-11652142D01*
X20288333Y-11699761D01*
X20383571Y-11747380D01*
X20574047Y-11747380D01*
X20669285Y-11699761D01*
X20716904Y-11652142D01*
X20764523Y-11556904D01*
X20764523Y-10747380D01*
X21193095Y-10842619D02*
X21240714Y-10795000D01*
X21335952Y-10747380D01*
X21574047Y-10747380D01*
X21669285Y-10795000D01*
X21716904Y-10842619D01*
X21764523Y-10937857D01*
X21764523Y-11033095D01*
X21716904Y-11175952D01*
X21145476Y-11747380D01*
X21764523Y-11747380D01*
X25273095Y-10747380D02*
X25273095Y-11556904D01*
X25320714Y-11652142D01*
X25368333Y-11699761D01*
X25463571Y-11747380D01*
X25654047Y-11747380D01*
X25749285Y-11699761D01*
X25796904Y-11652142D01*
X25844523Y-11556904D01*
X25844523Y-10747380D01*
X26749285Y-11080714D02*
X26749285Y-11747380D01*
X26511190Y-10699761D02*
X26273095Y-11414047D01*
X26892142Y-11414047D01*
X22733095Y-10747380D02*
X22733095Y-11556904D01*
X22780714Y-11652142D01*
X22828333Y-11699761D01*
X22923571Y-11747380D01*
X23114047Y-11747380D01*
X23209285Y-11699761D01*
X23256904Y-11652142D01*
X23304523Y-11556904D01*
X23304523Y-10747380D01*
X23685476Y-10747380D02*
X24304523Y-10747380D01*
X23971190Y-11128333D01*
X24114047Y-11128333D01*
X24209285Y-11175952D01*
X24256904Y-11223571D01*
X24304523Y-11318809D01*
X24304523Y-11556904D01*
X24256904Y-11652142D01*
X24209285Y-11699761D01*
X24114047Y-11747380D01*
X23828333Y-11747380D01*
X23733095Y-11699761D01*
X23685476Y-11652142D01*
X54483095Y-45307380D02*
X54483095Y-46116904D01*
X54530714Y-46212142D01*
X54578333Y-46259761D01*
X54673571Y-46307380D01*
X54864047Y-46307380D01*
X54959285Y-46259761D01*
X55006904Y-46212142D01*
X55054523Y-46116904D01*
X55054523Y-45307380D01*
X55959285Y-45307380D02*
X55768809Y-45307380D01*
X55673571Y-45355000D01*
X55625952Y-45402619D01*
X55530714Y-45545476D01*
X55483095Y-45735952D01*
X55483095Y-46116904D01*
X55530714Y-46212142D01*
X55578333Y-46259761D01*
X55673571Y-46307380D01*
X55864047Y-46307380D01*
X55959285Y-46259761D01*
X56006904Y-46212142D01*
X56054523Y-46116904D01*
X56054523Y-45878809D01*
X56006904Y-45783571D01*
X55959285Y-45735952D01*
X55864047Y-45688333D01*
X55673571Y-45688333D01*
X55578333Y-45735952D01*
X55530714Y-45783571D01*
X55483095Y-45878809D01*
X27813095Y-10747380D02*
X27813095Y-11556904D01*
X27860714Y-11652142D01*
X27908333Y-11699761D01*
X28003571Y-11747380D01*
X28194047Y-11747380D01*
X28289285Y-11699761D01*
X28336904Y-11652142D01*
X28384523Y-11556904D01*
X28384523Y-10747380D01*
X29336904Y-10747380D02*
X28860714Y-10747380D01*
X28813095Y-11223571D01*
X28860714Y-11175952D01*
X28955952Y-11128333D01*
X29194047Y-11128333D01*
X29289285Y-11175952D01*
X29336904Y-11223571D01*
X29384523Y-11318809D01*
X29384523Y-11556904D01*
X29336904Y-11652142D01*
X29289285Y-11699761D01*
X29194047Y-11747380D01*
X28955952Y-11747380D01*
X28860714Y-11699761D01*
X28813095Y-11652142D01*
D14*
X52576581Y-63243851D02*
X51576491Y-63243851D01*
X52576581Y-62672371D02*
X52005101Y-63100981D01*
X51576491Y-62672371D02*
X52147971Y-63243851D01*
X52576581Y-61719905D02*
X52576581Y-62291385D01*
X52576581Y-62005645D02*
X51576491Y-62005645D01*
X51719361Y-62100891D01*
X51814608Y-62196138D01*
X51862231Y-62291385D01*
X70032587Y-68778962D02*
X70080221Y-68636060D01*
X70080221Y-68397891D01*
X70032587Y-68302624D01*
X69984953Y-68254990D01*
X69889685Y-68207356D01*
X69794418Y-68207356D01*
X69699150Y-68254990D01*
X69651516Y-68302624D01*
X69603883Y-68397891D01*
X69556249Y-68588427D01*
X69508615Y-68683694D01*
X69460981Y-68731328D01*
X69365714Y-68778962D01*
X69270446Y-68778962D01*
X69175178Y-68731328D01*
X69127545Y-68683694D01*
X69079911Y-68588427D01*
X69079911Y-68350258D01*
X69127545Y-68207356D01*
X70080221Y-67207046D02*
X69603883Y-67540483D01*
X70080221Y-67778652D02*
X69079911Y-67778652D01*
X69079911Y-67397581D01*
X69127545Y-67302314D01*
X69175178Y-67254680D01*
X69270446Y-67207046D01*
X69413347Y-67207046D01*
X69508615Y-67254680D01*
X69556249Y-67302314D01*
X69603883Y-67397581D01*
X69603883Y-67778652D01*
X70080221Y-66778342D02*
X69079911Y-66778342D01*
X69079911Y-66540173D01*
X69127545Y-66397271D01*
X69222812Y-66302004D01*
X69318080Y-66254370D01*
X69508615Y-66206736D01*
X69651516Y-66206736D01*
X69842052Y-66254370D01*
X69937319Y-66302004D01*
X70032587Y-66397271D01*
X70080221Y-66540173D01*
X70080221Y-66778342D01*
X69699150Y-65778032D02*
X69699150Y-65015891D01*
X69079911Y-64349018D02*
X69079911Y-64253750D01*
X69127545Y-64158482D01*
X69175178Y-64110849D01*
X69270446Y-64063215D01*
X69460981Y-64015581D01*
X69699150Y-64015581D01*
X69889685Y-64063215D01*
X69984953Y-64110849D01*
X70032587Y-64158482D01*
X70080221Y-64253750D01*
X70080221Y-64349018D01*
X70032587Y-64444285D01*
X69984953Y-64491919D01*
X69889685Y-64539553D01*
X69699150Y-64587187D01*
X69460981Y-64587187D01*
X69270446Y-64539553D01*
X69175178Y-64491919D01*
X69127545Y-64444285D01*
X69079911Y-64349018D01*
X69079911Y-63110539D02*
X69079911Y-63586877D01*
X69556249Y-63634510D01*
X69508615Y-63586877D01*
X69460981Y-63491609D01*
X69460981Y-63253440D01*
X69508615Y-63158172D01*
X69556249Y-63110539D01*
X69651516Y-63062905D01*
X69889685Y-63062905D01*
X69984953Y-63110539D01*
X70032587Y-63158172D01*
X70080221Y-63253440D01*
X70080221Y-63491609D01*
X70032587Y-63586877D01*
X69984953Y-63634510D01*
X69079911Y-62777102D02*
X70080221Y-62443665D01*
X69079911Y-62110229D01*
X70080221Y-61776792D02*
X69079911Y-61776792D01*
X69079911Y-61538623D01*
X69127545Y-61395721D01*
X69222812Y-61300454D01*
X69318080Y-61252820D01*
X69508615Y-61205186D01*
X69651516Y-61205186D01*
X69842052Y-61252820D01*
X69937319Y-61300454D01*
X70032587Y-61395721D01*
X70080221Y-61538623D01*
X70080221Y-61776792D01*
X69984953Y-60204876D02*
X70032587Y-60252510D01*
X70080221Y-60395411D01*
X70080221Y-60490679D01*
X70032587Y-60633580D01*
X69937319Y-60728848D01*
X69842052Y-60776482D01*
X69651516Y-60824116D01*
X69508615Y-60824116D01*
X69318080Y-60776482D01*
X69222812Y-60728848D01*
X69127545Y-60633580D01*
X69079911Y-60490679D01*
X69079911Y-60395411D01*
X69127545Y-60252510D01*
X69175178Y-60204876D01*
X69699150Y-59776172D02*
X69699150Y-59014031D01*
X70032587Y-58585327D02*
X70080221Y-58442425D01*
X70080221Y-58204256D01*
X70032587Y-58108989D01*
X69984953Y-58061355D01*
X69889685Y-58013721D01*
X69794418Y-58013721D01*
X69699150Y-58061355D01*
X69651516Y-58108989D01*
X69603883Y-58204256D01*
X69556249Y-58394791D01*
X69508615Y-58490059D01*
X69460981Y-58537693D01*
X69365714Y-58585327D01*
X69270446Y-58585327D01*
X69175178Y-58537693D01*
X69127545Y-58490059D01*
X69079911Y-58394791D01*
X69079911Y-58156622D01*
X69127545Y-58013721D01*
X70080221Y-57108679D02*
X70080221Y-57585017D01*
X69079911Y-57585017D01*
X69699150Y-56775242D02*
X69699150Y-56013101D01*
X69984953Y-54965157D02*
X70032587Y-55012791D01*
X70080221Y-55155692D01*
X70080221Y-55250960D01*
X70032587Y-55393861D01*
X69937319Y-55489129D01*
X69842052Y-55536763D01*
X69651516Y-55584397D01*
X69508615Y-55584397D01*
X69318080Y-55536763D01*
X69222812Y-55489129D01*
X69127545Y-55393861D01*
X69079911Y-55250960D01*
X69079911Y-55155692D01*
X69127545Y-55012791D01*
X69175178Y-54965157D01*
D13*
X13589095Y-67402380D02*
X13589095Y-66402380D01*
X13589095Y-66878571D02*
X14160523Y-66878571D01*
X14160523Y-67402380D02*
X14160523Y-66402380D01*
X14541476Y-66402380D02*
X15160523Y-66402380D01*
X14827190Y-66783333D01*
X14970047Y-66783333D01*
X15065285Y-66830952D01*
X15112904Y-66878571D01*
X15160523Y-66973809D01*
X15160523Y-67211904D01*
X15112904Y-67307142D01*
X15065285Y-67354761D01*
X14970047Y-67402380D01*
X14684333Y-67402380D01*
X14589095Y-67354761D01*
X14541476Y-67307142D01*
X68707095Y-12157380D02*
X68707095Y-11157380D01*
X68707095Y-11633571D02*
X69278523Y-11633571D01*
X69278523Y-12157380D02*
X69278523Y-11157380D01*
X69707095Y-11252619D02*
X69754714Y-11205000D01*
X69849952Y-11157380D01*
X70088047Y-11157380D01*
X70183285Y-11205000D01*
X70230904Y-11252619D01*
X70278523Y-11347857D01*
X70278523Y-11443095D01*
X70230904Y-11585952D01*
X69659476Y-12157380D01*
X70278523Y-12157380D01*
X13589095Y-12157380D02*
X13589095Y-11157380D01*
X13589095Y-11633571D02*
X14160523Y-11633571D01*
X14160523Y-12157380D02*
X14160523Y-11157380D01*
X15160523Y-12157380D02*
X14589095Y-12157380D01*
X14874809Y-12157380D02*
X14874809Y-11157380D01*
X14779571Y-11300238D01*
X14684333Y-11395476D01*
X14589095Y-11443095D01*
X41195714Y-11596666D02*
X41671904Y-11596666D01*
X41100476Y-11882380D02*
X41433809Y-10882380D01*
X41767142Y-11882380D01*
X42624285Y-11882380D02*
X42052857Y-11882380D01*
X42338571Y-11882380D02*
X42338571Y-10882380D01*
X42243333Y-11025238D01*
X42148095Y-11120476D01*
X42052857Y-11168095D01*
M02*
