G04 #@! TF.GenerationSoftware,KiCad,Pcbnew,(5.1.0)-1*
G04 #@! TF.CreationDate,2019-09-22T18:07:31+02:00*
G04 #@! TF.ProjectId,Arduino_HM_1,41726475-696e-46f5-9f48-4d5f312e6b69,rev?*
G04 #@! TF.SameCoordinates,Original*
G04 #@! TF.FileFunction,Copper,L2,Bot*
G04 #@! TF.FilePolarity,Positive*
%FSLAX46Y46*%
G04 Gerber Fmt 4.6, Leading zero omitted, Abs format (unit mm)*
G04 Created by KiCad (PCBNEW (5.1.0)-1) date 2019-09-22 18:07:31*
%MOMM*%
%LPD*%
G04 APERTURE LIST*
%ADD10C,1.000000*%
%ADD11C,1.500000*%
%ADD12C,2.000000*%
%ADD13C,1.524000*%
%ADD14C,1.980000*%
%ADD15C,1.935000*%
%ADD16R,1.980000X1.980000*%
%ADD17O,1.600000X1.600000*%
%ADD18R,1.600000X1.600000*%
%ADD19C,0.800000*%
%ADD20C,0.250000*%
%ADD21C,1.500000*%
%ADD22C,0.254000*%
G04 APERTURE END LIST*
D10*
X50625000Y-65675000D03*
D11*
X50636600Y-63152400D03*
D10*
X50645000Y-60615000D03*
X33263000Y-69277000D03*
X33263000Y-67245000D03*
X33263000Y-65213000D03*
X33263000Y-63181000D03*
X33263000Y-61149000D03*
X33263000Y-59117000D03*
X33263000Y-57085000D03*
X33263000Y-55053000D03*
D12*
X17780000Y-19685000D03*
X17780000Y-24765000D03*
X17780000Y-29845000D03*
X66040000Y-19685000D03*
X66040000Y-24765000D03*
X66040000Y-29845000D03*
X17780000Y-43180000D03*
X17780000Y-38100000D03*
X17780000Y-33020000D03*
X66040000Y-33020000D03*
X66040000Y-38100000D03*
X66040000Y-43180000D03*
D13*
X60325000Y-43815000D03*
X60248800Y-41275000D03*
X60325000Y-38735000D03*
X60325000Y-33655000D03*
X60248800Y-36195000D03*
X60325000Y-23495000D03*
X60325000Y-26035000D03*
X60248800Y-31115000D03*
X60325000Y-28575000D03*
X60248800Y-20955000D03*
X60325000Y-18415000D03*
X60325000Y-15875000D03*
X60325000Y-13335000D03*
X55245000Y-43815000D03*
X55168800Y-41275000D03*
X55245000Y-38735000D03*
X55245000Y-33655000D03*
X55168800Y-36195000D03*
X55245000Y-23495000D03*
X55245000Y-26035000D03*
X55168800Y-31115000D03*
X55245000Y-28575000D03*
X55168800Y-20955000D03*
X55245000Y-18415000D03*
X55245000Y-15875000D03*
X55245000Y-13335000D03*
D14*
X18130000Y-49145000D03*
X30130000Y-49145000D03*
X30130000Y-61345000D03*
D15*
X24130000Y-63345000D03*
D16*
X18130000Y-61345000D03*
D13*
X20955000Y-43815000D03*
X20878800Y-41275000D03*
X20955000Y-38735000D03*
X20955000Y-33655000D03*
X20878800Y-36195000D03*
X20955000Y-23495000D03*
X20955000Y-26035000D03*
X20878800Y-31115000D03*
X20955000Y-28575000D03*
X20878800Y-20955000D03*
X20955000Y-18415000D03*
X20955000Y-15875000D03*
X20955000Y-13335000D03*
X62865000Y-43815000D03*
X62788800Y-41275000D03*
X62865000Y-38735000D03*
X62865000Y-33655000D03*
X62788800Y-36195000D03*
X62865000Y-23495000D03*
X62865000Y-26035000D03*
X62788800Y-31115000D03*
X62865000Y-28575000D03*
X62788800Y-20955000D03*
X62865000Y-18415000D03*
X62865000Y-15875000D03*
X62865000Y-13335000D03*
X57785000Y-43815000D03*
X57708800Y-41275000D03*
X57785000Y-38735000D03*
X57785000Y-33655000D03*
X57708800Y-36195000D03*
X57785000Y-23495000D03*
X57785000Y-26035000D03*
X57708800Y-31115000D03*
X57785000Y-28575000D03*
X57708800Y-20955000D03*
X57785000Y-18415000D03*
X57785000Y-15875000D03*
X57785000Y-13335000D03*
X23495000Y-43815000D03*
X23418800Y-41275000D03*
X23495000Y-38735000D03*
X23495000Y-33655000D03*
X23418800Y-36195000D03*
X23495000Y-23495000D03*
X23495000Y-26035000D03*
X23418800Y-31115000D03*
X23495000Y-28575000D03*
X23418800Y-20955000D03*
X23495000Y-18415000D03*
X23495000Y-15875000D03*
X23495000Y-13335000D03*
X28575000Y-43815000D03*
X28498800Y-41275000D03*
X28575000Y-38735000D03*
X28575000Y-33655000D03*
X28498800Y-36195000D03*
X28575000Y-23495000D03*
X28575000Y-26035000D03*
X28498800Y-31115000D03*
X28575000Y-28575000D03*
X28498800Y-20955000D03*
X28575000Y-18415000D03*
X28575000Y-15875000D03*
X28575000Y-13335000D03*
X26035000Y-43815000D03*
X25958800Y-41275000D03*
X26035000Y-38735000D03*
X26035000Y-33655000D03*
X25958800Y-36195000D03*
X26035000Y-23495000D03*
X26035000Y-26035000D03*
X25958800Y-31115000D03*
X26035000Y-28575000D03*
X25958800Y-20955000D03*
X26035000Y-18415000D03*
X26035000Y-15875000D03*
X26035000Y-13335000D03*
X52705000Y-13335000D03*
X52781200Y-15875000D03*
X52705000Y-18415000D03*
X52705000Y-23495000D03*
X52781200Y-20955000D03*
X52705000Y-33655000D03*
X52705000Y-31115000D03*
X52781200Y-26035000D03*
X52705000Y-28575000D03*
X52781200Y-36195000D03*
X52705000Y-38735000D03*
X52705000Y-41275000D03*
X52705000Y-43815000D03*
X31115000Y-43815000D03*
X31038800Y-41275000D03*
X31115000Y-38735000D03*
X31115000Y-33655000D03*
X31038800Y-36195000D03*
X31115000Y-23495000D03*
X31115000Y-26035000D03*
X31038800Y-31115000D03*
X31115000Y-28575000D03*
X31038800Y-20955000D03*
X31115000Y-18415000D03*
X31115000Y-15875000D03*
X31115000Y-13335000D03*
D14*
X54960000Y-49145000D03*
X66960000Y-49145000D03*
X66960000Y-61345000D03*
D15*
X60960000Y-63345000D03*
D16*
X54960000Y-61345000D03*
D17*
X49530000Y-52070000D03*
X34290000Y-52070000D03*
X49530000Y-16510000D03*
X34290000Y-49530000D03*
X49530000Y-19050000D03*
X34290000Y-46990000D03*
X49530000Y-21590000D03*
X34290000Y-44450000D03*
X49530000Y-24130000D03*
X34290000Y-41910000D03*
X49530000Y-26670000D03*
X34290000Y-39370000D03*
X49530000Y-29210000D03*
X34290000Y-36830000D03*
X49530000Y-31750000D03*
X34290000Y-34290000D03*
X49530000Y-34290000D03*
X34290000Y-31750000D03*
X49530000Y-36830000D03*
X34290000Y-29210000D03*
X49530000Y-39370000D03*
X34290000Y-26670000D03*
X49530000Y-41910000D03*
X34290000Y-24130000D03*
X49530000Y-44450000D03*
X34290000Y-21590000D03*
X49530000Y-46990000D03*
X34290000Y-19050000D03*
X49530000Y-49530000D03*
D18*
X34290000Y-16510000D03*
D19*
X40640000Y-64135000D03*
X42545000Y-25400000D03*
X29364200Y-34816000D03*
D20*
X34290000Y-52070000D02*
X34290000Y-62154000D01*
X34290000Y-62154000D02*
X33263000Y-63181000D01*
X34290000Y-51507300D02*
X34290000Y-52070000D01*
X34290000Y-51507300D02*
X34290000Y-50944700D01*
X34290000Y-50944700D02*
X34008700Y-50944700D01*
X34008700Y-50944700D02*
X32579500Y-49515500D01*
X32579500Y-49515500D02*
X32579500Y-40839200D01*
X32579500Y-40839200D02*
X31115000Y-39374700D01*
X31115000Y-39374700D02*
X31115000Y-38735000D01*
X34290000Y-49530000D02*
X34290000Y-48404700D01*
X34290000Y-48404700D02*
X34008600Y-48404700D01*
X34008600Y-48404700D02*
X33164700Y-47560800D01*
X33164700Y-47560800D02*
X33164700Y-40787500D01*
X33164700Y-40787500D02*
X32253100Y-39875900D01*
X32253100Y-39875900D02*
X32253100Y-38335200D01*
X32253100Y-38335200D02*
X31038800Y-37120900D01*
X31038800Y-37120900D02*
X31038800Y-36195000D01*
X31115000Y-43815000D02*
X32056400Y-44756400D01*
X32056400Y-44756400D02*
X32056400Y-55878400D01*
X32056400Y-55878400D02*
X33263000Y-57085000D01*
X57708800Y-41275000D02*
X57785000Y-41351200D01*
X57785000Y-41351200D02*
X57785000Y-43815000D01*
X57785000Y-38735000D02*
X57708800Y-38811200D01*
X57708800Y-38811200D02*
X57708800Y-41275000D01*
X57708800Y-36195000D02*
X57785000Y-36271200D01*
X57785000Y-36271200D02*
X57785000Y-38735000D01*
X57708800Y-36195000D02*
X57785000Y-36118800D01*
X57785000Y-36118800D02*
X57785000Y-33655000D01*
X57785000Y-23495000D02*
X57785000Y-26035000D01*
X57708800Y-20955000D02*
X57785000Y-21031200D01*
X57785000Y-21031200D02*
X57785000Y-23495000D01*
X57785000Y-28575000D02*
X57785000Y-26035000D01*
X57708800Y-31115000D02*
X57708800Y-28651200D01*
X57708800Y-28651200D02*
X57785000Y-28575000D01*
X57785000Y-15875000D02*
X57785000Y-18415000D01*
X57785000Y-13335000D02*
X57785000Y-15875000D01*
X26035000Y-33655000D02*
X25958800Y-33731200D01*
X25958800Y-33731200D02*
X25958800Y-36195000D01*
X25958800Y-31115000D02*
X26035000Y-31191200D01*
X26035000Y-31191200D02*
X26035000Y-33655000D01*
X25958800Y-36195000D02*
X26035000Y-36271200D01*
X26035000Y-36271200D02*
X26035000Y-38735000D01*
X25958800Y-31115000D02*
X25958800Y-28651200D01*
X25958800Y-28651200D02*
X26035000Y-28575000D01*
X26035000Y-28575000D02*
X26035000Y-26035000D01*
X25958800Y-20955000D02*
X26035000Y-21031200D01*
X26035000Y-21031200D02*
X26035000Y-23495000D01*
X26035000Y-18415000D02*
X25958800Y-18491200D01*
X25958800Y-18491200D02*
X25958800Y-20955000D01*
X26035000Y-15875000D02*
X26035000Y-18415000D01*
X26035000Y-13335000D02*
X26035000Y-15875000D01*
X33263000Y-57085000D02*
X30130000Y-60218000D01*
X30130000Y-60218000D02*
X30130000Y-61345000D01*
X33263000Y-67245000D02*
X35419800Y-65088200D01*
X35419800Y-65088200D02*
X35419800Y-28643800D01*
X35419800Y-28643800D02*
X34571300Y-27795300D01*
X34571300Y-27795300D02*
X34290000Y-27795300D01*
X34290000Y-26670000D02*
X34290000Y-27795300D01*
X49530000Y-49530000D02*
X49530000Y-48404700D01*
X49530000Y-48404700D02*
X49811300Y-48404700D01*
X49811300Y-48404700D02*
X51423100Y-46792900D01*
X51423100Y-46792900D02*
X51423100Y-36014400D01*
X51423100Y-36014400D02*
X52657000Y-34780500D01*
X52657000Y-34780500D02*
X53151300Y-34780500D01*
X53151300Y-34780500D02*
X53872000Y-34059800D01*
X53872000Y-34059800D02*
X53872000Y-16965800D01*
X53872000Y-16965800D02*
X52781200Y-15875000D01*
X49530000Y-16510000D02*
X50655300Y-16510000D01*
X50655300Y-16510000D02*
X50655300Y-15384700D01*
X50655300Y-15384700D02*
X52705000Y-13335000D01*
X50678000Y-17660000D02*
X39152400Y-17660000D01*
X39152400Y-17660000D02*
X33687900Y-12195500D01*
X33687900Y-12195500D02*
X22094500Y-12195500D01*
X22094500Y-12195500D02*
X20955000Y-13335000D01*
X62865000Y-13335000D02*
X61772700Y-12242700D01*
X61772700Y-12242700D02*
X54768600Y-12242700D01*
X54768600Y-12242700D02*
X53975000Y-13036300D01*
X53975000Y-13036300D02*
X53975000Y-13604400D01*
X53975000Y-13604400D02*
X52995100Y-14584300D01*
X52995100Y-14584300D02*
X52516700Y-14584300D01*
X52516700Y-14584300D02*
X51240500Y-15860500D01*
X51240500Y-15860500D02*
X51240500Y-17097500D01*
X51240500Y-17097500D02*
X50678000Y-17660000D01*
X49530000Y-23004700D02*
X49740600Y-23004700D01*
X49740600Y-23004700D02*
X50678000Y-22067300D01*
X50678000Y-22067300D02*
X50678000Y-17660000D01*
X62865000Y-18415000D02*
X62788800Y-18491200D01*
X62788800Y-18491200D02*
X62788800Y-20955000D01*
X62865000Y-15875000D02*
X62865000Y-18415000D01*
X20916900Y-20955000D02*
X20916900Y-23456900D01*
X20916900Y-23456900D02*
X20955000Y-23495000D01*
X20955000Y-18415000D02*
X20955000Y-20916900D01*
X20955000Y-20916900D02*
X20916900Y-20955000D01*
X20916900Y-20955000D02*
X20878800Y-20955000D01*
X20955000Y-15875000D02*
X20955000Y-18415000D01*
X20955000Y-24765000D02*
X20955000Y-26035000D01*
X20955000Y-23495000D02*
X20955000Y-24765000D01*
X20955000Y-24765000D02*
X17780000Y-24765000D01*
X49530000Y-24130000D02*
X49530000Y-23004700D01*
X20878800Y-41275000D02*
X20955000Y-41351200D01*
X20955000Y-41351200D02*
X20955000Y-43815000D01*
X20878800Y-38735000D02*
X20878800Y-41275000D01*
X20878800Y-36195000D02*
X20878800Y-38735000D01*
X20955000Y-38735000D02*
X20878800Y-38735000D01*
X20878800Y-36195000D02*
X20955000Y-36118800D01*
X20955000Y-36118800D02*
X20955000Y-33655000D01*
X20955000Y-26035000D02*
X20955000Y-28575000D01*
X20878800Y-31115000D02*
X20878800Y-33578800D01*
X20878800Y-33578800D02*
X20955000Y-33655000D01*
X20955000Y-28575000D02*
X20955000Y-31038800D01*
X20955000Y-31038800D02*
X20878800Y-31115000D01*
X20955000Y-13335000D02*
X20955000Y-15875000D01*
X62865000Y-41275000D02*
X62865000Y-43815000D01*
X62865000Y-38735000D02*
X62865000Y-41275000D01*
X62788800Y-41275000D02*
X62865000Y-41275000D01*
X62788800Y-36195000D02*
X62865000Y-36271200D01*
X62865000Y-36271200D02*
X62865000Y-38735000D01*
X62865000Y-33655000D02*
X62788800Y-33731200D01*
X62788800Y-33731200D02*
X62788800Y-36195000D01*
X62788800Y-31115000D02*
X62865000Y-31191200D01*
X62865000Y-31191200D02*
X62865000Y-33655000D01*
X62788800Y-31115000D02*
X62865000Y-31038800D01*
X62865000Y-31038800D02*
X62865000Y-28575000D01*
X62865000Y-28575000D02*
X62865000Y-26035000D01*
X62865000Y-13335000D02*
X62865000Y-15875000D01*
X34290000Y-41910000D02*
X34290000Y-40784700D01*
X34290000Y-40784700D02*
X34101400Y-40784700D01*
X34101400Y-40784700D02*
X33164600Y-39847900D01*
X33164600Y-39847900D02*
X33164600Y-38549000D01*
X33164600Y-38549000D02*
X32579600Y-37964000D01*
X32579600Y-37964000D02*
X32579600Y-36180500D01*
X32579600Y-36180500D02*
X31303500Y-34904400D01*
X31303500Y-34904400D02*
X30778400Y-34904400D01*
X30778400Y-34904400D02*
X29950200Y-34076200D01*
X29950200Y-34076200D02*
X29950200Y-29739800D01*
X29950200Y-29739800D02*
X31115000Y-28575000D01*
X34290000Y-36830000D02*
X34290000Y-35704700D01*
X34290000Y-35704700D02*
X34113200Y-35704700D01*
X34113200Y-35704700D02*
X32617700Y-34209200D01*
X32617700Y-34209200D02*
X32617700Y-28291700D01*
X32617700Y-28291700D02*
X31115000Y-26789000D01*
X31115000Y-26789000D02*
X31115000Y-26035000D01*
X29364200Y-34816000D02*
X28154700Y-34816000D01*
X28154700Y-34816000D02*
X27396300Y-34057600D01*
X27396300Y-34057600D02*
X27396300Y-28151500D01*
X27396300Y-28151500D02*
X28425400Y-27122400D01*
X28425400Y-27122400D02*
X29089900Y-27122400D01*
X29089900Y-27122400D02*
X29845000Y-26367300D01*
X29845000Y-26367300D02*
X29845000Y-24765000D01*
X29845000Y-24765000D02*
X31115000Y-23495000D01*
X34290000Y-31750000D02*
X34290000Y-30624700D01*
X34290000Y-30624700D02*
X34008600Y-30624700D01*
X34008600Y-30624700D02*
X33164700Y-29780800D01*
X33164700Y-29780800D02*
X33164700Y-28201800D01*
X33164700Y-28201800D02*
X32264000Y-27301100D01*
X32264000Y-27301100D02*
X32264000Y-22180200D01*
X32264000Y-22180200D02*
X31038800Y-20955000D01*
X31115000Y-18415000D02*
X32714400Y-20014400D01*
X32714400Y-20014400D02*
X32714400Y-26856600D01*
X32714400Y-26856600D02*
X34290000Y-28432200D01*
X34290000Y-28432200D02*
X34290000Y-29210000D01*
X49530000Y-45864700D02*
X49811400Y-45864700D01*
X49811400Y-45864700D02*
X50655300Y-45020800D01*
X50655300Y-45020800D02*
X50655300Y-23080900D01*
X50655300Y-23080900D02*
X52781200Y-20955000D01*
X49530000Y-46990000D02*
X49530000Y-45864700D01*
X34290000Y-19050000D02*
X34290000Y-17924700D01*
X34290000Y-17924700D02*
X33586600Y-17924700D01*
X33586600Y-17924700D02*
X33164700Y-17502800D01*
X33164700Y-17502800D02*
X33164700Y-15384700D01*
X33164700Y-15384700D02*
X31115000Y-13335000D01*
X34290000Y-39370000D02*
X34290000Y-38244700D01*
X34290000Y-38244700D02*
X34112500Y-38244700D01*
X34112500Y-38244700D02*
X33123200Y-37255400D01*
X33123200Y-37255400D02*
X33123200Y-35663200D01*
X33123200Y-35663200D02*
X31115000Y-33655000D01*
X28498800Y-41275000D02*
X27369500Y-42404300D01*
X27369500Y-42404300D02*
X24548100Y-42404300D01*
X24548100Y-42404300D02*
X23418800Y-41275000D01*
X28575000Y-38735000D02*
X27485000Y-39825000D01*
X27485000Y-39825000D02*
X24585000Y-39825000D01*
X24585000Y-39825000D02*
X23495000Y-38735000D01*
X54960000Y-61345000D02*
X54960000Y-60029700D01*
X28575000Y-23495000D02*
X29845000Y-22225000D01*
X29845000Y-22225000D02*
X29845000Y-18082800D01*
X29845000Y-18082800D02*
X30613400Y-17314400D01*
X30613400Y-17314400D02*
X31581100Y-17314400D01*
X31581100Y-17314400D02*
X33164700Y-18898000D01*
X33164700Y-18898000D02*
X33164700Y-24602300D01*
X33164700Y-24602300D02*
X33962400Y-25400000D01*
X33962400Y-25400000D02*
X34670800Y-25400000D01*
X34670800Y-25400000D02*
X46906000Y-37635200D01*
X46906000Y-37635200D02*
X46906000Y-51975700D01*
X46906000Y-51975700D02*
X54960000Y-60029700D01*
X23495000Y-23495000D02*
X24606200Y-24606200D01*
X24606200Y-24606200D02*
X27463800Y-24606200D01*
X27463800Y-24606200D02*
X28575000Y-23495000D01*
X18130000Y-61345000D02*
X18130000Y-60029700D01*
X18130000Y-60029700D02*
X22225000Y-55934700D01*
X22225000Y-55934700D02*
X22225000Y-27305000D01*
X22225000Y-27305000D02*
X23495000Y-26035000D01*
X55245000Y-43815000D02*
X56375000Y-44945000D01*
X56375000Y-44945000D02*
X59195000Y-44945000D01*
X59195000Y-44945000D02*
X60325000Y-43815000D01*
X55245000Y-23495000D02*
X56621400Y-22118600D01*
X56621400Y-22118600D02*
X56621400Y-20466900D01*
X56621400Y-20466900D02*
X57291400Y-19796900D01*
X57291400Y-19796900D02*
X58143900Y-19796900D01*
X58143900Y-19796900D02*
X58978800Y-20631800D01*
X58978800Y-20631800D02*
X58978800Y-22148800D01*
X58978800Y-22148800D02*
X60325000Y-23495000D01*
X55168800Y-31115000D02*
X56261900Y-32208100D01*
X56261900Y-32208100D02*
X59155700Y-32208100D01*
X59155700Y-32208100D02*
X60248800Y-31115000D01*
D21*
X60960000Y-63345000D02*
X68974000Y-55331000D01*
X68974000Y-55331000D02*
X68974000Y-41034000D01*
X68974000Y-41034000D02*
X66040000Y-38100000D01*
X66960000Y-49145000D02*
X66040000Y-48225000D01*
X66040000Y-48225000D02*
X66040000Y-43180000D01*
X18130000Y-49145000D02*
X17780000Y-48795000D01*
X17780000Y-48795000D02*
X17780000Y-43180000D01*
X24130000Y-63345000D02*
X16746300Y-63345000D01*
X16746300Y-63345000D02*
X15829300Y-62428000D01*
X15829300Y-62428000D02*
X15829300Y-40050700D01*
X15829300Y-40050700D02*
X17780000Y-38100000D01*
D22*
G36*
X20064465Y-12249880D02*
G01*
X19869880Y-12444465D01*
X19716995Y-12673273D01*
X19611686Y-12927510D01*
X19558000Y-13197408D01*
X19558000Y-13472592D01*
X19611686Y-13742490D01*
X19716995Y-13996727D01*
X19869880Y-14225535D01*
X20064465Y-14420120D01*
X20195000Y-14507341D01*
X20195001Y-14702659D01*
X20064465Y-14789880D01*
X19869880Y-14984465D01*
X19716995Y-15213273D01*
X19611686Y-15467510D01*
X19558000Y-15737408D01*
X19558000Y-16012592D01*
X19611686Y-16282490D01*
X19716995Y-16536727D01*
X19869880Y-16765535D01*
X20064465Y-16960120D01*
X20195000Y-17047341D01*
X20195001Y-17242659D01*
X20064465Y-17329880D01*
X19869880Y-17524465D01*
X19716995Y-17753273D01*
X19611686Y-18007510D01*
X19558000Y-18277408D01*
X19558000Y-18552592D01*
X19611686Y-18822490D01*
X19716995Y-19076727D01*
X19869880Y-19305535D01*
X20064465Y-19500120D01*
X20195000Y-19587341D01*
X20195001Y-19731743D01*
X19988265Y-19869880D01*
X19793680Y-20064465D01*
X19640795Y-20293273D01*
X19535486Y-20547510D01*
X19481800Y-20817408D01*
X19481800Y-21092592D01*
X19535486Y-21362490D01*
X19640795Y-21616727D01*
X19793680Y-21845535D01*
X19988265Y-22040120D01*
X20156900Y-22152799D01*
X20156901Y-22348116D01*
X20064465Y-22409880D01*
X19869880Y-22604465D01*
X19716995Y-22833273D01*
X19611686Y-23087510D01*
X19558000Y-23357408D01*
X19558000Y-23632592D01*
X19611686Y-23902490D01*
X19654147Y-24005000D01*
X19234909Y-24005000D01*
X19228918Y-23990537D01*
X19049987Y-23722748D01*
X18822252Y-23495013D01*
X18554463Y-23316082D01*
X18256912Y-23192832D01*
X17941033Y-23130000D01*
X17618967Y-23130000D01*
X17303088Y-23192832D01*
X17005537Y-23316082D01*
X16737748Y-23495013D01*
X16510013Y-23722748D01*
X16331082Y-23990537D01*
X16207832Y-24288088D01*
X16145000Y-24603967D01*
X16145000Y-24926033D01*
X16207832Y-25241912D01*
X16331082Y-25539463D01*
X16510013Y-25807252D01*
X16737748Y-26034987D01*
X17005537Y-26213918D01*
X17303088Y-26337168D01*
X17618967Y-26400000D01*
X17941033Y-26400000D01*
X18256912Y-26337168D01*
X18554463Y-26213918D01*
X18822252Y-26034987D01*
X19049987Y-25807252D01*
X19228918Y-25539463D01*
X19234909Y-25525000D01*
X19654147Y-25525000D01*
X19611686Y-25627510D01*
X19558000Y-25897408D01*
X19558000Y-26172592D01*
X19611686Y-26442490D01*
X19716995Y-26696727D01*
X19869880Y-26925535D01*
X20064465Y-27120120D01*
X20195000Y-27207341D01*
X20195001Y-27402659D01*
X20064465Y-27489880D01*
X19869880Y-27684465D01*
X19716995Y-27913273D01*
X19611686Y-28167510D01*
X19558000Y-28437408D01*
X19558000Y-28712592D01*
X19611686Y-28982490D01*
X19716995Y-29236727D01*
X19869880Y-29465535D01*
X20064465Y-29660120D01*
X20195000Y-29747341D01*
X20195001Y-29891743D01*
X19988265Y-30029880D01*
X19793680Y-30224465D01*
X19640795Y-30453273D01*
X19535486Y-30707510D01*
X19481800Y-30977408D01*
X19481800Y-31252592D01*
X19535486Y-31522490D01*
X19640795Y-31776727D01*
X19793680Y-32005535D01*
X19988265Y-32200120D01*
X20118800Y-32287341D01*
X20118801Y-32533574D01*
X20064465Y-32569880D01*
X19869880Y-32764465D01*
X19716995Y-32993273D01*
X19611686Y-33247510D01*
X19558000Y-33517408D01*
X19558000Y-33792592D01*
X19611686Y-34062490D01*
X19716995Y-34316727D01*
X19869880Y-34545535D01*
X20064465Y-34740120D01*
X20195001Y-34827341D01*
X20195000Y-34971743D01*
X19988265Y-35109880D01*
X19793680Y-35304465D01*
X19640795Y-35533273D01*
X19535486Y-35787510D01*
X19481800Y-36057408D01*
X19481800Y-36332592D01*
X19535486Y-36602490D01*
X19640795Y-36856727D01*
X19793680Y-37085535D01*
X19988265Y-37280120D01*
X20118800Y-37367341D01*
X20118801Y-37613574D01*
X20064465Y-37649880D01*
X19869880Y-37844465D01*
X19716995Y-38073273D01*
X19611686Y-38327510D01*
X19558000Y-38597408D01*
X19558000Y-38872592D01*
X19611686Y-39142490D01*
X19716995Y-39396727D01*
X19869880Y-39625535D01*
X20064465Y-39820120D01*
X20118800Y-39856426D01*
X20118801Y-40102659D01*
X19988265Y-40189880D01*
X19793680Y-40384465D01*
X19640795Y-40613273D01*
X19535486Y-40867510D01*
X19481800Y-41137408D01*
X19481800Y-41412592D01*
X19535486Y-41682490D01*
X19640795Y-41936727D01*
X19793680Y-42165535D01*
X19988265Y-42360120D01*
X20195000Y-42498257D01*
X20195001Y-42642659D01*
X20064465Y-42729880D01*
X19869880Y-42924465D01*
X19716995Y-43153273D01*
X19611686Y-43407510D01*
X19558000Y-43677408D01*
X19558000Y-43952592D01*
X19611686Y-44222490D01*
X19716995Y-44476727D01*
X19869880Y-44705535D01*
X20064465Y-44900120D01*
X20293273Y-45053005D01*
X20547510Y-45158314D01*
X20817408Y-45212000D01*
X21092592Y-45212000D01*
X21362490Y-45158314D01*
X21465000Y-45115853D01*
X21465000Y-55619898D01*
X17618998Y-59465901D01*
X17590000Y-59489699D01*
X17566202Y-59518697D01*
X17566201Y-59518698D01*
X17495026Y-59605424D01*
X17435425Y-59716928D01*
X17214300Y-59716928D01*
X17214300Y-50487520D01*
X17360274Y-50585057D01*
X17656005Y-50707552D01*
X17969951Y-50770000D01*
X18290049Y-50770000D01*
X18603995Y-50707552D01*
X18899726Y-50585057D01*
X19165877Y-50407220D01*
X19392220Y-50180877D01*
X19570057Y-49914726D01*
X19692552Y-49618995D01*
X19755000Y-49305049D01*
X19755000Y-48984951D01*
X19692552Y-48671005D01*
X19570057Y-48375274D01*
X19392220Y-48109123D01*
X19165877Y-47882780D01*
X19165000Y-47882194D01*
X19165000Y-44050123D01*
X19228918Y-43954463D01*
X19352168Y-43656912D01*
X19415000Y-43341033D01*
X19415000Y-43018967D01*
X19352168Y-42703088D01*
X19228918Y-42405537D01*
X19049987Y-42137748D01*
X18822252Y-41910013D01*
X18554463Y-41731082D01*
X18256912Y-41607832D01*
X17941033Y-41545000D01*
X17618967Y-41545000D01*
X17303088Y-41607832D01*
X17214300Y-41644609D01*
X17214300Y-40624385D01*
X18144073Y-39694613D01*
X18256912Y-39672168D01*
X18554463Y-39548918D01*
X18822252Y-39369987D01*
X19049987Y-39142252D01*
X19228918Y-38874463D01*
X19352168Y-38576912D01*
X19415000Y-38261033D01*
X19415000Y-37938967D01*
X19352168Y-37623088D01*
X19228918Y-37325537D01*
X19049987Y-37057748D01*
X18822252Y-36830013D01*
X18554463Y-36651082D01*
X18256912Y-36527832D01*
X17941033Y-36465000D01*
X17618967Y-36465000D01*
X17303088Y-36527832D01*
X17005537Y-36651082D01*
X16737748Y-36830013D01*
X16510013Y-37057748D01*
X16331082Y-37325537D01*
X16207832Y-37623088D01*
X16185387Y-37735927D01*
X14898064Y-39023251D01*
X14845220Y-39066619D01*
X14801851Y-39119464D01*
X14801848Y-39119467D01*
X14672144Y-39277512D01*
X14543536Y-39518120D01*
X14464340Y-39779193D01*
X14437600Y-40050700D01*
X14444301Y-40118739D01*
X14444300Y-62359971D01*
X14437600Y-62428000D01*
X14444300Y-62496029D01*
X14444300Y-62496036D01*
X14452400Y-62578276D01*
X14464340Y-62699507D01*
X14543536Y-62960580D01*
X14672144Y-63201188D01*
X14790168Y-63345000D01*
X14845219Y-63412080D01*
X14898065Y-63455450D01*
X15718846Y-64276231D01*
X15762219Y-64329081D01*
X15973112Y-64502157D01*
X16213719Y-64630764D01*
X16474793Y-64709960D01*
X16678263Y-64730000D01*
X16678271Y-64730000D01*
X16746300Y-64736700D01*
X16814329Y-64730000D01*
X23318376Y-64730000D01*
X23370932Y-64765117D01*
X23662568Y-64885917D01*
X23972168Y-64947500D01*
X24287832Y-64947500D01*
X24597432Y-64885917D01*
X24889068Y-64765117D01*
X25151534Y-64589743D01*
X25374743Y-64366534D01*
X25550117Y-64104068D01*
X25670917Y-63812432D01*
X25732500Y-63502832D01*
X25732500Y-63187168D01*
X25670917Y-62877568D01*
X25550117Y-62585932D01*
X25474847Y-62473282D01*
X29181323Y-62473282D01*
X29275880Y-62736661D01*
X29563791Y-62876551D01*
X29873462Y-62957584D01*
X30192990Y-62976646D01*
X30510099Y-62933006D01*
X30812600Y-62828339D01*
X30984120Y-62736661D01*
X31078677Y-62473282D01*
X30130000Y-61524605D01*
X29181323Y-62473282D01*
X25474847Y-62473282D01*
X25374743Y-62323466D01*
X25151534Y-62100257D01*
X24889068Y-61924883D01*
X24597432Y-61804083D01*
X24287832Y-61742500D01*
X23972168Y-61742500D01*
X23662568Y-61804083D01*
X23370932Y-61924883D01*
X23318376Y-61960000D01*
X19758072Y-61960000D01*
X19758072Y-61407990D01*
X28498354Y-61407990D01*
X28541994Y-61725099D01*
X28646661Y-62027600D01*
X28738339Y-62199120D01*
X29001718Y-62293677D01*
X29950395Y-61345000D01*
X30309605Y-61345000D01*
X31258282Y-62293677D01*
X31521661Y-62199120D01*
X31661551Y-61911209D01*
X31742584Y-61601538D01*
X31761646Y-61282010D01*
X31718006Y-60964901D01*
X31613339Y-60662400D01*
X31521661Y-60490880D01*
X31258282Y-60396323D01*
X30309605Y-61345000D01*
X29950395Y-61345000D01*
X29001718Y-60396323D01*
X28738339Y-60490880D01*
X28598449Y-60778791D01*
X28517416Y-61088462D01*
X28498354Y-61407990D01*
X19758072Y-61407990D01*
X19758072Y-60355000D01*
X19745812Y-60230518D01*
X19741626Y-60216718D01*
X29181323Y-60216718D01*
X30130000Y-61165395D01*
X31078677Y-60216718D01*
X30984120Y-59953339D01*
X30696209Y-59813449D01*
X30386538Y-59732416D01*
X30067010Y-59713354D01*
X29749901Y-59756994D01*
X29447400Y-59861661D01*
X29275880Y-59953339D01*
X29181323Y-60216718D01*
X19741626Y-60216718D01*
X19709502Y-60110820D01*
X19650537Y-60000506D01*
X19571185Y-59903815D01*
X19474494Y-59824463D01*
X19432490Y-59802011D01*
X22067095Y-57167406D01*
X32125489Y-57167406D01*
X32163423Y-57387740D01*
X32243613Y-57596440D01*
X32271412Y-57648450D01*
X32484834Y-57683561D01*
X33083395Y-57085000D01*
X32484834Y-56486439D01*
X32271412Y-56521550D01*
X32180542Y-56725826D01*
X32131269Y-56943905D01*
X32125489Y-57167406D01*
X22067095Y-57167406D01*
X22736004Y-56498498D01*
X22765001Y-56474701D01*
X22859974Y-56358976D01*
X22930546Y-56226947D01*
X22974003Y-56083686D01*
X22985000Y-55972033D01*
X22985000Y-55972032D01*
X22988677Y-55934700D01*
X22985000Y-55897367D01*
X22985000Y-48984951D01*
X28505000Y-48984951D01*
X28505000Y-49305049D01*
X28567448Y-49618995D01*
X28689943Y-49914726D01*
X28867780Y-50180877D01*
X29094123Y-50407220D01*
X29360274Y-50585057D01*
X29656005Y-50707552D01*
X29969951Y-50770000D01*
X30290049Y-50770000D01*
X30603995Y-50707552D01*
X30899726Y-50585057D01*
X31165877Y-50407220D01*
X31392220Y-50180877D01*
X31570057Y-49914726D01*
X31692552Y-49618995D01*
X31755000Y-49305049D01*
X31755000Y-48984951D01*
X31692552Y-48671005D01*
X31570057Y-48375274D01*
X31392220Y-48109123D01*
X31165877Y-47882780D01*
X30899726Y-47704943D01*
X30603995Y-47582448D01*
X30290049Y-47520000D01*
X29969951Y-47520000D01*
X29656005Y-47582448D01*
X29360274Y-47704943D01*
X29094123Y-47882780D01*
X28867780Y-48109123D01*
X28689943Y-48375274D01*
X28567448Y-48671005D01*
X28505000Y-48984951D01*
X22985000Y-48984951D01*
X22985000Y-45115853D01*
X23087510Y-45158314D01*
X23357408Y-45212000D01*
X23632592Y-45212000D01*
X23902490Y-45158314D01*
X24156727Y-45053005D01*
X24385535Y-44900120D01*
X24505090Y-44780565D01*
X25249040Y-44780565D01*
X25316020Y-45020656D01*
X25565048Y-45137756D01*
X25832135Y-45204023D01*
X26107017Y-45216910D01*
X26379133Y-45175922D01*
X26638023Y-45082636D01*
X26753980Y-45020656D01*
X26820960Y-44780565D01*
X26035000Y-43994605D01*
X25249040Y-44780565D01*
X24505090Y-44780565D01*
X24580120Y-44705535D01*
X24733005Y-44476727D01*
X24762692Y-44405057D01*
X24767364Y-44418023D01*
X24829344Y-44533980D01*
X25069435Y-44600960D01*
X25855395Y-43815000D01*
X25841253Y-43800858D01*
X26020858Y-43621253D01*
X26035000Y-43635395D01*
X26049143Y-43621253D01*
X26228748Y-43800858D01*
X26214605Y-43815000D01*
X27000565Y-44600960D01*
X27240656Y-44533980D01*
X27304485Y-44398240D01*
X27336995Y-44476727D01*
X27489880Y-44705535D01*
X27684465Y-44900120D01*
X27913273Y-45053005D01*
X28167510Y-45158314D01*
X28437408Y-45212000D01*
X28712592Y-45212000D01*
X28982490Y-45158314D01*
X29236727Y-45053005D01*
X29465535Y-44900120D01*
X29660120Y-44705535D01*
X29813005Y-44476727D01*
X29842692Y-44405057D01*
X29847364Y-44418023D01*
X29909344Y-44533980D01*
X30149435Y-44600960D01*
X30935395Y-43815000D01*
X30149435Y-43029040D01*
X29909344Y-43096020D01*
X29845515Y-43231760D01*
X29813005Y-43153273D01*
X29660120Y-42924465D01*
X29465535Y-42729880D01*
X29236727Y-42576995D01*
X29121385Y-42529218D01*
X29160527Y-42513005D01*
X29389335Y-42360120D01*
X29583920Y-42165535D01*
X29736805Y-41936727D01*
X29768800Y-41859485D01*
X29800795Y-41936727D01*
X29953680Y-42165535D01*
X30148265Y-42360120D01*
X30377073Y-42513005D01*
X30489294Y-42559489D01*
X30396020Y-42609344D01*
X30329040Y-42849435D01*
X31115000Y-43635395D01*
X31129143Y-43621253D01*
X31308748Y-43800858D01*
X31294605Y-43815000D01*
X31308748Y-43829143D01*
X31129143Y-44008748D01*
X31115000Y-43994605D01*
X30329040Y-44780565D01*
X30396020Y-45020656D01*
X30645048Y-45137756D01*
X30912135Y-45204023D01*
X31187017Y-45216910D01*
X31459133Y-45175922D01*
X31718023Y-45082636D01*
X31819501Y-45028395D01*
X31819500Y-49478178D01*
X31815824Y-49515500D01*
X31819500Y-49552822D01*
X31819500Y-49552832D01*
X31830497Y-49664485D01*
X31865259Y-49779081D01*
X31873954Y-49807746D01*
X31944526Y-49939776D01*
X31984371Y-49988326D01*
X32039499Y-50055501D01*
X32068503Y-50079304D01*
X33166357Y-51177159D01*
X33091068Y-51268899D01*
X32957818Y-51518192D01*
X32875764Y-51788691D01*
X32848057Y-52070000D01*
X32875764Y-52351309D01*
X32957818Y-52621808D01*
X33091068Y-52871101D01*
X33270392Y-53089608D01*
X33488899Y-53268932D01*
X33530000Y-53290901D01*
X33530000Y-53948873D01*
X33374788Y-53918000D01*
X33151212Y-53918000D01*
X32931933Y-53961617D01*
X32725376Y-54047176D01*
X32539480Y-54171388D01*
X32381388Y-54329480D01*
X32257176Y-54515376D01*
X32171617Y-54721933D01*
X32128000Y-54941212D01*
X32128000Y-55164788D01*
X32171617Y-55384067D01*
X32257176Y-55590624D01*
X32381388Y-55776520D01*
X32539480Y-55934612D01*
X32725376Y-56058824D01*
X32747284Y-56067899D01*
X32699550Y-56093412D01*
X32664439Y-56306834D01*
X33263000Y-56905395D01*
X33277143Y-56891253D01*
X33456748Y-57070858D01*
X33442605Y-57085000D01*
X33456748Y-57099143D01*
X33277143Y-57278748D01*
X33263000Y-57264605D01*
X32664439Y-57863166D01*
X32699550Y-58076588D01*
X32752266Y-58100038D01*
X32725376Y-58111176D01*
X32539480Y-58235388D01*
X32381388Y-58393480D01*
X32257176Y-58579376D01*
X32171617Y-58785933D01*
X32128000Y-59005212D01*
X32128000Y-59228788D01*
X32171617Y-59448067D01*
X32257176Y-59654624D01*
X32381388Y-59840520D01*
X32539480Y-59998612D01*
X32725376Y-60122824D01*
X32749943Y-60133000D01*
X32725376Y-60143176D01*
X32539480Y-60267388D01*
X32381388Y-60425480D01*
X32257176Y-60611376D01*
X32171617Y-60817933D01*
X32128000Y-61037212D01*
X32128000Y-61260788D01*
X32171617Y-61480067D01*
X32257176Y-61686624D01*
X32381388Y-61872520D01*
X32539480Y-62030612D01*
X32725376Y-62154824D01*
X32749943Y-62165000D01*
X32725376Y-62175176D01*
X32539480Y-62299388D01*
X32381388Y-62457480D01*
X32257176Y-62643376D01*
X32171617Y-62849933D01*
X32128000Y-63069212D01*
X32128000Y-63292788D01*
X32171617Y-63512067D01*
X32257176Y-63718624D01*
X32381388Y-63904520D01*
X32539480Y-64062612D01*
X32725376Y-64186824D01*
X32749943Y-64197000D01*
X32725376Y-64207176D01*
X32539480Y-64331388D01*
X32381388Y-64489480D01*
X32257176Y-64675376D01*
X32171617Y-64881933D01*
X32128000Y-65101212D01*
X32128000Y-65324788D01*
X32171617Y-65544067D01*
X32257176Y-65750624D01*
X32381388Y-65936520D01*
X32539480Y-66094612D01*
X32725376Y-66218824D01*
X32749943Y-66229000D01*
X32725376Y-66239176D01*
X32539480Y-66363388D01*
X32381388Y-66521480D01*
X32257176Y-66707376D01*
X32171617Y-66913933D01*
X32128000Y-67133212D01*
X32128000Y-67356788D01*
X32171617Y-67576067D01*
X32257176Y-67782624D01*
X32381388Y-67968520D01*
X32539480Y-68126612D01*
X32725376Y-68250824D01*
X32749943Y-68261000D01*
X32725376Y-68271176D01*
X32539480Y-68395388D01*
X32381388Y-68553480D01*
X32257176Y-68739376D01*
X32171617Y-68945933D01*
X32128000Y-69165212D01*
X32128000Y-69388788D01*
X32171617Y-69608067D01*
X32257176Y-69814624D01*
X32381388Y-70000520D01*
X32539480Y-70158612D01*
X32725376Y-70282824D01*
X32931933Y-70368383D01*
X33151212Y-70412000D01*
X33374788Y-70412000D01*
X33594067Y-70368383D01*
X33800624Y-70282824D01*
X33986520Y-70158612D01*
X34144612Y-70000520D01*
X34268824Y-69814624D01*
X34324953Y-69679117D01*
X67734000Y-69679117D01*
X67734000Y-70020883D01*
X67800675Y-70356081D01*
X67931463Y-70671831D01*
X68121337Y-70955998D01*
X68363002Y-71197663D01*
X68647169Y-71387537D01*
X68962919Y-71518325D01*
X69298117Y-71585000D01*
X69639883Y-71585000D01*
X69975081Y-71518325D01*
X70290831Y-71387537D01*
X70574998Y-71197663D01*
X70816663Y-70955998D01*
X71006537Y-70671831D01*
X71137325Y-70356081D01*
X71204000Y-70020883D01*
X71204000Y-69679117D01*
X71137325Y-69343919D01*
X71006537Y-69028169D01*
X70816663Y-68744002D01*
X70574998Y-68502337D01*
X70290831Y-68312463D01*
X69975081Y-68181675D01*
X69639883Y-68115000D01*
X69298117Y-68115000D01*
X68962919Y-68181675D01*
X68647169Y-68312463D01*
X68363002Y-68502337D01*
X68121337Y-68744002D01*
X67931463Y-69028169D01*
X67800675Y-69343919D01*
X67734000Y-69679117D01*
X34324953Y-69679117D01*
X34354383Y-69608067D01*
X34398000Y-69388788D01*
X34398000Y-69165212D01*
X34354383Y-68945933D01*
X34268824Y-68739376D01*
X34144612Y-68553480D01*
X33986520Y-68395388D01*
X33800624Y-68271176D01*
X33776057Y-68261000D01*
X33800624Y-68250824D01*
X33986520Y-68126612D01*
X34144612Y-67968520D01*
X34268824Y-67782624D01*
X34354383Y-67576067D01*
X34398000Y-67356788D01*
X34398000Y-67184801D01*
X35930804Y-65651998D01*
X35959801Y-65628201D01*
X36013136Y-65563212D01*
X49490000Y-65563212D01*
X49490000Y-65786788D01*
X49533617Y-66006067D01*
X49619176Y-66212624D01*
X49743388Y-66398520D01*
X49901480Y-66556612D01*
X50087376Y-66680824D01*
X50293933Y-66766383D01*
X50513212Y-66810000D01*
X50736788Y-66810000D01*
X50956067Y-66766383D01*
X51162624Y-66680824D01*
X51348520Y-66556612D01*
X51506612Y-66398520D01*
X51630824Y-66212624D01*
X51716383Y-66006067D01*
X51760000Y-65786788D01*
X51760000Y-65563212D01*
X51716383Y-65343933D01*
X51630824Y-65137376D01*
X51506612Y-64951480D01*
X51348520Y-64793388D01*
X51162624Y-64669176D01*
X50956067Y-64583617D01*
X50736788Y-64540000D01*
X50513212Y-64540000D01*
X50293933Y-64583617D01*
X50087376Y-64669176D01*
X49901480Y-64793388D01*
X49743388Y-64951480D01*
X49619176Y-65137376D01*
X49533617Y-65343933D01*
X49490000Y-65563212D01*
X36013136Y-65563212D01*
X36054774Y-65512476D01*
X36125346Y-65380447D01*
X36168803Y-65237186D01*
X36179800Y-65125533D01*
X36179800Y-65125523D01*
X36183476Y-65088200D01*
X36179800Y-65050877D01*
X36179800Y-63015989D01*
X49251600Y-63015989D01*
X49251600Y-63288811D01*
X49304825Y-63556389D01*
X49409229Y-63808443D01*
X49560801Y-64035286D01*
X49753714Y-64228199D01*
X49980557Y-64379771D01*
X50232611Y-64484175D01*
X50500189Y-64537400D01*
X50773011Y-64537400D01*
X51040589Y-64484175D01*
X51292643Y-64379771D01*
X51519486Y-64228199D01*
X51712399Y-64035286D01*
X51863971Y-63808443D01*
X51968375Y-63556389D01*
X52021600Y-63288811D01*
X52021600Y-63187168D01*
X59357500Y-63187168D01*
X59357500Y-63502832D01*
X59419083Y-63812432D01*
X59539883Y-64104068D01*
X59715257Y-64366534D01*
X59938466Y-64589743D01*
X60200932Y-64765117D01*
X60492568Y-64885917D01*
X60802168Y-64947500D01*
X61117832Y-64947500D01*
X61427432Y-64885917D01*
X61719068Y-64765117D01*
X61981534Y-64589743D01*
X62204743Y-64366534D01*
X62380117Y-64104068D01*
X62500917Y-63812432D01*
X62513249Y-63750436D01*
X63790403Y-62473282D01*
X66011323Y-62473282D01*
X66105880Y-62736661D01*
X66393791Y-62876551D01*
X66703462Y-62957584D01*
X67022990Y-62976646D01*
X67340099Y-62933006D01*
X67642600Y-62828339D01*
X67814120Y-62736661D01*
X67908677Y-62473282D01*
X66960000Y-61524605D01*
X66011323Y-62473282D01*
X63790403Y-62473282D01*
X65408444Y-60855241D01*
X65347416Y-61088462D01*
X65328354Y-61407990D01*
X65371994Y-61725099D01*
X65476661Y-62027600D01*
X65568339Y-62199120D01*
X65831718Y-62293677D01*
X66780395Y-61345000D01*
X67139605Y-61345000D01*
X68088282Y-62293677D01*
X68351661Y-62199120D01*
X68491551Y-61911209D01*
X68572584Y-61601538D01*
X68591646Y-61282010D01*
X68548006Y-60964901D01*
X68443339Y-60662400D01*
X68351661Y-60490880D01*
X68088282Y-60396323D01*
X67139605Y-61345000D01*
X66780395Y-61345000D01*
X66766253Y-61330858D01*
X66945858Y-61151253D01*
X66960000Y-61165395D01*
X67908677Y-60216718D01*
X67814120Y-59953339D01*
X67526209Y-59813449D01*
X67216538Y-59732416D01*
X66897010Y-59713354D01*
X66579901Y-59756994D01*
X66467958Y-59795727D01*
X69905235Y-56358450D01*
X69958080Y-56315081D01*
X70131157Y-56104188D01*
X70259764Y-55863581D01*
X70338960Y-55602507D01*
X70359000Y-55399037D01*
X70359000Y-55399028D01*
X70365700Y-55331001D01*
X70359000Y-55262974D01*
X70359000Y-41102029D01*
X70365700Y-41034000D01*
X70359000Y-40965971D01*
X70359000Y-40965963D01*
X70338960Y-40762493D01*
X70259764Y-40501419D01*
X70131157Y-40260812D01*
X70084718Y-40204226D01*
X70001452Y-40102766D01*
X70001450Y-40102764D01*
X69958081Y-40049919D01*
X69905236Y-40006550D01*
X67634613Y-37735928D01*
X67612168Y-37623088D01*
X67488918Y-37325537D01*
X67309987Y-37057748D01*
X67082252Y-36830013D01*
X66814463Y-36651082D01*
X66516912Y-36527832D01*
X66201033Y-36465000D01*
X65878967Y-36465000D01*
X65563088Y-36527832D01*
X65265537Y-36651082D01*
X64997748Y-36830013D01*
X64770013Y-37057748D01*
X64591082Y-37325537D01*
X64467832Y-37623088D01*
X64405000Y-37938967D01*
X64405000Y-38261033D01*
X64467832Y-38576912D01*
X64591082Y-38874463D01*
X64770013Y-39142252D01*
X64997748Y-39369987D01*
X65265537Y-39548918D01*
X65563088Y-39672168D01*
X65675928Y-39694613D01*
X67589001Y-41607687D01*
X67589001Y-42647158D01*
X67488918Y-42405537D01*
X67309987Y-42137748D01*
X67082252Y-41910013D01*
X66814463Y-41731082D01*
X66516912Y-41607832D01*
X66201033Y-41545000D01*
X65878967Y-41545000D01*
X65563088Y-41607832D01*
X65265537Y-41731082D01*
X64997748Y-41910013D01*
X64770013Y-42137748D01*
X64591082Y-42405537D01*
X64467832Y-42703088D01*
X64405000Y-43018967D01*
X64405000Y-43341033D01*
X64467832Y-43656912D01*
X64591082Y-43954463D01*
X64655001Y-44050124D01*
X64655000Y-48156971D01*
X64648300Y-48225000D01*
X64655000Y-48293029D01*
X64655000Y-48293036D01*
X64657871Y-48322182D01*
X64675040Y-48496507D01*
X64710202Y-48612420D01*
X64754236Y-48757580D01*
X64875769Y-48984951D01*
X64882844Y-48998188D01*
X65003330Y-49145000D01*
X65055919Y-49209080D01*
X65108765Y-49252450D01*
X65378114Y-49521799D01*
X65397448Y-49618995D01*
X65519943Y-49914726D01*
X65697780Y-50180877D01*
X65924123Y-50407220D01*
X66190274Y-50585057D01*
X66486005Y-50707552D01*
X66799951Y-50770000D01*
X67120049Y-50770000D01*
X67433995Y-50707552D01*
X67589000Y-50643347D01*
X67589000Y-54757315D01*
X60554564Y-61791751D01*
X60492568Y-61804083D01*
X60200932Y-61924883D01*
X59938466Y-62100257D01*
X59715257Y-62323466D01*
X59539883Y-62585932D01*
X59419083Y-62877568D01*
X59357500Y-63187168D01*
X52021600Y-63187168D01*
X52021600Y-63015989D01*
X51968375Y-62748411D01*
X51863971Y-62496357D01*
X51712399Y-62269514D01*
X51519486Y-62076601D01*
X51292643Y-61925029D01*
X51040589Y-61820625D01*
X50773011Y-61767400D01*
X50500189Y-61767400D01*
X50232611Y-61820625D01*
X49980557Y-61925029D01*
X49753714Y-62076601D01*
X49560801Y-62269514D01*
X49409229Y-62496357D01*
X49304825Y-62748411D01*
X49251600Y-63015989D01*
X36179800Y-63015989D01*
X36179800Y-60503212D01*
X49510000Y-60503212D01*
X49510000Y-60726788D01*
X49553617Y-60946067D01*
X49639176Y-61152624D01*
X49763388Y-61338520D01*
X49921480Y-61496612D01*
X50107376Y-61620824D01*
X50313933Y-61706383D01*
X50533212Y-61750000D01*
X50756788Y-61750000D01*
X50976067Y-61706383D01*
X51182624Y-61620824D01*
X51368520Y-61496612D01*
X51526612Y-61338520D01*
X51650824Y-61152624D01*
X51736383Y-60946067D01*
X51780000Y-60726788D01*
X51780000Y-60503212D01*
X51736383Y-60283933D01*
X51650824Y-60077376D01*
X51526612Y-59891480D01*
X51368520Y-59733388D01*
X51182624Y-59609176D01*
X50976067Y-59523617D01*
X50756788Y-59480000D01*
X50533212Y-59480000D01*
X50313933Y-59523617D01*
X50107376Y-59609176D01*
X49921480Y-59733388D01*
X49763388Y-59891480D01*
X49639176Y-60077376D01*
X49553617Y-60283933D01*
X49510000Y-60503212D01*
X36179800Y-60503212D01*
X36179800Y-28681122D01*
X36183476Y-28643799D01*
X36179800Y-28606476D01*
X36179800Y-28606467D01*
X36168803Y-28494814D01*
X36125346Y-28351553D01*
X36054774Y-28219524D01*
X35959801Y-28103799D01*
X35930803Y-28080001D01*
X35413643Y-27562841D01*
X35488932Y-27471101D01*
X35550993Y-27354994D01*
X46146000Y-37950002D01*
X46146001Y-51938368D01*
X46142324Y-51975700D01*
X46156998Y-52124685D01*
X46200454Y-52267946D01*
X46271026Y-52399976D01*
X46342201Y-52486702D01*
X46366000Y-52515701D01*
X46394998Y-52539499D01*
X53657509Y-59802011D01*
X53615506Y-59824463D01*
X53518815Y-59903815D01*
X53439463Y-60000506D01*
X53380498Y-60110820D01*
X53344188Y-60230518D01*
X53331928Y-60355000D01*
X53331928Y-62335000D01*
X53344188Y-62459482D01*
X53380498Y-62579180D01*
X53439463Y-62689494D01*
X53518815Y-62786185D01*
X53615506Y-62865537D01*
X53725820Y-62924502D01*
X53845518Y-62960812D01*
X53970000Y-62973072D01*
X55950000Y-62973072D01*
X56074482Y-62960812D01*
X56194180Y-62924502D01*
X56304494Y-62865537D01*
X56401185Y-62786185D01*
X56480537Y-62689494D01*
X56539502Y-62579180D01*
X56575812Y-62459482D01*
X56588072Y-62335000D01*
X56588072Y-60355000D01*
X56575812Y-60230518D01*
X56539502Y-60110820D01*
X56480537Y-60000506D01*
X56401185Y-59903815D01*
X56304494Y-59824463D01*
X56194180Y-59765498D01*
X56074482Y-59729188D01*
X55950000Y-59716928D01*
X55654575Y-59716928D01*
X55652665Y-59713354D01*
X55594974Y-59605423D01*
X55523799Y-59518697D01*
X55500001Y-59489699D01*
X55471003Y-59465901D01*
X49510101Y-53505000D01*
X49600492Y-53505000D01*
X49811309Y-53484236D01*
X50081808Y-53402182D01*
X50331101Y-53268932D01*
X50549608Y-53089608D01*
X50728932Y-52871101D01*
X50862182Y-52621808D01*
X50944236Y-52351309D01*
X50971943Y-52070000D01*
X50944236Y-51788691D01*
X50862182Y-51518192D01*
X50728932Y-51268899D01*
X50549608Y-51050392D01*
X50331101Y-50871068D01*
X50198142Y-50800000D01*
X50331101Y-50728932D01*
X50549608Y-50549608D01*
X50728932Y-50331101D01*
X50862182Y-50081808D01*
X50944236Y-49811309D01*
X50971943Y-49530000D01*
X50944236Y-49248691D01*
X50864233Y-48984951D01*
X53335000Y-48984951D01*
X53335000Y-49305049D01*
X53397448Y-49618995D01*
X53519943Y-49914726D01*
X53697780Y-50180877D01*
X53924123Y-50407220D01*
X54190274Y-50585057D01*
X54486005Y-50707552D01*
X54799951Y-50770000D01*
X55120049Y-50770000D01*
X55433995Y-50707552D01*
X55729726Y-50585057D01*
X55995877Y-50407220D01*
X56222220Y-50180877D01*
X56400057Y-49914726D01*
X56522552Y-49618995D01*
X56585000Y-49305049D01*
X56585000Y-48984951D01*
X56522552Y-48671005D01*
X56400057Y-48375274D01*
X56222220Y-48109123D01*
X55995877Y-47882780D01*
X55729726Y-47704943D01*
X55433995Y-47582448D01*
X55120049Y-47520000D01*
X54799951Y-47520000D01*
X54486005Y-47582448D01*
X54190274Y-47704943D01*
X53924123Y-47882780D01*
X53697780Y-48109123D01*
X53519943Y-48375274D01*
X53397448Y-48671005D01*
X53335000Y-48984951D01*
X50864233Y-48984951D01*
X50862182Y-48978192D01*
X50728932Y-48728899D01*
X50653643Y-48637159D01*
X51934109Y-47356694D01*
X51963101Y-47332901D01*
X51986895Y-47303908D01*
X51986899Y-47303904D01*
X52058073Y-47217177D01*
X52058074Y-47217176D01*
X52128646Y-47085147D01*
X52172103Y-46941886D01*
X52183100Y-46830233D01*
X52183100Y-46830224D01*
X52186776Y-46792901D01*
X52183100Y-46755578D01*
X52183100Y-45110924D01*
X52297510Y-45158314D01*
X52567408Y-45212000D01*
X52842592Y-45212000D01*
X53112490Y-45158314D01*
X53366727Y-45053005D01*
X53595535Y-44900120D01*
X53790120Y-44705535D01*
X53943005Y-44476727D01*
X53975000Y-44399485D01*
X54006995Y-44476727D01*
X54159880Y-44705535D01*
X54354465Y-44900120D01*
X54583273Y-45053005D01*
X54837510Y-45158314D01*
X55107408Y-45212000D01*
X55382592Y-45212000D01*
X55536570Y-45181372D01*
X55811201Y-45456003D01*
X55834999Y-45485001D01*
X55950724Y-45579974D01*
X56082753Y-45650546D01*
X56226014Y-45694003D01*
X56337667Y-45705000D01*
X56337676Y-45705000D01*
X56374999Y-45708676D01*
X56412322Y-45705000D01*
X59157678Y-45705000D01*
X59195000Y-45708676D01*
X59232322Y-45705000D01*
X59232333Y-45705000D01*
X59343986Y-45694003D01*
X59487247Y-45650546D01*
X59619276Y-45579974D01*
X59735001Y-45485001D01*
X59758804Y-45455998D01*
X60033429Y-45181372D01*
X60187408Y-45212000D01*
X60462592Y-45212000D01*
X60732490Y-45158314D01*
X60986727Y-45053005D01*
X61215535Y-44900120D01*
X61410120Y-44705535D01*
X61563005Y-44476727D01*
X61595000Y-44399485D01*
X61626995Y-44476727D01*
X61779880Y-44705535D01*
X61974465Y-44900120D01*
X62203273Y-45053005D01*
X62457510Y-45158314D01*
X62727408Y-45212000D01*
X63002592Y-45212000D01*
X63272490Y-45158314D01*
X63526727Y-45053005D01*
X63755535Y-44900120D01*
X63950120Y-44705535D01*
X64103005Y-44476727D01*
X64208314Y-44222490D01*
X64262000Y-43952592D01*
X64262000Y-43677408D01*
X64208314Y-43407510D01*
X64103005Y-43153273D01*
X63950120Y-42924465D01*
X63755535Y-42729880D01*
X63625000Y-42642659D01*
X63625000Y-42396426D01*
X63679335Y-42360120D01*
X63873920Y-42165535D01*
X64026805Y-41936727D01*
X64132114Y-41682490D01*
X64185800Y-41412592D01*
X64185800Y-41137408D01*
X64132114Y-40867510D01*
X64026805Y-40613273D01*
X63873920Y-40384465D01*
X63679335Y-40189880D01*
X63625000Y-40153574D01*
X63625000Y-39907341D01*
X63755535Y-39820120D01*
X63950120Y-39625535D01*
X64103005Y-39396727D01*
X64208314Y-39142490D01*
X64262000Y-38872592D01*
X64262000Y-38597408D01*
X64208314Y-38327510D01*
X64103005Y-38073273D01*
X63950120Y-37844465D01*
X63755535Y-37649880D01*
X63625000Y-37562659D01*
X63625000Y-37316426D01*
X63679335Y-37280120D01*
X63873920Y-37085535D01*
X64026805Y-36856727D01*
X64132114Y-36602490D01*
X64185800Y-36332592D01*
X64185800Y-36057408D01*
X64132114Y-35787510D01*
X64026805Y-35533273D01*
X63873920Y-35304465D01*
X63679335Y-35109880D01*
X63548800Y-35022659D01*
X63548800Y-34878256D01*
X63755535Y-34740120D01*
X63950120Y-34545535D01*
X64103005Y-34316727D01*
X64208314Y-34062490D01*
X64262000Y-33792592D01*
X64262000Y-33517408D01*
X64208314Y-33247510D01*
X64103005Y-32993273D01*
X63950120Y-32764465D01*
X63755535Y-32569880D01*
X63625000Y-32482659D01*
X63625000Y-32236426D01*
X63679335Y-32200120D01*
X63873920Y-32005535D01*
X64026805Y-31776727D01*
X64132114Y-31522490D01*
X64185800Y-31252592D01*
X64185800Y-30977408D01*
X64132114Y-30707510D01*
X64026805Y-30453273D01*
X63873920Y-30224465D01*
X63679335Y-30029880D01*
X63625000Y-29993574D01*
X63625000Y-29747341D01*
X63719845Y-29683967D01*
X64405000Y-29683967D01*
X64405000Y-30006033D01*
X64467832Y-30321912D01*
X64591082Y-30619463D01*
X64770013Y-30887252D01*
X64997748Y-31114987D01*
X65265537Y-31293918D01*
X65563088Y-31417168D01*
X65640167Y-31432500D01*
X65563088Y-31447832D01*
X65265537Y-31571082D01*
X64997748Y-31750013D01*
X64770013Y-31977748D01*
X64591082Y-32245537D01*
X64467832Y-32543088D01*
X64405000Y-32858967D01*
X64405000Y-33181033D01*
X64467832Y-33496912D01*
X64591082Y-33794463D01*
X64770013Y-34062252D01*
X64997748Y-34289987D01*
X65265537Y-34468918D01*
X65563088Y-34592168D01*
X65878967Y-34655000D01*
X66201033Y-34655000D01*
X66516912Y-34592168D01*
X66814463Y-34468918D01*
X67082252Y-34289987D01*
X67309987Y-34062252D01*
X67488918Y-33794463D01*
X67612168Y-33496912D01*
X67675000Y-33181033D01*
X67675000Y-32858967D01*
X67612168Y-32543088D01*
X67488918Y-32245537D01*
X67309987Y-31977748D01*
X67082252Y-31750013D01*
X66814463Y-31571082D01*
X66516912Y-31447832D01*
X66439833Y-31432500D01*
X66516912Y-31417168D01*
X66814463Y-31293918D01*
X67082252Y-31114987D01*
X67309987Y-30887252D01*
X67488918Y-30619463D01*
X67612168Y-30321912D01*
X67675000Y-30006033D01*
X67675000Y-29683967D01*
X67612168Y-29368088D01*
X67488918Y-29070537D01*
X67309987Y-28802748D01*
X67082252Y-28575013D01*
X66814463Y-28396082D01*
X66516912Y-28272832D01*
X66201033Y-28210000D01*
X65878967Y-28210000D01*
X65563088Y-28272832D01*
X65265537Y-28396082D01*
X64997748Y-28575013D01*
X64770013Y-28802748D01*
X64591082Y-29070537D01*
X64467832Y-29368088D01*
X64405000Y-29683967D01*
X63719845Y-29683967D01*
X63755535Y-29660120D01*
X63950120Y-29465535D01*
X64103005Y-29236727D01*
X64208314Y-28982490D01*
X64262000Y-28712592D01*
X64262000Y-28437408D01*
X64208314Y-28167510D01*
X64103005Y-27913273D01*
X63950120Y-27684465D01*
X63755535Y-27489880D01*
X63625000Y-27402659D01*
X63625000Y-27207341D01*
X63755535Y-27120120D01*
X63950120Y-26925535D01*
X64103005Y-26696727D01*
X64208314Y-26442490D01*
X64262000Y-26172592D01*
X64262000Y-25897408D01*
X64208314Y-25627510D01*
X64103005Y-25373273D01*
X63950120Y-25144465D01*
X63755535Y-24949880D01*
X63526727Y-24796995D01*
X63449485Y-24765000D01*
X63526727Y-24733005D01*
X63719845Y-24603967D01*
X64405000Y-24603967D01*
X64405000Y-24926033D01*
X64467832Y-25241912D01*
X64591082Y-25539463D01*
X64770013Y-25807252D01*
X64997748Y-26034987D01*
X65265537Y-26213918D01*
X65563088Y-26337168D01*
X65878967Y-26400000D01*
X66201033Y-26400000D01*
X66516912Y-26337168D01*
X66814463Y-26213918D01*
X67082252Y-26034987D01*
X67309987Y-25807252D01*
X67488918Y-25539463D01*
X67612168Y-25241912D01*
X67675000Y-24926033D01*
X67675000Y-24603967D01*
X67612168Y-24288088D01*
X67488918Y-23990537D01*
X67309987Y-23722748D01*
X67082252Y-23495013D01*
X66814463Y-23316082D01*
X66516912Y-23192832D01*
X66201033Y-23130000D01*
X65878967Y-23130000D01*
X65563088Y-23192832D01*
X65265537Y-23316082D01*
X64997748Y-23495013D01*
X64770013Y-23722748D01*
X64591082Y-23990537D01*
X64467832Y-24288088D01*
X64405000Y-24603967D01*
X63719845Y-24603967D01*
X63755535Y-24580120D01*
X63950120Y-24385535D01*
X64103005Y-24156727D01*
X64208314Y-23902490D01*
X64262000Y-23632592D01*
X64262000Y-23357408D01*
X64208314Y-23087510D01*
X64103005Y-22833273D01*
X63950120Y-22604465D01*
X63755535Y-22409880D01*
X63526727Y-22256995D01*
X63411385Y-22209218D01*
X63450527Y-22193005D01*
X63679335Y-22040120D01*
X63873920Y-21845535D01*
X64026805Y-21616727D01*
X64132114Y-21362490D01*
X64185800Y-21092592D01*
X64185800Y-20820413D01*
X65084192Y-20820413D01*
X65179956Y-21084814D01*
X65469571Y-21225704D01*
X65781108Y-21307384D01*
X66102595Y-21326718D01*
X66421675Y-21282961D01*
X66726088Y-21177795D01*
X66900044Y-21084814D01*
X66995808Y-20820413D01*
X66040000Y-19864605D01*
X65084192Y-20820413D01*
X64185800Y-20820413D01*
X64185800Y-20817408D01*
X64132114Y-20547510D01*
X64026805Y-20293273D01*
X63873920Y-20064465D01*
X63679335Y-19869880D01*
X63548800Y-19782659D01*
X63548800Y-19747595D01*
X64398282Y-19747595D01*
X64442039Y-20066675D01*
X64547205Y-20371088D01*
X64640186Y-20545044D01*
X64904587Y-20640808D01*
X65860395Y-19685000D01*
X66219605Y-19685000D01*
X67175413Y-20640808D01*
X67439814Y-20545044D01*
X67580704Y-20255429D01*
X67662384Y-19943892D01*
X67681718Y-19622405D01*
X67637961Y-19303325D01*
X67532795Y-18998912D01*
X67439814Y-18824956D01*
X67175413Y-18729192D01*
X66219605Y-19685000D01*
X65860395Y-19685000D01*
X64904587Y-18729192D01*
X64640186Y-18824956D01*
X64499296Y-19114571D01*
X64417616Y-19426108D01*
X64398282Y-19747595D01*
X63548800Y-19747595D01*
X63548800Y-19638256D01*
X63755535Y-19500120D01*
X63950120Y-19305535D01*
X64103005Y-19076727D01*
X64208314Y-18822490D01*
X64262000Y-18552592D01*
X64262000Y-18549587D01*
X65084192Y-18549587D01*
X66040000Y-19505395D01*
X66995808Y-18549587D01*
X66900044Y-18285186D01*
X66610429Y-18144296D01*
X66298892Y-18062616D01*
X65977405Y-18043282D01*
X65658325Y-18087039D01*
X65353912Y-18192205D01*
X65179956Y-18285186D01*
X65084192Y-18549587D01*
X64262000Y-18549587D01*
X64262000Y-18277408D01*
X64208314Y-18007510D01*
X64103005Y-17753273D01*
X63950120Y-17524465D01*
X63755535Y-17329880D01*
X63625000Y-17242659D01*
X63625000Y-17047341D01*
X63755535Y-16960120D01*
X63950120Y-16765535D01*
X64103005Y-16536727D01*
X64208314Y-16282490D01*
X64262000Y-16012592D01*
X64262000Y-15737408D01*
X64208314Y-15467510D01*
X64103005Y-15213273D01*
X63950120Y-14984465D01*
X63755535Y-14789880D01*
X63625000Y-14702659D01*
X63625000Y-14507341D01*
X63734587Y-14434117D01*
X67734000Y-14434117D01*
X67734000Y-14775883D01*
X67800675Y-15111081D01*
X67931463Y-15426831D01*
X68121337Y-15710998D01*
X68363002Y-15952663D01*
X68647169Y-16142537D01*
X68962919Y-16273325D01*
X69298117Y-16340000D01*
X69639883Y-16340000D01*
X69975081Y-16273325D01*
X70290831Y-16142537D01*
X70574998Y-15952663D01*
X70816663Y-15710998D01*
X71006537Y-15426831D01*
X71137325Y-15111081D01*
X71204000Y-14775883D01*
X71204000Y-14434117D01*
X71137325Y-14098919D01*
X71006537Y-13783169D01*
X70816663Y-13499002D01*
X70574998Y-13257337D01*
X70290831Y-13067463D01*
X69975081Y-12936675D01*
X69639883Y-12870000D01*
X69298117Y-12870000D01*
X68962919Y-12936675D01*
X68647169Y-13067463D01*
X68363002Y-13257337D01*
X68121337Y-13499002D01*
X67931463Y-13783169D01*
X67800675Y-14098919D01*
X67734000Y-14434117D01*
X63734587Y-14434117D01*
X63755535Y-14420120D01*
X63950120Y-14225535D01*
X64103005Y-13996727D01*
X64208314Y-13742490D01*
X64262000Y-13472592D01*
X64262000Y-13197408D01*
X64208314Y-12927510D01*
X64103005Y-12673273D01*
X63950120Y-12444465D01*
X63755535Y-12249880D01*
X63668912Y-12192000D01*
X71628000Y-12192000D01*
X71628000Y-72263000D01*
X12192000Y-72263000D01*
X12192000Y-69679117D01*
X12616000Y-69679117D01*
X12616000Y-70020883D01*
X12682675Y-70356081D01*
X12813463Y-70671831D01*
X13003337Y-70955998D01*
X13245002Y-71197663D01*
X13529169Y-71387537D01*
X13844919Y-71518325D01*
X14180117Y-71585000D01*
X14521883Y-71585000D01*
X14857081Y-71518325D01*
X15172831Y-71387537D01*
X15456998Y-71197663D01*
X15698663Y-70955998D01*
X15888537Y-70671831D01*
X16019325Y-70356081D01*
X16086000Y-70020883D01*
X16086000Y-69679117D01*
X16019325Y-69343919D01*
X15888537Y-69028169D01*
X15698663Y-68744002D01*
X15456998Y-68502337D01*
X15172831Y-68312463D01*
X14857081Y-68181675D01*
X14521883Y-68115000D01*
X14180117Y-68115000D01*
X13844919Y-68181675D01*
X13529169Y-68312463D01*
X13245002Y-68502337D01*
X13003337Y-68744002D01*
X12813463Y-69028169D01*
X12682675Y-69343919D01*
X12616000Y-69679117D01*
X12192000Y-69679117D01*
X12192000Y-29683967D01*
X16145000Y-29683967D01*
X16145000Y-30006033D01*
X16207832Y-30321912D01*
X16331082Y-30619463D01*
X16510013Y-30887252D01*
X16737748Y-31114987D01*
X17005537Y-31293918D01*
X17303088Y-31417168D01*
X17380167Y-31432500D01*
X17303088Y-31447832D01*
X17005537Y-31571082D01*
X16737748Y-31750013D01*
X16510013Y-31977748D01*
X16331082Y-32245537D01*
X16207832Y-32543088D01*
X16145000Y-32858967D01*
X16145000Y-33181033D01*
X16207832Y-33496912D01*
X16331082Y-33794463D01*
X16510013Y-34062252D01*
X16737748Y-34289987D01*
X17005537Y-34468918D01*
X17303088Y-34592168D01*
X17618967Y-34655000D01*
X17941033Y-34655000D01*
X18256912Y-34592168D01*
X18554463Y-34468918D01*
X18822252Y-34289987D01*
X19049987Y-34062252D01*
X19228918Y-33794463D01*
X19352168Y-33496912D01*
X19415000Y-33181033D01*
X19415000Y-32858967D01*
X19352168Y-32543088D01*
X19228918Y-32245537D01*
X19049987Y-31977748D01*
X18822252Y-31750013D01*
X18554463Y-31571082D01*
X18256912Y-31447832D01*
X18179833Y-31432500D01*
X18256912Y-31417168D01*
X18554463Y-31293918D01*
X18822252Y-31114987D01*
X19049987Y-30887252D01*
X19228918Y-30619463D01*
X19352168Y-30321912D01*
X19415000Y-30006033D01*
X19415000Y-29683967D01*
X19352168Y-29368088D01*
X19228918Y-29070537D01*
X19049987Y-28802748D01*
X18822252Y-28575013D01*
X18554463Y-28396082D01*
X18256912Y-28272832D01*
X17941033Y-28210000D01*
X17618967Y-28210000D01*
X17303088Y-28272832D01*
X17005537Y-28396082D01*
X16737748Y-28575013D01*
X16510013Y-28802748D01*
X16331082Y-29070537D01*
X16207832Y-29368088D01*
X16145000Y-29683967D01*
X12192000Y-29683967D01*
X12192000Y-20820413D01*
X16824192Y-20820413D01*
X16919956Y-21084814D01*
X17209571Y-21225704D01*
X17521108Y-21307384D01*
X17842595Y-21326718D01*
X18161675Y-21282961D01*
X18466088Y-21177795D01*
X18640044Y-21084814D01*
X18735808Y-20820413D01*
X17780000Y-19864605D01*
X16824192Y-20820413D01*
X12192000Y-20820413D01*
X12192000Y-19747595D01*
X16138282Y-19747595D01*
X16182039Y-20066675D01*
X16287205Y-20371088D01*
X16380186Y-20545044D01*
X16644587Y-20640808D01*
X17600395Y-19685000D01*
X17959605Y-19685000D01*
X18915413Y-20640808D01*
X19179814Y-20545044D01*
X19320704Y-20255429D01*
X19402384Y-19943892D01*
X19421718Y-19622405D01*
X19377961Y-19303325D01*
X19272795Y-18998912D01*
X19179814Y-18824956D01*
X18915413Y-18729192D01*
X17959605Y-19685000D01*
X17600395Y-19685000D01*
X16644587Y-18729192D01*
X16380186Y-18824956D01*
X16239296Y-19114571D01*
X16157616Y-19426108D01*
X16138282Y-19747595D01*
X12192000Y-19747595D01*
X12192000Y-18549587D01*
X16824192Y-18549587D01*
X17780000Y-19505395D01*
X18735808Y-18549587D01*
X18640044Y-18285186D01*
X18350429Y-18144296D01*
X18038892Y-18062616D01*
X17717405Y-18043282D01*
X17398325Y-18087039D01*
X17093912Y-18192205D01*
X16919956Y-18285186D01*
X16824192Y-18549587D01*
X12192000Y-18549587D01*
X12192000Y-14434117D01*
X12616000Y-14434117D01*
X12616000Y-14775883D01*
X12682675Y-15111081D01*
X12813463Y-15426831D01*
X13003337Y-15710998D01*
X13245002Y-15952663D01*
X13529169Y-16142537D01*
X13844919Y-16273325D01*
X14180117Y-16340000D01*
X14521883Y-16340000D01*
X14857081Y-16273325D01*
X15172831Y-16142537D01*
X15456998Y-15952663D01*
X15698663Y-15710998D01*
X15888537Y-15426831D01*
X16019325Y-15111081D01*
X16086000Y-14775883D01*
X16086000Y-14434117D01*
X16019325Y-14098919D01*
X15888537Y-13783169D01*
X15698663Y-13499002D01*
X15456998Y-13257337D01*
X15172831Y-13067463D01*
X14857081Y-12936675D01*
X14521883Y-12870000D01*
X14180117Y-12870000D01*
X13844919Y-12936675D01*
X13529169Y-13067463D01*
X13245002Y-13257337D01*
X13003337Y-13499002D01*
X12813463Y-13783169D01*
X12682675Y-14098919D01*
X12616000Y-14434117D01*
X12192000Y-14434117D01*
X12192000Y-12192000D01*
X20151088Y-12192000D01*
X20064465Y-12249880D01*
X20064465Y-12249880D01*
G37*
X20064465Y-12249880D02*
X19869880Y-12444465D01*
X19716995Y-12673273D01*
X19611686Y-12927510D01*
X19558000Y-13197408D01*
X19558000Y-13472592D01*
X19611686Y-13742490D01*
X19716995Y-13996727D01*
X19869880Y-14225535D01*
X20064465Y-14420120D01*
X20195000Y-14507341D01*
X20195001Y-14702659D01*
X20064465Y-14789880D01*
X19869880Y-14984465D01*
X19716995Y-15213273D01*
X19611686Y-15467510D01*
X19558000Y-15737408D01*
X19558000Y-16012592D01*
X19611686Y-16282490D01*
X19716995Y-16536727D01*
X19869880Y-16765535D01*
X20064465Y-16960120D01*
X20195000Y-17047341D01*
X20195001Y-17242659D01*
X20064465Y-17329880D01*
X19869880Y-17524465D01*
X19716995Y-17753273D01*
X19611686Y-18007510D01*
X19558000Y-18277408D01*
X19558000Y-18552592D01*
X19611686Y-18822490D01*
X19716995Y-19076727D01*
X19869880Y-19305535D01*
X20064465Y-19500120D01*
X20195000Y-19587341D01*
X20195001Y-19731743D01*
X19988265Y-19869880D01*
X19793680Y-20064465D01*
X19640795Y-20293273D01*
X19535486Y-20547510D01*
X19481800Y-20817408D01*
X19481800Y-21092592D01*
X19535486Y-21362490D01*
X19640795Y-21616727D01*
X19793680Y-21845535D01*
X19988265Y-22040120D01*
X20156900Y-22152799D01*
X20156901Y-22348116D01*
X20064465Y-22409880D01*
X19869880Y-22604465D01*
X19716995Y-22833273D01*
X19611686Y-23087510D01*
X19558000Y-23357408D01*
X19558000Y-23632592D01*
X19611686Y-23902490D01*
X19654147Y-24005000D01*
X19234909Y-24005000D01*
X19228918Y-23990537D01*
X19049987Y-23722748D01*
X18822252Y-23495013D01*
X18554463Y-23316082D01*
X18256912Y-23192832D01*
X17941033Y-23130000D01*
X17618967Y-23130000D01*
X17303088Y-23192832D01*
X17005537Y-23316082D01*
X16737748Y-23495013D01*
X16510013Y-23722748D01*
X16331082Y-23990537D01*
X16207832Y-24288088D01*
X16145000Y-24603967D01*
X16145000Y-24926033D01*
X16207832Y-25241912D01*
X16331082Y-25539463D01*
X16510013Y-25807252D01*
X16737748Y-26034987D01*
X17005537Y-26213918D01*
X17303088Y-26337168D01*
X17618967Y-26400000D01*
X17941033Y-26400000D01*
X18256912Y-26337168D01*
X18554463Y-26213918D01*
X18822252Y-26034987D01*
X19049987Y-25807252D01*
X19228918Y-25539463D01*
X19234909Y-25525000D01*
X19654147Y-25525000D01*
X19611686Y-25627510D01*
X19558000Y-25897408D01*
X19558000Y-26172592D01*
X19611686Y-26442490D01*
X19716995Y-26696727D01*
X19869880Y-26925535D01*
X20064465Y-27120120D01*
X20195000Y-27207341D01*
X20195001Y-27402659D01*
X20064465Y-27489880D01*
X19869880Y-27684465D01*
X19716995Y-27913273D01*
X19611686Y-28167510D01*
X19558000Y-28437408D01*
X19558000Y-28712592D01*
X19611686Y-28982490D01*
X19716995Y-29236727D01*
X19869880Y-29465535D01*
X20064465Y-29660120D01*
X20195000Y-29747341D01*
X20195001Y-29891743D01*
X19988265Y-30029880D01*
X19793680Y-30224465D01*
X19640795Y-30453273D01*
X19535486Y-30707510D01*
X19481800Y-30977408D01*
X19481800Y-31252592D01*
X19535486Y-31522490D01*
X19640795Y-31776727D01*
X19793680Y-32005535D01*
X19988265Y-32200120D01*
X20118800Y-32287341D01*
X20118801Y-32533574D01*
X20064465Y-32569880D01*
X19869880Y-32764465D01*
X19716995Y-32993273D01*
X19611686Y-33247510D01*
X19558000Y-33517408D01*
X19558000Y-33792592D01*
X19611686Y-34062490D01*
X19716995Y-34316727D01*
X19869880Y-34545535D01*
X20064465Y-34740120D01*
X20195001Y-34827341D01*
X20195000Y-34971743D01*
X19988265Y-35109880D01*
X19793680Y-35304465D01*
X19640795Y-35533273D01*
X19535486Y-35787510D01*
X19481800Y-36057408D01*
X19481800Y-36332592D01*
X19535486Y-36602490D01*
X19640795Y-36856727D01*
X19793680Y-37085535D01*
X19988265Y-37280120D01*
X20118800Y-37367341D01*
X20118801Y-37613574D01*
X20064465Y-37649880D01*
X19869880Y-37844465D01*
X19716995Y-38073273D01*
X19611686Y-38327510D01*
X19558000Y-38597408D01*
X19558000Y-38872592D01*
X19611686Y-39142490D01*
X19716995Y-39396727D01*
X19869880Y-39625535D01*
X20064465Y-39820120D01*
X20118800Y-39856426D01*
X20118801Y-40102659D01*
X19988265Y-40189880D01*
X19793680Y-40384465D01*
X19640795Y-40613273D01*
X19535486Y-40867510D01*
X19481800Y-41137408D01*
X19481800Y-41412592D01*
X19535486Y-41682490D01*
X19640795Y-41936727D01*
X19793680Y-42165535D01*
X19988265Y-42360120D01*
X20195000Y-42498257D01*
X20195001Y-42642659D01*
X20064465Y-42729880D01*
X19869880Y-42924465D01*
X19716995Y-43153273D01*
X19611686Y-43407510D01*
X19558000Y-43677408D01*
X19558000Y-43952592D01*
X19611686Y-44222490D01*
X19716995Y-44476727D01*
X19869880Y-44705535D01*
X20064465Y-44900120D01*
X20293273Y-45053005D01*
X20547510Y-45158314D01*
X20817408Y-45212000D01*
X21092592Y-45212000D01*
X21362490Y-45158314D01*
X21465000Y-45115853D01*
X21465000Y-55619898D01*
X17618998Y-59465901D01*
X17590000Y-59489699D01*
X17566202Y-59518697D01*
X17566201Y-59518698D01*
X17495026Y-59605424D01*
X17435425Y-59716928D01*
X17214300Y-59716928D01*
X17214300Y-50487520D01*
X17360274Y-50585057D01*
X17656005Y-50707552D01*
X17969951Y-50770000D01*
X18290049Y-50770000D01*
X18603995Y-50707552D01*
X18899726Y-50585057D01*
X19165877Y-50407220D01*
X19392220Y-50180877D01*
X19570057Y-49914726D01*
X19692552Y-49618995D01*
X19755000Y-49305049D01*
X19755000Y-48984951D01*
X19692552Y-48671005D01*
X19570057Y-48375274D01*
X19392220Y-48109123D01*
X19165877Y-47882780D01*
X19165000Y-47882194D01*
X19165000Y-44050123D01*
X19228918Y-43954463D01*
X19352168Y-43656912D01*
X19415000Y-43341033D01*
X19415000Y-43018967D01*
X19352168Y-42703088D01*
X19228918Y-42405537D01*
X19049987Y-42137748D01*
X18822252Y-41910013D01*
X18554463Y-41731082D01*
X18256912Y-41607832D01*
X17941033Y-41545000D01*
X17618967Y-41545000D01*
X17303088Y-41607832D01*
X17214300Y-41644609D01*
X17214300Y-40624385D01*
X18144073Y-39694613D01*
X18256912Y-39672168D01*
X18554463Y-39548918D01*
X18822252Y-39369987D01*
X19049987Y-39142252D01*
X19228918Y-38874463D01*
X19352168Y-38576912D01*
X19415000Y-38261033D01*
X19415000Y-37938967D01*
X19352168Y-37623088D01*
X19228918Y-37325537D01*
X19049987Y-37057748D01*
X18822252Y-36830013D01*
X18554463Y-36651082D01*
X18256912Y-36527832D01*
X17941033Y-36465000D01*
X17618967Y-36465000D01*
X17303088Y-36527832D01*
X17005537Y-36651082D01*
X16737748Y-36830013D01*
X16510013Y-37057748D01*
X16331082Y-37325537D01*
X16207832Y-37623088D01*
X16185387Y-37735927D01*
X14898064Y-39023251D01*
X14845220Y-39066619D01*
X14801851Y-39119464D01*
X14801848Y-39119467D01*
X14672144Y-39277512D01*
X14543536Y-39518120D01*
X14464340Y-39779193D01*
X14437600Y-40050700D01*
X14444301Y-40118739D01*
X14444300Y-62359971D01*
X14437600Y-62428000D01*
X14444300Y-62496029D01*
X14444300Y-62496036D01*
X14452400Y-62578276D01*
X14464340Y-62699507D01*
X14543536Y-62960580D01*
X14672144Y-63201188D01*
X14790168Y-63345000D01*
X14845219Y-63412080D01*
X14898065Y-63455450D01*
X15718846Y-64276231D01*
X15762219Y-64329081D01*
X15973112Y-64502157D01*
X16213719Y-64630764D01*
X16474793Y-64709960D01*
X16678263Y-64730000D01*
X16678271Y-64730000D01*
X16746300Y-64736700D01*
X16814329Y-64730000D01*
X23318376Y-64730000D01*
X23370932Y-64765117D01*
X23662568Y-64885917D01*
X23972168Y-64947500D01*
X24287832Y-64947500D01*
X24597432Y-64885917D01*
X24889068Y-64765117D01*
X25151534Y-64589743D01*
X25374743Y-64366534D01*
X25550117Y-64104068D01*
X25670917Y-63812432D01*
X25732500Y-63502832D01*
X25732500Y-63187168D01*
X25670917Y-62877568D01*
X25550117Y-62585932D01*
X25474847Y-62473282D01*
X29181323Y-62473282D01*
X29275880Y-62736661D01*
X29563791Y-62876551D01*
X29873462Y-62957584D01*
X30192990Y-62976646D01*
X30510099Y-62933006D01*
X30812600Y-62828339D01*
X30984120Y-62736661D01*
X31078677Y-62473282D01*
X30130000Y-61524605D01*
X29181323Y-62473282D01*
X25474847Y-62473282D01*
X25374743Y-62323466D01*
X25151534Y-62100257D01*
X24889068Y-61924883D01*
X24597432Y-61804083D01*
X24287832Y-61742500D01*
X23972168Y-61742500D01*
X23662568Y-61804083D01*
X23370932Y-61924883D01*
X23318376Y-61960000D01*
X19758072Y-61960000D01*
X19758072Y-61407990D01*
X28498354Y-61407990D01*
X28541994Y-61725099D01*
X28646661Y-62027600D01*
X28738339Y-62199120D01*
X29001718Y-62293677D01*
X29950395Y-61345000D01*
X30309605Y-61345000D01*
X31258282Y-62293677D01*
X31521661Y-62199120D01*
X31661551Y-61911209D01*
X31742584Y-61601538D01*
X31761646Y-61282010D01*
X31718006Y-60964901D01*
X31613339Y-60662400D01*
X31521661Y-60490880D01*
X31258282Y-60396323D01*
X30309605Y-61345000D01*
X29950395Y-61345000D01*
X29001718Y-60396323D01*
X28738339Y-60490880D01*
X28598449Y-60778791D01*
X28517416Y-61088462D01*
X28498354Y-61407990D01*
X19758072Y-61407990D01*
X19758072Y-60355000D01*
X19745812Y-60230518D01*
X19741626Y-60216718D01*
X29181323Y-60216718D01*
X30130000Y-61165395D01*
X31078677Y-60216718D01*
X30984120Y-59953339D01*
X30696209Y-59813449D01*
X30386538Y-59732416D01*
X30067010Y-59713354D01*
X29749901Y-59756994D01*
X29447400Y-59861661D01*
X29275880Y-59953339D01*
X29181323Y-60216718D01*
X19741626Y-60216718D01*
X19709502Y-60110820D01*
X19650537Y-60000506D01*
X19571185Y-59903815D01*
X19474494Y-59824463D01*
X19432490Y-59802011D01*
X22067095Y-57167406D01*
X32125489Y-57167406D01*
X32163423Y-57387740D01*
X32243613Y-57596440D01*
X32271412Y-57648450D01*
X32484834Y-57683561D01*
X33083395Y-57085000D01*
X32484834Y-56486439D01*
X32271412Y-56521550D01*
X32180542Y-56725826D01*
X32131269Y-56943905D01*
X32125489Y-57167406D01*
X22067095Y-57167406D01*
X22736004Y-56498498D01*
X22765001Y-56474701D01*
X22859974Y-56358976D01*
X22930546Y-56226947D01*
X22974003Y-56083686D01*
X22985000Y-55972033D01*
X22985000Y-55972032D01*
X22988677Y-55934700D01*
X22985000Y-55897367D01*
X22985000Y-48984951D01*
X28505000Y-48984951D01*
X28505000Y-49305049D01*
X28567448Y-49618995D01*
X28689943Y-49914726D01*
X28867780Y-50180877D01*
X29094123Y-50407220D01*
X29360274Y-50585057D01*
X29656005Y-50707552D01*
X29969951Y-50770000D01*
X30290049Y-50770000D01*
X30603995Y-50707552D01*
X30899726Y-50585057D01*
X31165877Y-50407220D01*
X31392220Y-50180877D01*
X31570057Y-49914726D01*
X31692552Y-49618995D01*
X31755000Y-49305049D01*
X31755000Y-48984951D01*
X31692552Y-48671005D01*
X31570057Y-48375274D01*
X31392220Y-48109123D01*
X31165877Y-47882780D01*
X30899726Y-47704943D01*
X30603995Y-47582448D01*
X30290049Y-47520000D01*
X29969951Y-47520000D01*
X29656005Y-47582448D01*
X29360274Y-47704943D01*
X29094123Y-47882780D01*
X28867780Y-48109123D01*
X28689943Y-48375274D01*
X28567448Y-48671005D01*
X28505000Y-48984951D01*
X22985000Y-48984951D01*
X22985000Y-45115853D01*
X23087510Y-45158314D01*
X23357408Y-45212000D01*
X23632592Y-45212000D01*
X23902490Y-45158314D01*
X24156727Y-45053005D01*
X24385535Y-44900120D01*
X24505090Y-44780565D01*
X25249040Y-44780565D01*
X25316020Y-45020656D01*
X25565048Y-45137756D01*
X25832135Y-45204023D01*
X26107017Y-45216910D01*
X26379133Y-45175922D01*
X26638023Y-45082636D01*
X26753980Y-45020656D01*
X26820960Y-44780565D01*
X26035000Y-43994605D01*
X25249040Y-44780565D01*
X24505090Y-44780565D01*
X24580120Y-44705535D01*
X24733005Y-44476727D01*
X24762692Y-44405057D01*
X24767364Y-44418023D01*
X24829344Y-44533980D01*
X25069435Y-44600960D01*
X25855395Y-43815000D01*
X25841253Y-43800858D01*
X26020858Y-43621253D01*
X26035000Y-43635395D01*
X26049143Y-43621253D01*
X26228748Y-43800858D01*
X26214605Y-43815000D01*
X27000565Y-44600960D01*
X27240656Y-44533980D01*
X27304485Y-44398240D01*
X27336995Y-44476727D01*
X27489880Y-44705535D01*
X27684465Y-44900120D01*
X27913273Y-45053005D01*
X28167510Y-45158314D01*
X28437408Y-45212000D01*
X28712592Y-45212000D01*
X28982490Y-45158314D01*
X29236727Y-45053005D01*
X29465535Y-44900120D01*
X29660120Y-44705535D01*
X29813005Y-44476727D01*
X29842692Y-44405057D01*
X29847364Y-44418023D01*
X29909344Y-44533980D01*
X30149435Y-44600960D01*
X30935395Y-43815000D01*
X30149435Y-43029040D01*
X29909344Y-43096020D01*
X29845515Y-43231760D01*
X29813005Y-43153273D01*
X29660120Y-42924465D01*
X29465535Y-42729880D01*
X29236727Y-42576995D01*
X29121385Y-42529218D01*
X29160527Y-42513005D01*
X29389335Y-42360120D01*
X29583920Y-42165535D01*
X29736805Y-41936727D01*
X29768800Y-41859485D01*
X29800795Y-41936727D01*
X29953680Y-42165535D01*
X30148265Y-42360120D01*
X30377073Y-42513005D01*
X30489294Y-42559489D01*
X30396020Y-42609344D01*
X30329040Y-42849435D01*
X31115000Y-43635395D01*
X31129143Y-43621253D01*
X31308748Y-43800858D01*
X31294605Y-43815000D01*
X31308748Y-43829143D01*
X31129143Y-44008748D01*
X31115000Y-43994605D01*
X30329040Y-44780565D01*
X30396020Y-45020656D01*
X30645048Y-45137756D01*
X30912135Y-45204023D01*
X31187017Y-45216910D01*
X31459133Y-45175922D01*
X31718023Y-45082636D01*
X31819501Y-45028395D01*
X31819500Y-49478178D01*
X31815824Y-49515500D01*
X31819500Y-49552822D01*
X31819500Y-49552832D01*
X31830497Y-49664485D01*
X31865259Y-49779081D01*
X31873954Y-49807746D01*
X31944526Y-49939776D01*
X31984371Y-49988326D01*
X32039499Y-50055501D01*
X32068503Y-50079304D01*
X33166357Y-51177159D01*
X33091068Y-51268899D01*
X32957818Y-51518192D01*
X32875764Y-51788691D01*
X32848057Y-52070000D01*
X32875764Y-52351309D01*
X32957818Y-52621808D01*
X33091068Y-52871101D01*
X33270392Y-53089608D01*
X33488899Y-53268932D01*
X33530000Y-53290901D01*
X33530000Y-53948873D01*
X33374788Y-53918000D01*
X33151212Y-53918000D01*
X32931933Y-53961617D01*
X32725376Y-54047176D01*
X32539480Y-54171388D01*
X32381388Y-54329480D01*
X32257176Y-54515376D01*
X32171617Y-54721933D01*
X32128000Y-54941212D01*
X32128000Y-55164788D01*
X32171617Y-55384067D01*
X32257176Y-55590624D01*
X32381388Y-55776520D01*
X32539480Y-55934612D01*
X32725376Y-56058824D01*
X32747284Y-56067899D01*
X32699550Y-56093412D01*
X32664439Y-56306834D01*
X33263000Y-56905395D01*
X33277143Y-56891253D01*
X33456748Y-57070858D01*
X33442605Y-57085000D01*
X33456748Y-57099143D01*
X33277143Y-57278748D01*
X33263000Y-57264605D01*
X32664439Y-57863166D01*
X32699550Y-58076588D01*
X32752266Y-58100038D01*
X32725376Y-58111176D01*
X32539480Y-58235388D01*
X32381388Y-58393480D01*
X32257176Y-58579376D01*
X32171617Y-58785933D01*
X32128000Y-59005212D01*
X32128000Y-59228788D01*
X32171617Y-59448067D01*
X32257176Y-59654624D01*
X32381388Y-59840520D01*
X32539480Y-59998612D01*
X32725376Y-60122824D01*
X32749943Y-60133000D01*
X32725376Y-60143176D01*
X32539480Y-60267388D01*
X32381388Y-60425480D01*
X32257176Y-60611376D01*
X32171617Y-60817933D01*
X32128000Y-61037212D01*
X32128000Y-61260788D01*
X32171617Y-61480067D01*
X32257176Y-61686624D01*
X32381388Y-61872520D01*
X32539480Y-62030612D01*
X32725376Y-62154824D01*
X32749943Y-62165000D01*
X32725376Y-62175176D01*
X32539480Y-62299388D01*
X32381388Y-62457480D01*
X32257176Y-62643376D01*
X32171617Y-62849933D01*
X32128000Y-63069212D01*
X32128000Y-63292788D01*
X32171617Y-63512067D01*
X32257176Y-63718624D01*
X32381388Y-63904520D01*
X32539480Y-64062612D01*
X32725376Y-64186824D01*
X32749943Y-64197000D01*
X32725376Y-64207176D01*
X32539480Y-64331388D01*
X32381388Y-64489480D01*
X32257176Y-64675376D01*
X32171617Y-64881933D01*
X32128000Y-65101212D01*
X32128000Y-65324788D01*
X32171617Y-65544067D01*
X32257176Y-65750624D01*
X32381388Y-65936520D01*
X32539480Y-66094612D01*
X32725376Y-66218824D01*
X32749943Y-66229000D01*
X32725376Y-66239176D01*
X32539480Y-66363388D01*
X32381388Y-66521480D01*
X32257176Y-66707376D01*
X32171617Y-66913933D01*
X32128000Y-67133212D01*
X32128000Y-67356788D01*
X32171617Y-67576067D01*
X32257176Y-67782624D01*
X32381388Y-67968520D01*
X32539480Y-68126612D01*
X32725376Y-68250824D01*
X32749943Y-68261000D01*
X32725376Y-68271176D01*
X32539480Y-68395388D01*
X32381388Y-68553480D01*
X32257176Y-68739376D01*
X32171617Y-68945933D01*
X32128000Y-69165212D01*
X32128000Y-69388788D01*
X32171617Y-69608067D01*
X32257176Y-69814624D01*
X32381388Y-70000520D01*
X32539480Y-70158612D01*
X32725376Y-70282824D01*
X32931933Y-70368383D01*
X33151212Y-70412000D01*
X33374788Y-70412000D01*
X33594067Y-70368383D01*
X33800624Y-70282824D01*
X33986520Y-70158612D01*
X34144612Y-70000520D01*
X34268824Y-69814624D01*
X34324953Y-69679117D01*
X67734000Y-69679117D01*
X67734000Y-70020883D01*
X67800675Y-70356081D01*
X67931463Y-70671831D01*
X68121337Y-70955998D01*
X68363002Y-71197663D01*
X68647169Y-71387537D01*
X68962919Y-71518325D01*
X69298117Y-71585000D01*
X69639883Y-71585000D01*
X69975081Y-71518325D01*
X70290831Y-71387537D01*
X70574998Y-71197663D01*
X70816663Y-70955998D01*
X71006537Y-70671831D01*
X71137325Y-70356081D01*
X71204000Y-70020883D01*
X71204000Y-69679117D01*
X71137325Y-69343919D01*
X71006537Y-69028169D01*
X70816663Y-68744002D01*
X70574998Y-68502337D01*
X70290831Y-68312463D01*
X69975081Y-68181675D01*
X69639883Y-68115000D01*
X69298117Y-68115000D01*
X68962919Y-68181675D01*
X68647169Y-68312463D01*
X68363002Y-68502337D01*
X68121337Y-68744002D01*
X67931463Y-69028169D01*
X67800675Y-69343919D01*
X67734000Y-69679117D01*
X34324953Y-69679117D01*
X34354383Y-69608067D01*
X34398000Y-69388788D01*
X34398000Y-69165212D01*
X34354383Y-68945933D01*
X34268824Y-68739376D01*
X34144612Y-68553480D01*
X33986520Y-68395388D01*
X33800624Y-68271176D01*
X33776057Y-68261000D01*
X33800624Y-68250824D01*
X33986520Y-68126612D01*
X34144612Y-67968520D01*
X34268824Y-67782624D01*
X34354383Y-67576067D01*
X34398000Y-67356788D01*
X34398000Y-67184801D01*
X35930804Y-65651998D01*
X35959801Y-65628201D01*
X36013136Y-65563212D01*
X49490000Y-65563212D01*
X49490000Y-65786788D01*
X49533617Y-66006067D01*
X49619176Y-66212624D01*
X49743388Y-66398520D01*
X49901480Y-66556612D01*
X50087376Y-66680824D01*
X50293933Y-66766383D01*
X50513212Y-66810000D01*
X50736788Y-66810000D01*
X50956067Y-66766383D01*
X51162624Y-66680824D01*
X51348520Y-66556612D01*
X51506612Y-66398520D01*
X51630824Y-66212624D01*
X51716383Y-66006067D01*
X51760000Y-65786788D01*
X51760000Y-65563212D01*
X51716383Y-65343933D01*
X51630824Y-65137376D01*
X51506612Y-64951480D01*
X51348520Y-64793388D01*
X51162624Y-64669176D01*
X50956067Y-64583617D01*
X50736788Y-64540000D01*
X50513212Y-64540000D01*
X50293933Y-64583617D01*
X50087376Y-64669176D01*
X49901480Y-64793388D01*
X49743388Y-64951480D01*
X49619176Y-65137376D01*
X49533617Y-65343933D01*
X49490000Y-65563212D01*
X36013136Y-65563212D01*
X36054774Y-65512476D01*
X36125346Y-65380447D01*
X36168803Y-65237186D01*
X36179800Y-65125533D01*
X36179800Y-65125523D01*
X36183476Y-65088200D01*
X36179800Y-65050877D01*
X36179800Y-63015989D01*
X49251600Y-63015989D01*
X49251600Y-63288811D01*
X49304825Y-63556389D01*
X49409229Y-63808443D01*
X49560801Y-64035286D01*
X49753714Y-64228199D01*
X49980557Y-64379771D01*
X50232611Y-64484175D01*
X50500189Y-64537400D01*
X50773011Y-64537400D01*
X51040589Y-64484175D01*
X51292643Y-64379771D01*
X51519486Y-64228199D01*
X51712399Y-64035286D01*
X51863971Y-63808443D01*
X51968375Y-63556389D01*
X52021600Y-63288811D01*
X52021600Y-63187168D01*
X59357500Y-63187168D01*
X59357500Y-63502832D01*
X59419083Y-63812432D01*
X59539883Y-64104068D01*
X59715257Y-64366534D01*
X59938466Y-64589743D01*
X60200932Y-64765117D01*
X60492568Y-64885917D01*
X60802168Y-64947500D01*
X61117832Y-64947500D01*
X61427432Y-64885917D01*
X61719068Y-64765117D01*
X61981534Y-64589743D01*
X62204743Y-64366534D01*
X62380117Y-64104068D01*
X62500917Y-63812432D01*
X62513249Y-63750436D01*
X63790403Y-62473282D01*
X66011323Y-62473282D01*
X66105880Y-62736661D01*
X66393791Y-62876551D01*
X66703462Y-62957584D01*
X67022990Y-62976646D01*
X67340099Y-62933006D01*
X67642600Y-62828339D01*
X67814120Y-62736661D01*
X67908677Y-62473282D01*
X66960000Y-61524605D01*
X66011323Y-62473282D01*
X63790403Y-62473282D01*
X65408444Y-60855241D01*
X65347416Y-61088462D01*
X65328354Y-61407990D01*
X65371994Y-61725099D01*
X65476661Y-62027600D01*
X65568339Y-62199120D01*
X65831718Y-62293677D01*
X66780395Y-61345000D01*
X67139605Y-61345000D01*
X68088282Y-62293677D01*
X68351661Y-62199120D01*
X68491551Y-61911209D01*
X68572584Y-61601538D01*
X68591646Y-61282010D01*
X68548006Y-60964901D01*
X68443339Y-60662400D01*
X68351661Y-60490880D01*
X68088282Y-60396323D01*
X67139605Y-61345000D01*
X66780395Y-61345000D01*
X66766253Y-61330858D01*
X66945858Y-61151253D01*
X66960000Y-61165395D01*
X67908677Y-60216718D01*
X67814120Y-59953339D01*
X67526209Y-59813449D01*
X67216538Y-59732416D01*
X66897010Y-59713354D01*
X66579901Y-59756994D01*
X66467958Y-59795727D01*
X69905235Y-56358450D01*
X69958080Y-56315081D01*
X70131157Y-56104188D01*
X70259764Y-55863581D01*
X70338960Y-55602507D01*
X70359000Y-55399037D01*
X70359000Y-55399028D01*
X70365700Y-55331001D01*
X70359000Y-55262974D01*
X70359000Y-41102029D01*
X70365700Y-41034000D01*
X70359000Y-40965971D01*
X70359000Y-40965963D01*
X70338960Y-40762493D01*
X70259764Y-40501419D01*
X70131157Y-40260812D01*
X70084718Y-40204226D01*
X70001452Y-40102766D01*
X70001450Y-40102764D01*
X69958081Y-40049919D01*
X69905236Y-40006550D01*
X67634613Y-37735928D01*
X67612168Y-37623088D01*
X67488918Y-37325537D01*
X67309987Y-37057748D01*
X67082252Y-36830013D01*
X66814463Y-36651082D01*
X66516912Y-36527832D01*
X66201033Y-36465000D01*
X65878967Y-36465000D01*
X65563088Y-36527832D01*
X65265537Y-36651082D01*
X64997748Y-36830013D01*
X64770013Y-37057748D01*
X64591082Y-37325537D01*
X64467832Y-37623088D01*
X64405000Y-37938967D01*
X64405000Y-38261033D01*
X64467832Y-38576912D01*
X64591082Y-38874463D01*
X64770013Y-39142252D01*
X64997748Y-39369987D01*
X65265537Y-39548918D01*
X65563088Y-39672168D01*
X65675928Y-39694613D01*
X67589001Y-41607687D01*
X67589001Y-42647158D01*
X67488918Y-42405537D01*
X67309987Y-42137748D01*
X67082252Y-41910013D01*
X66814463Y-41731082D01*
X66516912Y-41607832D01*
X66201033Y-41545000D01*
X65878967Y-41545000D01*
X65563088Y-41607832D01*
X65265537Y-41731082D01*
X64997748Y-41910013D01*
X64770013Y-42137748D01*
X64591082Y-42405537D01*
X64467832Y-42703088D01*
X64405000Y-43018967D01*
X64405000Y-43341033D01*
X64467832Y-43656912D01*
X64591082Y-43954463D01*
X64655001Y-44050124D01*
X64655000Y-48156971D01*
X64648300Y-48225000D01*
X64655000Y-48293029D01*
X64655000Y-48293036D01*
X64657871Y-48322182D01*
X64675040Y-48496507D01*
X64710202Y-48612420D01*
X64754236Y-48757580D01*
X64875769Y-48984951D01*
X64882844Y-48998188D01*
X65003330Y-49145000D01*
X65055919Y-49209080D01*
X65108765Y-49252450D01*
X65378114Y-49521799D01*
X65397448Y-49618995D01*
X65519943Y-49914726D01*
X65697780Y-50180877D01*
X65924123Y-50407220D01*
X66190274Y-50585057D01*
X66486005Y-50707552D01*
X66799951Y-50770000D01*
X67120049Y-50770000D01*
X67433995Y-50707552D01*
X67589000Y-50643347D01*
X67589000Y-54757315D01*
X60554564Y-61791751D01*
X60492568Y-61804083D01*
X60200932Y-61924883D01*
X59938466Y-62100257D01*
X59715257Y-62323466D01*
X59539883Y-62585932D01*
X59419083Y-62877568D01*
X59357500Y-63187168D01*
X52021600Y-63187168D01*
X52021600Y-63015989D01*
X51968375Y-62748411D01*
X51863971Y-62496357D01*
X51712399Y-62269514D01*
X51519486Y-62076601D01*
X51292643Y-61925029D01*
X51040589Y-61820625D01*
X50773011Y-61767400D01*
X50500189Y-61767400D01*
X50232611Y-61820625D01*
X49980557Y-61925029D01*
X49753714Y-62076601D01*
X49560801Y-62269514D01*
X49409229Y-62496357D01*
X49304825Y-62748411D01*
X49251600Y-63015989D01*
X36179800Y-63015989D01*
X36179800Y-60503212D01*
X49510000Y-60503212D01*
X49510000Y-60726788D01*
X49553617Y-60946067D01*
X49639176Y-61152624D01*
X49763388Y-61338520D01*
X49921480Y-61496612D01*
X50107376Y-61620824D01*
X50313933Y-61706383D01*
X50533212Y-61750000D01*
X50756788Y-61750000D01*
X50976067Y-61706383D01*
X51182624Y-61620824D01*
X51368520Y-61496612D01*
X51526612Y-61338520D01*
X51650824Y-61152624D01*
X51736383Y-60946067D01*
X51780000Y-60726788D01*
X51780000Y-60503212D01*
X51736383Y-60283933D01*
X51650824Y-60077376D01*
X51526612Y-59891480D01*
X51368520Y-59733388D01*
X51182624Y-59609176D01*
X50976067Y-59523617D01*
X50756788Y-59480000D01*
X50533212Y-59480000D01*
X50313933Y-59523617D01*
X50107376Y-59609176D01*
X49921480Y-59733388D01*
X49763388Y-59891480D01*
X49639176Y-60077376D01*
X49553617Y-60283933D01*
X49510000Y-60503212D01*
X36179800Y-60503212D01*
X36179800Y-28681122D01*
X36183476Y-28643799D01*
X36179800Y-28606476D01*
X36179800Y-28606467D01*
X36168803Y-28494814D01*
X36125346Y-28351553D01*
X36054774Y-28219524D01*
X35959801Y-28103799D01*
X35930803Y-28080001D01*
X35413643Y-27562841D01*
X35488932Y-27471101D01*
X35550993Y-27354994D01*
X46146000Y-37950002D01*
X46146001Y-51938368D01*
X46142324Y-51975700D01*
X46156998Y-52124685D01*
X46200454Y-52267946D01*
X46271026Y-52399976D01*
X46342201Y-52486702D01*
X46366000Y-52515701D01*
X46394998Y-52539499D01*
X53657509Y-59802011D01*
X53615506Y-59824463D01*
X53518815Y-59903815D01*
X53439463Y-60000506D01*
X53380498Y-60110820D01*
X53344188Y-60230518D01*
X53331928Y-60355000D01*
X53331928Y-62335000D01*
X53344188Y-62459482D01*
X53380498Y-62579180D01*
X53439463Y-62689494D01*
X53518815Y-62786185D01*
X53615506Y-62865537D01*
X53725820Y-62924502D01*
X53845518Y-62960812D01*
X53970000Y-62973072D01*
X55950000Y-62973072D01*
X56074482Y-62960812D01*
X56194180Y-62924502D01*
X56304494Y-62865537D01*
X56401185Y-62786185D01*
X56480537Y-62689494D01*
X56539502Y-62579180D01*
X56575812Y-62459482D01*
X56588072Y-62335000D01*
X56588072Y-60355000D01*
X56575812Y-60230518D01*
X56539502Y-60110820D01*
X56480537Y-60000506D01*
X56401185Y-59903815D01*
X56304494Y-59824463D01*
X56194180Y-59765498D01*
X56074482Y-59729188D01*
X55950000Y-59716928D01*
X55654575Y-59716928D01*
X55652665Y-59713354D01*
X55594974Y-59605423D01*
X55523799Y-59518697D01*
X55500001Y-59489699D01*
X55471003Y-59465901D01*
X49510101Y-53505000D01*
X49600492Y-53505000D01*
X49811309Y-53484236D01*
X50081808Y-53402182D01*
X50331101Y-53268932D01*
X50549608Y-53089608D01*
X50728932Y-52871101D01*
X50862182Y-52621808D01*
X50944236Y-52351309D01*
X50971943Y-52070000D01*
X50944236Y-51788691D01*
X50862182Y-51518192D01*
X50728932Y-51268899D01*
X50549608Y-51050392D01*
X50331101Y-50871068D01*
X50198142Y-50800000D01*
X50331101Y-50728932D01*
X50549608Y-50549608D01*
X50728932Y-50331101D01*
X50862182Y-50081808D01*
X50944236Y-49811309D01*
X50971943Y-49530000D01*
X50944236Y-49248691D01*
X50864233Y-48984951D01*
X53335000Y-48984951D01*
X53335000Y-49305049D01*
X53397448Y-49618995D01*
X53519943Y-49914726D01*
X53697780Y-50180877D01*
X53924123Y-50407220D01*
X54190274Y-50585057D01*
X54486005Y-50707552D01*
X54799951Y-50770000D01*
X55120049Y-50770000D01*
X55433995Y-50707552D01*
X55729726Y-50585057D01*
X55995877Y-50407220D01*
X56222220Y-50180877D01*
X56400057Y-49914726D01*
X56522552Y-49618995D01*
X56585000Y-49305049D01*
X56585000Y-48984951D01*
X56522552Y-48671005D01*
X56400057Y-48375274D01*
X56222220Y-48109123D01*
X55995877Y-47882780D01*
X55729726Y-47704943D01*
X55433995Y-47582448D01*
X55120049Y-47520000D01*
X54799951Y-47520000D01*
X54486005Y-47582448D01*
X54190274Y-47704943D01*
X53924123Y-47882780D01*
X53697780Y-48109123D01*
X53519943Y-48375274D01*
X53397448Y-48671005D01*
X53335000Y-48984951D01*
X50864233Y-48984951D01*
X50862182Y-48978192D01*
X50728932Y-48728899D01*
X50653643Y-48637159D01*
X51934109Y-47356694D01*
X51963101Y-47332901D01*
X51986895Y-47303908D01*
X51986899Y-47303904D01*
X52058073Y-47217177D01*
X52058074Y-47217176D01*
X52128646Y-47085147D01*
X52172103Y-46941886D01*
X52183100Y-46830233D01*
X52183100Y-46830224D01*
X52186776Y-46792901D01*
X52183100Y-46755578D01*
X52183100Y-45110924D01*
X52297510Y-45158314D01*
X52567408Y-45212000D01*
X52842592Y-45212000D01*
X53112490Y-45158314D01*
X53366727Y-45053005D01*
X53595535Y-44900120D01*
X53790120Y-44705535D01*
X53943005Y-44476727D01*
X53975000Y-44399485D01*
X54006995Y-44476727D01*
X54159880Y-44705535D01*
X54354465Y-44900120D01*
X54583273Y-45053005D01*
X54837510Y-45158314D01*
X55107408Y-45212000D01*
X55382592Y-45212000D01*
X55536570Y-45181372D01*
X55811201Y-45456003D01*
X55834999Y-45485001D01*
X55950724Y-45579974D01*
X56082753Y-45650546D01*
X56226014Y-45694003D01*
X56337667Y-45705000D01*
X56337676Y-45705000D01*
X56374999Y-45708676D01*
X56412322Y-45705000D01*
X59157678Y-45705000D01*
X59195000Y-45708676D01*
X59232322Y-45705000D01*
X59232333Y-45705000D01*
X59343986Y-45694003D01*
X59487247Y-45650546D01*
X59619276Y-45579974D01*
X59735001Y-45485001D01*
X59758804Y-45455998D01*
X60033429Y-45181372D01*
X60187408Y-45212000D01*
X60462592Y-45212000D01*
X60732490Y-45158314D01*
X60986727Y-45053005D01*
X61215535Y-44900120D01*
X61410120Y-44705535D01*
X61563005Y-44476727D01*
X61595000Y-44399485D01*
X61626995Y-44476727D01*
X61779880Y-44705535D01*
X61974465Y-44900120D01*
X62203273Y-45053005D01*
X62457510Y-45158314D01*
X62727408Y-45212000D01*
X63002592Y-45212000D01*
X63272490Y-45158314D01*
X63526727Y-45053005D01*
X63755535Y-44900120D01*
X63950120Y-44705535D01*
X64103005Y-44476727D01*
X64208314Y-44222490D01*
X64262000Y-43952592D01*
X64262000Y-43677408D01*
X64208314Y-43407510D01*
X64103005Y-43153273D01*
X63950120Y-42924465D01*
X63755535Y-42729880D01*
X63625000Y-42642659D01*
X63625000Y-42396426D01*
X63679335Y-42360120D01*
X63873920Y-42165535D01*
X64026805Y-41936727D01*
X64132114Y-41682490D01*
X64185800Y-41412592D01*
X64185800Y-41137408D01*
X64132114Y-40867510D01*
X64026805Y-40613273D01*
X63873920Y-40384465D01*
X63679335Y-40189880D01*
X63625000Y-40153574D01*
X63625000Y-39907341D01*
X63755535Y-39820120D01*
X63950120Y-39625535D01*
X64103005Y-39396727D01*
X64208314Y-39142490D01*
X64262000Y-38872592D01*
X64262000Y-38597408D01*
X64208314Y-38327510D01*
X64103005Y-38073273D01*
X63950120Y-37844465D01*
X63755535Y-37649880D01*
X63625000Y-37562659D01*
X63625000Y-37316426D01*
X63679335Y-37280120D01*
X63873920Y-37085535D01*
X64026805Y-36856727D01*
X64132114Y-36602490D01*
X64185800Y-36332592D01*
X64185800Y-36057408D01*
X64132114Y-35787510D01*
X64026805Y-35533273D01*
X63873920Y-35304465D01*
X63679335Y-35109880D01*
X63548800Y-35022659D01*
X63548800Y-34878256D01*
X63755535Y-34740120D01*
X63950120Y-34545535D01*
X64103005Y-34316727D01*
X64208314Y-34062490D01*
X64262000Y-33792592D01*
X64262000Y-33517408D01*
X64208314Y-33247510D01*
X64103005Y-32993273D01*
X63950120Y-32764465D01*
X63755535Y-32569880D01*
X63625000Y-32482659D01*
X63625000Y-32236426D01*
X63679335Y-32200120D01*
X63873920Y-32005535D01*
X64026805Y-31776727D01*
X64132114Y-31522490D01*
X64185800Y-31252592D01*
X64185800Y-30977408D01*
X64132114Y-30707510D01*
X64026805Y-30453273D01*
X63873920Y-30224465D01*
X63679335Y-30029880D01*
X63625000Y-29993574D01*
X63625000Y-29747341D01*
X63719845Y-29683967D01*
X64405000Y-29683967D01*
X64405000Y-30006033D01*
X64467832Y-30321912D01*
X64591082Y-30619463D01*
X64770013Y-30887252D01*
X64997748Y-31114987D01*
X65265537Y-31293918D01*
X65563088Y-31417168D01*
X65640167Y-31432500D01*
X65563088Y-31447832D01*
X65265537Y-31571082D01*
X64997748Y-31750013D01*
X64770013Y-31977748D01*
X64591082Y-32245537D01*
X64467832Y-32543088D01*
X64405000Y-32858967D01*
X64405000Y-33181033D01*
X64467832Y-33496912D01*
X64591082Y-33794463D01*
X64770013Y-34062252D01*
X64997748Y-34289987D01*
X65265537Y-34468918D01*
X65563088Y-34592168D01*
X65878967Y-34655000D01*
X66201033Y-34655000D01*
X66516912Y-34592168D01*
X66814463Y-34468918D01*
X67082252Y-34289987D01*
X67309987Y-34062252D01*
X67488918Y-33794463D01*
X67612168Y-33496912D01*
X67675000Y-33181033D01*
X67675000Y-32858967D01*
X67612168Y-32543088D01*
X67488918Y-32245537D01*
X67309987Y-31977748D01*
X67082252Y-31750013D01*
X66814463Y-31571082D01*
X66516912Y-31447832D01*
X66439833Y-31432500D01*
X66516912Y-31417168D01*
X66814463Y-31293918D01*
X67082252Y-31114987D01*
X67309987Y-30887252D01*
X67488918Y-30619463D01*
X67612168Y-30321912D01*
X67675000Y-30006033D01*
X67675000Y-29683967D01*
X67612168Y-29368088D01*
X67488918Y-29070537D01*
X67309987Y-28802748D01*
X67082252Y-28575013D01*
X66814463Y-28396082D01*
X66516912Y-28272832D01*
X66201033Y-28210000D01*
X65878967Y-28210000D01*
X65563088Y-28272832D01*
X65265537Y-28396082D01*
X64997748Y-28575013D01*
X64770013Y-28802748D01*
X64591082Y-29070537D01*
X64467832Y-29368088D01*
X64405000Y-29683967D01*
X63719845Y-29683967D01*
X63755535Y-29660120D01*
X63950120Y-29465535D01*
X64103005Y-29236727D01*
X64208314Y-28982490D01*
X64262000Y-28712592D01*
X64262000Y-28437408D01*
X64208314Y-28167510D01*
X64103005Y-27913273D01*
X63950120Y-27684465D01*
X63755535Y-27489880D01*
X63625000Y-27402659D01*
X63625000Y-27207341D01*
X63755535Y-27120120D01*
X63950120Y-26925535D01*
X64103005Y-26696727D01*
X64208314Y-26442490D01*
X64262000Y-26172592D01*
X64262000Y-25897408D01*
X64208314Y-25627510D01*
X64103005Y-25373273D01*
X63950120Y-25144465D01*
X63755535Y-24949880D01*
X63526727Y-24796995D01*
X63449485Y-24765000D01*
X63526727Y-24733005D01*
X63719845Y-24603967D01*
X64405000Y-24603967D01*
X64405000Y-24926033D01*
X64467832Y-25241912D01*
X64591082Y-25539463D01*
X64770013Y-25807252D01*
X64997748Y-26034987D01*
X65265537Y-26213918D01*
X65563088Y-26337168D01*
X65878967Y-26400000D01*
X66201033Y-26400000D01*
X66516912Y-26337168D01*
X66814463Y-26213918D01*
X67082252Y-26034987D01*
X67309987Y-25807252D01*
X67488918Y-25539463D01*
X67612168Y-25241912D01*
X67675000Y-24926033D01*
X67675000Y-24603967D01*
X67612168Y-24288088D01*
X67488918Y-23990537D01*
X67309987Y-23722748D01*
X67082252Y-23495013D01*
X66814463Y-23316082D01*
X66516912Y-23192832D01*
X66201033Y-23130000D01*
X65878967Y-23130000D01*
X65563088Y-23192832D01*
X65265537Y-23316082D01*
X64997748Y-23495013D01*
X64770013Y-23722748D01*
X64591082Y-23990537D01*
X64467832Y-24288088D01*
X64405000Y-24603967D01*
X63719845Y-24603967D01*
X63755535Y-24580120D01*
X63950120Y-24385535D01*
X64103005Y-24156727D01*
X64208314Y-23902490D01*
X64262000Y-23632592D01*
X64262000Y-23357408D01*
X64208314Y-23087510D01*
X64103005Y-22833273D01*
X63950120Y-22604465D01*
X63755535Y-22409880D01*
X63526727Y-22256995D01*
X63411385Y-22209218D01*
X63450527Y-22193005D01*
X63679335Y-22040120D01*
X63873920Y-21845535D01*
X64026805Y-21616727D01*
X64132114Y-21362490D01*
X64185800Y-21092592D01*
X64185800Y-20820413D01*
X65084192Y-20820413D01*
X65179956Y-21084814D01*
X65469571Y-21225704D01*
X65781108Y-21307384D01*
X66102595Y-21326718D01*
X66421675Y-21282961D01*
X66726088Y-21177795D01*
X66900044Y-21084814D01*
X66995808Y-20820413D01*
X66040000Y-19864605D01*
X65084192Y-20820413D01*
X64185800Y-20820413D01*
X64185800Y-20817408D01*
X64132114Y-20547510D01*
X64026805Y-20293273D01*
X63873920Y-20064465D01*
X63679335Y-19869880D01*
X63548800Y-19782659D01*
X63548800Y-19747595D01*
X64398282Y-19747595D01*
X64442039Y-20066675D01*
X64547205Y-20371088D01*
X64640186Y-20545044D01*
X64904587Y-20640808D01*
X65860395Y-19685000D01*
X66219605Y-19685000D01*
X67175413Y-20640808D01*
X67439814Y-20545044D01*
X67580704Y-20255429D01*
X67662384Y-19943892D01*
X67681718Y-19622405D01*
X67637961Y-19303325D01*
X67532795Y-18998912D01*
X67439814Y-18824956D01*
X67175413Y-18729192D01*
X66219605Y-19685000D01*
X65860395Y-19685000D01*
X64904587Y-18729192D01*
X64640186Y-18824956D01*
X64499296Y-19114571D01*
X64417616Y-19426108D01*
X64398282Y-19747595D01*
X63548800Y-19747595D01*
X63548800Y-19638256D01*
X63755535Y-19500120D01*
X63950120Y-19305535D01*
X64103005Y-19076727D01*
X64208314Y-18822490D01*
X64262000Y-18552592D01*
X64262000Y-18549587D01*
X65084192Y-18549587D01*
X66040000Y-19505395D01*
X66995808Y-18549587D01*
X66900044Y-18285186D01*
X66610429Y-18144296D01*
X66298892Y-18062616D01*
X65977405Y-18043282D01*
X65658325Y-18087039D01*
X65353912Y-18192205D01*
X65179956Y-18285186D01*
X65084192Y-18549587D01*
X64262000Y-18549587D01*
X64262000Y-18277408D01*
X64208314Y-18007510D01*
X64103005Y-17753273D01*
X63950120Y-17524465D01*
X63755535Y-17329880D01*
X63625000Y-17242659D01*
X63625000Y-17047341D01*
X63755535Y-16960120D01*
X63950120Y-16765535D01*
X64103005Y-16536727D01*
X64208314Y-16282490D01*
X64262000Y-16012592D01*
X64262000Y-15737408D01*
X64208314Y-15467510D01*
X64103005Y-15213273D01*
X63950120Y-14984465D01*
X63755535Y-14789880D01*
X63625000Y-14702659D01*
X63625000Y-14507341D01*
X63734587Y-14434117D01*
X67734000Y-14434117D01*
X67734000Y-14775883D01*
X67800675Y-15111081D01*
X67931463Y-15426831D01*
X68121337Y-15710998D01*
X68363002Y-15952663D01*
X68647169Y-16142537D01*
X68962919Y-16273325D01*
X69298117Y-16340000D01*
X69639883Y-16340000D01*
X69975081Y-16273325D01*
X70290831Y-16142537D01*
X70574998Y-15952663D01*
X70816663Y-15710998D01*
X71006537Y-15426831D01*
X71137325Y-15111081D01*
X71204000Y-14775883D01*
X71204000Y-14434117D01*
X71137325Y-14098919D01*
X71006537Y-13783169D01*
X70816663Y-13499002D01*
X70574998Y-13257337D01*
X70290831Y-13067463D01*
X69975081Y-12936675D01*
X69639883Y-12870000D01*
X69298117Y-12870000D01*
X68962919Y-12936675D01*
X68647169Y-13067463D01*
X68363002Y-13257337D01*
X68121337Y-13499002D01*
X67931463Y-13783169D01*
X67800675Y-14098919D01*
X67734000Y-14434117D01*
X63734587Y-14434117D01*
X63755535Y-14420120D01*
X63950120Y-14225535D01*
X64103005Y-13996727D01*
X64208314Y-13742490D01*
X64262000Y-13472592D01*
X64262000Y-13197408D01*
X64208314Y-12927510D01*
X64103005Y-12673273D01*
X63950120Y-12444465D01*
X63755535Y-12249880D01*
X63668912Y-12192000D01*
X71628000Y-12192000D01*
X71628000Y-72263000D01*
X12192000Y-72263000D01*
X12192000Y-69679117D01*
X12616000Y-69679117D01*
X12616000Y-70020883D01*
X12682675Y-70356081D01*
X12813463Y-70671831D01*
X13003337Y-70955998D01*
X13245002Y-71197663D01*
X13529169Y-71387537D01*
X13844919Y-71518325D01*
X14180117Y-71585000D01*
X14521883Y-71585000D01*
X14857081Y-71518325D01*
X15172831Y-71387537D01*
X15456998Y-71197663D01*
X15698663Y-70955998D01*
X15888537Y-70671831D01*
X16019325Y-70356081D01*
X16086000Y-70020883D01*
X16086000Y-69679117D01*
X16019325Y-69343919D01*
X15888537Y-69028169D01*
X15698663Y-68744002D01*
X15456998Y-68502337D01*
X15172831Y-68312463D01*
X14857081Y-68181675D01*
X14521883Y-68115000D01*
X14180117Y-68115000D01*
X13844919Y-68181675D01*
X13529169Y-68312463D01*
X13245002Y-68502337D01*
X13003337Y-68744002D01*
X12813463Y-69028169D01*
X12682675Y-69343919D01*
X12616000Y-69679117D01*
X12192000Y-69679117D01*
X12192000Y-29683967D01*
X16145000Y-29683967D01*
X16145000Y-30006033D01*
X16207832Y-30321912D01*
X16331082Y-30619463D01*
X16510013Y-30887252D01*
X16737748Y-31114987D01*
X17005537Y-31293918D01*
X17303088Y-31417168D01*
X17380167Y-31432500D01*
X17303088Y-31447832D01*
X17005537Y-31571082D01*
X16737748Y-31750013D01*
X16510013Y-31977748D01*
X16331082Y-32245537D01*
X16207832Y-32543088D01*
X16145000Y-32858967D01*
X16145000Y-33181033D01*
X16207832Y-33496912D01*
X16331082Y-33794463D01*
X16510013Y-34062252D01*
X16737748Y-34289987D01*
X17005537Y-34468918D01*
X17303088Y-34592168D01*
X17618967Y-34655000D01*
X17941033Y-34655000D01*
X18256912Y-34592168D01*
X18554463Y-34468918D01*
X18822252Y-34289987D01*
X19049987Y-34062252D01*
X19228918Y-33794463D01*
X19352168Y-33496912D01*
X19415000Y-33181033D01*
X19415000Y-32858967D01*
X19352168Y-32543088D01*
X19228918Y-32245537D01*
X19049987Y-31977748D01*
X18822252Y-31750013D01*
X18554463Y-31571082D01*
X18256912Y-31447832D01*
X18179833Y-31432500D01*
X18256912Y-31417168D01*
X18554463Y-31293918D01*
X18822252Y-31114987D01*
X19049987Y-30887252D01*
X19228918Y-30619463D01*
X19352168Y-30321912D01*
X19415000Y-30006033D01*
X19415000Y-29683967D01*
X19352168Y-29368088D01*
X19228918Y-29070537D01*
X19049987Y-28802748D01*
X18822252Y-28575013D01*
X18554463Y-28396082D01*
X18256912Y-28272832D01*
X17941033Y-28210000D01*
X17618967Y-28210000D01*
X17303088Y-28272832D01*
X17005537Y-28396082D01*
X16737748Y-28575013D01*
X16510013Y-28802748D01*
X16331082Y-29070537D01*
X16207832Y-29368088D01*
X16145000Y-29683967D01*
X12192000Y-29683967D01*
X12192000Y-20820413D01*
X16824192Y-20820413D01*
X16919956Y-21084814D01*
X17209571Y-21225704D01*
X17521108Y-21307384D01*
X17842595Y-21326718D01*
X18161675Y-21282961D01*
X18466088Y-21177795D01*
X18640044Y-21084814D01*
X18735808Y-20820413D01*
X17780000Y-19864605D01*
X16824192Y-20820413D01*
X12192000Y-20820413D01*
X12192000Y-19747595D01*
X16138282Y-19747595D01*
X16182039Y-20066675D01*
X16287205Y-20371088D01*
X16380186Y-20545044D01*
X16644587Y-20640808D01*
X17600395Y-19685000D01*
X17959605Y-19685000D01*
X18915413Y-20640808D01*
X19179814Y-20545044D01*
X19320704Y-20255429D01*
X19402384Y-19943892D01*
X19421718Y-19622405D01*
X19377961Y-19303325D01*
X19272795Y-18998912D01*
X19179814Y-18824956D01*
X18915413Y-18729192D01*
X17959605Y-19685000D01*
X17600395Y-19685000D01*
X16644587Y-18729192D01*
X16380186Y-18824956D01*
X16239296Y-19114571D01*
X16157616Y-19426108D01*
X16138282Y-19747595D01*
X12192000Y-19747595D01*
X12192000Y-18549587D01*
X16824192Y-18549587D01*
X17780000Y-19505395D01*
X18735808Y-18549587D01*
X18640044Y-18285186D01*
X18350429Y-18144296D01*
X18038892Y-18062616D01*
X17717405Y-18043282D01*
X17398325Y-18087039D01*
X17093912Y-18192205D01*
X16919956Y-18285186D01*
X16824192Y-18549587D01*
X12192000Y-18549587D01*
X12192000Y-14434117D01*
X12616000Y-14434117D01*
X12616000Y-14775883D01*
X12682675Y-15111081D01*
X12813463Y-15426831D01*
X13003337Y-15710998D01*
X13245002Y-15952663D01*
X13529169Y-16142537D01*
X13844919Y-16273325D01*
X14180117Y-16340000D01*
X14521883Y-16340000D01*
X14857081Y-16273325D01*
X15172831Y-16142537D01*
X15456998Y-15952663D01*
X15698663Y-15710998D01*
X15888537Y-15426831D01*
X16019325Y-15111081D01*
X16086000Y-14775883D01*
X16086000Y-14434117D01*
X16019325Y-14098919D01*
X15888537Y-13783169D01*
X15698663Y-13499002D01*
X15456998Y-13257337D01*
X15172831Y-13067463D01*
X14857081Y-12936675D01*
X14521883Y-12870000D01*
X14180117Y-12870000D01*
X13844919Y-12936675D01*
X13529169Y-13067463D01*
X13245002Y-13257337D01*
X13003337Y-13499002D01*
X12813463Y-13783169D01*
X12682675Y-14098919D01*
X12616000Y-14434117D01*
X12192000Y-14434117D01*
X12192000Y-12192000D01*
X20151088Y-12192000D01*
X20064465Y-12249880D01*
G36*
X38588601Y-18171003D02*
G01*
X38612399Y-18200001D01*
X38641397Y-18223799D01*
X38728123Y-18294974D01*
X38816504Y-18342215D01*
X38860153Y-18365546D01*
X39003414Y-18409003D01*
X39115067Y-18420000D01*
X39115077Y-18420000D01*
X39152399Y-18423676D01*
X39189722Y-18420000D01*
X48248192Y-18420000D01*
X48178754Y-18566913D01*
X48138096Y-18700961D01*
X48260085Y-18923000D01*
X49403000Y-18923000D01*
X49403000Y-18903000D01*
X49657000Y-18903000D01*
X49657000Y-18923000D01*
X49677000Y-18923000D01*
X49677000Y-19177000D01*
X49657000Y-19177000D01*
X49657000Y-19197000D01*
X49403000Y-19197000D01*
X49403000Y-19177000D01*
X48260085Y-19177000D01*
X48138096Y-19399039D01*
X48178754Y-19533087D01*
X48298963Y-19787420D01*
X48466481Y-20013414D01*
X48674869Y-20202385D01*
X48866682Y-20317421D01*
X48728899Y-20391068D01*
X48510392Y-20570392D01*
X48331068Y-20788899D01*
X48197818Y-21038192D01*
X48115764Y-21308691D01*
X48088057Y-21590000D01*
X48115764Y-21871309D01*
X48197818Y-22141808D01*
X48331068Y-22391101D01*
X48510392Y-22609608D01*
X48728899Y-22788932D01*
X48791160Y-22822211D01*
X48780997Y-22855714D01*
X48776058Y-22905861D01*
X48728899Y-22931068D01*
X48510392Y-23110392D01*
X48331068Y-23328899D01*
X48197818Y-23578192D01*
X48115764Y-23848691D01*
X48088057Y-24130000D01*
X48115764Y-24411309D01*
X48197818Y-24681808D01*
X48331068Y-24931101D01*
X48510392Y-25149608D01*
X48728899Y-25328932D01*
X48861858Y-25400000D01*
X48728899Y-25471068D01*
X48510392Y-25650392D01*
X48331068Y-25868899D01*
X48197818Y-26118192D01*
X48115764Y-26388691D01*
X48088057Y-26670000D01*
X48115764Y-26951309D01*
X48197818Y-27221808D01*
X48331068Y-27471101D01*
X48510392Y-27689608D01*
X48728899Y-27868932D01*
X48861858Y-27940000D01*
X48728899Y-28011068D01*
X48510392Y-28190392D01*
X48331068Y-28408899D01*
X48197818Y-28658192D01*
X48115764Y-28928691D01*
X48088057Y-29210000D01*
X48115764Y-29491309D01*
X48197818Y-29761808D01*
X48331068Y-30011101D01*
X48510392Y-30229608D01*
X48728899Y-30408932D01*
X48861858Y-30480000D01*
X48728899Y-30551068D01*
X48510392Y-30730392D01*
X48331068Y-30948899D01*
X48197818Y-31198192D01*
X48115764Y-31468691D01*
X48088057Y-31750000D01*
X48115764Y-32031309D01*
X48197818Y-32301808D01*
X48331068Y-32551101D01*
X48510392Y-32769608D01*
X48728899Y-32948932D01*
X48861858Y-33020000D01*
X48728899Y-33091068D01*
X48510392Y-33270392D01*
X48331068Y-33488899D01*
X48197818Y-33738192D01*
X48115764Y-34008691D01*
X48088057Y-34290000D01*
X48115764Y-34571309D01*
X48197818Y-34841808D01*
X48331068Y-35091101D01*
X48510392Y-35309608D01*
X48728899Y-35488932D01*
X48861858Y-35560000D01*
X48728899Y-35631068D01*
X48510392Y-35810392D01*
X48331068Y-36028899D01*
X48197818Y-36278192D01*
X48115764Y-36548691D01*
X48088057Y-36830000D01*
X48115764Y-37111309D01*
X48197818Y-37381808D01*
X48331068Y-37631101D01*
X48510392Y-37849608D01*
X48728899Y-38028932D01*
X48861858Y-38100000D01*
X48728899Y-38171068D01*
X48510392Y-38350392D01*
X48331068Y-38568899D01*
X48197818Y-38818192D01*
X48115764Y-39088691D01*
X48088057Y-39370000D01*
X48115764Y-39651309D01*
X48197818Y-39921808D01*
X48331068Y-40171101D01*
X48510392Y-40389608D01*
X48728899Y-40568932D01*
X48861858Y-40640000D01*
X48728899Y-40711068D01*
X48510392Y-40890392D01*
X48331068Y-41108899D01*
X48197818Y-41358192D01*
X48115764Y-41628691D01*
X48088057Y-41910000D01*
X48115764Y-42191309D01*
X48197818Y-42461808D01*
X48331068Y-42711101D01*
X48510392Y-42929608D01*
X48728899Y-43108932D01*
X48861858Y-43180000D01*
X48728899Y-43251068D01*
X48510392Y-43430392D01*
X48331068Y-43648899D01*
X48197818Y-43898192D01*
X48115764Y-44168691D01*
X48088057Y-44450000D01*
X48115764Y-44731309D01*
X48197818Y-45001808D01*
X48331068Y-45251101D01*
X48510392Y-45469608D01*
X48728899Y-45648932D01*
X48791160Y-45682211D01*
X48780997Y-45715714D01*
X48776058Y-45765861D01*
X48728899Y-45791068D01*
X48510392Y-45970392D01*
X48331068Y-46188899D01*
X48197818Y-46438192D01*
X48115764Y-46708691D01*
X48088057Y-46990000D01*
X48115764Y-47271309D01*
X48197818Y-47541808D01*
X48331068Y-47791101D01*
X48510392Y-48009608D01*
X48728899Y-48188932D01*
X48791160Y-48222211D01*
X48780997Y-48255714D01*
X48776058Y-48305861D01*
X48728899Y-48331068D01*
X48510392Y-48510392D01*
X48331068Y-48728899D01*
X48197818Y-48978192D01*
X48115764Y-49248691D01*
X48088057Y-49530000D01*
X48115764Y-49811309D01*
X48197818Y-50081808D01*
X48331068Y-50331101D01*
X48510392Y-50549608D01*
X48728899Y-50728932D01*
X48861858Y-50800000D01*
X48728899Y-50871068D01*
X48510392Y-51050392D01*
X48331068Y-51268899D01*
X48197818Y-51518192D01*
X48115764Y-51788691D01*
X48088057Y-52070000D01*
X48089472Y-52084371D01*
X47666000Y-51660899D01*
X47666000Y-37672525D01*
X47669676Y-37635200D01*
X47666000Y-37597875D01*
X47666000Y-37597867D01*
X47655003Y-37486214D01*
X47611546Y-37342953D01*
X47540974Y-37210924D01*
X47446001Y-37095199D01*
X47417004Y-37071402D01*
X35389915Y-25044314D01*
X35521037Y-24867420D01*
X35641246Y-24613087D01*
X35681904Y-24479039D01*
X35559915Y-24257000D01*
X34417000Y-24257000D01*
X34417000Y-24277000D01*
X34163000Y-24277000D01*
X34163000Y-24257000D01*
X34143000Y-24257000D01*
X34143000Y-24003000D01*
X34163000Y-24003000D01*
X34163000Y-23983000D01*
X34417000Y-23983000D01*
X34417000Y-24003000D01*
X35559915Y-24003000D01*
X35681904Y-23780961D01*
X35641246Y-23646913D01*
X35521037Y-23392580D01*
X35353519Y-23166586D01*
X35145131Y-22977615D01*
X34953318Y-22862579D01*
X35091101Y-22788932D01*
X35309608Y-22609608D01*
X35488932Y-22391101D01*
X35622182Y-22141808D01*
X35704236Y-21871309D01*
X35731943Y-21590000D01*
X35704236Y-21308691D01*
X35622182Y-21038192D01*
X35488932Y-20788899D01*
X35309608Y-20570392D01*
X35091101Y-20391068D01*
X34958142Y-20320000D01*
X35091101Y-20248932D01*
X35309608Y-20069608D01*
X35488932Y-19851101D01*
X35622182Y-19601808D01*
X35704236Y-19331309D01*
X35731943Y-19050000D01*
X35704236Y-18768691D01*
X35622182Y-18498192D01*
X35488932Y-18248899D01*
X35309608Y-18030392D01*
X35196518Y-17937581D01*
X35214482Y-17935812D01*
X35334180Y-17899502D01*
X35444494Y-17840537D01*
X35541185Y-17761185D01*
X35620537Y-17664494D01*
X35679502Y-17554180D01*
X35715812Y-17434482D01*
X35728072Y-17310000D01*
X35728072Y-15710000D01*
X35715812Y-15585518D01*
X35679502Y-15465820D01*
X35620537Y-15355506D01*
X35541185Y-15258815D01*
X35444494Y-15179463D01*
X35334180Y-15120498D01*
X35214482Y-15084188D01*
X35090000Y-15071928D01*
X33859275Y-15071928D01*
X33799674Y-14960424D01*
X33728499Y-14873697D01*
X33704701Y-14844699D01*
X33675703Y-14820901D01*
X32481372Y-13626570D01*
X32512000Y-13472592D01*
X32512000Y-13197408D01*
X32463882Y-12955500D01*
X33373099Y-12955500D01*
X38588601Y-18171003D01*
X38588601Y-18171003D01*
G37*
X38588601Y-18171003D02*
X38612399Y-18200001D01*
X38641397Y-18223799D01*
X38728123Y-18294974D01*
X38816504Y-18342215D01*
X38860153Y-18365546D01*
X39003414Y-18409003D01*
X39115067Y-18420000D01*
X39115077Y-18420000D01*
X39152399Y-18423676D01*
X39189722Y-18420000D01*
X48248192Y-18420000D01*
X48178754Y-18566913D01*
X48138096Y-18700961D01*
X48260085Y-18923000D01*
X49403000Y-18923000D01*
X49403000Y-18903000D01*
X49657000Y-18903000D01*
X49657000Y-18923000D01*
X49677000Y-18923000D01*
X49677000Y-19177000D01*
X49657000Y-19177000D01*
X49657000Y-19197000D01*
X49403000Y-19197000D01*
X49403000Y-19177000D01*
X48260085Y-19177000D01*
X48138096Y-19399039D01*
X48178754Y-19533087D01*
X48298963Y-19787420D01*
X48466481Y-20013414D01*
X48674869Y-20202385D01*
X48866682Y-20317421D01*
X48728899Y-20391068D01*
X48510392Y-20570392D01*
X48331068Y-20788899D01*
X48197818Y-21038192D01*
X48115764Y-21308691D01*
X48088057Y-21590000D01*
X48115764Y-21871309D01*
X48197818Y-22141808D01*
X48331068Y-22391101D01*
X48510392Y-22609608D01*
X48728899Y-22788932D01*
X48791160Y-22822211D01*
X48780997Y-22855714D01*
X48776058Y-22905861D01*
X48728899Y-22931068D01*
X48510392Y-23110392D01*
X48331068Y-23328899D01*
X48197818Y-23578192D01*
X48115764Y-23848691D01*
X48088057Y-24130000D01*
X48115764Y-24411309D01*
X48197818Y-24681808D01*
X48331068Y-24931101D01*
X48510392Y-25149608D01*
X48728899Y-25328932D01*
X48861858Y-25400000D01*
X48728899Y-25471068D01*
X48510392Y-25650392D01*
X48331068Y-25868899D01*
X48197818Y-26118192D01*
X48115764Y-26388691D01*
X48088057Y-26670000D01*
X48115764Y-26951309D01*
X48197818Y-27221808D01*
X48331068Y-27471101D01*
X48510392Y-27689608D01*
X48728899Y-27868932D01*
X48861858Y-27940000D01*
X48728899Y-28011068D01*
X48510392Y-28190392D01*
X48331068Y-28408899D01*
X48197818Y-28658192D01*
X48115764Y-28928691D01*
X48088057Y-29210000D01*
X48115764Y-29491309D01*
X48197818Y-29761808D01*
X48331068Y-30011101D01*
X48510392Y-30229608D01*
X48728899Y-30408932D01*
X48861858Y-30480000D01*
X48728899Y-30551068D01*
X48510392Y-30730392D01*
X48331068Y-30948899D01*
X48197818Y-31198192D01*
X48115764Y-31468691D01*
X48088057Y-31750000D01*
X48115764Y-32031309D01*
X48197818Y-32301808D01*
X48331068Y-32551101D01*
X48510392Y-32769608D01*
X48728899Y-32948932D01*
X48861858Y-33020000D01*
X48728899Y-33091068D01*
X48510392Y-33270392D01*
X48331068Y-33488899D01*
X48197818Y-33738192D01*
X48115764Y-34008691D01*
X48088057Y-34290000D01*
X48115764Y-34571309D01*
X48197818Y-34841808D01*
X48331068Y-35091101D01*
X48510392Y-35309608D01*
X48728899Y-35488932D01*
X48861858Y-35560000D01*
X48728899Y-35631068D01*
X48510392Y-35810392D01*
X48331068Y-36028899D01*
X48197818Y-36278192D01*
X48115764Y-36548691D01*
X48088057Y-36830000D01*
X48115764Y-37111309D01*
X48197818Y-37381808D01*
X48331068Y-37631101D01*
X48510392Y-37849608D01*
X48728899Y-38028932D01*
X48861858Y-38100000D01*
X48728899Y-38171068D01*
X48510392Y-38350392D01*
X48331068Y-38568899D01*
X48197818Y-38818192D01*
X48115764Y-39088691D01*
X48088057Y-39370000D01*
X48115764Y-39651309D01*
X48197818Y-39921808D01*
X48331068Y-40171101D01*
X48510392Y-40389608D01*
X48728899Y-40568932D01*
X48861858Y-40640000D01*
X48728899Y-40711068D01*
X48510392Y-40890392D01*
X48331068Y-41108899D01*
X48197818Y-41358192D01*
X48115764Y-41628691D01*
X48088057Y-41910000D01*
X48115764Y-42191309D01*
X48197818Y-42461808D01*
X48331068Y-42711101D01*
X48510392Y-42929608D01*
X48728899Y-43108932D01*
X48861858Y-43180000D01*
X48728899Y-43251068D01*
X48510392Y-43430392D01*
X48331068Y-43648899D01*
X48197818Y-43898192D01*
X48115764Y-44168691D01*
X48088057Y-44450000D01*
X48115764Y-44731309D01*
X48197818Y-45001808D01*
X48331068Y-45251101D01*
X48510392Y-45469608D01*
X48728899Y-45648932D01*
X48791160Y-45682211D01*
X48780997Y-45715714D01*
X48776058Y-45765861D01*
X48728899Y-45791068D01*
X48510392Y-45970392D01*
X48331068Y-46188899D01*
X48197818Y-46438192D01*
X48115764Y-46708691D01*
X48088057Y-46990000D01*
X48115764Y-47271309D01*
X48197818Y-47541808D01*
X48331068Y-47791101D01*
X48510392Y-48009608D01*
X48728899Y-48188932D01*
X48791160Y-48222211D01*
X48780997Y-48255714D01*
X48776058Y-48305861D01*
X48728899Y-48331068D01*
X48510392Y-48510392D01*
X48331068Y-48728899D01*
X48197818Y-48978192D01*
X48115764Y-49248691D01*
X48088057Y-49530000D01*
X48115764Y-49811309D01*
X48197818Y-50081808D01*
X48331068Y-50331101D01*
X48510392Y-50549608D01*
X48728899Y-50728932D01*
X48861858Y-50800000D01*
X48728899Y-50871068D01*
X48510392Y-51050392D01*
X48331068Y-51268899D01*
X48197818Y-51518192D01*
X48115764Y-51788691D01*
X48088057Y-52070000D01*
X48089472Y-52084371D01*
X47666000Y-51660899D01*
X47666000Y-37672525D01*
X47669676Y-37635200D01*
X47666000Y-37597875D01*
X47666000Y-37597867D01*
X47655003Y-37486214D01*
X47611546Y-37342953D01*
X47540974Y-37210924D01*
X47446001Y-37095199D01*
X47417004Y-37071402D01*
X35389915Y-25044314D01*
X35521037Y-24867420D01*
X35641246Y-24613087D01*
X35681904Y-24479039D01*
X35559915Y-24257000D01*
X34417000Y-24257000D01*
X34417000Y-24277000D01*
X34163000Y-24277000D01*
X34163000Y-24257000D01*
X34143000Y-24257000D01*
X34143000Y-24003000D01*
X34163000Y-24003000D01*
X34163000Y-23983000D01*
X34417000Y-23983000D01*
X34417000Y-24003000D01*
X35559915Y-24003000D01*
X35681904Y-23780961D01*
X35641246Y-23646913D01*
X35521037Y-23392580D01*
X35353519Y-23166586D01*
X35145131Y-22977615D01*
X34953318Y-22862579D01*
X35091101Y-22788932D01*
X35309608Y-22609608D01*
X35488932Y-22391101D01*
X35622182Y-22141808D01*
X35704236Y-21871309D01*
X35731943Y-21590000D01*
X35704236Y-21308691D01*
X35622182Y-21038192D01*
X35488932Y-20788899D01*
X35309608Y-20570392D01*
X35091101Y-20391068D01*
X34958142Y-20320000D01*
X35091101Y-20248932D01*
X35309608Y-20069608D01*
X35488932Y-19851101D01*
X35622182Y-19601808D01*
X35704236Y-19331309D01*
X35731943Y-19050000D01*
X35704236Y-18768691D01*
X35622182Y-18498192D01*
X35488932Y-18248899D01*
X35309608Y-18030392D01*
X35196518Y-17937581D01*
X35214482Y-17935812D01*
X35334180Y-17899502D01*
X35444494Y-17840537D01*
X35541185Y-17761185D01*
X35620537Y-17664494D01*
X35679502Y-17554180D01*
X35715812Y-17434482D01*
X35728072Y-17310000D01*
X35728072Y-15710000D01*
X35715812Y-15585518D01*
X35679502Y-15465820D01*
X35620537Y-15355506D01*
X35541185Y-15258815D01*
X35444494Y-15179463D01*
X35334180Y-15120498D01*
X35214482Y-15084188D01*
X35090000Y-15071928D01*
X33859275Y-15071928D01*
X33799674Y-14960424D01*
X33728499Y-14873697D01*
X33704701Y-14844699D01*
X33675703Y-14820901D01*
X32481372Y-13626570D01*
X32512000Y-13472592D01*
X32512000Y-13197408D01*
X32463882Y-12955500D01*
X33373099Y-12955500D01*
X38588601Y-18171003D01*
G36*
X57978748Y-33640858D02*
G01*
X57964605Y-33655000D01*
X58750565Y-34440960D01*
X58990656Y-34373980D01*
X59054485Y-34238240D01*
X59086995Y-34316727D01*
X59239880Y-34545535D01*
X59434465Y-34740120D01*
X59663273Y-34893005D01*
X59702415Y-34909218D01*
X59587073Y-34956995D01*
X59358265Y-35109880D01*
X59163680Y-35304465D01*
X59010795Y-35533273D01*
X58981108Y-35604943D01*
X58976436Y-35591977D01*
X58914456Y-35476020D01*
X58674365Y-35409040D01*
X57888405Y-36195000D01*
X58674365Y-36980960D01*
X58914456Y-36913980D01*
X58978285Y-36778240D01*
X59010795Y-36856727D01*
X59163680Y-37085535D01*
X59358265Y-37280120D01*
X59587073Y-37433005D01*
X59702415Y-37480782D01*
X59663273Y-37496995D01*
X59434465Y-37649880D01*
X59239880Y-37844465D01*
X59086995Y-38073273D01*
X59057308Y-38144943D01*
X59052636Y-38131977D01*
X58990656Y-38016020D01*
X58750565Y-37949040D01*
X57964605Y-38735000D01*
X58750565Y-39520960D01*
X58990656Y-39453980D01*
X59054485Y-39318240D01*
X59086995Y-39396727D01*
X59239880Y-39625535D01*
X59434465Y-39820120D01*
X59663273Y-39973005D01*
X59702415Y-39989218D01*
X59587073Y-40036995D01*
X59358265Y-40189880D01*
X59163680Y-40384465D01*
X59010795Y-40613273D01*
X58981108Y-40684943D01*
X58976436Y-40671977D01*
X58914456Y-40556020D01*
X58674365Y-40489040D01*
X57888405Y-41275000D01*
X58674365Y-42060960D01*
X58914456Y-41993980D01*
X58978285Y-41858240D01*
X59010795Y-41936727D01*
X59163680Y-42165535D01*
X59358265Y-42360120D01*
X59587073Y-42513005D01*
X59702415Y-42560782D01*
X59663273Y-42576995D01*
X59434465Y-42729880D01*
X59239880Y-42924465D01*
X59086995Y-43153273D01*
X59057308Y-43224943D01*
X59052636Y-43211977D01*
X58990656Y-43096020D01*
X58750565Y-43029040D01*
X57964605Y-43815000D01*
X57978748Y-43829143D01*
X57799143Y-44008748D01*
X57785000Y-43994605D01*
X57770858Y-44008748D01*
X57591253Y-43829143D01*
X57605395Y-43815000D01*
X56819435Y-43029040D01*
X56579344Y-43096020D01*
X56515515Y-43231760D01*
X56483005Y-43153273D01*
X56330120Y-42924465D01*
X56135535Y-42729880D01*
X55906727Y-42576995D01*
X55791385Y-42529218D01*
X55830527Y-42513005D01*
X56059335Y-42360120D01*
X56178890Y-42240565D01*
X56922840Y-42240565D01*
X56989820Y-42480656D01*
X57158439Y-42559945D01*
X57066020Y-42609344D01*
X56999040Y-42849435D01*
X57785000Y-43635395D01*
X58570960Y-42849435D01*
X58503980Y-42609344D01*
X58335361Y-42530055D01*
X58427780Y-42480656D01*
X58494760Y-42240565D01*
X57708800Y-41454605D01*
X56922840Y-42240565D01*
X56178890Y-42240565D01*
X56253920Y-42165535D01*
X56406805Y-41936727D01*
X56436492Y-41865057D01*
X56441164Y-41878023D01*
X56503144Y-41993980D01*
X56743235Y-42060960D01*
X57529195Y-41275000D01*
X56743235Y-40489040D01*
X56503144Y-40556020D01*
X56439315Y-40691760D01*
X56406805Y-40613273D01*
X56253920Y-40384465D01*
X56178890Y-40309435D01*
X56922840Y-40309435D01*
X57708800Y-41095395D01*
X58494760Y-40309435D01*
X58427780Y-40069344D01*
X58330215Y-40023466D01*
X58388023Y-40002636D01*
X58503980Y-39940656D01*
X58570960Y-39700565D01*
X57785000Y-38914605D01*
X56999040Y-39700565D01*
X57066020Y-39940656D01*
X57163585Y-39986534D01*
X57105777Y-40007364D01*
X56989820Y-40069344D01*
X56922840Y-40309435D01*
X56178890Y-40309435D01*
X56059335Y-40189880D01*
X55830527Y-40036995D01*
X55791385Y-40020782D01*
X55906727Y-39973005D01*
X56135535Y-39820120D01*
X56330120Y-39625535D01*
X56483005Y-39396727D01*
X56512692Y-39325057D01*
X56517364Y-39338023D01*
X56579344Y-39453980D01*
X56819435Y-39520960D01*
X57605395Y-38735000D01*
X56819435Y-37949040D01*
X56579344Y-38016020D01*
X56515515Y-38151760D01*
X56483005Y-38073273D01*
X56330120Y-37844465D01*
X56135535Y-37649880D01*
X55906727Y-37496995D01*
X55791385Y-37449218D01*
X55830527Y-37433005D01*
X56059335Y-37280120D01*
X56178890Y-37160565D01*
X56922840Y-37160565D01*
X56989820Y-37400656D01*
X57158439Y-37479945D01*
X57066020Y-37529344D01*
X56999040Y-37769435D01*
X57785000Y-38555395D01*
X58570960Y-37769435D01*
X58503980Y-37529344D01*
X58335361Y-37450055D01*
X58427780Y-37400656D01*
X58494760Y-37160565D01*
X57708800Y-36374605D01*
X56922840Y-37160565D01*
X56178890Y-37160565D01*
X56253920Y-37085535D01*
X56406805Y-36856727D01*
X56436492Y-36785057D01*
X56441164Y-36798023D01*
X56503144Y-36913980D01*
X56743235Y-36980960D01*
X57529195Y-36195000D01*
X56743235Y-35409040D01*
X56503144Y-35476020D01*
X56439315Y-35611760D01*
X56406805Y-35533273D01*
X56253920Y-35304465D01*
X56178890Y-35229435D01*
X56922840Y-35229435D01*
X57708800Y-36015395D01*
X58494760Y-35229435D01*
X58427780Y-34989344D01*
X58330215Y-34943466D01*
X58388023Y-34922636D01*
X58503980Y-34860656D01*
X58570960Y-34620565D01*
X57785000Y-33834605D01*
X56999040Y-34620565D01*
X57066020Y-34860656D01*
X57163585Y-34906534D01*
X57105777Y-34927364D01*
X56989820Y-34989344D01*
X56922840Y-35229435D01*
X56178890Y-35229435D01*
X56059335Y-35109880D01*
X55830527Y-34956995D01*
X55791385Y-34940782D01*
X55906727Y-34893005D01*
X56135535Y-34740120D01*
X56330120Y-34545535D01*
X56483005Y-34316727D01*
X56512692Y-34245057D01*
X56517364Y-34258023D01*
X56579344Y-34373980D01*
X56819435Y-34440960D01*
X57605395Y-33655000D01*
X57591253Y-33640858D01*
X57770858Y-33461253D01*
X57785000Y-33475395D01*
X57799143Y-33461253D01*
X57978748Y-33640858D01*
X57978748Y-33640858D01*
G37*
X57978748Y-33640858D02*
X57964605Y-33655000D01*
X58750565Y-34440960D01*
X58990656Y-34373980D01*
X59054485Y-34238240D01*
X59086995Y-34316727D01*
X59239880Y-34545535D01*
X59434465Y-34740120D01*
X59663273Y-34893005D01*
X59702415Y-34909218D01*
X59587073Y-34956995D01*
X59358265Y-35109880D01*
X59163680Y-35304465D01*
X59010795Y-35533273D01*
X58981108Y-35604943D01*
X58976436Y-35591977D01*
X58914456Y-35476020D01*
X58674365Y-35409040D01*
X57888405Y-36195000D01*
X58674365Y-36980960D01*
X58914456Y-36913980D01*
X58978285Y-36778240D01*
X59010795Y-36856727D01*
X59163680Y-37085535D01*
X59358265Y-37280120D01*
X59587073Y-37433005D01*
X59702415Y-37480782D01*
X59663273Y-37496995D01*
X59434465Y-37649880D01*
X59239880Y-37844465D01*
X59086995Y-38073273D01*
X59057308Y-38144943D01*
X59052636Y-38131977D01*
X58990656Y-38016020D01*
X58750565Y-37949040D01*
X57964605Y-38735000D01*
X58750565Y-39520960D01*
X58990656Y-39453980D01*
X59054485Y-39318240D01*
X59086995Y-39396727D01*
X59239880Y-39625535D01*
X59434465Y-39820120D01*
X59663273Y-39973005D01*
X59702415Y-39989218D01*
X59587073Y-40036995D01*
X59358265Y-40189880D01*
X59163680Y-40384465D01*
X59010795Y-40613273D01*
X58981108Y-40684943D01*
X58976436Y-40671977D01*
X58914456Y-40556020D01*
X58674365Y-40489040D01*
X57888405Y-41275000D01*
X58674365Y-42060960D01*
X58914456Y-41993980D01*
X58978285Y-41858240D01*
X59010795Y-41936727D01*
X59163680Y-42165535D01*
X59358265Y-42360120D01*
X59587073Y-42513005D01*
X59702415Y-42560782D01*
X59663273Y-42576995D01*
X59434465Y-42729880D01*
X59239880Y-42924465D01*
X59086995Y-43153273D01*
X59057308Y-43224943D01*
X59052636Y-43211977D01*
X58990656Y-43096020D01*
X58750565Y-43029040D01*
X57964605Y-43815000D01*
X57978748Y-43829143D01*
X57799143Y-44008748D01*
X57785000Y-43994605D01*
X57770858Y-44008748D01*
X57591253Y-43829143D01*
X57605395Y-43815000D01*
X56819435Y-43029040D01*
X56579344Y-43096020D01*
X56515515Y-43231760D01*
X56483005Y-43153273D01*
X56330120Y-42924465D01*
X56135535Y-42729880D01*
X55906727Y-42576995D01*
X55791385Y-42529218D01*
X55830527Y-42513005D01*
X56059335Y-42360120D01*
X56178890Y-42240565D01*
X56922840Y-42240565D01*
X56989820Y-42480656D01*
X57158439Y-42559945D01*
X57066020Y-42609344D01*
X56999040Y-42849435D01*
X57785000Y-43635395D01*
X58570960Y-42849435D01*
X58503980Y-42609344D01*
X58335361Y-42530055D01*
X58427780Y-42480656D01*
X58494760Y-42240565D01*
X57708800Y-41454605D01*
X56922840Y-42240565D01*
X56178890Y-42240565D01*
X56253920Y-42165535D01*
X56406805Y-41936727D01*
X56436492Y-41865057D01*
X56441164Y-41878023D01*
X56503144Y-41993980D01*
X56743235Y-42060960D01*
X57529195Y-41275000D01*
X56743235Y-40489040D01*
X56503144Y-40556020D01*
X56439315Y-40691760D01*
X56406805Y-40613273D01*
X56253920Y-40384465D01*
X56178890Y-40309435D01*
X56922840Y-40309435D01*
X57708800Y-41095395D01*
X58494760Y-40309435D01*
X58427780Y-40069344D01*
X58330215Y-40023466D01*
X58388023Y-40002636D01*
X58503980Y-39940656D01*
X58570960Y-39700565D01*
X57785000Y-38914605D01*
X56999040Y-39700565D01*
X57066020Y-39940656D01*
X57163585Y-39986534D01*
X57105777Y-40007364D01*
X56989820Y-40069344D01*
X56922840Y-40309435D01*
X56178890Y-40309435D01*
X56059335Y-40189880D01*
X55830527Y-40036995D01*
X55791385Y-40020782D01*
X55906727Y-39973005D01*
X56135535Y-39820120D01*
X56330120Y-39625535D01*
X56483005Y-39396727D01*
X56512692Y-39325057D01*
X56517364Y-39338023D01*
X56579344Y-39453980D01*
X56819435Y-39520960D01*
X57605395Y-38735000D01*
X56819435Y-37949040D01*
X56579344Y-38016020D01*
X56515515Y-38151760D01*
X56483005Y-38073273D01*
X56330120Y-37844465D01*
X56135535Y-37649880D01*
X55906727Y-37496995D01*
X55791385Y-37449218D01*
X55830527Y-37433005D01*
X56059335Y-37280120D01*
X56178890Y-37160565D01*
X56922840Y-37160565D01*
X56989820Y-37400656D01*
X57158439Y-37479945D01*
X57066020Y-37529344D01*
X56999040Y-37769435D01*
X57785000Y-38555395D01*
X58570960Y-37769435D01*
X58503980Y-37529344D01*
X58335361Y-37450055D01*
X58427780Y-37400656D01*
X58494760Y-37160565D01*
X57708800Y-36374605D01*
X56922840Y-37160565D01*
X56178890Y-37160565D01*
X56253920Y-37085535D01*
X56406805Y-36856727D01*
X56436492Y-36785057D01*
X56441164Y-36798023D01*
X56503144Y-36913980D01*
X56743235Y-36980960D01*
X57529195Y-36195000D01*
X56743235Y-35409040D01*
X56503144Y-35476020D01*
X56439315Y-35611760D01*
X56406805Y-35533273D01*
X56253920Y-35304465D01*
X56178890Y-35229435D01*
X56922840Y-35229435D01*
X57708800Y-36015395D01*
X58494760Y-35229435D01*
X58427780Y-34989344D01*
X58330215Y-34943466D01*
X58388023Y-34922636D01*
X58503980Y-34860656D01*
X58570960Y-34620565D01*
X57785000Y-33834605D01*
X56999040Y-34620565D01*
X57066020Y-34860656D01*
X57163585Y-34906534D01*
X57105777Y-34927364D01*
X56989820Y-34989344D01*
X56922840Y-35229435D01*
X56178890Y-35229435D01*
X56059335Y-35109880D01*
X55830527Y-34956995D01*
X55791385Y-34940782D01*
X55906727Y-34893005D01*
X56135535Y-34740120D01*
X56330120Y-34545535D01*
X56483005Y-34316727D01*
X56512692Y-34245057D01*
X56517364Y-34258023D01*
X56579344Y-34373980D01*
X56819435Y-34440960D01*
X57605395Y-33655000D01*
X57591253Y-33640858D01*
X57770858Y-33461253D01*
X57785000Y-33475395D01*
X57799143Y-33461253D01*
X57978748Y-33640858D01*
G36*
X26152548Y-41260858D02*
G01*
X26138405Y-41275000D01*
X26152548Y-41289143D01*
X25972943Y-41468748D01*
X25958800Y-41454605D01*
X25944658Y-41468748D01*
X25765053Y-41289143D01*
X25779195Y-41275000D01*
X25765053Y-41260858D01*
X25944658Y-41081253D01*
X25958800Y-41095395D01*
X25972943Y-41081253D01*
X26152548Y-41260858D01*
X26152548Y-41260858D01*
G37*
X26152548Y-41260858D02*
X26138405Y-41275000D01*
X26152548Y-41289143D01*
X25972943Y-41468748D01*
X25958800Y-41454605D01*
X25944658Y-41468748D01*
X25765053Y-41289143D01*
X25779195Y-41275000D01*
X25765053Y-41260858D01*
X25944658Y-41081253D01*
X25958800Y-41095395D01*
X25972943Y-41081253D01*
X26152548Y-41260858D01*
G36*
X26228748Y-26020858D02*
G01*
X26214605Y-26035000D01*
X27000565Y-26820960D01*
X27240656Y-26753980D01*
X27304485Y-26618240D01*
X27336995Y-26696727D01*
X27489880Y-26925535D01*
X27518672Y-26954327D01*
X26958673Y-27514327D01*
X26937369Y-27493023D01*
X26820959Y-27609433D01*
X26753980Y-27369344D01*
X26623356Y-27307921D01*
X26638023Y-27302636D01*
X26753980Y-27240656D01*
X26820960Y-27000565D01*
X26035000Y-26214605D01*
X25249040Y-27000565D01*
X25316020Y-27240656D01*
X25446644Y-27302079D01*
X25431977Y-27307364D01*
X25316020Y-27369344D01*
X25249040Y-27609435D01*
X26035000Y-28395395D01*
X26049143Y-28381253D01*
X26228748Y-28560858D01*
X26214605Y-28575000D01*
X26228748Y-28589143D01*
X26049143Y-28768748D01*
X26035000Y-28754605D01*
X25249040Y-29540565D01*
X25316020Y-29780656D01*
X25413585Y-29826534D01*
X25355777Y-29847364D01*
X25239820Y-29909344D01*
X25172840Y-30149435D01*
X25958800Y-30935395D01*
X25972943Y-30921253D01*
X26152548Y-31100858D01*
X26138405Y-31115000D01*
X26152548Y-31129143D01*
X25972943Y-31308748D01*
X25958800Y-31294605D01*
X25172840Y-32080565D01*
X25239820Y-32320656D01*
X25408439Y-32399945D01*
X25316020Y-32449344D01*
X25249040Y-32689435D01*
X26035000Y-33475395D01*
X26049143Y-33461253D01*
X26228748Y-33640858D01*
X26214605Y-33655000D01*
X26228748Y-33669143D01*
X26049143Y-33848748D01*
X26035000Y-33834605D01*
X25249040Y-34620565D01*
X25316020Y-34860656D01*
X25413585Y-34906534D01*
X25355777Y-34927364D01*
X25239820Y-34989344D01*
X25172840Y-35229435D01*
X25958800Y-36015395D01*
X26744760Y-35229435D01*
X26677780Y-34989344D01*
X26580215Y-34943466D01*
X26638023Y-34922636D01*
X26753980Y-34860656D01*
X26820959Y-34620567D01*
X26937369Y-34736977D01*
X26969123Y-34705224D01*
X27491022Y-35227123D01*
X27413680Y-35304465D01*
X27260795Y-35533273D01*
X27231108Y-35604943D01*
X27226436Y-35591977D01*
X27164456Y-35476020D01*
X26924365Y-35409040D01*
X26138405Y-36195000D01*
X26924365Y-36980960D01*
X27164456Y-36913980D01*
X27228285Y-36778240D01*
X27260795Y-36856727D01*
X27413680Y-37085535D01*
X27608265Y-37280120D01*
X27837073Y-37433005D01*
X27952415Y-37480782D01*
X27913273Y-37496995D01*
X27684465Y-37649880D01*
X27489880Y-37844465D01*
X27336995Y-38073273D01*
X27307308Y-38144943D01*
X27302636Y-38131977D01*
X27240656Y-38016020D01*
X27000565Y-37949040D01*
X26214605Y-38735000D01*
X26228748Y-38749143D01*
X26049143Y-38928748D01*
X26035000Y-38914605D01*
X26020858Y-38928748D01*
X25841253Y-38749143D01*
X25855395Y-38735000D01*
X25069435Y-37949040D01*
X24829344Y-38016020D01*
X24765515Y-38151760D01*
X24733005Y-38073273D01*
X24580120Y-37844465D01*
X24385535Y-37649880D01*
X24156727Y-37496995D01*
X24041385Y-37449218D01*
X24080527Y-37433005D01*
X24309335Y-37280120D01*
X24428890Y-37160565D01*
X25172840Y-37160565D01*
X25239820Y-37400656D01*
X25408439Y-37479945D01*
X25316020Y-37529344D01*
X25249040Y-37769435D01*
X26035000Y-38555395D01*
X26820960Y-37769435D01*
X26753980Y-37529344D01*
X26585361Y-37450055D01*
X26677780Y-37400656D01*
X26744760Y-37160565D01*
X25958800Y-36374605D01*
X25172840Y-37160565D01*
X24428890Y-37160565D01*
X24503920Y-37085535D01*
X24656805Y-36856727D01*
X24686492Y-36785057D01*
X24691164Y-36798023D01*
X24753144Y-36913980D01*
X24993235Y-36980960D01*
X25779195Y-36195000D01*
X24993235Y-35409040D01*
X24753144Y-35476020D01*
X24689315Y-35611760D01*
X24656805Y-35533273D01*
X24503920Y-35304465D01*
X24309335Y-35109880D01*
X24080527Y-34956995D01*
X24041385Y-34940782D01*
X24156727Y-34893005D01*
X24385535Y-34740120D01*
X24580120Y-34545535D01*
X24733005Y-34316727D01*
X24762692Y-34245057D01*
X24767364Y-34258023D01*
X24829344Y-34373980D01*
X25069435Y-34440960D01*
X25855395Y-33655000D01*
X25069435Y-32869040D01*
X24829344Y-32936020D01*
X24765515Y-33071760D01*
X24733005Y-32993273D01*
X24580120Y-32764465D01*
X24385535Y-32569880D01*
X24156727Y-32416995D01*
X24041385Y-32369218D01*
X24080527Y-32353005D01*
X24309335Y-32200120D01*
X24503920Y-32005535D01*
X24656805Y-31776727D01*
X24686492Y-31705057D01*
X24691164Y-31718023D01*
X24753144Y-31833980D01*
X24993235Y-31900960D01*
X25779195Y-31115000D01*
X24993235Y-30329040D01*
X24753144Y-30396020D01*
X24689315Y-30531760D01*
X24656805Y-30453273D01*
X24503920Y-30224465D01*
X24309335Y-30029880D01*
X24080527Y-29876995D01*
X24041385Y-29860782D01*
X24156727Y-29813005D01*
X24385535Y-29660120D01*
X24580120Y-29465535D01*
X24733005Y-29236727D01*
X24762692Y-29165057D01*
X24767364Y-29178023D01*
X24829344Y-29293980D01*
X25069435Y-29360960D01*
X25855395Y-28575000D01*
X25069435Y-27789040D01*
X24829344Y-27856020D01*
X24765515Y-27991760D01*
X24733005Y-27913273D01*
X24580120Y-27684465D01*
X24385535Y-27489880D01*
X24156727Y-27336995D01*
X24079485Y-27305000D01*
X24156727Y-27273005D01*
X24385535Y-27120120D01*
X24580120Y-26925535D01*
X24733005Y-26696727D01*
X24762692Y-26625057D01*
X24767364Y-26638023D01*
X24829344Y-26753980D01*
X25069435Y-26820960D01*
X25855395Y-26035000D01*
X25841253Y-26020858D01*
X26020858Y-25841253D01*
X26035000Y-25855395D01*
X26049143Y-25841253D01*
X26228748Y-26020858D01*
X26228748Y-26020858D01*
G37*
X26228748Y-26020858D02*
X26214605Y-26035000D01*
X27000565Y-26820960D01*
X27240656Y-26753980D01*
X27304485Y-26618240D01*
X27336995Y-26696727D01*
X27489880Y-26925535D01*
X27518672Y-26954327D01*
X26958673Y-27514327D01*
X26937369Y-27493023D01*
X26820959Y-27609433D01*
X26753980Y-27369344D01*
X26623356Y-27307921D01*
X26638023Y-27302636D01*
X26753980Y-27240656D01*
X26820960Y-27000565D01*
X26035000Y-26214605D01*
X25249040Y-27000565D01*
X25316020Y-27240656D01*
X25446644Y-27302079D01*
X25431977Y-27307364D01*
X25316020Y-27369344D01*
X25249040Y-27609435D01*
X26035000Y-28395395D01*
X26049143Y-28381253D01*
X26228748Y-28560858D01*
X26214605Y-28575000D01*
X26228748Y-28589143D01*
X26049143Y-28768748D01*
X26035000Y-28754605D01*
X25249040Y-29540565D01*
X25316020Y-29780656D01*
X25413585Y-29826534D01*
X25355777Y-29847364D01*
X25239820Y-29909344D01*
X25172840Y-30149435D01*
X25958800Y-30935395D01*
X25972943Y-30921253D01*
X26152548Y-31100858D01*
X26138405Y-31115000D01*
X26152548Y-31129143D01*
X25972943Y-31308748D01*
X25958800Y-31294605D01*
X25172840Y-32080565D01*
X25239820Y-32320656D01*
X25408439Y-32399945D01*
X25316020Y-32449344D01*
X25249040Y-32689435D01*
X26035000Y-33475395D01*
X26049143Y-33461253D01*
X26228748Y-33640858D01*
X26214605Y-33655000D01*
X26228748Y-33669143D01*
X26049143Y-33848748D01*
X26035000Y-33834605D01*
X25249040Y-34620565D01*
X25316020Y-34860656D01*
X25413585Y-34906534D01*
X25355777Y-34927364D01*
X25239820Y-34989344D01*
X25172840Y-35229435D01*
X25958800Y-36015395D01*
X26744760Y-35229435D01*
X26677780Y-34989344D01*
X26580215Y-34943466D01*
X26638023Y-34922636D01*
X26753980Y-34860656D01*
X26820959Y-34620567D01*
X26937369Y-34736977D01*
X26969123Y-34705224D01*
X27491022Y-35227123D01*
X27413680Y-35304465D01*
X27260795Y-35533273D01*
X27231108Y-35604943D01*
X27226436Y-35591977D01*
X27164456Y-35476020D01*
X26924365Y-35409040D01*
X26138405Y-36195000D01*
X26924365Y-36980960D01*
X27164456Y-36913980D01*
X27228285Y-36778240D01*
X27260795Y-36856727D01*
X27413680Y-37085535D01*
X27608265Y-37280120D01*
X27837073Y-37433005D01*
X27952415Y-37480782D01*
X27913273Y-37496995D01*
X27684465Y-37649880D01*
X27489880Y-37844465D01*
X27336995Y-38073273D01*
X27307308Y-38144943D01*
X27302636Y-38131977D01*
X27240656Y-38016020D01*
X27000565Y-37949040D01*
X26214605Y-38735000D01*
X26228748Y-38749143D01*
X26049143Y-38928748D01*
X26035000Y-38914605D01*
X26020858Y-38928748D01*
X25841253Y-38749143D01*
X25855395Y-38735000D01*
X25069435Y-37949040D01*
X24829344Y-38016020D01*
X24765515Y-38151760D01*
X24733005Y-38073273D01*
X24580120Y-37844465D01*
X24385535Y-37649880D01*
X24156727Y-37496995D01*
X24041385Y-37449218D01*
X24080527Y-37433005D01*
X24309335Y-37280120D01*
X24428890Y-37160565D01*
X25172840Y-37160565D01*
X25239820Y-37400656D01*
X25408439Y-37479945D01*
X25316020Y-37529344D01*
X25249040Y-37769435D01*
X26035000Y-38555395D01*
X26820960Y-37769435D01*
X26753980Y-37529344D01*
X26585361Y-37450055D01*
X26677780Y-37400656D01*
X26744760Y-37160565D01*
X25958800Y-36374605D01*
X25172840Y-37160565D01*
X24428890Y-37160565D01*
X24503920Y-37085535D01*
X24656805Y-36856727D01*
X24686492Y-36785057D01*
X24691164Y-36798023D01*
X24753144Y-36913980D01*
X24993235Y-36980960D01*
X25779195Y-36195000D01*
X24993235Y-35409040D01*
X24753144Y-35476020D01*
X24689315Y-35611760D01*
X24656805Y-35533273D01*
X24503920Y-35304465D01*
X24309335Y-35109880D01*
X24080527Y-34956995D01*
X24041385Y-34940782D01*
X24156727Y-34893005D01*
X24385535Y-34740120D01*
X24580120Y-34545535D01*
X24733005Y-34316727D01*
X24762692Y-34245057D01*
X24767364Y-34258023D01*
X24829344Y-34373980D01*
X25069435Y-34440960D01*
X25855395Y-33655000D01*
X25069435Y-32869040D01*
X24829344Y-32936020D01*
X24765515Y-33071760D01*
X24733005Y-32993273D01*
X24580120Y-32764465D01*
X24385535Y-32569880D01*
X24156727Y-32416995D01*
X24041385Y-32369218D01*
X24080527Y-32353005D01*
X24309335Y-32200120D01*
X24503920Y-32005535D01*
X24656805Y-31776727D01*
X24686492Y-31705057D01*
X24691164Y-31718023D01*
X24753144Y-31833980D01*
X24993235Y-31900960D01*
X25779195Y-31115000D01*
X24993235Y-30329040D01*
X24753144Y-30396020D01*
X24689315Y-30531760D01*
X24656805Y-30453273D01*
X24503920Y-30224465D01*
X24309335Y-30029880D01*
X24080527Y-29876995D01*
X24041385Y-29860782D01*
X24156727Y-29813005D01*
X24385535Y-29660120D01*
X24580120Y-29465535D01*
X24733005Y-29236727D01*
X24762692Y-29165057D01*
X24767364Y-29178023D01*
X24829344Y-29293980D01*
X25069435Y-29360960D01*
X25855395Y-28575000D01*
X25069435Y-27789040D01*
X24829344Y-27856020D01*
X24765515Y-27991760D01*
X24733005Y-27913273D01*
X24580120Y-27684465D01*
X24385535Y-27489880D01*
X24156727Y-27336995D01*
X24079485Y-27305000D01*
X24156727Y-27273005D01*
X24385535Y-27120120D01*
X24580120Y-26925535D01*
X24733005Y-26696727D01*
X24762692Y-26625057D01*
X24767364Y-26638023D01*
X24829344Y-26753980D01*
X25069435Y-26820960D01*
X25855395Y-26035000D01*
X25841253Y-26020858D01*
X26020858Y-25841253D01*
X26035000Y-25855395D01*
X26049143Y-25841253D01*
X26228748Y-26020858D01*
G36*
X57978748Y-23480858D02*
G01*
X57964605Y-23495000D01*
X58750565Y-24280960D01*
X58990656Y-24213980D01*
X59054485Y-24078240D01*
X59086995Y-24156727D01*
X59239880Y-24385535D01*
X59434465Y-24580120D01*
X59663273Y-24733005D01*
X59740515Y-24765000D01*
X59663273Y-24796995D01*
X59434465Y-24949880D01*
X59239880Y-25144465D01*
X59086995Y-25373273D01*
X59057308Y-25444943D01*
X59052636Y-25431977D01*
X58990656Y-25316020D01*
X58750565Y-25249040D01*
X57964605Y-26035000D01*
X58750565Y-26820960D01*
X58990656Y-26753980D01*
X59054485Y-26618240D01*
X59086995Y-26696727D01*
X59239880Y-26925535D01*
X59434465Y-27120120D01*
X59663273Y-27273005D01*
X59740515Y-27305000D01*
X59663273Y-27336995D01*
X59434465Y-27489880D01*
X59239880Y-27684465D01*
X59086995Y-27913273D01*
X59057308Y-27984943D01*
X59052636Y-27971977D01*
X58990656Y-27856020D01*
X58750565Y-27789040D01*
X57964605Y-28575000D01*
X58750565Y-29360960D01*
X58990656Y-29293980D01*
X59054485Y-29158240D01*
X59086995Y-29236727D01*
X59239880Y-29465535D01*
X59434465Y-29660120D01*
X59663273Y-29813005D01*
X59702415Y-29829218D01*
X59587073Y-29876995D01*
X59358265Y-30029880D01*
X59163680Y-30224465D01*
X59010795Y-30453273D01*
X58981108Y-30524943D01*
X58976436Y-30511977D01*
X58914456Y-30396020D01*
X58674365Y-30329040D01*
X57888405Y-31115000D01*
X57902548Y-31129143D01*
X57722943Y-31308748D01*
X57708800Y-31294605D01*
X57694658Y-31308748D01*
X57515053Y-31129143D01*
X57529195Y-31115000D01*
X56743235Y-30329040D01*
X56503144Y-30396020D01*
X56439315Y-30531760D01*
X56406805Y-30453273D01*
X56253920Y-30224465D01*
X56178890Y-30149435D01*
X56922840Y-30149435D01*
X57708800Y-30935395D01*
X58494760Y-30149435D01*
X58427780Y-29909344D01*
X58330215Y-29863466D01*
X58388023Y-29842636D01*
X58503980Y-29780656D01*
X58570960Y-29540565D01*
X57785000Y-28754605D01*
X56999040Y-29540565D01*
X57066020Y-29780656D01*
X57163585Y-29826534D01*
X57105777Y-29847364D01*
X56989820Y-29909344D01*
X56922840Y-30149435D01*
X56178890Y-30149435D01*
X56059335Y-30029880D01*
X55830527Y-29876995D01*
X55791385Y-29860782D01*
X55906727Y-29813005D01*
X56135535Y-29660120D01*
X56330120Y-29465535D01*
X56483005Y-29236727D01*
X56512692Y-29165057D01*
X56517364Y-29178023D01*
X56579344Y-29293980D01*
X56819435Y-29360960D01*
X57605395Y-28575000D01*
X56819435Y-27789040D01*
X56579344Y-27856020D01*
X56515515Y-27991760D01*
X56483005Y-27913273D01*
X56330120Y-27684465D01*
X56135535Y-27489880D01*
X55906727Y-27336995D01*
X55829485Y-27305000D01*
X55906727Y-27273005D01*
X56135535Y-27120120D01*
X56255090Y-27000565D01*
X56999040Y-27000565D01*
X57066020Y-27240656D01*
X57196644Y-27302079D01*
X57181977Y-27307364D01*
X57066020Y-27369344D01*
X56999040Y-27609435D01*
X57785000Y-28395395D01*
X58570960Y-27609435D01*
X58503980Y-27369344D01*
X58373356Y-27307921D01*
X58388023Y-27302636D01*
X58503980Y-27240656D01*
X58570960Y-27000565D01*
X57785000Y-26214605D01*
X56999040Y-27000565D01*
X56255090Y-27000565D01*
X56330120Y-26925535D01*
X56483005Y-26696727D01*
X56512692Y-26625057D01*
X56517364Y-26638023D01*
X56579344Y-26753980D01*
X56819435Y-26820960D01*
X57605395Y-26035000D01*
X56819435Y-25249040D01*
X56579344Y-25316020D01*
X56515515Y-25451760D01*
X56483005Y-25373273D01*
X56330120Y-25144465D01*
X56135535Y-24949880D01*
X55906727Y-24796995D01*
X55829485Y-24765000D01*
X55906727Y-24733005D01*
X56135535Y-24580120D01*
X56255090Y-24460565D01*
X56999040Y-24460565D01*
X57066020Y-24700656D01*
X57196644Y-24762079D01*
X57181977Y-24767364D01*
X57066020Y-24829344D01*
X56999040Y-25069435D01*
X57785000Y-25855395D01*
X58570960Y-25069435D01*
X58503980Y-24829344D01*
X58373356Y-24767921D01*
X58388023Y-24762636D01*
X58503980Y-24700656D01*
X58570960Y-24460565D01*
X57785000Y-23674605D01*
X56999040Y-24460565D01*
X56255090Y-24460565D01*
X56330120Y-24385535D01*
X56483005Y-24156727D01*
X56512692Y-24085057D01*
X56517364Y-24098023D01*
X56579344Y-24213980D01*
X56819435Y-24280960D01*
X57605395Y-23495000D01*
X57591253Y-23480858D01*
X57770858Y-23301253D01*
X57785000Y-23315395D01*
X57799143Y-23301253D01*
X57978748Y-23480858D01*
X57978748Y-23480858D01*
G37*
X57978748Y-23480858D02*
X57964605Y-23495000D01*
X58750565Y-24280960D01*
X58990656Y-24213980D01*
X59054485Y-24078240D01*
X59086995Y-24156727D01*
X59239880Y-24385535D01*
X59434465Y-24580120D01*
X59663273Y-24733005D01*
X59740515Y-24765000D01*
X59663273Y-24796995D01*
X59434465Y-24949880D01*
X59239880Y-25144465D01*
X59086995Y-25373273D01*
X59057308Y-25444943D01*
X59052636Y-25431977D01*
X58990656Y-25316020D01*
X58750565Y-25249040D01*
X57964605Y-26035000D01*
X58750565Y-26820960D01*
X58990656Y-26753980D01*
X59054485Y-26618240D01*
X59086995Y-26696727D01*
X59239880Y-26925535D01*
X59434465Y-27120120D01*
X59663273Y-27273005D01*
X59740515Y-27305000D01*
X59663273Y-27336995D01*
X59434465Y-27489880D01*
X59239880Y-27684465D01*
X59086995Y-27913273D01*
X59057308Y-27984943D01*
X59052636Y-27971977D01*
X58990656Y-27856020D01*
X58750565Y-27789040D01*
X57964605Y-28575000D01*
X58750565Y-29360960D01*
X58990656Y-29293980D01*
X59054485Y-29158240D01*
X59086995Y-29236727D01*
X59239880Y-29465535D01*
X59434465Y-29660120D01*
X59663273Y-29813005D01*
X59702415Y-29829218D01*
X59587073Y-29876995D01*
X59358265Y-30029880D01*
X59163680Y-30224465D01*
X59010795Y-30453273D01*
X58981108Y-30524943D01*
X58976436Y-30511977D01*
X58914456Y-30396020D01*
X58674365Y-30329040D01*
X57888405Y-31115000D01*
X57902548Y-31129143D01*
X57722943Y-31308748D01*
X57708800Y-31294605D01*
X57694658Y-31308748D01*
X57515053Y-31129143D01*
X57529195Y-31115000D01*
X56743235Y-30329040D01*
X56503144Y-30396020D01*
X56439315Y-30531760D01*
X56406805Y-30453273D01*
X56253920Y-30224465D01*
X56178890Y-30149435D01*
X56922840Y-30149435D01*
X57708800Y-30935395D01*
X58494760Y-30149435D01*
X58427780Y-29909344D01*
X58330215Y-29863466D01*
X58388023Y-29842636D01*
X58503980Y-29780656D01*
X58570960Y-29540565D01*
X57785000Y-28754605D01*
X56999040Y-29540565D01*
X57066020Y-29780656D01*
X57163585Y-29826534D01*
X57105777Y-29847364D01*
X56989820Y-29909344D01*
X56922840Y-30149435D01*
X56178890Y-30149435D01*
X56059335Y-30029880D01*
X55830527Y-29876995D01*
X55791385Y-29860782D01*
X55906727Y-29813005D01*
X56135535Y-29660120D01*
X56330120Y-29465535D01*
X56483005Y-29236727D01*
X56512692Y-29165057D01*
X56517364Y-29178023D01*
X56579344Y-29293980D01*
X56819435Y-29360960D01*
X57605395Y-28575000D01*
X56819435Y-27789040D01*
X56579344Y-27856020D01*
X56515515Y-27991760D01*
X56483005Y-27913273D01*
X56330120Y-27684465D01*
X56135535Y-27489880D01*
X55906727Y-27336995D01*
X55829485Y-27305000D01*
X55906727Y-27273005D01*
X56135535Y-27120120D01*
X56255090Y-27000565D01*
X56999040Y-27000565D01*
X57066020Y-27240656D01*
X57196644Y-27302079D01*
X57181977Y-27307364D01*
X57066020Y-27369344D01*
X56999040Y-27609435D01*
X57785000Y-28395395D01*
X58570960Y-27609435D01*
X58503980Y-27369344D01*
X58373356Y-27307921D01*
X58388023Y-27302636D01*
X58503980Y-27240656D01*
X58570960Y-27000565D01*
X57785000Y-26214605D01*
X56999040Y-27000565D01*
X56255090Y-27000565D01*
X56330120Y-26925535D01*
X56483005Y-26696727D01*
X56512692Y-26625057D01*
X56517364Y-26638023D01*
X56579344Y-26753980D01*
X56819435Y-26820960D01*
X57605395Y-26035000D01*
X56819435Y-25249040D01*
X56579344Y-25316020D01*
X56515515Y-25451760D01*
X56483005Y-25373273D01*
X56330120Y-25144465D01*
X56135535Y-24949880D01*
X55906727Y-24796995D01*
X55829485Y-24765000D01*
X55906727Y-24733005D01*
X56135535Y-24580120D01*
X56255090Y-24460565D01*
X56999040Y-24460565D01*
X57066020Y-24700656D01*
X57196644Y-24762079D01*
X57181977Y-24767364D01*
X57066020Y-24829344D01*
X56999040Y-25069435D01*
X57785000Y-25855395D01*
X58570960Y-25069435D01*
X58503980Y-24829344D01*
X58373356Y-24767921D01*
X58388023Y-24762636D01*
X58503980Y-24700656D01*
X58570960Y-24460565D01*
X57785000Y-23674605D01*
X56999040Y-24460565D01*
X56255090Y-24460565D01*
X56330120Y-24385535D01*
X56483005Y-24156727D01*
X56512692Y-24085057D01*
X56517364Y-24098023D01*
X56579344Y-24213980D01*
X56819435Y-24280960D01*
X57605395Y-23495000D01*
X57591253Y-23480858D01*
X57770858Y-23301253D01*
X57785000Y-23315395D01*
X57799143Y-23301253D01*
X57978748Y-23480858D01*
G36*
X26228748Y-13320858D02*
G01*
X26214605Y-13335000D01*
X27000565Y-14120960D01*
X27240656Y-14053980D01*
X27304485Y-13918240D01*
X27336995Y-13996727D01*
X27489880Y-14225535D01*
X27684465Y-14420120D01*
X27913273Y-14573005D01*
X27990515Y-14605000D01*
X27913273Y-14636995D01*
X27684465Y-14789880D01*
X27489880Y-14984465D01*
X27336995Y-15213273D01*
X27307308Y-15284943D01*
X27302636Y-15271977D01*
X27240656Y-15156020D01*
X27000565Y-15089040D01*
X26214605Y-15875000D01*
X27000565Y-16660960D01*
X27240656Y-16593980D01*
X27304485Y-16458240D01*
X27336995Y-16536727D01*
X27489880Y-16765535D01*
X27684465Y-16960120D01*
X27913273Y-17113005D01*
X27990515Y-17145000D01*
X27913273Y-17176995D01*
X27684465Y-17329880D01*
X27489880Y-17524465D01*
X27336995Y-17753273D01*
X27307308Y-17824943D01*
X27302636Y-17811977D01*
X27240656Y-17696020D01*
X27000565Y-17629040D01*
X26214605Y-18415000D01*
X27000565Y-19200960D01*
X27240656Y-19133980D01*
X27304485Y-18998240D01*
X27336995Y-19076727D01*
X27489880Y-19305535D01*
X27684465Y-19500120D01*
X27913273Y-19653005D01*
X27952415Y-19669218D01*
X27837073Y-19716995D01*
X27608265Y-19869880D01*
X27413680Y-20064465D01*
X27260795Y-20293273D01*
X27231108Y-20364943D01*
X27226436Y-20351977D01*
X27164456Y-20236020D01*
X26924365Y-20169040D01*
X26138405Y-20955000D01*
X26924365Y-21740960D01*
X27164456Y-21673980D01*
X27228285Y-21538240D01*
X27260795Y-21616727D01*
X27413680Y-21845535D01*
X27608265Y-22040120D01*
X27837073Y-22193005D01*
X27952415Y-22240782D01*
X27913273Y-22256995D01*
X27684465Y-22409880D01*
X27489880Y-22604465D01*
X27336995Y-22833273D01*
X27307308Y-22904943D01*
X27302636Y-22891977D01*
X27240656Y-22776020D01*
X27000565Y-22709040D01*
X26214605Y-23495000D01*
X26228748Y-23509143D01*
X26049143Y-23688748D01*
X26035000Y-23674605D01*
X26020858Y-23688748D01*
X25841253Y-23509143D01*
X25855395Y-23495000D01*
X25069435Y-22709040D01*
X24829344Y-22776020D01*
X24765515Y-22911760D01*
X24733005Y-22833273D01*
X24580120Y-22604465D01*
X24385535Y-22409880D01*
X24156727Y-22256995D01*
X24041385Y-22209218D01*
X24080527Y-22193005D01*
X24309335Y-22040120D01*
X24428890Y-21920565D01*
X25172840Y-21920565D01*
X25239820Y-22160656D01*
X25408439Y-22239945D01*
X25316020Y-22289344D01*
X25249040Y-22529435D01*
X26035000Y-23315395D01*
X26820960Y-22529435D01*
X26753980Y-22289344D01*
X26585361Y-22210055D01*
X26677780Y-22160656D01*
X26744760Y-21920565D01*
X25958800Y-21134605D01*
X25172840Y-21920565D01*
X24428890Y-21920565D01*
X24503920Y-21845535D01*
X24656805Y-21616727D01*
X24686492Y-21545057D01*
X24691164Y-21558023D01*
X24753144Y-21673980D01*
X24993235Y-21740960D01*
X25779195Y-20955000D01*
X24993235Y-20169040D01*
X24753144Y-20236020D01*
X24689315Y-20371760D01*
X24656805Y-20293273D01*
X24503920Y-20064465D01*
X24428890Y-19989435D01*
X25172840Y-19989435D01*
X25958800Y-20775395D01*
X26744760Y-19989435D01*
X26677780Y-19749344D01*
X26580215Y-19703466D01*
X26638023Y-19682636D01*
X26753980Y-19620656D01*
X26820960Y-19380565D01*
X26035000Y-18594605D01*
X25249040Y-19380565D01*
X25316020Y-19620656D01*
X25413585Y-19666534D01*
X25355777Y-19687364D01*
X25239820Y-19749344D01*
X25172840Y-19989435D01*
X24428890Y-19989435D01*
X24309335Y-19869880D01*
X24080527Y-19716995D01*
X24041385Y-19700782D01*
X24156727Y-19653005D01*
X24385535Y-19500120D01*
X24580120Y-19305535D01*
X24733005Y-19076727D01*
X24762692Y-19005057D01*
X24767364Y-19018023D01*
X24829344Y-19133980D01*
X25069435Y-19200960D01*
X25855395Y-18415000D01*
X25069435Y-17629040D01*
X24829344Y-17696020D01*
X24765515Y-17831760D01*
X24733005Y-17753273D01*
X24580120Y-17524465D01*
X24385535Y-17329880D01*
X24156727Y-17176995D01*
X24079485Y-17145000D01*
X24156727Y-17113005D01*
X24385535Y-16960120D01*
X24505090Y-16840565D01*
X25249040Y-16840565D01*
X25316020Y-17080656D01*
X25446644Y-17142079D01*
X25431977Y-17147364D01*
X25316020Y-17209344D01*
X25249040Y-17449435D01*
X26035000Y-18235395D01*
X26820960Y-17449435D01*
X26753980Y-17209344D01*
X26623356Y-17147921D01*
X26638023Y-17142636D01*
X26753980Y-17080656D01*
X26820960Y-16840565D01*
X26035000Y-16054605D01*
X25249040Y-16840565D01*
X24505090Y-16840565D01*
X24580120Y-16765535D01*
X24733005Y-16536727D01*
X24762692Y-16465057D01*
X24767364Y-16478023D01*
X24829344Y-16593980D01*
X25069435Y-16660960D01*
X25855395Y-15875000D01*
X25069435Y-15089040D01*
X24829344Y-15156020D01*
X24765515Y-15291760D01*
X24733005Y-15213273D01*
X24580120Y-14984465D01*
X24385535Y-14789880D01*
X24156727Y-14636995D01*
X24079485Y-14605000D01*
X24156727Y-14573005D01*
X24385535Y-14420120D01*
X24505090Y-14300565D01*
X25249040Y-14300565D01*
X25316020Y-14540656D01*
X25446644Y-14602079D01*
X25431977Y-14607364D01*
X25316020Y-14669344D01*
X25249040Y-14909435D01*
X26035000Y-15695395D01*
X26820960Y-14909435D01*
X26753980Y-14669344D01*
X26623356Y-14607921D01*
X26638023Y-14602636D01*
X26753980Y-14540656D01*
X26820960Y-14300565D01*
X26035000Y-13514605D01*
X25249040Y-14300565D01*
X24505090Y-14300565D01*
X24580120Y-14225535D01*
X24733005Y-13996727D01*
X24762692Y-13925057D01*
X24767364Y-13938023D01*
X24829344Y-14053980D01*
X25069435Y-14120960D01*
X25855395Y-13335000D01*
X25841253Y-13320858D01*
X26020858Y-13141253D01*
X26035000Y-13155395D01*
X26049143Y-13141253D01*
X26228748Y-13320858D01*
X26228748Y-13320858D01*
G37*
X26228748Y-13320858D02*
X26214605Y-13335000D01*
X27000565Y-14120960D01*
X27240656Y-14053980D01*
X27304485Y-13918240D01*
X27336995Y-13996727D01*
X27489880Y-14225535D01*
X27684465Y-14420120D01*
X27913273Y-14573005D01*
X27990515Y-14605000D01*
X27913273Y-14636995D01*
X27684465Y-14789880D01*
X27489880Y-14984465D01*
X27336995Y-15213273D01*
X27307308Y-15284943D01*
X27302636Y-15271977D01*
X27240656Y-15156020D01*
X27000565Y-15089040D01*
X26214605Y-15875000D01*
X27000565Y-16660960D01*
X27240656Y-16593980D01*
X27304485Y-16458240D01*
X27336995Y-16536727D01*
X27489880Y-16765535D01*
X27684465Y-16960120D01*
X27913273Y-17113005D01*
X27990515Y-17145000D01*
X27913273Y-17176995D01*
X27684465Y-17329880D01*
X27489880Y-17524465D01*
X27336995Y-17753273D01*
X27307308Y-17824943D01*
X27302636Y-17811977D01*
X27240656Y-17696020D01*
X27000565Y-17629040D01*
X26214605Y-18415000D01*
X27000565Y-19200960D01*
X27240656Y-19133980D01*
X27304485Y-18998240D01*
X27336995Y-19076727D01*
X27489880Y-19305535D01*
X27684465Y-19500120D01*
X27913273Y-19653005D01*
X27952415Y-19669218D01*
X27837073Y-19716995D01*
X27608265Y-19869880D01*
X27413680Y-20064465D01*
X27260795Y-20293273D01*
X27231108Y-20364943D01*
X27226436Y-20351977D01*
X27164456Y-20236020D01*
X26924365Y-20169040D01*
X26138405Y-20955000D01*
X26924365Y-21740960D01*
X27164456Y-21673980D01*
X27228285Y-21538240D01*
X27260795Y-21616727D01*
X27413680Y-21845535D01*
X27608265Y-22040120D01*
X27837073Y-22193005D01*
X27952415Y-22240782D01*
X27913273Y-22256995D01*
X27684465Y-22409880D01*
X27489880Y-22604465D01*
X27336995Y-22833273D01*
X27307308Y-22904943D01*
X27302636Y-22891977D01*
X27240656Y-22776020D01*
X27000565Y-22709040D01*
X26214605Y-23495000D01*
X26228748Y-23509143D01*
X26049143Y-23688748D01*
X26035000Y-23674605D01*
X26020858Y-23688748D01*
X25841253Y-23509143D01*
X25855395Y-23495000D01*
X25069435Y-22709040D01*
X24829344Y-22776020D01*
X24765515Y-22911760D01*
X24733005Y-22833273D01*
X24580120Y-22604465D01*
X24385535Y-22409880D01*
X24156727Y-22256995D01*
X24041385Y-22209218D01*
X24080527Y-22193005D01*
X24309335Y-22040120D01*
X24428890Y-21920565D01*
X25172840Y-21920565D01*
X25239820Y-22160656D01*
X25408439Y-22239945D01*
X25316020Y-22289344D01*
X25249040Y-22529435D01*
X26035000Y-23315395D01*
X26820960Y-22529435D01*
X26753980Y-22289344D01*
X26585361Y-22210055D01*
X26677780Y-22160656D01*
X26744760Y-21920565D01*
X25958800Y-21134605D01*
X25172840Y-21920565D01*
X24428890Y-21920565D01*
X24503920Y-21845535D01*
X24656805Y-21616727D01*
X24686492Y-21545057D01*
X24691164Y-21558023D01*
X24753144Y-21673980D01*
X24993235Y-21740960D01*
X25779195Y-20955000D01*
X24993235Y-20169040D01*
X24753144Y-20236020D01*
X24689315Y-20371760D01*
X24656805Y-20293273D01*
X24503920Y-20064465D01*
X24428890Y-19989435D01*
X25172840Y-19989435D01*
X25958800Y-20775395D01*
X26744760Y-19989435D01*
X26677780Y-19749344D01*
X26580215Y-19703466D01*
X26638023Y-19682636D01*
X26753980Y-19620656D01*
X26820960Y-19380565D01*
X26035000Y-18594605D01*
X25249040Y-19380565D01*
X25316020Y-19620656D01*
X25413585Y-19666534D01*
X25355777Y-19687364D01*
X25239820Y-19749344D01*
X25172840Y-19989435D01*
X24428890Y-19989435D01*
X24309335Y-19869880D01*
X24080527Y-19716995D01*
X24041385Y-19700782D01*
X24156727Y-19653005D01*
X24385535Y-19500120D01*
X24580120Y-19305535D01*
X24733005Y-19076727D01*
X24762692Y-19005057D01*
X24767364Y-19018023D01*
X24829344Y-19133980D01*
X25069435Y-19200960D01*
X25855395Y-18415000D01*
X25069435Y-17629040D01*
X24829344Y-17696020D01*
X24765515Y-17831760D01*
X24733005Y-17753273D01*
X24580120Y-17524465D01*
X24385535Y-17329880D01*
X24156727Y-17176995D01*
X24079485Y-17145000D01*
X24156727Y-17113005D01*
X24385535Y-16960120D01*
X24505090Y-16840565D01*
X25249040Y-16840565D01*
X25316020Y-17080656D01*
X25446644Y-17142079D01*
X25431977Y-17147364D01*
X25316020Y-17209344D01*
X25249040Y-17449435D01*
X26035000Y-18235395D01*
X26820960Y-17449435D01*
X26753980Y-17209344D01*
X26623356Y-17147921D01*
X26638023Y-17142636D01*
X26753980Y-17080656D01*
X26820960Y-16840565D01*
X26035000Y-16054605D01*
X25249040Y-16840565D01*
X24505090Y-16840565D01*
X24580120Y-16765535D01*
X24733005Y-16536727D01*
X24762692Y-16465057D01*
X24767364Y-16478023D01*
X24829344Y-16593980D01*
X25069435Y-16660960D01*
X25855395Y-15875000D01*
X25069435Y-15089040D01*
X24829344Y-15156020D01*
X24765515Y-15291760D01*
X24733005Y-15213273D01*
X24580120Y-14984465D01*
X24385535Y-14789880D01*
X24156727Y-14636995D01*
X24079485Y-14605000D01*
X24156727Y-14573005D01*
X24385535Y-14420120D01*
X24505090Y-14300565D01*
X25249040Y-14300565D01*
X25316020Y-14540656D01*
X25446644Y-14602079D01*
X25431977Y-14607364D01*
X25316020Y-14669344D01*
X25249040Y-14909435D01*
X26035000Y-15695395D01*
X26820960Y-14909435D01*
X26753980Y-14669344D01*
X26623356Y-14607921D01*
X26638023Y-14602636D01*
X26753980Y-14540656D01*
X26820960Y-14300565D01*
X26035000Y-13514605D01*
X25249040Y-14300565D01*
X24505090Y-14300565D01*
X24580120Y-14225535D01*
X24733005Y-13996727D01*
X24762692Y-13925057D01*
X24767364Y-13938023D01*
X24829344Y-14053980D01*
X25069435Y-14120960D01*
X25855395Y-13335000D01*
X25841253Y-13320858D01*
X26020858Y-13141253D01*
X26035000Y-13155395D01*
X26049143Y-13141253D01*
X26228748Y-13320858D01*
G36*
X57902548Y-20940858D02*
G01*
X57888405Y-20955000D01*
X57902548Y-20969143D01*
X57722943Y-21148748D01*
X57708800Y-21134605D01*
X57694658Y-21148748D01*
X57515053Y-20969143D01*
X57529195Y-20955000D01*
X57515053Y-20940858D01*
X57694658Y-20761253D01*
X57708800Y-20775395D01*
X57722943Y-20761253D01*
X57902548Y-20940858D01*
X57902548Y-20940858D01*
G37*
X57902548Y-20940858D02*
X57888405Y-20955000D01*
X57902548Y-20969143D01*
X57722943Y-21148748D01*
X57708800Y-21134605D01*
X57694658Y-21148748D01*
X57515053Y-20969143D01*
X57529195Y-20955000D01*
X57515053Y-20940858D01*
X57694658Y-20761253D01*
X57708800Y-20775395D01*
X57722943Y-20761253D01*
X57902548Y-20940858D01*
G36*
X57978748Y-13320858D02*
G01*
X57964605Y-13335000D01*
X58750565Y-14120960D01*
X58990656Y-14053980D01*
X59054485Y-13918240D01*
X59086995Y-13996727D01*
X59239880Y-14225535D01*
X59434465Y-14420120D01*
X59663273Y-14573005D01*
X59740515Y-14605000D01*
X59663273Y-14636995D01*
X59434465Y-14789880D01*
X59239880Y-14984465D01*
X59086995Y-15213273D01*
X59057308Y-15284943D01*
X59052636Y-15271977D01*
X58990656Y-15156020D01*
X58750565Y-15089040D01*
X57964605Y-15875000D01*
X58750565Y-16660960D01*
X58990656Y-16593980D01*
X59054485Y-16458240D01*
X59086995Y-16536727D01*
X59239880Y-16765535D01*
X59434465Y-16960120D01*
X59663273Y-17113005D01*
X59740515Y-17145000D01*
X59663273Y-17176995D01*
X59434465Y-17329880D01*
X59239880Y-17524465D01*
X59086995Y-17753273D01*
X59057308Y-17824943D01*
X59052636Y-17811977D01*
X58990656Y-17696020D01*
X58750565Y-17629040D01*
X57964605Y-18415000D01*
X57978748Y-18429143D01*
X57799143Y-18608748D01*
X57785000Y-18594605D01*
X57770858Y-18608748D01*
X57591253Y-18429143D01*
X57605395Y-18415000D01*
X56819435Y-17629040D01*
X56579344Y-17696020D01*
X56515515Y-17831760D01*
X56483005Y-17753273D01*
X56330120Y-17524465D01*
X56135535Y-17329880D01*
X55906727Y-17176995D01*
X55829485Y-17145000D01*
X55906727Y-17113005D01*
X56135535Y-16960120D01*
X56255090Y-16840565D01*
X56999040Y-16840565D01*
X57066020Y-17080656D01*
X57196644Y-17142079D01*
X57181977Y-17147364D01*
X57066020Y-17209344D01*
X56999040Y-17449435D01*
X57785000Y-18235395D01*
X58570960Y-17449435D01*
X58503980Y-17209344D01*
X58373356Y-17147921D01*
X58388023Y-17142636D01*
X58503980Y-17080656D01*
X58570960Y-16840565D01*
X57785000Y-16054605D01*
X56999040Y-16840565D01*
X56255090Y-16840565D01*
X56330120Y-16765535D01*
X56483005Y-16536727D01*
X56512692Y-16465057D01*
X56517364Y-16478023D01*
X56579344Y-16593980D01*
X56819435Y-16660960D01*
X57605395Y-15875000D01*
X56819435Y-15089040D01*
X56579344Y-15156020D01*
X56515515Y-15291760D01*
X56483005Y-15213273D01*
X56330120Y-14984465D01*
X56135535Y-14789880D01*
X55906727Y-14636995D01*
X55829485Y-14605000D01*
X55906727Y-14573005D01*
X56135535Y-14420120D01*
X56255090Y-14300565D01*
X56999040Y-14300565D01*
X57066020Y-14540656D01*
X57196644Y-14602079D01*
X57181977Y-14607364D01*
X57066020Y-14669344D01*
X56999040Y-14909435D01*
X57785000Y-15695395D01*
X58570960Y-14909435D01*
X58503980Y-14669344D01*
X58373356Y-14607921D01*
X58388023Y-14602636D01*
X58503980Y-14540656D01*
X58570960Y-14300565D01*
X57785000Y-13514605D01*
X56999040Y-14300565D01*
X56255090Y-14300565D01*
X56330120Y-14225535D01*
X56483005Y-13996727D01*
X56512692Y-13925057D01*
X56517364Y-13938023D01*
X56579344Y-14053980D01*
X56819435Y-14120960D01*
X57605395Y-13335000D01*
X57591253Y-13320858D01*
X57770858Y-13141253D01*
X57785000Y-13155395D01*
X57799143Y-13141253D01*
X57978748Y-13320858D01*
X57978748Y-13320858D01*
G37*
X57978748Y-13320858D02*
X57964605Y-13335000D01*
X58750565Y-14120960D01*
X58990656Y-14053980D01*
X59054485Y-13918240D01*
X59086995Y-13996727D01*
X59239880Y-14225535D01*
X59434465Y-14420120D01*
X59663273Y-14573005D01*
X59740515Y-14605000D01*
X59663273Y-14636995D01*
X59434465Y-14789880D01*
X59239880Y-14984465D01*
X59086995Y-15213273D01*
X59057308Y-15284943D01*
X59052636Y-15271977D01*
X58990656Y-15156020D01*
X58750565Y-15089040D01*
X57964605Y-15875000D01*
X58750565Y-16660960D01*
X58990656Y-16593980D01*
X59054485Y-16458240D01*
X59086995Y-16536727D01*
X59239880Y-16765535D01*
X59434465Y-16960120D01*
X59663273Y-17113005D01*
X59740515Y-17145000D01*
X59663273Y-17176995D01*
X59434465Y-17329880D01*
X59239880Y-17524465D01*
X59086995Y-17753273D01*
X59057308Y-17824943D01*
X59052636Y-17811977D01*
X58990656Y-17696020D01*
X58750565Y-17629040D01*
X57964605Y-18415000D01*
X57978748Y-18429143D01*
X57799143Y-18608748D01*
X57785000Y-18594605D01*
X57770858Y-18608748D01*
X57591253Y-18429143D01*
X57605395Y-18415000D01*
X56819435Y-17629040D01*
X56579344Y-17696020D01*
X56515515Y-17831760D01*
X56483005Y-17753273D01*
X56330120Y-17524465D01*
X56135535Y-17329880D01*
X55906727Y-17176995D01*
X55829485Y-17145000D01*
X55906727Y-17113005D01*
X56135535Y-16960120D01*
X56255090Y-16840565D01*
X56999040Y-16840565D01*
X57066020Y-17080656D01*
X57196644Y-17142079D01*
X57181977Y-17147364D01*
X57066020Y-17209344D01*
X56999040Y-17449435D01*
X57785000Y-18235395D01*
X58570960Y-17449435D01*
X58503980Y-17209344D01*
X58373356Y-17147921D01*
X58388023Y-17142636D01*
X58503980Y-17080656D01*
X58570960Y-16840565D01*
X57785000Y-16054605D01*
X56999040Y-16840565D01*
X56255090Y-16840565D01*
X56330120Y-16765535D01*
X56483005Y-16536727D01*
X56512692Y-16465057D01*
X56517364Y-16478023D01*
X56579344Y-16593980D01*
X56819435Y-16660960D01*
X57605395Y-15875000D01*
X56819435Y-15089040D01*
X56579344Y-15156020D01*
X56515515Y-15291760D01*
X56483005Y-15213273D01*
X56330120Y-14984465D01*
X56135535Y-14789880D01*
X55906727Y-14636995D01*
X55829485Y-14605000D01*
X55906727Y-14573005D01*
X56135535Y-14420120D01*
X56255090Y-14300565D01*
X56999040Y-14300565D01*
X57066020Y-14540656D01*
X57196644Y-14602079D01*
X57181977Y-14607364D01*
X57066020Y-14669344D01*
X56999040Y-14909435D01*
X57785000Y-15695395D01*
X58570960Y-14909435D01*
X58503980Y-14669344D01*
X58373356Y-14607921D01*
X58388023Y-14602636D01*
X58503980Y-14540656D01*
X58570960Y-14300565D01*
X57785000Y-13514605D01*
X56999040Y-14300565D01*
X56255090Y-14300565D01*
X56330120Y-14225535D01*
X56483005Y-13996727D01*
X56512692Y-13925057D01*
X56517364Y-13938023D01*
X56579344Y-14053980D01*
X56819435Y-14120960D01*
X57605395Y-13335000D01*
X57591253Y-13320858D01*
X57770858Y-13141253D01*
X57785000Y-13155395D01*
X57799143Y-13141253D01*
X57978748Y-13320858D01*
M02*
