G04 #@! TF.GenerationSoftware,KiCad,Pcbnew,(5.1.0)-1*
G04 #@! TF.CreationDate,2019-09-22T18:07:31+02:00*
G04 #@! TF.ProjectId,Arduino_HM_1,41726475-696e-46f5-9f48-4d5f312e6b69,rev?*
G04 #@! TF.SameCoordinates,Original*
G04 #@! TF.FileFunction,Copper,L1,Top*
G04 #@! TF.FilePolarity,Positive*
%FSLAX46Y46*%
G04 Gerber Fmt 4.6, Leading zero omitted, Abs format (unit mm)*
G04 Created by KiCad (PCBNEW (5.1.0)-1) date 2019-09-22 18:07:31*
%MOMM*%
%LPD*%
G04 APERTURE LIST*
%ADD10C,1.000000*%
%ADD11C,1.500000*%
%ADD12C,2.000000*%
%ADD13C,1.524000*%
%ADD14C,1.980000*%
%ADD15C,1.935000*%
%ADD16R,1.980000X1.980000*%
%ADD17O,1.600000X1.600000*%
%ADD18R,1.600000X1.600000*%
%ADD19C,0.800000*%
%ADD20C,0.250000*%
%ADD21C,1.500000*%
%ADD22C,0.254000*%
G04 APERTURE END LIST*
D10*
X50625000Y-65675000D03*
D11*
X50636600Y-63152400D03*
D10*
X50645000Y-60615000D03*
X33263000Y-69277000D03*
X33263000Y-67245000D03*
X33263000Y-65213000D03*
X33263000Y-63181000D03*
X33263000Y-61149000D03*
X33263000Y-59117000D03*
X33263000Y-57085000D03*
X33263000Y-55053000D03*
D12*
X17780000Y-19685000D03*
X17780000Y-24765000D03*
X17780000Y-29845000D03*
X66040000Y-19685000D03*
X66040000Y-24765000D03*
X66040000Y-29845000D03*
X17780000Y-43180000D03*
X17780000Y-38100000D03*
X17780000Y-33020000D03*
X66040000Y-33020000D03*
X66040000Y-38100000D03*
X66040000Y-43180000D03*
D13*
X60325000Y-43815000D03*
X60248800Y-41275000D03*
X60325000Y-38735000D03*
X60325000Y-33655000D03*
X60248800Y-36195000D03*
X60325000Y-23495000D03*
X60325000Y-26035000D03*
X60248800Y-31115000D03*
X60325000Y-28575000D03*
X60248800Y-20955000D03*
X60325000Y-18415000D03*
X60325000Y-15875000D03*
X60325000Y-13335000D03*
X55245000Y-43815000D03*
X55168800Y-41275000D03*
X55245000Y-38735000D03*
X55245000Y-33655000D03*
X55168800Y-36195000D03*
X55245000Y-23495000D03*
X55245000Y-26035000D03*
X55168800Y-31115000D03*
X55245000Y-28575000D03*
X55168800Y-20955000D03*
X55245000Y-18415000D03*
X55245000Y-15875000D03*
X55245000Y-13335000D03*
D14*
X18130000Y-49145000D03*
X30130000Y-49145000D03*
X30130000Y-61345000D03*
D15*
X24130000Y-63345000D03*
D16*
X18130000Y-61345000D03*
D13*
X20955000Y-43815000D03*
X20878800Y-41275000D03*
X20955000Y-38735000D03*
X20955000Y-33655000D03*
X20878800Y-36195000D03*
X20955000Y-23495000D03*
X20955000Y-26035000D03*
X20878800Y-31115000D03*
X20955000Y-28575000D03*
X20878800Y-20955000D03*
X20955000Y-18415000D03*
X20955000Y-15875000D03*
X20955000Y-13335000D03*
X62865000Y-43815000D03*
X62788800Y-41275000D03*
X62865000Y-38735000D03*
X62865000Y-33655000D03*
X62788800Y-36195000D03*
X62865000Y-23495000D03*
X62865000Y-26035000D03*
X62788800Y-31115000D03*
X62865000Y-28575000D03*
X62788800Y-20955000D03*
X62865000Y-18415000D03*
X62865000Y-15875000D03*
X62865000Y-13335000D03*
X57785000Y-43815000D03*
X57708800Y-41275000D03*
X57785000Y-38735000D03*
X57785000Y-33655000D03*
X57708800Y-36195000D03*
X57785000Y-23495000D03*
X57785000Y-26035000D03*
X57708800Y-31115000D03*
X57785000Y-28575000D03*
X57708800Y-20955000D03*
X57785000Y-18415000D03*
X57785000Y-15875000D03*
X57785000Y-13335000D03*
X23495000Y-43815000D03*
X23418800Y-41275000D03*
X23495000Y-38735000D03*
X23495000Y-33655000D03*
X23418800Y-36195000D03*
X23495000Y-23495000D03*
X23495000Y-26035000D03*
X23418800Y-31115000D03*
X23495000Y-28575000D03*
X23418800Y-20955000D03*
X23495000Y-18415000D03*
X23495000Y-15875000D03*
X23495000Y-13335000D03*
X28575000Y-43815000D03*
X28498800Y-41275000D03*
X28575000Y-38735000D03*
X28575000Y-33655000D03*
X28498800Y-36195000D03*
X28575000Y-23495000D03*
X28575000Y-26035000D03*
X28498800Y-31115000D03*
X28575000Y-28575000D03*
X28498800Y-20955000D03*
X28575000Y-18415000D03*
X28575000Y-15875000D03*
X28575000Y-13335000D03*
X26035000Y-43815000D03*
X25958800Y-41275000D03*
X26035000Y-38735000D03*
X26035000Y-33655000D03*
X25958800Y-36195000D03*
X26035000Y-23495000D03*
X26035000Y-26035000D03*
X25958800Y-31115000D03*
X26035000Y-28575000D03*
X25958800Y-20955000D03*
X26035000Y-18415000D03*
X26035000Y-15875000D03*
X26035000Y-13335000D03*
X52705000Y-13335000D03*
X52781200Y-15875000D03*
X52705000Y-18415000D03*
X52705000Y-23495000D03*
X52781200Y-20955000D03*
X52705000Y-33655000D03*
X52705000Y-31115000D03*
X52781200Y-26035000D03*
X52705000Y-28575000D03*
X52781200Y-36195000D03*
X52705000Y-38735000D03*
X52705000Y-41275000D03*
X52705000Y-43815000D03*
X31115000Y-43815000D03*
X31038800Y-41275000D03*
X31115000Y-38735000D03*
X31115000Y-33655000D03*
X31038800Y-36195000D03*
X31115000Y-23495000D03*
X31115000Y-26035000D03*
X31038800Y-31115000D03*
X31115000Y-28575000D03*
X31038800Y-20955000D03*
X31115000Y-18415000D03*
X31115000Y-15875000D03*
X31115000Y-13335000D03*
D14*
X54960000Y-49145000D03*
X66960000Y-49145000D03*
X66960000Y-61345000D03*
D15*
X60960000Y-63345000D03*
D16*
X54960000Y-61345000D03*
D17*
X49530000Y-52070000D03*
X34290000Y-52070000D03*
X49530000Y-16510000D03*
X34290000Y-49530000D03*
X49530000Y-19050000D03*
X34290000Y-46990000D03*
X49530000Y-21590000D03*
X34290000Y-44450000D03*
X49530000Y-24130000D03*
X34290000Y-41910000D03*
X49530000Y-26670000D03*
X34290000Y-39370000D03*
X49530000Y-29210000D03*
X34290000Y-36830000D03*
X49530000Y-31750000D03*
X34290000Y-34290000D03*
X49530000Y-34290000D03*
X34290000Y-31750000D03*
X49530000Y-36830000D03*
X34290000Y-29210000D03*
X49530000Y-39370000D03*
X34290000Y-26670000D03*
X49530000Y-41910000D03*
X34290000Y-24130000D03*
X49530000Y-44450000D03*
X34290000Y-21590000D03*
X49530000Y-46990000D03*
X34290000Y-19050000D03*
X49530000Y-49530000D03*
D18*
X34290000Y-16510000D03*
D19*
X40640000Y-64135000D03*
X42545000Y-25400000D03*
X29364200Y-34816000D03*
D20*
X49530000Y-52070000D02*
X49530000Y-50944700D01*
X49530000Y-50944700D02*
X49811300Y-50944700D01*
X49811300Y-50944700D02*
X50662200Y-50093800D01*
X50662200Y-50093800D02*
X50662200Y-49059700D01*
X50662200Y-49059700D02*
X50007100Y-48404600D01*
X50007100Y-48404600D02*
X41317000Y-48404600D01*
X41317000Y-48404600D02*
X38632400Y-45720000D01*
X38632400Y-45720000D02*
X33913400Y-45720000D01*
X33913400Y-45720000D02*
X32990000Y-44796600D01*
X32990000Y-44796600D02*
X32990000Y-43226200D01*
X32990000Y-43226200D02*
X31038800Y-41275000D01*
X49080000Y-52070000D02*
X49530000Y-52070000D01*
X49080000Y-52070000D02*
X48404700Y-52070000D01*
X48404700Y-52070000D02*
X39325700Y-61149000D01*
X39325700Y-61149000D02*
X33263000Y-61149000D01*
X34290000Y-49530000D02*
X34290000Y-50655300D01*
X34290000Y-50655300D02*
X34008700Y-50655300D01*
X34008700Y-50655300D02*
X32415300Y-52248700D01*
X32415300Y-52248700D02*
X32415300Y-58269300D01*
X32415300Y-58269300D02*
X33263000Y-59117000D01*
X57785000Y-18415000D02*
X59055000Y-19685000D01*
X59055000Y-19685000D02*
X66040000Y-19685000D01*
X56697600Y-19502400D02*
X57785000Y-18415000D01*
X50655300Y-19050000D02*
X51107700Y-19502400D01*
X51107700Y-19502400D02*
X56697600Y-19502400D01*
X56697600Y-19502400D02*
X56697600Y-19943800D01*
X56697600Y-19943800D02*
X57708800Y-20955000D01*
X49530000Y-19050000D02*
X50655300Y-19050000D01*
X35415300Y-24130000D02*
X40495300Y-19050000D01*
X40495300Y-19050000D02*
X49530000Y-19050000D01*
X27249400Y-42600600D02*
X26035000Y-43815000D01*
X25958800Y-41275000D02*
X27249400Y-42565600D01*
X27249400Y-42565600D02*
X27249400Y-42600600D01*
X31115000Y-43815000D02*
X29900600Y-42600600D01*
X29900600Y-42600600D02*
X27249400Y-42600600D01*
X57785000Y-43815000D02*
X53624900Y-47975100D01*
X53624900Y-47975100D02*
X53624900Y-49693200D01*
X53624900Y-49693200D02*
X65276700Y-61345000D01*
X65276700Y-61345000D02*
X66960000Y-61345000D01*
X34290000Y-24130000D02*
X35415300Y-24130000D01*
X57708800Y-31115000D02*
X57785000Y-31191200D01*
X57785000Y-31191200D02*
X57785000Y-33655000D01*
X25958800Y-20955000D02*
X24688800Y-19685000D01*
X24688800Y-19685000D02*
X17780000Y-19685000D01*
X26035000Y-38735000D02*
X25958800Y-38811200D01*
X25958800Y-38811200D02*
X25958800Y-41275000D01*
X26897100Y-24596100D02*
X26897100Y-24357100D01*
X26897100Y-24357100D02*
X26035000Y-23495000D01*
X26035000Y-26035000D02*
X26897100Y-25172900D01*
X26897100Y-25172900D02*
X26897100Y-24596100D01*
X33164700Y-24130000D02*
X32698600Y-24596100D01*
X32698600Y-24596100D02*
X26897100Y-24596100D01*
X34290000Y-24130000D02*
X33164700Y-24130000D01*
X30130000Y-62745071D02*
X30130000Y-61345000D01*
X34290000Y-46990000D02*
X34290000Y-48115300D01*
X34290000Y-48115300D02*
X34008700Y-48115300D01*
X34008700Y-48115300D02*
X31964900Y-50159100D01*
X31964900Y-50159100D02*
X31964900Y-67978900D01*
X31964900Y-67978900D02*
X33263000Y-69277000D01*
X49530000Y-49530000D02*
X38786000Y-49530000D01*
X38786000Y-49530000D02*
X33263000Y-55053000D01*
X49530000Y-21590000D02*
X50655300Y-21590000D01*
X50655300Y-21590000D02*
X52560300Y-23495000D01*
X52560300Y-23495000D02*
X52705000Y-23495000D01*
X34290000Y-44450000D02*
X34290000Y-43324700D01*
X34290000Y-43324700D02*
X34571300Y-43324700D01*
X34571300Y-43324700D02*
X35465500Y-42430500D01*
X35465500Y-42430500D02*
X35465500Y-33873300D01*
X35465500Y-33873300D02*
X34756800Y-33164600D01*
X34756800Y-33164600D02*
X33088400Y-33164600D01*
X33088400Y-33164600D02*
X31038800Y-31115000D01*
X62788800Y-20955000D02*
X62788800Y-23418800D01*
X62788800Y-23418800D02*
X62865000Y-23495000D01*
X64135000Y-24765000D02*
X62865000Y-26035000D01*
X66040000Y-24765000D02*
X64135000Y-24765000D01*
X62865000Y-23495000D02*
X64135000Y-24765000D01*
X49530000Y-26670000D02*
X52146200Y-26670000D01*
X52146200Y-26670000D02*
X52781200Y-26035000D01*
X49530000Y-29210000D02*
X50655300Y-29210000D01*
X50655300Y-29210000D02*
X51290300Y-28575000D01*
X51290300Y-28575000D02*
X52705000Y-28575000D01*
X49530000Y-31750000D02*
X52070000Y-31750000D01*
X52070000Y-31750000D02*
X52705000Y-31115000D01*
X34290000Y-34290000D02*
X33164700Y-34290000D01*
X33164700Y-34290000D02*
X32638700Y-34816000D01*
X32638700Y-34816000D02*
X29364200Y-34816000D01*
X49530000Y-34290000D02*
X52070000Y-34290000D01*
X52070000Y-34290000D02*
X52705000Y-33655000D01*
X49530000Y-36830000D02*
X52146200Y-36830000D01*
X52146200Y-36830000D02*
X52781200Y-36195000D01*
X49530000Y-39370000D02*
X52070000Y-39370000D01*
X52070000Y-39370000D02*
X52705000Y-38735000D01*
X49530000Y-41910000D02*
X52070000Y-41910000D01*
X52070000Y-41910000D02*
X52705000Y-41275000D01*
X49530000Y-44450000D02*
X52070000Y-44450000D01*
X52070000Y-44450000D02*
X52705000Y-43815000D01*
X34290000Y-16510000D02*
X31750000Y-16510000D01*
X31750000Y-16510000D02*
X31115000Y-15875000D01*
X34290000Y-21590000D02*
X35415300Y-21590000D01*
X35415300Y-21590000D02*
X39081300Y-17924000D01*
X39081300Y-17924000D02*
X52214000Y-17924000D01*
X52214000Y-17924000D02*
X52705000Y-18415000D01*
X28575000Y-43815000D02*
X27460300Y-44929700D01*
X27460300Y-44929700D02*
X24609700Y-44929700D01*
X24609700Y-44929700D02*
X23495000Y-43815000D01*
X23495000Y-33655000D02*
X24585000Y-34745000D01*
X24585000Y-34745000D02*
X27485000Y-34745000D01*
X27485000Y-34745000D02*
X28575000Y-33655000D01*
X28498800Y-36195000D02*
X27394500Y-37299300D01*
X27394500Y-37299300D02*
X24523100Y-37299300D01*
X24523100Y-37299300D02*
X23418800Y-36195000D01*
X28575000Y-26035000D02*
X27476000Y-27134000D01*
X27476000Y-27134000D02*
X24594000Y-27134000D01*
X24594000Y-27134000D02*
X23495000Y-26035000D01*
X23418800Y-31115000D02*
X22148800Y-29845000D01*
X22148800Y-29845000D02*
X17780000Y-29845000D01*
X23418800Y-31115000D02*
X24512500Y-32208700D01*
X24512500Y-32208700D02*
X27405100Y-32208700D01*
X27405100Y-32208700D02*
X28498800Y-31115000D01*
X28575000Y-28575000D02*
X29685600Y-29685600D01*
X29685600Y-29685600D02*
X31476400Y-29685600D01*
X31476400Y-29685600D02*
X32191500Y-30400700D01*
X32191500Y-30400700D02*
X50282300Y-30400700D01*
X50282300Y-30400700D02*
X50838000Y-29845000D01*
X50838000Y-29845000D02*
X66040000Y-29845000D01*
X23495000Y-28575000D02*
X24585000Y-29665000D01*
X24585000Y-29665000D02*
X27485000Y-29665000D01*
X27485000Y-29665000D02*
X28575000Y-28575000D01*
X28498800Y-20955000D02*
X27369500Y-22084300D01*
X27369500Y-22084300D02*
X24548100Y-22084300D01*
X24548100Y-22084300D02*
X23418800Y-20955000D01*
X28575000Y-18415000D02*
X27485400Y-19504600D01*
X27485400Y-19504600D02*
X25287300Y-19504600D01*
X25287300Y-19504600D02*
X24197700Y-18415000D01*
X24197700Y-18415000D02*
X23495000Y-18415000D01*
X28575000Y-15875000D02*
X27463800Y-16986200D01*
X27463800Y-16986200D02*
X24606200Y-16986200D01*
X24606200Y-16986200D02*
X23495000Y-15875000D01*
X28575000Y-13335000D02*
X27463800Y-14446200D01*
X27463800Y-14446200D02*
X24606200Y-14446200D01*
X24606200Y-14446200D02*
X23495000Y-13335000D01*
X55168800Y-41275000D02*
X56258700Y-42364900D01*
X56258700Y-42364900D02*
X59158900Y-42364900D01*
X59158900Y-42364900D02*
X60248800Y-41275000D01*
X60325000Y-38735000D02*
X59217000Y-39843000D01*
X59217000Y-39843000D02*
X56353000Y-39843000D01*
X56353000Y-39843000D02*
X55245000Y-38735000D01*
X55245000Y-33655000D02*
X56353000Y-34763000D01*
X56353000Y-34763000D02*
X59217000Y-34763000D01*
X59217000Y-34763000D02*
X60325000Y-33655000D01*
X60248800Y-36195000D02*
X59158900Y-37284900D01*
X59158900Y-37284900D02*
X56258700Y-37284900D01*
X56258700Y-37284900D02*
X55168800Y-36195000D01*
X55245000Y-26035000D02*
X56348900Y-24931100D01*
X56348900Y-24931100D02*
X59221100Y-24931100D01*
X59221100Y-24931100D02*
X60325000Y-26035000D01*
X55245000Y-28575000D02*
X56344100Y-27475900D01*
X56344100Y-27475900D02*
X59225900Y-27475900D01*
X59225900Y-27475900D02*
X60325000Y-28575000D01*
X55168800Y-20955000D02*
X56261900Y-22048100D01*
X56261900Y-22048100D02*
X59155700Y-22048100D01*
X59155700Y-22048100D02*
X60248800Y-20955000D01*
X55245000Y-18415000D02*
X56344000Y-17316000D01*
X56344000Y-17316000D02*
X59226000Y-17316000D01*
X59226000Y-17316000D02*
X60325000Y-18415000D01*
X55245000Y-15875000D02*
X56344000Y-14776000D01*
X56344000Y-14776000D02*
X59226000Y-14776000D01*
X59226000Y-14776000D02*
X60325000Y-15875000D01*
X55245000Y-13335000D02*
X56359400Y-12220600D01*
X56359400Y-12220600D02*
X59210600Y-12220600D01*
X59210600Y-12220600D02*
X60325000Y-13335000D01*
D21*
X54960000Y-49145000D02*
X62880800Y-49145000D01*
X62880800Y-49145000D02*
X67996000Y-44029800D01*
X67996000Y-44029800D02*
X67996000Y-34976000D01*
X67996000Y-34976000D02*
X66040000Y-33020000D01*
X30130000Y-49145000D02*
X20986700Y-49145000D01*
X20986700Y-49145000D02*
X15824000Y-43982300D01*
X15824000Y-43982300D02*
X15824000Y-34976000D01*
X15824000Y-34976000D02*
X17780000Y-33020000D01*
D22*
G36*
X20064465Y-12249880D02*
G01*
X19869880Y-12444465D01*
X19716995Y-12673273D01*
X19611686Y-12927510D01*
X19558000Y-13197408D01*
X19558000Y-13472592D01*
X19611686Y-13742490D01*
X19716995Y-13996727D01*
X19869880Y-14225535D01*
X20064465Y-14420120D01*
X20293273Y-14573005D01*
X20370515Y-14605000D01*
X20293273Y-14636995D01*
X20064465Y-14789880D01*
X19869880Y-14984465D01*
X19716995Y-15213273D01*
X19611686Y-15467510D01*
X19558000Y-15737408D01*
X19558000Y-16012592D01*
X19611686Y-16282490D01*
X19716995Y-16536727D01*
X19869880Y-16765535D01*
X20064465Y-16960120D01*
X20293273Y-17113005D01*
X20370515Y-17145000D01*
X20293273Y-17176995D01*
X20064465Y-17329880D01*
X19869880Y-17524465D01*
X19716995Y-17753273D01*
X19611686Y-18007510D01*
X19558000Y-18277408D01*
X19558000Y-18552592D01*
X19611686Y-18822490D01*
X19716995Y-19076727D01*
X19869880Y-19305535D01*
X20064465Y-19500120D01*
X20293273Y-19653005D01*
X20332415Y-19669218D01*
X20217073Y-19716995D01*
X19988265Y-19869880D01*
X19793680Y-20064465D01*
X19640795Y-20293273D01*
X19535486Y-20547510D01*
X19481800Y-20817408D01*
X19481800Y-21092592D01*
X19535486Y-21362490D01*
X19640795Y-21616727D01*
X19793680Y-21845535D01*
X19988265Y-22040120D01*
X20217073Y-22193005D01*
X20332415Y-22240782D01*
X20293273Y-22256995D01*
X20064465Y-22409880D01*
X19869880Y-22604465D01*
X19716995Y-22833273D01*
X19611686Y-23087510D01*
X19558000Y-23357408D01*
X19558000Y-23632592D01*
X19611686Y-23902490D01*
X19716995Y-24156727D01*
X19869880Y-24385535D01*
X20064465Y-24580120D01*
X20293273Y-24733005D01*
X20370515Y-24765000D01*
X20293273Y-24796995D01*
X20064465Y-24949880D01*
X19869880Y-25144465D01*
X19716995Y-25373273D01*
X19611686Y-25627510D01*
X19558000Y-25897408D01*
X19558000Y-26172592D01*
X19611686Y-26442490D01*
X19716995Y-26696727D01*
X19869880Y-26925535D01*
X20064465Y-27120120D01*
X20293273Y-27273005D01*
X20370515Y-27305000D01*
X20293273Y-27336995D01*
X20064465Y-27489880D01*
X19869880Y-27684465D01*
X19716995Y-27913273D01*
X19611686Y-28167510D01*
X19558000Y-28437408D01*
X19558000Y-28712592D01*
X19611686Y-28982490D01*
X19654147Y-29085000D01*
X19234909Y-29085000D01*
X19228918Y-29070537D01*
X19049987Y-28802748D01*
X18822252Y-28575013D01*
X18554463Y-28396082D01*
X18256912Y-28272832D01*
X17941033Y-28210000D01*
X17618967Y-28210000D01*
X17303088Y-28272832D01*
X17005537Y-28396082D01*
X16737748Y-28575013D01*
X16510013Y-28802748D01*
X16331082Y-29070537D01*
X16207832Y-29368088D01*
X16145000Y-29683967D01*
X16145000Y-30006033D01*
X16207832Y-30321912D01*
X16331082Y-30619463D01*
X16510013Y-30887252D01*
X16737748Y-31114987D01*
X17005537Y-31293918D01*
X17303088Y-31417168D01*
X17380167Y-31432500D01*
X17303088Y-31447832D01*
X17005537Y-31571082D01*
X16737748Y-31750013D01*
X16510013Y-31977748D01*
X16331082Y-32245537D01*
X16207832Y-32543088D01*
X16185387Y-32655927D01*
X14892764Y-33948551D01*
X14839920Y-33991919D01*
X14796551Y-34044764D01*
X14796548Y-34044767D01*
X14666844Y-34202812D01*
X14538236Y-34443420D01*
X14459040Y-34704493D01*
X14432300Y-34976000D01*
X14439001Y-35044039D01*
X14439000Y-43914271D01*
X14432300Y-43982300D01*
X14439000Y-44050329D01*
X14439000Y-44050336D01*
X14455932Y-44222252D01*
X14459040Y-44253807D01*
X14480940Y-44326002D01*
X14538236Y-44514880D01*
X14659767Y-44742247D01*
X14666844Y-44755488D01*
X14785541Y-44900120D01*
X14839919Y-44966380D01*
X14892765Y-45009750D01*
X17521271Y-47638256D01*
X17360274Y-47704943D01*
X17094123Y-47882780D01*
X16867780Y-48109123D01*
X16689943Y-48375274D01*
X16567448Y-48671005D01*
X16505000Y-48984951D01*
X16505000Y-49305049D01*
X16567448Y-49618995D01*
X16689943Y-49914726D01*
X16867780Y-50180877D01*
X17094123Y-50407220D01*
X17360274Y-50585057D01*
X17656005Y-50707552D01*
X17969951Y-50770000D01*
X18290049Y-50770000D01*
X18603995Y-50707552D01*
X18899726Y-50585057D01*
X19165877Y-50407220D01*
X19392220Y-50180877D01*
X19570057Y-49914726D01*
X19636744Y-49753729D01*
X19959250Y-50076236D01*
X20002619Y-50129081D01*
X20055464Y-50172450D01*
X20055466Y-50172452D01*
X20136743Y-50239154D01*
X20213512Y-50302157D01*
X20454119Y-50430764D01*
X20715193Y-50509960D01*
X20918663Y-50530000D01*
X20918672Y-50530000D01*
X20986699Y-50536700D01*
X21054726Y-50530000D01*
X29277876Y-50530000D01*
X29360274Y-50585057D01*
X29656005Y-50707552D01*
X29969951Y-50770000D01*
X30290049Y-50770000D01*
X30603995Y-50707552D01*
X30899726Y-50585057D01*
X31165877Y-50407220D01*
X31204900Y-50368197D01*
X31204901Y-60111553D01*
X31194370Y-60101022D01*
X31078676Y-60216716D01*
X30984120Y-59953339D01*
X30696209Y-59813449D01*
X30386538Y-59732416D01*
X30067010Y-59713354D01*
X29749901Y-59756994D01*
X29447400Y-59861661D01*
X29275880Y-59953339D01*
X29181323Y-60216718D01*
X30130000Y-61165395D01*
X30144143Y-61151253D01*
X30323748Y-61330858D01*
X30309605Y-61345000D01*
X30323748Y-61359143D01*
X30144143Y-61538748D01*
X30130000Y-61524605D01*
X29181323Y-62473282D01*
X29275880Y-62736661D01*
X29563791Y-62876551D01*
X29873462Y-62957584D01*
X30192990Y-62976646D01*
X30510099Y-62933006D01*
X30812600Y-62828339D01*
X30984120Y-62736661D01*
X31078676Y-62473284D01*
X31194370Y-62588978D01*
X31204901Y-62578447D01*
X31204901Y-67941567D01*
X31201224Y-67978900D01*
X31204901Y-68016233D01*
X31215898Y-68127886D01*
X31229080Y-68171342D01*
X31259354Y-68271146D01*
X31329926Y-68403176D01*
X31401101Y-68489902D01*
X31424900Y-68518901D01*
X31453898Y-68542699D01*
X32128000Y-69216802D01*
X32128000Y-69388788D01*
X32171617Y-69608067D01*
X32257176Y-69814624D01*
X32381388Y-70000520D01*
X32539480Y-70158612D01*
X32725376Y-70282824D01*
X32931933Y-70368383D01*
X33151212Y-70412000D01*
X33374788Y-70412000D01*
X33594067Y-70368383D01*
X33800624Y-70282824D01*
X33986520Y-70158612D01*
X34144612Y-70000520D01*
X34268824Y-69814624D01*
X34324953Y-69679117D01*
X67734000Y-69679117D01*
X67734000Y-70020883D01*
X67800675Y-70356081D01*
X67931463Y-70671831D01*
X68121337Y-70955998D01*
X68363002Y-71197663D01*
X68647169Y-71387537D01*
X68962919Y-71518325D01*
X69298117Y-71585000D01*
X69639883Y-71585000D01*
X69975081Y-71518325D01*
X70290831Y-71387537D01*
X70574998Y-71197663D01*
X70816663Y-70955998D01*
X71006537Y-70671831D01*
X71137325Y-70356081D01*
X71204000Y-70020883D01*
X71204000Y-69679117D01*
X71137325Y-69343919D01*
X71006537Y-69028169D01*
X70816663Y-68744002D01*
X70574998Y-68502337D01*
X70290831Y-68312463D01*
X69975081Y-68181675D01*
X69639883Y-68115000D01*
X69298117Y-68115000D01*
X68962919Y-68181675D01*
X68647169Y-68312463D01*
X68363002Y-68502337D01*
X68121337Y-68744002D01*
X67931463Y-69028169D01*
X67800675Y-69343919D01*
X67734000Y-69679117D01*
X34324953Y-69679117D01*
X34354383Y-69608067D01*
X34398000Y-69388788D01*
X34398000Y-69165212D01*
X34354383Y-68945933D01*
X34268824Y-68739376D01*
X34144612Y-68553480D01*
X33986520Y-68395388D01*
X33800624Y-68271176D01*
X33776057Y-68261000D01*
X33800624Y-68250824D01*
X33986520Y-68126612D01*
X34144612Y-67968520D01*
X34268824Y-67782624D01*
X34354383Y-67576067D01*
X34398000Y-67356788D01*
X34398000Y-67133212D01*
X34354383Y-66913933D01*
X34268824Y-66707376D01*
X34144612Y-66521480D01*
X33986520Y-66363388D01*
X33800624Y-66239176D01*
X33776057Y-66229000D01*
X33800624Y-66218824D01*
X33986520Y-66094612D01*
X34144612Y-65936520D01*
X34268824Y-65750624D01*
X34346452Y-65563212D01*
X49490000Y-65563212D01*
X49490000Y-65786788D01*
X49533617Y-66006067D01*
X49619176Y-66212624D01*
X49743388Y-66398520D01*
X49901480Y-66556612D01*
X50087376Y-66680824D01*
X50293933Y-66766383D01*
X50513212Y-66810000D01*
X50736788Y-66810000D01*
X50956067Y-66766383D01*
X51162624Y-66680824D01*
X51348520Y-66556612D01*
X51506612Y-66398520D01*
X51630824Y-66212624D01*
X51716383Y-66006067D01*
X51760000Y-65786788D01*
X51760000Y-65563212D01*
X51716383Y-65343933D01*
X51630824Y-65137376D01*
X51506612Y-64951480D01*
X51348520Y-64793388D01*
X51162624Y-64669176D01*
X50956067Y-64583617D01*
X50736788Y-64540000D01*
X50513212Y-64540000D01*
X50293933Y-64583617D01*
X50087376Y-64669176D01*
X49901480Y-64793388D01*
X49743388Y-64951480D01*
X49619176Y-65137376D01*
X49533617Y-65343933D01*
X49490000Y-65563212D01*
X34346452Y-65563212D01*
X34354383Y-65544067D01*
X34398000Y-65324788D01*
X34398000Y-65101212D01*
X34354383Y-64881933D01*
X34268824Y-64675376D01*
X34144612Y-64489480D01*
X33986520Y-64331388D01*
X33800624Y-64207176D01*
X33776057Y-64197000D01*
X33800624Y-64186824D01*
X33986520Y-64062612D01*
X34144612Y-63904520D01*
X34268824Y-63718624D01*
X34354383Y-63512067D01*
X34398000Y-63292788D01*
X34398000Y-63069212D01*
X34387414Y-63015989D01*
X49251600Y-63015989D01*
X49251600Y-63288811D01*
X49304825Y-63556389D01*
X49409229Y-63808443D01*
X49560801Y-64035286D01*
X49753714Y-64228199D01*
X49980557Y-64379771D01*
X50232611Y-64484175D01*
X50500189Y-64537400D01*
X50773011Y-64537400D01*
X51040589Y-64484175D01*
X51292643Y-64379771D01*
X51519486Y-64228199D01*
X51712399Y-64035286D01*
X51863971Y-63808443D01*
X51968375Y-63556389D01*
X52021600Y-63288811D01*
X52021600Y-63187168D01*
X59357500Y-63187168D01*
X59357500Y-63502832D01*
X59419083Y-63812432D01*
X59539883Y-64104068D01*
X59715257Y-64366534D01*
X59938466Y-64589743D01*
X60200932Y-64765117D01*
X60492568Y-64885917D01*
X60802168Y-64947500D01*
X61117832Y-64947500D01*
X61427432Y-64885917D01*
X61719068Y-64765117D01*
X61981534Y-64589743D01*
X62204743Y-64366534D01*
X62380117Y-64104068D01*
X62500917Y-63812432D01*
X62562500Y-63502832D01*
X62562500Y-63187168D01*
X62500917Y-62877568D01*
X62380117Y-62585932D01*
X62304847Y-62473282D01*
X66011323Y-62473282D01*
X66105880Y-62736661D01*
X66393791Y-62876551D01*
X66703462Y-62957584D01*
X67022990Y-62976646D01*
X67340099Y-62933006D01*
X67642600Y-62828339D01*
X67814120Y-62736661D01*
X67908677Y-62473282D01*
X66960000Y-61524605D01*
X66011323Y-62473282D01*
X62304847Y-62473282D01*
X62204743Y-62323466D01*
X61981534Y-62100257D01*
X61719068Y-61924883D01*
X61427432Y-61804083D01*
X61117832Y-61742500D01*
X60802168Y-61742500D01*
X60492568Y-61804083D01*
X60200932Y-61924883D01*
X59938466Y-62100257D01*
X59715257Y-62323466D01*
X59539883Y-62585932D01*
X59419083Y-62877568D01*
X59357500Y-63187168D01*
X52021600Y-63187168D01*
X52021600Y-63015989D01*
X51968375Y-62748411D01*
X51863971Y-62496357D01*
X51712399Y-62269514D01*
X51519486Y-62076601D01*
X51292643Y-61925029D01*
X51040589Y-61820625D01*
X50773011Y-61767400D01*
X50500189Y-61767400D01*
X50232611Y-61820625D01*
X49980557Y-61925029D01*
X49753714Y-62076601D01*
X49560801Y-62269514D01*
X49409229Y-62496357D01*
X49304825Y-62748411D01*
X49251600Y-63015989D01*
X34387414Y-63015989D01*
X34354383Y-62849933D01*
X34268824Y-62643376D01*
X34144612Y-62457480D01*
X33986520Y-62299388D01*
X33800624Y-62175176D01*
X33776057Y-62165000D01*
X33800624Y-62154824D01*
X33986520Y-62030612D01*
X34108132Y-61909000D01*
X39288378Y-61909000D01*
X39325700Y-61912676D01*
X39363022Y-61909000D01*
X39363033Y-61909000D01*
X39474686Y-61898003D01*
X39617947Y-61854546D01*
X39749976Y-61783974D01*
X39865701Y-61689001D01*
X39889504Y-61659997D01*
X41046289Y-60503212D01*
X49510000Y-60503212D01*
X49510000Y-60726788D01*
X49553617Y-60946067D01*
X49639176Y-61152624D01*
X49763388Y-61338520D01*
X49921480Y-61496612D01*
X50107376Y-61620824D01*
X50313933Y-61706383D01*
X50533212Y-61750000D01*
X50756788Y-61750000D01*
X50976067Y-61706383D01*
X51182624Y-61620824D01*
X51368520Y-61496612D01*
X51526612Y-61338520D01*
X51650824Y-61152624D01*
X51736383Y-60946067D01*
X51780000Y-60726788D01*
X51780000Y-60503212D01*
X51750520Y-60355000D01*
X53331928Y-60355000D01*
X53331928Y-62335000D01*
X53344188Y-62459482D01*
X53380498Y-62579180D01*
X53439463Y-62689494D01*
X53518815Y-62786185D01*
X53615506Y-62865537D01*
X53725820Y-62924502D01*
X53845518Y-62960812D01*
X53970000Y-62973072D01*
X55950000Y-62973072D01*
X56074482Y-62960812D01*
X56194180Y-62924502D01*
X56304494Y-62865537D01*
X56401185Y-62786185D01*
X56480537Y-62689494D01*
X56539502Y-62579180D01*
X56575812Y-62459482D01*
X56588072Y-62335000D01*
X56588072Y-61407990D01*
X65328354Y-61407990D01*
X65371994Y-61725099D01*
X65476661Y-62027600D01*
X65568339Y-62199120D01*
X65831718Y-62293677D01*
X66780395Y-61345000D01*
X67139605Y-61345000D01*
X68088282Y-62293677D01*
X68351661Y-62199120D01*
X68491551Y-61911209D01*
X68572584Y-61601538D01*
X68591646Y-61282010D01*
X68548006Y-60964901D01*
X68443339Y-60662400D01*
X68351661Y-60490880D01*
X68088282Y-60396323D01*
X67139605Y-61345000D01*
X66780395Y-61345000D01*
X65831718Y-60396323D01*
X65568339Y-60490880D01*
X65428449Y-60778791D01*
X65347416Y-61088462D01*
X65328354Y-61407990D01*
X56588072Y-61407990D01*
X56588072Y-60355000D01*
X56575812Y-60230518D01*
X56571626Y-60216718D01*
X66011323Y-60216718D01*
X66960000Y-61165395D01*
X67908677Y-60216718D01*
X67814120Y-59953339D01*
X67526209Y-59813449D01*
X67216538Y-59732416D01*
X66897010Y-59713354D01*
X66579901Y-59756994D01*
X66277400Y-59861661D01*
X66105880Y-59953339D01*
X66011323Y-60216718D01*
X56571626Y-60216718D01*
X56539502Y-60110820D01*
X56480537Y-60000506D01*
X56401185Y-59903815D01*
X56304494Y-59824463D01*
X56194180Y-59765498D01*
X56074482Y-59729188D01*
X55950000Y-59716928D01*
X53970000Y-59716928D01*
X53845518Y-59729188D01*
X53725820Y-59765498D01*
X53615506Y-59824463D01*
X53518815Y-59903815D01*
X53439463Y-60000506D01*
X53380498Y-60110820D01*
X53344188Y-60230518D01*
X53331928Y-60355000D01*
X51750520Y-60355000D01*
X51736383Y-60283933D01*
X51650824Y-60077376D01*
X51526612Y-59891480D01*
X51368520Y-59733388D01*
X51182624Y-59609176D01*
X50976067Y-59523617D01*
X50756788Y-59480000D01*
X50533212Y-59480000D01*
X50313933Y-59523617D01*
X50107376Y-59609176D01*
X49921480Y-59733388D01*
X49763388Y-59891480D01*
X49639176Y-60077376D01*
X49553617Y-60283933D01*
X49510000Y-60503212D01*
X41046289Y-60503212D01*
X48487630Y-53061872D01*
X48510392Y-53089608D01*
X48728899Y-53268932D01*
X48978192Y-53402182D01*
X49248691Y-53484236D01*
X49459508Y-53505000D01*
X49600492Y-53505000D01*
X49811309Y-53484236D01*
X50081808Y-53402182D01*
X50331101Y-53268932D01*
X50549608Y-53089608D01*
X50728932Y-52871101D01*
X50862182Y-52621808D01*
X50944236Y-52351309D01*
X50971943Y-52070000D01*
X50944236Y-51788691D01*
X50862182Y-51518192D01*
X50728932Y-51268899D01*
X50653643Y-51177159D01*
X51173204Y-50657598D01*
X51202201Y-50633801D01*
X51297174Y-50518076D01*
X51367746Y-50386047D01*
X51411203Y-50242786D01*
X51422200Y-50131133D01*
X51422200Y-50131124D01*
X51425876Y-50093801D01*
X51422200Y-50056478D01*
X51422200Y-49097022D01*
X51425876Y-49059699D01*
X51422200Y-49022376D01*
X51422200Y-49022367D01*
X51411203Y-48910714D01*
X51367746Y-48767453D01*
X51297174Y-48635424D01*
X51202201Y-48519699D01*
X51173202Y-48495900D01*
X50611497Y-47934196D01*
X50728932Y-47791101D01*
X50862182Y-47541808D01*
X50944236Y-47271309D01*
X50971943Y-46990000D01*
X50944236Y-46708691D01*
X50862182Y-46438192D01*
X50728932Y-46188899D01*
X50549608Y-45970392D01*
X50331101Y-45791068D01*
X50198142Y-45720000D01*
X50331101Y-45648932D01*
X50549608Y-45469608D01*
X50728932Y-45251101D01*
X50750901Y-45210000D01*
X52032678Y-45210000D01*
X52070000Y-45213676D01*
X52107322Y-45210000D01*
X52107333Y-45210000D01*
X52218986Y-45199003D01*
X52331097Y-45164995D01*
X52567408Y-45212000D01*
X52842592Y-45212000D01*
X53112490Y-45158314D01*
X53366727Y-45053005D01*
X53595535Y-44900120D01*
X53790120Y-44705535D01*
X53943005Y-44476727D01*
X53975000Y-44399485D01*
X54006995Y-44476727D01*
X54159880Y-44705535D01*
X54354465Y-44900120D01*
X54583273Y-45053005D01*
X54837510Y-45158314D01*
X55107408Y-45212000D01*
X55382592Y-45212000D01*
X55652490Y-45158314D01*
X55906727Y-45053005D01*
X56135535Y-44900120D01*
X56255090Y-44780565D01*
X56999040Y-44780565D01*
X57066020Y-45020656D01*
X57315048Y-45137756D01*
X57582135Y-45204023D01*
X57857017Y-45216910D01*
X58129133Y-45175922D01*
X58388023Y-45082636D01*
X58503980Y-45020656D01*
X58570960Y-44780565D01*
X57785000Y-43994605D01*
X56999040Y-44780565D01*
X56255090Y-44780565D01*
X56330120Y-44705535D01*
X56483005Y-44476727D01*
X56512692Y-44405057D01*
X56517364Y-44418023D01*
X56579344Y-44533980D01*
X56819435Y-44600960D01*
X57605395Y-43815000D01*
X57591253Y-43800858D01*
X57770858Y-43621253D01*
X57785000Y-43635395D01*
X57799143Y-43621253D01*
X57978748Y-43800858D01*
X57964605Y-43815000D01*
X58750565Y-44600960D01*
X58990656Y-44533980D01*
X59054485Y-44398240D01*
X59086995Y-44476727D01*
X59239880Y-44705535D01*
X59434465Y-44900120D01*
X59663273Y-45053005D01*
X59917510Y-45158314D01*
X60187408Y-45212000D01*
X60462592Y-45212000D01*
X60732490Y-45158314D01*
X60986727Y-45053005D01*
X61215535Y-44900120D01*
X61410120Y-44705535D01*
X61563005Y-44476727D01*
X61595000Y-44399485D01*
X61626995Y-44476727D01*
X61779880Y-44705535D01*
X61974465Y-44900120D01*
X62203273Y-45053005D01*
X62457510Y-45158314D01*
X62727408Y-45212000D01*
X63002592Y-45212000D01*
X63272490Y-45158314D01*
X63526727Y-45053005D01*
X63755535Y-44900120D01*
X63950120Y-44705535D01*
X64103005Y-44476727D01*
X64208314Y-44222490D01*
X64262000Y-43952592D01*
X64262000Y-43677408D01*
X64208314Y-43407510D01*
X64103005Y-43153273D01*
X63950120Y-42924465D01*
X63755535Y-42729880D01*
X63526727Y-42576995D01*
X63411385Y-42529218D01*
X63450527Y-42513005D01*
X63679335Y-42360120D01*
X63873920Y-42165535D01*
X64026805Y-41936727D01*
X64132114Y-41682490D01*
X64185800Y-41412592D01*
X64185800Y-41137408D01*
X64132114Y-40867510D01*
X64026805Y-40613273D01*
X63873920Y-40384465D01*
X63679335Y-40189880D01*
X63450527Y-40036995D01*
X63411385Y-40020782D01*
X63526727Y-39973005D01*
X63755535Y-39820120D01*
X63950120Y-39625535D01*
X64103005Y-39396727D01*
X64208314Y-39142490D01*
X64262000Y-38872592D01*
X64262000Y-38597408D01*
X64208314Y-38327510D01*
X64103005Y-38073273D01*
X63950120Y-37844465D01*
X63755535Y-37649880D01*
X63526727Y-37496995D01*
X63411385Y-37449218D01*
X63450527Y-37433005D01*
X63679335Y-37280120D01*
X63873920Y-37085535D01*
X64026805Y-36856727D01*
X64132114Y-36602490D01*
X64185800Y-36332592D01*
X64185800Y-36057408D01*
X64132114Y-35787510D01*
X64026805Y-35533273D01*
X63873920Y-35304465D01*
X63679335Y-35109880D01*
X63450527Y-34956995D01*
X63411385Y-34940782D01*
X63526727Y-34893005D01*
X63755535Y-34740120D01*
X63950120Y-34545535D01*
X64103005Y-34316727D01*
X64208314Y-34062490D01*
X64262000Y-33792592D01*
X64262000Y-33517408D01*
X64208314Y-33247510D01*
X64103005Y-32993273D01*
X63950120Y-32764465D01*
X63755535Y-32569880D01*
X63526727Y-32416995D01*
X63411385Y-32369218D01*
X63450527Y-32353005D01*
X63679335Y-32200120D01*
X63873920Y-32005535D01*
X64026805Y-31776727D01*
X64132114Y-31522490D01*
X64185800Y-31252592D01*
X64185800Y-30977408D01*
X64132114Y-30707510D01*
X64089653Y-30605000D01*
X64585091Y-30605000D01*
X64591082Y-30619463D01*
X64770013Y-30887252D01*
X64997748Y-31114987D01*
X65265537Y-31293918D01*
X65563088Y-31417168D01*
X65640167Y-31432500D01*
X65563088Y-31447832D01*
X65265537Y-31571082D01*
X64997748Y-31750013D01*
X64770013Y-31977748D01*
X64591082Y-32245537D01*
X64467832Y-32543088D01*
X64405000Y-32858967D01*
X64405000Y-33181033D01*
X64467832Y-33496912D01*
X64591082Y-33794463D01*
X64770013Y-34062252D01*
X64997748Y-34289987D01*
X65265537Y-34468918D01*
X65563088Y-34592168D01*
X65675928Y-34614613D01*
X66611001Y-35549687D01*
X66611001Y-36566805D01*
X66516912Y-36527832D01*
X66201033Y-36465000D01*
X65878967Y-36465000D01*
X65563088Y-36527832D01*
X65265537Y-36651082D01*
X64997748Y-36830013D01*
X64770013Y-37057748D01*
X64591082Y-37325537D01*
X64467832Y-37623088D01*
X64405000Y-37938967D01*
X64405000Y-38261033D01*
X64467832Y-38576912D01*
X64591082Y-38874463D01*
X64770013Y-39142252D01*
X64997748Y-39369987D01*
X65265537Y-39548918D01*
X65563088Y-39672168D01*
X65878967Y-39735000D01*
X66201033Y-39735000D01*
X66516912Y-39672168D01*
X66611000Y-39633195D01*
X66611000Y-41646805D01*
X66516912Y-41607832D01*
X66201033Y-41545000D01*
X65878967Y-41545000D01*
X65563088Y-41607832D01*
X65265537Y-41731082D01*
X64997748Y-41910013D01*
X64770013Y-42137748D01*
X64591082Y-42405537D01*
X64467832Y-42703088D01*
X64405000Y-43018967D01*
X64405000Y-43341033D01*
X64467832Y-43656912D01*
X64591082Y-43954463D01*
X64770013Y-44222252D01*
X64997748Y-44449987D01*
X65265537Y-44628918D01*
X65387625Y-44679489D01*
X62307115Y-47760000D01*
X55812124Y-47760000D01*
X55729726Y-47704943D01*
X55433995Y-47582448D01*
X55120049Y-47520000D01*
X54799951Y-47520000D01*
X54486005Y-47582448D01*
X54190274Y-47704943D01*
X53924123Y-47882780D01*
X53697780Y-48109123D01*
X53519943Y-48375274D01*
X53397448Y-48671005D01*
X53335000Y-48984951D01*
X53335000Y-49305049D01*
X53397448Y-49618995D01*
X53519943Y-49914726D01*
X53697780Y-50180877D01*
X53924123Y-50407220D01*
X54190274Y-50585057D01*
X54486005Y-50707552D01*
X54799951Y-50770000D01*
X55120049Y-50770000D01*
X55433995Y-50707552D01*
X55729726Y-50585057D01*
X55812124Y-50530000D01*
X62812771Y-50530000D01*
X62880800Y-50536700D01*
X62948829Y-50530000D01*
X62948837Y-50530000D01*
X63152307Y-50509960D01*
X63413381Y-50430764D01*
X63653988Y-50302157D01*
X63864881Y-50129081D01*
X63908254Y-50076231D01*
X65456821Y-48527664D01*
X65397448Y-48671005D01*
X65335000Y-48984951D01*
X65335000Y-49305049D01*
X65397448Y-49618995D01*
X65519943Y-49914726D01*
X65697780Y-50180877D01*
X65924123Y-50407220D01*
X66190274Y-50585057D01*
X66486005Y-50707552D01*
X66799951Y-50770000D01*
X67120049Y-50770000D01*
X67433995Y-50707552D01*
X67729726Y-50585057D01*
X67995877Y-50407220D01*
X68222220Y-50180877D01*
X68400057Y-49914726D01*
X68522552Y-49618995D01*
X68585000Y-49305049D01*
X68585000Y-48984951D01*
X68522552Y-48671005D01*
X68400057Y-48375274D01*
X68222220Y-48109123D01*
X67995877Y-47882780D01*
X67729726Y-47704943D01*
X67433995Y-47582448D01*
X67120049Y-47520000D01*
X66799951Y-47520000D01*
X66486005Y-47582448D01*
X66342664Y-47641821D01*
X68927241Y-45057245D01*
X68980080Y-45013881D01*
X69023445Y-44961041D01*
X69023452Y-44961034D01*
X69153156Y-44802989D01*
X69153157Y-44802988D01*
X69281764Y-44562381D01*
X69360960Y-44301307D01*
X69381000Y-44097837D01*
X69381000Y-44097828D01*
X69387700Y-44029801D01*
X69381000Y-43961774D01*
X69381000Y-35044029D01*
X69387700Y-34976000D01*
X69381000Y-34907971D01*
X69381000Y-34907963D01*
X69360960Y-34704493D01*
X69281764Y-34443419D01*
X69153157Y-34202812D01*
X69122948Y-34166002D01*
X69023452Y-34044766D01*
X69023450Y-34044764D01*
X68980081Y-33991919D01*
X68927236Y-33948550D01*
X67634613Y-32655928D01*
X67612168Y-32543088D01*
X67488918Y-32245537D01*
X67309987Y-31977748D01*
X67082252Y-31750013D01*
X66814463Y-31571082D01*
X66516912Y-31447832D01*
X66439833Y-31432500D01*
X66516912Y-31417168D01*
X66814463Y-31293918D01*
X67082252Y-31114987D01*
X67309987Y-30887252D01*
X67488918Y-30619463D01*
X67612168Y-30321912D01*
X67675000Y-30006033D01*
X67675000Y-29683967D01*
X67612168Y-29368088D01*
X67488918Y-29070537D01*
X67309987Y-28802748D01*
X67082252Y-28575013D01*
X66814463Y-28396082D01*
X66516912Y-28272832D01*
X66201033Y-28210000D01*
X65878967Y-28210000D01*
X65563088Y-28272832D01*
X65265537Y-28396082D01*
X64997748Y-28575013D01*
X64770013Y-28802748D01*
X64591082Y-29070537D01*
X64585091Y-29085000D01*
X64165853Y-29085000D01*
X64208314Y-28982490D01*
X64262000Y-28712592D01*
X64262000Y-28437408D01*
X64208314Y-28167510D01*
X64103005Y-27913273D01*
X63950120Y-27684465D01*
X63755535Y-27489880D01*
X63526727Y-27336995D01*
X63449485Y-27305000D01*
X63526727Y-27273005D01*
X63755535Y-27120120D01*
X63950120Y-26925535D01*
X64103005Y-26696727D01*
X64208314Y-26442490D01*
X64262000Y-26172592D01*
X64262000Y-25897408D01*
X64231372Y-25743430D01*
X64449802Y-25525000D01*
X64585091Y-25525000D01*
X64591082Y-25539463D01*
X64770013Y-25807252D01*
X64997748Y-26034987D01*
X65265537Y-26213918D01*
X65563088Y-26337168D01*
X65878967Y-26400000D01*
X66201033Y-26400000D01*
X66516912Y-26337168D01*
X66814463Y-26213918D01*
X67082252Y-26034987D01*
X67309987Y-25807252D01*
X67488918Y-25539463D01*
X67612168Y-25241912D01*
X67675000Y-24926033D01*
X67675000Y-24603967D01*
X67612168Y-24288088D01*
X67488918Y-23990537D01*
X67309987Y-23722748D01*
X67082252Y-23495013D01*
X66814463Y-23316082D01*
X66516912Y-23192832D01*
X66201033Y-23130000D01*
X65878967Y-23130000D01*
X65563088Y-23192832D01*
X65265537Y-23316082D01*
X64997748Y-23495013D01*
X64770013Y-23722748D01*
X64591082Y-23990537D01*
X64585091Y-24005000D01*
X64449802Y-24005000D01*
X64231372Y-23786570D01*
X64262000Y-23632592D01*
X64262000Y-23357408D01*
X64208314Y-23087510D01*
X64103005Y-22833273D01*
X63950120Y-22604465D01*
X63755535Y-22409880D01*
X63548800Y-22271744D01*
X63548800Y-22127341D01*
X63679335Y-22040120D01*
X63873920Y-21845535D01*
X64026805Y-21616727D01*
X64132114Y-21362490D01*
X64185800Y-21092592D01*
X64185800Y-20820413D01*
X65084192Y-20820413D01*
X65179956Y-21084814D01*
X65469571Y-21225704D01*
X65781108Y-21307384D01*
X66102595Y-21326718D01*
X66421675Y-21282961D01*
X66726088Y-21177795D01*
X66900044Y-21084814D01*
X66995808Y-20820413D01*
X66040000Y-19864605D01*
X65084192Y-20820413D01*
X64185800Y-20820413D01*
X64185800Y-20817408D01*
X64132114Y-20547510D01*
X64026805Y-20293273D01*
X63873920Y-20064465D01*
X63679335Y-19869880D01*
X63496324Y-19747595D01*
X64398282Y-19747595D01*
X64442039Y-20066675D01*
X64547205Y-20371088D01*
X64640186Y-20545044D01*
X64904587Y-20640808D01*
X65860395Y-19685000D01*
X66219605Y-19685000D01*
X67175413Y-20640808D01*
X67439814Y-20545044D01*
X67580704Y-20255429D01*
X67662384Y-19943892D01*
X67681718Y-19622405D01*
X67637961Y-19303325D01*
X67532795Y-18998912D01*
X67439814Y-18824956D01*
X67175413Y-18729192D01*
X66219605Y-19685000D01*
X65860395Y-19685000D01*
X64904587Y-18729192D01*
X64640186Y-18824956D01*
X64499296Y-19114571D01*
X64417616Y-19426108D01*
X64398282Y-19747595D01*
X63496324Y-19747595D01*
X63450527Y-19716995D01*
X63411385Y-19700782D01*
X63526727Y-19653005D01*
X63755535Y-19500120D01*
X63950120Y-19305535D01*
X64103005Y-19076727D01*
X64208314Y-18822490D01*
X64262000Y-18552592D01*
X64262000Y-18549587D01*
X65084192Y-18549587D01*
X66040000Y-19505395D01*
X66995808Y-18549587D01*
X66900044Y-18285186D01*
X66610429Y-18144296D01*
X66298892Y-18062616D01*
X65977405Y-18043282D01*
X65658325Y-18087039D01*
X65353912Y-18192205D01*
X65179956Y-18285186D01*
X65084192Y-18549587D01*
X64262000Y-18549587D01*
X64262000Y-18277408D01*
X64208314Y-18007510D01*
X64103005Y-17753273D01*
X63950120Y-17524465D01*
X63755535Y-17329880D01*
X63526727Y-17176995D01*
X63449485Y-17145000D01*
X63526727Y-17113005D01*
X63755535Y-16960120D01*
X63950120Y-16765535D01*
X64103005Y-16536727D01*
X64208314Y-16282490D01*
X64262000Y-16012592D01*
X64262000Y-15737408D01*
X64208314Y-15467510D01*
X64103005Y-15213273D01*
X63950120Y-14984465D01*
X63755535Y-14789880D01*
X63526727Y-14636995D01*
X63449485Y-14605000D01*
X63526727Y-14573005D01*
X63734587Y-14434117D01*
X67734000Y-14434117D01*
X67734000Y-14775883D01*
X67800675Y-15111081D01*
X67931463Y-15426831D01*
X68121337Y-15710998D01*
X68363002Y-15952663D01*
X68647169Y-16142537D01*
X68962919Y-16273325D01*
X69298117Y-16340000D01*
X69639883Y-16340000D01*
X69975081Y-16273325D01*
X70290831Y-16142537D01*
X70574998Y-15952663D01*
X70816663Y-15710998D01*
X71006537Y-15426831D01*
X71137325Y-15111081D01*
X71204000Y-14775883D01*
X71204000Y-14434117D01*
X71137325Y-14098919D01*
X71006537Y-13783169D01*
X70816663Y-13499002D01*
X70574998Y-13257337D01*
X70290831Y-13067463D01*
X69975081Y-12936675D01*
X69639883Y-12870000D01*
X69298117Y-12870000D01*
X68962919Y-12936675D01*
X68647169Y-13067463D01*
X68363002Y-13257337D01*
X68121337Y-13499002D01*
X67931463Y-13783169D01*
X67800675Y-14098919D01*
X67734000Y-14434117D01*
X63734587Y-14434117D01*
X63755535Y-14420120D01*
X63950120Y-14225535D01*
X64103005Y-13996727D01*
X64208314Y-13742490D01*
X64262000Y-13472592D01*
X64262000Y-13197408D01*
X64208314Y-12927510D01*
X64103005Y-12673273D01*
X63950120Y-12444465D01*
X63755535Y-12249880D01*
X63668912Y-12192000D01*
X71628000Y-12192000D01*
X71628000Y-72263000D01*
X12192000Y-72263000D01*
X12192000Y-69679117D01*
X12616000Y-69679117D01*
X12616000Y-70020883D01*
X12682675Y-70356081D01*
X12813463Y-70671831D01*
X13003337Y-70955998D01*
X13245002Y-71197663D01*
X13529169Y-71387537D01*
X13844919Y-71518325D01*
X14180117Y-71585000D01*
X14521883Y-71585000D01*
X14857081Y-71518325D01*
X15172831Y-71387537D01*
X15456998Y-71197663D01*
X15698663Y-70955998D01*
X15888537Y-70671831D01*
X16019325Y-70356081D01*
X16086000Y-70020883D01*
X16086000Y-69679117D01*
X16019325Y-69343919D01*
X15888537Y-69028169D01*
X15698663Y-68744002D01*
X15456998Y-68502337D01*
X15172831Y-68312463D01*
X14857081Y-68181675D01*
X14521883Y-68115000D01*
X14180117Y-68115000D01*
X13844919Y-68181675D01*
X13529169Y-68312463D01*
X13245002Y-68502337D01*
X13003337Y-68744002D01*
X12813463Y-69028169D01*
X12682675Y-69343919D01*
X12616000Y-69679117D01*
X12192000Y-69679117D01*
X12192000Y-63187168D01*
X22527500Y-63187168D01*
X22527500Y-63502832D01*
X22589083Y-63812432D01*
X22709883Y-64104068D01*
X22885257Y-64366534D01*
X23108466Y-64589743D01*
X23370932Y-64765117D01*
X23662568Y-64885917D01*
X23972168Y-64947500D01*
X24287832Y-64947500D01*
X24597432Y-64885917D01*
X24889068Y-64765117D01*
X25151534Y-64589743D01*
X25374743Y-64366534D01*
X25550117Y-64104068D01*
X25670917Y-63812432D01*
X25732500Y-63502832D01*
X25732500Y-63187168D01*
X25670917Y-62877568D01*
X25550117Y-62585932D01*
X25374743Y-62323466D01*
X25151534Y-62100257D01*
X24889068Y-61924883D01*
X24597432Y-61804083D01*
X24287832Y-61742500D01*
X23972168Y-61742500D01*
X23662568Y-61804083D01*
X23370932Y-61924883D01*
X23108466Y-62100257D01*
X22885257Y-62323466D01*
X22709883Y-62585932D01*
X22589083Y-62877568D01*
X22527500Y-63187168D01*
X12192000Y-63187168D01*
X12192000Y-60355000D01*
X16501928Y-60355000D01*
X16501928Y-62335000D01*
X16514188Y-62459482D01*
X16550498Y-62579180D01*
X16609463Y-62689494D01*
X16688815Y-62786185D01*
X16785506Y-62865537D01*
X16895820Y-62924502D01*
X17015518Y-62960812D01*
X17140000Y-62973072D01*
X19120000Y-62973072D01*
X19244482Y-62960812D01*
X19364180Y-62924502D01*
X19474494Y-62865537D01*
X19571185Y-62786185D01*
X19650537Y-62689494D01*
X19709502Y-62579180D01*
X19745812Y-62459482D01*
X19758072Y-62335000D01*
X19758072Y-61407990D01*
X28498354Y-61407990D01*
X28541994Y-61725099D01*
X28646661Y-62027600D01*
X28738339Y-62199120D01*
X29001718Y-62293677D01*
X29950395Y-61345000D01*
X29001718Y-60396323D01*
X28738339Y-60490880D01*
X28598449Y-60778791D01*
X28517416Y-61088462D01*
X28498354Y-61407990D01*
X19758072Y-61407990D01*
X19758072Y-60355000D01*
X19745812Y-60230518D01*
X19709502Y-60110820D01*
X19650537Y-60000506D01*
X19571185Y-59903815D01*
X19474494Y-59824463D01*
X19364180Y-59765498D01*
X19244482Y-59729188D01*
X19120000Y-59716928D01*
X17140000Y-59716928D01*
X17015518Y-59729188D01*
X16895820Y-59765498D01*
X16785506Y-59824463D01*
X16688815Y-59903815D01*
X16609463Y-60000506D01*
X16550498Y-60110820D01*
X16514188Y-60230518D01*
X16501928Y-60355000D01*
X12192000Y-60355000D01*
X12192000Y-24603967D01*
X16145000Y-24603967D01*
X16145000Y-24926033D01*
X16207832Y-25241912D01*
X16331082Y-25539463D01*
X16510013Y-25807252D01*
X16737748Y-26034987D01*
X17005537Y-26213918D01*
X17303088Y-26337168D01*
X17618967Y-26400000D01*
X17941033Y-26400000D01*
X18256912Y-26337168D01*
X18554463Y-26213918D01*
X18822252Y-26034987D01*
X19049987Y-25807252D01*
X19228918Y-25539463D01*
X19352168Y-25241912D01*
X19415000Y-24926033D01*
X19415000Y-24603967D01*
X19352168Y-24288088D01*
X19228918Y-23990537D01*
X19049987Y-23722748D01*
X18822252Y-23495013D01*
X18554463Y-23316082D01*
X18256912Y-23192832D01*
X17941033Y-23130000D01*
X17618967Y-23130000D01*
X17303088Y-23192832D01*
X17005537Y-23316082D01*
X16737748Y-23495013D01*
X16510013Y-23722748D01*
X16331082Y-23990537D01*
X16207832Y-24288088D01*
X16145000Y-24603967D01*
X12192000Y-24603967D01*
X12192000Y-20820413D01*
X16824192Y-20820413D01*
X16919956Y-21084814D01*
X17209571Y-21225704D01*
X17521108Y-21307384D01*
X17842595Y-21326718D01*
X18161675Y-21282961D01*
X18466088Y-21177795D01*
X18640044Y-21084814D01*
X18735808Y-20820413D01*
X17780000Y-19864605D01*
X16824192Y-20820413D01*
X12192000Y-20820413D01*
X12192000Y-19747595D01*
X16138282Y-19747595D01*
X16182039Y-20066675D01*
X16287205Y-20371088D01*
X16380186Y-20545044D01*
X16644587Y-20640808D01*
X17600395Y-19685000D01*
X17959605Y-19685000D01*
X18915413Y-20640808D01*
X19179814Y-20545044D01*
X19320704Y-20255429D01*
X19402384Y-19943892D01*
X19421718Y-19622405D01*
X19377961Y-19303325D01*
X19272795Y-18998912D01*
X19179814Y-18824956D01*
X18915413Y-18729192D01*
X17959605Y-19685000D01*
X17600395Y-19685000D01*
X16644587Y-18729192D01*
X16380186Y-18824956D01*
X16239296Y-19114571D01*
X16157616Y-19426108D01*
X16138282Y-19747595D01*
X12192000Y-19747595D01*
X12192000Y-18549587D01*
X16824192Y-18549587D01*
X17780000Y-19505395D01*
X18735808Y-18549587D01*
X18640044Y-18285186D01*
X18350429Y-18144296D01*
X18038892Y-18062616D01*
X17717405Y-18043282D01*
X17398325Y-18087039D01*
X17093912Y-18192205D01*
X16919956Y-18285186D01*
X16824192Y-18549587D01*
X12192000Y-18549587D01*
X12192000Y-14434117D01*
X12616000Y-14434117D01*
X12616000Y-14775883D01*
X12682675Y-15111081D01*
X12813463Y-15426831D01*
X13003337Y-15710998D01*
X13245002Y-15952663D01*
X13529169Y-16142537D01*
X13844919Y-16273325D01*
X14180117Y-16340000D01*
X14521883Y-16340000D01*
X14857081Y-16273325D01*
X15172831Y-16142537D01*
X15456998Y-15952663D01*
X15698663Y-15710998D01*
X15888537Y-15426831D01*
X16019325Y-15111081D01*
X16086000Y-14775883D01*
X16086000Y-14434117D01*
X16019325Y-14098919D01*
X15888537Y-13783169D01*
X15698663Y-13499002D01*
X15456998Y-13257337D01*
X15172831Y-13067463D01*
X14857081Y-12936675D01*
X14521883Y-12870000D01*
X14180117Y-12870000D01*
X13844919Y-12936675D01*
X13529169Y-13067463D01*
X13245002Y-13257337D01*
X13003337Y-13499002D01*
X12813463Y-13783169D01*
X12682675Y-14098919D01*
X12616000Y-14434117D01*
X12192000Y-14434117D01*
X12192000Y-12192000D01*
X20151088Y-12192000D01*
X20064465Y-12249880D01*
X20064465Y-12249880D01*
G37*
X20064465Y-12249880D02*
X19869880Y-12444465D01*
X19716995Y-12673273D01*
X19611686Y-12927510D01*
X19558000Y-13197408D01*
X19558000Y-13472592D01*
X19611686Y-13742490D01*
X19716995Y-13996727D01*
X19869880Y-14225535D01*
X20064465Y-14420120D01*
X20293273Y-14573005D01*
X20370515Y-14605000D01*
X20293273Y-14636995D01*
X20064465Y-14789880D01*
X19869880Y-14984465D01*
X19716995Y-15213273D01*
X19611686Y-15467510D01*
X19558000Y-15737408D01*
X19558000Y-16012592D01*
X19611686Y-16282490D01*
X19716995Y-16536727D01*
X19869880Y-16765535D01*
X20064465Y-16960120D01*
X20293273Y-17113005D01*
X20370515Y-17145000D01*
X20293273Y-17176995D01*
X20064465Y-17329880D01*
X19869880Y-17524465D01*
X19716995Y-17753273D01*
X19611686Y-18007510D01*
X19558000Y-18277408D01*
X19558000Y-18552592D01*
X19611686Y-18822490D01*
X19716995Y-19076727D01*
X19869880Y-19305535D01*
X20064465Y-19500120D01*
X20293273Y-19653005D01*
X20332415Y-19669218D01*
X20217073Y-19716995D01*
X19988265Y-19869880D01*
X19793680Y-20064465D01*
X19640795Y-20293273D01*
X19535486Y-20547510D01*
X19481800Y-20817408D01*
X19481800Y-21092592D01*
X19535486Y-21362490D01*
X19640795Y-21616727D01*
X19793680Y-21845535D01*
X19988265Y-22040120D01*
X20217073Y-22193005D01*
X20332415Y-22240782D01*
X20293273Y-22256995D01*
X20064465Y-22409880D01*
X19869880Y-22604465D01*
X19716995Y-22833273D01*
X19611686Y-23087510D01*
X19558000Y-23357408D01*
X19558000Y-23632592D01*
X19611686Y-23902490D01*
X19716995Y-24156727D01*
X19869880Y-24385535D01*
X20064465Y-24580120D01*
X20293273Y-24733005D01*
X20370515Y-24765000D01*
X20293273Y-24796995D01*
X20064465Y-24949880D01*
X19869880Y-25144465D01*
X19716995Y-25373273D01*
X19611686Y-25627510D01*
X19558000Y-25897408D01*
X19558000Y-26172592D01*
X19611686Y-26442490D01*
X19716995Y-26696727D01*
X19869880Y-26925535D01*
X20064465Y-27120120D01*
X20293273Y-27273005D01*
X20370515Y-27305000D01*
X20293273Y-27336995D01*
X20064465Y-27489880D01*
X19869880Y-27684465D01*
X19716995Y-27913273D01*
X19611686Y-28167510D01*
X19558000Y-28437408D01*
X19558000Y-28712592D01*
X19611686Y-28982490D01*
X19654147Y-29085000D01*
X19234909Y-29085000D01*
X19228918Y-29070537D01*
X19049987Y-28802748D01*
X18822252Y-28575013D01*
X18554463Y-28396082D01*
X18256912Y-28272832D01*
X17941033Y-28210000D01*
X17618967Y-28210000D01*
X17303088Y-28272832D01*
X17005537Y-28396082D01*
X16737748Y-28575013D01*
X16510013Y-28802748D01*
X16331082Y-29070537D01*
X16207832Y-29368088D01*
X16145000Y-29683967D01*
X16145000Y-30006033D01*
X16207832Y-30321912D01*
X16331082Y-30619463D01*
X16510013Y-30887252D01*
X16737748Y-31114987D01*
X17005537Y-31293918D01*
X17303088Y-31417168D01*
X17380167Y-31432500D01*
X17303088Y-31447832D01*
X17005537Y-31571082D01*
X16737748Y-31750013D01*
X16510013Y-31977748D01*
X16331082Y-32245537D01*
X16207832Y-32543088D01*
X16185387Y-32655927D01*
X14892764Y-33948551D01*
X14839920Y-33991919D01*
X14796551Y-34044764D01*
X14796548Y-34044767D01*
X14666844Y-34202812D01*
X14538236Y-34443420D01*
X14459040Y-34704493D01*
X14432300Y-34976000D01*
X14439001Y-35044039D01*
X14439000Y-43914271D01*
X14432300Y-43982300D01*
X14439000Y-44050329D01*
X14439000Y-44050336D01*
X14455932Y-44222252D01*
X14459040Y-44253807D01*
X14480940Y-44326002D01*
X14538236Y-44514880D01*
X14659767Y-44742247D01*
X14666844Y-44755488D01*
X14785541Y-44900120D01*
X14839919Y-44966380D01*
X14892765Y-45009750D01*
X17521271Y-47638256D01*
X17360274Y-47704943D01*
X17094123Y-47882780D01*
X16867780Y-48109123D01*
X16689943Y-48375274D01*
X16567448Y-48671005D01*
X16505000Y-48984951D01*
X16505000Y-49305049D01*
X16567448Y-49618995D01*
X16689943Y-49914726D01*
X16867780Y-50180877D01*
X17094123Y-50407220D01*
X17360274Y-50585057D01*
X17656005Y-50707552D01*
X17969951Y-50770000D01*
X18290049Y-50770000D01*
X18603995Y-50707552D01*
X18899726Y-50585057D01*
X19165877Y-50407220D01*
X19392220Y-50180877D01*
X19570057Y-49914726D01*
X19636744Y-49753729D01*
X19959250Y-50076236D01*
X20002619Y-50129081D01*
X20055464Y-50172450D01*
X20055466Y-50172452D01*
X20136743Y-50239154D01*
X20213512Y-50302157D01*
X20454119Y-50430764D01*
X20715193Y-50509960D01*
X20918663Y-50530000D01*
X20918672Y-50530000D01*
X20986699Y-50536700D01*
X21054726Y-50530000D01*
X29277876Y-50530000D01*
X29360274Y-50585057D01*
X29656005Y-50707552D01*
X29969951Y-50770000D01*
X30290049Y-50770000D01*
X30603995Y-50707552D01*
X30899726Y-50585057D01*
X31165877Y-50407220D01*
X31204900Y-50368197D01*
X31204901Y-60111553D01*
X31194370Y-60101022D01*
X31078676Y-60216716D01*
X30984120Y-59953339D01*
X30696209Y-59813449D01*
X30386538Y-59732416D01*
X30067010Y-59713354D01*
X29749901Y-59756994D01*
X29447400Y-59861661D01*
X29275880Y-59953339D01*
X29181323Y-60216718D01*
X30130000Y-61165395D01*
X30144143Y-61151253D01*
X30323748Y-61330858D01*
X30309605Y-61345000D01*
X30323748Y-61359143D01*
X30144143Y-61538748D01*
X30130000Y-61524605D01*
X29181323Y-62473282D01*
X29275880Y-62736661D01*
X29563791Y-62876551D01*
X29873462Y-62957584D01*
X30192990Y-62976646D01*
X30510099Y-62933006D01*
X30812600Y-62828339D01*
X30984120Y-62736661D01*
X31078676Y-62473284D01*
X31194370Y-62588978D01*
X31204901Y-62578447D01*
X31204901Y-67941567D01*
X31201224Y-67978900D01*
X31204901Y-68016233D01*
X31215898Y-68127886D01*
X31229080Y-68171342D01*
X31259354Y-68271146D01*
X31329926Y-68403176D01*
X31401101Y-68489902D01*
X31424900Y-68518901D01*
X31453898Y-68542699D01*
X32128000Y-69216802D01*
X32128000Y-69388788D01*
X32171617Y-69608067D01*
X32257176Y-69814624D01*
X32381388Y-70000520D01*
X32539480Y-70158612D01*
X32725376Y-70282824D01*
X32931933Y-70368383D01*
X33151212Y-70412000D01*
X33374788Y-70412000D01*
X33594067Y-70368383D01*
X33800624Y-70282824D01*
X33986520Y-70158612D01*
X34144612Y-70000520D01*
X34268824Y-69814624D01*
X34324953Y-69679117D01*
X67734000Y-69679117D01*
X67734000Y-70020883D01*
X67800675Y-70356081D01*
X67931463Y-70671831D01*
X68121337Y-70955998D01*
X68363002Y-71197663D01*
X68647169Y-71387537D01*
X68962919Y-71518325D01*
X69298117Y-71585000D01*
X69639883Y-71585000D01*
X69975081Y-71518325D01*
X70290831Y-71387537D01*
X70574998Y-71197663D01*
X70816663Y-70955998D01*
X71006537Y-70671831D01*
X71137325Y-70356081D01*
X71204000Y-70020883D01*
X71204000Y-69679117D01*
X71137325Y-69343919D01*
X71006537Y-69028169D01*
X70816663Y-68744002D01*
X70574998Y-68502337D01*
X70290831Y-68312463D01*
X69975081Y-68181675D01*
X69639883Y-68115000D01*
X69298117Y-68115000D01*
X68962919Y-68181675D01*
X68647169Y-68312463D01*
X68363002Y-68502337D01*
X68121337Y-68744002D01*
X67931463Y-69028169D01*
X67800675Y-69343919D01*
X67734000Y-69679117D01*
X34324953Y-69679117D01*
X34354383Y-69608067D01*
X34398000Y-69388788D01*
X34398000Y-69165212D01*
X34354383Y-68945933D01*
X34268824Y-68739376D01*
X34144612Y-68553480D01*
X33986520Y-68395388D01*
X33800624Y-68271176D01*
X33776057Y-68261000D01*
X33800624Y-68250824D01*
X33986520Y-68126612D01*
X34144612Y-67968520D01*
X34268824Y-67782624D01*
X34354383Y-67576067D01*
X34398000Y-67356788D01*
X34398000Y-67133212D01*
X34354383Y-66913933D01*
X34268824Y-66707376D01*
X34144612Y-66521480D01*
X33986520Y-66363388D01*
X33800624Y-66239176D01*
X33776057Y-66229000D01*
X33800624Y-66218824D01*
X33986520Y-66094612D01*
X34144612Y-65936520D01*
X34268824Y-65750624D01*
X34346452Y-65563212D01*
X49490000Y-65563212D01*
X49490000Y-65786788D01*
X49533617Y-66006067D01*
X49619176Y-66212624D01*
X49743388Y-66398520D01*
X49901480Y-66556612D01*
X50087376Y-66680824D01*
X50293933Y-66766383D01*
X50513212Y-66810000D01*
X50736788Y-66810000D01*
X50956067Y-66766383D01*
X51162624Y-66680824D01*
X51348520Y-66556612D01*
X51506612Y-66398520D01*
X51630824Y-66212624D01*
X51716383Y-66006067D01*
X51760000Y-65786788D01*
X51760000Y-65563212D01*
X51716383Y-65343933D01*
X51630824Y-65137376D01*
X51506612Y-64951480D01*
X51348520Y-64793388D01*
X51162624Y-64669176D01*
X50956067Y-64583617D01*
X50736788Y-64540000D01*
X50513212Y-64540000D01*
X50293933Y-64583617D01*
X50087376Y-64669176D01*
X49901480Y-64793388D01*
X49743388Y-64951480D01*
X49619176Y-65137376D01*
X49533617Y-65343933D01*
X49490000Y-65563212D01*
X34346452Y-65563212D01*
X34354383Y-65544067D01*
X34398000Y-65324788D01*
X34398000Y-65101212D01*
X34354383Y-64881933D01*
X34268824Y-64675376D01*
X34144612Y-64489480D01*
X33986520Y-64331388D01*
X33800624Y-64207176D01*
X33776057Y-64197000D01*
X33800624Y-64186824D01*
X33986520Y-64062612D01*
X34144612Y-63904520D01*
X34268824Y-63718624D01*
X34354383Y-63512067D01*
X34398000Y-63292788D01*
X34398000Y-63069212D01*
X34387414Y-63015989D01*
X49251600Y-63015989D01*
X49251600Y-63288811D01*
X49304825Y-63556389D01*
X49409229Y-63808443D01*
X49560801Y-64035286D01*
X49753714Y-64228199D01*
X49980557Y-64379771D01*
X50232611Y-64484175D01*
X50500189Y-64537400D01*
X50773011Y-64537400D01*
X51040589Y-64484175D01*
X51292643Y-64379771D01*
X51519486Y-64228199D01*
X51712399Y-64035286D01*
X51863971Y-63808443D01*
X51968375Y-63556389D01*
X52021600Y-63288811D01*
X52021600Y-63187168D01*
X59357500Y-63187168D01*
X59357500Y-63502832D01*
X59419083Y-63812432D01*
X59539883Y-64104068D01*
X59715257Y-64366534D01*
X59938466Y-64589743D01*
X60200932Y-64765117D01*
X60492568Y-64885917D01*
X60802168Y-64947500D01*
X61117832Y-64947500D01*
X61427432Y-64885917D01*
X61719068Y-64765117D01*
X61981534Y-64589743D01*
X62204743Y-64366534D01*
X62380117Y-64104068D01*
X62500917Y-63812432D01*
X62562500Y-63502832D01*
X62562500Y-63187168D01*
X62500917Y-62877568D01*
X62380117Y-62585932D01*
X62304847Y-62473282D01*
X66011323Y-62473282D01*
X66105880Y-62736661D01*
X66393791Y-62876551D01*
X66703462Y-62957584D01*
X67022990Y-62976646D01*
X67340099Y-62933006D01*
X67642600Y-62828339D01*
X67814120Y-62736661D01*
X67908677Y-62473282D01*
X66960000Y-61524605D01*
X66011323Y-62473282D01*
X62304847Y-62473282D01*
X62204743Y-62323466D01*
X61981534Y-62100257D01*
X61719068Y-61924883D01*
X61427432Y-61804083D01*
X61117832Y-61742500D01*
X60802168Y-61742500D01*
X60492568Y-61804083D01*
X60200932Y-61924883D01*
X59938466Y-62100257D01*
X59715257Y-62323466D01*
X59539883Y-62585932D01*
X59419083Y-62877568D01*
X59357500Y-63187168D01*
X52021600Y-63187168D01*
X52021600Y-63015989D01*
X51968375Y-62748411D01*
X51863971Y-62496357D01*
X51712399Y-62269514D01*
X51519486Y-62076601D01*
X51292643Y-61925029D01*
X51040589Y-61820625D01*
X50773011Y-61767400D01*
X50500189Y-61767400D01*
X50232611Y-61820625D01*
X49980557Y-61925029D01*
X49753714Y-62076601D01*
X49560801Y-62269514D01*
X49409229Y-62496357D01*
X49304825Y-62748411D01*
X49251600Y-63015989D01*
X34387414Y-63015989D01*
X34354383Y-62849933D01*
X34268824Y-62643376D01*
X34144612Y-62457480D01*
X33986520Y-62299388D01*
X33800624Y-62175176D01*
X33776057Y-62165000D01*
X33800624Y-62154824D01*
X33986520Y-62030612D01*
X34108132Y-61909000D01*
X39288378Y-61909000D01*
X39325700Y-61912676D01*
X39363022Y-61909000D01*
X39363033Y-61909000D01*
X39474686Y-61898003D01*
X39617947Y-61854546D01*
X39749976Y-61783974D01*
X39865701Y-61689001D01*
X39889504Y-61659997D01*
X41046289Y-60503212D01*
X49510000Y-60503212D01*
X49510000Y-60726788D01*
X49553617Y-60946067D01*
X49639176Y-61152624D01*
X49763388Y-61338520D01*
X49921480Y-61496612D01*
X50107376Y-61620824D01*
X50313933Y-61706383D01*
X50533212Y-61750000D01*
X50756788Y-61750000D01*
X50976067Y-61706383D01*
X51182624Y-61620824D01*
X51368520Y-61496612D01*
X51526612Y-61338520D01*
X51650824Y-61152624D01*
X51736383Y-60946067D01*
X51780000Y-60726788D01*
X51780000Y-60503212D01*
X51750520Y-60355000D01*
X53331928Y-60355000D01*
X53331928Y-62335000D01*
X53344188Y-62459482D01*
X53380498Y-62579180D01*
X53439463Y-62689494D01*
X53518815Y-62786185D01*
X53615506Y-62865537D01*
X53725820Y-62924502D01*
X53845518Y-62960812D01*
X53970000Y-62973072D01*
X55950000Y-62973072D01*
X56074482Y-62960812D01*
X56194180Y-62924502D01*
X56304494Y-62865537D01*
X56401185Y-62786185D01*
X56480537Y-62689494D01*
X56539502Y-62579180D01*
X56575812Y-62459482D01*
X56588072Y-62335000D01*
X56588072Y-61407990D01*
X65328354Y-61407990D01*
X65371994Y-61725099D01*
X65476661Y-62027600D01*
X65568339Y-62199120D01*
X65831718Y-62293677D01*
X66780395Y-61345000D01*
X67139605Y-61345000D01*
X68088282Y-62293677D01*
X68351661Y-62199120D01*
X68491551Y-61911209D01*
X68572584Y-61601538D01*
X68591646Y-61282010D01*
X68548006Y-60964901D01*
X68443339Y-60662400D01*
X68351661Y-60490880D01*
X68088282Y-60396323D01*
X67139605Y-61345000D01*
X66780395Y-61345000D01*
X65831718Y-60396323D01*
X65568339Y-60490880D01*
X65428449Y-60778791D01*
X65347416Y-61088462D01*
X65328354Y-61407990D01*
X56588072Y-61407990D01*
X56588072Y-60355000D01*
X56575812Y-60230518D01*
X56571626Y-60216718D01*
X66011323Y-60216718D01*
X66960000Y-61165395D01*
X67908677Y-60216718D01*
X67814120Y-59953339D01*
X67526209Y-59813449D01*
X67216538Y-59732416D01*
X66897010Y-59713354D01*
X66579901Y-59756994D01*
X66277400Y-59861661D01*
X66105880Y-59953339D01*
X66011323Y-60216718D01*
X56571626Y-60216718D01*
X56539502Y-60110820D01*
X56480537Y-60000506D01*
X56401185Y-59903815D01*
X56304494Y-59824463D01*
X56194180Y-59765498D01*
X56074482Y-59729188D01*
X55950000Y-59716928D01*
X53970000Y-59716928D01*
X53845518Y-59729188D01*
X53725820Y-59765498D01*
X53615506Y-59824463D01*
X53518815Y-59903815D01*
X53439463Y-60000506D01*
X53380498Y-60110820D01*
X53344188Y-60230518D01*
X53331928Y-60355000D01*
X51750520Y-60355000D01*
X51736383Y-60283933D01*
X51650824Y-60077376D01*
X51526612Y-59891480D01*
X51368520Y-59733388D01*
X51182624Y-59609176D01*
X50976067Y-59523617D01*
X50756788Y-59480000D01*
X50533212Y-59480000D01*
X50313933Y-59523617D01*
X50107376Y-59609176D01*
X49921480Y-59733388D01*
X49763388Y-59891480D01*
X49639176Y-60077376D01*
X49553617Y-60283933D01*
X49510000Y-60503212D01*
X41046289Y-60503212D01*
X48487630Y-53061872D01*
X48510392Y-53089608D01*
X48728899Y-53268932D01*
X48978192Y-53402182D01*
X49248691Y-53484236D01*
X49459508Y-53505000D01*
X49600492Y-53505000D01*
X49811309Y-53484236D01*
X50081808Y-53402182D01*
X50331101Y-53268932D01*
X50549608Y-53089608D01*
X50728932Y-52871101D01*
X50862182Y-52621808D01*
X50944236Y-52351309D01*
X50971943Y-52070000D01*
X50944236Y-51788691D01*
X50862182Y-51518192D01*
X50728932Y-51268899D01*
X50653643Y-51177159D01*
X51173204Y-50657598D01*
X51202201Y-50633801D01*
X51297174Y-50518076D01*
X51367746Y-50386047D01*
X51411203Y-50242786D01*
X51422200Y-50131133D01*
X51422200Y-50131124D01*
X51425876Y-50093801D01*
X51422200Y-50056478D01*
X51422200Y-49097022D01*
X51425876Y-49059699D01*
X51422200Y-49022376D01*
X51422200Y-49022367D01*
X51411203Y-48910714D01*
X51367746Y-48767453D01*
X51297174Y-48635424D01*
X51202201Y-48519699D01*
X51173202Y-48495900D01*
X50611497Y-47934196D01*
X50728932Y-47791101D01*
X50862182Y-47541808D01*
X50944236Y-47271309D01*
X50971943Y-46990000D01*
X50944236Y-46708691D01*
X50862182Y-46438192D01*
X50728932Y-46188899D01*
X50549608Y-45970392D01*
X50331101Y-45791068D01*
X50198142Y-45720000D01*
X50331101Y-45648932D01*
X50549608Y-45469608D01*
X50728932Y-45251101D01*
X50750901Y-45210000D01*
X52032678Y-45210000D01*
X52070000Y-45213676D01*
X52107322Y-45210000D01*
X52107333Y-45210000D01*
X52218986Y-45199003D01*
X52331097Y-45164995D01*
X52567408Y-45212000D01*
X52842592Y-45212000D01*
X53112490Y-45158314D01*
X53366727Y-45053005D01*
X53595535Y-44900120D01*
X53790120Y-44705535D01*
X53943005Y-44476727D01*
X53975000Y-44399485D01*
X54006995Y-44476727D01*
X54159880Y-44705535D01*
X54354465Y-44900120D01*
X54583273Y-45053005D01*
X54837510Y-45158314D01*
X55107408Y-45212000D01*
X55382592Y-45212000D01*
X55652490Y-45158314D01*
X55906727Y-45053005D01*
X56135535Y-44900120D01*
X56255090Y-44780565D01*
X56999040Y-44780565D01*
X57066020Y-45020656D01*
X57315048Y-45137756D01*
X57582135Y-45204023D01*
X57857017Y-45216910D01*
X58129133Y-45175922D01*
X58388023Y-45082636D01*
X58503980Y-45020656D01*
X58570960Y-44780565D01*
X57785000Y-43994605D01*
X56999040Y-44780565D01*
X56255090Y-44780565D01*
X56330120Y-44705535D01*
X56483005Y-44476727D01*
X56512692Y-44405057D01*
X56517364Y-44418023D01*
X56579344Y-44533980D01*
X56819435Y-44600960D01*
X57605395Y-43815000D01*
X57591253Y-43800858D01*
X57770858Y-43621253D01*
X57785000Y-43635395D01*
X57799143Y-43621253D01*
X57978748Y-43800858D01*
X57964605Y-43815000D01*
X58750565Y-44600960D01*
X58990656Y-44533980D01*
X59054485Y-44398240D01*
X59086995Y-44476727D01*
X59239880Y-44705535D01*
X59434465Y-44900120D01*
X59663273Y-45053005D01*
X59917510Y-45158314D01*
X60187408Y-45212000D01*
X60462592Y-45212000D01*
X60732490Y-45158314D01*
X60986727Y-45053005D01*
X61215535Y-44900120D01*
X61410120Y-44705535D01*
X61563005Y-44476727D01*
X61595000Y-44399485D01*
X61626995Y-44476727D01*
X61779880Y-44705535D01*
X61974465Y-44900120D01*
X62203273Y-45053005D01*
X62457510Y-45158314D01*
X62727408Y-45212000D01*
X63002592Y-45212000D01*
X63272490Y-45158314D01*
X63526727Y-45053005D01*
X63755535Y-44900120D01*
X63950120Y-44705535D01*
X64103005Y-44476727D01*
X64208314Y-44222490D01*
X64262000Y-43952592D01*
X64262000Y-43677408D01*
X64208314Y-43407510D01*
X64103005Y-43153273D01*
X63950120Y-42924465D01*
X63755535Y-42729880D01*
X63526727Y-42576995D01*
X63411385Y-42529218D01*
X63450527Y-42513005D01*
X63679335Y-42360120D01*
X63873920Y-42165535D01*
X64026805Y-41936727D01*
X64132114Y-41682490D01*
X64185800Y-41412592D01*
X64185800Y-41137408D01*
X64132114Y-40867510D01*
X64026805Y-40613273D01*
X63873920Y-40384465D01*
X63679335Y-40189880D01*
X63450527Y-40036995D01*
X63411385Y-40020782D01*
X63526727Y-39973005D01*
X63755535Y-39820120D01*
X63950120Y-39625535D01*
X64103005Y-39396727D01*
X64208314Y-39142490D01*
X64262000Y-38872592D01*
X64262000Y-38597408D01*
X64208314Y-38327510D01*
X64103005Y-38073273D01*
X63950120Y-37844465D01*
X63755535Y-37649880D01*
X63526727Y-37496995D01*
X63411385Y-37449218D01*
X63450527Y-37433005D01*
X63679335Y-37280120D01*
X63873920Y-37085535D01*
X64026805Y-36856727D01*
X64132114Y-36602490D01*
X64185800Y-36332592D01*
X64185800Y-36057408D01*
X64132114Y-35787510D01*
X64026805Y-35533273D01*
X63873920Y-35304465D01*
X63679335Y-35109880D01*
X63450527Y-34956995D01*
X63411385Y-34940782D01*
X63526727Y-34893005D01*
X63755535Y-34740120D01*
X63950120Y-34545535D01*
X64103005Y-34316727D01*
X64208314Y-34062490D01*
X64262000Y-33792592D01*
X64262000Y-33517408D01*
X64208314Y-33247510D01*
X64103005Y-32993273D01*
X63950120Y-32764465D01*
X63755535Y-32569880D01*
X63526727Y-32416995D01*
X63411385Y-32369218D01*
X63450527Y-32353005D01*
X63679335Y-32200120D01*
X63873920Y-32005535D01*
X64026805Y-31776727D01*
X64132114Y-31522490D01*
X64185800Y-31252592D01*
X64185800Y-30977408D01*
X64132114Y-30707510D01*
X64089653Y-30605000D01*
X64585091Y-30605000D01*
X64591082Y-30619463D01*
X64770013Y-30887252D01*
X64997748Y-31114987D01*
X65265537Y-31293918D01*
X65563088Y-31417168D01*
X65640167Y-31432500D01*
X65563088Y-31447832D01*
X65265537Y-31571082D01*
X64997748Y-31750013D01*
X64770013Y-31977748D01*
X64591082Y-32245537D01*
X64467832Y-32543088D01*
X64405000Y-32858967D01*
X64405000Y-33181033D01*
X64467832Y-33496912D01*
X64591082Y-33794463D01*
X64770013Y-34062252D01*
X64997748Y-34289987D01*
X65265537Y-34468918D01*
X65563088Y-34592168D01*
X65675928Y-34614613D01*
X66611001Y-35549687D01*
X66611001Y-36566805D01*
X66516912Y-36527832D01*
X66201033Y-36465000D01*
X65878967Y-36465000D01*
X65563088Y-36527832D01*
X65265537Y-36651082D01*
X64997748Y-36830013D01*
X64770013Y-37057748D01*
X64591082Y-37325537D01*
X64467832Y-37623088D01*
X64405000Y-37938967D01*
X64405000Y-38261033D01*
X64467832Y-38576912D01*
X64591082Y-38874463D01*
X64770013Y-39142252D01*
X64997748Y-39369987D01*
X65265537Y-39548918D01*
X65563088Y-39672168D01*
X65878967Y-39735000D01*
X66201033Y-39735000D01*
X66516912Y-39672168D01*
X66611000Y-39633195D01*
X66611000Y-41646805D01*
X66516912Y-41607832D01*
X66201033Y-41545000D01*
X65878967Y-41545000D01*
X65563088Y-41607832D01*
X65265537Y-41731082D01*
X64997748Y-41910013D01*
X64770013Y-42137748D01*
X64591082Y-42405537D01*
X64467832Y-42703088D01*
X64405000Y-43018967D01*
X64405000Y-43341033D01*
X64467832Y-43656912D01*
X64591082Y-43954463D01*
X64770013Y-44222252D01*
X64997748Y-44449987D01*
X65265537Y-44628918D01*
X65387625Y-44679489D01*
X62307115Y-47760000D01*
X55812124Y-47760000D01*
X55729726Y-47704943D01*
X55433995Y-47582448D01*
X55120049Y-47520000D01*
X54799951Y-47520000D01*
X54486005Y-47582448D01*
X54190274Y-47704943D01*
X53924123Y-47882780D01*
X53697780Y-48109123D01*
X53519943Y-48375274D01*
X53397448Y-48671005D01*
X53335000Y-48984951D01*
X53335000Y-49305049D01*
X53397448Y-49618995D01*
X53519943Y-49914726D01*
X53697780Y-50180877D01*
X53924123Y-50407220D01*
X54190274Y-50585057D01*
X54486005Y-50707552D01*
X54799951Y-50770000D01*
X55120049Y-50770000D01*
X55433995Y-50707552D01*
X55729726Y-50585057D01*
X55812124Y-50530000D01*
X62812771Y-50530000D01*
X62880800Y-50536700D01*
X62948829Y-50530000D01*
X62948837Y-50530000D01*
X63152307Y-50509960D01*
X63413381Y-50430764D01*
X63653988Y-50302157D01*
X63864881Y-50129081D01*
X63908254Y-50076231D01*
X65456821Y-48527664D01*
X65397448Y-48671005D01*
X65335000Y-48984951D01*
X65335000Y-49305049D01*
X65397448Y-49618995D01*
X65519943Y-49914726D01*
X65697780Y-50180877D01*
X65924123Y-50407220D01*
X66190274Y-50585057D01*
X66486005Y-50707552D01*
X66799951Y-50770000D01*
X67120049Y-50770000D01*
X67433995Y-50707552D01*
X67729726Y-50585057D01*
X67995877Y-50407220D01*
X68222220Y-50180877D01*
X68400057Y-49914726D01*
X68522552Y-49618995D01*
X68585000Y-49305049D01*
X68585000Y-48984951D01*
X68522552Y-48671005D01*
X68400057Y-48375274D01*
X68222220Y-48109123D01*
X67995877Y-47882780D01*
X67729726Y-47704943D01*
X67433995Y-47582448D01*
X67120049Y-47520000D01*
X66799951Y-47520000D01*
X66486005Y-47582448D01*
X66342664Y-47641821D01*
X68927241Y-45057245D01*
X68980080Y-45013881D01*
X69023445Y-44961041D01*
X69023452Y-44961034D01*
X69153156Y-44802989D01*
X69153157Y-44802988D01*
X69281764Y-44562381D01*
X69360960Y-44301307D01*
X69381000Y-44097837D01*
X69381000Y-44097828D01*
X69387700Y-44029801D01*
X69381000Y-43961774D01*
X69381000Y-35044029D01*
X69387700Y-34976000D01*
X69381000Y-34907971D01*
X69381000Y-34907963D01*
X69360960Y-34704493D01*
X69281764Y-34443419D01*
X69153157Y-34202812D01*
X69122948Y-34166002D01*
X69023452Y-34044766D01*
X69023450Y-34044764D01*
X68980081Y-33991919D01*
X68927236Y-33948550D01*
X67634613Y-32655928D01*
X67612168Y-32543088D01*
X67488918Y-32245537D01*
X67309987Y-31977748D01*
X67082252Y-31750013D01*
X66814463Y-31571082D01*
X66516912Y-31447832D01*
X66439833Y-31432500D01*
X66516912Y-31417168D01*
X66814463Y-31293918D01*
X67082252Y-31114987D01*
X67309987Y-30887252D01*
X67488918Y-30619463D01*
X67612168Y-30321912D01*
X67675000Y-30006033D01*
X67675000Y-29683967D01*
X67612168Y-29368088D01*
X67488918Y-29070537D01*
X67309987Y-28802748D01*
X67082252Y-28575013D01*
X66814463Y-28396082D01*
X66516912Y-28272832D01*
X66201033Y-28210000D01*
X65878967Y-28210000D01*
X65563088Y-28272832D01*
X65265537Y-28396082D01*
X64997748Y-28575013D01*
X64770013Y-28802748D01*
X64591082Y-29070537D01*
X64585091Y-29085000D01*
X64165853Y-29085000D01*
X64208314Y-28982490D01*
X64262000Y-28712592D01*
X64262000Y-28437408D01*
X64208314Y-28167510D01*
X64103005Y-27913273D01*
X63950120Y-27684465D01*
X63755535Y-27489880D01*
X63526727Y-27336995D01*
X63449485Y-27305000D01*
X63526727Y-27273005D01*
X63755535Y-27120120D01*
X63950120Y-26925535D01*
X64103005Y-26696727D01*
X64208314Y-26442490D01*
X64262000Y-26172592D01*
X64262000Y-25897408D01*
X64231372Y-25743430D01*
X64449802Y-25525000D01*
X64585091Y-25525000D01*
X64591082Y-25539463D01*
X64770013Y-25807252D01*
X64997748Y-26034987D01*
X65265537Y-26213918D01*
X65563088Y-26337168D01*
X65878967Y-26400000D01*
X66201033Y-26400000D01*
X66516912Y-26337168D01*
X66814463Y-26213918D01*
X67082252Y-26034987D01*
X67309987Y-25807252D01*
X67488918Y-25539463D01*
X67612168Y-25241912D01*
X67675000Y-24926033D01*
X67675000Y-24603967D01*
X67612168Y-24288088D01*
X67488918Y-23990537D01*
X67309987Y-23722748D01*
X67082252Y-23495013D01*
X66814463Y-23316082D01*
X66516912Y-23192832D01*
X66201033Y-23130000D01*
X65878967Y-23130000D01*
X65563088Y-23192832D01*
X65265537Y-23316082D01*
X64997748Y-23495013D01*
X64770013Y-23722748D01*
X64591082Y-23990537D01*
X64585091Y-24005000D01*
X64449802Y-24005000D01*
X64231372Y-23786570D01*
X64262000Y-23632592D01*
X64262000Y-23357408D01*
X64208314Y-23087510D01*
X64103005Y-22833273D01*
X63950120Y-22604465D01*
X63755535Y-22409880D01*
X63548800Y-22271744D01*
X63548800Y-22127341D01*
X63679335Y-22040120D01*
X63873920Y-21845535D01*
X64026805Y-21616727D01*
X64132114Y-21362490D01*
X64185800Y-21092592D01*
X64185800Y-20820413D01*
X65084192Y-20820413D01*
X65179956Y-21084814D01*
X65469571Y-21225704D01*
X65781108Y-21307384D01*
X66102595Y-21326718D01*
X66421675Y-21282961D01*
X66726088Y-21177795D01*
X66900044Y-21084814D01*
X66995808Y-20820413D01*
X66040000Y-19864605D01*
X65084192Y-20820413D01*
X64185800Y-20820413D01*
X64185800Y-20817408D01*
X64132114Y-20547510D01*
X64026805Y-20293273D01*
X63873920Y-20064465D01*
X63679335Y-19869880D01*
X63496324Y-19747595D01*
X64398282Y-19747595D01*
X64442039Y-20066675D01*
X64547205Y-20371088D01*
X64640186Y-20545044D01*
X64904587Y-20640808D01*
X65860395Y-19685000D01*
X66219605Y-19685000D01*
X67175413Y-20640808D01*
X67439814Y-20545044D01*
X67580704Y-20255429D01*
X67662384Y-19943892D01*
X67681718Y-19622405D01*
X67637961Y-19303325D01*
X67532795Y-18998912D01*
X67439814Y-18824956D01*
X67175413Y-18729192D01*
X66219605Y-19685000D01*
X65860395Y-19685000D01*
X64904587Y-18729192D01*
X64640186Y-18824956D01*
X64499296Y-19114571D01*
X64417616Y-19426108D01*
X64398282Y-19747595D01*
X63496324Y-19747595D01*
X63450527Y-19716995D01*
X63411385Y-19700782D01*
X63526727Y-19653005D01*
X63755535Y-19500120D01*
X63950120Y-19305535D01*
X64103005Y-19076727D01*
X64208314Y-18822490D01*
X64262000Y-18552592D01*
X64262000Y-18549587D01*
X65084192Y-18549587D01*
X66040000Y-19505395D01*
X66995808Y-18549587D01*
X66900044Y-18285186D01*
X66610429Y-18144296D01*
X66298892Y-18062616D01*
X65977405Y-18043282D01*
X65658325Y-18087039D01*
X65353912Y-18192205D01*
X65179956Y-18285186D01*
X65084192Y-18549587D01*
X64262000Y-18549587D01*
X64262000Y-18277408D01*
X64208314Y-18007510D01*
X64103005Y-17753273D01*
X63950120Y-17524465D01*
X63755535Y-17329880D01*
X63526727Y-17176995D01*
X63449485Y-17145000D01*
X63526727Y-17113005D01*
X63755535Y-16960120D01*
X63950120Y-16765535D01*
X64103005Y-16536727D01*
X64208314Y-16282490D01*
X64262000Y-16012592D01*
X64262000Y-15737408D01*
X64208314Y-15467510D01*
X64103005Y-15213273D01*
X63950120Y-14984465D01*
X63755535Y-14789880D01*
X63526727Y-14636995D01*
X63449485Y-14605000D01*
X63526727Y-14573005D01*
X63734587Y-14434117D01*
X67734000Y-14434117D01*
X67734000Y-14775883D01*
X67800675Y-15111081D01*
X67931463Y-15426831D01*
X68121337Y-15710998D01*
X68363002Y-15952663D01*
X68647169Y-16142537D01*
X68962919Y-16273325D01*
X69298117Y-16340000D01*
X69639883Y-16340000D01*
X69975081Y-16273325D01*
X70290831Y-16142537D01*
X70574998Y-15952663D01*
X70816663Y-15710998D01*
X71006537Y-15426831D01*
X71137325Y-15111081D01*
X71204000Y-14775883D01*
X71204000Y-14434117D01*
X71137325Y-14098919D01*
X71006537Y-13783169D01*
X70816663Y-13499002D01*
X70574998Y-13257337D01*
X70290831Y-13067463D01*
X69975081Y-12936675D01*
X69639883Y-12870000D01*
X69298117Y-12870000D01*
X68962919Y-12936675D01*
X68647169Y-13067463D01*
X68363002Y-13257337D01*
X68121337Y-13499002D01*
X67931463Y-13783169D01*
X67800675Y-14098919D01*
X67734000Y-14434117D01*
X63734587Y-14434117D01*
X63755535Y-14420120D01*
X63950120Y-14225535D01*
X64103005Y-13996727D01*
X64208314Y-13742490D01*
X64262000Y-13472592D01*
X64262000Y-13197408D01*
X64208314Y-12927510D01*
X64103005Y-12673273D01*
X63950120Y-12444465D01*
X63755535Y-12249880D01*
X63668912Y-12192000D01*
X71628000Y-12192000D01*
X71628000Y-72263000D01*
X12192000Y-72263000D01*
X12192000Y-69679117D01*
X12616000Y-69679117D01*
X12616000Y-70020883D01*
X12682675Y-70356081D01*
X12813463Y-70671831D01*
X13003337Y-70955998D01*
X13245002Y-71197663D01*
X13529169Y-71387537D01*
X13844919Y-71518325D01*
X14180117Y-71585000D01*
X14521883Y-71585000D01*
X14857081Y-71518325D01*
X15172831Y-71387537D01*
X15456998Y-71197663D01*
X15698663Y-70955998D01*
X15888537Y-70671831D01*
X16019325Y-70356081D01*
X16086000Y-70020883D01*
X16086000Y-69679117D01*
X16019325Y-69343919D01*
X15888537Y-69028169D01*
X15698663Y-68744002D01*
X15456998Y-68502337D01*
X15172831Y-68312463D01*
X14857081Y-68181675D01*
X14521883Y-68115000D01*
X14180117Y-68115000D01*
X13844919Y-68181675D01*
X13529169Y-68312463D01*
X13245002Y-68502337D01*
X13003337Y-68744002D01*
X12813463Y-69028169D01*
X12682675Y-69343919D01*
X12616000Y-69679117D01*
X12192000Y-69679117D01*
X12192000Y-63187168D01*
X22527500Y-63187168D01*
X22527500Y-63502832D01*
X22589083Y-63812432D01*
X22709883Y-64104068D01*
X22885257Y-64366534D01*
X23108466Y-64589743D01*
X23370932Y-64765117D01*
X23662568Y-64885917D01*
X23972168Y-64947500D01*
X24287832Y-64947500D01*
X24597432Y-64885917D01*
X24889068Y-64765117D01*
X25151534Y-64589743D01*
X25374743Y-64366534D01*
X25550117Y-64104068D01*
X25670917Y-63812432D01*
X25732500Y-63502832D01*
X25732500Y-63187168D01*
X25670917Y-62877568D01*
X25550117Y-62585932D01*
X25374743Y-62323466D01*
X25151534Y-62100257D01*
X24889068Y-61924883D01*
X24597432Y-61804083D01*
X24287832Y-61742500D01*
X23972168Y-61742500D01*
X23662568Y-61804083D01*
X23370932Y-61924883D01*
X23108466Y-62100257D01*
X22885257Y-62323466D01*
X22709883Y-62585932D01*
X22589083Y-62877568D01*
X22527500Y-63187168D01*
X12192000Y-63187168D01*
X12192000Y-60355000D01*
X16501928Y-60355000D01*
X16501928Y-62335000D01*
X16514188Y-62459482D01*
X16550498Y-62579180D01*
X16609463Y-62689494D01*
X16688815Y-62786185D01*
X16785506Y-62865537D01*
X16895820Y-62924502D01*
X17015518Y-62960812D01*
X17140000Y-62973072D01*
X19120000Y-62973072D01*
X19244482Y-62960812D01*
X19364180Y-62924502D01*
X19474494Y-62865537D01*
X19571185Y-62786185D01*
X19650537Y-62689494D01*
X19709502Y-62579180D01*
X19745812Y-62459482D01*
X19758072Y-62335000D01*
X19758072Y-61407990D01*
X28498354Y-61407990D01*
X28541994Y-61725099D01*
X28646661Y-62027600D01*
X28738339Y-62199120D01*
X29001718Y-62293677D01*
X29950395Y-61345000D01*
X29001718Y-60396323D01*
X28738339Y-60490880D01*
X28598449Y-60778791D01*
X28517416Y-61088462D01*
X28498354Y-61407990D01*
X19758072Y-61407990D01*
X19758072Y-60355000D01*
X19745812Y-60230518D01*
X19709502Y-60110820D01*
X19650537Y-60000506D01*
X19571185Y-59903815D01*
X19474494Y-59824463D01*
X19364180Y-59765498D01*
X19244482Y-59729188D01*
X19120000Y-59716928D01*
X17140000Y-59716928D01*
X17015518Y-59729188D01*
X16895820Y-59765498D01*
X16785506Y-59824463D01*
X16688815Y-59903815D01*
X16609463Y-60000506D01*
X16550498Y-60110820D01*
X16514188Y-60230518D01*
X16501928Y-60355000D01*
X12192000Y-60355000D01*
X12192000Y-24603967D01*
X16145000Y-24603967D01*
X16145000Y-24926033D01*
X16207832Y-25241912D01*
X16331082Y-25539463D01*
X16510013Y-25807252D01*
X16737748Y-26034987D01*
X17005537Y-26213918D01*
X17303088Y-26337168D01*
X17618967Y-26400000D01*
X17941033Y-26400000D01*
X18256912Y-26337168D01*
X18554463Y-26213918D01*
X18822252Y-26034987D01*
X19049987Y-25807252D01*
X19228918Y-25539463D01*
X19352168Y-25241912D01*
X19415000Y-24926033D01*
X19415000Y-24603967D01*
X19352168Y-24288088D01*
X19228918Y-23990537D01*
X19049987Y-23722748D01*
X18822252Y-23495013D01*
X18554463Y-23316082D01*
X18256912Y-23192832D01*
X17941033Y-23130000D01*
X17618967Y-23130000D01*
X17303088Y-23192832D01*
X17005537Y-23316082D01*
X16737748Y-23495013D01*
X16510013Y-23722748D01*
X16331082Y-23990537D01*
X16207832Y-24288088D01*
X16145000Y-24603967D01*
X12192000Y-24603967D01*
X12192000Y-20820413D01*
X16824192Y-20820413D01*
X16919956Y-21084814D01*
X17209571Y-21225704D01*
X17521108Y-21307384D01*
X17842595Y-21326718D01*
X18161675Y-21282961D01*
X18466088Y-21177795D01*
X18640044Y-21084814D01*
X18735808Y-20820413D01*
X17780000Y-19864605D01*
X16824192Y-20820413D01*
X12192000Y-20820413D01*
X12192000Y-19747595D01*
X16138282Y-19747595D01*
X16182039Y-20066675D01*
X16287205Y-20371088D01*
X16380186Y-20545044D01*
X16644587Y-20640808D01*
X17600395Y-19685000D01*
X17959605Y-19685000D01*
X18915413Y-20640808D01*
X19179814Y-20545044D01*
X19320704Y-20255429D01*
X19402384Y-19943892D01*
X19421718Y-19622405D01*
X19377961Y-19303325D01*
X19272795Y-18998912D01*
X19179814Y-18824956D01*
X18915413Y-18729192D01*
X17959605Y-19685000D01*
X17600395Y-19685000D01*
X16644587Y-18729192D01*
X16380186Y-18824956D01*
X16239296Y-19114571D01*
X16157616Y-19426108D01*
X16138282Y-19747595D01*
X12192000Y-19747595D01*
X12192000Y-18549587D01*
X16824192Y-18549587D01*
X17780000Y-19505395D01*
X18735808Y-18549587D01*
X18640044Y-18285186D01*
X18350429Y-18144296D01*
X18038892Y-18062616D01*
X17717405Y-18043282D01*
X17398325Y-18087039D01*
X17093912Y-18192205D01*
X16919956Y-18285186D01*
X16824192Y-18549587D01*
X12192000Y-18549587D01*
X12192000Y-14434117D01*
X12616000Y-14434117D01*
X12616000Y-14775883D01*
X12682675Y-15111081D01*
X12813463Y-15426831D01*
X13003337Y-15710998D01*
X13245002Y-15952663D01*
X13529169Y-16142537D01*
X13844919Y-16273325D01*
X14180117Y-16340000D01*
X14521883Y-16340000D01*
X14857081Y-16273325D01*
X15172831Y-16142537D01*
X15456998Y-15952663D01*
X15698663Y-15710998D01*
X15888537Y-15426831D01*
X16019325Y-15111081D01*
X16086000Y-14775883D01*
X16086000Y-14434117D01*
X16019325Y-14098919D01*
X15888537Y-13783169D01*
X15698663Y-13499002D01*
X15456998Y-13257337D01*
X15172831Y-13067463D01*
X14857081Y-12936675D01*
X14521883Y-12870000D01*
X14180117Y-12870000D01*
X13844919Y-12936675D01*
X13529169Y-13067463D01*
X13245002Y-13257337D01*
X13003337Y-13499002D01*
X12813463Y-13783169D01*
X12682675Y-14098919D01*
X12616000Y-14434117D01*
X12192000Y-14434117D01*
X12192000Y-12192000D01*
X20151088Y-12192000D01*
X20064465Y-12249880D01*
G36*
X48331068Y-50331101D02*
G01*
X48510392Y-50549608D01*
X48728899Y-50728932D01*
X48791160Y-50762211D01*
X48780997Y-50795714D01*
X48776058Y-50845861D01*
X48728899Y-50871068D01*
X48510392Y-51050392D01*
X48331068Y-51268899D01*
X48305861Y-51316058D01*
X48255714Y-51320997D01*
X48124347Y-51360846D01*
X48112453Y-51364454D01*
X47980423Y-51435026D01*
X47919895Y-51484701D01*
X47864699Y-51529999D01*
X47840901Y-51558997D01*
X39010899Y-60389000D01*
X34108132Y-60389000D01*
X33986520Y-60267388D01*
X33800624Y-60143176D01*
X33776057Y-60133000D01*
X33800624Y-60122824D01*
X33986520Y-59998612D01*
X34144612Y-59840520D01*
X34268824Y-59654624D01*
X34354383Y-59448067D01*
X34398000Y-59228788D01*
X34398000Y-59005212D01*
X34354383Y-58785933D01*
X34268824Y-58579376D01*
X34144612Y-58393480D01*
X33986520Y-58235388D01*
X33800624Y-58111176D01*
X33778716Y-58102101D01*
X33826450Y-58076588D01*
X33861561Y-57863166D01*
X33263000Y-57264605D01*
X33248858Y-57278748D01*
X33175300Y-57205190D01*
X33175300Y-57085000D01*
X33442605Y-57085000D01*
X34041166Y-57683561D01*
X34254588Y-57648450D01*
X34345458Y-57444174D01*
X34394731Y-57226095D01*
X34400511Y-57002594D01*
X34362577Y-56782260D01*
X34282387Y-56573560D01*
X34254588Y-56521550D01*
X34041166Y-56486439D01*
X33442605Y-57085000D01*
X33175300Y-57085000D01*
X33175300Y-56964810D01*
X33248858Y-56891253D01*
X33263000Y-56905395D01*
X33861561Y-56306834D01*
X33826450Y-56093412D01*
X33773734Y-56069962D01*
X33800624Y-56058824D01*
X33986520Y-55934612D01*
X34144612Y-55776520D01*
X34268824Y-55590624D01*
X34354383Y-55384067D01*
X34398000Y-55164788D01*
X34398000Y-54992801D01*
X39100802Y-50290000D01*
X48309099Y-50290000D01*
X48331068Y-50331101D01*
X48331068Y-50331101D01*
G37*
X48331068Y-50331101D02*
X48510392Y-50549608D01*
X48728899Y-50728932D01*
X48791160Y-50762211D01*
X48780997Y-50795714D01*
X48776058Y-50845861D01*
X48728899Y-50871068D01*
X48510392Y-51050392D01*
X48331068Y-51268899D01*
X48305861Y-51316058D01*
X48255714Y-51320997D01*
X48124347Y-51360846D01*
X48112453Y-51364454D01*
X47980423Y-51435026D01*
X47919895Y-51484701D01*
X47864699Y-51529999D01*
X47840901Y-51558997D01*
X39010899Y-60389000D01*
X34108132Y-60389000D01*
X33986520Y-60267388D01*
X33800624Y-60143176D01*
X33776057Y-60133000D01*
X33800624Y-60122824D01*
X33986520Y-59998612D01*
X34144612Y-59840520D01*
X34268824Y-59654624D01*
X34354383Y-59448067D01*
X34398000Y-59228788D01*
X34398000Y-59005212D01*
X34354383Y-58785933D01*
X34268824Y-58579376D01*
X34144612Y-58393480D01*
X33986520Y-58235388D01*
X33800624Y-58111176D01*
X33778716Y-58102101D01*
X33826450Y-58076588D01*
X33861561Y-57863166D01*
X33263000Y-57264605D01*
X33248858Y-57278748D01*
X33175300Y-57205190D01*
X33175300Y-57085000D01*
X33442605Y-57085000D01*
X34041166Y-57683561D01*
X34254588Y-57648450D01*
X34345458Y-57444174D01*
X34394731Y-57226095D01*
X34400511Y-57002594D01*
X34362577Y-56782260D01*
X34282387Y-56573560D01*
X34254588Y-56521550D01*
X34041166Y-56486439D01*
X33442605Y-57085000D01*
X33175300Y-57085000D01*
X33175300Y-56964810D01*
X33248858Y-56891253D01*
X33263000Y-56905395D01*
X33861561Y-56306834D01*
X33826450Y-56093412D01*
X33773734Y-56069962D01*
X33800624Y-56058824D01*
X33986520Y-55934612D01*
X34144612Y-55776520D01*
X34268824Y-55590624D01*
X34354383Y-55384067D01*
X34398000Y-55164788D01*
X34398000Y-54992801D01*
X39100802Y-50290000D01*
X48309099Y-50290000D01*
X48331068Y-50331101D01*
G36*
X19535486Y-30707510D02*
G01*
X19481800Y-30977408D01*
X19481800Y-31252592D01*
X19535486Y-31522490D01*
X19640795Y-31776727D01*
X19793680Y-32005535D01*
X19988265Y-32200120D01*
X20217073Y-32353005D01*
X20332415Y-32400782D01*
X20293273Y-32416995D01*
X20064465Y-32569880D01*
X19869880Y-32764465D01*
X19716995Y-32993273D01*
X19611686Y-33247510D01*
X19558000Y-33517408D01*
X19558000Y-33792592D01*
X19611686Y-34062490D01*
X19716995Y-34316727D01*
X19869880Y-34545535D01*
X20064465Y-34740120D01*
X20293273Y-34893005D01*
X20332415Y-34909218D01*
X20217073Y-34956995D01*
X19988265Y-35109880D01*
X19793680Y-35304465D01*
X19640795Y-35533273D01*
X19535486Y-35787510D01*
X19481800Y-36057408D01*
X19481800Y-36332592D01*
X19535486Y-36602490D01*
X19640795Y-36856727D01*
X19793680Y-37085535D01*
X19988265Y-37280120D01*
X20217073Y-37433005D01*
X20332415Y-37480782D01*
X20293273Y-37496995D01*
X20064465Y-37649880D01*
X19869880Y-37844465D01*
X19716995Y-38073273D01*
X19611686Y-38327510D01*
X19558000Y-38597408D01*
X19558000Y-38872592D01*
X19611686Y-39142490D01*
X19716995Y-39396727D01*
X19869880Y-39625535D01*
X20064465Y-39820120D01*
X20293273Y-39973005D01*
X20332415Y-39989218D01*
X20217073Y-40036995D01*
X19988265Y-40189880D01*
X19793680Y-40384465D01*
X19640795Y-40613273D01*
X19535486Y-40867510D01*
X19481800Y-41137408D01*
X19481800Y-41412592D01*
X19535486Y-41682490D01*
X19640795Y-41936727D01*
X19793680Y-42165535D01*
X19988265Y-42360120D01*
X20217073Y-42513005D01*
X20332415Y-42560782D01*
X20293273Y-42576995D01*
X20064465Y-42729880D01*
X19869880Y-42924465D01*
X19716995Y-43153273D01*
X19611686Y-43407510D01*
X19558000Y-43677408D01*
X19558000Y-43952592D01*
X19611686Y-44222490D01*
X19716995Y-44476727D01*
X19869880Y-44705535D01*
X20064465Y-44900120D01*
X20293273Y-45053005D01*
X20547510Y-45158314D01*
X20817408Y-45212000D01*
X21092592Y-45212000D01*
X21362490Y-45158314D01*
X21616727Y-45053005D01*
X21845535Y-44900120D01*
X22040120Y-44705535D01*
X22193005Y-44476727D01*
X22225000Y-44399485D01*
X22256995Y-44476727D01*
X22409880Y-44705535D01*
X22604465Y-44900120D01*
X22833273Y-45053005D01*
X23087510Y-45158314D01*
X23357408Y-45212000D01*
X23632592Y-45212000D01*
X23786570Y-45181372D01*
X24045901Y-45440703D01*
X24069699Y-45469701D01*
X24185424Y-45564674D01*
X24317453Y-45635246D01*
X24460714Y-45678703D01*
X24572367Y-45689700D01*
X24572377Y-45689700D01*
X24609700Y-45693376D01*
X24647023Y-45689700D01*
X27422978Y-45689700D01*
X27460300Y-45693376D01*
X27497622Y-45689700D01*
X27497633Y-45689700D01*
X27609286Y-45678703D01*
X27752547Y-45635246D01*
X27884576Y-45564674D01*
X28000301Y-45469701D01*
X28024104Y-45440698D01*
X28283429Y-45181372D01*
X28437408Y-45212000D01*
X28712592Y-45212000D01*
X28982490Y-45158314D01*
X29236727Y-45053005D01*
X29465535Y-44900120D01*
X29585090Y-44780565D01*
X30329040Y-44780565D01*
X30396020Y-45020656D01*
X30645048Y-45137756D01*
X30912135Y-45204023D01*
X31187017Y-45216910D01*
X31459133Y-45175922D01*
X31718023Y-45082636D01*
X31833980Y-45020656D01*
X31900960Y-44780565D01*
X31115000Y-43994605D01*
X30329040Y-44780565D01*
X29585090Y-44780565D01*
X29660120Y-44705535D01*
X29813005Y-44476727D01*
X29842692Y-44405057D01*
X29847364Y-44418023D01*
X29909344Y-44533980D01*
X30149435Y-44600960D01*
X30935395Y-43815000D01*
X30149435Y-43029040D01*
X29909344Y-43096020D01*
X29845515Y-43231760D01*
X29813005Y-43153273D01*
X29660120Y-42924465D01*
X29465535Y-42729880D01*
X29236727Y-42576995D01*
X29121385Y-42529218D01*
X29160527Y-42513005D01*
X29389335Y-42360120D01*
X29583920Y-42165535D01*
X29736805Y-41936727D01*
X29768800Y-41859485D01*
X29800795Y-41936727D01*
X29953680Y-42165535D01*
X30148265Y-42360120D01*
X30377073Y-42513005D01*
X30489294Y-42559489D01*
X30396020Y-42609344D01*
X30329040Y-42849435D01*
X31115000Y-43635395D01*
X31129143Y-43621253D01*
X31308748Y-43800858D01*
X31294605Y-43815000D01*
X32080565Y-44600960D01*
X32230000Y-44559271D01*
X32230000Y-44759277D01*
X32226324Y-44796600D01*
X32230000Y-44833922D01*
X32230000Y-44833932D01*
X32240997Y-44945585D01*
X32273582Y-45053005D01*
X32284454Y-45088846D01*
X32355026Y-45220876D01*
X32393753Y-45268064D01*
X32449999Y-45336601D01*
X32479002Y-45360403D01*
X33188624Y-46070026D01*
X33091068Y-46188899D01*
X32957818Y-46438192D01*
X32875764Y-46708691D01*
X32848057Y-46990000D01*
X32875764Y-47271309D01*
X32957818Y-47541808D01*
X33091068Y-47791101D01*
X33166357Y-47882841D01*
X31755000Y-49294199D01*
X31755000Y-48984951D01*
X31692552Y-48671005D01*
X31570057Y-48375274D01*
X31392220Y-48109123D01*
X31165877Y-47882780D01*
X30899726Y-47704943D01*
X30603995Y-47582448D01*
X30290049Y-47520000D01*
X29969951Y-47520000D01*
X29656005Y-47582448D01*
X29360274Y-47704943D01*
X29277876Y-47760000D01*
X21560386Y-47760000D01*
X18465962Y-44665576D01*
X18554463Y-44628918D01*
X18822252Y-44449987D01*
X19049987Y-44222252D01*
X19228918Y-43954463D01*
X19352168Y-43656912D01*
X19415000Y-43341033D01*
X19415000Y-43018967D01*
X19352168Y-42703088D01*
X19228918Y-42405537D01*
X19049987Y-42137748D01*
X18822252Y-41910013D01*
X18554463Y-41731082D01*
X18256912Y-41607832D01*
X17941033Y-41545000D01*
X17618967Y-41545000D01*
X17303088Y-41607832D01*
X17209000Y-41646805D01*
X17209000Y-39633195D01*
X17303088Y-39672168D01*
X17618967Y-39735000D01*
X17941033Y-39735000D01*
X18256912Y-39672168D01*
X18554463Y-39548918D01*
X18822252Y-39369987D01*
X19049987Y-39142252D01*
X19228918Y-38874463D01*
X19352168Y-38576912D01*
X19415000Y-38261033D01*
X19415000Y-37938967D01*
X19352168Y-37623088D01*
X19228918Y-37325537D01*
X19049987Y-37057748D01*
X18822252Y-36830013D01*
X18554463Y-36651082D01*
X18256912Y-36527832D01*
X17941033Y-36465000D01*
X17618967Y-36465000D01*
X17303088Y-36527832D01*
X17209000Y-36566805D01*
X17209000Y-35549685D01*
X18144073Y-34614613D01*
X18256912Y-34592168D01*
X18554463Y-34468918D01*
X18822252Y-34289987D01*
X19049987Y-34062252D01*
X19228918Y-33794463D01*
X19352168Y-33496912D01*
X19415000Y-33181033D01*
X19415000Y-32858967D01*
X19352168Y-32543088D01*
X19228918Y-32245537D01*
X19049987Y-31977748D01*
X18822252Y-31750013D01*
X18554463Y-31571082D01*
X18256912Y-31447832D01*
X18179833Y-31432500D01*
X18256912Y-31417168D01*
X18554463Y-31293918D01*
X18822252Y-31114987D01*
X19049987Y-30887252D01*
X19228918Y-30619463D01*
X19234909Y-30605000D01*
X19577947Y-30605000D01*
X19535486Y-30707510D01*
X19535486Y-30707510D01*
G37*
X19535486Y-30707510D02*
X19481800Y-30977408D01*
X19481800Y-31252592D01*
X19535486Y-31522490D01*
X19640795Y-31776727D01*
X19793680Y-32005535D01*
X19988265Y-32200120D01*
X20217073Y-32353005D01*
X20332415Y-32400782D01*
X20293273Y-32416995D01*
X20064465Y-32569880D01*
X19869880Y-32764465D01*
X19716995Y-32993273D01*
X19611686Y-33247510D01*
X19558000Y-33517408D01*
X19558000Y-33792592D01*
X19611686Y-34062490D01*
X19716995Y-34316727D01*
X19869880Y-34545535D01*
X20064465Y-34740120D01*
X20293273Y-34893005D01*
X20332415Y-34909218D01*
X20217073Y-34956995D01*
X19988265Y-35109880D01*
X19793680Y-35304465D01*
X19640795Y-35533273D01*
X19535486Y-35787510D01*
X19481800Y-36057408D01*
X19481800Y-36332592D01*
X19535486Y-36602490D01*
X19640795Y-36856727D01*
X19793680Y-37085535D01*
X19988265Y-37280120D01*
X20217073Y-37433005D01*
X20332415Y-37480782D01*
X20293273Y-37496995D01*
X20064465Y-37649880D01*
X19869880Y-37844465D01*
X19716995Y-38073273D01*
X19611686Y-38327510D01*
X19558000Y-38597408D01*
X19558000Y-38872592D01*
X19611686Y-39142490D01*
X19716995Y-39396727D01*
X19869880Y-39625535D01*
X20064465Y-39820120D01*
X20293273Y-39973005D01*
X20332415Y-39989218D01*
X20217073Y-40036995D01*
X19988265Y-40189880D01*
X19793680Y-40384465D01*
X19640795Y-40613273D01*
X19535486Y-40867510D01*
X19481800Y-41137408D01*
X19481800Y-41412592D01*
X19535486Y-41682490D01*
X19640795Y-41936727D01*
X19793680Y-42165535D01*
X19988265Y-42360120D01*
X20217073Y-42513005D01*
X20332415Y-42560782D01*
X20293273Y-42576995D01*
X20064465Y-42729880D01*
X19869880Y-42924465D01*
X19716995Y-43153273D01*
X19611686Y-43407510D01*
X19558000Y-43677408D01*
X19558000Y-43952592D01*
X19611686Y-44222490D01*
X19716995Y-44476727D01*
X19869880Y-44705535D01*
X20064465Y-44900120D01*
X20293273Y-45053005D01*
X20547510Y-45158314D01*
X20817408Y-45212000D01*
X21092592Y-45212000D01*
X21362490Y-45158314D01*
X21616727Y-45053005D01*
X21845535Y-44900120D01*
X22040120Y-44705535D01*
X22193005Y-44476727D01*
X22225000Y-44399485D01*
X22256995Y-44476727D01*
X22409880Y-44705535D01*
X22604465Y-44900120D01*
X22833273Y-45053005D01*
X23087510Y-45158314D01*
X23357408Y-45212000D01*
X23632592Y-45212000D01*
X23786570Y-45181372D01*
X24045901Y-45440703D01*
X24069699Y-45469701D01*
X24185424Y-45564674D01*
X24317453Y-45635246D01*
X24460714Y-45678703D01*
X24572367Y-45689700D01*
X24572377Y-45689700D01*
X24609700Y-45693376D01*
X24647023Y-45689700D01*
X27422978Y-45689700D01*
X27460300Y-45693376D01*
X27497622Y-45689700D01*
X27497633Y-45689700D01*
X27609286Y-45678703D01*
X27752547Y-45635246D01*
X27884576Y-45564674D01*
X28000301Y-45469701D01*
X28024104Y-45440698D01*
X28283429Y-45181372D01*
X28437408Y-45212000D01*
X28712592Y-45212000D01*
X28982490Y-45158314D01*
X29236727Y-45053005D01*
X29465535Y-44900120D01*
X29585090Y-44780565D01*
X30329040Y-44780565D01*
X30396020Y-45020656D01*
X30645048Y-45137756D01*
X30912135Y-45204023D01*
X31187017Y-45216910D01*
X31459133Y-45175922D01*
X31718023Y-45082636D01*
X31833980Y-45020656D01*
X31900960Y-44780565D01*
X31115000Y-43994605D01*
X30329040Y-44780565D01*
X29585090Y-44780565D01*
X29660120Y-44705535D01*
X29813005Y-44476727D01*
X29842692Y-44405057D01*
X29847364Y-44418023D01*
X29909344Y-44533980D01*
X30149435Y-44600960D01*
X30935395Y-43815000D01*
X30149435Y-43029040D01*
X29909344Y-43096020D01*
X29845515Y-43231760D01*
X29813005Y-43153273D01*
X29660120Y-42924465D01*
X29465535Y-42729880D01*
X29236727Y-42576995D01*
X29121385Y-42529218D01*
X29160527Y-42513005D01*
X29389335Y-42360120D01*
X29583920Y-42165535D01*
X29736805Y-41936727D01*
X29768800Y-41859485D01*
X29800795Y-41936727D01*
X29953680Y-42165535D01*
X30148265Y-42360120D01*
X30377073Y-42513005D01*
X30489294Y-42559489D01*
X30396020Y-42609344D01*
X30329040Y-42849435D01*
X31115000Y-43635395D01*
X31129143Y-43621253D01*
X31308748Y-43800858D01*
X31294605Y-43815000D01*
X32080565Y-44600960D01*
X32230000Y-44559271D01*
X32230000Y-44759277D01*
X32226324Y-44796600D01*
X32230000Y-44833922D01*
X32230000Y-44833932D01*
X32240997Y-44945585D01*
X32273582Y-45053005D01*
X32284454Y-45088846D01*
X32355026Y-45220876D01*
X32393753Y-45268064D01*
X32449999Y-45336601D01*
X32479002Y-45360403D01*
X33188624Y-46070026D01*
X33091068Y-46188899D01*
X32957818Y-46438192D01*
X32875764Y-46708691D01*
X32848057Y-46990000D01*
X32875764Y-47271309D01*
X32957818Y-47541808D01*
X33091068Y-47791101D01*
X33166357Y-47882841D01*
X31755000Y-49294199D01*
X31755000Y-48984951D01*
X31692552Y-48671005D01*
X31570057Y-48375274D01*
X31392220Y-48109123D01*
X31165877Y-47882780D01*
X30899726Y-47704943D01*
X30603995Y-47582448D01*
X30290049Y-47520000D01*
X29969951Y-47520000D01*
X29656005Y-47582448D01*
X29360274Y-47704943D01*
X29277876Y-47760000D01*
X21560386Y-47760000D01*
X18465962Y-44665576D01*
X18554463Y-44628918D01*
X18822252Y-44449987D01*
X19049987Y-44222252D01*
X19228918Y-43954463D01*
X19352168Y-43656912D01*
X19415000Y-43341033D01*
X19415000Y-43018967D01*
X19352168Y-42703088D01*
X19228918Y-42405537D01*
X19049987Y-42137748D01*
X18822252Y-41910013D01*
X18554463Y-41731082D01*
X18256912Y-41607832D01*
X17941033Y-41545000D01*
X17618967Y-41545000D01*
X17303088Y-41607832D01*
X17209000Y-41646805D01*
X17209000Y-39633195D01*
X17303088Y-39672168D01*
X17618967Y-39735000D01*
X17941033Y-39735000D01*
X18256912Y-39672168D01*
X18554463Y-39548918D01*
X18822252Y-39369987D01*
X19049987Y-39142252D01*
X19228918Y-38874463D01*
X19352168Y-38576912D01*
X19415000Y-38261033D01*
X19415000Y-37938967D01*
X19352168Y-37623088D01*
X19228918Y-37325537D01*
X19049987Y-37057748D01*
X18822252Y-36830013D01*
X18554463Y-36651082D01*
X18256912Y-36527832D01*
X17941033Y-36465000D01*
X17618967Y-36465000D01*
X17303088Y-36527832D01*
X17209000Y-36566805D01*
X17209000Y-35549685D01*
X18144073Y-34614613D01*
X18256912Y-34592168D01*
X18554463Y-34468918D01*
X18822252Y-34289987D01*
X19049987Y-34062252D01*
X19228918Y-33794463D01*
X19352168Y-33496912D01*
X19415000Y-33181033D01*
X19415000Y-32858967D01*
X19352168Y-32543088D01*
X19228918Y-32245537D01*
X19049987Y-31977748D01*
X18822252Y-31750013D01*
X18554463Y-31571082D01*
X18256912Y-31447832D01*
X18179833Y-31432500D01*
X18256912Y-31417168D01*
X18554463Y-31293918D01*
X18822252Y-31114987D01*
X19049987Y-30887252D01*
X19228918Y-30619463D01*
X19234909Y-30605000D01*
X19577947Y-30605000D01*
X19535486Y-30707510D01*
G36*
X26228748Y-38720858D02*
G01*
X26214605Y-38735000D01*
X27000565Y-39520960D01*
X27240656Y-39453980D01*
X27304485Y-39318240D01*
X27336995Y-39396727D01*
X27489880Y-39625535D01*
X27684465Y-39820120D01*
X27913273Y-39973005D01*
X27952415Y-39989218D01*
X27837073Y-40036995D01*
X27608265Y-40189880D01*
X27413680Y-40384465D01*
X27260795Y-40613273D01*
X27231108Y-40684943D01*
X27226436Y-40671977D01*
X27164456Y-40556020D01*
X26924365Y-40489040D01*
X26138405Y-41275000D01*
X26924365Y-42060960D01*
X27164456Y-41993980D01*
X27228285Y-41858240D01*
X27260795Y-41936727D01*
X27413680Y-42165535D01*
X27608265Y-42360120D01*
X27837073Y-42513005D01*
X27952415Y-42560782D01*
X27913273Y-42576995D01*
X27684465Y-42729880D01*
X27489880Y-42924465D01*
X27336995Y-43153273D01*
X27307308Y-43224943D01*
X27302636Y-43211977D01*
X27240656Y-43096020D01*
X27000565Y-43029040D01*
X26214605Y-43815000D01*
X26228748Y-43829143D01*
X26049143Y-44008748D01*
X26035000Y-43994605D01*
X26020858Y-44008748D01*
X25841253Y-43829143D01*
X25855395Y-43815000D01*
X25069435Y-43029040D01*
X24829344Y-43096020D01*
X24765515Y-43231760D01*
X24733005Y-43153273D01*
X24580120Y-42924465D01*
X24385535Y-42729880D01*
X24156727Y-42576995D01*
X24041385Y-42529218D01*
X24080527Y-42513005D01*
X24309335Y-42360120D01*
X24428890Y-42240565D01*
X25172840Y-42240565D01*
X25239820Y-42480656D01*
X25408439Y-42559945D01*
X25316020Y-42609344D01*
X25249040Y-42849435D01*
X26035000Y-43635395D01*
X26820960Y-42849435D01*
X26753980Y-42609344D01*
X26585361Y-42530055D01*
X26677780Y-42480656D01*
X26744760Y-42240565D01*
X25958800Y-41454605D01*
X25172840Y-42240565D01*
X24428890Y-42240565D01*
X24503920Y-42165535D01*
X24656805Y-41936727D01*
X24686492Y-41865057D01*
X24691164Y-41878023D01*
X24753144Y-41993980D01*
X24993235Y-42060960D01*
X25779195Y-41275000D01*
X24993235Y-40489040D01*
X24753144Y-40556020D01*
X24689315Y-40691760D01*
X24656805Y-40613273D01*
X24503920Y-40384465D01*
X24428890Y-40309435D01*
X25172840Y-40309435D01*
X25958800Y-41095395D01*
X26744760Y-40309435D01*
X26677780Y-40069344D01*
X26580215Y-40023466D01*
X26638023Y-40002636D01*
X26753980Y-39940656D01*
X26820960Y-39700565D01*
X26035000Y-38914605D01*
X25249040Y-39700565D01*
X25316020Y-39940656D01*
X25413585Y-39986534D01*
X25355777Y-40007364D01*
X25239820Y-40069344D01*
X25172840Y-40309435D01*
X24428890Y-40309435D01*
X24309335Y-40189880D01*
X24080527Y-40036995D01*
X24041385Y-40020782D01*
X24156727Y-39973005D01*
X24385535Y-39820120D01*
X24580120Y-39625535D01*
X24733005Y-39396727D01*
X24762692Y-39325057D01*
X24767364Y-39338023D01*
X24829344Y-39453980D01*
X25069435Y-39520960D01*
X25855395Y-38735000D01*
X25841253Y-38720858D01*
X26020858Y-38541253D01*
X26035000Y-38555395D01*
X26049143Y-38541253D01*
X26228748Y-38720858D01*
X26228748Y-38720858D01*
G37*
X26228748Y-38720858D02*
X26214605Y-38735000D01*
X27000565Y-39520960D01*
X27240656Y-39453980D01*
X27304485Y-39318240D01*
X27336995Y-39396727D01*
X27489880Y-39625535D01*
X27684465Y-39820120D01*
X27913273Y-39973005D01*
X27952415Y-39989218D01*
X27837073Y-40036995D01*
X27608265Y-40189880D01*
X27413680Y-40384465D01*
X27260795Y-40613273D01*
X27231108Y-40684943D01*
X27226436Y-40671977D01*
X27164456Y-40556020D01*
X26924365Y-40489040D01*
X26138405Y-41275000D01*
X26924365Y-42060960D01*
X27164456Y-41993980D01*
X27228285Y-41858240D01*
X27260795Y-41936727D01*
X27413680Y-42165535D01*
X27608265Y-42360120D01*
X27837073Y-42513005D01*
X27952415Y-42560782D01*
X27913273Y-42576995D01*
X27684465Y-42729880D01*
X27489880Y-42924465D01*
X27336995Y-43153273D01*
X27307308Y-43224943D01*
X27302636Y-43211977D01*
X27240656Y-43096020D01*
X27000565Y-43029040D01*
X26214605Y-43815000D01*
X26228748Y-43829143D01*
X26049143Y-44008748D01*
X26035000Y-43994605D01*
X26020858Y-44008748D01*
X25841253Y-43829143D01*
X25855395Y-43815000D01*
X25069435Y-43029040D01*
X24829344Y-43096020D01*
X24765515Y-43231760D01*
X24733005Y-43153273D01*
X24580120Y-42924465D01*
X24385535Y-42729880D01*
X24156727Y-42576995D01*
X24041385Y-42529218D01*
X24080527Y-42513005D01*
X24309335Y-42360120D01*
X24428890Y-42240565D01*
X25172840Y-42240565D01*
X25239820Y-42480656D01*
X25408439Y-42559945D01*
X25316020Y-42609344D01*
X25249040Y-42849435D01*
X26035000Y-43635395D01*
X26820960Y-42849435D01*
X26753980Y-42609344D01*
X26585361Y-42530055D01*
X26677780Y-42480656D01*
X26744760Y-42240565D01*
X25958800Y-41454605D01*
X25172840Y-42240565D01*
X24428890Y-42240565D01*
X24503920Y-42165535D01*
X24656805Y-41936727D01*
X24686492Y-41865057D01*
X24691164Y-41878023D01*
X24753144Y-41993980D01*
X24993235Y-42060960D01*
X25779195Y-41275000D01*
X24993235Y-40489040D01*
X24753144Y-40556020D01*
X24689315Y-40691760D01*
X24656805Y-40613273D01*
X24503920Y-40384465D01*
X24428890Y-40309435D01*
X25172840Y-40309435D01*
X25958800Y-41095395D01*
X26744760Y-40309435D01*
X26677780Y-40069344D01*
X26580215Y-40023466D01*
X26638023Y-40002636D01*
X26753980Y-39940656D01*
X26820960Y-39700565D01*
X26035000Y-38914605D01*
X25249040Y-39700565D01*
X25316020Y-39940656D01*
X25413585Y-39986534D01*
X25355777Y-40007364D01*
X25239820Y-40069344D01*
X25172840Y-40309435D01*
X24428890Y-40309435D01*
X24309335Y-40189880D01*
X24080527Y-40036995D01*
X24041385Y-40020782D01*
X24156727Y-39973005D01*
X24385535Y-39820120D01*
X24580120Y-39625535D01*
X24733005Y-39396727D01*
X24762692Y-39325057D01*
X24767364Y-39338023D01*
X24829344Y-39453980D01*
X25069435Y-39520960D01*
X25855395Y-38735000D01*
X25841253Y-38720858D01*
X26020858Y-38541253D01*
X26035000Y-38555395D01*
X26049143Y-38541253D01*
X26228748Y-38720858D01*
G36*
X57902548Y-41260858D02*
G01*
X57888405Y-41275000D01*
X57902548Y-41289143D01*
X57722943Y-41468748D01*
X57708800Y-41454605D01*
X57694658Y-41468748D01*
X57515053Y-41289143D01*
X57529195Y-41275000D01*
X57515053Y-41260858D01*
X57694658Y-41081253D01*
X57708800Y-41095395D01*
X57722943Y-41081253D01*
X57902548Y-41260858D01*
X57902548Y-41260858D01*
G37*
X57902548Y-41260858D02*
X57888405Y-41275000D01*
X57902548Y-41289143D01*
X57722943Y-41468748D01*
X57708800Y-41454605D01*
X57694658Y-41468748D01*
X57515053Y-41289143D01*
X57529195Y-41275000D01*
X57515053Y-41260858D01*
X57694658Y-41081253D01*
X57708800Y-41095395D01*
X57722943Y-41081253D01*
X57902548Y-41260858D01*
G36*
X57978748Y-38720858D02*
G01*
X57964605Y-38735000D01*
X57978748Y-38749143D01*
X57799143Y-38928748D01*
X57785000Y-38914605D01*
X57770858Y-38928748D01*
X57591253Y-38749143D01*
X57605395Y-38735000D01*
X57591253Y-38720858D01*
X57770858Y-38541253D01*
X57785000Y-38555395D01*
X57799143Y-38541253D01*
X57978748Y-38720858D01*
X57978748Y-38720858D01*
G37*
X57978748Y-38720858D02*
X57964605Y-38735000D01*
X57978748Y-38749143D01*
X57799143Y-38928748D01*
X57785000Y-38914605D01*
X57770858Y-38928748D01*
X57591253Y-38749143D01*
X57605395Y-38735000D01*
X57591253Y-38720858D01*
X57770858Y-38541253D01*
X57785000Y-38555395D01*
X57799143Y-38541253D01*
X57978748Y-38720858D01*
G36*
X57902548Y-36180858D02*
G01*
X57888405Y-36195000D01*
X57902548Y-36209143D01*
X57722943Y-36388748D01*
X57708800Y-36374605D01*
X57694658Y-36388748D01*
X57515053Y-36209143D01*
X57529195Y-36195000D01*
X57515053Y-36180858D01*
X57694658Y-36001253D01*
X57708800Y-36015395D01*
X57722943Y-36001253D01*
X57902548Y-36180858D01*
X57902548Y-36180858D01*
G37*
X57902548Y-36180858D02*
X57888405Y-36195000D01*
X57902548Y-36209143D01*
X57722943Y-36388748D01*
X57708800Y-36374605D01*
X57694658Y-36388748D01*
X57515053Y-36209143D01*
X57529195Y-36195000D01*
X57515053Y-36180858D01*
X57694658Y-36001253D01*
X57708800Y-36015395D01*
X57722943Y-36001253D01*
X57902548Y-36180858D01*
G36*
X26152548Y-36180858D02*
G01*
X26138405Y-36195000D01*
X26152548Y-36209143D01*
X25972943Y-36388748D01*
X25958800Y-36374605D01*
X25944658Y-36388748D01*
X25765053Y-36209143D01*
X25779195Y-36195000D01*
X25765053Y-36180858D01*
X25944658Y-36001253D01*
X25958800Y-36015395D01*
X25972943Y-36001253D01*
X26152548Y-36180858D01*
X26152548Y-36180858D01*
G37*
X26152548Y-36180858D02*
X26138405Y-36195000D01*
X26152548Y-36209143D01*
X25972943Y-36388748D01*
X25958800Y-36374605D01*
X25944658Y-36388748D01*
X25765053Y-36209143D01*
X25779195Y-36195000D01*
X25765053Y-36180858D01*
X25944658Y-36001253D01*
X25958800Y-36015395D01*
X25972943Y-36001253D01*
X26152548Y-36180858D01*
G36*
X57902548Y-31100858D02*
G01*
X57888405Y-31115000D01*
X58674365Y-31900960D01*
X58914456Y-31833980D01*
X58978285Y-31698240D01*
X59010795Y-31776727D01*
X59163680Y-32005535D01*
X59358265Y-32200120D01*
X59587073Y-32353005D01*
X59702415Y-32400782D01*
X59663273Y-32416995D01*
X59434465Y-32569880D01*
X59239880Y-32764465D01*
X59086995Y-32993273D01*
X59057308Y-33064943D01*
X59052636Y-33051977D01*
X58990656Y-32936020D01*
X58750565Y-32869040D01*
X57964605Y-33655000D01*
X57978748Y-33669143D01*
X57799143Y-33848748D01*
X57785000Y-33834605D01*
X57770858Y-33848748D01*
X57591253Y-33669143D01*
X57605395Y-33655000D01*
X56819435Y-32869040D01*
X56579344Y-32936020D01*
X56515515Y-33071760D01*
X56483005Y-32993273D01*
X56330120Y-32764465D01*
X56135535Y-32569880D01*
X55906727Y-32416995D01*
X55791385Y-32369218D01*
X55830527Y-32353005D01*
X56059335Y-32200120D01*
X56178890Y-32080565D01*
X56922840Y-32080565D01*
X56989820Y-32320656D01*
X57158439Y-32399945D01*
X57066020Y-32449344D01*
X56999040Y-32689435D01*
X57785000Y-33475395D01*
X58570960Y-32689435D01*
X58503980Y-32449344D01*
X58335361Y-32370055D01*
X58427780Y-32320656D01*
X58494760Y-32080565D01*
X57708800Y-31294605D01*
X56922840Y-32080565D01*
X56178890Y-32080565D01*
X56253920Y-32005535D01*
X56406805Y-31776727D01*
X56436492Y-31705057D01*
X56441164Y-31718023D01*
X56503144Y-31833980D01*
X56743235Y-31900960D01*
X57529195Y-31115000D01*
X57515053Y-31100858D01*
X57694658Y-30921253D01*
X57708800Y-30935395D01*
X57722943Y-30921253D01*
X57902548Y-31100858D01*
X57902548Y-31100858D01*
G37*
X57902548Y-31100858D02*
X57888405Y-31115000D01*
X58674365Y-31900960D01*
X58914456Y-31833980D01*
X58978285Y-31698240D01*
X59010795Y-31776727D01*
X59163680Y-32005535D01*
X59358265Y-32200120D01*
X59587073Y-32353005D01*
X59702415Y-32400782D01*
X59663273Y-32416995D01*
X59434465Y-32569880D01*
X59239880Y-32764465D01*
X59086995Y-32993273D01*
X59057308Y-33064943D01*
X59052636Y-33051977D01*
X58990656Y-32936020D01*
X58750565Y-32869040D01*
X57964605Y-33655000D01*
X57978748Y-33669143D01*
X57799143Y-33848748D01*
X57785000Y-33834605D01*
X57770858Y-33848748D01*
X57591253Y-33669143D01*
X57605395Y-33655000D01*
X56819435Y-32869040D01*
X56579344Y-32936020D01*
X56515515Y-33071760D01*
X56483005Y-32993273D01*
X56330120Y-32764465D01*
X56135535Y-32569880D01*
X55906727Y-32416995D01*
X55791385Y-32369218D01*
X55830527Y-32353005D01*
X56059335Y-32200120D01*
X56178890Y-32080565D01*
X56922840Y-32080565D01*
X56989820Y-32320656D01*
X57158439Y-32399945D01*
X57066020Y-32449344D01*
X56999040Y-32689435D01*
X57785000Y-33475395D01*
X58570960Y-32689435D01*
X58503980Y-32449344D01*
X58335361Y-32370055D01*
X58427780Y-32320656D01*
X58494760Y-32080565D01*
X57708800Y-31294605D01*
X56922840Y-32080565D01*
X56178890Y-32080565D01*
X56253920Y-32005535D01*
X56406805Y-31776727D01*
X56436492Y-31705057D01*
X56441164Y-31718023D01*
X56503144Y-31833980D01*
X56743235Y-31900960D01*
X57529195Y-31115000D01*
X57515053Y-31100858D01*
X57694658Y-30921253D01*
X57708800Y-30935395D01*
X57722943Y-30921253D01*
X57902548Y-31100858D01*
G36*
X26228748Y-33640858D02*
G01*
X26214605Y-33655000D01*
X26228748Y-33669143D01*
X26049143Y-33848748D01*
X26035000Y-33834605D01*
X26020858Y-33848748D01*
X25841253Y-33669143D01*
X25855395Y-33655000D01*
X25841253Y-33640858D01*
X26020858Y-33461253D01*
X26035000Y-33475395D01*
X26049143Y-33461253D01*
X26228748Y-33640858D01*
X26228748Y-33640858D01*
G37*
X26228748Y-33640858D02*
X26214605Y-33655000D01*
X26228748Y-33669143D01*
X26049143Y-33848748D01*
X26035000Y-33834605D01*
X26020858Y-33848748D01*
X25841253Y-33669143D01*
X25855395Y-33655000D01*
X25841253Y-33640858D01*
X26020858Y-33461253D01*
X26035000Y-33475395D01*
X26049143Y-33461253D01*
X26228748Y-33640858D01*
G36*
X26152548Y-31100858D02*
G01*
X26138405Y-31115000D01*
X26152548Y-31129143D01*
X25972943Y-31308748D01*
X25958800Y-31294605D01*
X25944658Y-31308748D01*
X25765053Y-31129143D01*
X25779195Y-31115000D01*
X25765053Y-31100858D01*
X25944658Y-30921253D01*
X25958800Y-30935395D01*
X25972943Y-30921253D01*
X26152548Y-31100858D01*
X26152548Y-31100858D01*
G37*
X26152548Y-31100858D02*
X26138405Y-31115000D01*
X26152548Y-31129143D01*
X25972943Y-31308748D01*
X25958800Y-31294605D01*
X25944658Y-31308748D01*
X25765053Y-31129143D01*
X25779195Y-31115000D01*
X25765053Y-31100858D01*
X25944658Y-30921253D01*
X25958800Y-30935395D01*
X25972943Y-30921253D01*
X26152548Y-31100858D01*
G36*
X32851928Y-17310000D02*
G01*
X32864188Y-17434482D01*
X32900498Y-17554180D01*
X32959463Y-17664494D01*
X33038815Y-17761185D01*
X33135506Y-17840537D01*
X33245820Y-17899502D01*
X33365518Y-17935812D01*
X33383482Y-17937581D01*
X33270392Y-18030392D01*
X33091068Y-18248899D01*
X32957818Y-18498192D01*
X32875764Y-18768691D01*
X32848057Y-19050000D01*
X32875764Y-19331309D01*
X32957818Y-19601808D01*
X33091068Y-19851101D01*
X33270392Y-20069608D01*
X33488899Y-20248932D01*
X33621858Y-20320000D01*
X33488899Y-20391068D01*
X33270392Y-20570392D01*
X33091068Y-20788899D01*
X32957818Y-21038192D01*
X32875764Y-21308691D01*
X32848057Y-21590000D01*
X32875764Y-21871309D01*
X32957818Y-22141808D01*
X33091068Y-22391101D01*
X33270392Y-22609608D01*
X33488899Y-22788932D01*
X33626682Y-22862579D01*
X33434869Y-22977615D01*
X33226481Y-23166586D01*
X33058963Y-23392580D01*
X32938754Y-23646913D01*
X32898096Y-23780961D01*
X33020085Y-24003000D01*
X34163000Y-24003000D01*
X34163000Y-23983000D01*
X34417000Y-23983000D01*
X34417000Y-24003000D01*
X35559915Y-24003000D01*
X35681904Y-23780961D01*
X35641246Y-23646913D01*
X35521037Y-23392580D01*
X35353519Y-23166586D01*
X35145131Y-22977615D01*
X34953318Y-22862579D01*
X35091101Y-22788932D01*
X35309608Y-22609608D01*
X35488932Y-22391101D01*
X35514139Y-22343942D01*
X35564286Y-22339003D01*
X35707547Y-22295546D01*
X35839576Y-22224974D01*
X35955301Y-22130001D01*
X35979104Y-22100997D01*
X39396102Y-18684000D01*
X48143240Y-18684000D01*
X48138096Y-18700961D01*
X48260085Y-18923000D01*
X49403000Y-18923000D01*
X49403000Y-18903000D01*
X49657000Y-18903000D01*
X49657000Y-18923000D01*
X50799915Y-18923000D01*
X50921904Y-18700961D01*
X50916760Y-18684000D01*
X51334139Y-18684000D01*
X51361686Y-18822490D01*
X51466995Y-19076727D01*
X51619880Y-19305535D01*
X51814465Y-19500120D01*
X52043273Y-19653005D01*
X52158615Y-19700782D01*
X52119473Y-19716995D01*
X51890665Y-19869880D01*
X51696080Y-20064465D01*
X51543195Y-20293273D01*
X51437886Y-20547510D01*
X51384200Y-20817408D01*
X51384200Y-21092592D01*
X51421820Y-21281718D01*
X51219104Y-21079003D01*
X51195301Y-21049999D01*
X51079576Y-20955026D01*
X50947547Y-20884454D01*
X50804286Y-20840997D01*
X50754139Y-20836058D01*
X50728932Y-20788899D01*
X50549608Y-20570392D01*
X50331101Y-20391068D01*
X50193318Y-20317421D01*
X50385131Y-20202385D01*
X50593519Y-20013414D01*
X50761037Y-19787420D01*
X50881246Y-19533087D01*
X50921904Y-19399039D01*
X50799915Y-19177000D01*
X49657000Y-19177000D01*
X49657000Y-19197000D01*
X49403000Y-19197000D01*
X49403000Y-19177000D01*
X48260085Y-19177000D01*
X48138096Y-19399039D01*
X48178754Y-19533087D01*
X48298963Y-19787420D01*
X48466481Y-20013414D01*
X48674869Y-20202385D01*
X48866682Y-20317421D01*
X48728899Y-20391068D01*
X48510392Y-20570392D01*
X48331068Y-20788899D01*
X48197818Y-21038192D01*
X48115764Y-21308691D01*
X48088057Y-21590000D01*
X48115764Y-21871309D01*
X48197818Y-22141808D01*
X48331068Y-22391101D01*
X48510392Y-22609608D01*
X48728899Y-22788932D01*
X48861858Y-22860000D01*
X48728899Y-22931068D01*
X48510392Y-23110392D01*
X48331068Y-23328899D01*
X48197818Y-23578192D01*
X48115764Y-23848691D01*
X48088057Y-24130000D01*
X48115764Y-24411309D01*
X48197818Y-24681808D01*
X48331068Y-24931101D01*
X48510392Y-25149608D01*
X48728899Y-25328932D01*
X48861858Y-25400000D01*
X48728899Y-25471068D01*
X48510392Y-25650392D01*
X48331068Y-25868899D01*
X48197818Y-26118192D01*
X48115764Y-26388691D01*
X48088057Y-26670000D01*
X48115764Y-26951309D01*
X48197818Y-27221808D01*
X48331068Y-27471101D01*
X48510392Y-27689608D01*
X48728899Y-27868932D01*
X48861858Y-27940000D01*
X48728899Y-28011068D01*
X48510392Y-28190392D01*
X48331068Y-28408899D01*
X48197818Y-28658192D01*
X48115764Y-28928691D01*
X48088057Y-29210000D01*
X48115764Y-29491309D01*
X48161081Y-29640700D01*
X35658919Y-29640700D01*
X35704236Y-29491309D01*
X35731943Y-29210000D01*
X35704236Y-28928691D01*
X35622182Y-28658192D01*
X35488932Y-28408899D01*
X35309608Y-28190392D01*
X35091101Y-28011068D01*
X34958142Y-27940000D01*
X35091101Y-27868932D01*
X35309608Y-27689608D01*
X35488932Y-27471101D01*
X35622182Y-27221808D01*
X35704236Y-26951309D01*
X35731943Y-26670000D01*
X35704236Y-26388691D01*
X35622182Y-26118192D01*
X35488932Y-25868899D01*
X35309608Y-25650392D01*
X35091101Y-25471068D01*
X34953318Y-25397421D01*
X35145131Y-25282385D01*
X35353519Y-25093414D01*
X35521037Y-24867420D01*
X35641246Y-24613087D01*
X35681904Y-24479039D01*
X35559915Y-24257000D01*
X34417000Y-24257000D01*
X34417000Y-24277000D01*
X34163000Y-24277000D01*
X34163000Y-24257000D01*
X33020085Y-24257000D01*
X32898096Y-24479039D01*
X32938754Y-24613087D01*
X33058963Y-24867420D01*
X33226481Y-25093414D01*
X33434869Y-25282385D01*
X33626682Y-25397421D01*
X33488899Y-25471068D01*
X33270392Y-25650392D01*
X33091068Y-25868899D01*
X32957818Y-26118192D01*
X32875764Y-26388691D01*
X32848057Y-26670000D01*
X32875764Y-26951309D01*
X32957818Y-27221808D01*
X33091068Y-27471101D01*
X33270392Y-27689608D01*
X33488899Y-27868932D01*
X33621858Y-27940000D01*
X33488899Y-28011068D01*
X33270392Y-28190392D01*
X33091068Y-28408899D01*
X32957818Y-28658192D01*
X32875764Y-28928691D01*
X32848057Y-29210000D01*
X32875764Y-29491309D01*
X32921081Y-29640700D01*
X32506302Y-29640700D01*
X32252598Y-29386997D01*
X32353005Y-29236727D01*
X32458314Y-28982490D01*
X32512000Y-28712592D01*
X32512000Y-28437408D01*
X32458314Y-28167510D01*
X32353005Y-27913273D01*
X32200120Y-27684465D01*
X32005535Y-27489880D01*
X31776727Y-27336995D01*
X31699485Y-27305000D01*
X31776727Y-27273005D01*
X32005535Y-27120120D01*
X32200120Y-26925535D01*
X32353005Y-26696727D01*
X32458314Y-26442490D01*
X32512000Y-26172592D01*
X32512000Y-25897408D01*
X32458314Y-25627510D01*
X32353005Y-25373273D01*
X32200120Y-25144465D01*
X32005535Y-24949880D01*
X31776727Y-24796995D01*
X31699485Y-24765000D01*
X31776727Y-24733005D01*
X32005535Y-24580120D01*
X32200120Y-24385535D01*
X32353005Y-24156727D01*
X32458314Y-23902490D01*
X32512000Y-23632592D01*
X32512000Y-23357408D01*
X32458314Y-23087510D01*
X32353005Y-22833273D01*
X32200120Y-22604465D01*
X32005535Y-22409880D01*
X31776727Y-22256995D01*
X31661385Y-22209218D01*
X31700527Y-22193005D01*
X31929335Y-22040120D01*
X32123920Y-21845535D01*
X32276805Y-21616727D01*
X32382114Y-21362490D01*
X32435800Y-21092592D01*
X32435800Y-20817408D01*
X32382114Y-20547510D01*
X32276805Y-20293273D01*
X32123920Y-20064465D01*
X31929335Y-19869880D01*
X31700527Y-19716995D01*
X31661385Y-19700782D01*
X31776727Y-19653005D01*
X32005535Y-19500120D01*
X32200120Y-19305535D01*
X32353005Y-19076727D01*
X32458314Y-18822490D01*
X32512000Y-18552592D01*
X32512000Y-18277408D01*
X32458314Y-18007510D01*
X32353005Y-17753273D01*
X32200120Y-17524465D01*
X32005535Y-17329880D01*
X31915918Y-17270000D01*
X32851928Y-17270000D01*
X32851928Y-17310000D01*
X32851928Y-17310000D01*
G37*
X32851928Y-17310000D02*
X32864188Y-17434482D01*
X32900498Y-17554180D01*
X32959463Y-17664494D01*
X33038815Y-17761185D01*
X33135506Y-17840537D01*
X33245820Y-17899502D01*
X33365518Y-17935812D01*
X33383482Y-17937581D01*
X33270392Y-18030392D01*
X33091068Y-18248899D01*
X32957818Y-18498192D01*
X32875764Y-18768691D01*
X32848057Y-19050000D01*
X32875764Y-19331309D01*
X32957818Y-19601808D01*
X33091068Y-19851101D01*
X33270392Y-20069608D01*
X33488899Y-20248932D01*
X33621858Y-20320000D01*
X33488899Y-20391068D01*
X33270392Y-20570392D01*
X33091068Y-20788899D01*
X32957818Y-21038192D01*
X32875764Y-21308691D01*
X32848057Y-21590000D01*
X32875764Y-21871309D01*
X32957818Y-22141808D01*
X33091068Y-22391101D01*
X33270392Y-22609608D01*
X33488899Y-22788932D01*
X33626682Y-22862579D01*
X33434869Y-22977615D01*
X33226481Y-23166586D01*
X33058963Y-23392580D01*
X32938754Y-23646913D01*
X32898096Y-23780961D01*
X33020085Y-24003000D01*
X34163000Y-24003000D01*
X34163000Y-23983000D01*
X34417000Y-23983000D01*
X34417000Y-24003000D01*
X35559915Y-24003000D01*
X35681904Y-23780961D01*
X35641246Y-23646913D01*
X35521037Y-23392580D01*
X35353519Y-23166586D01*
X35145131Y-22977615D01*
X34953318Y-22862579D01*
X35091101Y-22788932D01*
X35309608Y-22609608D01*
X35488932Y-22391101D01*
X35514139Y-22343942D01*
X35564286Y-22339003D01*
X35707547Y-22295546D01*
X35839576Y-22224974D01*
X35955301Y-22130001D01*
X35979104Y-22100997D01*
X39396102Y-18684000D01*
X48143240Y-18684000D01*
X48138096Y-18700961D01*
X48260085Y-18923000D01*
X49403000Y-18923000D01*
X49403000Y-18903000D01*
X49657000Y-18903000D01*
X49657000Y-18923000D01*
X50799915Y-18923000D01*
X50921904Y-18700961D01*
X50916760Y-18684000D01*
X51334139Y-18684000D01*
X51361686Y-18822490D01*
X51466995Y-19076727D01*
X51619880Y-19305535D01*
X51814465Y-19500120D01*
X52043273Y-19653005D01*
X52158615Y-19700782D01*
X52119473Y-19716995D01*
X51890665Y-19869880D01*
X51696080Y-20064465D01*
X51543195Y-20293273D01*
X51437886Y-20547510D01*
X51384200Y-20817408D01*
X51384200Y-21092592D01*
X51421820Y-21281718D01*
X51219104Y-21079003D01*
X51195301Y-21049999D01*
X51079576Y-20955026D01*
X50947547Y-20884454D01*
X50804286Y-20840997D01*
X50754139Y-20836058D01*
X50728932Y-20788899D01*
X50549608Y-20570392D01*
X50331101Y-20391068D01*
X50193318Y-20317421D01*
X50385131Y-20202385D01*
X50593519Y-20013414D01*
X50761037Y-19787420D01*
X50881246Y-19533087D01*
X50921904Y-19399039D01*
X50799915Y-19177000D01*
X49657000Y-19177000D01*
X49657000Y-19197000D01*
X49403000Y-19197000D01*
X49403000Y-19177000D01*
X48260085Y-19177000D01*
X48138096Y-19399039D01*
X48178754Y-19533087D01*
X48298963Y-19787420D01*
X48466481Y-20013414D01*
X48674869Y-20202385D01*
X48866682Y-20317421D01*
X48728899Y-20391068D01*
X48510392Y-20570392D01*
X48331068Y-20788899D01*
X48197818Y-21038192D01*
X48115764Y-21308691D01*
X48088057Y-21590000D01*
X48115764Y-21871309D01*
X48197818Y-22141808D01*
X48331068Y-22391101D01*
X48510392Y-22609608D01*
X48728899Y-22788932D01*
X48861858Y-22860000D01*
X48728899Y-22931068D01*
X48510392Y-23110392D01*
X48331068Y-23328899D01*
X48197818Y-23578192D01*
X48115764Y-23848691D01*
X48088057Y-24130000D01*
X48115764Y-24411309D01*
X48197818Y-24681808D01*
X48331068Y-24931101D01*
X48510392Y-25149608D01*
X48728899Y-25328932D01*
X48861858Y-25400000D01*
X48728899Y-25471068D01*
X48510392Y-25650392D01*
X48331068Y-25868899D01*
X48197818Y-26118192D01*
X48115764Y-26388691D01*
X48088057Y-26670000D01*
X48115764Y-26951309D01*
X48197818Y-27221808D01*
X48331068Y-27471101D01*
X48510392Y-27689608D01*
X48728899Y-27868932D01*
X48861858Y-27940000D01*
X48728899Y-28011068D01*
X48510392Y-28190392D01*
X48331068Y-28408899D01*
X48197818Y-28658192D01*
X48115764Y-28928691D01*
X48088057Y-29210000D01*
X48115764Y-29491309D01*
X48161081Y-29640700D01*
X35658919Y-29640700D01*
X35704236Y-29491309D01*
X35731943Y-29210000D01*
X35704236Y-28928691D01*
X35622182Y-28658192D01*
X35488932Y-28408899D01*
X35309608Y-28190392D01*
X35091101Y-28011068D01*
X34958142Y-27940000D01*
X35091101Y-27868932D01*
X35309608Y-27689608D01*
X35488932Y-27471101D01*
X35622182Y-27221808D01*
X35704236Y-26951309D01*
X35731943Y-26670000D01*
X35704236Y-26388691D01*
X35622182Y-26118192D01*
X35488932Y-25868899D01*
X35309608Y-25650392D01*
X35091101Y-25471068D01*
X34953318Y-25397421D01*
X35145131Y-25282385D01*
X35353519Y-25093414D01*
X35521037Y-24867420D01*
X35641246Y-24613087D01*
X35681904Y-24479039D01*
X35559915Y-24257000D01*
X34417000Y-24257000D01*
X34417000Y-24277000D01*
X34163000Y-24277000D01*
X34163000Y-24257000D01*
X33020085Y-24257000D01*
X32898096Y-24479039D01*
X32938754Y-24613087D01*
X33058963Y-24867420D01*
X33226481Y-25093414D01*
X33434869Y-25282385D01*
X33626682Y-25397421D01*
X33488899Y-25471068D01*
X33270392Y-25650392D01*
X33091068Y-25868899D01*
X32957818Y-26118192D01*
X32875764Y-26388691D01*
X32848057Y-26670000D01*
X32875764Y-26951309D01*
X32957818Y-27221808D01*
X33091068Y-27471101D01*
X33270392Y-27689608D01*
X33488899Y-27868932D01*
X33621858Y-27940000D01*
X33488899Y-28011068D01*
X33270392Y-28190392D01*
X33091068Y-28408899D01*
X32957818Y-28658192D01*
X32875764Y-28928691D01*
X32848057Y-29210000D01*
X32875764Y-29491309D01*
X32921081Y-29640700D01*
X32506302Y-29640700D01*
X32252598Y-29386997D01*
X32353005Y-29236727D01*
X32458314Y-28982490D01*
X32512000Y-28712592D01*
X32512000Y-28437408D01*
X32458314Y-28167510D01*
X32353005Y-27913273D01*
X32200120Y-27684465D01*
X32005535Y-27489880D01*
X31776727Y-27336995D01*
X31699485Y-27305000D01*
X31776727Y-27273005D01*
X32005535Y-27120120D01*
X32200120Y-26925535D01*
X32353005Y-26696727D01*
X32458314Y-26442490D01*
X32512000Y-26172592D01*
X32512000Y-25897408D01*
X32458314Y-25627510D01*
X32353005Y-25373273D01*
X32200120Y-25144465D01*
X32005535Y-24949880D01*
X31776727Y-24796995D01*
X31699485Y-24765000D01*
X31776727Y-24733005D01*
X32005535Y-24580120D01*
X32200120Y-24385535D01*
X32353005Y-24156727D01*
X32458314Y-23902490D01*
X32512000Y-23632592D01*
X32512000Y-23357408D01*
X32458314Y-23087510D01*
X32353005Y-22833273D01*
X32200120Y-22604465D01*
X32005535Y-22409880D01*
X31776727Y-22256995D01*
X31661385Y-22209218D01*
X31700527Y-22193005D01*
X31929335Y-22040120D01*
X32123920Y-21845535D01*
X32276805Y-21616727D01*
X32382114Y-21362490D01*
X32435800Y-21092592D01*
X32435800Y-20817408D01*
X32382114Y-20547510D01*
X32276805Y-20293273D01*
X32123920Y-20064465D01*
X31929335Y-19869880D01*
X31700527Y-19716995D01*
X31661385Y-19700782D01*
X31776727Y-19653005D01*
X32005535Y-19500120D01*
X32200120Y-19305535D01*
X32353005Y-19076727D01*
X32458314Y-18822490D01*
X32512000Y-18552592D01*
X32512000Y-18277408D01*
X32458314Y-18007510D01*
X32353005Y-17753273D01*
X32200120Y-17524465D01*
X32005535Y-17329880D01*
X31915918Y-17270000D01*
X32851928Y-17270000D01*
X32851928Y-17310000D01*
G36*
X57978748Y-28560858D02*
G01*
X57964605Y-28575000D01*
X57978748Y-28589143D01*
X57799143Y-28768748D01*
X57785000Y-28754605D01*
X57770858Y-28768748D01*
X57591253Y-28589143D01*
X57605395Y-28575000D01*
X57591253Y-28560858D01*
X57770858Y-28381253D01*
X57785000Y-28395395D01*
X57799143Y-28381253D01*
X57978748Y-28560858D01*
X57978748Y-28560858D01*
G37*
X57978748Y-28560858D02*
X57964605Y-28575000D01*
X57978748Y-28589143D01*
X57799143Y-28768748D01*
X57785000Y-28754605D01*
X57770858Y-28768748D01*
X57591253Y-28589143D01*
X57605395Y-28575000D01*
X57591253Y-28560858D01*
X57770858Y-28381253D01*
X57785000Y-28395395D01*
X57799143Y-28381253D01*
X57978748Y-28560858D01*
G36*
X26228748Y-28560858D02*
G01*
X26214605Y-28575000D01*
X26228748Y-28589143D01*
X26049143Y-28768748D01*
X26035000Y-28754605D01*
X26020858Y-28768748D01*
X25841253Y-28589143D01*
X25855395Y-28575000D01*
X25841253Y-28560858D01*
X26020858Y-28381253D01*
X26035000Y-28395395D01*
X26049143Y-28381253D01*
X26228748Y-28560858D01*
X26228748Y-28560858D01*
G37*
X26228748Y-28560858D02*
X26214605Y-28575000D01*
X26228748Y-28589143D01*
X26049143Y-28768748D01*
X26035000Y-28754605D01*
X26020858Y-28768748D01*
X25841253Y-28589143D01*
X25855395Y-28575000D01*
X25841253Y-28560858D01*
X26020858Y-28381253D01*
X26035000Y-28395395D01*
X26049143Y-28381253D01*
X26228748Y-28560858D01*
G36*
X26228748Y-23480858D02*
G01*
X26214605Y-23495000D01*
X27000565Y-24280960D01*
X27240656Y-24213980D01*
X27304485Y-24078240D01*
X27336995Y-24156727D01*
X27489880Y-24385535D01*
X27684465Y-24580120D01*
X27913273Y-24733005D01*
X27990515Y-24765000D01*
X27913273Y-24796995D01*
X27684465Y-24949880D01*
X27489880Y-25144465D01*
X27336995Y-25373273D01*
X27307308Y-25444943D01*
X27302636Y-25431977D01*
X27240656Y-25316020D01*
X27000565Y-25249040D01*
X26214605Y-26035000D01*
X26228748Y-26049143D01*
X26049143Y-26228748D01*
X26035000Y-26214605D01*
X26020858Y-26228748D01*
X25841253Y-26049143D01*
X25855395Y-26035000D01*
X25069435Y-25249040D01*
X24829344Y-25316020D01*
X24765515Y-25451760D01*
X24733005Y-25373273D01*
X24580120Y-25144465D01*
X24385535Y-24949880D01*
X24156727Y-24796995D01*
X24079485Y-24765000D01*
X24156727Y-24733005D01*
X24385535Y-24580120D01*
X24505090Y-24460565D01*
X25249040Y-24460565D01*
X25316020Y-24700656D01*
X25446644Y-24762079D01*
X25431977Y-24767364D01*
X25316020Y-24829344D01*
X25249040Y-25069435D01*
X26035000Y-25855395D01*
X26820960Y-25069435D01*
X26753980Y-24829344D01*
X26623356Y-24767921D01*
X26638023Y-24762636D01*
X26753980Y-24700656D01*
X26820960Y-24460565D01*
X26035000Y-23674605D01*
X25249040Y-24460565D01*
X24505090Y-24460565D01*
X24580120Y-24385535D01*
X24733005Y-24156727D01*
X24762692Y-24085057D01*
X24767364Y-24098023D01*
X24829344Y-24213980D01*
X25069435Y-24280960D01*
X25855395Y-23495000D01*
X25841253Y-23480858D01*
X26020858Y-23301253D01*
X26035000Y-23315395D01*
X26049143Y-23301253D01*
X26228748Y-23480858D01*
X26228748Y-23480858D01*
G37*
X26228748Y-23480858D02*
X26214605Y-23495000D01*
X27000565Y-24280960D01*
X27240656Y-24213980D01*
X27304485Y-24078240D01*
X27336995Y-24156727D01*
X27489880Y-24385535D01*
X27684465Y-24580120D01*
X27913273Y-24733005D01*
X27990515Y-24765000D01*
X27913273Y-24796995D01*
X27684465Y-24949880D01*
X27489880Y-25144465D01*
X27336995Y-25373273D01*
X27307308Y-25444943D01*
X27302636Y-25431977D01*
X27240656Y-25316020D01*
X27000565Y-25249040D01*
X26214605Y-26035000D01*
X26228748Y-26049143D01*
X26049143Y-26228748D01*
X26035000Y-26214605D01*
X26020858Y-26228748D01*
X25841253Y-26049143D01*
X25855395Y-26035000D01*
X25069435Y-25249040D01*
X24829344Y-25316020D01*
X24765515Y-25451760D01*
X24733005Y-25373273D01*
X24580120Y-25144465D01*
X24385535Y-24949880D01*
X24156727Y-24796995D01*
X24079485Y-24765000D01*
X24156727Y-24733005D01*
X24385535Y-24580120D01*
X24505090Y-24460565D01*
X25249040Y-24460565D01*
X25316020Y-24700656D01*
X25446644Y-24762079D01*
X25431977Y-24767364D01*
X25316020Y-24829344D01*
X25249040Y-25069435D01*
X26035000Y-25855395D01*
X26820960Y-25069435D01*
X26753980Y-24829344D01*
X26623356Y-24767921D01*
X26638023Y-24762636D01*
X26753980Y-24700656D01*
X26820960Y-24460565D01*
X26035000Y-23674605D01*
X25249040Y-24460565D01*
X24505090Y-24460565D01*
X24580120Y-24385535D01*
X24733005Y-24156727D01*
X24762692Y-24085057D01*
X24767364Y-24098023D01*
X24829344Y-24213980D01*
X25069435Y-24280960D01*
X25855395Y-23495000D01*
X25841253Y-23480858D01*
X26020858Y-23301253D01*
X26035000Y-23315395D01*
X26049143Y-23301253D01*
X26228748Y-23480858D01*
G36*
X57978748Y-26020858D02*
G01*
X57964605Y-26035000D01*
X57978748Y-26049143D01*
X57799143Y-26228748D01*
X57785000Y-26214605D01*
X57770858Y-26228748D01*
X57591253Y-26049143D01*
X57605395Y-26035000D01*
X57591253Y-26020858D01*
X57770858Y-25841253D01*
X57785000Y-25855395D01*
X57799143Y-25841253D01*
X57978748Y-26020858D01*
X57978748Y-26020858D01*
G37*
X57978748Y-26020858D02*
X57964605Y-26035000D01*
X57978748Y-26049143D01*
X57799143Y-26228748D01*
X57785000Y-26214605D01*
X57770858Y-26228748D01*
X57591253Y-26049143D01*
X57605395Y-26035000D01*
X57591253Y-26020858D01*
X57770858Y-25841253D01*
X57785000Y-25855395D01*
X57799143Y-25841253D01*
X57978748Y-26020858D01*
G36*
X57978748Y-23480858D02*
G01*
X57964605Y-23495000D01*
X57978748Y-23509143D01*
X57799143Y-23688748D01*
X57785000Y-23674605D01*
X57770858Y-23688748D01*
X57591253Y-23509143D01*
X57605395Y-23495000D01*
X57591253Y-23480858D01*
X57770858Y-23301253D01*
X57785000Y-23315395D01*
X57799143Y-23301253D01*
X57978748Y-23480858D01*
X57978748Y-23480858D01*
G37*
X57978748Y-23480858D02*
X57964605Y-23495000D01*
X57978748Y-23509143D01*
X57799143Y-23688748D01*
X57785000Y-23674605D01*
X57770858Y-23688748D01*
X57591253Y-23509143D01*
X57605395Y-23495000D01*
X57591253Y-23480858D01*
X57770858Y-23301253D01*
X57785000Y-23315395D01*
X57799143Y-23301253D01*
X57978748Y-23480858D01*
G36*
X26152548Y-20940858D02*
G01*
X26138405Y-20955000D01*
X26152548Y-20969143D01*
X25972943Y-21148748D01*
X25958800Y-21134605D01*
X25944658Y-21148748D01*
X25765053Y-20969143D01*
X25779195Y-20955000D01*
X25765053Y-20940858D01*
X25944658Y-20761253D01*
X25958800Y-20775395D01*
X25972943Y-20761253D01*
X26152548Y-20940858D01*
X26152548Y-20940858D01*
G37*
X26152548Y-20940858D02*
X26138405Y-20955000D01*
X26152548Y-20969143D01*
X25972943Y-21148748D01*
X25958800Y-21134605D01*
X25944658Y-21148748D01*
X25765053Y-20969143D01*
X25779195Y-20955000D01*
X25765053Y-20940858D01*
X25944658Y-20761253D01*
X25958800Y-20775395D01*
X25972943Y-20761253D01*
X26152548Y-20940858D01*
G36*
X57978748Y-18400858D02*
G01*
X57964605Y-18415000D01*
X58750565Y-19200960D01*
X58990656Y-19133980D01*
X59054485Y-18998240D01*
X59086995Y-19076727D01*
X59239880Y-19305535D01*
X59434465Y-19500120D01*
X59663273Y-19653005D01*
X59702415Y-19669218D01*
X59587073Y-19716995D01*
X59358265Y-19869880D01*
X59163680Y-20064465D01*
X59010795Y-20293273D01*
X58981108Y-20364943D01*
X58976436Y-20351977D01*
X58914456Y-20236020D01*
X58674365Y-20169040D01*
X57888405Y-20955000D01*
X57902548Y-20969143D01*
X57722943Y-21148748D01*
X57708800Y-21134605D01*
X57694658Y-21148748D01*
X57515053Y-20969143D01*
X57529195Y-20955000D01*
X56743235Y-20169040D01*
X56503144Y-20236020D01*
X56439315Y-20371760D01*
X56406805Y-20293273D01*
X56253920Y-20064465D01*
X56178890Y-19989435D01*
X56922840Y-19989435D01*
X57708800Y-20775395D01*
X58494760Y-19989435D01*
X58427780Y-19749344D01*
X58330215Y-19703466D01*
X58388023Y-19682636D01*
X58503980Y-19620656D01*
X58570960Y-19380565D01*
X57785000Y-18594605D01*
X56999040Y-19380565D01*
X57066020Y-19620656D01*
X57163585Y-19666534D01*
X57105777Y-19687364D01*
X56989820Y-19749344D01*
X56922840Y-19989435D01*
X56178890Y-19989435D01*
X56059335Y-19869880D01*
X55830527Y-19716995D01*
X55791385Y-19700782D01*
X55906727Y-19653005D01*
X56135535Y-19500120D01*
X56330120Y-19305535D01*
X56483005Y-19076727D01*
X56512692Y-19005057D01*
X56517364Y-19018023D01*
X56579344Y-19133980D01*
X56819435Y-19200960D01*
X57605395Y-18415000D01*
X57591253Y-18400858D01*
X57770858Y-18221253D01*
X57785000Y-18235395D01*
X57799143Y-18221253D01*
X57978748Y-18400858D01*
X57978748Y-18400858D01*
G37*
X57978748Y-18400858D02*
X57964605Y-18415000D01*
X58750565Y-19200960D01*
X58990656Y-19133980D01*
X59054485Y-18998240D01*
X59086995Y-19076727D01*
X59239880Y-19305535D01*
X59434465Y-19500120D01*
X59663273Y-19653005D01*
X59702415Y-19669218D01*
X59587073Y-19716995D01*
X59358265Y-19869880D01*
X59163680Y-20064465D01*
X59010795Y-20293273D01*
X58981108Y-20364943D01*
X58976436Y-20351977D01*
X58914456Y-20236020D01*
X58674365Y-20169040D01*
X57888405Y-20955000D01*
X57902548Y-20969143D01*
X57722943Y-21148748D01*
X57708800Y-21134605D01*
X57694658Y-21148748D01*
X57515053Y-20969143D01*
X57529195Y-20955000D01*
X56743235Y-20169040D01*
X56503144Y-20236020D01*
X56439315Y-20371760D01*
X56406805Y-20293273D01*
X56253920Y-20064465D01*
X56178890Y-19989435D01*
X56922840Y-19989435D01*
X57708800Y-20775395D01*
X58494760Y-19989435D01*
X58427780Y-19749344D01*
X58330215Y-19703466D01*
X58388023Y-19682636D01*
X58503980Y-19620656D01*
X58570960Y-19380565D01*
X57785000Y-18594605D01*
X56999040Y-19380565D01*
X57066020Y-19620656D01*
X57163585Y-19666534D01*
X57105777Y-19687364D01*
X56989820Y-19749344D01*
X56922840Y-19989435D01*
X56178890Y-19989435D01*
X56059335Y-19869880D01*
X55830527Y-19716995D01*
X55791385Y-19700782D01*
X55906727Y-19653005D01*
X56135535Y-19500120D01*
X56330120Y-19305535D01*
X56483005Y-19076727D01*
X56512692Y-19005057D01*
X56517364Y-19018023D01*
X56579344Y-19133980D01*
X56819435Y-19200960D01*
X57605395Y-18415000D01*
X57591253Y-18400858D01*
X57770858Y-18221253D01*
X57785000Y-18235395D01*
X57799143Y-18221253D01*
X57978748Y-18400858D01*
G36*
X24723501Y-20015603D02*
G01*
X24747299Y-20044601D01*
X24776297Y-20068399D01*
X24863023Y-20139574D01*
X24943899Y-20182804D01*
X24753144Y-20236020D01*
X24689315Y-20371760D01*
X24656805Y-20293273D01*
X24503920Y-20064465D01*
X24309335Y-19869880D01*
X24080527Y-19716995D01*
X24041385Y-19700782D01*
X24156727Y-19653005D01*
X24279122Y-19571223D01*
X24723501Y-20015603D01*
X24723501Y-20015603D01*
G37*
X24723501Y-20015603D02*
X24747299Y-20044601D01*
X24776297Y-20068399D01*
X24863023Y-20139574D01*
X24943899Y-20182804D01*
X24753144Y-20236020D01*
X24689315Y-20371760D01*
X24656805Y-20293273D01*
X24503920Y-20064465D01*
X24309335Y-19869880D01*
X24080527Y-19716995D01*
X24041385Y-19700782D01*
X24156727Y-19653005D01*
X24279122Y-19571223D01*
X24723501Y-20015603D01*
G36*
X26228748Y-18400858D02*
G01*
X26214605Y-18415000D01*
X26228748Y-18429143D01*
X26049143Y-18608748D01*
X26035000Y-18594605D01*
X26020858Y-18608748D01*
X25841253Y-18429143D01*
X25855395Y-18415000D01*
X25841253Y-18400858D01*
X26020858Y-18221253D01*
X26035000Y-18235395D01*
X26049143Y-18221253D01*
X26228748Y-18400858D01*
X26228748Y-18400858D01*
G37*
X26228748Y-18400858D02*
X26214605Y-18415000D01*
X26228748Y-18429143D01*
X26049143Y-18608748D01*
X26035000Y-18594605D01*
X26020858Y-18608748D01*
X25841253Y-18429143D01*
X25855395Y-18415000D01*
X25841253Y-18400858D01*
X26020858Y-18221253D01*
X26035000Y-18235395D01*
X26049143Y-18221253D01*
X26228748Y-18400858D01*
G36*
X26228748Y-15860858D02*
G01*
X26214605Y-15875000D01*
X26228748Y-15889143D01*
X26049143Y-16068748D01*
X26035000Y-16054605D01*
X26020858Y-16068748D01*
X25841253Y-15889143D01*
X25855395Y-15875000D01*
X25841253Y-15860858D01*
X26020858Y-15681253D01*
X26035000Y-15695395D01*
X26049143Y-15681253D01*
X26228748Y-15860858D01*
X26228748Y-15860858D01*
G37*
X26228748Y-15860858D02*
X26214605Y-15875000D01*
X26228748Y-15889143D01*
X26049143Y-16068748D01*
X26035000Y-16054605D01*
X26020858Y-16068748D01*
X25841253Y-15889143D01*
X25855395Y-15875000D01*
X25841253Y-15860858D01*
X26020858Y-15681253D01*
X26035000Y-15695395D01*
X26049143Y-15681253D01*
X26228748Y-15860858D01*
G36*
X57978748Y-15860858D02*
G01*
X57964605Y-15875000D01*
X57978748Y-15889143D01*
X57799143Y-16068748D01*
X57785000Y-16054605D01*
X57770858Y-16068748D01*
X57591253Y-15889143D01*
X57605395Y-15875000D01*
X57591253Y-15860858D01*
X57770858Y-15681253D01*
X57785000Y-15695395D01*
X57799143Y-15681253D01*
X57978748Y-15860858D01*
X57978748Y-15860858D01*
G37*
X57978748Y-15860858D02*
X57964605Y-15875000D01*
X57978748Y-15889143D01*
X57799143Y-16068748D01*
X57785000Y-16054605D01*
X57770858Y-16068748D01*
X57591253Y-15889143D01*
X57605395Y-15875000D01*
X57591253Y-15860858D01*
X57770858Y-15681253D01*
X57785000Y-15695395D01*
X57799143Y-15681253D01*
X57978748Y-15860858D01*
G36*
X25249040Y-12369435D02*
G01*
X26035000Y-13155395D01*
X26820960Y-12369435D01*
X26771460Y-12192000D01*
X27771088Y-12192000D01*
X27684465Y-12249880D01*
X27489880Y-12444465D01*
X27336995Y-12673273D01*
X27307308Y-12744943D01*
X27302636Y-12731977D01*
X27240656Y-12616020D01*
X27000565Y-12549040D01*
X26214605Y-13335000D01*
X26228748Y-13349143D01*
X26049143Y-13528748D01*
X26035000Y-13514605D01*
X26020858Y-13528748D01*
X25841253Y-13349143D01*
X25855395Y-13335000D01*
X25069435Y-12549040D01*
X24829344Y-12616020D01*
X24765515Y-12751760D01*
X24733005Y-12673273D01*
X24580120Y-12444465D01*
X24385535Y-12249880D01*
X24298912Y-12192000D01*
X25298540Y-12192000D01*
X25249040Y-12369435D01*
X25249040Y-12369435D01*
G37*
X25249040Y-12369435D02*
X26035000Y-13155395D01*
X26820960Y-12369435D01*
X26771460Y-12192000D01*
X27771088Y-12192000D01*
X27684465Y-12249880D01*
X27489880Y-12444465D01*
X27336995Y-12673273D01*
X27307308Y-12744943D01*
X27302636Y-12731977D01*
X27240656Y-12616020D01*
X27000565Y-12549040D01*
X26214605Y-13335000D01*
X26228748Y-13349143D01*
X26049143Y-13528748D01*
X26035000Y-13514605D01*
X26020858Y-13528748D01*
X25841253Y-13349143D01*
X25855395Y-13335000D01*
X25069435Y-12549040D01*
X24829344Y-12616020D01*
X24765515Y-12751760D01*
X24733005Y-12673273D01*
X24580120Y-12444465D01*
X24385535Y-12249880D01*
X24298912Y-12192000D01*
X25298540Y-12192000D01*
X25249040Y-12369435D01*
G36*
X57978748Y-13320858D02*
G01*
X57964605Y-13335000D01*
X57978748Y-13349143D01*
X57799143Y-13528748D01*
X57785000Y-13514605D01*
X57770858Y-13528748D01*
X57591253Y-13349143D01*
X57605395Y-13335000D01*
X57591253Y-13320858D01*
X57770858Y-13141253D01*
X57785000Y-13155395D01*
X57799143Y-13141253D01*
X57978748Y-13320858D01*
X57978748Y-13320858D01*
G37*
X57978748Y-13320858D02*
X57964605Y-13335000D01*
X57978748Y-13349143D01*
X57799143Y-13528748D01*
X57785000Y-13514605D01*
X57770858Y-13528748D01*
X57591253Y-13349143D01*
X57605395Y-13335000D01*
X57591253Y-13320858D01*
X57770858Y-13141253D01*
X57785000Y-13155395D01*
X57799143Y-13141253D01*
X57978748Y-13320858D01*
M02*
