M48
; DRILL file {KiCad (5.1.0)-1} date 22.09.2019 18:06:38
; FORMAT={-:-/ absolute / metric / decimal}
; #@! TF.CreationDate,2019-09-22T18:06:38+02:00
; #@! TF.GenerationSoftware,Kicad,Pcbnew,(5.1.0)-1
FMAT,2
METRIC
T1C0.300
T2C0.400
T3C0.762
T4C0.800
T5C1.000
T6C1.200
T7C1.290
T8C1.320
T9C2.200
%
G90
G05
T1
X33.263Y-55.053
X33.263Y-57.085
X33.263Y-59.117
X33.263Y-61.149
X33.263Y-63.181
X33.263Y-65.213
X33.263Y-67.245
X33.263Y-69.277
X50.625Y-65.675
X50.645Y-60.615
T2
X29.364Y-34.816
X40.64Y-64.135
X42.545Y-25.4
T3
X20.879Y-20.955
X20.879Y-31.115
X20.879Y-36.195
X20.879Y-41.275
X20.955Y-13.335
X20.955Y-15.875
X20.955Y-18.415
X20.955Y-23.495
X20.955Y-26.035
X20.955Y-28.575
X20.955Y-33.655
X20.955Y-38.735
X20.955Y-43.815
X31.039Y-20.955
X31.039Y-31.115
X31.039Y-36.195
X31.039Y-41.275
X31.115Y-13.335
X31.115Y-15.875
X31.115Y-18.415
X31.115Y-23.495
X31.115Y-26.035
X31.115Y-28.575
X31.115Y-33.655
X31.115Y-38.735
X31.115Y-43.815
X57.709Y-20.955
X57.709Y-31.115
X57.709Y-36.195
X57.709Y-41.275
X57.785Y-13.335
X57.785Y-15.875
X57.785Y-18.415
X57.785Y-23.495
X57.785Y-26.035
X57.785Y-28.575
X57.785Y-33.655
X57.785Y-38.735
X57.785Y-43.815
X52.705Y-13.335
X52.705Y-18.415
X52.705Y-23.495
X52.705Y-28.575
X52.705Y-31.115
X52.705Y-33.655
X52.705Y-38.735
X52.705Y-41.275
X52.705Y-43.815
X52.781Y-15.875
X52.781Y-20.955
X52.781Y-26.035
X52.781Y-36.195
X23.419Y-20.955
X23.419Y-31.115
X23.419Y-36.195
X23.419Y-41.275
X23.495Y-13.335
X23.495Y-15.875
X23.495Y-18.415
X23.495Y-23.495
X23.495Y-26.035
X23.495Y-28.575
X23.495Y-33.655
X23.495Y-38.735
X23.495Y-43.815
X60.249Y-20.955
X60.249Y-31.115
X60.249Y-36.195
X60.249Y-41.275
X60.325Y-13.335
X60.325Y-15.875
X60.325Y-18.415
X60.325Y-23.495
X60.325Y-26.035
X60.325Y-28.575
X60.325Y-33.655
X60.325Y-38.735
X60.325Y-43.815
X25.959Y-20.955
X25.959Y-31.115
X25.959Y-36.195
X25.959Y-41.275
X26.035Y-13.335
X26.035Y-15.875
X26.035Y-18.415
X26.035Y-23.495
X26.035Y-26.035
X26.035Y-28.575
X26.035Y-33.655
X26.035Y-38.735
X26.035Y-43.815
X55.169Y-20.955
X55.169Y-31.115
X55.169Y-36.195
X55.169Y-41.275
X55.245Y-13.335
X55.245Y-15.875
X55.245Y-18.415
X55.245Y-23.495
X55.245Y-26.035
X55.245Y-28.575
X55.245Y-33.655
X55.245Y-38.735
X55.245Y-43.815
X28.499Y-20.955
X28.499Y-31.115
X28.499Y-36.195
X28.499Y-41.275
X28.575Y-13.335
X28.575Y-15.875
X28.575Y-18.415
X28.575Y-23.495
X28.575Y-26.035
X28.575Y-28.575
X28.575Y-33.655
X28.575Y-38.735
X28.575Y-43.815
X62.789Y-20.955
X62.789Y-31.115
X62.789Y-36.195
X62.789Y-41.275
X62.865Y-13.335
X62.865Y-15.875
X62.865Y-18.415
X62.865Y-23.495
X62.865Y-26.035
X62.865Y-28.575
X62.865Y-33.655
X62.865Y-38.735
X62.865Y-43.815
T4
X34.29Y-16.51
X34.29Y-19.05
X34.29Y-21.59
X34.29Y-24.13
X34.29Y-26.67
X34.29Y-29.21
X34.29Y-31.75
X34.29Y-34.29
X34.29Y-36.83
X34.29Y-39.37
X34.29Y-41.91
X34.29Y-44.45
X34.29Y-46.99
X34.29Y-49.53
X34.29Y-52.07
X49.53Y-16.51
X49.53Y-19.05
X49.53Y-21.59
X49.53Y-24.13
X49.53Y-26.67
X49.53Y-29.21
X49.53Y-31.75
X49.53Y-34.29
X49.53Y-36.83
X49.53Y-39.37
X49.53Y-41.91
X49.53Y-44.45
X49.53Y-46.99
X49.53Y-49.53
X49.53Y-52.07
T5
X50.637Y-63.152
T6
X17.78Y-19.685
X17.78Y-24.765
X17.78Y-29.845
X66.04Y-19.685
X66.04Y-24.765
X66.04Y-29.845
X66.04Y-33.02
X66.04Y-38.1
X66.04Y-43.18
X17.78Y-33.02
X17.78Y-38.1
X17.78Y-43.18
T7
X24.13Y-63.345
X60.96Y-63.345
T8
X18.13Y-49.145
X18.13Y-61.345
X30.13Y-49.145
X30.13Y-61.345
X54.96Y-49.145
X54.96Y-61.345
X66.96Y-49.145
X66.96Y-61.345
T9
X69.469Y-14.605
X14.351Y-69.85
X14.351Y-14.605
X69.469Y-69.85
T0
M30
