G04 #@! TF.GenerationSoftware,KiCad,Pcbnew,(5.1.0)-1*
G04 #@! TF.CreationDate,2019-09-22T18:06:07+02:00*
G04 #@! TF.ProjectId,Arduino_HM_1,41726475-696e-46f5-9f48-4d5f312e6b69,rev?*
G04 #@! TF.SameCoordinates,Original*
G04 #@! TF.FileFunction,Soldermask,Top*
G04 #@! TF.FilePolarity,Negative*
%FSLAX46Y46*%
G04 Gerber Fmt 4.6, Leading zero omitted, Abs format (unit mm)*
G04 Created by KiCad (PCBNEW (5.1.0)-1) date 2019-09-22 18:06:07*
%MOMM*%
%LPD*%
G04 APERTURE LIST*
%ADD10C,0.100000*%
G04 APERTURE END LIST*
D10*
G36*
X69693549Y-68721116D02*
G01*
X69804734Y-68743232D01*
X70014203Y-68829997D01*
X70202720Y-68955960D01*
X70363040Y-69116280D01*
X70434168Y-69222731D01*
X70489004Y-69304799D01*
X70575768Y-69514267D01*
X70613706Y-69704991D01*
X70620000Y-69736636D01*
X70620000Y-69963364D01*
X70575768Y-70185734D01*
X70489003Y-70395203D01*
X70363040Y-70583720D01*
X70202720Y-70744040D01*
X70014203Y-70870003D01*
X69804734Y-70956768D01*
X69693549Y-70978884D01*
X69582365Y-71001000D01*
X69355635Y-71001000D01*
X69244451Y-70978884D01*
X69133266Y-70956768D01*
X68923797Y-70870003D01*
X68735280Y-70744040D01*
X68574960Y-70583720D01*
X68448997Y-70395203D01*
X68362232Y-70185734D01*
X68318000Y-69963364D01*
X68318000Y-69736636D01*
X68324295Y-69704991D01*
X68362232Y-69514267D01*
X68448996Y-69304799D01*
X68503832Y-69222731D01*
X68574960Y-69116280D01*
X68735280Y-68955960D01*
X68923797Y-68829997D01*
X69133266Y-68743232D01*
X69244451Y-68721116D01*
X69355635Y-68699000D01*
X69582365Y-68699000D01*
X69693549Y-68721116D01*
X69693549Y-68721116D01*
G37*
G36*
X14575549Y-68721116D02*
G01*
X14686734Y-68743232D01*
X14896203Y-68829997D01*
X15084720Y-68955960D01*
X15245040Y-69116280D01*
X15316168Y-69222731D01*
X15371004Y-69304799D01*
X15457768Y-69514267D01*
X15495706Y-69704991D01*
X15502000Y-69736636D01*
X15502000Y-69963364D01*
X15457768Y-70185734D01*
X15371003Y-70395203D01*
X15245040Y-70583720D01*
X15084720Y-70744040D01*
X14896203Y-70870003D01*
X14686734Y-70956768D01*
X14575549Y-70978884D01*
X14464365Y-71001000D01*
X14237635Y-71001000D01*
X14126451Y-70978884D01*
X14015266Y-70956768D01*
X13805797Y-70870003D01*
X13617280Y-70744040D01*
X13456960Y-70583720D01*
X13330997Y-70395203D01*
X13244232Y-70185734D01*
X13200000Y-69963364D01*
X13200000Y-69736636D01*
X13206295Y-69704991D01*
X13244232Y-69514267D01*
X13330996Y-69304799D01*
X13385832Y-69222731D01*
X13456960Y-69116280D01*
X13617280Y-68955960D01*
X13805797Y-68829997D01*
X14015266Y-68743232D01*
X14126451Y-68721116D01*
X14237635Y-68699000D01*
X14464365Y-68699000D01*
X14575549Y-68721116D01*
X14575549Y-68721116D01*
G37*
G36*
X33423721Y-68747174D02*
G01*
X33523995Y-68788709D01*
X33523996Y-68788710D01*
X33614242Y-68849010D01*
X33690990Y-68925758D01*
X33690991Y-68925760D01*
X33751291Y-69016005D01*
X33792826Y-69116279D01*
X33814000Y-69222730D01*
X33814000Y-69331270D01*
X33792826Y-69437721D01*
X33751291Y-69537995D01*
X33751290Y-69537996D01*
X33690990Y-69628242D01*
X33614242Y-69704990D01*
X33568812Y-69735345D01*
X33523995Y-69765291D01*
X33423721Y-69806826D01*
X33317270Y-69828000D01*
X33208730Y-69828000D01*
X33102279Y-69806826D01*
X33002005Y-69765291D01*
X32957188Y-69735345D01*
X32911758Y-69704990D01*
X32835010Y-69628242D01*
X32774710Y-69537996D01*
X32774709Y-69537995D01*
X32733174Y-69437721D01*
X32712000Y-69331270D01*
X32712000Y-69222730D01*
X32733174Y-69116279D01*
X32774709Y-69016005D01*
X32835009Y-68925760D01*
X32835010Y-68925758D01*
X32911758Y-68849010D01*
X33002004Y-68788710D01*
X33002005Y-68788709D01*
X33102279Y-68747174D01*
X33208730Y-68726000D01*
X33317270Y-68726000D01*
X33423721Y-68747174D01*
X33423721Y-68747174D01*
G37*
G36*
X33423721Y-66715174D02*
G01*
X33523995Y-66756709D01*
X33523996Y-66756710D01*
X33614242Y-66817010D01*
X33690990Y-66893758D01*
X33690991Y-66893760D01*
X33751291Y-66984005D01*
X33792826Y-67084279D01*
X33814000Y-67190730D01*
X33814000Y-67299270D01*
X33792826Y-67405721D01*
X33751291Y-67505995D01*
X33751290Y-67505996D01*
X33690990Y-67596242D01*
X33614242Y-67672990D01*
X33568812Y-67703345D01*
X33523995Y-67733291D01*
X33423721Y-67774826D01*
X33317270Y-67796000D01*
X33208730Y-67796000D01*
X33102279Y-67774826D01*
X33002005Y-67733291D01*
X32957188Y-67703345D01*
X32911758Y-67672990D01*
X32835010Y-67596242D01*
X32774710Y-67505996D01*
X32774709Y-67505995D01*
X32733174Y-67405721D01*
X32712000Y-67299270D01*
X32712000Y-67190730D01*
X32733174Y-67084279D01*
X32774709Y-66984005D01*
X32835009Y-66893760D01*
X32835010Y-66893758D01*
X32911758Y-66817010D01*
X33002004Y-66756710D01*
X33002005Y-66756709D01*
X33102279Y-66715174D01*
X33208730Y-66694000D01*
X33317270Y-66694000D01*
X33423721Y-66715174D01*
X33423721Y-66715174D01*
G37*
G36*
X50785721Y-65145174D02*
G01*
X50885995Y-65186709D01*
X50885996Y-65186710D01*
X50976242Y-65247010D01*
X51052990Y-65323758D01*
X51052991Y-65323760D01*
X51113291Y-65414005D01*
X51154826Y-65514279D01*
X51176000Y-65620730D01*
X51176000Y-65729270D01*
X51154826Y-65835721D01*
X51113291Y-65935995D01*
X51113290Y-65935996D01*
X51052990Y-66026242D01*
X50976242Y-66102990D01*
X50930812Y-66133345D01*
X50885995Y-66163291D01*
X50785721Y-66204826D01*
X50679270Y-66226000D01*
X50570730Y-66226000D01*
X50464279Y-66204826D01*
X50364005Y-66163291D01*
X50319188Y-66133345D01*
X50273758Y-66102990D01*
X50197010Y-66026242D01*
X50136710Y-65935996D01*
X50136709Y-65935995D01*
X50095174Y-65835721D01*
X50074000Y-65729270D01*
X50074000Y-65620730D01*
X50095174Y-65514279D01*
X50136709Y-65414005D01*
X50197009Y-65323760D01*
X50197010Y-65323758D01*
X50273758Y-65247010D01*
X50364004Y-65186710D01*
X50364005Y-65186709D01*
X50464279Y-65145174D01*
X50570730Y-65124000D01*
X50679270Y-65124000D01*
X50785721Y-65145174D01*
X50785721Y-65145174D01*
G37*
G36*
X33423721Y-64683174D02*
G01*
X33523995Y-64724709D01*
X33523996Y-64724710D01*
X33614242Y-64785010D01*
X33690990Y-64861758D01*
X33690991Y-64861760D01*
X33751291Y-64952005D01*
X33792826Y-65052279D01*
X33814000Y-65158730D01*
X33814000Y-65267270D01*
X33792826Y-65373721D01*
X33751291Y-65473995D01*
X33751290Y-65473996D01*
X33690990Y-65564242D01*
X33614242Y-65640990D01*
X33568812Y-65671345D01*
X33523995Y-65701291D01*
X33423721Y-65742826D01*
X33317270Y-65764000D01*
X33208730Y-65764000D01*
X33102279Y-65742826D01*
X33002005Y-65701291D01*
X32957188Y-65671345D01*
X32911758Y-65640990D01*
X32835010Y-65564242D01*
X32774710Y-65473996D01*
X32774709Y-65473995D01*
X32733174Y-65373721D01*
X32712000Y-65267270D01*
X32712000Y-65158730D01*
X32733174Y-65052279D01*
X32774709Y-64952005D01*
X32835009Y-64861760D01*
X32835010Y-64861758D01*
X32911758Y-64785010D01*
X33002004Y-64724710D01*
X33002005Y-64724709D01*
X33102279Y-64683174D01*
X33208730Y-64662000D01*
X33317270Y-64662000D01*
X33423721Y-64683174D01*
X33423721Y-64683174D01*
G37*
G36*
X61158322Y-62345995D02*
G01*
X61257085Y-62365640D01*
X61442441Y-62442417D01*
X61609256Y-62553879D01*
X61751121Y-62695744D01*
X61862583Y-62862559D01*
X61939360Y-63047915D01*
X61978500Y-63244687D01*
X61978500Y-63445313D01*
X61939360Y-63642085D01*
X61862583Y-63827441D01*
X61751121Y-63994256D01*
X61609256Y-64136121D01*
X61442441Y-64247583D01*
X61257085Y-64324360D01*
X61191494Y-64337407D01*
X61060315Y-64363500D01*
X60859685Y-64363500D01*
X60728506Y-64337407D01*
X60662915Y-64324360D01*
X60477559Y-64247583D01*
X60310744Y-64136121D01*
X60168879Y-63994256D01*
X60057417Y-63827441D01*
X59980640Y-63642085D01*
X59941500Y-63445313D01*
X59941500Y-63244687D01*
X59980640Y-63047915D01*
X60057417Y-62862559D01*
X60168879Y-62695744D01*
X60310744Y-62553879D01*
X60477559Y-62442417D01*
X60662915Y-62365640D01*
X60761678Y-62345995D01*
X60859685Y-62326500D01*
X61060315Y-62326500D01*
X61158322Y-62345995D01*
X61158322Y-62345995D01*
G37*
G36*
X24328322Y-62345995D02*
G01*
X24427085Y-62365640D01*
X24612441Y-62442417D01*
X24779256Y-62553879D01*
X24921121Y-62695744D01*
X25032583Y-62862559D01*
X25109360Y-63047915D01*
X25148500Y-63244687D01*
X25148500Y-63445313D01*
X25109360Y-63642085D01*
X25032583Y-63827441D01*
X24921121Y-63994256D01*
X24779256Y-64136121D01*
X24612441Y-64247583D01*
X24427085Y-64324360D01*
X24361494Y-64337407D01*
X24230315Y-64363500D01*
X24029685Y-64363500D01*
X23898506Y-64337407D01*
X23832915Y-64324360D01*
X23647559Y-64247583D01*
X23480744Y-64136121D01*
X23338879Y-63994256D01*
X23227417Y-63827441D01*
X23150640Y-63642085D01*
X23111500Y-63445313D01*
X23111500Y-63244687D01*
X23150640Y-63047915D01*
X23227417Y-62862559D01*
X23338879Y-62695744D01*
X23480744Y-62553879D01*
X23647559Y-62442417D01*
X23832915Y-62365640D01*
X23931678Y-62345995D01*
X24029685Y-62326500D01*
X24230315Y-62326500D01*
X24328322Y-62345995D01*
X24328322Y-62345995D01*
G37*
G36*
X50870242Y-62382181D02*
G01*
X51015664Y-62442417D01*
X51016016Y-62442563D01*
X51147208Y-62530222D01*
X51258778Y-62641792D01*
X51333090Y-62753009D01*
X51346438Y-62772986D01*
X51406819Y-62918758D01*
X51437600Y-63073507D01*
X51437600Y-63231293D01*
X51406819Y-63386042D01*
X51383642Y-63441995D01*
X51346437Y-63531816D01*
X51258778Y-63663008D01*
X51147208Y-63774578D01*
X51016016Y-63862237D01*
X51016015Y-63862238D01*
X51016014Y-63862238D01*
X50870242Y-63922619D01*
X50715493Y-63953400D01*
X50557707Y-63953400D01*
X50402958Y-63922619D01*
X50257186Y-63862238D01*
X50257185Y-63862238D01*
X50257184Y-63862237D01*
X50125992Y-63774578D01*
X50014422Y-63663008D01*
X49926763Y-63531816D01*
X49889558Y-63441995D01*
X49866381Y-63386042D01*
X49835600Y-63231293D01*
X49835600Y-63073507D01*
X49866381Y-62918758D01*
X49926762Y-62772986D01*
X49940110Y-62753009D01*
X50014422Y-62641792D01*
X50125992Y-62530222D01*
X50257184Y-62442563D01*
X50257536Y-62442417D01*
X50402958Y-62382181D01*
X50557707Y-62351400D01*
X50715493Y-62351400D01*
X50870242Y-62382181D01*
X50870242Y-62382181D01*
G37*
G36*
X33423721Y-62651174D02*
G01*
X33523995Y-62692709D01*
X33568812Y-62722655D01*
X33614242Y-62753010D01*
X33690990Y-62829758D01*
X33690991Y-62829760D01*
X33751291Y-62920005D01*
X33792826Y-63020279D01*
X33814000Y-63126730D01*
X33814000Y-63235270D01*
X33792826Y-63341721D01*
X33751291Y-63441995D01*
X33721345Y-63486812D01*
X33690990Y-63532242D01*
X33614242Y-63608990D01*
X33568812Y-63639345D01*
X33523995Y-63669291D01*
X33423721Y-63710826D01*
X33317270Y-63732000D01*
X33208730Y-63732000D01*
X33102279Y-63710826D01*
X33002005Y-63669291D01*
X32957188Y-63639345D01*
X32911758Y-63608990D01*
X32835010Y-63532242D01*
X32804655Y-63486812D01*
X32774709Y-63441995D01*
X32733174Y-63341721D01*
X32712000Y-63235270D01*
X32712000Y-63126730D01*
X32733174Y-63020279D01*
X32774709Y-62920005D01*
X32835009Y-62829760D01*
X32835010Y-62829758D01*
X32911758Y-62753010D01*
X32957188Y-62722655D01*
X33002005Y-62692709D01*
X33102279Y-62651174D01*
X33208730Y-62630000D01*
X33317270Y-62630000D01*
X33423721Y-62651174D01*
X33423721Y-62651174D01*
G37*
G36*
X19171000Y-62386000D02*
G01*
X17089000Y-62386000D01*
X17089000Y-60304000D01*
X19171000Y-60304000D01*
X19171000Y-62386000D01*
X19171000Y-62386000D01*
G37*
G36*
X30433647Y-60344004D02*
G01*
X30623097Y-60422477D01*
X30623098Y-60422478D01*
X30793599Y-60536402D01*
X30938598Y-60681401D01*
X31001620Y-60775721D01*
X31052523Y-60851903D01*
X31130996Y-61041353D01*
X31171000Y-61242469D01*
X31171000Y-61447531D01*
X31130996Y-61648647D01*
X31052523Y-61838097D01*
X31052522Y-61838098D01*
X30938598Y-62008599D01*
X30793599Y-62153598D01*
X30679674Y-62229719D01*
X30623097Y-62267523D01*
X30433647Y-62345996D01*
X30232531Y-62386000D01*
X30027469Y-62386000D01*
X29826353Y-62345996D01*
X29636903Y-62267523D01*
X29580326Y-62229719D01*
X29466401Y-62153598D01*
X29321402Y-62008599D01*
X29207478Y-61838098D01*
X29207477Y-61838097D01*
X29129004Y-61648647D01*
X29089000Y-61447531D01*
X29089000Y-61242469D01*
X29129004Y-61041353D01*
X29207477Y-60851903D01*
X29258380Y-60775721D01*
X29321402Y-60681401D01*
X29466401Y-60536402D01*
X29636902Y-60422478D01*
X29636903Y-60422477D01*
X29826353Y-60344004D01*
X30027469Y-60304000D01*
X30232531Y-60304000D01*
X30433647Y-60344004D01*
X30433647Y-60344004D01*
G37*
G36*
X56001000Y-62386000D02*
G01*
X53919000Y-62386000D01*
X53919000Y-60304000D01*
X56001000Y-60304000D01*
X56001000Y-62386000D01*
X56001000Y-62386000D01*
G37*
G36*
X67263647Y-60344004D02*
G01*
X67453097Y-60422477D01*
X67453098Y-60422478D01*
X67623599Y-60536402D01*
X67768598Y-60681401D01*
X67831620Y-60775721D01*
X67882523Y-60851903D01*
X67960996Y-61041353D01*
X68001000Y-61242469D01*
X68001000Y-61447531D01*
X67960996Y-61648647D01*
X67882523Y-61838097D01*
X67882522Y-61838098D01*
X67768598Y-62008599D01*
X67623599Y-62153598D01*
X67509674Y-62229719D01*
X67453097Y-62267523D01*
X67263647Y-62345996D01*
X67062531Y-62386000D01*
X66857469Y-62386000D01*
X66656353Y-62345996D01*
X66466903Y-62267523D01*
X66410326Y-62229719D01*
X66296401Y-62153598D01*
X66151402Y-62008599D01*
X66037478Y-61838098D01*
X66037477Y-61838097D01*
X65959004Y-61648647D01*
X65919000Y-61447531D01*
X65919000Y-61242469D01*
X65959004Y-61041353D01*
X66037477Y-60851903D01*
X66088380Y-60775721D01*
X66151402Y-60681401D01*
X66296401Y-60536402D01*
X66466902Y-60422478D01*
X66466903Y-60422477D01*
X66656353Y-60344004D01*
X66857469Y-60304000D01*
X67062531Y-60304000D01*
X67263647Y-60344004D01*
X67263647Y-60344004D01*
G37*
G36*
X33423721Y-60619174D02*
G01*
X33523995Y-60660709D01*
X33523996Y-60660710D01*
X33614242Y-60721010D01*
X33690990Y-60797758D01*
X33690991Y-60797760D01*
X33751291Y-60888005D01*
X33792826Y-60988279D01*
X33814000Y-61094730D01*
X33814000Y-61203270D01*
X33792826Y-61309721D01*
X33751291Y-61409995D01*
X33751290Y-61409996D01*
X33690990Y-61500242D01*
X33614242Y-61576990D01*
X33568812Y-61607345D01*
X33523995Y-61637291D01*
X33423721Y-61678826D01*
X33317270Y-61700000D01*
X33208730Y-61700000D01*
X33102279Y-61678826D01*
X33002005Y-61637291D01*
X32957188Y-61607345D01*
X32911758Y-61576990D01*
X32835010Y-61500242D01*
X32774710Y-61409996D01*
X32774709Y-61409995D01*
X32733174Y-61309721D01*
X32712000Y-61203270D01*
X32712000Y-61094730D01*
X32733174Y-60988279D01*
X32774709Y-60888005D01*
X32835009Y-60797760D01*
X32835010Y-60797758D01*
X32911758Y-60721010D01*
X33002004Y-60660710D01*
X33002005Y-60660709D01*
X33102279Y-60619174D01*
X33208730Y-60598000D01*
X33317270Y-60598000D01*
X33423721Y-60619174D01*
X33423721Y-60619174D01*
G37*
G36*
X50805721Y-60085174D02*
G01*
X50905995Y-60126709D01*
X50905996Y-60126710D01*
X50996242Y-60187010D01*
X51072990Y-60263758D01*
X51072991Y-60263760D01*
X51133291Y-60354005D01*
X51174826Y-60454279D01*
X51196000Y-60560730D01*
X51196000Y-60669270D01*
X51174826Y-60775721D01*
X51133291Y-60875995D01*
X51133290Y-60875996D01*
X51072990Y-60966242D01*
X50996242Y-61042990D01*
X50950812Y-61073345D01*
X50905995Y-61103291D01*
X50805721Y-61144826D01*
X50699270Y-61166000D01*
X50590730Y-61166000D01*
X50484279Y-61144826D01*
X50384005Y-61103291D01*
X50339188Y-61073345D01*
X50293758Y-61042990D01*
X50217010Y-60966242D01*
X50156710Y-60875996D01*
X50156709Y-60875995D01*
X50115174Y-60775721D01*
X50094000Y-60669270D01*
X50094000Y-60560730D01*
X50115174Y-60454279D01*
X50156709Y-60354005D01*
X50217009Y-60263760D01*
X50217010Y-60263758D01*
X50293758Y-60187010D01*
X50384004Y-60126710D01*
X50384005Y-60126709D01*
X50484279Y-60085174D01*
X50590730Y-60064000D01*
X50699270Y-60064000D01*
X50805721Y-60085174D01*
X50805721Y-60085174D01*
G37*
G36*
X33423721Y-58587174D02*
G01*
X33523995Y-58628709D01*
X33523996Y-58628710D01*
X33614242Y-58689010D01*
X33690990Y-58765758D01*
X33690991Y-58765760D01*
X33751291Y-58856005D01*
X33792826Y-58956279D01*
X33814000Y-59062730D01*
X33814000Y-59171270D01*
X33792826Y-59277721D01*
X33751291Y-59377995D01*
X33751290Y-59377996D01*
X33690990Y-59468242D01*
X33614242Y-59544990D01*
X33568812Y-59575345D01*
X33523995Y-59605291D01*
X33423721Y-59646826D01*
X33317270Y-59668000D01*
X33208730Y-59668000D01*
X33102279Y-59646826D01*
X33002005Y-59605291D01*
X32957188Y-59575345D01*
X32911758Y-59544990D01*
X32835010Y-59468242D01*
X32774710Y-59377996D01*
X32774709Y-59377995D01*
X32733174Y-59277721D01*
X32712000Y-59171270D01*
X32712000Y-59062730D01*
X32733174Y-58956279D01*
X32774709Y-58856005D01*
X32835009Y-58765760D01*
X32835010Y-58765758D01*
X32911758Y-58689010D01*
X33002004Y-58628710D01*
X33002005Y-58628709D01*
X33102279Y-58587174D01*
X33208730Y-58566000D01*
X33317270Y-58566000D01*
X33423721Y-58587174D01*
X33423721Y-58587174D01*
G37*
G36*
X33423721Y-56555174D02*
G01*
X33523995Y-56596709D01*
X33523996Y-56596710D01*
X33614242Y-56657010D01*
X33690990Y-56733758D01*
X33690991Y-56733760D01*
X33751291Y-56824005D01*
X33792826Y-56924279D01*
X33814000Y-57030730D01*
X33814000Y-57139270D01*
X33792826Y-57245721D01*
X33751291Y-57345995D01*
X33751290Y-57345996D01*
X33690990Y-57436242D01*
X33614242Y-57512990D01*
X33568812Y-57543345D01*
X33523995Y-57573291D01*
X33423721Y-57614826D01*
X33317270Y-57636000D01*
X33208730Y-57636000D01*
X33102279Y-57614826D01*
X33002005Y-57573291D01*
X32957188Y-57543345D01*
X32911758Y-57512990D01*
X32835010Y-57436242D01*
X32774710Y-57345996D01*
X32774709Y-57345995D01*
X32733174Y-57245721D01*
X32712000Y-57139270D01*
X32712000Y-57030730D01*
X32733174Y-56924279D01*
X32774709Y-56824005D01*
X32835009Y-56733760D01*
X32835010Y-56733758D01*
X32911758Y-56657010D01*
X33002004Y-56596710D01*
X33002005Y-56596709D01*
X33102279Y-56555174D01*
X33208730Y-56534000D01*
X33317270Y-56534000D01*
X33423721Y-56555174D01*
X33423721Y-56555174D01*
G37*
G36*
X33423721Y-54523174D02*
G01*
X33523995Y-54564709D01*
X33523996Y-54564710D01*
X33614242Y-54625010D01*
X33690990Y-54701758D01*
X33690991Y-54701760D01*
X33751291Y-54792005D01*
X33792826Y-54892279D01*
X33814000Y-54998730D01*
X33814000Y-55107270D01*
X33792826Y-55213721D01*
X33751291Y-55313995D01*
X33751290Y-55313996D01*
X33690990Y-55404242D01*
X33614242Y-55480990D01*
X33568812Y-55511345D01*
X33523995Y-55541291D01*
X33423721Y-55582826D01*
X33317270Y-55604000D01*
X33208730Y-55604000D01*
X33102279Y-55582826D01*
X33002005Y-55541291D01*
X32957188Y-55511345D01*
X32911758Y-55480990D01*
X32835010Y-55404242D01*
X32774710Y-55313996D01*
X32774709Y-55313995D01*
X32733174Y-55213721D01*
X32712000Y-55107270D01*
X32712000Y-54998730D01*
X32733174Y-54892279D01*
X32774709Y-54792005D01*
X32835009Y-54701760D01*
X32835010Y-54701758D01*
X32911758Y-54625010D01*
X33002004Y-54564710D01*
X33002005Y-54564709D01*
X33102279Y-54523174D01*
X33208730Y-54502000D01*
X33317270Y-54502000D01*
X33423721Y-54523174D01*
X33423721Y-54523174D01*
G37*
G36*
X49696823Y-51231313D02*
G01*
X49857242Y-51279976D01*
X49989906Y-51350886D01*
X50005078Y-51358996D01*
X50134659Y-51465341D01*
X50241004Y-51594922D01*
X50241005Y-51594924D01*
X50320024Y-51742758D01*
X50368687Y-51903177D01*
X50385117Y-52070000D01*
X50368687Y-52236823D01*
X50320024Y-52397242D01*
X50249114Y-52529906D01*
X50241004Y-52545078D01*
X50134659Y-52674659D01*
X50005078Y-52781004D01*
X50005076Y-52781005D01*
X49857242Y-52860024D01*
X49696823Y-52908687D01*
X49571804Y-52921000D01*
X49488196Y-52921000D01*
X49363177Y-52908687D01*
X49202758Y-52860024D01*
X49054924Y-52781005D01*
X49054922Y-52781004D01*
X48925341Y-52674659D01*
X48818996Y-52545078D01*
X48810886Y-52529906D01*
X48739976Y-52397242D01*
X48691313Y-52236823D01*
X48674883Y-52070000D01*
X48691313Y-51903177D01*
X48739976Y-51742758D01*
X48818995Y-51594924D01*
X48818996Y-51594922D01*
X48925341Y-51465341D01*
X49054922Y-51358996D01*
X49070094Y-51350886D01*
X49202758Y-51279976D01*
X49363177Y-51231313D01*
X49488196Y-51219000D01*
X49571804Y-51219000D01*
X49696823Y-51231313D01*
X49696823Y-51231313D01*
G37*
G36*
X34456823Y-51231313D02*
G01*
X34617242Y-51279976D01*
X34749906Y-51350886D01*
X34765078Y-51358996D01*
X34894659Y-51465341D01*
X35001004Y-51594922D01*
X35001005Y-51594924D01*
X35080024Y-51742758D01*
X35128687Y-51903177D01*
X35145117Y-52070000D01*
X35128687Y-52236823D01*
X35080024Y-52397242D01*
X35009114Y-52529906D01*
X35001004Y-52545078D01*
X34894659Y-52674659D01*
X34765078Y-52781004D01*
X34765076Y-52781005D01*
X34617242Y-52860024D01*
X34456823Y-52908687D01*
X34331804Y-52921000D01*
X34248196Y-52921000D01*
X34123177Y-52908687D01*
X33962758Y-52860024D01*
X33814924Y-52781005D01*
X33814922Y-52781004D01*
X33685341Y-52674659D01*
X33578996Y-52545078D01*
X33570886Y-52529906D01*
X33499976Y-52397242D01*
X33451313Y-52236823D01*
X33434883Y-52070000D01*
X33451313Y-51903177D01*
X33499976Y-51742758D01*
X33578995Y-51594924D01*
X33578996Y-51594922D01*
X33685341Y-51465341D01*
X33814922Y-51358996D01*
X33830094Y-51350886D01*
X33962758Y-51279976D01*
X34123177Y-51231313D01*
X34248196Y-51219000D01*
X34331804Y-51219000D01*
X34456823Y-51231313D01*
X34456823Y-51231313D01*
G37*
G36*
X34456823Y-48691313D02*
G01*
X34617242Y-48739976D01*
X34749906Y-48810886D01*
X34765078Y-48818996D01*
X34894659Y-48925341D01*
X35001004Y-49054922D01*
X35001005Y-49054924D01*
X35080024Y-49202758D01*
X35128687Y-49363177D01*
X35145117Y-49530000D01*
X35128687Y-49696823D01*
X35080024Y-49857242D01*
X35009114Y-49989906D01*
X35001004Y-50005078D01*
X34894659Y-50134659D01*
X34765078Y-50241004D01*
X34765076Y-50241005D01*
X34617242Y-50320024D01*
X34456823Y-50368687D01*
X34331804Y-50381000D01*
X34248196Y-50381000D01*
X34123177Y-50368687D01*
X33962758Y-50320024D01*
X33814924Y-50241005D01*
X33814922Y-50241004D01*
X33685341Y-50134659D01*
X33578996Y-50005078D01*
X33570886Y-49989906D01*
X33499976Y-49857242D01*
X33451313Y-49696823D01*
X33434883Y-49530000D01*
X33451313Y-49363177D01*
X33499976Y-49202758D01*
X33578995Y-49054924D01*
X33578996Y-49054922D01*
X33685341Y-48925341D01*
X33814922Y-48818996D01*
X33830094Y-48810886D01*
X33962758Y-48739976D01*
X34123177Y-48691313D01*
X34248196Y-48679000D01*
X34331804Y-48679000D01*
X34456823Y-48691313D01*
X34456823Y-48691313D01*
G37*
G36*
X49696823Y-48691313D02*
G01*
X49857242Y-48739976D01*
X49989906Y-48810886D01*
X50005078Y-48818996D01*
X50134659Y-48925341D01*
X50241004Y-49054922D01*
X50241005Y-49054924D01*
X50320024Y-49202758D01*
X50368687Y-49363177D01*
X50385117Y-49530000D01*
X50368687Y-49696823D01*
X50320024Y-49857242D01*
X50249114Y-49989906D01*
X50241004Y-50005078D01*
X50134659Y-50134659D01*
X50005078Y-50241004D01*
X50005076Y-50241005D01*
X49857242Y-50320024D01*
X49696823Y-50368687D01*
X49571804Y-50381000D01*
X49488196Y-50381000D01*
X49363177Y-50368687D01*
X49202758Y-50320024D01*
X49054924Y-50241005D01*
X49054922Y-50241004D01*
X48925341Y-50134659D01*
X48818996Y-50005078D01*
X48810886Y-49989906D01*
X48739976Y-49857242D01*
X48691313Y-49696823D01*
X48674883Y-49530000D01*
X48691313Y-49363177D01*
X48739976Y-49202758D01*
X48818995Y-49054924D01*
X48818996Y-49054922D01*
X48925341Y-48925341D01*
X49054922Y-48818996D01*
X49070094Y-48810886D01*
X49202758Y-48739976D01*
X49363177Y-48691313D01*
X49488196Y-48679000D01*
X49571804Y-48679000D01*
X49696823Y-48691313D01*
X49696823Y-48691313D01*
G37*
G36*
X55263647Y-48144004D02*
G01*
X55453097Y-48222477D01*
X55453098Y-48222478D01*
X55623599Y-48336402D01*
X55768598Y-48481401D01*
X55844719Y-48595326D01*
X55882523Y-48651903D01*
X55960996Y-48841353D01*
X56001000Y-49042469D01*
X56001000Y-49247531D01*
X55960996Y-49448647D01*
X55882523Y-49638097D01*
X55882522Y-49638098D01*
X55768598Y-49808599D01*
X55623599Y-49953598D01*
X55546556Y-50005076D01*
X55453097Y-50067523D01*
X55263647Y-50145996D01*
X55062531Y-50186000D01*
X54857469Y-50186000D01*
X54656353Y-50145996D01*
X54466903Y-50067523D01*
X54373444Y-50005076D01*
X54296401Y-49953598D01*
X54151402Y-49808599D01*
X54037478Y-49638098D01*
X54037477Y-49638097D01*
X53959004Y-49448647D01*
X53919000Y-49247531D01*
X53919000Y-49042469D01*
X53959004Y-48841353D01*
X54037477Y-48651903D01*
X54075281Y-48595326D01*
X54151402Y-48481401D01*
X54296401Y-48336402D01*
X54466902Y-48222478D01*
X54466903Y-48222477D01*
X54656353Y-48144004D01*
X54857469Y-48104000D01*
X55062531Y-48104000D01*
X55263647Y-48144004D01*
X55263647Y-48144004D01*
G37*
G36*
X30433647Y-48144004D02*
G01*
X30623097Y-48222477D01*
X30623098Y-48222478D01*
X30793599Y-48336402D01*
X30938598Y-48481401D01*
X31014719Y-48595326D01*
X31052523Y-48651903D01*
X31130996Y-48841353D01*
X31171000Y-49042469D01*
X31171000Y-49247531D01*
X31130996Y-49448647D01*
X31052523Y-49638097D01*
X31052522Y-49638098D01*
X30938598Y-49808599D01*
X30793599Y-49953598D01*
X30716556Y-50005076D01*
X30623097Y-50067523D01*
X30433647Y-50145996D01*
X30232531Y-50186000D01*
X30027469Y-50186000D01*
X29826353Y-50145996D01*
X29636903Y-50067523D01*
X29543444Y-50005076D01*
X29466401Y-49953598D01*
X29321402Y-49808599D01*
X29207478Y-49638098D01*
X29207477Y-49638097D01*
X29129004Y-49448647D01*
X29089000Y-49247531D01*
X29089000Y-49042469D01*
X29129004Y-48841353D01*
X29207477Y-48651903D01*
X29245281Y-48595326D01*
X29321402Y-48481401D01*
X29466401Y-48336402D01*
X29636902Y-48222478D01*
X29636903Y-48222477D01*
X29826353Y-48144004D01*
X30027469Y-48104000D01*
X30232531Y-48104000D01*
X30433647Y-48144004D01*
X30433647Y-48144004D01*
G37*
G36*
X67263647Y-48144004D02*
G01*
X67453097Y-48222477D01*
X67453098Y-48222478D01*
X67623599Y-48336402D01*
X67768598Y-48481401D01*
X67844719Y-48595326D01*
X67882523Y-48651903D01*
X67960996Y-48841353D01*
X68001000Y-49042469D01*
X68001000Y-49247531D01*
X67960996Y-49448647D01*
X67882523Y-49638097D01*
X67882522Y-49638098D01*
X67768598Y-49808599D01*
X67623599Y-49953598D01*
X67546556Y-50005076D01*
X67453097Y-50067523D01*
X67263647Y-50145996D01*
X67062531Y-50186000D01*
X66857469Y-50186000D01*
X66656353Y-50145996D01*
X66466903Y-50067523D01*
X66373444Y-50005076D01*
X66296401Y-49953598D01*
X66151402Y-49808599D01*
X66037478Y-49638098D01*
X66037477Y-49638097D01*
X65959004Y-49448647D01*
X65919000Y-49247531D01*
X65919000Y-49042469D01*
X65959004Y-48841353D01*
X66037477Y-48651903D01*
X66075281Y-48595326D01*
X66151402Y-48481401D01*
X66296401Y-48336402D01*
X66466902Y-48222478D01*
X66466903Y-48222477D01*
X66656353Y-48144004D01*
X66857469Y-48104000D01*
X67062531Y-48104000D01*
X67263647Y-48144004D01*
X67263647Y-48144004D01*
G37*
G36*
X18433647Y-48144004D02*
G01*
X18623097Y-48222477D01*
X18623098Y-48222478D01*
X18793599Y-48336402D01*
X18938598Y-48481401D01*
X19014719Y-48595326D01*
X19052523Y-48651903D01*
X19130996Y-48841353D01*
X19171000Y-49042469D01*
X19171000Y-49247531D01*
X19130996Y-49448647D01*
X19052523Y-49638097D01*
X19052522Y-49638098D01*
X18938598Y-49808599D01*
X18793599Y-49953598D01*
X18716556Y-50005076D01*
X18623097Y-50067523D01*
X18433647Y-50145996D01*
X18232531Y-50186000D01*
X18027469Y-50186000D01*
X17826353Y-50145996D01*
X17636903Y-50067523D01*
X17543444Y-50005076D01*
X17466401Y-49953598D01*
X17321402Y-49808599D01*
X17207478Y-49638098D01*
X17207477Y-49638097D01*
X17129004Y-49448647D01*
X17089000Y-49247531D01*
X17089000Y-49042469D01*
X17129004Y-48841353D01*
X17207477Y-48651903D01*
X17245281Y-48595326D01*
X17321402Y-48481401D01*
X17466401Y-48336402D01*
X17636902Y-48222478D01*
X17636903Y-48222477D01*
X17826353Y-48144004D01*
X18027469Y-48104000D01*
X18232531Y-48104000D01*
X18433647Y-48144004D01*
X18433647Y-48144004D01*
G37*
G36*
X49696823Y-46151313D02*
G01*
X49857242Y-46199976D01*
X49989906Y-46270886D01*
X50005078Y-46278996D01*
X50134659Y-46385341D01*
X50241004Y-46514922D01*
X50241005Y-46514924D01*
X50320024Y-46662758D01*
X50368687Y-46823177D01*
X50385117Y-46990000D01*
X50368687Y-47156823D01*
X50320024Y-47317242D01*
X50249114Y-47449906D01*
X50241004Y-47465078D01*
X50134659Y-47594659D01*
X50005078Y-47701004D01*
X50005076Y-47701005D01*
X49857242Y-47780024D01*
X49696823Y-47828687D01*
X49571804Y-47841000D01*
X49488196Y-47841000D01*
X49363177Y-47828687D01*
X49202758Y-47780024D01*
X49054924Y-47701005D01*
X49054922Y-47701004D01*
X48925341Y-47594659D01*
X48818996Y-47465078D01*
X48810886Y-47449906D01*
X48739976Y-47317242D01*
X48691313Y-47156823D01*
X48674883Y-46990000D01*
X48691313Y-46823177D01*
X48739976Y-46662758D01*
X48818995Y-46514924D01*
X48818996Y-46514922D01*
X48925341Y-46385341D01*
X49054922Y-46278996D01*
X49070094Y-46270886D01*
X49202758Y-46199976D01*
X49363177Y-46151313D01*
X49488196Y-46139000D01*
X49571804Y-46139000D01*
X49696823Y-46151313D01*
X49696823Y-46151313D01*
G37*
G36*
X34456823Y-46151313D02*
G01*
X34617242Y-46199976D01*
X34749906Y-46270886D01*
X34765078Y-46278996D01*
X34894659Y-46385341D01*
X35001004Y-46514922D01*
X35001005Y-46514924D01*
X35080024Y-46662758D01*
X35128687Y-46823177D01*
X35145117Y-46990000D01*
X35128687Y-47156823D01*
X35080024Y-47317242D01*
X35009114Y-47449906D01*
X35001004Y-47465078D01*
X34894659Y-47594659D01*
X34765078Y-47701004D01*
X34765076Y-47701005D01*
X34617242Y-47780024D01*
X34456823Y-47828687D01*
X34331804Y-47841000D01*
X34248196Y-47841000D01*
X34123177Y-47828687D01*
X33962758Y-47780024D01*
X33814924Y-47701005D01*
X33814922Y-47701004D01*
X33685341Y-47594659D01*
X33578996Y-47465078D01*
X33570886Y-47449906D01*
X33499976Y-47317242D01*
X33451313Y-47156823D01*
X33434883Y-46990000D01*
X33451313Y-46823177D01*
X33499976Y-46662758D01*
X33578995Y-46514924D01*
X33578996Y-46514922D01*
X33685341Y-46385341D01*
X33814922Y-46278996D01*
X33830094Y-46270886D01*
X33962758Y-46199976D01*
X34123177Y-46151313D01*
X34248196Y-46139000D01*
X34331804Y-46139000D01*
X34456823Y-46151313D01*
X34456823Y-46151313D01*
G37*
G36*
X34456823Y-43611313D02*
G01*
X34617242Y-43659976D01*
X34749906Y-43730886D01*
X34765078Y-43738996D01*
X34894659Y-43845341D01*
X35001004Y-43974922D01*
X35001005Y-43974924D01*
X35080024Y-44122758D01*
X35128687Y-44283177D01*
X35145117Y-44450000D01*
X35128687Y-44616823D01*
X35080024Y-44777242D01*
X35009114Y-44909906D01*
X35001004Y-44925078D01*
X34894659Y-45054659D01*
X34765078Y-45161004D01*
X34765076Y-45161005D01*
X34617242Y-45240024D01*
X34456823Y-45288687D01*
X34331804Y-45301000D01*
X34248196Y-45301000D01*
X34123177Y-45288687D01*
X33962758Y-45240024D01*
X33814924Y-45161005D01*
X33814922Y-45161004D01*
X33685341Y-45054659D01*
X33578996Y-44925078D01*
X33570886Y-44909906D01*
X33499976Y-44777242D01*
X33451313Y-44616823D01*
X33434883Y-44450000D01*
X33451313Y-44283177D01*
X33499976Y-44122758D01*
X33578995Y-43974924D01*
X33578996Y-43974922D01*
X33685341Y-43845341D01*
X33814922Y-43738996D01*
X33830094Y-43730886D01*
X33962758Y-43659976D01*
X34123177Y-43611313D01*
X34248196Y-43599000D01*
X34331804Y-43599000D01*
X34456823Y-43611313D01*
X34456823Y-43611313D01*
G37*
G36*
X49696823Y-43611313D02*
G01*
X49857242Y-43659976D01*
X49989906Y-43730886D01*
X50005078Y-43738996D01*
X50134659Y-43845341D01*
X50241004Y-43974922D01*
X50241005Y-43974924D01*
X50320024Y-44122758D01*
X50368687Y-44283177D01*
X50385117Y-44450000D01*
X50368687Y-44616823D01*
X50320024Y-44777242D01*
X50249114Y-44909906D01*
X50241004Y-44925078D01*
X50134659Y-45054659D01*
X50005078Y-45161004D01*
X50005076Y-45161005D01*
X49857242Y-45240024D01*
X49696823Y-45288687D01*
X49571804Y-45301000D01*
X49488196Y-45301000D01*
X49363177Y-45288687D01*
X49202758Y-45240024D01*
X49054924Y-45161005D01*
X49054922Y-45161004D01*
X48925341Y-45054659D01*
X48818996Y-44925078D01*
X48810886Y-44909906D01*
X48739976Y-44777242D01*
X48691313Y-44616823D01*
X48674883Y-44450000D01*
X48691313Y-44283177D01*
X48739976Y-44122758D01*
X48818995Y-43974924D01*
X48818996Y-43974922D01*
X48925341Y-43845341D01*
X49054922Y-43738996D01*
X49070094Y-43730886D01*
X49202758Y-43659976D01*
X49363177Y-43611313D01*
X49488196Y-43599000D01*
X49571804Y-43599000D01*
X49696823Y-43611313D01*
X49696823Y-43611313D01*
G37*
G36*
X21192142Y-43033242D02*
G01*
X21340101Y-43094529D01*
X21473255Y-43183499D01*
X21586501Y-43296745D01*
X21675471Y-43429899D01*
X21736758Y-43577858D01*
X21768000Y-43734925D01*
X21768000Y-43895075D01*
X21736758Y-44052142D01*
X21675471Y-44200101D01*
X21586501Y-44333255D01*
X21473255Y-44446501D01*
X21340101Y-44535471D01*
X21192142Y-44596758D01*
X21035075Y-44628000D01*
X20874925Y-44628000D01*
X20717858Y-44596758D01*
X20569899Y-44535471D01*
X20436745Y-44446501D01*
X20323499Y-44333255D01*
X20234529Y-44200101D01*
X20173242Y-44052142D01*
X20142000Y-43895075D01*
X20142000Y-43734925D01*
X20173242Y-43577858D01*
X20234529Y-43429899D01*
X20323499Y-43296745D01*
X20436745Y-43183499D01*
X20569899Y-43094529D01*
X20717858Y-43033242D01*
X20874925Y-43002000D01*
X21035075Y-43002000D01*
X21192142Y-43033242D01*
X21192142Y-43033242D01*
G37*
G36*
X63102142Y-43033242D02*
G01*
X63250101Y-43094529D01*
X63383255Y-43183499D01*
X63496501Y-43296745D01*
X63585471Y-43429899D01*
X63646758Y-43577858D01*
X63678000Y-43734925D01*
X63678000Y-43895075D01*
X63646758Y-44052142D01*
X63585471Y-44200101D01*
X63496501Y-44333255D01*
X63383255Y-44446501D01*
X63250101Y-44535471D01*
X63102142Y-44596758D01*
X62945075Y-44628000D01*
X62784925Y-44628000D01*
X62627858Y-44596758D01*
X62479899Y-44535471D01*
X62346745Y-44446501D01*
X62233499Y-44333255D01*
X62144529Y-44200101D01*
X62083242Y-44052142D01*
X62052000Y-43895075D01*
X62052000Y-43734925D01*
X62083242Y-43577858D01*
X62144529Y-43429899D01*
X62233499Y-43296745D01*
X62346745Y-43183499D01*
X62479899Y-43094529D01*
X62627858Y-43033242D01*
X62784925Y-43002000D01*
X62945075Y-43002000D01*
X63102142Y-43033242D01*
X63102142Y-43033242D01*
G37*
G36*
X28812142Y-43033242D02*
G01*
X28960101Y-43094529D01*
X29093255Y-43183499D01*
X29206501Y-43296745D01*
X29295471Y-43429899D01*
X29356758Y-43577858D01*
X29388000Y-43734925D01*
X29388000Y-43895075D01*
X29356758Y-44052142D01*
X29295471Y-44200101D01*
X29206501Y-44333255D01*
X29093255Y-44446501D01*
X28960101Y-44535471D01*
X28812142Y-44596758D01*
X28655075Y-44628000D01*
X28494925Y-44628000D01*
X28337858Y-44596758D01*
X28189899Y-44535471D01*
X28056745Y-44446501D01*
X27943499Y-44333255D01*
X27854529Y-44200101D01*
X27793242Y-44052142D01*
X27762000Y-43895075D01*
X27762000Y-43734925D01*
X27793242Y-43577858D01*
X27854529Y-43429899D01*
X27943499Y-43296745D01*
X28056745Y-43183499D01*
X28189899Y-43094529D01*
X28337858Y-43033242D01*
X28494925Y-43002000D01*
X28655075Y-43002000D01*
X28812142Y-43033242D01*
X28812142Y-43033242D01*
G37*
G36*
X23732142Y-43033242D02*
G01*
X23880101Y-43094529D01*
X24013255Y-43183499D01*
X24126501Y-43296745D01*
X24215471Y-43429899D01*
X24276758Y-43577858D01*
X24308000Y-43734925D01*
X24308000Y-43895075D01*
X24276758Y-44052142D01*
X24215471Y-44200101D01*
X24126501Y-44333255D01*
X24013255Y-44446501D01*
X23880101Y-44535471D01*
X23732142Y-44596758D01*
X23575075Y-44628000D01*
X23414925Y-44628000D01*
X23257858Y-44596758D01*
X23109899Y-44535471D01*
X22976745Y-44446501D01*
X22863499Y-44333255D01*
X22774529Y-44200101D01*
X22713242Y-44052142D01*
X22682000Y-43895075D01*
X22682000Y-43734925D01*
X22713242Y-43577858D01*
X22774529Y-43429899D01*
X22863499Y-43296745D01*
X22976745Y-43183499D01*
X23109899Y-43094529D01*
X23257858Y-43033242D01*
X23414925Y-43002000D01*
X23575075Y-43002000D01*
X23732142Y-43033242D01*
X23732142Y-43033242D01*
G37*
G36*
X31352142Y-43033242D02*
G01*
X31500101Y-43094529D01*
X31633255Y-43183499D01*
X31746501Y-43296745D01*
X31835471Y-43429899D01*
X31896758Y-43577858D01*
X31928000Y-43734925D01*
X31928000Y-43895075D01*
X31896758Y-44052142D01*
X31835471Y-44200101D01*
X31746501Y-44333255D01*
X31633255Y-44446501D01*
X31500101Y-44535471D01*
X31352142Y-44596758D01*
X31195075Y-44628000D01*
X31034925Y-44628000D01*
X30877858Y-44596758D01*
X30729899Y-44535471D01*
X30596745Y-44446501D01*
X30483499Y-44333255D01*
X30394529Y-44200101D01*
X30333242Y-44052142D01*
X30302000Y-43895075D01*
X30302000Y-43734925D01*
X30333242Y-43577858D01*
X30394529Y-43429899D01*
X30483499Y-43296745D01*
X30596745Y-43183499D01*
X30729899Y-43094529D01*
X30877858Y-43033242D01*
X31034925Y-43002000D01*
X31195075Y-43002000D01*
X31352142Y-43033242D01*
X31352142Y-43033242D01*
G37*
G36*
X52942142Y-43033242D02*
G01*
X53090101Y-43094529D01*
X53223255Y-43183499D01*
X53336501Y-43296745D01*
X53425471Y-43429899D01*
X53486758Y-43577858D01*
X53518000Y-43734925D01*
X53518000Y-43895075D01*
X53486758Y-44052142D01*
X53425471Y-44200101D01*
X53336501Y-44333255D01*
X53223255Y-44446501D01*
X53090101Y-44535471D01*
X52942142Y-44596758D01*
X52785075Y-44628000D01*
X52624925Y-44628000D01*
X52467858Y-44596758D01*
X52319899Y-44535471D01*
X52186745Y-44446501D01*
X52073499Y-44333255D01*
X51984529Y-44200101D01*
X51923242Y-44052142D01*
X51892000Y-43895075D01*
X51892000Y-43734925D01*
X51923242Y-43577858D01*
X51984529Y-43429899D01*
X52073499Y-43296745D01*
X52186745Y-43183499D01*
X52319899Y-43094529D01*
X52467858Y-43033242D01*
X52624925Y-43002000D01*
X52785075Y-43002000D01*
X52942142Y-43033242D01*
X52942142Y-43033242D01*
G37*
G36*
X55482142Y-43033242D02*
G01*
X55630101Y-43094529D01*
X55763255Y-43183499D01*
X55876501Y-43296745D01*
X55965471Y-43429899D01*
X56026758Y-43577858D01*
X56058000Y-43734925D01*
X56058000Y-43895075D01*
X56026758Y-44052142D01*
X55965471Y-44200101D01*
X55876501Y-44333255D01*
X55763255Y-44446501D01*
X55630101Y-44535471D01*
X55482142Y-44596758D01*
X55325075Y-44628000D01*
X55164925Y-44628000D01*
X55007858Y-44596758D01*
X54859899Y-44535471D01*
X54726745Y-44446501D01*
X54613499Y-44333255D01*
X54524529Y-44200101D01*
X54463242Y-44052142D01*
X54432000Y-43895075D01*
X54432000Y-43734925D01*
X54463242Y-43577858D01*
X54524529Y-43429899D01*
X54613499Y-43296745D01*
X54726745Y-43183499D01*
X54859899Y-43094529D01*
X55007858Y-43033242D01*
X55164925Y-43002000D01*
X55325075Y-43002000D01*
X55482142Y-43033242D01*
X55482142Y-43033242D01*
G37*
G36*
X58022142Y-43033242D02*
G01*
X58170101Y-43094529D01*
X58303255Y-43183499D01*
X58416501Y-43296745D01*
X58505471Y-43429899D01*
X58566758Y-43577858D01*
X58598000Y-43734925D01*
X58598000Y-43895075D01*
X58566758Y-44052142D01*
X58505471Y-44200101D01*
X58416501Y-44333255D01*
X58303255Y-44446501D01*
X58170101Y-44535471D01*
X58022142Y-44596758D01*
X57865075Y-44628000D01*
X57704925Y-44628000D01*
X57547858Y-44596758D01*
X57399899Y-44535471D01*
X57266745Y-44446501D01*
X57153499Y-44333255D01*
X57064529Y-44200101D01*
X57003242Y-44052142D01*
X56972000Y-43895075D01*
X56972000Y-43734925D01*
X57003242Y-43577858D01*
X57064529Y-43429899D01*
X57153499Y-43296745D01*
X57266745Y-43183499D01*
X57399899Y-43094529D01*
X57547858Y-43033242D01*
X57704925Y-43002000D01*
X57865075Y-43002000D01*
X58022142Y-43033242D01*
X58022142Y-43033242D01*
G37*
G36*
X26272142Y-43033242D02*
G01*
X26420101Y-43094529D01*
X26553255Y-43183499D01*
X26666501Y-43296745D01*
X26755471Y-43429899D01*
X26816758Y-43577858D01*
X26848000Y-43734925D01*
X26848000Y-43895075D01*
X26816758Y-44052142D01*
X26755471Y-44200101D01*
X26666501Y-44333255D01*
X26553255Y-44446501D01*
X26420101Y-44535471D01*
X26272142Y-44596758D01*
X26115075Y-44628000D01*
X25954925Y-44628000D01*
X25797858Y-44596758D01*
X25649899Y-44535471D01*
X25516745Y-44446501D01*
X25403499Y-44333255D01*
X25314529Y-44200101D01*
X25253242Y-44052142D01*
X25222000Y-43895075D01*
X25222000Y-43734925D01*
X25253242Y-43577858D01*
X25314529Y-43429899D01*
X25403499Y-43296745D01*
X25516745Y-43183499D01*
X25649899Y-43094529D01*
X25797858Y-43033242D01*
X25954925Y-43002000D01*
X26115075Y-43002000D01*
X26272142Y-43033242D01*
X26272142Y-43033242D01*
G37*
G36*
X60562142Y-43033242D02*
G01*
X60710101Y-43094529D01*
X60843255Y-43183499D01*
X60956501Y-43296745D01*
X61045471Y-43429899D01*
X61106758Y-43577858D01*
X61138000Y-43734925D01*
X61138000Y-43895075D01*
X61106758Y-44052142D01*
X61045471Y-44200101D01*
X60956501Y-44333255D01*
X60843255Y-44446501D01*
X60710101Y-44535471D01*
X60562142Y-44596758D01*
X60405075Y-44628000D01*
X60244925Y-44628000D01*
X60087858Y-44596758D01*
X59939899Y-44535471D01*
X59806745Y-44446501D01*
X59693499Y-44333255D01*
X59604529Y-44200101D01*
X59543242Y-44052142D01*
X59512000Y-43895075D01*
X59512000Y-43734925D01*
X59543242Y-43577858D01*
X59604529Y-43429899D01*
X59693499Y-43296745D01*
X59806745Y-43183499D01*
X59939899Y-43094529D01*
X60087858Y-43033242D01*
X60244925Y-43002000D01*
X60405075Y-43002000D01*
X60562142Y-43033242D01*
X60562142Y-43033242D01*
G37*
G36*
X18086564Y-42169389D02*
G01*
X18250376Y-42237242D01*
X18277835Y-42248616D01*
X18449973Y-42363635D01*
X18596365Y-42510027D01*
X18670518Y-42621004D01*
X18711385Y-42682167D01*
X18790611Y-42873436D01*
X18831000Y-43076484D01*
X18831000Y-43283516D01*
X18790611Y-43486564D01*
X18711385Y-43677833D01*
X18711384Y-43677835D01*
X18596365Y-43849973D01*
X18449973Y-43996365D01*
X18277835Y-44111384D01*
X18277834Y-44111385D01*
X18277833Y-44111385D01*
X18086564Y-44190611D01*
X17883516Y-44231000D01*
X17676484Y-44231000D01*
X17473436Y-44190611D01*
X17282167Y-44111385D01*
X17282166Y-44111385D01*
X17282165Y-44111384D01*
X17110027Y-43996365D01*
X16963635Y-43849973D01*
X16848616Y-43677835D01*
X16848615Y-43677833D01*
X16769389Y-43486564D01*
X16729000Y-43283516D01*
X16729000Y-43076484D01*
X16769389Y-42873436D01*
X16848615Y-42682167D01*
X16889483Y-42621004D01*
X16963635Y-42510027D01*
X17110027Y-42363635D01*
X17282165Y-42248616D01*
X17309624Y-42237242D01*
X17473436Y-42169389D01*
X17676484Y-42129000D01*
X17883516Y-42129000D01*
X18086564Y-42169389D01*
X18086564Y-42169389D01*
G37*
G36*
X66346564Y-42169389D02*
G01*
X66510376Y-42237242D01*
X66537835Y-42248616D01*
X66709973Y-42363635D01*
X66856365Y-42510027D01*
X66930518Y-42621004D01*
X66971385Y-42682167D01*
X67050611Y-42873436D01*
X67091000Y-43076484D01*
X67091000Y-43283516D01*
X67050611Y-43486564D01*
X66971385Y-43677833D01*
X66971384Y-43677835D01*
X66856365Y-43849973D01*
X66709973Y-43996365D01*
X66537835Y-44111384D01*
X66537834Y-44111385D01*
X66537833Y-44111385D01*
X66346564Y-44190611D01*
X66143516Y-44231000D01*
X65936484Y-44231000D01*
X65733436Y-44190611D01*
X65542167Y-44111385D01*
X65542166Y-44111385D01*
X65542165Y-44111384D01*
X65370027Y-43996365D01*
X65223635Y-43849973D01*
X65108616Y-43677835D01*
X65108615Y-43677833D01*
X65029389Y-43486564D01*
X64989000Y-43283516D01*
X64989000Y-43076484D01*
X65029389Y-42873436D01*
X65108615Y-42682167D01*
X65149483Y-42621004D01*
X65223635Y-42510027D01*
X65370027Y-42363635D01*
X65542165Y-42248616D01*
X65569624Y-42237242D01*
X65733436Y-42169389D01*
X65936484Y-42129000D01*
X66143516Y-42129000D01*
X66346564Y-42169389D01*
X66346564Y-42169389D01*
G37*
G36*
X49696823Y-41071313D02*
G01*
X49857242Y-41119976D01*
X49989906Y-41190886D01*
X50005078Y-41198996D01*
X50134659Y-41305341D01*
X50241004Y-41434922D01*
X50241005Y-41434924D01*
X50320024Y-41582758D01*
X50368687Y-41743177D01*
X50385117Y-41910000D01*
X50368687Y-42076823D01*
X50320024Y-42237242D01*
X50313944Y-42248616D01*
X50241004Y-42385078D01*
X50134659Y-42514659D01*
X50005078Y-42621004D01*
X50005076Y-42621005D01*
X49857242Y-42700024D01*
X49696823Y-42748687D01*
X49571804Y-42761000D01*
X49488196Y-42761000D01*
X49363177Y-42748687D01*
X49202758Y-42700024D01*
X49054924Y-42621005D01*
X49054922Y-42621004D01*
X48925341Y-42514659D01*
X48818996Y-42385078D01*
X48746056Y-42248616D01*
X48739976Y-42237242D01*
X48691313Y-42076823D01*
X48674883Y-41910000D01*
X48691313Y-41743177D01*
X48739976Y-41582758D01*
X48818995Y-41434924D01*
X48818996Y-41434922D01*
X48925341Y-41305341D01*
X49054922Y-41198996D01*
X49070094Y-41190886D01*
X49202758Y-41119976D01*
X49363177Y-41071313D01*
X49488196Y-41059000D01*
X49571804Y-41059000D01*
X49696823Y-41071313D01*
X49696823Y-41071313D01*
G37*
G36*
X34456823Y-41071313D02*
G01*
X34617242Y-41119976D01*
X34749906Y-41190886D01*
X34765078Y-41198996D01*
X34894659Y-41305341D01*
X35001004Y-41434922D01*
X35001005Y-41434924D01*
X35080024Y-41582758D01*
X35128687Y-41743177D01*
X35145117Y-41910000D01*
X35128687Y-42076823D01*
X35080024Y-42237242D01*
X35073944Y-42248616D01*
X35001004Y-42385078D01*
X34894659Y-42514659D01*
X34765078Y-42621004D01*
X34765076Y-42621005D01*
X34617242Y-42700024D01*
X34456823Y-42748687D01*
X34331804Y-42761000D01*
X34248196Y-42761000D01*
X34123177Y-42748687D01*
X33962758Y-42700024D01*
X33814924Y-42621005D01*
X33814922Y-42621004D01*
X33685341Y-42514659D01*
X33578996Y-42385078D01*
X33506056Y-42248616D01*
X33499976Y-42237242D01*
X33451313Y-42076823D01*
X33434883Y-41910000D01*
X33451313Y-41743177D01*
X33499976Y-41582758D01*
X33578995Y-41434924D01*
X33578996Y-41434922D01*
X33685341Y-41305341D01*
X33814922Y-41198996D01*
X33830094Y-41190886D01*
X33962758Y-41119976D01*
X34123177Y-41071313D01*
X34248196Y-41059000D01*
X34331804Y-41059000D01*
X34456823Y-41071313D01*
X34456823Y-41071313D01*
G37*
G36*
X31275942Y-40493242D02*
G01*
X31423901Y-40554529D01*
X31557055Y-40643499D01*
X31670301Y-40756745D01*
X31759271Y-40889899D01*
X31820558Y-41037858D01*
X31851800Y-41194925D01*
X31851800Y-41355075D01*
X31820558Y-41512142D01*
X31759271Y-41660101D01*
X31670301Y-41793255D01*
X31557055Y-41906501D01*
X31423901Y-41995471D01*
X31275942Y-42056758D01*
X31118875Y-42088000D01*
X30958725Y-42088000D01*
X30801658Y-42056758D01*
X30653699Y-41995471D01*
X30520545Y-41906501D01*
X30407299Y-41793255D01*
X30318329Y-41660101D01*
X30257042Y-41512142D01*
X30225800Y-41355075D01*
X30225800Y-41194925D01*
X30257042Y-41037858D01*
X30318329Y-40889899D01*
X30407299Y-40756745D01*
X30520545Y-40643499D01*
X30653699Y-40554529D01*
X30801658Y-40493242D01*
X30958725Y-40462000D01*
X31118875Y-40462000D01*
X31275942Y-40493242D01*
X31275942Y-40493242D01*
G37*
G36*
X21115942Y-40493242D02*
G01*
X21263901Y-40554529D01*
X21397055Y-40643499D01*
X21510301Y-40756745D01*
X21599271Y-40889899D01*
X21660558Y-41037858D01*
X21691800Y-41194925D01*
X21691800Y-41355075D01*
X21660558Y-41512142D01*
X21599271Y-41660101D01*
X21510301Y-41793255D01*
X21397055Y-41906501D01*
X21263901Y-41995471D01*
X21115942Y-42056758D01*
X20958875Y-42088000D01*
X20798725Y-42088000D01*
X20641658Y-42056758D01*
X20493699Y-41995471D01*
X20360545Y-41906501D01*
X20247299Y-41793255D01*
X20158329Y-41660101D01*
X20097042Y-41512142D01*
X20065800Y-41355075D01*
X20065800Y-41194925D01*
X20097042Y-41037858D01*
X20158329Y-40889899D01*
X20247299Y-40756745D01*
X20360545Y-40643499D01*
X20493699Y-40554529D01*
X20641658Y-40493242D01*
X20798725Y-40462000D01*
X20958875Y-40462000D01*
X21115942Y-40493242D01*
X21115942Y-40493242D01*
G37*
G36*
X28735942Y-40493242D02*
G01*
X28883901Y-40554529D01*
X29017055Y-40643499D01*
X29130301Y-40756745D01*
X29219271Y-40889899D01*
X29280558Y-41037858D01*
X29311800Y-41194925D01*
X29311800Y-41355075D01*
X29280558Y-41512142D01*
X29219271Y-41660101D01*
X29130301Y-41793255D01*
X29017055Y-41906501D01*
X28883901Y-41995471D01*
X28735942Y-42056758D01*
X28578875Y-42088000D01*
X28418725Y-42088000D01*
X28261658Y-42056758D01*
X28113699Y-41995471D01*
X27980545Y-41906501D01*
X27867299Y-41793255D01*
X27778329Y-41660101D01*
X27717042Y-41512142D01*
X27685800Y-41355075D01*
X27685800Y-41194925D01*
X27717042Y-41037858D01*
X27778329Y-40889899D01*
X27867299Y-40756745D01*
X27980545Y-40643499D01*
X28113699Y-40554529D01*
X28261658Y-40493242D01*
X28418725Y-40462000D01*
X28578875Y-40462000D01*
X28735942Y-40493242D01*
X28735942Y-40493242D01*
G37*
G36*
X23655942Y-40493242D02*
G01*
X23803901Y-40554529D01*
X23937055Y-40643499D01*
X24050301Y-40756745D01*
X24139271Y-40889899D01*
X24200558Y-41037858D01*
X24231800Y-41194925D01*
X24231800Y-41355075D01*
X24200558Y-41512142D01*
X24139271Y-41660101D01*
X24050301Y-41793255D01*
X23937055Y-41906501D01*
X23803901Y-41995471D01*
X23655942Y-42056758D01*
X23498875Y-42088000D01*
X23338725Y-42088000D01*
X23181658Y-42056758D01*
X23033699Y-41995471D01*
X22900545Y-41906501D01*
X22787299Y-41793255D01*
X22698329Y-41660101D01*
X22637042Y-41512142D01*
X22605800Y-41355075D01*
X22605800Y-41194925D01*
X22637042Y-41037858D01*
X22698329Y-40889899D01*
X22787299Y-40756745D01*
X22900545Y-40643499D01*
X23033699Y-40554529D01*
X23181658Y-40493242D01*
X23338725Y-40462000D01*
X23498875Y-40462000D01*
X23655942Y-40493242D01*
X23655942Y-40493242D01*
G37*
G36*
X55405942Y-40493242D02*
G01*
X55553901Y-40554529D01*
X55687055Y-40643499D01*
X55800301Y-40756745D01*
X55889271Y-40889899D01*
X55950558Y-41037858D01*
X55981800Y-41194925D01*
X55981800Y-41355075D01*
X55950558Y-41512142D01*
X55889271Y-41660101D01*
X55800301Y-41793255D01*
X55687055Y-41906501D01*
X55553901Y-41995471D01*
X55405942Y-42056758D01*
X55248875Y-42088000D01*
X55088725Y-42088000D01*
X54931658Y-42056758D01*
X54783699Y-41995471D01*
X54650545Y-41906501D01*
X54537299Y-41793255D01*
X54448329Y-41660101D01*
X54387042Y-41512142D01*
X54355800Y-41355075D01*
X54355800Y-41194925D01*
X54387042Y-41037858D01*
X54448329Y-40889899D01*
X54537299Y-40756745D01*
X54650545Y-40643499D01*
X54783699Y-40554529D01*
X54931658Y-40493242D01*
X55088725Y-40462000D01*
X55248875Y-40462000D01*
X55405942Y-40493242D01*
X55405942Y-40493242D01*
G37*
G36*
X52942142Y-40493242D02*
G01*
X53090101Y-40554529D01*
X53223255Y-40643499D01*
X53336501Y-40756745D01*
X53425471Y-40889899D01*
X53486758Y-41037858D01*
X53518000Y-41194925D01*
X53518000Y-41355075D01*
X53486758Y-41512142D01*
X53425471Y-41660101D01*
X53336501Y-41793255D01*
X53223255Y-41906501D01*
X53090101Y-41995471D01*
X52942142Y-42056758D01*
X52785075Y-42088000D01*
X52624925Y-42088000D01*
X52467858Y-42056758D01*
X52319899Y-41995471D01*
X52186745Y-41906501D01*
X52073499Y-41793255D01*
X51984529Y-41660101D01*
X51923242Y-41512142D01*
X51892000Y-41355075D01*
X51892000Y-41194925D01*
X51923242Y-41037858D01*
X51984529Y-40889899D01*
X52073499Y-40756745D01*
X52186745Y-40643499D01*
X52319899Y-40554529D01*
X52467858Y-40493242D01*
X52624925Y-40462000D01*
X52785075Y-40462000D01*
X52942142Y-40493242D01*
X52942142Y-40493242D01*
G37*
G36*
X60485942Y-40493242D02*
G01*
X60633901Y-40554529D01*
X60767055Y-40643499D01*
X60880301Y-40756745D01*
X60969271Y-40889899D01*
X61030558Y-41037858D01*
X61061800Y-41194925D01*
X61061800Y-41355075D01*
X61030558Y-41512142D01*
X60969271Y-41660101D01*
X60880301Y-41793255D01*
X60767055Y-41906501D01*
X60633901Y-41995471D01*
X60485942Y-42056758D01*
X60328875Y-42088000D01*
X60168725Y-42088000D01*
X60011658Y-42056758D01*
X59863699Y-41995471D01*
X59730545Y-41906501D01*
X59617299Y-41793255D01*
X59528329Y-41660101D01*
X59467042Y-41512142D01*
X59435800Y-41355075D01*
X59435800Y-41194925D01*
X59467042Y-41037858D01*
X59528329Y-40889899D01*
X59617299Y-40756745D01*
X59730545Y-40643499D01*
X59863699Y-40554529D01*
X60011658Y-40493242D01*
X60168725Y-40462000D01*
X60328875Y-40462000D01*
X60485942Y-40493242D01*
X60485942Y-40493242D01*
G37*
G36*
X26195942Y-40493242D02*
G01*
X26343901Y-40554529D01*
X26477055Y-40643499D01*
X26590301Y-40756745D01*
X26679271Y-40889899D01*
X26740558Y-41037858D01*
X26771800Y-41194925D01*
X26771800Y-41355075D01*
X26740558Y-41512142D01*
X26679271Y-41660101D01*
X26590301Y-41793255D01*
X26477055Y-41906501D01*
X26343901Y-41995471D01*
X26195942Y-42056758D01*
X26038875Y-42088000D01*
X25878725Y-42088000D01*
X25721658Y-42056758D01*
X25573699Y-41995471D01*
X25440545Y-41906501D01*
X25327299Y-41793255D01*
X25238329Y-41660101D01*
X25177042Y-41512142D01*
X25145800Y-41355075D01*
X25145800Y-41194925D01*
X25177042Y-41037858D01*
X25238329Y-40889899D01*
X25327299Y-40756745D01*
X25440545Y-40643499D01*
X25573699Y-40554529D01*
X25721658Y-40493242D01*
X25878725Y-40462000D01*
X26038875Y-40462000D01*
X26195942Y-40493242D01*
X26195942Y-40493242D01*
G37*
G36*
X57945942Y-40493242D02*
G01*
X58093901Y-40554529D01*
X58227055Y-40643499D01*
X58340301Y-40756745D01*
X58429271Y-40889899D01*
X58490558Y-41037858D01*
X58521800Y-41194925D01*
X58521800Y-41355075D01*
X58490558Y-41512142D01*
X58429271Y-41660101D01*
X58340301Y-41793255D01*
X58227055Y-41906501D01*
X58093901Y-41995471D01*
X57945942Y-42056758D01*
X57788875Y-42088000D01*
X57628725Y-42088000D01*
X57471658Y-42056758D01*
X57323699Y-41995471D01*
X57190545Y-41906501D01*
X57077299Y-41793255D01*
X56988329Y-41660101D01*
X56927042Y-41512142D01*
X56895800Y-41355075D01*
X56895800Y-41194925D01*
X56927042Y-41037858D01*
X56988329Y-40889899D01*
X57077299Y-40756745D01*
X57190545Y-40643499D01*
X57323699Y-40554529D01*
X57471658Y-40493242D01*
X57628725Y-40462000D01*
X57788875Y-40462000D01*
X57945942Y-40493242D01*
X57945942Y-40493242D01*
G37*
G36*
X63025942Y-40493242D02*
G01*
X63173901Y-40554529D01*
X63307055Y-40643499D01*
X63420301Y-40756745D01*
X63509271Y-40889899D01*
X63570558Y-41037858D01*
X63601800Y-41194925D01*
X63601800Y-41355075D01*
X63570558Y-41512142D01*
X63509271Y-41660101D01*
X63420301Y-41793255D01*
X63307055Y-41906501D01*
X63173901Y-41995471D01*
X63025942Y-42056758D01*
X62868875Y-42088000D01*
X62708725Y-42088000D01*
X62551658Y-42056758D01*
X62403699Y-41995471D01*
X62270545Y-41906501D01*
X62157299Y-41793255D01*
X62068329Y-41660101D01*
X62007042Y-41512142D01*
X61975800Y-41355075D01*
X61975800Y-41194925D01*
X62007042Y-41037858D01*
X62068329Y-40889899D01*
X62157299Y-40756745D01*
X62270545Y-40643499D01*
X62403699Y-40554529D01*
X62551658Y-40493242D01*
X62708725Y-40462000D01*
X62868875Y-40462000D01*
X63025942Y-40493242D01*
X63025942Y-40493242D01*
G37*
G36*
X49696823Y-38531313D02*
G01*
X49857242Y-38579976D01*
X49989906Y-38650886D01*
X50005078Y-38658996D01*
X50134659Y-38765341D01*
X50241004Y-38894922D01*
X50241005Y-38894924D01*
X50320024Y-39042758D01*
X50368687Y-39203177D01*
X50385117Y-39370000D01*
X50368687Y-39536823D01*
X50320024Y-39697242D01*
X50249114Y-39829906D01*
X50241004Y-39845078D01*
X50134659Y-39974659D01*
X50005078Y-40081004D01*
X50005076Y-40081005D01*
X49857242Y-40160024D01*
X49696823Y-40208687D01*
X49571804Y-40221000D01*
X49488196Y-40221000D01*
X49363177Y-40208687D01*
X49202758Y-40160024D01*
X49054924Y-40081005D01*
X49054922Y-40081004D01*
X48925341Y-39974659D01*
X48818996Y-39845078D01*
X48810886Y-39829906D01*
X48739976Y-39697242D01*
X48691313Y-39536823D01*
X48674883Y-39370000D01*
X48691313Y-39203177D01*
X48739976Y-39042758D01*
X48818995Y-38894924D01*
X48818996Y-38894922D01*
X48925341Y-38765341D01*
X49054922Y-38658996D01*
X49070094Y-38650886D01*
X49202758Y-38579976D01*
X49363177Y-38531313D01*
X49488196Y-38519000D01*
X49571804Y-38519000D01*
X49696823Y-38531313D01*
X49696823Y-38531313D01*
G37*
G36*
X34456823Y-38531313D02*
G01*
X34617242Y-38579976D01*
X34749906Y-38650886D01*
X34765078Y-38658996D01*
X34894659Y-38765341D01*
X35001004Y-38894922D01*
X35001005Y-38894924D01*
X35080024Y-39042758D01*
X35128687Y-39203177D01*
X35145117Y-39370000D01*
X35128687Y-39536823D01*
X35080024Y-39697242D01*
X35009114Y-39829906D01*
X35001004Y-39845078D01*
X34894659Y-39974659D01*
X34765078Y-40081004D01*
X34765076Y-40081005D01*
X34617242Y-40160024D01*
X34456823Y-40208687D01*
X34331804Y-40221000D01*
X34248196Y-40221000D01*
X34123177Y-40208687D01*
X33962758Y-40160024D01*
X33814924Y-40081005D01*
X33814922Y-40081004D01*
X33685341Y-39974659D01*
X33578996Y-39845078D01*
X33570886Y-39829906D01*
X33499976Y-39697242D01*
X33451313Y-39536823D01*
X33434883Y-39370000D01*
X33451313Y-39203177D01*
X33499976Y-39042758D01*
X33578995Y-38894924D01*
X33578996Y-38894922D01*
X33685341Y-38765341D01*
X33814922Y-38658996D01*
X33830094Y-38650886D01*
X33962758Y-38579976D01*
X34123177Y-38531313D01*
X34248196Y-38519000D01*
X34331804Y-38519000D01*
X34456823Y-38531313D01*
X34456823Y-38531313D01*
G37*
G36*
X52942142Y-37953242D02*
G01*
X53090101Y-38014529D01*
X53223255Y-38103499D01*
X53336501Y-38216745D01*
X53425471Y-38349899D01*
X53486758Y-38497858D01*
X53518000Y-38654925D01*
X53518000Y-38815075D01*
X53486758Y-38972142D01*
X53425471Y-39120101D01*
X53336501Y-39253255D01*
X53223255Y-39366501D01*
X53090101Y-39455471D01*
X52942142Y-39516758D01*
X52785075Y-39548000D01*
X52624925Y-39548000D01*
X52467858Y-39516758D01*
X52319899Y-39455471D01*
X52186745Y-39366501D01*
X52073499Y-39253255D01*
X51984529Y-39120101D01*
X51923242Y-38972142D01*
X51892000Y-38815075D01*
X51892000Y-38654925D01*
X51923242Y-38497858D01*
X51984529Y-38349899D01*
X52073499Y-38216745D01*
X52186745Y-38103499D01*
X52319899Y-38014529D01*
X52467858Y-37953242D01*
X52624925Y-37922000D01*
X52785075Y-37922000D01*
X52942142Y-37953242D01*
X52942142Y-37953242D01*
G37*
G36*
X28812142Y-37953242D02*
G01*
X28960101Y-38014529D01*
X29093255Y-38103499D01*
X29206501Y-38216745D01*
X29295471Y-38349899D01*
X29356758Y-38497858D01*
X29388000Y-38654925D01*
X29388000Y-38815075D01*
X29356758Y-38972142D01*
X29295471Y-39120101D01*
X29206501Y-39253255D01*
X29093255Y-39366501D01*
X28960101Y-39455471D01*
X28812142Y-39516758D01*
X28655075Y-39548000D01*
X28494925Y-39548000D01*
X28337858Y-39516758D01*
X28189899Y-39455471D01*
X28056745Y-39366501D01*
X27943499Y-39253255D01*
X27854529Y-39120101D01*
X27793242Y-38972142D01*
X27762000Y-38815075D01*
X27762000Y-38654925D01*
X27793242Y-38497858D01*
X27854529Y-38349899D01*
X27943499Y-38216745D01*
X28056745Y-38103499D01*
X28189899Y-38014529D01*
X28337858Y-37953242D01*
X28494925Y-37922000D01*
X28655075Y-37922000D01*
X28812142Y-37953242D01*
X28812142Y-37953242D01*
G37*
G36*
X55482142Y-37953242D02*
G01*
X55630101Y-38014529D01*
X55763255Y-38103499D01*
X55876501Y-38216745D01*
X55965471Y-38349899D01*
X56026758Y-38497858D01*
X56058000Y-38654925D01*
X56058000Y-38815075D01*
X56026758Y-38972142D01*
X55965471Y-39120101D01*
X55876501Y-39253255D01*
X55763255Y-39366501D01*
X55630101Y-39455471D01*
X55482142Y-39516758D01*
X55325075Y-39548000D01*
X55164925Y-39548000D01*
X55007858Y-39516758D01*
X54859899Y-39455471D01*
X54726745Y-39366501D01*
X54613499Y-39253255D01*
X54524529Y-39120101D01*
X54463242Y-38972142D01*
X54432000Y-38815075D01*
X54432000Y-38654925D01*
X54463242Y-38497858D01*
X54524529Y-38349899D01*
X54613499Y-38216745D01*
X54726745Y-38103499D01*
X54859899Y-38014529D01*
X55007858Y-37953242D01*
X55164925Y-37922000D01*
X55325075Y-37922000D01*
X55482142Y-37953242D01*
X55482142Y-37953242D01*
G37*
G36*
X23732142Y-37953242D02*
G01*
X23880101Y-38014529D01*
X24013255Y-38103499D01*
X24126501Y-38216745D01*
X24215471Y-38349899D01*
X24276758Y-38497858D01*
X24308000Y-38654925D01*
X24308000Y-38815075D01*
X24276758Y-38972142D01*
X24215471Y-39120101D01*
X24126501Y-39253255D01*
X24013255Y-39366501D01*
X23880101Y-39455471D01*
X23732142Y-39516758D01*
X23575075Y-39548000D01*
X23414925Y-39548000D01*
X23257858Y-39516758D01*
X23109899Y-39455471D01*
X22976745Y-39366501D01*
X22863499Y-39253255D01*
X22774529Y-39120101D01*
X22713242Y-38972142D01*
X22682000Y-38815075D01*
X22682000Y-38654925D01*
X22713242Y-38497858D01*
X22774529Y-38349899D01*
X22863499Y-38216745D01*
X22976745Y-38103499D01*
X23109899Y-38014529D01*
X23257858Y-37953242D01*
X23414925Y-37922000D01*
X23575075Y-37922000D01*
X23732142Y-37953242D01*
X23732142Y-37953242D01*
G37*
G36*
X58022142Y-37953242D02*
G01*
X58170101Y-38014529D01*
X58303255Y-38103499D01*
X58416501Y-38216745D01*
X58505471Y-38349899D01*
X58566758Y-38497858D01*
X58598000Y-38654925D01*
X58598000Y-38815075D01*
X58566758Y-38972142D01*
X58505471Y-39120101D01*
X58416501Y-39253255D01*
X58303255Y-39366501D01*
X58170101Y-39455471D01*
X58022142Y-39516758D01*
X57865075Y-39548000D01*
X57704925Y-39548000D01*
X57547858Y-39516758D01*
X57399899Y-39455471D01*
X57266745Y-39366501D01*
X57153499Y-39253255D01*
X57064529Y-39120101D01*
X57003242Y-38972142D01*
X56972000Y-38815075D01*
X56972000Y-38654925D01*
X57003242Y-38497858D01*
X57064529Y-38349899D01*
X57153499Y-38216745D01*
X57266745Y-38103499D01*
X57399899Y-38014529D01*
X57547858Y-37953242D01*
X57704925Y-37922000D01*
X57865075Y-37922000D01*
X58022142Y-37953242D01*
X58022142Y-37953242D01*
G37*
G36*
X63102142Y-37953242D02*
G01*
X63250101Y-38014529D01*
X63383255Y-38103499D01*
X63496501Y-38216745D01*
X63585471Y-38349899D01*
X63646758Y-38497858D01*
X63678000Y-38654925D01*
X63678000Y-38815075D01*
X63646758Y-38972142D01*
X63585471Y-39120101D01*
X63496501Y-39253255D01*
X63383255Y-39366501D01*
X63250101Y-39455471D01*
X63102142Y-39516758D01*
X62945075Y-39548000D01*
X62784925Y-39548000D01*
X62627858Y-39516758D01*
X62479899Y-39455471D01*
X62346745Y-39366501D01*
X62233499Y-39253255D01*
X62144529Y-39120101D01*
X62083242Y-38972142D01*
X62052000Y-38815075D01*
X62052000Y-38654925D01*
X62083242Y-38497858D01*
X62144529Y-38349899D01*
X62233499Y-38216745D01*
X62346745Y-38103499D01*
X62479899Y-38014529D01*
X62627858Y-37953242D01*
X62784925Y-37922000D01*
X62945075Y-37922000D01*
X63102142Y-37953242D01*
X63102142Y-37953242D01*
G37*
G36*
X31352142Y-37953242D02*
G01*
X31500101Y-38014529D01*
X31633255Y-38103499D01*
X31746501Y-38216745D01*
X31835471Y-38349899D01*
X31896758Y-38497858D01*
X31928000Y-38654925D01*
X31928000Y-38815075D01*
X31896758Y-38972142D01*
X31835471Y-39120101D01*
X31746501Y-39253255D01*
X31633255Y-39366501D01*
X31500101Y-39455471D01*
X31352142Y-39516758D01*
X31195075Y-39548000D01*
X31034925Y-39548000D01*
X30877858Y-39516758D01*
X30729899Y-39455471D01*
X30596745Y-39366501D01*
X30483499Y-39253255D01*
X30394529Y-39120101D01*
X30333242Y-38972142D01*
X30302000Y-38815075D01*
X30302000Y-38654925D01*
X30333242Y-38497858D01*
X30394529Y-38349899D01*
X30483499Y-38216745D01*
X30596745Y-38103499D01*
X30729899Y-38014529D01*
X30877858Y-37953242D01*
X31034925Y-37922000D01*
X31195075Y-37922000D01*
X31352142Y-37953242D01*
X31352142Y-37953242D01*
G37*
G36*
X21192142Y-37953242D02*
G01*
X21340101Y-38014529D01*
X21473255Y-38103499D01*
X21586501Y-38216745D01*
X21675471Y-38349899D01*
X21736758Y-38497858D01*
X21768000Y-38654925D01*
X21768000Y-38815075D01*
X21736758Y-38972142D01*
X21675471Y-39120101D01*
X21586501Y-39253255D01*
X21473255Y-39366501D01*
X21340101Y-39455471D01*
X21192142Y-39516758D01*
X21035075Y-39548000D01*
X20874925Y-39548000D01*
X20717858Y-39516758D01*
X20569899Y-39455471D01*
X20436745Y-39366501D01*
X20323499Y-39253255D01*
X20234529Y-39120101D01*
X20173242Y-38972142D01*
X20142000Y-38815075D01*
X20142000Y-38654925D01*
X20173242Y-38497858D01*
X20234529Y-38349899D01*
X20323499Y-38216745D01*
X20436745Y-38103499D01*
X20569899Y-38014529D01*
X20717858Y-37953242D01*
X20874925Y-37922000D01*
X21035075Y-37922000D01*
X21192142Y-37953242D01*
X21192142Y-37953242D01*
G37*
G36*
X26272142Y-37953242D02*
G01*
X26420101Y-38014529D01*
X26553255Y-38103499D01*
X26666501Y-38216745D01*
X26755471Y-38349899D01*
X26816758Y-38497858D01*
X26848000Y-38654925D01*
X26848000Y-38815075D01*
X26816758Y-38972142D01*
X26755471Y-39120101D01*
X26666501Y-39253255D01*
X26553255Y-39366501D01*
X26420101Y-39455471D01*
X26272142Y-39516758D01*
X26115075Y-39548000D01*
X25954925Y-39548000D01*
X25797858Y-39516758D01*
X25649899Y-39455471D01*
X25516745Y-39366501D01*
X25403499Y-39253255D01*
X25314529Y-39120101D01*
X25253242Y-38972142D01*
X25222000Y-38815075D01*
X25222000Y-38654925D01*
X25253242Y-38497858D01*
X25314529Y-38349899D01*
X25403499Y-38216745D01*
X25516745Y-38103499D01*
X25649899Y-38014529D01*
X25797858Y-37953242D01*
X25954925Y-37922000D01*
X26115075Y-37922000D01*
X26272142Y-37953242D01*
X26272142Y-37953242D01*
G37*
G36*
X60562142Y-37953242D02*
G01*
X60710101Y-38014529D01*
X60843255Y-38103499D01*
X60956501Y-38216745D01*
X61045471Y-38349899D01*
X61106758Y-38497858D01*
X61138000Y-38654925D01*
X61138000Y-38815075D01*
X61106758Y-38972142D01*
X61045471Y-39120101D01*
X60956501Y-39253255D01*
X60843255Y-39366501D01*
X60710101Y-39455471D01*
X60562142Y-39516758D01*
X60405075Y-39548000D01*
X60244925Y-39548000D01*
X60087858Y-39516758D01*
X59939899Y-39455471D01*
X59806745Y-39366501D01*
X59693499Y-39253255D01*
X59604529Y-39120101D01*
X59543242Y-38972142D01*
X59512000Y-38815075D01*
X59512000Y-38654925D01*
X59543242Y-38497858D01*
X59604529Y-38349899D01*
X59693499Y-38216745D01*
X59806745Y-38103499D01*
X59939899Y-38014529D01*
X60087858Y-37953242D01*
X60244925Y-37922000D01*
X60405075Y-37922000D01*
X60562142Y-37953242D01*
X60562142Y-37953242D01*
G37*
G36*
X66346564Y-37089389D02*
G01*
X66510376Y-37157242D01*
X66537835Y-37168616D01*
X66709973Y-37283635D01*
X66856365Y-37430027D01*
X66930518Y-37541004D01*
X66971385Y-37602167D01*
X67050611Y-37793436D01*
X67091000Y-37996484D01*
X67091000Y-38203516D01*
X67050611Y-38406564D01*
X66971385Y-38597833D01*
X66971384Y-38597835D01*
X66856365Y-38769973D01*
X66709973Y-38916365D01*
X66537835Y-39031384D01*
X66537834Y-39031385D01*
X66537833Y-39031385D01*
X66346564Y-39110611D01*
X66143516Y-39151000D01*
X65936484Y-39151000D01*
X65733436Y-39110611D01*
X65542167Y-39031385D01*
X65542166Y-39031385D01*
X65542165Y-39031384D01*
X65370027Y-38916365D01*
X65223635Y-38769973D01*
X65108616Y-38597835D01*
X65108615Y-38597833D01*
X65029389Y-38406564D01*
X64989000Y-38203516D01*
X64989000Y-37996484D01*
X65029389Y-37793436D01*
X65108615Y-37602167D01*
X65149483Y-37541004D01*
X65223635Y-37430027D01*
X65370027Y-37283635D01*
X65542165Y-37168616D01*
X65569624Y-37157242D01*
X65733436Y-37089389D01*
X65936484Y-37049000D01*
X66143516Y-37049000D01*
X66346564Y-37089389D01*
X66346564Y-37089389D01*
G37*
G36*
X18086564Y-37089389D02*
G01*
X18250376Y-37157242D01*
X18277835Y-37168616D01*
X18449973Y-37283635D01*
X18596365Y-37430027D01*
X18670518Y-37541004D01*
X18711385Y-37602167D01*
X18790611Y-37793436D01*
X18831000Y-37996484D01*
X18831000Y-38203516D01*
X18790611Y-38406564D01*
X18711385Y-38597833D01*
X18711384Y-38597835D01*
X18596365Y-38769973D01*
X18449973Y-38916365D01*
X18277835Y-39031384D01*
X18277834Y-39031385D01*
X18277833Y-39031385D01*
X18086564Y-39110611D01*
X17883516Y-39151000D01*
X17676484Y-39151000D01*
X17473436Y-39110611D01*
X17282167Y-39031385D01*
X17282166Y-39031385D01*
X17282165Y-39031384D01*
X17110027Y-38916365D01*
X16963635Y-38769973D01*
X16848616Y-38597835D01*
X16848615Y-38597833D01*
X16769389Y-38406564D01*
X16729000Y-38203516D01*
X16729000Y-37996484D01*
X16769389Y-37793436D01*
X16848615Y-37602167D01*
X16889483Y-37541004D01*
X16963635Y-37430027D01*
X17110027Y-37283635D01*
X17282165Y-37168616D01*
X17309624Y-37157242D01*
X17473436Y-37089389D01*
X17676484Y-37049000D01*
X17883516Y-37049000D01*
X18086564Y-37089389D01*
X18086564Y-37089389D01*
G37*
G36*
X49696823Y-35991313D02*
G01*
X49857242Y-36039976D01*
X49989906Y-36110886D01*
X50005078Y-36118996D01*
X50134659Y-36225341D01*
X50241004Y-36354922D01*
X50241005Y-36354924D01*
X50320024Y-36502758D01*
X50368687Y-36663177D01*
X50385117Y-36830000D01*
X50368687Y-36996823D01*
X50320024Y-37157242D01*
X50313944Y-37168616D01*
X50241004Y-37305078D01*
X50134659Y-37434659D01*
X50005078Y-37541004D01*
X50005076Y-37541005D01*
X49857242Y-37620024D01*
X49696823Y-37668687D01*
X49571804Y-37681000D01*
X49488196Y-37681000D01*
X49363177Y-37668687D01*
X49202758Y-37620024D01*
X49054924Y-37541005D01*
X49054922Y-37541004D01*
X48925341Y-37434659D01*
X48818996Y-37305078D01*
X48746056Y-37168616D01*
X48739976Y-37157242D01*
X48691313Y-36996823D01*
X48674883Y-36830000D01*
X48691313Y-36663177D01*
X48739976Y-36502758D01*
X48818995Y-36354924D01*
X48818996Y-36354922D01*
X48925341Y-36225341D01*
X49054922Y-36118996D01*
X49070094Y-36110886D01*
X49202758Y-36039976D01*
X49363177Y-35991313D01*
X49488196Y-35979000D01*
X49571804Y-35979000D01*
X49696823Y-35991313D01*
X49696823Y-35991313D01*
G37*
G36*
X34456823Y-35991313D02*
G01*
X34617242Y-36039976D01*
X34749906Y-36110886D01*
X34765078Y-36118996D01*
X34894659Y-36225341D01*
X35001004Y-36354922D01*
X35001005Y-36354924D01*
X35080024Y-36502758D01*
X35128687Y-36663177D01*
X35145117Y-36830000D01*
X35128687Y-36996823D01*
X35080024Y-37157242D01*
X35073944Y-37168616D01*
X35001004Y-37305078D01*
X34894659Y-37434659D01*
X34765078Y-37541004D01*
X34765076Y-37541005D01*
X34617242Y-37620024D01*
X34456823Y-37668687D01*
X34331804Y-37681000D01*
X34248196Y-37681000D01*
X34123177Y-37668687D01*
X33962758Y-37620024D01*
X33814924Y-37541005D01*
X33814922Y-37541004D01*
X33685341Y-37434659D01*
X33578996Y-37305078D01*
X33506056Y-37168616D01*
X33499976Y-37157242D01*
X33451313Y-36996823D01*
X33434883Y-36830000D01*
X33451313Y-36663177D01*
X33499976Y-36502758D01*
X33578995Y-36354924D01*
X33578996Y-36354922D01*
X33685341Y-36225341D01*
X33814922Y-36118996D01*
X33830094Y-36110886D01*
X33962758Y-36039976D01*
X34123177Y-35991313D01*
X34248196Y-35979000D01*
X34331804Y-35979000D01*
X34456823Y-35991313D01*
X34456823Y-35991313D01*
G37*
G36*
X21115942Y-35413242D02*
G01*
X21263901Y-35474529D01*
X21397055Y-35563499D01*
X21510301Y-35676745D01*
X21599271Y-35809899D01*
X21660558Y-35957858D01*
X21691800Y-36114925D01*
X21691800Y-36275075D01*
X21660558Y-36432142D01*
X21599271Y-36580101D01*
X21510301Y-36713255D01*
X21397055Y-36826501D01*
X21263901Y-36915471D01*
X21115942Y-36976758D01*
X20958875Y-37008000D01*
X20798725Y-37008000D01*
X20641658Y-36976758D01*
X20493699Y-36915471D01*
X20360545Y-36826501D01*
X20247299Y-36713255D01*
X20158329Y-36580101D01*
X20097042Y-36432142D01*
X20065800Y-36275075D01*
X20065800Y-36114925D01*
X20097042Y-35957858D01*
X20158329Y-35809899D01*
X20247299Y-35676745D01*
X20360545Y-35563499D01*
X20493699Y-35474529D01*
X20641658Y-35413242D01*
X20798725Y-35382000D01*
X20958875Y-35382000D01*
X21115942Y-35413242D01*
X21115942Y-35413242D01*
G37*
G36*
X31275942Y-35413242D02*
G01*
X31423901Y-35474529D01*
X31557055Y-35563499D01*
X31670301Y-35676745D01*
X31759271Y-35809899D01*
X31820558Y-35957858D01*
X31851800Y-36114925D01*
X31851800Y-36275075D01*
X31820558Y-36432142D01*
X31759271Y-36580101D01*
X31670301Y-36713255D01*
X31557055Y-36826501D01*
X31423901Y-36915471D01*
X31275942Y-36976758D01*
X31118875Y-37008000D01*
X30958725Y-37008000D01*
X30801658Y-36976758D01*
X30653699Y-36915471D01*
X30520545Y-36826501D01*
X30407299Y-36713255D01*
X30318329Y-36580101D01*
X30257042Y-36432142D01*
X30225800Y-36275075D01*
X30225800Y-36114925D01*
X30257042Y-35957858D01*
X30318329Y-35809899D01*
X30407299Y-35676745D01*
X30520545Y-35563499D01*
X30653699Y-35474529D01*
X30801658Y-35413242D01*
X30958725Y-35382000D01*
X31118875Y-35382000D01*
X31275942Y-35413242D01*
X31275942Y-35413242D01*
G37*
G36*
X23655942Y-35413242D02*
G01*
X23803901Y-35474529D01*
X23937055Y-35563499D01*
X24050301Y-35676745D01*
X24139271Y-35809899D01*
X24200558Y-35957858D01*
X24231800Y-36114925D01*
X24231800Y-36275075D01*
X24200558Y-36432142D01*
X24139271Y-36580101D01*
X24050301Y-36713255D01*
X23937055Y-36826501D01*
X23803901Y-36915471D01*
X23655942Y-36976758D01*
X23498875Y-37008000D01*
X23338725Y-37008000D01*
X23181658Y-36976758D01*
X23033699Y-36915471D01*
X22900545Y-36826501D01*
X22787299Y-36713255D01*
X22698329Y-36580101D01*
X22637042Y-36432142D01*
X22605800Y-36275075D01*
X22605800Y-36114925D01*
X22637042Y-35957858D01*
X22698329Y-35809899D01*
X22787299Y-35676745D01*
X22900545Y-35563499D01*
X23033699Y-35474529D01*
X23181658Y-35413242D01*
X23338725Y-35382000D01*
X23498875Y-35382000D01*
X23655942Y-35413242D01*
X23655942Y-35413242D01*
G37*
G36*
X53018342Y-35413242D02*
G01*
X53166301Y-35474529D01*
X53299455Y-35563499D01*
X53412701Y-35676745D01*
X53501671Y-35809899D01*
X53562958Y-35957858D01*
X53594200Y-36114925D01*
X53594200Y-36275075D01*
X53562958Y-36432142D01*
X53501671Y-36580101D01*
X53412701Y-36713255D01*
X53299455Y-36826501D01*
X53166301Y-36915471D01*
X53018342Y-36976758D01*
X52861275Y-37008000D01*
X52701125Y-37008000D01*
X52544058Y-36976758D01*
X52396099Y-36915471D01*
X52262945Y-36826501D01*
X52149699Y-36713255D01*
X52060729Y-36580101D01*
X51999442Y-36432142D01*
X51968200Y-36275075D01*
X51968200Y-36114925D01*
X51999442Y-35957858D01*
X52060729Y-35809899D01*
X52149699Y-35676745D01*
X52262945Y-35563499D01*
X52396099Y-35474529D01*
X52544058Y-35413242D01*
X52701125Y-35382000D01*
X52861275Y-35382000D01*
X53018342Y-35413242D01*
X53018342Y-35413242D01*
G37*
G36*
X55405942Y-35413242D02*
G01*
X55553901Y-35474529D01*
X55687055Y-35563499D01*
X55800301Y-35676745D01*
X55889271Y-35809899D01*
X55950558Y-35957858D01*
X55981800Y-36114925D01*
X55981800Y-36275075D01*
X55950558Y-36432142D01*
X55889271Y-36580101D01*
X55800301Y-36713255D01*
X55687055Y-36826501D01*
X55553901Y-36915471D01*
X55405942Y-36976758D01*
X55248875Y-37008000D01*
X55088725Y-37008000D01*
X54931658Y-36976758D01*
X54783699Y-36915471D01*
X54650545Y-36826501D01*
X54537299Y-36713255D01*
X54448329Y-36580101D01*
X54387042Y-36432142D01*
X54355800Y-36275075D01*
X54355800Y-36114925D01*
X54387042Y-35957858D01*
X54448329Y-35809899D01*
X54537299Y-35676745D01*
X54650545Y-35563499D01*
X54783699Y-35474529D01*
X54931658Y-35413242D01*
X55088725Y-35382000D01*
X55248875Y-35382000D01*
X55405942Y-35413242D01*
X55405942Y-35413242D01*
G37*
G36*
X63025942Y-35413242D02*
G01*
X63173901Y-35474529D01*
X63307055Y-35563499D01*
X63420301Y-35676745D01*
X63509271Y-35809899D01*
X63570558Y-35957858D01*
X63601800Y-36114925D01*
X63601800Y-36275075D01*
X63570558Y-36432142D01*
X63509271Y-36580101D01*
X63420301Y-36713255D01*
X63307055Y-36826501D01*
X63173901Y-36915471D01*
X63025942Y-36976758D01*
X62868875Y-37008000D01*
X62708725Y-37008000D01*
X62551658Y-36976758D01*
X62403699Y-36915471D01*
X62270545Y-36826501D01*
X62157299Y-36713255D01*
X62068329Y-36580101D01*
X62007042Y-36432142D01*
X61975800Y-36275075D01*
X61975800Y-36114925D01*
X62007042Y-35957858D01*
X62068329Y-35809899D01*
X62157299Y-35676745D01*
X62270545Y-35563499D01*
X62403699Y-35474529D01*
X62551658Y-35413242D01*
X62708725Y-35382000D01*
X62868875Y-35382000D01*
X63025942Y-35413242D01*
X63025942Y-35413242D01*
G37*
G36*
X28735942Y-35413242D02*
G01*
X28883901Y-35474529D01*
X29017055Y-35563499D01*
X29130301Y-35676745D01*
X29219271Y-35809899D01*
X29280558Y-35957858D01*
X29311800Y-36114925D01*
X29311800Y-36275075D01*
X29280558Y-36432142D01*
X29219271Y-36580101D01*
X29130301Y-36713255D01*
X29017055Y-36826501D01*
X28883901Y-36915471D01*
X28735942Y-36976758D01*
X28578875Y-37008000D01*
X28418725Y-37008000D01*
X28261658Y-36976758D01*
X28113699Y-36915471D01*
X27980545Y-36826501D01*
X27867299Y-36713255D01*
X27778329Y-36580101D01*
X27717042Y-36432142D01*
X27685800Y-36275075D01*
X27685800Y-36114925D01*
X27717042Y-35957858D01*
X27778329Y-35809899D01*
X27867299Y-35676745D01*
X27980545Y-35563499D01*
X28113699Y-35474529D01*
X28261658Y-35413242D01*
X28418725Y-35382000D01*
X28578875Y-35382000D01*
X28735942Y-35413242D01*
X28735942Y-35413242D01*
G37*
G36*
X57945942Y-35413242D02*
G01*
X58093901Y-35474529D01*
X58227055Y-35563499D01*
X58340301Y-35676745D01*
X58429271Y-35809899D01*
X58490558Y-35957858D01*
X58521800Y-36114925D01*
X58521800Y-36275075D01*
X58490558Y-36432142D01*
X58429271Y-36580101D01*
X58340301Y-36713255D01*
X58227055Y-36826501D01*
X58093901Y-36915471D01*
X57945942Y-36976758D01*
X57788875Y-37008000D01*
X57628725Y-37008000D01*
X57471658Y-36976758D01*
X57323699Y-36915471D01*
X57190545Y-36826501D01*
X57077299Y-36713255D01*
X56988329Y-36580101D01*
X56927042Y-36432142D01*
X56895800Y-36275075D01*
X56895800Y-36114925D01*
X56927042Y-35957858D01*
X56988329Y-35809899D01*
X57077299Y-35676745D01*
X57190545Y-35563499D01*
X57323699Y-35474529D01*
X57471658Y-35413242D01*
X57628725Y-35382000D01*
X57788875Y-35382000D01*
X57945942Y-35413242D01*
X57945942Y-35413242D01*
G37*
G36*
X60485942Y-35413242D02*
G01*
X60633901Y-35474529D01*
X60767055Y-35563499D01*
X60880301Y-35676745D01*
X60969271Y-35809899D01*
X61030558Y-35957858D01*
X61061800Y-36114925D01*
X61061800Y-36275075D01*
X61030558Y-36432142D01*
X60969271Y-36580101D01*
X60880301Y-36713255D01*
X60767055Y-36826501D01*
X60633901Y-36915471D01*
X60485942Y-36976758D01*
X60328875Y-37008000D01*
X60168725Y-37008000D01*
X60011658Y-36976758D01*
X59863699Y-36915471D01*
X59730545Y-36826501D01*
X59617299Y-36713255D01*
X59528329Y-36580101D01*
X59467042Y-36432142D01*
X59435800Y-36275075D01*
X59435800Y-36114925D01*
X59467042Y-35957858D01*
X59528329Y-35809899D01*
X59617299Y-35676745D01*
X59730545Y-35563499D01*
X59863699Y-35474529D01*
X60011658Y-35413242D01*
X60168725Y-35382000D01*
X60328875Y-35382000D01*
X60485942Y-35413242D01*
X60485942Y-35413242D01*
G37*
G36*
X26195942Y-35413242D02*
G01*
X26343901Y-35474529D01*
X26477055Y-35563499D01*
X26590301Y-35676745D01*
X26679271Y-35809899D01*
X26740558Y-35957858D01*
X26771800Y-36114925D01*
X26771800Y-36275075D01*
X26740558Y-36432142D01*
X26679271Y-36580101D01*
X26590301Y-36713255D01*
X26477055Y-36826501D01*
X26343901Y-36915471D01*
X26195942Y-36976758D01*
X26038875Y-37008000D01*
X25878725Y-37008000D01*
X25721658Y-36976758D01*
X25573699Y-36915471D01*
X25440545Y-36826501D01*
X25327299Y-36713255D01*
X25238329Y-36580101D01*
X25177042Y-36432142D01*
X25145800Y-36275075D01*
X25145800Y-36114925D01*
X25177042Y-35957858D01*
X25238329Y-35809899D01*
X25327299Y-35676745D01*
X25440545Y-35563499D01*
X25573699Y-35474529D01*
X25721658Y-35413242D01*
X25878725Y-35382000D01*
X26038875Y-35382000D01*
X26195942Y-35413242D01*
X26195942Y-35413242D01*
G37*
G36*
X49696823Y-33451313D02*
G01*
X49857242Y-33499976D01*
X49989906Y-33570886D01*
X50005078Y-33578996D01*
X50134659Y-33685341D01*
X50241004Y-33814922D01*
X50241005Y-33814924D01*
X50320024Y-33962758D01*
X50368687Y-34123177D01*
X50385117Y-34290000D01*
X50368687Y-34456823D01*
X50320024Y-34617242D01*
X50249114Y-34749906D01*
X50241004Y-34765078D01*
X50134659Y-34894659D01*
X50005078Y-35001004D01*
X50005076Y-35001005D01*
X49857242Y-35080024D01*
X49696823Y-35128687D01*
X49571804Y-35141000D01*
X49488196Y-35141000D01*
X49363177Y-35128687D01*
X49202758Y-35080024D01*
X49054924Y-35001005D01*
X49054922Y-35001004D01*
X48925341Y-34894659D01*
X48818996Y-34765078D01*
X48810886Y-34749906D01*
X48739976Y-34617242D01*
X48691313Y-34456823D01*
X48674883Y-34290000D01*
X48691313Y-34123177D01*
X48739976Y-33962758D01*
X48818995Y-33814924D01*
X48818996Y-33814922D01*
X48925341Y-33685341D01*
X49054922Y-33578996D01*
X49070094Y-33570886D01*
X49202758Y-33499976D01*
X49363177Y-33451313D01*
X49488196Y-33439000D01*
X49571804Y-33439000D01*
X49696823Y-33451313D01*
X49696823Y-33451313D01*
G37*
G36*
X34456823Y-33451313D02*
G01*
X34617242Y-33499976D01*
X34749906Y-33570886D01*
X34765078Y-33578996D01*
X34894659Y-33685341D01*
X35001004Y-33814922D01*
X35001005Y-33814924D01*
X35080024Y-33962758D01*
X35128687Y-34123177D01*
X35145117Y-34290000D01*
X35128687Y-34456823D01*
X35080024Y-34617242D01*
X35009114Y-34749906D01*
X35001004Y-34765078D01*
X34894659Y-34894659D01*
X34765078Y-35001004D01*
X34765076Y-35001005D01*
X34617242Y-35080024D01*
X34456823Y-35128687D01*
X34331804Y-35141000D01*
X34248196Y-35141000D01*
X34123177Y-35128687D01*
X33962758Y-35080024D01*
X33814924Y-35001005D01*
X33814922Y-35001004D01*
X33685341Y-34894659D01*
X33578996Y-34765078D01*
X33570886Y-34749906D01*
X33499976Y-34617242D01*
X33451313Y-34456823D01*
X33434883Y-34290000D01*
X33451313Y-34123177D01*
X33499976Y-33962758D01*
X33578995Y-33814924D01*
X33578996Y-33814922D01*
X33685341Y-33685341D01*
X33814922Y-33578996D01*
X33830094Y-33570886D01*
X33962758Y-33499976D01*
X34123177Y-33451313D01*
X34248196Y-33439000D01*
X34331804Y-33439000D01*
X34456823Y-33451313D01*
X34456823Y-33451313D01*
G37*
G36*
X28812142Y-32873242D02*
G01*
X28960101Y-32934529D01*
X29093255Y-33023499D01*
X29206501Y-33136745D01*
X29295471Y-33269899D01*
X29356758Y-33417858D01*
X29388000Y-33574925D01*
X29388000Y-33735075D01*
X29356758Y-33892142D01*
X29295471Y-34040101D01*
X29206501Y-34173255D01*
X29093255Y-34286501D01*
X28960101Y-34375471D01*
X28812142Y-34436758D01*
X28655075Y-34468000D01*
X28494925Y-34468000D01*
X28337858Y-34436758D01*
X28189899Y-34375471D01*
X28056745Y-34286501D01*
X27943499Y-34173255D01*
X27854529Y-34040101D01*
X27793242Y-33892142D01*
X27762000Y-33735075D01*
X27762000Y-33574925D01*
X27793242Y-33417858D01*
X27854529Y-33269899D01*
X27943499Y-33136745D01*
X28056745Y-33023499D01*
X28189899Y-32934529D01*
X28337858Y-32873242D01*
X28494925Y-32842000D01*
X28655075Y-32842000D01*
X28812142Y-32873242D01*
X28812142Y-32873242D01*
G37*
G36*
X63102142Y-32873242D02*
G01*
X63250101Y-32934529D01*
X63383255Y-33023499D01*
X63496501Y-33136745D01*
X63585471Y-33269899D01*
X63646758Y-33417858D01*
X63678000Y-33574925D01*
X63678000Y-33735075D01*
X63646758Y-33892142D01*
X63585471Y-34040101D01*
X63496501Y-34173255D01*
X63383255Y-34286501D01*
X63250101Y-34375471D01*
X63102142Y-34436758D01*
X62945075Y-34468000D01*
X62784925Y-34468000D01*
X62627858Y-34436758D01*
X62479899Y-34375471D01*
X62346745Y-34286501D01*
X62233499Y-34173255D01*
X62144529Y-34040101D01*
X62083242Y-33892142D01*
X62052000Y-33735075D01*
X62052000Y-33574925D01*
X62083242Y-33417858D01*
X62144529Y-33269899D01*
X62233499Y-33136745D01*
X62346745Y-33023499D01*
X62479899Y-32934529D01*
X62627858Y-32873242D01*
X62784925Y-32842000D01*
X62945075Y-32842000D01*
X63102142Y-32873242D01*
X63102142Y-32873242D01*
G37*
G36*
X60562142Y-32873242D02*
G01*
X60710101Y-32934529D01*
X60843255Y-33023499D01*
X60956501Y-33136745D01*
X61045471Y-33269899D01*
X61106758Y-33417858D01*
X61138000Y-33574925D01*
X61138000Y-33735075D01*
X61106758Y-33892142D01*
X61045471Y-34040101D01*
X60956501Y-34173255D01*
X60843255Y-34286501D01*
X60710101Y-34375471D01*
X60562142Y-34436758D01*
X60405075Y-34468000D01*
X60244925Y-34468000D01*
X60087858Y-34436758D01*
X59939899Y-34375471D01*
X59806745Y-34286501D01*
X59693499Y-34173255D01*
X59604529Y-34040101D01*
X59543242Y-33892142D01*
X59512000Y-33735075D01*
X59512000Y-33574925D01*
X59543242Y-33417858D01*
X59604529Y-33269899D01*
X59693499Y-33136745D01*
X59806745Y-33023499D01*
X59939899Y-32934529D01*
X60087858Y-32873242D01*
X60244925Y-32842000D01*
X60405075Y-32842000D01*
X60562142Y-32873242D01*
X60562142Y-32873242D01*
G37*
G36*
X58022142Y-32873242D02*
G01*
X58170101Y-32934529D01*
X58303255Y-33023499D01*
X58416501Y-33136745D01*
X58505471Y-33269899D01*
X58566758Y-33417858D01*
X58598000Y-33574925D01*
X58598000Y-33735075D01*
X58566758Y-33892142D01*
X58505471Y-34040101D01*
X58416501Y-34173255D01*
X58303255Y-34286501D01*
X58170101Y-34375471D01*
X58022142Y-34436758D01*
X57865075Y-34468000D01*
X57704925Y-34468000D01*
X57547858Y-34436758D01*
X57399899Y-34375471D01*
X57266745Y-34286501D01*
X57153499Y-34173255D01*
X57064529Y-34040101D01*
X57003242Y-33892142D01*
X56972000Y-33735075D01*
X56972000Y-33574925D01*
X57003242Y-33417858D01*
X57064529Y-33269899D01*
X57153499Y-33136745D01*
X57266745Y-33023499D01*
X57399899Y-32934529D01*
X57547858Y-32873242D01*
X57704925Y-32842000D01*
X57865075Y-32842000D01*
X58022142Y-32873242D01*
X58022142Y-32873242D01*
G37*
G36*
X55482142Y-32873242D02*
G01*
X55630101Y-32934529D01*
X55763255Y-33023499D01*
X55876501Y-33136745D01*
X55965471Y-33269899D01*
X56026758Y-33417858D01*
X56058000Y-33574925D01*
X56058000Y-33735075D01*
X56026758Y-33892142D01*
X55965471Y-34040101D01*
X55876501Y-34173255D01*
X55763255Y-34286501D01*
X55630101Y-34375471D01*
X55482142Y-34436758D01*
X55325075Y-34468000D01*
X55164925Y-34468000D01*
X55007858Y-34436758D01*
X54859899Y-34375471D01*
X54726745Y-34286501D01*
X54613499Y-34173255D01*
X54524529Y-34040101D01*
X54463242Y-33892142D01*
X54432000Y-33735075D01*
X54432000Y-33574925D01*
X54463242Y-33417858D01*
X54524529Y-33269899D01*
X54613499Y-33136745D01*
X54726745Y-33023499D01*
X54859899Y-32934529D01*
X55007858Y-32873242D01*
X55164925Y-32842000D01*
X55325075Y-32842000D01*
X55482142Y-32873242D01*
X55482142Y-32873242D01*
G37*
G36*
X52942142Y-32873242D02*
G01*
X53090101Y-32934529D01*
X53223255Y-33023499D01*
X53336501Y-33136745D01*
X53425471Y-33269899D01*
X53486758Y-33417858D01*
X53518000Y-33574925D01*
X53518000Y-33735075D01*
X53486758Y-33892142D01*
X53425471Y-34040101D01*
X53336501Y-34173255D01*
X53223255Y-34286501D01*
X53090101Y-34375471D01*
X52942142Y-34436758D01*
X52785075Y-34468000D01*
X52624925Y-34468000D01*
X52467858Y-34436758D01*
X52319899Y-34375471D01*
X52186745Y-34286501D01*
X52073499Y-34173255D01*
X51984529Y-34040101D01*
X51923242Y-33892142D01*
X51892000Y-33735075D01*
X51892000Y-33574925D01*
X51923242Y-33417858D01*
X51984529Y-33269899D01*
X52073499Y-33136745D01*
X52186745Y-33023499D01*
X52319899Y-32934529D01*
X52467858Y-32873242D01*
X52624925Y-32842000D01*
X52785075Y-32842000D01*
X52942142Y-32873242D01*
X52942142Y-32873242D01*
G37*
G36*
X23732142Y-32873242D02*
G01*
X23880101Y-32934529D01*
X24013255Y-33023499D01*
X24126501Y-33136745D01*
X24215471Y-33269899D01*
X24276758Y-33417858D01*
X24308000Y-33574925D01*
X24308000Y-33735075D01*
X24276758Y-33892142D01*
X24215471Y-34040101D01*
X24126501Y-34173255D01*
X24013255Y-34286501D01*
X23880101Y-34375471D01*
X23732142Y-34436758D01*
X23575075Y-34468000D01*
X23414925Y-34468000D01*
X23257858Y-34436758D01*
X23109899Y-34375471D01*
X22976745Y-34286501D01*
X22863499Y-34173255D01*
X22774529Y-34040101D01*
X22713242Y-33892142D01*
X22682000Y-33735075D01*
X22682000Y-33574925D01*
X22713242Y-33417858D01*
X22774529Y-33269899D01*
X22863499Y-33136745D01*
X22976745Y-33023499D01*
X23109899Y-32934529D01*
X23257858Y-32873242D01*
X23414925Y-32842000D01*
X23575075Y-32842000D01*
X23732142Y-32873242D01*
X23732142Y-32873242D01*
G37*
G36*
X31352142Y-32873242D02*
G01*
X31500101Y-32934529D01*
X31633255Y-33023499D01*
X31746501Y-33136745D01*
X31835471Y-33269899D01*
X31896758Y-33417858D01*
X31928000Y-33574925D01*
X31928000Y-33735075D01*
X31896758Y-33892142D01*
X31835471Y-34040101D01*
X31746501Y-34173255D01*
X31633255Y-34286501D01*
X31500101Y-34375471D01*
X31352142Y-34436758D01*
X31195075Y-34468000D01*
X31034925Y-34468000D01*
X30877858Y-34436758D01*
X30729899Y-34375471D01*
X30596745Y-34286501D01*
X30483499Y-34173255D01*
X30394529Y-34040101D01*
X30333242Y-33892142D01*
X30302000Y-33735075D01*
X30302000Y-33574925D01*
X30333242Y-33417858D01*
X30394529Y-33269899D01*
X30483499Y-33136745D01*
X30596745Y-33023499D01*
X30729899Y-32934529D01*
X30877858Y-32873242D01*
X31034925Y-32842000D01*
X31195075Y-32842000D01*
X31352142Y-32873242D01*
X31352142Y-32873242D01*
G37*
G36*
X21192142Y-32873242D02*
G01*
X21340101Y-32934529D01*
X21473255Y-33023499D01*
X21586501Y-33136745D01*
X21675471Y-33269899D01*
X21736758Y-33417858D01*
X21768000Y-33574925D01*
X21768000Y-33735075D01*
X21736758Y-33892142D01*
X21675471Y-34040101D01*
X21586501Y-34173255D01*
X21473255Y-34286501D01*
X21340101Y-34375471D01*
X21192142Y-34436758D01*
X21035075Y-34468000D01*
X20874925Y-34468000D01*
X20717858Y-34436758D01*
X20569899Y-34375471D01*
X20436745Y-34286501D01*
X20323499Y-34173255D01*
X20234529Y-34040101D01*
X20173242Y-33892142D01*
X20142000Y-33735075D01*
X20142000Y-33574925D01*
X20173242Y-33417858D01*
X20234529Y-33269899D01*
X20323499Y-33136745D01*
X20436745Y-33023499D01*
X20569899Y-32934529D01*
X20717858Y-32873242D01*
X20874925Y-32842000D01*
X21035075Y-32842000D01*
X21192142Y-32873242D01*
X21192142Y-32873242D01*
G37*
G36*
X26272142Y-32873242D02*
G01*
X26420101Y-32934529D01*
X26553255Y-33023499D01*
X26666501Y-33136745D01*
X26755471Y-33269899D01*
X26816758Y-33417858D01*
X26848000Y-33574925D01*
X26848000Y-33735075D01*
X26816758Y-33892142D01*
X26755471Y-34040101D01*
X26666501Y-34173255D01*
X26553255Y-34286501D01*
X26420101Y-34375471D01*
X26272142Y-34436758D01*
X26115075Y-34468000D01*
X25954925Y-34468000D01*
X25797858Y-34436758D01*
X25649899Y-34375471D01*
X25516745Y-34286501D01*
X25403499Y-34173255D01*
X25314529Y-34040101D01*
X25253242Y-33892142D01*
X25222000Y-33735075D01*
X25222000Y-33574925D01*
X25253242Y-33417858D01*
X25314529Y-33269899D01*
X25403499Y-33136745D01*
X25516745Y-33023499D01*
X25649899Y-32934529D01*
X25797858Y-32873242D01*
X25954925Y-32842000D01*
X26115075Y-32842000D01*
X26272142Y-32873242D01*
X26272142Y-32873242D01*
G37*
G36*
X18086564Y-32009389D02*
G01*
X18250376Y-32077242D01*
X18277835Y-32088616D01*
X18449973Y-32203635D01*
X18596365Y-32350027D01*
X18670518Y-32461004D01*
X18711385Y-32522167D01*
X18790611Y-32713436D01*
X18831000Y-32916484D01*
X18831000Y-33123516D01*
X18790611Y-33326564D01*
X18711385Y-33517833D01*
X18711384Y-33517835D01*
X18596365Y-33689973D01*
X18449973Y-33836365D01*
X18277835Y-33951384D01*
X18277834Y-33951385D01*
X18277833Y-33951385D01*
X18086564Y-34030611D01*
X17883516Y-34071000D01*
X17676484Y-34071000D01*
X17473436Y-34030611D01*
X17282167Y-33951385D01*
X17282166Y-33951385D01*
X17282165Y-33951384D01*
X17110027Y-33836365D01*
X16963635Y-33689973D01*
X16848616Y-33517835D01*
X16848615Y-33517833D01*
X16769389Y-33326564D01*
X16729000Y-33123516D01*
X16729000Y-32916484D01*
X16769389Y-32713436D01*
X16848615Y-32522167D01*
X16889483Y-32461004D01*
X16963635Y-32350027D01*
X17110027Y-32203635D01*
X17282165Y-32088616D01*
X17309624Y-32077242D01*
X17473436Y-32009389D01*
X17676484Y-31969000D01*
X17883516Y-31969000D01*
X18086564Y-32009389D01*
X18086564Y-32009389D01*
G37*
G36*
X66346564Y-32009389D02*
G01*
X66510376Y-32077242D01*
X66537835Y-32088616D01*
X66709973Y-32203635D01*
X66856365Y-32350027D01*
X66930518Y-32461004D01*
X66971385Y-32522167D01*
X67050611Y-32713436D01*
X67091000Y-32916484D01*
X67091000Y-33123516D01*
X67050611Y-33326564D01*
X66971385Y-33517833D01*
X66971384Y-33517835D01*
X66856365Y-33689973D01*
X66709973Y-33836365D01*
X66537835Y-33951384D01*
X66537834Y-33951385D01*
X66537833Y-33951385D01*
X66346564Y-34030611D01*
X66143516Y-34071000D01*
X65936484Y-34071000D01*
X65733436Y-34030611D01*
X65542167Y-33951385D01*
X65542166Y-33951385D01*
X65542165Y-33951384D01*
X65370027Y-33836365D01*
X65223635Y-33689973D01*
X65108616Y-33517835D01*
X65108615Y-33517833D01*
X65029389Y-33326564D01*
X64989000Y-33123516D01*
X64989000Y-32916484D01*
X65029389Y-32713436D01*
X65108615Y-32522167D01*
X65149483Y-32461004D01*
X65223635Y-32350027D01*
X65370027Y-32203635D01*
X65542165Y-32088616D01*
X65569624Y-32077242D01*
X65733436Y-32009389D01*
X65936484Y-31969000D01*
X66143516Y-31969000D01*
X66346564Y-32009389D01*
X66346564Y-32009389D01*
G37*
G36*
X49696823Y-30911313D02*
G01*
X49857242Y-30959976D01*
X49989906Y-31030886D01*
X50005078Y-31038996D01*
X50134659Y-31145341D01*
X50241004Y-31274922D01*
X50241005Y-31274924D01*
X50320024Y-31422758D01*
X50368687Y-31583177D01*
X50385117Y-31750000D01*
X50368687Y-31916823D01*
X50320024Y-32077242D01*
X50313944Y-32088616D01*
X50241004Y-32225078D01*
X50134659Y-32354659D01*
X50005078Y-32461004D01*
X50005076Y-32461005D01*
X49857242Y-32540024D01*
X49696823Y-32588687D01*
X49571804Y-32601000D01*
X49488196Y-32601000D01*
X49363177Y-32588687D01*
X49202758Y-32540024D01*
X49054924Y-32461005D01*
X49054922Y-32461004D01*
X48925341Y-32354659D01*
X48818996Y-32225078D01*
X48746056Y-32088616D01*
X48739976Y-32077242D01*
X48691313Y-31916823D01*
X48674883Y-31750000D01*
X48691313Y-31583177D01*
X48739976Y-31422758D01*
X48818995Y-31274924D01*
X48818996Y-31274922D01*
X48925341Y-31145341D01*
X49054922Y-31038996D01*
X49070094Y-31030886D01*
X49202758Y-30959976D01*
X49363177Y-30911313D01*
X49488196Y-30899000D01*
X49571804Y-30899000D01*
X49696823Y-30911313D01*
X49696823Y-30911313D01*
G37*
G36*
X34456823Y-30911313D02*
G01*
X34617242Y-30959976D01*
X34749906Y-31030886D01*
X34765078Y-31038996D01*
X34894659Y-31145341D01*
X35001004Y-31274922D01*
X35001005Y-31274924D01*
X35080024Y-31422758D01*
X35128687Y-31583177D01*
X35145117Y-31750000D01*
X35128687Y-31916823D01*
X35080024Y-32077242D01*
X35073944Y-32088616D01*
X35001004Y-32225078D01*
X34894659Y-32354659D01*
X34765078Y-32461004D01*
X34765076Y-32461005D01*
X34617242Y-32540024D01*
X34456823Y-32588687D01*
X34331804Y-32601000D01*
X34248196Y-32601000D01*
X34123177Y-32588687D01*
X33962758Y-32540024D01*
X33814924Y-32461005D01*
X33814922Y-32461004D01*
X33685341Y-32354659D01*
X33578996Y-32225078D01*
X33506056Y-32088616D01*
X33499976Y-32077242D01*
X33451313Y-31916823D01*
X33434883Y-31750000D01*
X33451313Y-31583177D01*
X33499976Y-31422758D01*
X33578995Y-31274924D01*
X33578996Y-31274922D01*
X33685341Y-31145341D01*
X33814922Y-31038996D01*
X33830094Y-31030886D01*
X33962758Y-30959976D01*
X34123177Y-30911313D01*
X34248196Y-30899000D01*
X34331804Y-30899000D01*
X34456823Y-30911313D01*
X34456823Y-30911313D01*
G37*
G36*
X21115942Y-30333242D02*
G01*
X21263901Y-30394529D01*
X21397055Y-30483499D01*
X21510301Y-30596745D01*
X21599271Y-30729899D01*
X21660558Y-30877858D01*
X21691800Y-31034925D01*
X21691800Y-31195075D01*
X21660558Y-31352142D01*
X21599271Y-31500101D01*
X21510301Y-31633255D01*
X21397055Y-31746501D01*
X21263901Y-31835471D01*
X21115942Y-31896758D01*
X20958875Y-31928000D01*
X20798725Y-31928000D01*
X20641658Y-31896758D01*
X20493699Y-31835471D01*
X20360545Y-31746501D01*
X20247299Y-31633255D01*
X20158329Y-31500101D01*
X20097042Y-31352142D01*
X20065800Y-31195075D01*
X20065800Y-31034925D01*
X20097042Y-30877858D01*
X20158329Y-30729899D01*
X20247299Y-30596745D01*
X20360545Y-30483499D01*
X20493699Y-30394529D01*
X20641658Y-30333242D01*
X20798725Y-30302000D01*
X20958875Y-30302000D01*
X21115942Y-30333242D01*
X21115942Y-30333242D01*
G37*
G36*
X28735942Y-30333242D02*
G01*
X28883901Y-30394529D01*
X29017055Y-30483499D01*
X29130301Y-30596745D01*
X29219271Y-30729899D01*
X29280558Y-30877858D01*
X29311800Y-31034925D01*
X29311800Y-31195075D01*
X29280558Y-31352142D01*
X29219271Y-31500101D01*
X29130301Y-31633255D01*
X29017055Y-31746501D01*
X28883901Y-31835471D01*
X28735942Y-31896758D01*
X28578875Y-31928000D01*
X28418725Y-31928000D01*
X28261658Y-31896758D01*
X28113699Y-31835471D01*
X27980545Y-31746501D01*
X27867299Y-31633255D01*
X27778329Y-31500101D01*
X27717042Y-31352142D01*
X27685800Y-31195075D01*
X27685800Y-31034925D01*
X27717042Y-30877858D01*
X27778329Y-30729899D01*
X27867299Y-30596745D01*
X27980545Y-30483499D01*
X28113699Y-30394529D01*
X28261658Y-30333242D01*
X28418725Y-30302000D01*
X28578875Y-30302000D01*
X28735942Y-30333242D01*
X28735942Y-30333242D01*
G37*
G36*
X60485942Y-30333242D02*
G01*
X60633901Y-30394529D01*
X60767055Y-30483499D01*
X60880301Y-30596745D01*
X60969271Y-30729899D01*
X61030558Y-30877858D01*
X61061800Y-31034925D01*
X61061800Y-31195075D01*
X61030558Y-31352142D01*
X60969271Y-31500101D01*
X60880301Y-31633255D01*
X60767055Y-31746501D01*
X60633901Y-31835471D01*
X60485942Y-31896758D01*
X60328875Y-31928000D01*
X60168725Y-31928000D01*
X60011658Y-31896758D01*
X59863699Y-31835471D01*
X59730545Y-31746501D01*
X59617299Y-31633255D01*
X59528329Y-31500101D01*
X59467042Y-31352142D01*
X59435800Y-31195075D01*
X59435800Y-31034925D01*
X59467042Y-30877858D01*
X59528329Y-30729899D01*
X59617299Y-30596745D01*
X59730545Y-30483499D01*
X59863699Y-30394529D01*
X60011658Y-30333242D01*
X60168725Y-30302000D01*
X60328875Y-30302000D01*
X60485942Y-30333242D01*
X60485942Y-30333242D01*
G37*
G36*
X31275942Y-30333242D02*
G01*
X31423901Y-30394529D01*
X31557055Y-30483499D01*
X31670301Y-30596745D01*
X31759271Y-30729899D01*
X31820558Y-30877858D01*
X31851800Y-31034925D01*
X31851800Y-31195075D01*
X31820558Y-31352142D01*
X31759271Y-31500101D01*
X31670301Y-31633255D01*
X31557055Y-31746501D01*
X31423901Y-31835471D01*
X31275942Y-31896758D01*
X31118875Y-31928000D01*
X30958725Y-31928000D01*
X30801658Y-31896758D01*
X30653699Y-31835471D01*
X30520545Y-31746501D01*
X30407299Y-31633255D01*
X30318329Y-31500101D01*
X30257042Y-31352142D01*
X30225800Y-31195075D01*
X30225800Y-31034925D01*
X30257042Y-30877858D01*
X30318329Y-30729899D01*
X30407299Y-30596745D01*
X30520545Y-30483499D01*
X30653699Y-30394529D01*
X30801658Y-30333242D01*
X30958725Y-30302000D01*
X31118875Y-30302000D01*
X31275942Y-30333242D01*
X31275942Y-30333242D01*
G37*
G36*
X23655942Y-30333242D02*
G01*
X23803901Y-30394529D01*
X23937055Y-30483499D01*
X24050301Y-30596745D01*
X24139271Y-30729899D01*
X24200558Y-30877858D01*
X24231800Y-31034925D01*
X24231800Y-31195075D01*
X24200558Y-31352142D01*
X24139271Y-31500101D01*
X24050301Y-31633255D01*
X23937055Y-31746501D01*
X23803901Y-31835471D01*
X23655942Y-31896758D01*
X23498875Y-31928000D01*
X23338725Y-31928000D01*
X23181658Y-31896758D01*
X23033699Y-31835471D01*
X22900545Y-31746501D01*
X22787299Y-31633255D01*
X22698329Y-31500101D01*
X22637042Y-31352142D01*
X22605800Y-31195075D01*
X22605800Y-31034925D01*
X22637042Y-30877858D01*
X22698329Y-30729899D01*
X22787299Y-30596745D01*
X22900545Y-30483499D01*
X23033699Y-30394529D01*
X23181658Y-30333242D01*
X23338725Y-30302000D01*
X23498875Y-30302000D01*
X23655942Y-30333242D01*
X23655942Y-30333242D01*
G37*
G36*
X52942142Y-30333242D02*
G01*
X53090101Y-30394529D01*
X53223255Y-30483499D01*
X53336501Y-30596745D01*
X53425471Y-30729899D01*
X53486758Y-30877858D01*
X53518000Y-31034925D01*
X53518000Y-31195075D01*
X53486758Y-31352142D01*
X53425471Y-31500101D01*
X53336501Y-31633255D01*
X53223255Y-31746501D01*
X53090101Y-31835471D01*
X52942142Y-31896758D01*
X52785075Y-31928000D01*
X52624925Y-31928000D01*
X52467858Y-31896758D01*
X52319899Y-31835471D01*
X52186745Y-31746501D01*
X52073499Y-31633255D01*
X51984529Y-31500101D01*
X51923242Y-31352142D01*
X51892000Y-31195075D01*
X51892000Y-31034925D01*
X51923242Y-30877858D01*
X51984529Y-30729899D01*
X52073499Y-30596745D01*
X52186745Y-30483499D01*
X52319899Y-30394529D01*
X52467858Y-30333242D01*
X52624925Y-30302000D01*
X52785075Y-30302000D01*
X52942142Y-30333242D01*
X52942142Y-30333242D01*
G37*
G36*
X57945942Y-30333242D02*
G01*
X58093901Y-30394529D01*
X58227055Y-30483499D01*
X58340301Y-30596745D01*
X58429271Y-30729899D01*
X58490558Y-30877858D01*
X58521800Y-31034925D01*
X58521800Y-31195075D01*
X58490558Y-31352142D01*
X58429271Y-31500101D01*
X58340301Y-31633255D01*
X58227055Y-31746501D01*
X58093901Y-31835471D01*
X57945942Y-31896758D01*
X57788875Y-31928000D01*
X57628725Y-31928000D01*
X57471658Y-31896758D01*
X57323699Y-31835471D01*
X57190545Y-31746501D01*
X57077299Y-31633255D01*
X56988329Y-31500101D01*
X56927042Y-31352142D01*
X56895800Y-31195075D01*
X56895800Y-31034925D01*
X56927042Y-30877858D01*
X56988329Y-30729899D01*
X57077299Y-30596745D01*
X57190545Y-30483499D01*
X57323699Y-30394529D01*
X57471658Y-30333242D01*
X57628725Y-30302000D01*
X57788875Y-30302000D01*
X57945942Y-30333242D01*
X57945942Y-30333242D01*
G37*
G36*
X26195942Y-30333242D02*
G01*
X26343901Y-30394529D01*
X26477055Y-30483499D01*
X26590301Y-30596745D01*
X26679271Y-30729899D01*
X26740558Y-30877858D01*
X26771800Y-31034925D01*
X26771800Y-31195075D01*
X26740558Y-31352142D01*
X26679271Y-31500101D01*
X26590301Y-31633255D01*
X26477055Y-31746501D01*
X26343901Y-31835471D01*
X26195942Y-31896758D01*
X26038875Y-31928000D01*
X25878725Y-31928000D01*
X25721658Y-31896758D01*
X25573699Y-31835471D01*
X25440545Y-31746501D01*
X25327299Y-31633255D01*
X25238329Y-31500101D01*
X25177042Y-31352142D01*
X25145800Y-31195075D01*
X25145800Y-31034925D01*
X25177042Y-30877858D01*
X25238329Y-30729899D01*
X25327299Y-30596745D01*
X25440545Y-30483499D01*
X25573699Y-30394529D01*
X25721658Y-30333242D01*
X25878725Y-30302000D01*
X26038875Y-30302000D01*
X26195942Y-30333242D01*
X26195942Y-30333242D01*
G37*
G36*
X55405942Y-30333242D02*
G01*
X55553901Y-30394529D01*
X55687055Y-30483499D01*
X55800301Y-30596745D01*
X55889271Y-30729899D01*
X55950558Y-30877858D01*
X55981800Y-31034925D01*
X55981800Y-31195075D01*
X55950558Y-31352142D01*
X55889271Y-31500101D01*
X55800301Y-31633255D01*
X55687055Y-31746501D01*
X55553901Y-31835471D01*
X55405942Y-31896758D01*
X55248875Y-31928000D01*
X55088725Y-31928000D01*
X54931658Y-31896758D01*
X54783699Y-31835471D01*
X54650545Y-31746501D01*
X54537299Y-31633255D01*
X54448329Y-31500101D01*
X54387042Y-31352142D01*
X54355800Y-31195075D01*
X54355800Y-31034925D01*
X54387042Y-30877858D01*
X54448329Y-30729899D01*
X54537299Y-30596745D01*
X54650545Y-30483499D01*
X54783699Y-30394529D01*
X54931658Y-30333242D01*
X55088725Y-30302000D01*
X55248875Y-30302000D01*
X55405942Y-30333242D01*
X55405942Y-30333242D01*
G37*
G36*
X63025942Y-30333242D02*
G01*
X63173901Y-30394529D01*
X63307055Y-30483499D01*
X63420301Y-30596745D01*
X63509271Y-30729899D01*
X63570558Y-30877858D01*
X63601800Y-31034925D01*
X63601800Y-31195075D01*
X63570558Y-31352142D01*
X63509271Y-31500101D01*
X63420301Y-31633255D01*
X63307055Y-31746501D01*
X63173901Y-31835471D01*
X63025942Y-31896758D01*
X62868875Y-31928000D01*
X62708725Y-31928000D01*
X62551658Y-31896758D01*
X62403699Y-31835471D01*
X62270545Y-31746501D01*
X62157299Y-31633255D01*
X62068329Y-31500101D01*
X62007042Y-31352142D01*
X61975800Y-31195075D01*
X61975800Y-31034925D01*
X62007042Y-30877858D01*
X62068329Y-30729899D01*
X62157299Y-30596745D01*
X62270545Y-30483499D01*
X62403699Y-30394529D01*
X62551658Y-30333242D01*
X62708725Y-30302000D01*
X62868875Y-30302000D01*
X63025942Y-30333242D01*
X63025942Y-30333242D01*
G37*
G36*
X18086564Y-28834389D02*
G01*
X18277833Y-28913615D01*
X18277835Y-28913616D01*
X18449973Y-29028635D01*
X18596365Y-29175027D01*
X18711385Y-29347167D01*
X18790611Y-29538436D01*
X18831000Y-29741484D01*
X18831000Y-29948516D01*
X18790611Y-30151564D01*
X18715358Y-30333242D01*
X18711384Y-30342835D01*
X18596365Y-30514973D01*
X18449973Y-30661365D01*
X18277835Y-30776384D01*
X18277834Y-30776385D01*
X18277833Y-30776385D01*
X18086564Y-30855611D01*
X17883516Y-30896000D01*
X17676484Y-30896000D01*
X17473436Y-30855611D01*
X17282167Y-30776385D01*
X17282166Y-30776385D01*
X17282165Y-30776384D01*
X17110027Y-30661365D01*
X16963635Y-30514973D01*
X16848616Y-30342835D01*
X16844642Y-30333242D01*
X16769389Y-30151564D01*
X16729000Y-29948516D01*
X16729000Y-29741484D01*
X16769389Y-29538436D01*
X16848615Y-29347167D01*
X16963635Y-29175027D01*
X17110027Y-29028635D01*
X17282165Y-28913616D01*
X17282167Y-28913615D01*
X17473436Y-28834389D01*
X17676484Y-28794000D01*
X17883516Y-28794000D01*
X18086564Y-28834389D01*
X18086564Y-28834389D01*
G37*
G36*
X66346564Y-28834389D02*
G01*
X66537833Y-28913615D01*
X66537835Y-28913616D01*
X66709973Y-29028635D01*
X66856365Y-29175027D01*
X66971385Y-29347167D01*
X67050611Y-29538436D01*
X67091000Y-29741484D01*
X67091000Y-29948516D01*
X67050611Y-30151564D01*
X66975358Y-30333242D01*
X66971384Y-30342835D01*
X66856365Y-30514973D01*
X66709973Y-30661365D01*
X66537835Y-30776384D01*
X66537834Y-30776385D01*
X66537833Y-30776385D01*
X66346564Y-30855611D01*
X66143516Y-30896000D01*
X65936484Y-30896000D01*
X65733436Y-30855611D01*
X65542167Y-30776385D01*
X65542166Y-30776385D01*
X65542165Y-30776384D01*
X65370027Y-30661365D01*
X65223635Y-30514973D01*
X65108616Y-30342835D01*
X65104642Y-30333242D01*
X65029389Y-30151564D01*
X64989000Y-29948516D01*
X64989000Y-29741484D01*
X65029389Y-29538436D01*
X65108615Y-29347167D01*
X65223635Y-29175027D01*
X65370027Y-29028635D01*
X65542165Y-28913616D01*
X65542167Y-28913615D01*
X65733436Y-28834389D01*
X65936484Y-28794000D01*
X66143516Y-28794000D01*
X66346564Y-28834389D01*
X66346564Y-28834389D01*
G37*
G36*
X34456823Y-28371313D02*
G01*
X34617242Y-28419976D01*
X34749906Y-28490886D01*
X34765078Y-28498996D01*
X34894659Y-28605341D01*
X35001004Y-28734922D01*
X35001005Y-28734924D01*
X35080024Y-28882758D01*
X35128687Y-29043177D01*
X35145117Y-29210000D01*
X35128687Y-29376823D01*
X35080024Y-29537242D01*
X35009114Y-29669906D01*
X35001004Y-29685078D01*
X34894659Y-29814659D01*
X34765078Y-29921004D01*
X34765076Y-29921005D01*
X34617242Y-30000024D01*
X34456823Y-30048687D01*
X34331804Y-30061000D01*
X34248196Y-30061000D01*
X34123177Y-30048687D01*
X33962758Y-30000024D01*
X33814924Y-29921005D01*
X33814922Y-29921004D01*
X33685341Y-29814659D01*
X33578996Y-29685078D01*
X33570886Y-29669906D01*
X33499976Y-29537242D01*
X33451313Y-29376823D01*
X33434883Y-29210000D01*
X33451313Y-29043177D01*
X33499976Y-28882758D01*
X33578995Y-28734924D01*
X33578996Y-28734922D01*
X33685341Y-28605341D01*
X33814922Y-28498996D01*
X33830094Y-28490886D01*
X33962758Y-28419976D01*
X34123177Y-28371313D01*
X34248196Y-28359000D01*
X34331804Y-28359000D01*
X34456823Y-28371313D01*
X34456823Y-28371313D01*
G37*
G36*
X49696823Y-28371313D02*
G01*
X49857242Y-28419976D01*
X49989906Y-28490886D01*
X50005078Y-28498996D01*
X50134659Y-28605341D01*
X50241004Y-28734922D01*
X50241005Y-28734924D01*
X50320024Y-28882758D01*
X50368687Y-29043177D01*
X50385117Y-29210000D01*
X50368687Y-29376823D01*
X50320024Y-29537242D01*
X50249114Y-29669906D01*
X50241004Y-29685078D01*
X50134659Y-29814659D01*
X50005078Y-29921004D01*
X50005076Y-29921005D01*
X49857242Y-30000024D01*
X49696823Y-30048687D01*
X49571804Y-30061000D01*
X49488196Y-30061000D01*
X49363177Y-30048687D01*
X49202758Y-30000024D01*
X49054924Y-29921005D01*
X49054922Y-29921004D01*
X48925341Y-29814659D01*
X48818996Y-29685078D01*
X48810886Y-29669906D01*
X48739976Y-29537242D01*
X48691313Y-29376823D01*
X48674883Y-29210000D01*
X48691313Y-29043177D01*
X48739976Y-28882758D01*
X48818995Y-28734924D01*
X48818996Y-28734922D01*
X48925341Y-28605341D01*
X49054922Y-28498996D01*
X49070094Y-28490886D01*
X49202758Y-28419976D01*
X49363177Y-28371313D01*
X49488196Y-28359000D01*
X49571804Y-28359000D01*
X49696823Y-28371313D01*
X49696823Y-28371313D01*
G37*
G36*
X55482142Y-27793242D02*
G01*
X55630101Y-27854529D01*
X55763255Y-27943499D01*
X55876501Y-28056745D01*
X55965471Y-28189899D01*
X56026758Y-28337858D01*
X56058000Y-28494925D01*
X56058000Y-28655075D01*
X56026758Y-28812142D01*
X55965471Y-28960101D01*
X55876501Y-29093255D01*
X55763255Y-29206501D01*
X55630101Y-29295471D01*
X55482142Y-29356758D01*
X55325075Y-29388000D01*
X55164925Y-29388000D01*
X55007858Y-29356758D01*
X54859899Y-29295471D01*
X54726745Y-29206501D01*
X54613499Y-29093255D01*
X54524529Y-28960101D01*
X54463242Y-28812142D01*
X54432000Y-28655075D01*
X54432000Y-28494925D01*
X54463242Y-28337858D01*
X54524529Y-28189899D01*
X54613499Y-28056745D01*
X54726745Y-27943499D01*
X54859899Y-27854529D01*
X55007858Y-27793242D01*
X55164925Y-27762000D01*
X55325075Y-27762000D01*
X55482142Y-27793242D01*
X55482142Y-27793242D01*
G37*
G36*
X28812142Y-27793242D02*
G01*
X28960101Y-27854529D01*
X29093255Y-27943499D01*
X29206501Y-28056745D01*
X29295471Y-28189899D01*
X29356758Y-28337858D01*
X29388000Y-28494925D01*
X29388000Y-28655075D01*
X29356758Y-28812142D01*
X29295471Y-28960101D01*
X29206501Y-29093255D01*
X29093255Y-29206501D01*
X28960101Y-29295471D01*
X28812142Y-29356758D01*
X28655075Y-29388000D01*
X28494925Y-29388000D01*
X28337858Y-29356758D01*
X28189899Y-29295471D01*
X28056745Y-29206501D01*
X27943499Y-29093255D01*
X27854529Y-28960101D01*
X27793242Y-28812142D01*
X27762000Y-28655075D01*
X27762000Y-28494925D01*
X27793242Y-28337858D01*
X27854529Y-28189899D01*
X27943499Y-28056745D01*
X28056745Y-27943499D01*
X28189899Y-27854529D01*
X28337858Y-27793242D01*
X28494925Y-27762000D01*
X28655075Y-27762000D01*
X28812142Y-27793242D01*
X28812142Y-27793242D01*
G37*
G36*
X60562142Y-27793242D02*
G01*
X60710101Y-27854529D01*
X60843255Y-27943499D01*
X60956501Y-28056745D01*
X61045471Y-28189899D01*
X61106758Y-28337858D01*
X61138000Y-28494925D01*
X61138000Y-28655075D01*
X61106758Y-28812142D01*
X61045471Y-28960101D01*
X60956501Y-29093255D01*
X60843255Y-29206501D01*
X60710101Y-29295471D01*
X60562142Y-29356758D01*
X60405075Y-29388000D01*
X60244925Y-29388000D01*
X60087858Y-29356758D01*
X59939899Y-29295471D01*
X59806745Y-29206501D01*
X59693499Y-29093255D01*
X59604529Y-28960101D01*
X59543242Y-28812142D01*
X59512000Y-28655075D01*
X59512000Y-28494925D01*
X59543242Y-28337858D01*
X59604529Y-28189899D01*
X59693499Y-28056745D01*
X59806745Y-27943499D01*
X59939899Y-27854529D01*
X60087858Y-27793242D01*
X60244925Y-27762000D01*
X60405075Y-27762000D01*
X60562142Y-27793242D01*
X60562142Y-27793242D01*
G37*
G36*
X31352142Y-27793242D02*
G01*
X31500101Y-27854529D01*
X31633255Y-27943499D01*
X31746501Y-28056745D01*
X31835471Y-28189899D01*
X31896758Y-28337858D01*
X31928000Y-28494925D01*
X31928000Y-28655075D01*
X31896758Y-28812142D01*
X31835471Y-28960101D01*
X31746501Y-29093255D01*
X31633255Y-29206501D01*
X31500101Y-29295471D01*
X31352142Y-29356758D01*
X31195075Y-29388000D01*
X31034925Y-29388000D01*
X30877858Y-29356758D01*
X30729899Y-29295471D01*
X30596745Y-29206501D01*
X30483499Y-29093255D01*
X30394529Y-28960101D01*
X30333242Y-28812142D01*
X30302000Y-28655075D01*
X30302000Y-28494925D01*
X30333242Y-28337858D01*
X30394529Y-28189899D01*
X30483499Y-28056745D01*
X30596745Y-27943499D01*
X30729899Y-27854529D01*
X30877858Y-27793242D01*
X31034925Y-27762000D01*
X31195075Y-27762000D01*
X31352142Y-27793242D01*
X31352142Y-27793242D01*
G37*
G36*
X63102142Y-27793242D02*
G01*
X63250101Y-27854529D01*
X63383255Y-27943499D01*
X63496501Y-28056745D01*
X63585471Y-28189899D01*
X63646758Y-28337858D01*
X63678000Y-28494925D01*
X63678000Y-28655075D01*
X63646758Y-28812142D01*
X63585471Y-28960101D01*
X63496501Y-29093255D01*
X63383255Y-29206501D01*
X63250101Y-29295471D01*
X63102142Y-29356758D01*
X62945075Y-29388000D01*
X62784925Y-29388000D01*
X62627858Y-29356758D01*
X62479899Y-29295471D01*
X62346745Y-29206501D01*
X62233499Y-29093255D01*
X62144529Y-28960101D01*
X62083242Y-28812142D01*
X62052000Y-28655075D01*
X62052000Y-28494925D01*
X62083242Y-28337858D01*
X62144529Y-28189899D01*
X62233499Y-28056745D01*
X62346745Y-27943499D01*
X62479899Y-27854529D01*
X62627858Y-27793242D01*
X62784925Y-27762000D01*
X62945075Y-27762000D01*
X63102142Y-27793242D01*
X63102142Y-27793242D01*
G37*
G36*
X58022142Y-27793242D02*
G01*
X58170101Y-27854529D01*
X58303255Y-27943499D01*
X58416501Y-28056745D01*
X58505471Y-28189899D01*
X58566758Y-28337858D01*
X58598000Y-28494925D01*
X58598000Y-28655075D01*
X58566758Y-28812142D01*
X58505471Y-28960101D01*
X58416501Y-29093255D01*
X58303255Y-29206501D01*
X58170101Y-29295471D01*
X58022142Y-29356758D01*
X57865075Y-29388000D01*
X57704925Y-29388000D01*
X57547858Y-29356758D01*
X57399899Y-29295471D01*
X57266745Y-29206501D01*
X57153499Y-29093255D01*
X57064529Y-28960101D01*
X57003242Y-28812142D01*
X56972000Y-28655075D01*
X56972000Y-28494925D01*
X57003242Y-28337858D01*
X57064529Y-28189899D01*
X57153499Y-28056745D01*
X57266745Y-27943499D01*
X57399899Y-27854529D01*
X57547858Y-27793242D01*
X57704925Y-27762000D01*
X57865075Y-27762000D01*
X58022142Y-27793242D01*
X58022142Y-27793242D01*
G37*
G36*
X21192142Y-27793242D02*
G01*
X21340101Y-27854529D01*
X21473255Y-27943499D01*
X21586501Y-28056745D01*
X21675471Y-28189899D01*
X21736758Y-28337858D01*
X21768000Y-28494925D01*
X21768000Y-28655075D01*
X21736758Y-28812142D01*
X21675471Y-28960101D01*
X21586501Y-29093255D01*
X21473255Y-29206501D01*
X21340101Y-29295471D01*
X21192142Y-29356758D01*
X21035075Y-29388000D01*
X20874925Y-29388000D01*
X20717858Y-29356758D01*
X20569899Y-29295471D01*
X20436745Y-29206501D01*
X20323499Y-29093255D01*
X20234529Y-28960101D01*
X20173242Y-28812142D01*
X20142000Y-28655075D01*
X20142000Y-28494925D01*
X20173242Y-28337858D01*
X20234529Y-28189899D01*
X20323499Y-28056745D01*
X20436745Y-27943499D01*
X20569899Y-27854529D01*
X20717858Y-27793242D01*
X20874925Y-27762000D01*
X21035075Y-27762000D01*
X21192142Y-27793242D01*
X21192142Y-27793242D01*
G37*
G36*
X52942142Y-27793242D02*
G01*
X53090101Y-27854529D01*
X53223255Y-27943499D01*
X53336501Y-28056745D01*
X53425471Y-28189899D01*
X53486758Y-28337858D01*
X53518000Y-28494925D01*
X53518000Y-28655075D01*
X53486758Y-28812142D01*
X53425471Y-28960101D01*
X53336501Y-29093255D01*
X53223255Y-29206501D01*
X53090101Y-29295471D01*
X52942142Y-29356758D01*
X52785075Y-29388000D01*
X52624925Y-29388000D01*
X52467858Y-29356758D01*
X52319899Y-29295471D01*
X52186745Y-29206501D01*
X52073499Y-29093255D01*
X51984529Y-28960101D01*
X51923242Y-28812142D01*
X51892000Y-28655075D01*
X51892000Y-28494925D01*
X51923242Y-28337858D01*
X51984529Y-28189899D01*
X52073499Y-28056745D01*
X52186745Y-27943499D01*
X52319899Y-27854529D01*
X52467858Y-27793242D01*
X52624925Y-27762000D01*
X52785075Y-27762000D01*
X52942142Y-27793242D01*
X52942142Y-27793242D01*
G37*
G36*
X23732142Y-27793242D02*
G01*
X23880101Y-27854529D01*
X24013255Y-27943499D01*
X24126501Y-28056745D01*
X24215471Y-28189899D01*
X24276758Y-28337858D01*
X24308000Y-28494925D01*
X24308000Y-28655075D01*
X24276758Y-28812142D01*
X24215471Y-28960101D01*
X24126501Y-29093255D01*
X24013255Y-29206501D01*
X23880101Y-29295471D01*
X23732142Y-29356758D01*
X23575075Y-29388000D01*
X23414925Y-29388000D01*
X23257858Y-29356758D01*
X23109899Y-29295471D01*
X22976745Y-29206501D01*
X22863499Y-29093255D01*
X22774529Y-28960101D01*
X22713242Y-28812142D01*
X22682000Y-28655075D01*
X22682000Y-28494925D01*
X22713242Y-28337858D01*
X22774529Y-28189899D01*
X22863499Y-28056745D01*
X22976745Y-27943499D01*
X23109899Y-27854529D01*
X23257858Y-27793242D01*
X23414925Y-27762000D01*
X23575075Y-27762000D01*
X23732142Y-27793242D01*
X23732142Y-27793242D01*
G37*
G36*
X26272142Y-27793242D02*
G01*
X26420101Y-27854529D01*
X26553255Y-27943499D01*
X26666501Y-28056745D01*
X26755471Y-28189899D01*
X26816758Y-28337858D01*
X26848000Y-28494925D01*
X26848000Y-28655075D01*
X26816758Y-28812142D01*
X26755471Y-28960101D01*
X26666501Y-29093255D01*
X26553255Y-29206501D01*
X26420101Y-29295471D01*
X26272142Y-29356758D01*
X26115075Y-29388000D01*
X25954925Y-29388000D01*
X25797858Y-29356758D01*
X25649899Y-29295471D01*
X25516745Y-29206501D01*
X25403499Y-29093255D01*
X25314529Y-28960101D01*
X25253242Y-28812142D01*
X25222000Y-28655075D01*
X25222000Y-28494925D01*
X25253242Y-28337858D01*
X25314529Y-28189899D01*
X25403499Y-28056745D01*
X25516745Y-27943499D01*
X25649899Y-27854529D01*
X25797858Y-27793242D01*
X25954925Y-27762000D01*
X26115075Y-27762000D01*
X26272142Y-27793242D01*
X26272142Y-27793242D01*
G37*
G36*
X34456823Y-25831313D02*
G01*
X34617242Y-25879976D01*
X34749906Y-25950886D01*
X34765078Y-25958996D01*
X34894659Y-26065341D01*
X35001004Y-26194922D01*
X35001005Y-26194924D01*
X35080024Y-26342758D01*
X35128687Y-26503177D01*
X35145117Y-26670000D01*
X35128687Y-26836823D01*
X35080024Y-26997242D01*
X35009114Y-27129906D01*
X35001004Y-27145078D01*
X34894659Y-27274659D01*
X34765078Y-27381004D01*
X34765076Y-27381005D01*
X34617242Y-27460024D01*
X34456823Y-27508687D01*
X34331804Y-27521000D01*
X34248196Y-27521000D01*
X34123177Y-27508687D01*
X33962758Y-27460024D01*
X33814924Y-27381005D01*
X33814922Y-27381004D01*
X33685341Y-27274659D01*
X33578996Y-27145078D01*
X33570886Y-27129906D01*
X33499976Y-26997242D01*
X33451313Y-26836823D01*
X33434883Y-26670000D01*
X33451313Y-26503177D01*
X33499976Y-26342758D01*
X33578995Y-26194924D01*
X33578996Y-26194922D01*
X33685341Y-26065341D01*
X33814922Y-25958996D01*
X33830094Y-25950886D01*
X33962758Y-25879976D01*
X34123177Y-25831313D01*
X34248196Y-25819000D01*
X34331804Y-25819000D01*
X34456823Y-25831313D01*
X34456823Y-25831313D01*
G37*
G36*
X49696823Y-25831313D02*
G01*
X49857242Y-25879976D01*
X49989906Y-25950886D01*
X50005078Y-25958996D01*
X50134659Y-26065341D01*
X50241004Y-26194922D01*
X50241005Y-26194924D01*
X50320024Y-26342758D01*
X50368687Y-26503177D01*
X50385117Y-26670000D01*
X50368687Y-26836823D01*
X50320024Y-26997242D01*
X50249114Y-27129906D01*
X50241004Y-27145078D01*
X50134659Y-27274659D01*
X50005078Y-27381004D01*
X50005076Y-27381005D01*
X49857242Y-27460024D01*
X49696823Y-27508687D01*
X49571804Y-27521000D01*
X49488196Y-27521000D01*
X49363177Y-27508687D01*
X49202758Y-27460024D01*
X49054924Y-27381005D01*
X49054922Y-27381004D01*
X48925341Y-27274659D01*
X48818996Y-27145078D01*
X48810886Y-27129906D01*
X48739976Y-26997242D01*
X48691313Y-26836823D01*
X48674883Y-26670000D01*
X48691313Y-26503177D01*
X48739976Y-26342758D01*
X48818995Y-26194924D01*
X48818996Y-26194922D01*
X48925341Y-26065341D01*
X49054922Y-25958996D01*
X49070094Y-25950886D01*
X49202758Y-25879976D01*
X49363177Y-25831313D01*
X49488196Y-25819000D01*
X49571804Y-25819000D01*
X49696823Y-25831313D01*
X49696823Y-25831313D01*
G37*
G36*
X53018342Y-25253242D02*
G01*
X53166301Y-25314529D01*
X53299455Y-25403499D01*
X53412701Y-25516745D01*
X53501671Y-25649899D01*
X53562958Y-25797858D01*
X53594200Y-25954925D01*
X53594200Y-26115075D01*
X53562958Y-26272142D01*
X53501671Y-26420101D01*
X53412701Y-26553255D01*
X53299455Y-26666501D01*
X53166301Y-26755471D01*
X53018342Y-26816758D01*
X52861275Y-26848000D01*
X52701125Y-26848000D01*
X52544058Y-26816758D01*
X52396099Y-26755471D01*
X52262945Y-26666501D01*
X52149699Y-26553255D01*
X52060729Y-26420101D01*
X51999442Y-26272142D01*
X51968200Y-26115075D01*
X51968200Y-25954925D01*
X51999442Y-25797858D01*
X52060729Y-25649899D01*
X52149699Y-25516745D01*
X52262945Y-25403499D01*
X52396099Y-25314529D01*
X52544058Y-25253242D01*
X52701125Y-25222000D01*
X52861275Y-25222000D01*
X53018342Y-25253242D01*
X53018342Y-25253242D01*
G37*
G36*
X60562142Y-25253242D02*
G01*
X60710101Y-25314529D01*
X60843255Y-25403499D01*
X60956501Y-25516745D01*
X61045471Y-25649899D01*
X61106758Y-25797858D01*
X61138000Y-25954925D01*
X61138000Y-26115075D01*
X61106758Y-26272142D01*
X61045471Y-26420101D01*
X60956501Y-26553255D01*
X60843255Y-26666501D01*
X60710101Y-26755471D01*
X60562142Y-26816758D01*
X60405075Y-26848000D01*
X60244925Y-26848000D01*
X60087858Y-26816758D01*
X59939899Y-26755471D01*
X59806745Y-26666501D01*
X59693499Y-26553255D01*
X59604529Y-26420101D01*
X59543242Y-26272142D01*
X59512000Y-26115075D01*
X59512000Y-25954925D01*
X59543242Y-25797858D01*
X59604529Y-25649899D01*
X59693499Y-25516745D01*
X59806745Y-25403499D01*
X59939899Y-25314529D01*
X60087858Y-25253242D01*
X60244925Y-25222000D01*
X60405075Y-25222000D01*
X60562142Y-25253242D01*
X60562142Y-25253242D01*
G37*
G36*
X58022142Y-25253242D02*
G01*
X58170101Y-25314529D01*
X58303255Y-25403499D01*
X58416501Y-25516745D01*
X58505471Y-25649899D01*
X58566758Y-25797858D01*
X58598000Y-25954925D01*
X58598000Y-26115075D01*
X58566758Y-26272142D01*
X58505471Y-26420101D01*
X58416501Y-26553255D01*
X58303255Y-26666501D01*
X58170101Y-26755471D01*
X58022142Y-26816758D01*
X57865075Y-26848000D01*
X57704925Y-26848000D01*
X57547858Y-26816758D01*
X57399899Y-26755471D01*
X57266745Y-26666501D01*
X57153499Y-26553255D01*
X57064529Y-26420101D01*
X57003242Y-26272142D01*
X56972000Y-26115075D01*
X56972000Y-25954925D01*
X57003242Y-25797858D01*
X57064529Y-25649899D01*
X57153499Y-25516745D01*
X57266745Y-25403499D01*
X57399899Y-25314529D01*
X57547858Y-25253242D01*
X57704925Y-25222000D01*
X57865075Y-25222000D01*
X58022142Y-25253242D01*
X58022142Y-25253242D01*
G37*
G36*
X55482142Y-25253242D02*
G01*
X55630101Y-25314529D01*
X55763255Y-25403499D01*
X55876501Y-25516745D01*
X55965471Y-25649899D01*
X56026758Y-25797858D01*
X56058000Y-25954925D01*
X56058000Y-26115075D01*
X56026758Y-26272142D01*
X55965471Y-26420101D01*
X55876501Y-26553255D01*
X55763255Y-26666501D01*
X55630101Y-26755471D01*
X55482142Y-26816758D01*
X55325075Y-26848000D01*
X55164925Y-26848000D01*
X55007858Y-26816758D01*
X54859899Y-26755471D01*
X54726745Y-26666501D01*
X54613499Y-26553255D01*
X54524529Y-26420101D01*
X54463242Y-26272142D01*
X54432000Y-26115075D01*
X54432000Y-25954925D01*
X54463242Y-25797858D01*
X54524529Y-25649899D01*
X54613499Y-25516745D01*
X54726745Y-25403499D01*
X54859899Y-25314529D01*
X55007858Y-25253242D01*
X55164925Y-25222000D01*
X55325075Y-25222000D01*
X55482142Y-25253242D01*
X55482142Y-25253242D01*
G37*
G36*
X63102142Y-25253242D02*
G01*
X63250101Y-25314529D01*
X63383255Y-25403499D01*
X63496501Y-25516745D01*
X63585471Y-25649899D01*
X63646758Y-25797858D01*
X63678000Y-25954925D01*
X63678000Y-26115075D01*
X63646758Y-26272142D01*
X63585471Y-26420101D01*
X63496501Y-26553255D01*
X63383255Y-26666501D01*
X63250101Y-26755471D01*
X63102142Y-26816758D01*
X62945075Y-26848000D01*
X62784925Y-26848000D01*
X62627858Y-26816758D01*
X62479899Y-26755471D01*
X62346745Y-26666501D01*
X62233499Y-26553255D01*
X62144529Y-26420101D01*
X62083242Y-26272142D01*
X62052000Y-26115075D01*
X62052000Y-25954925D01*
X62083242Y-25797858D01*
X62144529Y-25649899D01*
X62233499Y-25516745D01*
X62346745Y-25403499D01*
X62479899Y-25314529D01*
X62627858Y-25253242D01*
X62784925Y-25222000D01*
X62945075Y-25222000D01*
X63102142Y-25253242D01*
X63102142Y-25253242D01*
G37*
G36*
X23732142Y-25253242D02*
G01*
X23880101Y-25314529D01*
X24013255Y-25403499D01*
X24126501Y-25516745D01*
X24215471Y-25649899D01*
X24276758Y-25797858D01*
X24308000Y-25954925D01*
X24308000Y-26115075D01*
X24276758Y-26272142D01*
X24215471Y-26420101D01*
X24126501Y-26553255D01*
X24013255Y-26666501D01*
X23880101Y-26755471D01*
X23732142Y-26816758D01*
X23575075Y-26848000D01*
X23414925Y-26848000D01*
X23257858Y-26816758D01*
X23109899Y-26755471D01*
X22976745Y-26666501D01*
X22863499Y-26553255D01*
X22774529Y-26420101D01*
X22713242Y-26272142D01*
X22682000Y-26115075D01*
X22682000Y-25954925D01*
X22713242Y-25797858D01*
X22774529Y-25649899D01*
X22863499Y-25516745D01*
X22976745Y-25403499D01*
X23109899Y-25314529D01*
X23257858Y-25253242D01*
X23414925Y-25222000D01*
X23575075Y-25222000D01*
X23732142Y-25253242D01*
X23732142Y-25253242D01*
G37*
G36*
X26272142Y-25253242D02*
G01*
X26420101Y-25314529D01*
X26553255Y-25403499D01*
X26666501Y-25516745D01*
X26755471Y-25649899D01*
X26816758Y-25797858D01*
X26848000Y-25954925D01*
X26848000Y-26115075D01*
X26816758Y-26272142D01*
X26755471Y-26420101D01*
X26666501Y-26553255D01*
X26553255Y-26666501D01*
X26420101Y-26755471D01*
X26272142Y-26816758D01*
X26115075Y-26848000D01*
X25954925Y-26848000D01*
X25797858Y-26816758D01*
X25649899Y-26755471D01*
X25516745Y-26666501D01*
X25403499Y-26553255D01*
X25314529Y-26420101D01*
X25253242Y-26272142D01*
X25222000Y-26115075D01*
X25222000Y-25954925D01*
X25253242Y-25797858D01*
X25314529Y-25649899D01*
X25403499Y-25516745D01*
X25516745Y-25403499D01*
X25649899Y-25314529D01*
X25797858Y-25253242D01*
X25954925Y-25222000D01*
X26115075Y-25222000D01*
X26272142Y-25253242D01*
X26272142Y-25253242D01*
G37*
G36*
X21192142Y-25253242D02*
G01*
X21340101Y-25314529D01*
X21473255Y-25403499D01*
X21586501Y-25516745D01*
X21675471Y-25649899D01*
X21736758Y-25797858D01*
X21768000Y-25954925D01*
X21768000Y-26115075D01*
X21736758Y-26272142D01*
X21675471Y-26420101D01*
X21586501Y-26553255D01*
X21473255Y-26666501D01*
X21340101Y-26755471D01*
X21192142Y-26816758D01*
X21035075Y-26848000D01*
X20874925Y-26848000D01*
X20717858Y-26816758D01*
X20569899Y-26755471D01*
X20436745Y-26666501D01*
X20323499Y-26553255D01*
X20234529Y-26420101D01*
X20173242Y-26272142D01*
X20142000Y-26115075D01*
X20142000Y-25954925D01*
X20173242Y-25797858D01*
X20234529Y-25649899D01*
X20323499Y-25516745D01*
X20436745Y-25403499D01*
X20569899Y-25314529D01*
X20717858Y-25253242D01*
X20874925Y-25222000D01*
X21035075Y-25222000D01*
X21192142Y-25253242D01*
X21192142Y-25253242D01*
G37*
G36*
X28812142Y-25253242D02*
G01*
X28960101Y-25314529D01*
X29093255Y-25403499D01*
X29206501Y-25516745D01*
X29295471Y-25649899D01*
X29356758Y-25797858D01*
X29388000Y-25954925D01*
X29388000Y-26115075D01*
X29356758Y-26272142D01*
X29295471Y-26420101D01*
X29206501Y-26553255D01*
X29093255Y-26666501D01*
X28960101Y-26755471D01*
X28812142Y-26816758D01*
X28655075Y-26848000D01*
X28494925Y-26848000D01*
X28337858Y-26816758D01*
X28189899Y-26755471D01*
X28056745Y-26666501D01*
X27943499Y-26553255D01*
X27854529Y-26420101D01*
X27793242Y-26272142D01*
X27762000Y-26115075D01*
X27762000Y-25954925D01*
X27793242Y-25797858D01*
X27854529Y-25649899D01*
X27943499Y-25516745D01*
X28056745Y-25403499D01*
X28189899Y-25314529D01*
X28337858Y-25253242D01*
X28494925Y-25222000D01*
X28655075Y-25222000D01*
X28812142Y-25253242D01*
X28812142Y-25253242D01*
G37*
G36*
X31352142Y-25253242D02*
G01*
X31500101Y-25314529D01*
X31633255Y-25403499D01*
X31746501Y-25516745D01*
X31835471Y-25649899D01*
X31896758Y-25797858D01*
X31928000Y-25954925D01*
X31928000Y-26115075D01*
X31896758Y-26272142D01*
X31835471Y-26420101D01*
X31746501Y-26553255D01*
X31633255Y-26666501D01*
X31500101Y-26755471D01*
X31352142Y-26816758D01*
X31195075Y-26848000D01*
X31034925Y-26848000D01*
X30877858Y-26816758D01*
X30729899Y-26755471D01*
X30596745Y-26666501D01*
X30483499Y-26553255D01*
X30394529Y-26420101D01*
X30333242Y-26272142D01*
X30302000Y-26115075D01*
X30302000Y-25954925D01*
X30333242Y-25797858D01*
X30394529Y-25649899D01*
X30483499Y-25516745D01*
X30596745Y-25403499D01*
X30729899Y-25314529D01*
X30877858Y-25253242D01*
X31034925Y-25222000D01*
X31195075Y-25222000D01*
X31352142Y-25253242D01*
X31352142Y-25253242D01*
G37*
G36*
X66346564Y-23754389D02*
G01*
X66537833Y-23833615D01*
X66537835Y-23833616D01*
X66709973Y-23948635D01*
X66856365Y-24095027D01*
X66971385Y-24267167D01*
X67050611Y-24458436D01*
X67091000Y-24661484D01*
X67091000Y-24868516D01*
X67050611Y-25071564D01*
X66975358Y-25253242D01*
X66971384Y-25262835D01*
X66856365Y-25434973D01*
X66709973Y-25581365D01*
X66537835Y-25696384D01*
X66537834Y-25696385D01*
X66537833Y-25696385D01*
X66346564Y-25775611D01*
X66143516Y-25816000D01*
X65936484Y-25816000D01*
X65733436Y-25775611D01*
X65542167Y-25696385D01*
X65542166Y-25696385D01*
X65542165Y-25696384D01*
X65370027Y-25581365D01*
X65223635Y-25434973D01*
X65108616Y-25262835D01*
X65104642Y-25253242D01*
X65029389Y-25071564D01*
X64989000Y-24868516D01*
X64989000Y-24661484D01*
X65029389Y-24458436D01*
X65108615Y-24267167D01*
X65223635Y-24095027D01*
X65370027Y-23948635D01*
X65542165Y-23833616D01*
X65542167Y-23833615D01*
X65733436Y-23754389D01*
X65936484Y-23714000D01*
X66143516Y-23714000D01*
X66346564Y-23754389D01*
X66346564Y-23754389D01*
G37*
G36*
X18086564Y-23754389D02*
G01*
X18277833Y-23833615D01*
X18277835Y-23833616D01*
X18449973Y-23948635D01*
X18596365Y-24095027D01*
X18711385Y-24267167D01*
X18790611Y-24458436D01*
X18831000Y-24661484D01*
X18831000Y-24868516D01*
X18790611Y-25071564D01*
X18715358Y-25253242D01*
X18711384Y-25262835D01*
X18596365Y-25434973D01*
X18449973Y-25581365D01*
X18277835Y-25696384D01*
X18277834Y-25696385D01*
X18277833Y-25696385D01*
X18086564Y-25775611D01*
X17883516Y-25816000D01*
X17676484Y-25816000D01*
X17473436Y-25775611D01*
X17282167Y-25696385D01*
X17282166Y-25696385D01*
X17282165Y-25696384D01*
X17110027Y-25581365D01*
X16963635Y-25434973D01*
X16848616Y-25262835D01*
X16844642Y-25253242D01*
X16769389Y-25071564D01*
X16729000Y-24868516D01*
X16729000Y-24661484D01*
X16769389Y-24458436D01*
X16848615Y-24267167D01*
X16963635Y-24095027D01*
X17110027Y-23948635D01*
X17282165Y-23833616D01*
X17282167Y-23833615D01*
X17473436Y-23754389D01*
X17676484Y-23714000D01*
X17883516Y-23714000D01*
X18086564Y-23754389D01*
X18086564Y-23754389D01*
G37*
G36*
X49696823Y-23291313D02*
G01*
X49857242Y-23339976D01*
X49989906Y-23410886D01*
X50005078Y-23418996D01*
X50134659Y-23525341D01*
X50241004Y-23654922D01*
X50241005Y-23654924D01*
X50320024Y-23802758D01*
X50368687Y-23963177D01*
X50385117Y-24130000D01*
X50368687Y-24296823D01*
X50320024Y-24457242D01*
X50249114Y-24589906D01*
X50241004Y-24605078D01*
X50134659Y-24734659D01*
X50005078Y-24841004D01*
X50005076Y-24841005D01*
X49857242Y-24920024D01*
X49696823Y-24968687D01*
X49571804Y-24981000D01*
X49488196Y-24981000D01*
X49363177Y-24968687D01*
X49202758Y-24920024D01*
X49054924Y-24841005D01*
X49054922Y-24841004D01*
X48925341Y-24734659D01*
X48818996Y-24605078D01*
X48810886Y-24589906D01*
X48739976Y-24457242D01*
X48691313Y-24296823D01*
X48674883Y-24130000D01*
X48691313Y-23963177D01*
X48739976Y-23802758D01*
X48818995Y-23654924D01*
X48818996Y-23654922D01*
X48925341Y-23525341D01*
X49054922Y-23418996D01*
X49070094Y-23410886D01*
X49202758Y-23339976D01*
X49363177Y-23291313D01*
X49488196Y-23279000D01*
X49571804Y-23279000D01*
X49696823Y-23291313D01*
X49696823Y-23291313D01*
G37*
G36*
X34456823Y-23291313D02*
G01*
X34617242Y-23339976D01*
X34749906Y-23410886D01*
X34765078Y-23418996D01*
X34894659Y-23525341D01*
X35001004Y-23654922D01*
X35001005Y-23654924D01*
X35080024Y-23802758D01*
X35128687Y-23963177D01*
X35145117Y-24130000D01*
X35128687Y-24296823D01*
X35080024Y-24457242D01*
X35009114Y-24589906D01*
X35001004Y-24605078D01*
X34894659Y-24734659D01*
X34765078Y-24841004D01*
X34765076Y-24841005D01*
X34617242Y-24920024D01*
X34456823Y-24968687D01*
X34331804Y-24981000D01*
X34248196Y-24981000D01*
X34123177Y-24968687D01*
X33962758Y-24920024D01*
X33814924Y-24841005D01*
X33814922Y-24841004D01*
X33685341Y-24734659D01*
X33578996Y-24605078D01*
X33570886Y-24589906D01*
X33499976Y-24457242D01*
X33451313Y-24296823D01*
X33434883Y-24130000D01*
X33451313Y-23963177D01*
X33499976Y-23802758D01*
X33578995Y-23654924D01*
X33578996Y-23654922D01*
X33685341Y-23525341D01*
X33814922Y-23418996D01*
X33830094Y-23410886D01*
X33962758Y-23339976D01*
X34123177Y-23291313D01*
X34248196Y-23279000D01*
X34331804Y-23279000D01*
X34456823Y-23291313D01*
X34456823Y-23291313D01*
G37*
G36*
X63102142Y-22713242D02*
G01*
X63250101Y-22774529D01*
X63383255Y-22863499D01*
X63496501Y-22976745D01*
X63585471Y-23109899D01*
X63646758Y-23257858D01*
X63678000Y-23414925D01*
X63678000Y-23575075D01*
X63646758Y-23732142D01*
X63585471Y-23880101D01*
X63496501Y-24013255D01*
X63383255Y-24126501D01*
X63250101Y-24215471D01*
X63102142Y-24276758D01*
X62945075Y-24308000D01*
X62784925Y-24308000D01*
X62627858Y-24276758D01*
X62479899Y-24215471D01*
X62346745Y-24126501D01*
X62233499Y-24013255D01*
X62144529Y-23880101D01*
X62083242Y-23732142D01*
X62052000Y-23575075D01*
X62052000Y-23414925D01*
X62083242Y-23257858D01*
X62144529Y-23109899D01*
X62233499Y-22976745D01*
X62346745Y-22863499D01*
X62479899Y-22774529D01*
X62627858Y-22713242D01*
X62784925Y-22682000D01*
X62945075Y-22682000D01*
X63102142Y-22713242D01*
X63102142Y-22713242D01*
G37*
G36*
X26272142Y-22713242D02*
G01*
X26420101Y-22774529D01*
X26553255Y-22863499D01*
X26666501Y-22976745D01*
X26755471Y-23109899D01*
X26816758Y-23257858D01*
X26848000Y-23414925D01*
X26848000Y-23575075D01*
X26816758Y-23732142D01*
X26755471Y-23880101D01*
X26666501Y-24013255D01*
X26553255Y-24126501D01*
X26420101Y-24215471D01*
X26272142Y-24276758D01*
X26115075Y-24308000D01*
X25954925Y-24308000D01*
X25797858Y-24276758D01*
X25649899Y-24215471D01*
X25516745Y-24126501D01*
X25403499Y-24013255D01*
X25314529Y-23880101D01*
X25253242Y-23732142D01*
X25222000Y-23575075D01*
X25222000Y-23414925D01*
X25253242Y-23257858D01*
X25314529Y-23109899D01*
X25403499Y-22976745D01*
X25516745Y-22863499D01*
X25649899Y-22774529D01*
X25797858Y-22713242D01*
X25954925Y-22682000D01*
X26115075Y-22682000D01*
X26272142Y-22713242D01*
X26272142Y-22713242D01*
G37*
G36*
X31352142Y-22713242D02*
G01*
X31500101Y-22774529D01*
X31633255Y-22863499D01*
X31746501Y-22976745D01*
X31835471Y-23109899D01*
X31896758Y-23257858D01*
X31928000Y-23414925D01*
X31928000Y-23575075D01*
X31896758Y-23732142D01*
X31835471Y-23880101D01*
X31746501Y-24013255D01*
X31633255Y-24126501D01*
X31500101Y-24215471D01*
X31352142Y-24276758D01*
X31195075Y-24308000D01*
X31034925Y-24308000D01*
X30877858Y-24276758D01*
X30729899Y-24215471D01*
X30596745Y-24126501D01*
X30483499Y-24013255D01*
X30394529Y-23880101D01*
X30333242Y-23732142D01*
X30302000Y-23575075D01*
X30302000Y-23414925D01*
X30333242Y-23257858D01*
X30394529Y-23109899D01*
X30483499Y-22976745D01*
X30596745Y-22863499D01*
X30729899Y-22774529D01*
X30877858Y-22713242D01*
X31034925Y-22682000D01*
X31195075Y-22682000D01*
X31352142Y-22713242D01*
X31352142Y-22713242D01*
G37*
G36*
X58022142Y-22713242D02*
G01*
X58170101Y-22774529D01*
X58303255Y-22863499D01*
X58416501Y-22976745D01*
X58505471Y-23109899D01*
X58566758Y-23257858D01*
X58598000Y-23414925D01*
X58598000Y-23575075D01*
X58566758Y-23732142D01*
X58505471Y-23880101D01*
X58416501Y-24013255D01*
X58303255Y-24126501D01*
X58170101Y-24215471D01*
X58022142Y-24276758D01*
X57865075Y-24308000D01*
X57704925Y-24308000D01*
X57547858Y-24276758D01*
X57399899Y-24215471D01*
X57266745Y-24126501D01*
X57153499Y-24013255D01*
X57064529Y-23880101D01*
X57003242Y-23732142D01*
X56972000Y-23575075D01*
X56972000Y-23414925D01*
X57003242Y-23257858D01*
X57064529Y-23109899D01*
X57153499Y-22976745D01*
X57266745Y-22863499D01*
X57399899Y-22774529D01*
X57547858Y-22713242D01*
X57704925Y-22682000D01*
X57865075Y-22682000D01*
X58022142Y-22713242D01*
X58022142Y-22713242D01*
G37*
G36*
X28812142Y-22713242D02*
G01*
X28960101Y-22774529D01*
X29093255Y-22863499D01*
X29206501Y-22976745D01*
X29295471Y-23109899D01*
X29356758Y-23257858D01*
X29388000Y-23414925D01*
X29388000Y-23575075D01*
X29356758Y-23732142D01*
X29295471Y-23880101D01*
X29206501Y-24013255D01*
X29093255Y-24126501D01*
X28960101Y-24215471D01*
X28812142Y-24276758D01*
X28655075Y-24308000D01*
X28494925Y-24308000D01*
X28337858Y-24276758D01*
X28189899Y-24215471D01*
X28056745Y-24126501D01*
X27943499Y-24013255D01*
X27854529Y-23880101D01*
X27793242Y-23732142D01*
X27762000Y-23575075D01*
X27762000Y-23414925D01*
X27793242Y-23257858D01*
X27854529Y-23109899D01*
X27943499Y-22976745D01*
X28056745Y-22863499D01*
X28189899Y-22774529D01*
X28337858Y-22713242D01*
X28494925Y-22682000D01*
X28655075Y-22682000D01*
X28812142Y-22713242D01*
X28812142Y-22713242D01*
G37*
G36*
X52942142Y-22713242D02*
G01*
X53090101Y-22774529D01*
X53223255Y-22863499D01*
X53336501Y-22976745D01*
X53425471Y-23109899D01*
X53486758Y-23257858D01*
X53518000Y-23414925D01*
X53518000Y-23575075D01*
X53486758Y-23732142D01*
X53425471Y-23880101D01*
X53336501Y-24013255D01*
X53223255Y-24126501D01*
X53090101Y-24215471D01*
X52942142Y-24276758D01*
X52785075Y-24308000D01*
X52624925Y-24308000D01*
X52467858Y-24276758D01*
X52319899Y-24215471D01*
X52186745Y-24126501D01*
X52073499Y-24013255D01*
X51984529Y-23880101D01*
X51923242Y-23732142D01*
X51892000Y-23575075D01*
X51892000Y-23414925D01*
X51923242Y-23257858D01*
X51984529Y-23109899D01*
X52073499Y-22976745D01*
X52186745Y-22863499D01*
X52319899Y-22774529D01*
X52467858Y-22713242D01*
X52624925Y-22682000D01*
X52785075Y-22682000D01*
X52942142Y-22713242D01*
X52942142Y-22713242D01*
G37*
G36*
X60562142Y-22713242D02*
G01*
X60710101Y-22774529D01*
X60843255Y-22863499D01*
X60956501Y-22976745D01*
X61045471Y-23109899D01*
X61106758Y-23257858D01*
X61138000Y-23414925D01*
X61138000Y-23575075D01*
X61106758Y-23732142D01*
X61045471Y-23880101D01*
X60956501Y-24013255D01*
X60843255Y-24126501D01*
X60710101Y-24215471D01*
X60562142Y-24276758D01*
X60405075Y-24308000D01*
X60244925Y-24308000D01*
X60087858Y-24276758D01*
X59939899Y-24215471D01*
X59806745Y-24126501D01*
X59693499Y-24013255D01*
X59604529Y-23880101D01*
X59543242Y-23732142D01*
X59512000Y-23575075D01*
X59512000Y-23414925D01*
X59543242Y-23257858D01*
X59604529Y-23109899D01*
X59693499Y-22976745D01*
X59806745Y-22863499D01*
X59939899Y-22774529D01*
X60087858Y-22713242D01*
X60244925Y-22682000D01*
X60405075Y-22682000D01*
X60562142Y-22713242D01*
X60562142Y-22713242D01*
G37*
G36*
X23732142Y-22713242D02*
G01*
X23880101Y-22774529D01*
X24013255Y-22863499D01*
X24126501Y-22976745D01*
X24215471Y-23109899D01*
X24276758Y-23257858D01*
X24308000Y-23414925D01*
X24308000Y-23575075D01*
X24276758Y-23732142D01*
X24215471Y-23880101D01*
X24126501Y-24013255D01*
X24013255Y-24126501D01*
X23880101Y-24215471D01*
X23732142Y-24276758D01*
X23575075Y-24308000D01*
X23414925Y-24308000D01*
X23257858Y-24276758D01*
X23109899Y-24215471D01*
X22976745Y-24126501D01*
X22863499Y-24013255D01*
X22774529Y-23880101D01*
X22713242Y-23732142D01*
X22682000Y-23575075D01*
X22682000Y-23414925D01*
X22713242Y-23257858D01*
X22774529Y-23109899D01*
X22863499Y-22976745D01*
X22976745Y-22863499D01*
X23109899Y-22774529D01*
X23257858Y-22713242D01*
X23414925Y-22682000D01*
X23575075Y-22682000D01*
X23732142Y-22713242D01*
X23732142Y-22713242D01*
G37*
G36*
X21192142Y-22713242D02*
G01*
X21340101Y-22774529D01*
X21473255Y-22863499D01*
X21586501Y-22976745D01*
X21675471Y-23109899D01*
X21736758Y-23257858D01*
X21768000Y-23414925D01*
X21768000Y-23575075D01*
X21736758Y-23732142D01*
X21675471Y-23880101D01*
X21586501Y-24013255D01*
X21473255Y-24126501D01*
X21340101Y-24215471D01*
X21192142Y-24276758D01*
X21035075Y-24308000D01*
X20874925Y-24308000D01*
X20717858Y-24276758D01*
X20569899Y-24215471D01*
X20436745Y-24126501D01*
X20323499Y-24013255D01*
X20234529Y-23880101D01*
X20173242Y-23732142D01*
X20142000Y-23575075D01*
X20142000Y-23414925D01*
X20173242Y-23257858D01*
X20234529Y-23109899D01*
X20323499Y-22976745D01*
X20436745Y-22863499D01*
X20569899Y-22774529D01*
X20717858Y-22713242D01*
X20874925Y-22682000D01*
X21035075Y-22682000D01*
X21192142Y-22713242D01*
X21192142Y-22713242D01*
G37*
G36*
X55482142Y-22713242D02*
G01*
X55630101Y-22774529D01*
X55763255Y-22863499D01*
X55876501Y-22976745D01*
X55965471Y-23109899D01*
X56026758Y-23257858D01*
X56058000Y-23414925D01*
X56058000Y-23575075D01*
X56026758Y-23732142D01*
X55965471Y-23880101D01*
X55876501Y-24013255D01*
X55763255Y-24126501D01*
X55630101Y-24215471D01*
X55482142Y-24276758D01*
X55325075Y-24308000D01*
X55164925Y-24308000D01*
X55007858Y-24276758D01*
X54859899Y-24215471D01*
X54726745Y-24126501D01*
X54613499Y-24013255D01*
X54524529Y-23880101D01*
X54463242Y-23732142D01*
X54432000Y-23575075D01*
X54432000Y-23414925D01*
X54463242Y-23257858D01*
X54524529Y-23109899D01*
X54613499Y-22976745D01*
X54726745Y-22863499D01*
X54859899Y-22774529D01*
X55007858Y-22713242D01*
X55164925Y-22682000D01*
X55325075Y-22682000D01*
X55482142Y-22713242D01*
X55482142Y-22713242D01*
G37*
G36*
X49696823Y-20751313D02*
G01*
X49857242Y-20799976D01*
X49989906Y-20870886D01*
X50005078Y-20878996D01*
X50134659Y-20985341D01*
X50241004Y-21114922D01*
X50241005Y-21114924D01*
X50320024Y-21262758D01*
X50368687Y-21423177D01*
X50385117Y-21590000D01*
X50368687Y-21756823D01*
X50320024Y-21917242D01*
X50249114Y-22049906D01*
X50241004Y-22065078D01*
X50134659Y-22194659D01*
X50005078Y-22301004D01*
X50005076Y-22301005D01*
X49857242Y-22380024D01*
X49696823Y-22428687D01*
X49571804Y-22441000D01*
X49488196Y-22441000D01*
X49363177Y-22428687D01*
X49202758Y-22380024D01*
X49054924Y-22301005D01*
X49054922Y-22301004D01*
X48925341Y-22194659D01*
X48818996Y-22065078D01*
X48810886Y-22049906D01*
X48739976Y-21917242D01*
X48691313Y-21756823D01*
X48674883Y-21590000D01*
X48691313Y-21423177D01*
X48739976Y-21262758D01*
X48818995Y-21114924D01*
X48818996Y-21114922D01*
X48925341Y-20985341D01*
X49054922Y-20878996D01*
X49070094Y-20870886D01*
X49202758Y-20799976D01*
X49363177Y-20751313D01*
X49488196Y-20739000D01*
X49571804Y-20739000D01*
X49696823Y-20751313D01*
X49696823Y-20751313D01*
G37*
G36*
X34456823Y-20751313D02*
G01*
X34617242Y-20799976D01*
X34749906Y-20870886D01*
X34765078Y-20878996D01*
X34894659Y-20985341D01*
X35001004Y-21114922D01*
X35001005Y-21114924D01*
X35080024Y-21262758D01*
X35128687Y-21423177D01*
X35145117Y-21590000D01*
X35128687Y-21756823D01*
X35080024Y-21917242D01*
X35009114Y-22049906D01*
X35001004Y-22065078D01*
X34894659Y-22194659D01*
X34765078Y-22301004D01*
X34765076Y-22301005D01*
X34617242Y-22380024D01*
X34456823Y-22428687D01*
X34331804Y-22441000D01*
X34248196Y-22441000D01*
X34123177Y-22428687D01*
X33962758Y-22380024D01*
X33814924Y-22301005D01*
X33814922Y-22301004D01*
X33685341Y-22194659D01*
X33578996Y-22065078D01*
X33570886Y-22049906D01*
X33499976Y-21917242D01*
X33451313Y-21756823D01*
X33434883Y-21590000D01*
X33451313Y-21423177D01*
X33499976Y-21262758D01*
X33578995Y-21114924D01*
X33578996Y-21114922D01*
X33685341Y-20985341D01*
X33814922Y-20878996D01*
X33830094Y-20870886D01*
X33962758Y-20799976D01*
X34123177Y-20751313D01*
X34248196Y-20739000D01*
X34331804Y-20739000D01*
X34456823Y-20751313D01*
X34456823Y-20751313D01*
G37*
G36*
X28735942Y-20173242D02*
G01*
X28883901Y-20234529D01*
X29017055Y-20323499D01*
X29130301Y-20436745D01*
X29219271Y-20569899D01*
X29280558Y-20717858D01*
X29311800Y-20874925D01*
X29311800Y-21035075D01*
X29280558Y-21192142D01*
X29219271Y-21340101D01*
X29130301Y-21473255D01*
X29017055Y-21586501D01*
X28883901Y-21675471D01*
X28735942Y-21736758D01*
X28578875Y-21768000D01*
X28418725Y-21768000D01*
X28261658Y-21736758D01*
X28113699Y-21675471D01*
X27980545Y-21586501D01*
X27867299Y-21473255D01*
X27778329Y-21340101D01*
X27717042Y-21192142D01*
X27685800Y-21035075D01*
X27685800Y-20874925D01*
X27717042Y-20717858D01*
X27778329Y-20569899D01*
X27867299Y-20436745D01*
X27980545Y-20323499D01*
X28113699Y-20234529D01*
X28261658Y-20173242D01*
X28418725Y-20142000D01*
X28578875Y-20142000D01*
X28735942Y-20173242D01*
X28735942Y-20173242D01*
G37*
G36*
X63025942Y-20173242D02*
G01*
X63173901Y-20234529D01*
X63307055Y-20323499D01*
X63420301Y-20436745D01*
X63509271Y-20569899D01*
X63570558Y-20717858D01*
X63601800Y-20874925D01*
X63601800Y-21035075D01*
X63570558Y-21192142D01*
X63509271Y-21340101D01*
X63420301Y-21473255D01*
X63307055Y-21586501D01*
X63173901Y-21675471D01*
X63025942Y-21736758D01*
X62868875Y-21768000D01*
X62708725Y-21768000D01*
X62551658Y-21736758D01*
X62403699Y-21675471D01*
X62270545Y-21586501D01*
X62157299Y-21473255D01*
X62068329Y-21340101D01*
X62007042Y-21192142D01*
X61975800Y-21035075D01*
X61975800Y-20874925D01*
X62007042Y-20717858D01*
X62068329Y-20569899D01*
X62157299Y-20436745D01*
X62270545Y-20323499D01*
X62403699Y-20234529D01*
X62551658Y-20173242D01*
X62708725Y-20142000D01*
X62868875Y-20142000D01*
X63025942Y-20173242D01*
X63025942Y-20173242D01*
G37*
G36*
X57945942Y-20173242D02*
G01*
X58093901Y-20234529D01*
X58227055Y-20323499D01*
X58340301Y-20436745D01*
X58429271Y-20569899D01*
X58490558Y-20717858D01*
X58521800Y-20874925D01*
X58521800Y-21035075D01*
X58490558Y-21192142D01*
X58429271Y-21340101D01*
X58340301Y-21473255D01*
X58227055Y-21586501D01*
X58093901Y-21675471D01*
X57945942Y-21736758D01*
X57788875Y-21768000D01*
X57628725Y-21768000D01*
X57471658Y-21736758D01*
X57323699Y-21675471D01*
X57190545Y-21586501D01*
X57077299Y-21473255D01*
X56988329Y-21340101D01*
X56927042Y-21192142D01*
X56895800Y-21035075D01*
X56895800Y-20874925D01*
X56927042Y-20717858D01*
X56988329Y-20569899D01*
X57077299Y-20436745D01*
X57190545Y-20323499D01*
X57323699Y-20234529D01*
X57471658Y-20173242D01*
X57628725Y-20142000D01*
X57788875Y-20142000D01*
X57945942Y-20173242D01*
X57945942Y-20173242D01*
G37*
G36*
X55405942Y-20173242D02*
G01*
X55553901Y-20234529D01*
X55687055Y-20323499D01*
X55800301Y-20436745D01*
X55889271Y-20569899D01*
X55950558Y-20717858D01*
X55981800Y-20874925D01*
X55981800Y-21035075D01*
X55950558Y-21192142D01*
X55889271Y-21340101D01*
X55800301Y-21473255D01*
X55687055Y-21586501D01*
X55553901Y-21675471D01*
X55405942Y-21736758D01*
X55248875Y-21768000D01*
X55088725Y-21768000D01*
X54931658Y-21736758D01*
X54783699Y-21675471D01*
X54650545Y-21586501D01*
X54537299Y-21473255D01*
X54448329Y-21340101D01*
X54387042Y-21192142D01*
X54355800Y-21035075D01*
X54355800Y-20874925D01*
X54387042Y-20717858D01*
X54448329Y-20569899D01*
X54537299Y-20436745D01*
X54650545Y-20323499D01*
X54783699Y-20234529D01*
X54931658Y-20173242D01*
X55088725Y-20142000D01*
X55248875Y-20142000D01*
X55405942Y-20173242D01*
X55405942Y-20173242D01*
G37*
G36*
X53018342Y-20173242D02*
G01*
X53166301Y-20234529D01*
X53299455Y-20323499D01*
X53412701Y-20436745D01*
X53501671Y-20569899D01*
X53562958Y-20717858D01*
X53594200Y-20874925D01*
X53594200Y-21035075D01*
X53562958Y-21192142D01*
X53501671Y-21340101D01*
X53412701Y-21473255D01*
X53299455Y-21586501D01*
X53166301Y-21675471D01*
X53018342Y-21736758D01*
X52861275Y-21768000D01*
X52701125Y-21768000D01*
X52544058Y-21736758D01*
X52396099Y-21675471D01*
X52262945Y-21586501D01*
X52149699Y-21473255D01*
X52060729Y-21340101D01*
X51999442Y-21192142D01*
X51968200Y-21035075D01*
X51968200Y-20874925D01*
X51999442Y-20717858D01*
X52060729Y-20569899D01*
X52149699Y-20436745D01*
X52262945Y-20323499D01*
X52396099Y-20234529D01*
X52544058Y-20173242D01*
X52701125Y-20142000D01*
X52861275Y-20142000D01*
X53018342Y-20173242D01*
X53018342Y-20173242D01*
G37*
G36*
X23655942Y-20173242D02*
G01*
X23803901Y-20234529D01*
X23937055Y-20323499D01*
X24050301Y-20436745D01*
X24139271Y-20569899D01*
X24200558Y-20717858D01*
X24231800Y-20874925D01*
X24231800Y-21035075D01*
X24200558Y-21192142D01*
X24139271Y-21340101D01*
X24050301Y-21473255D01*
X23937055Y-21586501D01*
X23803901Y-21675471D01*
X23655942Y-21736758D01*
X23498875Y-21768000D01*
X23338725Y-21768000D01*
X23181658Y-21736758D01*
X23033699Y-21675471D01*
X22900545Y-21586501D01*
X22787299Y-21473255D01*
X22698329Y-21340101D01*
X22637042Y-21192142D01*
X22605800Y-21035075D01*
X22605800Y-20874925D01*
X22637042Y-20717858D01*
X22698329Y-20569899D01*
X22787299Y-20436745D01*
X22900545Y-20323499D01*
X23033699Y-20234529D01*
X23181658Y-20173242D01*
X23338725Y-20142000D01*
X23498875Y-20142000D01*
X23655942Y-20173242D01*
X23655942Y-20173242D01*
G37*
G36*
X31275942Y-20173242D02*
G01*
X31423901Y-20234529D01*
X31557055Y-20323499D01*
X31670301Y-20436745D01*
X31759271Y-20569899D01*
X31820558Y-20717858D01*
X31851800Y-20874925D01*
X31851800Y-21035075D01*
X31820558Y-21192142D01*
X31759271Y-21340101D01*
X31670301Y-21473255D01*
X31557055Y-21586501D01*
X31423901Y-21675471D01*
X31275942Y-21736758D01*
X31118875Y-21768000D01*
X30958725Y-21768000D01*
X30801658Y-21736758D01*
X30653699Y-21675471D01*
X30520545Y-21586501D01*
X30407299Y-21473255D01*
X30318329Y-21340101D01*
X30257042Y-21192142D01*
X30225800Y-21035075D01*
X30225800Y-20874925D01*
X30257042Y-20717858D01*
X30318329Y-20569899D01*
X30407299Y-20436745D01*
X30520545Y-20323499D01*
X30653699Y-20234529D01*
X30801658Y-20173242D01*
X30958725Y-20142000D01*
X31118875Y-20142000D01*
X31275942Y-20173242D01*
X31275942Y-20173242D01*
G37*
G36*
X26195942Y-20173242D02*
G01*
X26343901Y-20234529D01*
X26477055Y-20323499D01*
X26590301Y-20436745D01*
X26679271Y-20569899D01*
X26740558Y-20717858D01*
X26771800Y-20874925D01*
X26771800Y-21035075D01*
X26740558Y-21192142D01*
X26679271Y-21340101D01*
X26590301Y-21473255D01*
X26477055Y-21586501D01*
X26343901Y-21675471D01*
X26195942Y-21736758D01*
X26038875Y-21768000D01*
X25878725Y-21768000D01*
X25721658Y-21736758D01*
X25573699Y-21675471D01*
X25440545Y-21586501D01*
X25327299Y-21473255D01*
X25238329Y-21340101D01*
X25177042Y-21192142D01*
X25145800Y-21035075D01*
X25145800Y-20874925D01*
X25177042Y-20717858D01*
X25238329Y-20569899D01*
X25327299Y-20436745D01*
X25440545Y-20323499D01*
X25573699Y-20234529D01*
X25721658Y-20173242D01*
X25878725Y-20142000D01*
X26038875Y-20142000D01*
X26195942Y-20173242D01*
X26195942Y-20173242D01*
G37*
G36*
X21115942Y-20173242D02*
G01*
X21263901Y-20234529D01*
X21397055Y-20323499D01*
X21510301Y-20436745D01*
X21599271Y-20569899D01*
X21660558Y-20717858D01*
X21691800Y-20874925D01*
X21691800Y-21035075D01*
X21660558Y-21192142D01*
X21599271Y-21340101D01*
X21510301Y-21473255D01*
X21397055Y-21586501D01*
X21263901Y-21675471D01*
X21115942Y-21736758D01*
X20958875Y-21768000D01*
X20798725Y-21768000D01*
X20641658Y-21736758D01*
X20493699Y-21675471D01*
X20360545Y-21586501D01*
X20247299Y-21473255D01*
X20158329Y-21340101D01*
X20097042Y-21192142D01*
X20065800Y-21035075D01*
X20065800Y-20874925D01*
X20097042Y-20717858D01*
X20158329Y-20569899D01*
X20247299Y-20436745D01*
X20360545Y-20323499D01*
X20493699Y-20234529D01*
X20641658Y-20173242D01*
X20798725Y-20142000D01*
X20958875Y-20142000D01*
X21115942Y-20173242D01*
X21115942Y-20173242D01*
G37*
G36*
X60485942Y-20173242D02*
G01*
X60633901Y-20234529D01*
X60767055Y-20323499D01*
X60880301Y-20436745D01*
X60969271Y-20569899D01*
X61030558Y-20717858D01*
X61061800Y-20874925D01*
X61061800Y-21035075D01*
X61030558Y-21192142D01*
X60969271Y-21340101D01*
X60880301Y-21473255D01*
X60767055Y-21586501D01*
X60633901Y-21675471D01*
X60485942Y-21736758D01*
X60328875Y-21768000D01*
X60168725Y-21768000D01*
X60011658Y-21736758D01*
X59863699Y-21675471D01*
X59730545Y-21586501D01*
X59617299Y-21473255D01*
X59528329Y-21340101D01*
X59467042Y-21192142D01*
X59435800Y-21035075D01*
X59435800Y-20874925D01*
X59467042Y-20717858D01*
X59528329Y-20569899D01*
X59617299Y-20436745D01*
X59730545Y-20323499D01*
X59863699Y-20234529D01*
X60011658Y-20173242D01*
X60168725Y-20142000D01*
X60328875Y-20142000D01*
X60485942Y-20173242D01*
X60485942Y-20173242D01*
G37*
G36*
X18086564Y-18674389D02*
G01*
X18277833Y-18753615D01*
X18277835Y-18753616D01*
X18449973Y-18868635D01*
X18596365Y-19015027D01*
X18711385Y-19187167D01*
X18790611Y-19378436D01*
X18831000Y-19581484D01*
X18831000Y-19788516D01*
X18790611Y-19991564D01*
X18715358Y-20173242D01*
X18711384Y-20182835D01*
X18596365Y-20354973D01*
X18449973Y-20501365D01*
X18277835Y-20616384D01*
X18277834Y-20616385D01*
X18277833Y-20616385D01*
X18086564Y-20695611D01*
X17883516Y-20736000D01*
X17676484Y-20736000D01*
X17473436Y-20695611D01*
X17282167Y-20616385D01*
X17282166Y-20616385D01*
X17282165Y-20616384D01*
X17110027Y-20501365D01*
X16963635Y-20354973D01*
X16848616Y-20182835D01*
X16844642Y-20173242D01*
X16769389Y-19991564D01*
X16729000Y-19788516D01*
X16729000Y-19581484D01*
X16769389Y-19378436D01*
X16848615Y-19187167D01*
X16963635Y-19015027D01*
X17110027Y-18868635D01*
X17282165Y-18753616D01*
X17282167Y-18753615D01*
X17473436Y-18674389D01*
X17676484Y-18634000D01*
X17883516Y-18634000D01*
X18086564Y-18674389D01*
X18086564Y-18674389D01*
G37*
G36*
X66346564Y-18674389D02*
G01*
X66537833Y-18753615D01*
X66537835Y-18753616D01*
X66709973Y-18868635D01*
X66856365Y-19015027D01*
X66971385Y-19187167D01*
X67050611Y-19378436D01*
X67091000Y-19581484D01*
X67091000Y-19788516D01*
X67050611Y-19991564D01*
X66975358Y-20173242D01*
X66971384Y-20182835D01*
X66856365Y-20354973D01*
X66709973Y-20501365D01*
X66537835Y-20616384D01*
X66537834Y-20616385D01*
X66537833Y-20616385D01*
X66346564Y-20695611D01*
X66143516Y-20736000D01*
X65936484Y-20736000D01*
X65733436Y-20695611D01*
X65542167Y-20616385D01*
X65542166Y-20616385D01*
X65542165Y-20616384D01*
X65370027Y-20501365D01*
X65223635Y-20354973D01*
X65108616Y-20182835D01*
X65104642Y-20173242D01*
X65029389Y-19991564D01*
X64989000Y-19788516D01*
X64989000Y-19581484D01*
X65029389Y-19378436D01*
X65108615Y-19187167D01*
X65223635Y-19015027D01*
X65370027Y-18868635D01*
X65542165Y-18753616D01*
X65542167Y-18753615D01*
X65733436Y-18674389D01*
X65936484Y-18634000D01*
X66143516Y-18634000D01*
X66346564Y-18674389D01*
X66346564Y-18674389D01*
G37*
G36*
X34456823Y-18211313D02*
G01*
X34617242Y-18259976D01*
X34749906Y-18330886D01*
X34765078Y-18338996D01*
X34894659Y-18445341D01*
X35001004Y-18574922D01*
X35001005Y-18574924D01*
X35080024Y-18722758D01*
X35128687Y-18883177D01*
X35145117Y-19050000D01*
X35128687Y-19216823D01*
X35080024Y-19377242D01*
X35009114Y-19509906D01*
X35001004Y-19525078D01*
X34894659Y-19654659D01*
X34765078Y-19761004D01*
X34765076Y-19761005D01*
X34617242Y-19840024D01*
X34456823Y-19888687D01*
X34331804Y-19901000D01*
X34248196Y-19901000D01*
X34123177Y-19888687D01*
X33962758Y-19840024D01*
X33814924Y-19761005D01*
X33814922Y-19761004D01*
X33685341Y-19654659D01*
X33578996Y-19525078D01*
X33570886Y-19509906D01*
X33499976Y-19377242D01*
X33451313Y-19216823D01*
X33434883Y-19050000D01*
X33451313Y-18883177D01*
X33499976Y-18722758D01*
X33578995Y-18574924D01*
X33578996Y-18574922D01*
X33685341Y-18445341D01*
X33814922Y-18338996D01*
X33830094Y-18330886D01*
X33962758Y-18259976D01*
X34123177Y-18211313D01*
X34248196Y-18199000D01*
X34331804Y-18199000D01*
X34456823Y-18211313D01*
X34456823Y-18211313D01*
G37*
G36*
X49696823Y-18211313D02*
G01*
X49857242Y-18259976D01*
X49989906Y-18330886D01*
X50005078Y-18338996D01*
X50134659Y-18445341D01*
X50241004Y-18574922D01*
X50241005Y-18574924D01*
X50320024Y-18722758D01*
X50368687Y-18883177D01*
X50385117Y-19050000D01*
X50368687Y-19216823D01*
X50320024Y-19377242D01*
X50249114Y-19509906D01*
X50241004Y-19525078D01*
X50134659Y-19654659D01*
X50005078Y-19761004D01*
X50005076Y-19761005D01*
X49857242Y-19840024D01*
X49696823Y-19888687D01*
X49571804Y-19901000D01*
X49488196Y-19901000D01*
X49363177Y-19888687D01*
X49202758Y-19840024D01*
X49054924Y-19761005D01*
X49054922Y-19761004D01*
X48925341Y-19654659D01*
X48818996Y-19525078D01*
X48810886Y-19509906D01*
X48739976Y-19377242D01*
X48691313Y-19216823D01*
X48674883Y-19050000D01*
X48691313Y-18883177D01*
X48739976Y-18722758D01*
X48818995Y-18574924D01*
X48818996Y-18574922D01*
X48925341Y-18445341D01*
X49054922Y-18338996D01*
X49070094Y-18330886D01*
X49202758Y-18259976D01*
X49363177Y-18211313D01*
X49488196Y-18199000D01*
X49571804Y-18199000D01*
X49696823Y-18211313D01*
X49696823Y-18211313D01*
G37*
G36*
X26272142Y-17633242D02*
G01*
X26420101Y-17694529D01*
X26553255Y-17783499D01*
X26666501Y-17896745D01*
X26755471Y-18029899D01*
X26816758Y-18177858D01*
X26848000Y-18334925D01*
X26848000Y-18495075D01*
X26816758Y-18652142D01*
X26755471Y-18800101D01*
X26666501Y-18933255D01*
X26553255Y-19046501D01*
X26420101Y-19135471D01*
X26272142Y-19196758D01*
X26115075Y-19228000D01*
X25954925Y-19228000D01*
X25797858Y-19196758D01*
X25649899Y-19135471D01*
X25516745Y-19046501D01*
X25403499Y-18933255D01*
X25314529Y-18800101D01*
X25253242Y-18652142D01*
X25222000Y-18495075D01*
X25222000Y-18334925D01*
X25253242Y-18177858D01*
X25314529Y-18029899D01*
X25403499Y-17896745D01*
X25516745Y-17783499D01*
X25649899Y-17694529D01*
X25797858Y-17633242D01*
X25954925Y-17602000D01*
X26115075Y-17602000D01*
X26272142Y-17633242D01*
X26272142Y-17633242D01*
G37*
G36*
X52942142Y-17633242D02*
G01*
X53090101Y-17694529D01*
X53223255Y-17783499D01*
X53336501Y-17896745D01*
X53425471Y-18029899D01*
X53486758Y-18177858D01*
X53518000Y-18334925D01*
X53518000Y-18495075D01*
X53486758Y-18652142D01*
X53425471Y-18800101D01*
X53336501Y-18933255D01*
X53223255Y-19046501D01*
X53090101Y-19135471D01*
X52942142Y-19196758D01*
X52785075Y-19228000D01*
X52624925Y-19228000D01*
X52467858Y-19196758D01*
X52319899Y-19135471D01*
X52186745Y-19046501D01*
X52073499Y-18933255D01*
X51984529Y-18800101D01*
X51923242Y-18652142D01*
X51892000Y-18495075D01*
X51892000Y-18334925D01*
X51923242Y-18177858D01*
X51984529Y-18029899D01*
X52073499Y-17896745D01*
X52186745Y-17783499D01*
X52319899Y-17694529D01*
X52467858Y-17633242D01*
X52624925Y-17602000D01*
X52785075Y-17602000D01*
X52942142Y-17633242D01*
X52942142Y-17633242D01*
G37*
G36*
X63102142Y-17633242D02*
G01*
X63250101Y-17694529D01*
X63383255Y-17783499D01*
X63496501Y-17896745D01*
X63585471Y-18029899D01*
X63646758Y-18177858D01*
X63678000Y-18334925D01*
X63678000Y-18495075D01*
X63646758Y-18652142D01*
X63585471Y-18800101D01*
X63496501Y-18933255D01*
X63383255Y-19046501D01*
X63250101Y-19135471D01*
X63102142Y-19196758D01*
X62945075Y-19228000D01*
X62784925Y-19228000D01*
X62627858Y-19196758D01*
X62479899Y-19135471D01*
X62346745Y-19046501D01*
X62233499Y-18933255D01*
X62144529Y-18800101D01*
X62083242Y-18652142D01*
X62052000Y-18495075D01*
X62052000Y-18334925D01*
X62083242Y-18177858D01*
X62144529Y-18029899D01*
X62233499Y-17896745D01*
X62346745Y-17783499D01*
X62479899Y-17694529D01*
X62627858Y-17633242D01*
X62784925Y-17602000D01*
X62945075Y-17602000D01*
X63102142Y-17633242D01*
X63102142Y-17633242D01*
G37*
G36*
X60562142Y-17633242D02*
G01*
X60710101Y-17694529D01*
X60843255Y-17783499D01*
X60956501Y-17896745D01*
X61045471Y-18029899D01*
X61106758Y-18177858D01*
X61138000Y-18334925D01*
X61138000Y-18495075D01*
X61106758Y-18652142D01*
X61045471Y-18800101D01*
X60956501Y-18933255D01*
X60843255Y-19046501D01*
X60710101Y-19135471D01*
X60562142Y-19196758D01*
X60405075Y-19228000D01*
X60244925Y-19228000D01*
X60087858Y-19196758D01*
X59939899Y-19135471D01*
X59806745Y-19046501D01*
X59693499Y-18933255D01*
X59604529Y-18800101D01*
X59543242Y-18652142D01*
X59512000Y-18495075D01*
X59512000Y-18334925D01*
X59543242Y-18177858D01*
X59604529Y-18029899D01*
X59693499Y-17896745D01*
X59806745Y-17783499D01*
X59939899Y-17694529D01*
X60087858Y-17633242D01*
X60244925Y-17602000D01*
X60405075Y-17602000D01*
X60562142Y-17633242D01*
X60562142Y-17633242D01*
G37*
G36*
X55482142Y-17633242D02*
G01*
X55630101Y-17694529D01*
X55763255Y-17783499D01*
X55876501Y-17896745D01*
X55965471Y-18029899D01*
X56026758Y-18177858D01*
X56058000Y-18334925D01*
X56058000Y-18495075D01*
X56026758Y-18652142D01*
X55965471Y-18800101D01*
X55876501Y-18933255D01*
X55763255Y-19046501D01*
X55630101Y-19135471D01*
X55482142Y-19196758D01*
X55325075Y-19228000D01*
X55164925Y-19228000D01*
X55007858Y-19196758D01*
X54859899Y-19135471D01*
X54726745Y-19046501D01*
X54613499Y-18933255D01*
X54524529Y-18800101D01*
X54463242Y-18652142D01*
X54432000Y-18495075D01*
X54432000Y-18334925D01*
X54463242Y-18177858D01*
X54524529Y-18029899D01*
X54613499Y-17896745D01*
X54726745Y-17783499D01*
X54859899Y-17694529D01*
X55007858Y-17633242D01*
X55164925Y-17602000D01*
X55325075Y-17602000D01*
X55482142Y-17633242D01*
X55482142Y-17633242D01*
G37*
G36*
X23732142Y-17633242D02*
G01*
X23880101Y-17694529D01*
X24013255Y-17783499D01*
X24126501Y-17896745D01*
X24215471Y-18029899D01*
X24276758Y-18177858D01*
X24308000Y-18334925D01*
X24308000Y-18495075D01*
X24276758Y-18652142D01*
X24215471Y-18800101D01*
X24126501Y-18933255D01*
X24013255Y-19046501D01*
X23880101Y-19135471D01*
X23732142Y-19196758D01*
X23575075Y-19228000D01*
X23414925Y-19228000D01*
X23257858Y-19196758D01*
X23109899Y-19135471D01*
X22976745Y-19046501D01*
X22863499Y-18933255D01*
X22774529Y-18800101D01*
X22713242Y-18652142D01*
X22682000Y-18495075D01*
X22682000Y-18334925D01*
X22713242Y-18177858D01*
X22774529Y-18029899D01*
X22863499Y-17896745D01*
X22976745Y-17783499D01*
X23109899Y-17694529D01*
X23257858Y-17633242D01*
X23414925Y-17602000D01*
X23575075Y-17602000D01*
X23732142Y-17633242D01*
X23732142Y-17633242D01*
G37*
G36*
X21192142Y-17633242D02*
G01*
X21340101Y-17694529D01*
X21473255Y-17783499D01*
X21586501Y-17896745D01*
X21675471Y-18029899D01*
X21736758Y-18177858D01*
X21768000Y-18334925D01*
X21768000Y-18495075D01*
X21736758Y-18652142D01*
X21675471Y-18800101D01*
X21586501Y-18933255D01*
X21473255Y-19046501D01*
X21340101Y-19135471D01*
X21192142Y-19196758D01*
X21035075Y-19228000D01*
X20874925Y-19228000D01*
X20717858Y-19196758D01*
X20569899Y-19135471D01*
X20436745Y-19046501D01*
X20323499Y-18933255D01*
X20234529Y-18800101D01*
X20173242Y-18652142D01*
X20142000Y-18495075D01*
X20142000Y-18334925D01*
X20173242Y-18177858D01*
X20234529Y-18029899D01*
X20323499Y-17896745D01*
X20436745Y-17783499D01*
X20569899Y-17694529D01*
X20717858Y-17633242D01*
X20874925Y-17602000D01*
X21035075Y-17602000D01*
X21192142Y-17633242D01*
X21192142Y-17633242D01*
G37*
G36*
X28812142Y-17633242D02*
G01*
X28960101Y-17694529D01*
X29093255Y-17783499D01*
X29206501Y-17896745D01*
X29295471Y-18029899D01*
X29356758Y-18177858D01*
X29388000Y-18334925D01*
X29388000Y-18495075D01*
X29356758Y-18652142D01*
X29295471Y-18800101D01*
X29206501Y-18933255D01*
X29093255Y-19046501D01*
X28960101Y-19135471D01*
X28812142Y-19196758D01*
X28655075Y-19228000D01*
X28494925Y-19228000D01*
X28337858Y-19196758D01*
X28189899Y-19135471D01*
X28056745Y-19046501D01*
X27943499Y-18933255D01*
X27854529Y-18800101D01*
X27793242Y-18652142D01*
X27762000Y-18495075D01*
X27762000Y-18334925D01*
X27793242Y-18177858D01*
X27854529Y-18029899D01*
X27943499Y-17896745D01*
X28056745Y-17783499D01*
X28189899Y-17694529D01*
X28337858Y-17633242D01*
X28494925Y-17602000D01*
X28655075Y-17602000D01*
X28812142Y-17633242D01*
X28812142Y-17633242D01*
G37*
G36*
X58022142Y-17633242D02*
G01*
X58170101Y-17694529D01*
X58303255Y-17783499D01*
X58416501Y-17896745D01*
X58505471Y-18029899D01*
X58566758Y-18177858D01*
X58598000Y-18334925D01*
X58598000Y-18495075D01*
X58566758Y-18652142D01*
X58505471Y-18800101D01*
X58416501Y-18933255D01*
X58303255Y-19046501D01*
X58170101Y-19135471D01*
X58022142Y-19196758D01*
X57865075Y-19228000D01*
X57704925Y-19228000D01*
X57547858Y-19196758D01*
X57399899Y-19135471D01*
X57266745Y-19046501D01*
X57153499Y-18933255D01*
X57064529Y-18800101D01*
X57003242Y-18652142D01*
X56972000Y-18495075D01*
X56972000Y-18334925D01*
X57003242Y-18177858D01*
X57064529Y-18029899D01*
X57153499Y-17896745D01*
X57266745Y-17783499D01*
X57399899Y-17694529D01*
X57547858Y-17633242D01*
X57704925Y-17602000D01*
X57865075Y-17602000D01*
X58022142Y-17633242D01*
X58022142Y-17633242D01*
G37*
G36*
X31352142Y-17633242D02*
G01*
X31500101Y-17694529D01*
X31633255Y-17783499D01*
X31746501Y-17896745D01*
X31835471Y-18029899D01*
X31896758Y-18177858D01*
X31928000Y-18334925D01*
X31928000Y-18495075D01*
X31896758Y-18652142D01*
X31835471Y-18800101D01*
X31746501Y-18933255D01*
X31633255Y-19046501D01*
X31500101Y-19135471D01*
X31352142Y-19196758D01*
X31195075Y-19228000D01*
X31034925Y-19228000D01*
X30877858Y-19196758D01*
X30729899Y-19135471D01*
X30596745Y-19046501D01*
X30483499Y-18933255D01*
X30394529Y-18800101D01*
X30333242Y-18652142D01*
X30302000Y-18495075D01*
X30302000Y-18334925D01*
X30333242Y-18177858D01*
X30394529Y-18029899D01*
X30483499Y-17896745D01*
X30596745Y-17783499D01*
X30729899Y-17694529D01*
X30877858Y-17633242D01*
X31034925Y-17602000D01*
X31195075Y-17602000D01*
X31352142Y-17633242D01*
X31352142Y-17633242D01*
G37*
G36*
X35141000Y-17361000D02*
G01*
X33439000Y-17361000D01*
X33439000Y-15659000D01*
X35141000Y-15659000D01*
X35141000Y-17361000D01*
X35141000Y-17361000D01*
G37*
G36*
X49696823Y-15671313D02*
G01*
X49857242Y-15719976D01*
X49924638Y-15756000D01*
X50005078Y-15798996D01*
X50134659Y-15905341D01*
X50241004Y-16034922D01*
X50241005Y-16034924D01*
X50320024Y-16182758D01*
X50368687Y-16343177D01*
X50385117Y-16510000D01*
X50368687Y-16676823D01*
X50320024Y-16837242D01*
X50249114Y-16969906D01*
X50241004Y-16985078D01*
X50134659Y-17114659D01*
X50005078Y-17221004D01*
X50005076Y-17221005D01*
X49857242Y-17300024D01*
X49696823Y-17348687D01*
X49571804Y-17361000D01*
X49488196Y-17361000D01*
X49363177Y-17348687D01*
X49202758Y-17300024D01*
X49054924Y-17221005D01*
X49054922Y-17221004D01*
X48925341Y-17114659D01*
X48818996Y-16985078D01*
X48810886Y-16969906D01*
X48739976Y-16837242D01*
X48691313Y-16676823D01*
X48674883Y-16510000D01*
X48691313Y-16343177D01*
X48739976Y-16182758D01*
X48818995Y-16034924D01*
X48818996Y-16034922D01*
X48925341Y-15905341D01*
X49054922Y-15798996D01*
X49135362Y-15756000D01*
X49202758Y-15719976D01*
X49363177Y-15671313D01*
X49488196Y-15659000D01*
X49571804Y-15659000D01*
X49696823Y-15671313D01*
X49696823Y-15671313D01*
G37*
G36*
X63102142Y-15093242D02*
G01*
X63250101Y-15154529D01*
X63383255Y-15243499D01*
X63496501Y-15356745D01*
X63585471Y-15489899D01*
X63646758Y-15637858D01*
X63678000Y-15794925D01*
X63678000Y-15955075D01*
X63646758Y-16112142D01*
X63585471Y-16260101D01*
X63496501Y-16393255D01*
X63383255Y-16506501D01*
X63250101Y-16595471D01*
X63102142Y-16656758D01*
X62945075Y-16688000D01*
X62784925Y-16688000D01*
X62627858Y-16656758D01*
X62479899Y-16595471D01*
X62346745Y-16506501D01*
X62233499Y-16393255D01*
X62144529Y-16260101D01*
X62083242Y-16112142D01*
X62052000Y-15955075D01*
X62052000Y-15794925D01*
X62083242Y-15637858D01*
X62144529Y-15489899D01*
X62233499Y-15356745D01*
X62346745Y-15243499D01*
X62479899Y-15154529D01*
X62627858Y-15093242D01*
X62784925Y-15062000D01*
X62945075Y-15062000D01*
X63102142Y-15093242D01*
X63102142Y-15093242D01*
G37*
G36*
X21192142Y-15093242D02*
G01*
X21340101Y-15154529D01*
X21473255Y-15243499D01*
X21586501Y-15356745D01*
X21675471Y-15489899D01*
X21736758Y-15637858D01*
X21768000Y-15794925D01*
X21768000Y-15955075D01*
X21736758Y-16112142D01*
X21675471Y-16260101D01*
X21586501Y-16393255D01*
X21473255Y-16506501D01*
X21340101Y-16595471D01*
X21192142Y-16656758D01*
X21035075Y-16688000D01*
X20874925Y-16688000D01*
X20717858Y-16656758D01*
X20569899Y-16595471D01*
X20436745Y-16506501D01*
X20323499Y-16393255D01*
X20234529Y-16260101D01*
X20173242Y-16112142D01*
X20142000Y-15955075D01*
X20142000Y-15794925D01*
X20173242Y-15637858D01*
X20234529Y-15489899D01*
X20323499Y-15356745D01*
X20436745Y-15243499D01*
X20569899Y-15154529D01*
X20717858Y-15093242D01*
X20874925Y-15062000D01*
X21035075Y-15062000D01*
X21192142Y-15093242D01*
X21192142Y-15093242D01*
G37*
G36*
X23732142Y-15093242D02*
G01*
X23880101Y-15154529D01*
X24013255Y-15243499D01*
X24126501Y-15356745D01*
X24215471Y-15489899D01*
X24276758Y-15637858D01*
X24308000Y-15794925D01*
X24308000Y-15955075D01*
X24276758Y-16112142D01*
X24215471Y-16260101D01*
X24126501Y-16393255D01*
X24013255Y-16506501D01*
X23880101Y-16595471D01*
X23732142Y-16656758D01*
X23575075Y-16688000D01*
X23414925Y-16688000D01*
X23257858Y-16656758D01*
X23109899Y-16595471D01*
X22976745Y-16506501D01*
X22863499Y-16393255D01*
X22774529Y-16260101D01*
X22713242Y-16112142D01*
X22682000Y-15955075D01*
X22682000Y-15794925D01*
X22713242Y-15637858D01*
X22774529Y-15489899D01*
X22863499Y-15356745D01*
X22976745Y-15243499D01*
X23109899Y-15154529D01*
X23257858Y-15093242D01*
X23414925Y-15062000D01*
X23575075Y-15062000D01*
X23732142Y-15093242D01*
X23732142Y-15093242D01*
G37*
G36*
X26272142Y-15093242D02*
G01*
X26420101Y-15154529D01*
X26553255Y-15243499D01*
X26666501Y-15356745D01*
X26755471Y-15489899D01*
X26816758Y-15637858D01*
X26848000Y-15794925D01*
X26848000Y-15955075D01*
X26816758Y-16112142D01*
X26755471Y-16260101D01*
X26666501Y-16393255D01*
X26553255Y-16506501D01*
X26420101Y-16595471D01*
X26272142Y-16656758D01*
X26115075Y-16688000D01*
X25954925Y-16688000D01*
X25797858Y-16656758D01*
X25649899Y-16595471D01*
X25516745Y-16506501D01*
X25403499Y-16393255D01*
X25314529Y-16260101D01*
X25253242Y-16112142D01*
X25222000Y-15955075D01*
X25222000Y-15794925D01*
X25253242Y-15637858D01*
X25314529Y-15489899D01*
X25403499Y-15356745D01*
X25516745Y-15243499D01*
X25649899Y-15154529D01*
X25797858Y-15093242D01*
X25954925Y-15062000D01*
X26115075Y-15062000D01*
X26272142Y-15093242D01*
X26272142Y-15093242D01*
G37*
G36*
X28812142Y-15093242D02*
G01*
X28960101Y-15154529D01*
X29093255Y-15243499D01*
X29206501Y-15356745D01*
X29295471Y-15489899D01*
X29356758Y-15637858D01*
X29388000Y-15794925D01*
X29388000Y-15955075D01*
X29356758Y-16112142D01*
X29295471Y-16260101D01*
X29206501Y-16393255D01*
X29093255Y-16506501D01*
X28960101Y-16595471D01*
X28812142Y-16656758D01*
X28655075Y-16688000D01*
X28494925Y-16688000D01*
X28337858Y-16656758D01*
X28189899Y-16595471D01*
X28056745Y-16506501D01*
X27943499Y-16393255D01*
X27854529Y-16260101D01*
X27793242Y-16112142D01*
X27762000Y-15955075D01*
X27762000Y-15794925D01*
X27793242Y-15637858D01*
X27854529Y-15489899D01*
X27943499Y-15356745D01*
X28056745Y-15243499D01*
X28189899Y-15154529D01*
X28337858Y-15093242D01*
X28494925Y-15062000D01*
X28655075Y-15062000D01*
X28812142Y-15093242D01*
X28812142Y-15093242D01*
G37*
G36*
X53018342Y-15093242D02*
G01*
X53166301Y-15154529D01*
X53299455Y-15243499D01*
X53412701Y-15356745D01*
X53501671Y-15489899D01*
X53562958Y-15637858D01*
X53594200Y-15794925D01*
X53594200Y-15955075D01*
X53562958Y-16112142D01*
X53501671Y-16260101D01*
X53412701Y-16393255D01*
X53299455Y-16506501D01*
X53166301Y-16595471D01*
X53018342Y-16656758D01*
X52861275Y-16688000D01*
X52701125Y-16688000D01*
X52544058Y-16656758D01*
X52396099Y-16595471D01*
X52262945Y-16506501D01*
X52149699Y-16393255D01*
X52060729Y-16260101D01*
X51999442Y-16112142D01*
X51968200Y-15955075D01*
X51968200Y-15794925D01*
X51999442Y-15637858D01*
X52060729Y-15489899D01*
X52149699Y-15356745D01*
X52262945Y-15243499D01*
X52396099Y-15154529D01*
X52544058Y-15093242D01*
X52701125Y-15062000D01*
X52861275Y-15062000D01*
X53018342Y-15093242D01*
X53018342Y-15093242D01*
G37*
G36*
X55482142Y-15093242D02*
G01*
X55630101Y-15154529D01*
X55763255Y-15243499D01*
X55876501Y-15356745D01*
X55965471Y-15489899D01*
X56026758Y-15637858D01*
X56058000Y-15794925D01*
X56058000Y-15955075D01*
X56026758Y-16112142D01*
X55965471Y-16260101D01*
X55876501Y-16393255D01*
X55763255Y-16506501D01*
X55630101Y-16595471D01*
X55482142Y-16656758D01*
X55325075Y-16688000D01*
X55164925Y-16688000D01*
X55007858Y-16656758D01*
X54859899Y-16595471D01*
X54726745Y-16506501D01*
X54613499Y-16393255D01*
X54524529Y-16260101D01*
X54463242Y-16112142D01*
X54432000Y-15955075D01*
X54432000Y-15794925D01*
X54463242Y-15637858D01*
X54524529Y-15489899D01*
X54613499Y-15356745D01*
X54726745Y-15243499D01*
X54859899Y-15154529D01*
X55007858Y-15093242D01*
X55164925Y-15062000D01*
X55325075Y-15062000D01*
X55482142Y-15093242D01*
X55482142Y-15093242D01*
G37*
G36*
X58022142Y-15093242D02*
G01*
X58170101Y-15154529D01*
X58303255Y-15243499D01*
X58416501Y-15356745D01*
X58505471Y-15489899D01*
X58566758Y-15637858D01*
X58598000Y-15794925D01*
X58598000Y-15955075D01*
X58566758Y-16112142D01*
X58505471Y-16260101D01*
X58416501Y-16393255D01*
X58303255Y-16506501D01*
X58170101Y-16595471D01*
X58022142Y-16656758D01*
X57865075Y-16688000D01*
X57704925Y-16688000D01*
X57547858Y-16656758D01*
X57399899Y-16595471D01*
X57266745Y-16506501D01*
X57153499Y-16393255D01*
X57064529Y-16260101D01*
X57003242Y-16112142D01*
X56972000Y-15955075D01*
X56972000Y-15794925D01*
X57003242Y-15637858D01*
X57064529Y-15489899D01*
X57153499Y-15356745D01*
X57266745Y-15243499D01*
X57399899Y-15154529D01*
X57547858Y-15093242D01*
X57704925Y-15062000D01*
X57865075Y-15062000D01*
X58022142Y-15093242D01*
X58022142Y-15093242D01*
G37*
G36*
X60562142Y-15093242D02*
G01*
X60710101Y-15154529D01*
X60843255Y-15243499D01*
X60956501Y-15356745D01*
X61045471Y-15489899D01*
X61106758Y-15637858D01*
X61138000Y-15794925D01*
X61138000Y-15955075D01*
X61106758Y-16112142D01*
X61045471Y-16260101D01*
X60956501Y-16393255D01*
X60843255Y-16506501D01*
X60710101Y-16595471D01*
X60562142Y-16656758D01*
X60405075Y-16688000D01*
X60244925Y-16688000D01*
X60087858Y-16656758D01*
X59939899Y-16595471D01*
X59806745Y-16506501D01*
X59693499Y-16393255D01*
X59604529Y-16260101D01*
X59543242Y-16112142D01*
X59512000Y-15955075D01*
X59512000Y-15794925D01*
X59543242Y-15637858D01*
X59604529Y-15489899D01*
X59693499Y-15356745D01*
X59806745Y-15243499D01*
X59939899Y-15154529D01*
X60087858Y-15093242D01*
X60244925Y-15062000D01*
X60405075Y-15062000D01*
X60562142Y-15093242D01*
X60562142Y-15093242D01*
G37*
G36*
X31352142Y-15093242D02*
G01*
X31500101Y-15154529D01*
X31633255Y-15243499D01*
X31746501Y-15356745D01*
X31835471Y-15489899D01*
X31896758Y-15637858D01*
X31928000Y-15794925D01*
X31928000Y-15955075D01*
X31896758Y-16112142D01*
X31835471Y-16260101D01*
X31746501Y-16393255D01*
X31633255Y-16506501D01*
X31500101Y-16595471D01*
X31352142Y-16656758D01*
X31195075Y-16688000D01*
X31034925Y-16688000D01*
X30877858Y-16656758D01*
X30729899Y-16595471D01*
X30596745Y-16506501D01*
X30483499Y-16393255D01*
X30394529Y-16260101D01*
X30333242Y-16112142D01*
X30302000Y-15955075D01*
X30302000Y-15794925D01*
X30333242Y-15637858D01*
X30394529Y-15489899D01*
X30483499Y-15356745D01*
X30596745Y-15243499D01*
X30729899Y-15154529D01*
X30877858Y-15093242D01*
X31034925Y-15062000D01*
X31195075Y-15062000D01*
X31352142Y-15093242D01*
X31352142Y-15093242D01*
G37*
G36*
X69693549Y-13476116D02*
G01*
X69804734Y-13498232D01*
X69952850Y-13559584D01*
X69983169Y-13572142D01*
X70014203Y-13584997D01*
X70202720Y-13710960D01*
X70363040Y-13871280D01*
X70489003Y-14059797D01*
X70575768Y-14269266D01*
X70620000Y-14491636D01*
X70620000Y-14718364D01*
X70575768Y-14940734D01*
X70489003Y-15150203D01*
X70363040Y-15338720D01*
X70202720Y-15499040D01*
X70014203Y-15625003D01*
X70014202Y-15625004D01*
X70014201Y-15625004D01*
X69952850Y-15650416D01*
X69804734Y-15711768D01*
X69763474Y-15719975D01*
X69582365Y-15756000D01*
X69355635Y-15756000D01*
X69174526Y-15719975D01*
X69133266Y-15711768D01*
X68985150Y-15650416D01*
X68923799Y-15625004D01*
X68923798Y-15625004D01*
X68923797Y-15625003D01*
X68735280Y-15499040D01*
X68574960Y-15338720D01*
X68448997Y-15150203D01*
X68362232Y-14940734D01*
X68318000Y-14718364D01*
X68318000Y-14491636D01*
X68362232Y-14269266D01*
X68448997Y-14059797D01*
X68574960Y-13871280D01*
X68735280Y-13710960D01*
X68923797Y-13584997D01*
X68954832Y-13572142D01*
X68985150Y-13559584D01*
X69133266Y-13498232D01*
X69244451Y-13476116D01*
X69355635Y-13454000D01*
X69582365Y-13454000D01*
X69693549Y-13476116D01*
X69693549Y-13476116D01*
G37*
G36*
X14575549Y-13476116D02*
G01*
X14686734Y-13498232D01*
X14834850Y-13559584D01*
X14865169Y-13572142D01*
X14896203Y-13584997D01*
X15084720Y-13710960D01*
X15245040Y-13871280D01*
X15371003Y-14059797D01*
X15457768Y-14269266D01*
X15502000Y-14491636D01*
X15502000Y-14718364D01*
X15457768Y-14940734D01*
X15371003Y-15150203D01*
X15245040Y-15338720D01*
X15084720Y-15499040D01*
X14896203Y-15625003D01*
X14896202Y-15625004D01*
X14896201Y-15625004D01*
X14834850Y-15650416D01*
X14686734Y-15711768D01*
X14645474Y-15719975D01*
X14464365Y-15756000D01*
X14237635Y-15756000D01*
X14056526Y-15719975D01*
X14015266Y-15711768D01*
X13867150Y-15650416D01*
X13805799Y-15625004D01*
X13805798Y-15625004D01*
X13805797Y-15625003D01*
X13617280Y-15499040D01*
X13456960Y-15338720D01*
X13330997Y-15150203D01*
X13244232Y-14940734D01*
X13200000Y-14718364D01*
X13200000Y-14491636D01*
X13244232Y-14269266D01*
X13330997Y-14059797D01*
X13456960Y-13871280D01*
X13617280Y-13710960D01*
X13805797Y-13584997D01*
X13836832Y-13572142D01*
X13867150Y-13559584D01*
X14015266Y-13498232D01*
X14126451Y-13476116D01*
X14237635Y-13454000D01*
X14464365Y-13454000D01*
X14575549Y-13476116D01*
X14575549Y-13476116D01*
G37*
G36*
X31352142Y-12553242D02*
G01*
X31500101Y-12614529D01*
X31633255Y-12703499D01*
X31746501Y-12816745D01*
X31835471Y-12949899D01*
X31896758Y-13097858D01*
X31928000Y-13254925D01*
X31928000Y-13415075D01*
X31896758Y-13572142D01*
X31835471Y-13720101D01*
X31746501Y-13853255D01*
X31633255Y-13966501D01*
X31500101Y-14055471D01*
X31352142Y-14116758D01*
X31195075Y-14148000D01*
X31034925Y-14148000D01*
X30877858Y-14116758D01*
X30729899Y-14055471D01*
X30596745Y-13966501D01*
X30483499Y-13853255D01*
X30394529Y-13720101D01*
X30333242Y-13572142D01*
X30302000Y-13415075D01*
X30302000Y-13254925D01*
X30333242Y-13097858D01*
X30394529Y-12949899D01*
X30483499Y-12816745D01*
X30596745Y-12703499D01*
X30729899Y-12614529D01*
X30877858Y-12553242D01*
X31034925Y-12522000D01*
X31195075Y-12522000D01*
X31352142Y-12553242D01*
X31352142Y-12553242D01*
G37*
G36*
X55482142Y-12553242D02*
G01*
X55630101Y-12614529D01*
X55763255Y-12703499D01*
X55876501Y-12816745D01*
X55965471Y-12949899D01*
X56026758Y-13097858D01*
X56058000Y-13254925D01*
X56058000Y-13415075D01*
X56026758Y-13572142D01*
X55965471Y-13720101D01*
X55876501Y-13853255D01*
X55763255Y-13966501D01*
X55630101Y-14055471D01*
X55482142Y-14116758D01*
X55325075Y-14148000D01*
X55164925Y-14148000D01*
X55007858Y-14116758D01*
X54859899Y-14055471D01*
X54726745Y-13966501D01*
X54613499Y-13853255D01*
X54524529Y-13720101D01*
X54463242Y-13572142D01*
X54432000Y-13415075D01*
X54432000Y-13254925D01*
X54463242Y-13097858D01*
X54524529Y-12949899D01*
X54613499Y-12816745D01*
X54726745Y-12703499D01*
X54859899Y-12614529D01*
X55007858Y-12553242D01*
X55164925Y-12522000D01*
X55325075Y-12522000D01*
X55482142Y-12553242D01*
X55482142Y-12553242D01*
G37*
G36*
X60562142Y-12553242D02*
G01*
X60710101Y-12614529D01*
X60843255Y-12703499D01*
X60956501Y-12816745D01*
X61045471Y-12949899D01*
X61106758Y-13097858D01*
X61138000Y-13254925D01*
X61138000Y-13415075D01*
X61106758Y-13572142D01*
X61045471Y-13720101D01*
X60956501Y-13853255D01*
X60843255Y-13966501D01*
X60710101Y-14055471D01*
X60562142Y-14116758D01*
X60405075Y-14148000D01*
X60244925Y-14148000D01*
X60087858Y-14116758D01*
X59939899Y-14055471D01*
X59806745Y-13966501D01*
X59693499Y-13853255D01*
X59604529Y-13720101D01*
X59543242Y-13572142D01*
X59512000Y-13415075D01*
X59512000Y-13254925D01*
X59543242Y-13097858D01*
X59604529Y-12949899D01*
X59693499Y-12816745D01*
X59806745Y-12703499D01*
X59939899Y-12614529D01*
X60087858Y-12553242D01*
X60244925Y-12522000D01*
X60405075Y-12522000D01*
X60562142Y-12553242D01*
X60562142Y-12553242D01*
G37*
G36*
X63102142Y-12553242D02*
G01*
X63250101Y-12614529D01*
X63383255Y-12703499D01*
X63496501Y-12816745D01*
X63585471Y-12949899D01*
X63646758Y-13097858D01*
X63678000Y-13254925D01*
X63678000Y-13415075D01*
X63646758Y-13572142D01*
X63585471Y-13720101D01*
X63496501Y-13853255D01*
X63383255Y-13966501D01*
X63250101Y-14055471D01*
X63102142Y-14116758D01*
X62945075Y-14148000D01*
X62784925Y-14148000D01*
X62627858Y-14116758D01*
X62479899Y-14055471D01*
X62346745Y-13966501D01*
X62233499Y-13853255D01*
X62144529Y-13720101D01*
X62083242Y-13572142D01*
X62052000Y-13415075D01*
X62052000Y-13254925D01*
X62083242Y-13097858D01*
X62144529Y-12949899D01*
X62233499Y-12816745D01*
X62346745Y-12703499D01*
X62479899Y-12614529D01*
X62627858Y-12553242D01*
X62784925Y-12522000D01*
X62945075Y-12522000D01*
X63102142Y-12553242D01*
X63102142Y-12553242D01*
G37*
G36*
X52942142Y-12553242D02*
G01*
X53090101Y-12614529D01*
X53223255Y-12703499D01*
X53336501Y-12816745D01*
X53425471Y-12949899D01*
X53486758Y-13097858D01*
X53518000Y-13254925D01*
X53518000Y-13415075D01*
X53486758Y-13572142D01*
X53425471Y-13720101D01*
X53336501Y-13853255D01*
X53223255Y-13966501D01*
X53090101Y-14055471D01*
X52942142Y-14116758D01*
X52785075Y-14148000D01*
X52624925Y-14148000D01*
X52467858Y-14116758D01*
X52319899Y-14055471D01*
X52186745Y-13966501D01*
X52073499Y-13853255D01*
X51984529Y-13720101D01*
X51923242Y-13572142D01*
X51892000Y-13415075D01*
X51892000Y-13254925D01*
X51923242Y-13097858D01*
X51984529Y-12949899D01*
X52073499Y-12816745D01*
X52186745Y-12703499D01*
X52319899Y-12614529D01*
X52467858Y-12553242D01*
X52624925Y-12522000D01*
X52785075Y-12522000D01*
X52942142Y-12553242D01*
X52942142Y-12553242D01*
G37*
G36*
X26272142Y-12553242D02*
G01*
X26420101Y-12614529D01*
X26553255Y-12703499D01*
X26666501Y-12816745D01*
X26755471Y-12949899D01*
X26816758Y-13097858D01*
X26848000Y-13254925D01*
X26848000Y-13415075D01*
X26816758Y-13572142D01*
X26755471Y-13720101D01*
X26666501Y-13853255D01*
X26553255Y-13966501D01*
X26420101Y-14055471D01*
X26272142Y-14116758D01*
X26115075Y-14148000D01*
X25954925Y-14148000D01*
X25797858Y-14116758D01*
X25649899Y-14055471D01*
X25516745Y-13966501D01*
X25403499Y-13853255D01*
X25314529Y-13720101D01*
X25253242Y-13572142D01*
X25222000Y-13415075D01*
X25222000Y-13254925D01*
X25253242Y-13097858D01*
X25314529Y-12949899D01*
X25403499Y-12816745D01*
X25516745Y-12703499D01*
X25649899Y-12614529D01*
X25797858Y-12553242D01*
X25954925Y-12522000D01*
X26115075Y-12522000D01*
X26272142Y-12553242D01*
X26272142Y-12553242D01*
G37*
G36*
X58022142Y-12553242D02*
G01*
X58170101Y-12614529D01*
X58303255Y-12703499D01*
X58416501Y-12816745D01*
X58505471Y-12949899D01*
X58566758Y-13097858D01*
X58598000Y-13254925D01*
X58598000Y-13415075D01*
X58566758Y-13572142D01*
X58505471Y-13720101D01*
X58416501Y-13853255D01*
X58303255Y-13966501D01*
X58170101Y-14055471D01*
X58022142Y-14116758D01*
X57865075Y-14148000D01*
X57704925Y-14148000D01*
X57547858Y-14116758D01*
X57399899Y-14055471D01*
X57266745Y-13966501D01*
X57153499Y-13853255D01*
X57064529Y-13720101D01*
X57003242Y-13572142D01*
X56972000Y-13415075D01*
X56972000Y-13254925D01*
X57003242Y-13097858D01*
X57064529Y-12949899D01*
X57153499Y-12816745D01*
X57266745Y-12703499D01*
X57399899Y-12614529D01*
X57547858Y-12553242D01*
X57704925Y-12522000D01*
X57865075Y-12522000D01*
X58022142Y-12553242D01*
X58022142Y-12553242D01*
G37*
G36*
X23732142Y-12553242D02*
G01*
X23880101Y-12614529D01*
X24013255Y-12703499D01*
X24126501Y-12816745D01*
X24215471Y-12949899D01*
X24276758Y-13097858D01*
X24308000Y-13254925D01*
X24308000Y-13415075D01*
X24276758Y-13572142D01*
X24215471Y-13720101D01*
X24126501Y-13853255D01*
X24013255Y-13966501D01*
X23880101Y-14055471D01*
X23732142Y-14116758D01*
X23575075Y-14148000D01*
X23414925Y-14148000D01*
X23257858Y-14116758D01*
X23109899Y-14055471D01*
X22976745Y-13966501D01*
X22863499Y-13853255D01*
X22774529Y-13720101D01*
X22713242Y-13572142D01*
X22682000Y-13415075D01*
X22682000Y-13254925D01*
X22713242Y-13097858D01*
X22774529Y-12949899D01*
X22863499Y-12816745D01*
X22976745Y-12703499D01*
X23109899Y-12614529D01*
X23257858Y-12553242D01*
X23414925Y-12522000D01*
X23575075Y-12522000D01*
X23732142Y-12553242D01*
X23732142Y-12553242D01*
G37*
G36*
X28812142Y-12553242D02*
G01*
X28960101Y-12614529D01*
X29093255Y-12703499D01*
X29206501Y-12816745D01*
X29295471Y-12949899D01*
X29356758Y-13097858D01*
X29388000Y-13254925D01*
X29388000Y-13415075D01*
X29356758Y-13572142D01*
X29295471Y-13720101D01*
X29206501Y-13853255D01*
X29093255Y-13966501D01*
X28960101Y-14055471D01*
X28812142Y-14116758D01*
X28655075Y-14148000D01*
X28494925Y-14148000D01*
X28337858Y-14116758D01*
X28189899Y-14055471D01*
X28056745Y-13966501D01*
X27943499Y-13853255D01*
X27854529Y-13720101D01*
X27793242Y-13572142D01*
X27762000Y-13415075D01*
X27762000Y-13254925D01*
X27793242Y-13097858D01*
X27854529Y-12949899D01*
X27943499Y-12816745D01*
X28056745Y-12703499D01*
X28189899Y-12614529D01*
X28337858Y-12553242D01*
X28494925Y-12522000D01*
X28655075Y-12522000D01*
X28812142Y-12553242D01*
X28812142Y-12553242D01*
G37*
G36*
X21192142Y-12553242D02*
G01*
X21340101Y-12614529D01*
X21473255Y-12703499D01*
X21586501Y-12816745D01*
X21675471Y-12949899D01*
X21736758Y-13097858D01*
X21768000Y-13254925D01*
X21768000Y-13415075D01*
X21736758Y-13572142D01*
X21675471Y-13720101D01*
X21586501Y-13853255D01*
X21473255Y-13966501D01*
X21340101Y-14055471D01*
X21192142Y-14116758D01*
X21035075Y-14148000D01*
X20874925Y-14148000D01*
X20717858Y-14116758D01*
X20569899Y-14055471D01*
X20436745Y-13966501D01*
X20323499Y-13853255D01*
X20234529Y-13720101D01*
X20173242Y-13572142D01*
X20142000Y-13415075D01*
X20142000Y-13254925D01*
X20173242Y-13097858D01*
X20234529Y-12949899D01*
X20323499Y-12816745D01*
X20436745Y-12703499D01*
X20569899Y-12614529D01*
X20717858Y-12553242D01*
X20874925Y-12522000D01*
X21035075Y-12522000D01*
X21192142Y-12553242D01*
X21192142Y-12553242D01*
G37*
M02*
