G04 #@! TF.GenerationSoftware,KiCad,Pcbnew,(5.1.0)-1*
G04 #@! TF.CreationDate,2019-07-11T20:21:55+02:00*
G04 #@! TF.ProjectId,Arduino_HM_1,41726475-696e-46f5-9f48-4d5f312e6b69,rev?*
G04 #@! TF.SameCoordinates,Original*
G04 #@! TF.FileFunction,Soldermask,Bot*
G04 #@! TF.FilePolarity,Negative*
%FSLAX46Y46*%
G04 Gerber Fmt 4.6, Leading zero omitted, Abs format (unit mm)*
G04 Created by KiCad (PCBNEW (5.1.0)-1) date 2019-07-11 20:21:55*
%MOMM*%
%LPD*%
G04 APERTURE LIST*
%ADD10C,0.100000*%
G04 APERTURE END LIST*
D10*
G36*
X46272721Y-72052174D02*
G01*
X46372995Y-72093709D01*
X46372996Y-72093710D01*
X46463242Y-72154010D01*
X46539990Y-72230758D01*
X46539991Y-72230760D01*
X46600291Y-72321005D01*
X46641826Y-72421279D01*
X46663000Y-72527730D01*
X46663000Y-72636270D01*
X46641826Y-72742721D01*
X46600291Y-72842995D01*
X46600290Y-72842996D01*
X46539990Y-72933242D01*
X46463242Y-73009990D01*
X46417812Y-73040345D01*
X46372995Y-73070291D01*
X46272721Y-73111826D01*
X46166270Y-73133000D01*
X46057730Y-73133000D01*
X45951279Y-73111826D01*
X45851005Y-73070291D01*
X45806188Y-73040345D01*
X45760758Y-73009990D01*
X45684010Y-72933242D01*
X45623710Y-72842996D01*
X45623709Y-72842995D01*
X45582174Y-72742721D01*
X45561000Y-72636270D01*
X45561000Y-72527730D01*
X45582174Y-72421279D01*
X45623709Y-72321005D01*
X45684009Y-72230760D01*
X45684010Y-72230758D01*
X45760758Y-72154010D01*
X45851004Y-72093710D01*
X45851005Y-72093709D01*
X45951279Y-72052174D01*
X46057730Y-72031000D01*
X46166270Y-72031000D01*
X46272721Y-72052174D01*
X46272721Y-72052174D01*
G37*
G36*
X78964549Y-69991116D02*
G01*
X79075734Y-70013232D01*
X79285203Y-70099997D01*
X79473720Y-70225960D01*
X79634040Y-70386280D01*
X79760003Y-70574797D01*
X79816305Y-70710721D01*
X79846768Y-70784267D01*
X79870036Y-70901240D01*
X79891000Y-71006636D01*
X79891000Y-71233364D01*
X79846768Y-71455734D01*
X79760003Y-71665203D01*
X79634040Y-71853720D01*
X79473720Y-72014040D01*
X79285203Y-72140003D01*
X79075734Y-72226768D01*
X78964549Y-72248884D01*
X78853365Y-72271000D01*
X78626635Y-72271000D01*
X78515451Y-72248884D01*
X78404266Y-72226768D01*
X78194797Y-72140003D01*
X78006280Y-72014040D01*
X77845960Y-71853720D01*
X77719997Y-71665203D01*
X77633232Y-71455734D01*
X77589000Y-71233364D01*
X77589000Y-71006636D01*
X77609965Y-70901240D01*
X77633232Y-70784267D01*
X77663696Y-70710721D01*
X77719997Y-70574797D01*
X77845960Y-70386280D01*
X78006280Y-70225960D01*
X78194797Y-70099997D01*
X78404266Y-70013232D01*
X78515451Y-69991116D01*
X78626635Y-69969000D01*
X78853365Y-69969000D01*
X78964549Y-69991116D01*
X78964549Y-69991116D01*
G37*
G36*
X15464549Y-69991116D02*
G01*
X15575734Y-70013232D01*
X15785203Y-70099997D01*
X15973720Y-70225960D01*
X16134040Y-70386280D01*
X16260003Y-70574797D01*
X16316305Y-70710721D01*
X16346768Y-70784267D01*
X16370036Y-70901240D01*
X16391000Y-71006636D01*
X16391000Y-71233364D01*
X16346768Y-71455734D01*
X16260003Y-71665203D01*
X16134040Y-71853720D01*
X15973720Y-72014040D01*
X15785203Y-72140003D01*
X15575734Y-72226768D01*
X15464549Y-72248884D01*
X15353365Y-72271000D01*
X15126635Y-72271000D01*
X15015451Y-72248884D01*
X14904266Y-72226768D01*
X14694797Y-72140003D01*
X14506280Y-72014040D01*
X14345960Y-71853720D01*
X14219997Y-71665203D01*
X14133232Y-71455734D01*
X14089000Y-71233364D01*
X14089000Y-71006636D01*
X14109965Y-70901240D01*
X14133232Y-70784267D01*
X14163696Y-70710721D01*
X14219997Y-70574797D01*
X14345960Y-70386280D01*
X14506280Y-70225960D01*
X14694797Y-70099997D01*
X14904266Y-70013232D01*
X15015451Y-69991116D01*
X15126635Y-69969000D01*
X15353365Y-69969000D01*
X15464549Y-69991116D01*
X15464549Y-69991116D01*
G37*
G36*
X46272721Y-70020174D02*
G01*
X46372995Y-70061709D01*
X46372996Y-70061710D01*
X46463242Y-70122010D01*
X46539990Y-70198758D01*
X46539991Y-70198760D01*
X46600291Y-70289005D01*
X46641826Y-70389279D01*
X46663000Y-70495730D01*
X46663000Y-70604270D01*
X46641826Y-70710721D01*
X46600291Y-70810995D01*
X46600290Y-70810996D01*
X46539990Y-70901242D01*
X46463242Y-70977990D01*
X46420371Y-71006635D01*
X46372995Y-71038291D01*
X46272721Y-71079826D01*
X46166270Y-71101000D01*
X46057730Y-71101000D01*
X45951279Y-71079826D01*
X45851005Y-71038291D01*
X45803629Y-71006635D01*
X45760758Y-70977990D01*
X45684010Y-70901242D01*
X45623710Y-70810996D01*
X45623709Y-70810995D01*
X45582174Y-70710721D01*
X45561000Y-70604270D01*
X45561000Y-70495730D01*
X45582174Y-70389279D01*
X45623709Y-70289005D01*
X45684009Y-70198760D01*
X45684010Y-70198758D01*
X45760758Y-70122010D01*
X45851004Y-70061710D01*
X45851005Y-70061709D01*
X45951279Y-70020174D01*
X46057730Y-69999000D01*
X46166270Y-69999000D01*
X46272721Y-70020174D01*
X46272721Y-70020174D01*
G37*
G36*
X46272721Y-67988174D02*
G01*
X46372995Y-68029709D01*
X46372996Y-68029710D01*
X46463242Y-68090010D01*
X46539990Y-68166758D01*
X46539991Y-68166760D01*
X46600291Y-68257005D01*
X46641826Y-68357279D01*
X46663000Y-68463730D01*
X46663000Y-68572270D01*
X46641826Y-68678721D01*
X46600291Y-68778995D01*
X46600290Y-68778996D01*
X46539990Y-68869242D01*
X46463242Y-68945990D01*
X46417812Y-68976345D01*
X46372995Y-69006291D01*
X46272721Y-69047826D01*
X46166270Y-69069000D01*
X46057730Y-69069000D01*
X45951279Y-69047826D01*
X45851005Y-69006291D01*
X45806188Y-68976345D01*
X45760758Y-68945990D01*
X45684010Y-68869242D01*
X45623710Y-68778996D01*
X45623709Y-68778995D01*
X45582174Y-68678721D01*
X45561000Y-68572270D01*
X45561000Y-68463730D01*
X45582174Y-68357279D01*
X45623709Y-68257005D01*
X45684009Y-68166760D01*
X45684010Y-68166758D01*
X45760758Y-68090010D01*
X45851004Y-68029710D01*
X45851005Y-68029709D01*
X45951279Y-67988174D01*
X46057730Y-67967000D01*
X46166270Y-67967000D01*
X46272721Y-67988174D01*
X46272721Y-67988174D01*
G37*
G36*
X28890721Y-66490174D02*
G01*
X28990995Y-66531709D01*
X28990996Y-66531710D01*
X29081242Y-66592010D01*
X29157990Y-66668758D01*
X29157991Y-66668760D01*
X29218291Y-66759005D01*
X29259826Y-66859279D01*
X29281000Y-66965730D01*
X29281000Y-67074270D01*
X29259826Y-67180721D01*
X29218291Y-67280995D01*
X29218290Y-67280996D01*
X29157990Y-67371242D01*
X29081242Y-67447990D01*
X29035812Y-67478345D01*
X28990995Y-67508291D01*
X28890721Y-67549826D01*
X28784270Y-67571000D01*
X28675730Y-67571000D01*
X28569279Y-67549826D01*
X28469005Y-67508291D01*
X28424188Y-67478345D01*
X28378758Y-67447990D01*
X28302010Y-67371242D01*
X28241710Y-67280996D01*
X28241709Y-67280995D01*
X28200174Y-67180721D01*
X28179000Y-67074270D01*
X28179000Y-66965730D01*
X28200174Y-66859279D01*
X28241709Y-66759005D01*
X28302009Y-66668760D01*
X28302010Y-66668758D01*
X28378758Y-66592010D01*
X28469004Y-66531710D01*
X28469005Y-66531709D01*
X28569279Y-66490174D01*
X28675730Y-66469000D01*
X28784270Y-66469000D01*
X28890721Y-66490174D01*
X28890721Y-66490174D01*
G37*
G36*
X46272721Y-65956174D02*
G01*
X46372995Y-65997709D01*
X46372996Y-65997710D01*
X46463242Y-66058010D01*
X46539990Y-66134758D01*
X46539991Y-66134760D01*
X46600291Y-66225005D01*
X46641826Y-66325279D01*
X46663000Y-66431730D01*
X46663000Y-66540270D01*
X46641826Y-66646721D01*
X46600291Y-66746995D01*
X46600290Y-66746996D01*
X46539990Y-66837242D01*
X46463242Y-66913990D01*
X46417812Y-66944345D01*
X46372995Y-66974291D01*
X46272721Y-67015826D01*
X46166270Y-67037000D01*
X46057730Y-67037000D01*
X45951279Y-67015826D01*
X45851005Y-66974291D01*
X45806188Y-66944345D01*
X45760758Y-66913990D01*
X45684010Y-66837242D01*
X45623710Y-66746996D01*
X45623709Y-66746995D01*
X45582174Y-66646721D01*
X45561000Y-66540270D01*
X45561000Y-66431730D01*
X45582174Y-66325279D01*
X45623709Y-66225005D01*
X45684009Y-66134760D01*
X45684010Y-66134758D01*
X45760758Y-66058010D01*
X45851004Y-65997710D01*
X45851005Y-65997709D01*
X45951279Y-65956174D01*
X46057730Y-65935000D01*
X46166270Y-65935000D01*
X46272721Y-65956174D01*
X46272721Y-65956174D01*
G37*
G36*
X28972042Y-63712381D02*
G01*
X29117814Y-63772762D01*
X29117816Y-63772763D01*
X29249008Y-63860422D01*
X29360578Y-63971992D01*
X29448237Y-64103184D01*
X29448238Y-64103186D01*
X29508619Y-64248958D01*
X29539400Y-64403707D01*
X29539400Y-64561493D01*
X29508619Y-64716242D01*
X29471754Y-64805242D01*
X29448237Y-64862016D01*
X29360578Y-64993208D01*
X29249008Y-65104778D01*
X29117816Y-65192437D01*
X29117815Y-65192438D01*
X29117814Y-65192438D01*
X28972042Y-65252819D01*
X28817293Y-65283600D01*
X28659507Y-65283600D01*
X28504758Y-65252819D01*
X28358986Y-65192438D01*
X28358985Y-65192438D01*
X28358984Y-65192437D01*
X28227792Y-65104778D01*
X28116222Y-64993208D01*
X28028563Y-64862016D01*
X28005046Y-64805242D01*
X27968181Y-64716242D01*
X27937400Y-64561493D01*
X27937400Y-64403707D01*
X27968181Y-64248958D01*
X28028562Y-64103186D01*
X28028563Y-64103184D01*
X28116222Y-63971992D01*
X28227792Y-63860422D01*
X28358984Y-63772763D01*
X28358986Y-63772762D01*
X28504758Y-63712381D01*
X28659507Y-63681600D01*
X28817293Y-63681600D01*
X28972042Y-63712381D01*
X28972042Y-63712381D01*
G37*
G36*
X46272721Y-63924174D02*
G01*
X46372995Y-63965709D01*
X46417812Y-63995655D01*
X46463242Y-64026010D01*
X46539990Y-64102758D01*
X46540276Y-64103186D01*
X46600291Y-64193005D01*
X46641826Y-64293279D01*
X46663000Y-64399730D01*
X46663000Y-64508270D01*
X46641826Y-64614721D01*
X46600291Y-64714995D01*
X46599457Y-64716243D01*
X46539990Y-64805242D01*
X46463242Y-64881990D01*
X46417812Y-64912345D01*
X46372995Y-64942291D01*
X46272721Y-64983826D01*
X46166270Y-65005000D01*
X46057730Y-65005000D01*
X45951279Y-64983826D01*
X45851005Y-64942291D01*
X45806188Y-64912345D01*
X45760758Y-64881990D01*
X45684010Y-64805242D01*
X45624543Y-64716243D01*
X45623709Y-64714995D01*
X45582174Y-64614721D01*
X45561000Y-64508270D01*
X45561000Y-64399730D01*
X45582174Y-64293279D01*
X45623709Y-64193005D01*
X45683724Y-64103186D01*
X45684010Y-64102758D01*
X45760758Y-64026010D01*
X45806188Y-63995655D01*
X45851005Y-63965709D01*
X45951279Y-63924174D01*
X46057730Y-63903000D01*
X46166270Y-63903000D01*
X46272721Y-63924174D01*
X46272721Y-63924174D01*
G37*
G36*
X46272721Y-61892174D02*
G01*
X46372995Y-61933709D01*
X46372996Y-61933710D01*
X46463242Y-61994010D01*
X46539990Y-62070758D01*
X46539991Y-62070760D01*
X46600291Y-62161005D01*
X46641826Y-62261279D01*
X46663000Y-62367730D01*
X46663000Y-62476270D01*
X46641826Y-62582721D01*
X46600291Y-62682995D01*
X46600290Y-62682996D01*
X46539990Y-62773242D01*
X46463242Y-62849990D01*
X46417812Y-62880345D01*
X46372995Y-62910291D01*
X46272721Y-62951826D01*
X46166270Y-62973000D01*
X46057730Y-62973000D01*
X45951279Y-62951826D01*
X45851005Y-62910291D01*
X45806188Y-62880345D01*
X45760758Y-62849990D01*
X45684010Y-62773242D01*
X45623710Y-62682996D01*
X45623709Y-62682995D01*
X45582174Y-62582721D01*
X45561000Y-62476270D01*
X45561000Y-62367730D01*
X45582174Y-62261279D01*
X45623709Y-62161005D01*
X45684009Y-62070760D01*
X45684010Y-62070758D01*
X45760758Y-61994010D01*
X45851004Y-61933710D01*
X45851005Y-61933709D01*
X45951279Y-61892174D01*
X46057730Y-61871000D01*
X46166270Y-61871000D01*
X46272721Y-61892174D01*
X46272721Y-61892174D01*
G37*
G36*
X28910721Y-61430174D02*
G01*
X29010995Y-61471709D01*
X29010996Y-61471710D01*
X29101242Y-61532010D01*
X29177990Y-61608758D01*
X29177991Y-61608760D01*
X29238291Y-61699005D01*
X29279826Y-61799279D01*
X29301000Y-61905730D01*
X29301000Y-62014270D01*
X29279826Y-62120721D01*
X29238291Y-62220995D01*
X29238290Y-62220996D01*
X29177990Y-62311242D01*
X29101242Y-62387990D01*
X29055812Y-62418345D01*
X29010995Y-62448291D01*
X28910721Y-62489826D01*
X28804270Y-62511000D01*
X28695730Y-62511000D01*
X28589279Y-62489826D01*
X28489005Y-62448291D01*
X28444188Y-62418345D01*
X28398758Y-62387990D01*
X28322010Y-62311242D01*
X28261710Y-62220996D01*
X28261709Y-62220995D01*
X28220174Y-62120721D01*
X28199000Y-62014270D01*
X28199000Y-61905730D01*
X28220174Y-61799279D01*
X28261709Y-61699005D01*
X28322009Y-61608760D01*
X28322010Y-61608758D01*
X28398758Y-61532010D01*
X28489004Y-61471710D01*
X28489005Y-61471709D01*
X28589279Y-61430174D01*
X28695730Y-61409000D01*
X28804270Y-61409000D01*
X28910721Y-61430174D01*
X28910721Y-61430174D01*
G37*
G36*
X46272721Y-59860174D02*
G01*
X46372995Y-59901709D01*
X46372996Y-59901710D01*
X46463242Y-59962010D01*
X46539990Y-60038758D01*
X46539991Y-60038760D01*
X46600291Y-60129005D01*
X46641826Y-60229279D01*
X46663000Y-60335730D01*
X46663000Y-60444270D01*
X46641826Y-60550721D01*
X46600291Y-60650995D01*
X46600290Y-60650996D01*
X46539990Y-60741242D01*
X46463242Y-60817990D01*
X46417812Y-60848345D01*
X46372995Y-60878291D01*
X46272721Y-60919826D01*
X46166270Y-60941000D01*
X46057730Y-60941000D01*
X45951279Y-60919826D01*
X45851005Y-60878291D01*
X45806188Y-60848345D01*
X45760758Y-60817990D01*
X45684010Y-60741242D01*
X45623710Y-60650996D01*
X45623709Y-60650995D01*
X45582174Y-60550721D01*
X45561000Y-60444270D01*
X45561000Y-60335730D01*
X45582174Y-60229279D01*
X45623709Y-60129005D01*
X45684009Y-60038760D01*
X45684010Y-60038758D01*
X45760758Y-59962010D01*
X45851004Y-59901710D01*
X45851005Y-59901709D01*
X45951279Y-59860174D01*
X46057730Y-59839000D01*
X46166270Y-59839000D01*
X46272721Y-59860174D01*
X46272721Y-59860174D01*
G37*
G36*
X64936823Y-58851313D02*
G01*
X65097242Y-58899976D01*
X65229906Y-58970886D01*
X65245078Y-58978996D01*
X65374659Y-59085341D01*
X65481004Y-59214922D01*
X65481005Y-59214924D01*
X65560024Y-59362758D01*
X65608687Y-59523177D01*
X65625117Y-59690000D01*
X65608687Y-59856823D01*
X65560024Y-60017242D01*
X65548523Y-60038758D01*
X65481004Y-60165078D01*
X65374659Y-60294659D01*
X65245078Y-60401004D01*
X65245076Y-60401005D01*
X65097242Y-60480024D01*
X64936823Y-60528687D01*
X64811804Y-60541000D01*
X64728196Y-60541000D01*
X64603177Y-60528687D01*
X64442758Y-60480024D01*
X64294924Y-60401005D01*
X64294922Y-60401004D01*
X64165341Y-60294659D01*
X64058996Y-60165078D01*
X63991477Y-60038758D01*
X63979976Y-60017242D01*
X63931313Y-59856823D01*
X63914883Y-59690000D01*
X63931313Y-59523177D01*
X63979976Y-59362758D01*
X64058995Y-59214924D01*
X64058996Y-59214922D01*
X64165341Y-59085341D01*
X64294922Y-58978996D01*
X64310094Y-58970886D01*
X64442758Y-58899976D01*
X64603177Y-58851313D01*
X64728196Y-58839000D01*
X64811804Y-58839000D01*
X64936823Y-58851313D01*
X64936823Y-58851313D01*
G37*
G36*
X49696823Y-58851313D02*
G01*
X49857242Y-58899976D01*
X49989906Y-58970886D01*
X50005078Y-58978996D01*
X50134659Y-59085341D01*
X50241004Y-59214922D01*
X50241005Y-59214924D01*
X50320024Y-59362758D01*
X50368687Y-59523177D01*
X50385117Y-59690000D01*
X50368687Y-59856823D01*
X50320024Y-60017242D01*
X50308523Y-60038758D01*
X50241004Y-60165078D01*
X50134659Y-60294659D01*
X50005078Y-60401004D01*
X50005076Y-60401005D01*
X49857242Y-60480024D01*
X49696823Y-60528687D01*
X49571804Y-60541000D01*
X49488196Y-60541000D01*
X49363177Y-60528687D01*
X49202758Y-60480024D01*
X49054924Y-60401005D01*
X49054922Y-60401004D01*
X48925341Y-60294659D01*
X48818996Y-60165078D01*
X48751477Y-60038758D01*
X48739976Y-60017242D01*
X48691313Y-59856823D01*
X48674883Y-59690000D01*
X48691313Y-59523177D01*
X48739976Y-59362758D01*
X48818995Y-59214924D01*
X48818996Y-59214922D01*
X48925341Y-59085341D01*
X49054922Y-58978996D01*
X49070094Y-58970886D01*
X49202758Y-58899976D01*
X49363177Y-58851313D01*
X49488196Y-58839000D01*
X49571804Y-58839000D01*
X49696823Y-58851313D01*
X49696823Y-58851313D01*
G37*
G36*
X46272721Y-57828174D02*
G01*
X46372995Y-57869709D01*
X46372996Y-57869710D01*
X46463242Y-57930010D01*
X46539990Y-58006758D01*
X46539991Y-58006760D01*
X46600291Y-58097005D01*
X46641826Y-58197279D01*
X46663000Y-58303730D01*
X46663000Y-58412270D01*
X46641826Y-58518721D01*
X46600291Y-58618995D01*
X46600290Y-58618996D01*
X46539990Y-58709242D01*
X46463242Y-58785990D01*
X46417812Y-58816345D01*
X46372995Y-58846291D01*
X46272721Y-58887826D01*
X46166270Y-58909000D01*
X46057730Y-58909000D01*
X45951279Y-58887826D01*
X45851005Y-58846291D01*
X45806188Y-58816345D01*
X45760758Y-58785990D01*
X45684010Y-58709242D01*
X45623710Y-58618996D01*
X45623709Y-58618995D01*
X45582174Y-58518721D01*
X45561000Y-58412270D01*
X45561000Y-58303730D01*
X45582174Y-58197279D01*
X45623709Y-58097005D01*
X45684009Y-58006760D01*
X45684010Y-58006758D01*
X45760758Y-57930010D01*
X45851004Y-57869710D01*
X45851005Y-57869709D01*
X45951279Y-57828174D01*
X46057730Y-57807000D01*
X46166270Y-57807000D01*
X46272721Y-57828174D01*
X46272721Y-57828174D01*
G37*
G36*
X64936823Y-56311313D02*
G01*
X65097242Y-56359976D01*
X65229906Y-56430886D01*
X65245078Y-56438996D01*
X65374659Y-56545341D01*
X65481004Y-56674922D01*
X65481005Y-56674924D01*
X65560024Y-56822758D01*
X65608687Y-56983177D01*
X65625117Y-57150000D01*
X65608687Y-57316823D01*
X65560024Y-57477242D01*
X65489114Y-57609906D01*
X65481004Y-57625078D01*
X65374659Y-57754659D01*
X65245078Y-57861004D01*
X65245076Y-57861005D01*
X65097242Y-57940024D01*
X64936823Y-57988687D01*
X64811804Y-58001000D01*
X64728196Y-58001000D01*
X64603177Y-57988687D01*
X64442758Y-57940024D01*
X64294924Y-57861005D01*
X64294922Y-57861004D01*
X64165341Y-57754659D01*
X64058996Y-57625078D01*
X64050886Y-57609906D01*
X63979976Y-57477242D01*
X63931313Y-57316823D01*
X63914883Y-57150000D01*
X63931313Y-56983177D01*
X63979976Y-56822758D01*
X64058995Y-56674924D01*
X64058996Y-56674922D01*
X64165341Y-56545341D01*
X64294922Y-56438996D01*
X64310094Y-56430886D01*
X64442758Y-56359976D01*
X64603177Y-56311313D01*
X64728196Y-56299000D01*
X64811804Y-56299000D01*
X64936823Y-56311313D01*
X64936823Y-56311313D01*
G37*
G36*
X49696823Y-56311313D02*
G01*
X49857242Y-56359976D01*
X49989906Y-56430886D01*
X50005078Y-56438996D01*
X50134659Y-56545341D01*
X50241004Y-56674922D01*
X50241005Y-56674924D01*
X50320024Y-56822758D01*
X50368687Y-56983177D01*
X50385117Y-57150000D01*
X50368687Y-57316823D01*
X50320024Y-57477242D01*
X50249114Y-57609906D01*
X50241004Y-57625078D01*
X50134659Y-57754659D01*
X50005078Y-57861004D01*
X50005076Y-57861005D01*
X49857242Y-57940024D01*
X49696823Y-57988687D01*
X49571804Y-58001000D01*
X49488196Y-58001000D01*
X49363177Y-57988687D01*
X49202758Y-57940024D01*
X49054924Y-57861005D01*
X49054922Y-57861004D01*
X48925341Y-57754659D01*
X48818996Y-57625078D01*
X48810886Y-57609906D01*
X48739976Y-57477242D01*
X48691313Y-57316823D01*
X48674883Y-57150000D01*
X48691313Y-56983177D01*
X48739976Y-56822758D01*
X48818995Y-56674924D01*
X48818996Y-56674922D01*
X48925341Y-56545341D01*
X49054922Y-56438996D01*
X49070094Y-56430886D01*
X49202758Y-56359976D01*
X49363177Y-56311313D01*
X49488196Y-56299000D01*
X49571804Y-56299000D01*
X49696823Y-56311313D01*
X49696823Y-56311313D01*
G37*
G36*
X49696823Y-53771313D02*
G01*
X49857242Y-53819976D01*
X49987366Y-53889529D01*
X50005078Y-53898996D01*
X50134659Y-54005341D01*
X50241004Y-54134922D01*
X50241005Y-54134924D01*
X50320024Y-54282758D01*
X50368687Y-54443177D01*
X50385117Y-54610000D01*
X50368687Y-54776823D01*
X50320024Y-54937242D01*
X50249114Y-55069906D01*
X50241004Y-55085078D01*
X50134659Y-55214659D01*
X50005078Y-55321004D01*
X50005076Y-55321005D01*
X49857242Y-55400024D01*
X49696823Y-55448687D01*
X49571804Y-55461000D01*
X49488196Y-55461000D01*
X49363177Y-55448687D01*
X49202758Y-55400024D01*
X49054924Y-55321005D01*
X49054922Y-55321004D01*
X48925341Y-55214659D01*
X48818996Y-55085078D01*
X48810886Y-55069906D01*
X48739976Y-54937242D01*
X48691313Y-54776823D01*
X48674883Y-54610000D01*
X48691313Y-54443177D01*
X48739976Y-54282758D01*
X48818995Y-54134924D01*
X48818996Y-54134922D01*
X48925341Y-54005341D01*
X49054922Y-53898996D01*
X49072634Y-53889529D01*
X49202758Y-53819976D01*
X49363177Y-53771313D01*
X49488196Y-53759000D01*
X49571804Y-53759000D01*
X49696823Y-53771313D01*
X49696823Y-53771313D01*
G37*
G36*
X64936823Y-53771313D02*
G01*
X65097242Y-53819976D01*
X65227366Y-53889529D01*
X65245078Y-53898996D01*
X65374659Y-54005341D01*
X65481004Y-54134922D01*
X65481005Y-54134924D01*
X65560024Y-54282758D01*
X65608687Y-54443177D01*
X65625117Y-54610000D01*
X65608687Y-54776823D01*
X65560024Y-54937242D01*
X65489114Y-55069906D01*
X65481004Y-55085078D01*
X65374659Y-55214659D01*
X65245078Y-55321004D01*
X65245076Y-55321005D01*
X65097242Y-55400024D01*
X64936823Y-55448687D01*
X64811804Y-55461000D01*
X64728196Y-55461000D01*
X64603177Y-55448687D01*
X64442758Y-55400024D01*
X64294924Y-55321005D01*
X64294922Y-55321004D01*
X64165341Y-55214659D01*
X64058996Y-55085078D01*
X64050886Y-55069906D01*
X63979976Y-54937242D01*
X63931313Y-54776823D01*
X63914883Y-54610000D01*
X63931313Y-54443177D01*
X63979976Y-54282758D01*
X64058995Y-54134924D01*
X64058996Y-54134922D01*
X64165341Y-54005341D01*
X64294922Y-53898996D01*
X64312634Y-53889529D01*
X64442758Y-53819976D01*
X64603177Y-53771313D01*
X64728196Y-53759000D01*
X64811804Y-53759000D01*
X64936823Y-53771313D01*
X64936823Y-53771313D01*
G37*
G36*
X69325142Y-53828242D02*
G01*
X69473101Y-53889529D01*
X69606255Y-53978499D01*
X69719501Y-54091745D01*
X69808471Y-54224899D01*
X69869758Y-54372858D01*
X69901000Y-54529925D01*
X69901000Y-54690075D01*
X69869758Y-54847142D01*
X69808471Y-54995101D01*
X69719501Y-55128255D01*
X69606255Y-55241501D01*
X69473101Y-55330471D01*
X69325142Y-55391758D01*
X69168075Y-55423000D01*
X69007925Y-55423000D01*
X68850858Y-55391758D01*
X68702899Y-55330471D01*
X68569745Y-55241501D01*
X68456499Y-55128255D01*
X68367529Y-54995101D01*
X68306242Y-54847142D01*
X68275000Y-54690075D01*
X68275000Y-54529925D01*
X68306242Y-54372858D01*
X68367529Y-54224899D01*
X68456499Y-54091745D01*
X68569745Y-53978499D01*
X68702899Y-53889529D01*
X68850858Y-53828242D01*
X69007925Y-53797000D01*
X69168075Y-53797000D01*
X69325142Y-53828242D01*
X69325142Y-53828242D01*
G37*
G36*
X74405142Y-53828242D02*
G01*
X74553101Y-53889529D01*
X74686255Y-53978499D01*
X74799501Y-54091745D01*
X74888471Y-54224899D01*
X74949758Y-54372858D01*
X74981000Y-54529925D01*
X74981000Y-54690075D01*
X74949758Y-54847142D01*
X74888471Y-54995101D01*
X74799501Y-55128255D01*
X74686255Y-55241501D01*
X74553101Y-55330471D01*
X74405142Y-55391758D01*
X74248075Y-55423000D01*
X74087925Y-55423000D01*
X73930858Y-55391758D01*
X73782899Y-55330471D01*
X73649745Y-55241501D01*
X73536499Y-55128255D01*
X73447529Y-54995101D01*
X73386242Y-54847142D01*
X73355000Y-54690075D01*
X73355000Y-54529925D01*
X73386242Y-54372858D01*
X73447529Y-54224899D01*
X73536499Y-54091745D01*
X73649745Y-53978499D01*
X73782899Y-53889529D01*
X73930858Y-53828242D01*
X74087925Y-53797000D01*
X74248075Y-53797000D01*
X74405142Y-53828242D01*
X74405142Y-53828242D01*
G37*
G36*
X77707142Y-53828242D02*
G01*
X77855101Y-53889529D01*
X77988255Y-53978499D01*
X78101501Y-54091745D01*
X78190471Y-54224899D01*
X78251758Y-54372858D01*
X78283000Y-54529925D01*
X78283000Y-54690075D01*
X78251758Y-54847142D01*
X78190471Y-54995101D01*
X78101501Y-55128255D01*
X77988255Y-55241501D01*
X77855101Y-55330471D01*
X77707142Y-55391758D01*
X77550075Y-55423000D01*
X77389925Y-55423000D01*
X77232858Y-55391758D01*
X77084899Y-55330471D01*
X76951745Y-55241501D01*
X76838499Y-55128255D01*
X76749529Y-54995101D01*
X76688242Y-54847142D01*
X76657000Y-54690075D01*
X76657000Y-54529925D01*
X76688242Y-54372858D01*
X76749529Y-54224899D01*
X76838499Y-54091745D01*
X76951745Y-53978499D01*
X77084899Y-53889529D01*
X77232858Y-53828242D01*
X77389925Y-53797000D01*
X77550075Y-53797000D01*
X77707142Y-53828242D01*
X77707142Y-53828242D01*
G37*
G36*
X39607142Y-52558242D02*
G01*
X39755101Y-52619529D01*
X39888255Y-52708499D01*
X40001501Y-52821745D01*
X40090471Y-52954899D01*
X40151758Y-53102858D01*
X40183000Y-53259925D01*
X40183000Y-53420075D01*
X40151758Y-53577142D01*
X40090471Y-53725101D01*
X40001501Y-53858255D01*
X39888255Y-53971501D01*
X39755101Y-54060471D01*
X39607142Y-54121758D01*
X39450075Y-54153000D01*
X39289925Y-54153000D01*
X39132858Y-54121758D01*
X38984899Y-54060471D01*
X38851745Y-53971501D01*
X38738499Y-53858255D01*
X38649529Y-53725101D01*
X38588242Y-53577142D01*
X38557000Y-53420075D01*
X38557000Y-53259925D01*
X38588242Y-53102858D01*
X38649529Y-52954899D01*
X38738499Y-52821745D01*
X38851745Y-52708499D01*
X38984899Y-52619529D01*
X39132858Y-52558242D01*
X39289925Y-52527000D01*
X39450075Y-52527000D01*
X39607142Y-52558242D01*
X39607142Y-52558242D01*
G37*
G36*
X34527142Y-52558242D02*
G01*
X34675101Y-52619529D01*
X34808255Y-52708499D01*
X34921501Y-52821745D01*
X35010471Y-52954899D01*
X35071758Y-53102858D01*
X35103000Y-53259925D01*
X35103000Y-53420075D01*
X35071758Y-53577142D01*
X35010471Y-53725101D01*
X34921501Y-53858255D01*
X34808255Y-53971501D01*
X34675101Y-54060471D01*
X34527142Y-54121758D01*
X34370075Y-54153000D01*
X34209925Y-54153000D01*
X34052858Y-54121758D01*
X33904899Y-54060471D01*
X33771745Y-53971501D01*
X33658499Y-53858255D01*
X33569529Y-53725101D01*
X33508242Y-53577142D01*
X33477000Y-53420075D01*
X33477000Y-53259925D01*
X33508242Y-53102858D01*
X33569529Y-52954899D01*
X33658499Y-52821745D01*
X33771745Y-52708499D01*
X33904899Y-52619529D01*
X34052858Y-52558242D01*
X34209925Y-52527000D01*
X34370075Y-52527000D01*
X34527142Y-52558242D01*
X34527142Y-52558242D01*
G37*
G36*
X21827142Y-52558242D02*
G01*
X21975101Y-52619529D01*
X22108255Y-52708499D01*
X22221501Y-52821745D01*
X22310471Y-52954899D01*
X22371758Y-53102858D01*
X22403000Y-53259925D01*
X22403000Y-53420075D01*
X22371758Y-53577142D01*
X22310471Y-53725101D01*
X22221501Y-53858255D01*
X22108255Y-53971501D01*
X21975101Y-54060471D01*
X21827142Y-54121758D01*
X21670075Y-54153000D01*
X21509925Y-54153000D01*
X21352858Y-54121758D01*
X21204899Y-54060471D01*
X21071745Y-53971501D01*
X20958499Y-53858255D01*
X20869529Y-53725101D01*
X20808242Y-53577142D01*
X20777000Y-53420075D01*
X20777000Y-53259925D01*
X20808242Y-53102858D01*
X20869529Y-52954899D01*
X20958499Y-52821745D01*
X21071745Y-52708499D01*
X21204899Y-52619529D01*
X21352858Y-52558242D01*
X21509925Y-52527000D01*
X21670075Y-52527000D01*
X21827142Y-52558242D01*
X21827142Y-52558242D01*
G37*
G36*
X44687142Y-52558242D02*
G01*
X44835101Y-52619529D01*
X44968255Y-52708499D01*
X45081501Y-52821745D01*
X45170471Y-52954899D01*
X45231758Y-53102858D01*
X45263000Y-53259925D01*
X45263000Y-53420075D01*
X45231758Y-53577142D01*
X45170471Y-53725101D01*
X45081501Y-53858255D01*
X44968255Y-53971501D01*
X44835101Y-54060471D01*
X44687142Y-54121758D01*
X44530075Y-54153000D01*
X44369925Y-54153000D01*
X44212858Y-54121758D01*
X44064899Y-54060471D01*
X43931745Y-53971501D01*
X43818499Y-53858255D01*
X43729529Y-53725101D01*
X43668242Y-53577142D01*
X43637000Y-53420075D01*
X43637000Y-53259925D01*
X43668242Y-53102858D01*
X43729529Y-52954899D01*
X43818499Y-52821745D01*
X43931745Y-52708499D01*
X44064899Y-52619529D01*
X44212858Y-52558242D01*
X44369925Y-52527000D01*
X44530075Y-52527000D01*
X44687142Y-52558242D01*
X44687142Y-52558242D01*
G37*
G36*
X18017142Y-52558242D02*
G01*
X18165101Y-52619529D01*
X18298255Y-52708499D01*
X18411501Y-52821745D01*
X18500471Y-52954899D01*
X18561758Y-53102858D01*
X18593000Y-53259925D01*
X18593000Y-53420075D01*
X18561758Y-53577142D01*
X18500471Y-53725101D01*
X18411501Y-53858255D01*
X18298255Y-53971501D01*
X18165101Y-54060471D01*
X18017142Y-54121758D01*
X17860075Y-54153000D01*
X17699925Y-54153000D01*
X17542858Y-54121758D01*
X17394899Y-54060471D01*
X17261745Y-53971501D01*
X17148499Y-53858255D01*
X17059529Y-53725101D01*
X16998242Y-53577142D01*
X16967000Y-53420075D01*
X16967000Y-53259925D01*
X16998242Y-53102858D01*
X17059529Y-52954899D01*
X17148499Y-52821745D01*
X17261745Y-52708499D01*
X17394899Y-52619529D01*
X17542858Y-52558242D01*
X17699925Y-52527000D01*
X17860075Y-52527000D01*
X18017142Y-52558242D01*
X18017142Y-52558242D01*
G37*
G36*
X64936823Y-51231313D02*
G01*
X65097242Y-51279976D01*
X65227366Y-51349529D01*
X65245078Y-51358996D01*
X65374659Y-51465341D01*
X65481004Y-51594922D01*
X65481005Y-51594924D01*
X65560024Y-51742758D01*
X65608687Y-51903177D01*
X65625117Y-52070000D01*
X65608687Y-52236823D01*
X65560024Y-52397242D01*
X65490667Y-52527000D01*
X65481004Y-52545078D01*
X65374659Y-52674659D01*
X65245078Y-52781004D01*
X65245076Y-52781005D01*
X65097242Y-52860024D01*
X64936823Y-52908687D01*
X64811804Y-52921000D01*
X64728196Y-52921000D01*
X64603177Y-52908687D01*
X64442758Y-52860024D01*
X64294924Y-52781005D01*
X64294922Y-52781004D01*
X64165341Y-52674659D01*
X64058996Y-52545078D01*
X64049333Y-52527000D01*
X63979976Y-52397242D01*
X63931313Y-52236823D01*
X63914883Y-52070000D01*
X63931313Y-51903177D01*
X63979976Y-51742758D01*
X64058995Y-51594924D01*
X64058996Y-51594922D01*
X64165341Y-51465341D01*
X64294922Y-51358996D01*
X64312634Y-51349529D01*
X64442758Y-51279976D01*
X64603177Y-51231313D01*
X64728196Y-51219000D01*
X64811804Y-51219000D01*
X64936823Y-51231313D01*
X64936823Y-51231313D01*
G37*
G36*
X49696823Y-51231313D02*
G01*
X49857242Y-51279976D01*
X49987366Y-51349529D01*
X50005078Y-51358996D01*
X50134659Y-51465341D01*
X50241004Y-51594922D01*
X50241005Y-51594924D01*
X50320024Y-51742758D01*
X50368687Y-51903177D01*
X50385117Y-52070000D01*
X50368687Y-52236823D01*
X50320024Y-52397242D01*
X50250667Y-52527000D01*
X50241004Y-52545078D01*
X50134659Y-52674659D01*
X50005078Y-52781004D01*
X50005076Y-52781005D01*
X49857242Y-52860024D01*
X49696823Y-52908687D01*
X49571804Y-52921000D01*
X49488196Y-52921000D01*
X49363177Y-52908687D01*
X49202758Y-52860024D01*
X49054924Y-52781005D01*
X49054922Y-52781004D01*
X48925341Y-52674659D01*
X48818996Y-52545078D01*
X48809333Y-52527000D01*
X48739976Y-52397242D01*
X48691313Y-52236823D01*
X48674883Y-52070000D01*
X48691313Y-51903177D01*
X48739976Y-51742758D01*
X48818995Y-51594924D01*
X48818996Y-51594922D01*
X48925341Y-51465341D01*
X49054922Y-51358996D01*
X49072634Y-51349529D01*
X49202758Y-51279976D01*
X49363177Y-51231313D01*
X49488196Y-51219000D01*
X49571804Y-51219000D01*
X49696823Y-51231313D01*
X49696823Y-51231313D01*
G37*
G36*
X74405142Y-51288242D02*
G01*
X74553101Y-51349529D01*
X74686255Y-51438499D01*
X74799501Y-51551745D01*
X74888471Y-51684899D01*
X74949758Y-51832858D01*
X74981000Y-51989925D01*
X74981000Y-52150075D01*
X74949758Y-52307142D01*
X74888471Y-52455101D01*
X74799501Y-52588255D01*
X74686255Y-52701501D01*
X74553101Y-52790471D01*
X74405142Y-52851758D01*
X74248075Y-52883000D01*
X74087925Y-52883000D01*
X73930858Y-52851758D01*
X73782899Y-52790471D01*
X73649745Y-52701501D01*
X73536499Y-52588255D01*
X73447529Y-52455101D01*
X73386242Y-52307142D01*
X73355000Y-52150075D01*
X73355000Y-51989925D01*
X73386242Y-51832858D01*
X73447529Y-51684899D01*
X73536499Y-51551745D01*
X73649745Y-51438499D01*
X73782899Y-51349529D01*
X73930858Y-51288242D01*
X74087925Y-51257000D01*
X74248075Y-51257000D01*
X74405142Y-51288242D01*
X74405142Y-51288242D01*
G37*
G36*
X77707142Y-51288242D02*
G01*
X77855101Y-51349529D01*
X77988255Y-51438499D01*
X78101501Y-51551745D01*
X78190471Y-51684899D01*
X78251758Y-51832858D01*
X78283000Y-51989925D01*
X78283000Y-52150075D01*
X78251758Y-52307142D01*
X78190471Y-52455101D01*
X78101501Y-52588255D01*
X77988255Y-52701501D01*
X77855101Y-52790471D01*
X77707142Y-52851758D01*
X77550075Y-52883000D01*
X77389925Y-52883000D01*
X77232858Y-52851758D01*
X77084899Y-52790471D01*
X76951745Y-52701501D01*
X76838499Y-52588255D01*
X76749529Y-52455101D01*
X76688242Y-52307142D01*
X76657000Y-52150075D01*
X76657000Y-51989925D01*
X76688242Y-51832858D01*
X76749529Y-51684899D01*
X76838499Y-51551745D01*
X76951745Y-51438499D01*
X77084899Y-51349529D01*
X77232858Y-51288242D01*
X77389925Y-51257000D01*
X77550075Y-51257000D01*
X77707142Y-51288242D01*
X77707142Y-51288242D01*
G37*
G36*
X69325142Y-51288242D02*
G01*
X69473101Y-51349529D01*
X69606255Y-51438499D01*
X69719501Y-51551745D01*
X69808471Y-51684899D01*
X69869758Y-51832858D01*
X69901000Y-51989925D01*
X69901000Y-52150075D01*
X69869758Y-52307142D01*
X69808471Y-52455101D01*
X69719501Y-52588255D01*
X69606255Y-52701501D01*
X69473101Y-52790471D01*
X69325142Y-52851758D01*
X69168075Y-52883000D01*
X69007925Y-52883000D01*
X68850858Y-52851758D01*
X68702899Y-52790471D01*
X68569745Y-52701501D01*
X68456499Y-52588255D01*
X68367529Y-52455101D01*
X68306242Y-52307142D01*
X68275000Y-52150075D01*
X68275000Y-51989925D01*
X68306242Y-51832858D01*
X68367529Y-51684899D01*
X68456499Y-51551745D01*
X68569745Y-51438499D01*
X68702899Y-51349529D01*
X68850858Y-51288242D01*
X69007925Y-51257000D01*
X69168075Y-51257000D01*
X69325142Y-51288242D01*
X69325142Y-51288242D01*
G37*
G36*
X44610942Y-50018242D02*
G01*
X44758901Y-50079529D01*
X44892055Y-50168499D01*
X45005301Y-50281745D01*
X45094271Y-50414899D01*
X45155558Y-50562858D01*
X45186800Y-50719925D01*
X45186800Y-50880075D01*
X45155558Y-51037142D01*
X45094271Y-51185101D01*
X45005301Y-51318255D01*
X44892055Y-51431501D01*
X44758901Y-51520471D01*
X44610942Y-51581758D01*
X44453875Y-51613000D01*
X44293725Y-51613000D01*
X44136658Y-51581758D01*
X43988699Y-51520471D01*
X43855545Y-51431501D01*
X43742299Y-51318255D01*
X43653329Y-51185101D01*
X43592042Y-51037142D01*
X43560800Y-50880075D01*
X43560800Y-50719925D01*
X43592042Y-50562858D01*
X43653329Y-50414899D01*
X43742299Y-50281745D01*
X43855545Y-50168499D01*
X43988699Y-50079529D01*
X44136658Y-50018242D01*
X44293725Y-49987000D01*
X44453875Y-49987000D01*
X44610942Y-50018242D01*
X44610942Y-50018242D01*
G37*
G36*
X21750942Y-50018242D02*
G01*
X21898901Y-50079529D01*
X22032055Y-50168499D01*
X22145301Y-50281745D01*
X22234271Y-50414899D01*
X22295558Y-50562858D01*
X22326800Y-50719925D01*
X22326800Y-50880075D01*
X22295558Y-51037142D01*
X22234271Y-51185101D01*
X22145301Y-51318255D01*
X22032055Y-51431501D01*
X21898901Y-51520471D01*
X21750942Y-51581758D01*
X21593875Y-51613000D01*
X21433725Y-51613000D01*
X21276658Y-51581758D01*
X21128699Y-51520471D01*
X20995545Y-51431501D01*
X20882299Y-51318255D01*
X20793329Y-51185101D01*
X20732042Y-51037142D01*
X20700800Y-50880075D01*
X20700800Y-50719925D01*
X20732042Y-50562858D01*
X20793329Y-50414899D01*
X20882299Y-50281745D01*
X20995545Y-50168499D01*
X21128699Y-50079529D01*
X21276658Y-50018242D01*
X21433725Y-49987000D01*
X21593875Y-49987000D01*
X21750942Y-50018242D01*
X21750942Y-50018242D01*
G37*
G36*
X17940942Y-50018242D02*
G01*
X18088901Y-50079529D01*
X18222055Y-50168499D01*
X18335301Y-50281745D01*
X18424271Y-50414899D01*
X18485558Y-50562858D01*
X18516800Y-50719925D01*
X18516800Y-50880075D01*
X18485558Y-51037142D01*
X18424271Y-51185101D01*
X18335301Y-51318255D01*
X18222055Y-51431501D01*
X18088901Y-51520471D01*
X17940942Y-51581758D01*
X17783875Y-51613000D01*
X17623725Y-51613000D01*
X17466658Y-51581758D01*
X17318699Y-51520471D01*
X17185545Y-51431501D01*
X17072299Y-51318255D01*
X16983329Y-51185101D01*
X16922042Y-51037142D01*
X16890800Y-50880075D01*
X16890800Y-50719925D01*
X16922042Y-50562858D01*
X16983329Y-50414899D01*
X17072299Y-50281745D01*
X17185545Y-50168499D01*
X17318699Y-50079529D01*
X17466658Y-50018242D01*
X17623725Y-49987000D01*
X17783875Y-49987000D01*
X17940942Y-50018242D01*
X17940942Y-50018242D01*
G37*
G36*
X34450942Y-50018242D02*
G01*
X34598901Y-50079529D01*
X34732055Y-50168499D01*
X34845301Y-50281745D01*
X34934271Y-50414899D01*
X34995558Y-50562858D01*
X35026800Y-50719925D01*
X35026800Y-50880075D01*
X34995558Y-51037142D01*
X34934271Y-51185101D01*
X34845301Y-51318255D01*
X34732055Y-51431501D01*
X34598901Y-51520471D01*
X34450942Y-51581758D01*
X34293875Y-51613000D01*
X34133725Y-51613000D01*
X33976658Y-51581758D01*
X33828699Y-51520471D01*
X33695545Y-51431501D01*
X33582299Y-51318255D01*
X33493329Y-51185101D01*
X33432042Y-51037142D01*
X33400800Y-50880075D01*
X33400800Y-50719925D01*
X33432042Y-50562858D01*
X33493329Y-50414899D01*
X33582299Y-50281745D01*
X33695545Y-50168499D01*
X33828699Y-50079529D01*
X33976658Y-50018242D01*
X34133725Y-49987000D01*
X34293875Y-49987000D01*
X34450942Y-50018242D01*
X34450942Y-50018242D01*
G37*
G36*
X39530942Y-50018242D02*
G01*
X39678901Y-50079529D01*
X39812055Y-50168499D01*
X39925301Y-50281745D01*
X40014271Y-50414899D01*
X40075558Y-50562858D01*
X40106800Y-50719925D01*
X40106800Y-50880075D01*
X40075558Y-51037142D01*
X40014271Y-51185101D01*
X39925301Y-51318255D01*
X39812055Y-51431501D01*
X39678901Y-51520471D01*
X39530942Y-51581758D01*
X39373875Y-51613000D01*
X39213725Y-51613000D01*
X39056658Y-51581758D01*
X38908699Y-51520471D01*
X38775545Y-51431501D01*
X38662299Y-51318255D01*
X38573329Y-51185101D01*
X38512042Y-51037142D01*
X38480800Y-50880075D01*
X38480800Y-50719925D01*
X38512042Y-50562858D01*
X38573329Y-50414899D01*
X38662299Y-50281745D01*
X38775545Y-50168499D01*
X38908699Y-50079529D01*
X39056658Y-50018242D01*
X39213725Y-49987000D01*
X39373875Y-49987000D01*
X39530942Y-50018242D01*
X39530942Y-50018242D01*
G37*
G36*
X64936823Y-48691313D02*
G01*
X65097242Y-48739976D01*
X65227366Y-48809529D01*
X65245078Y-48818996D01*
X65374659Y-48925341D01*
X65481004Y-49054922D01*
X65481005Y-49054924D01*
X65560024Y-49202758D01*
X65608687Y-49363177D01*
X65625117Y-49530000D01*
X65608687Y-49696823D01*
X65560024Y-49857242D01*
X65490667Y-49987000D01*
X65481004Y-50005078D01*
X65374659Y-50134659D01*
X65245078Y-50241004D01*
X65245076Y-50241005D01*
X65097242Y-50320024D01*
X64936823Y-50368687D01*
X64811804Y-50381000D01*
X64728196Y-50381000D01*
X64603177Y-50368687D01*
X64442758Y-50320024D01*
X64294924Y-50241005D01*
X64294922Y-50241004D01*
X64165341Y-50134659D01*
X64058996Y-50005078D01*
X64049333Y-49987000D01*
X63979976Y-49857242D01*
X63931313Y-49696823D01*
X63914883Y-49530000D01*
X63931313Y-49363177D01*
X63979976Y-49202758D01*
X64058995Y-49054924D01*
X64058996Y-49054922D01*
X64165341Y-48925341D01*
X64294922Y-48818996D01*
X64312634Y-48809529D01*
X64442758Y-48739976D01*
X64603177Y-48691313D01*
X64728196Y-48679000D01*
X64811804Y-48679000D01*
X64936823Y-48691313D01*
X64936823Y-48691313D01*
G37*
G36*
X49696823Y-48691313D02*
G01*
X49857242Y-48739976D01*
X49987366Y-48809529D01*
X50005078Y-48818996D01*
X50134659Y-48925341D01*
X50241004Y-49054922D01*
X50241005Y-49054924D01*
X50320024Y-49202758D01*
X50368687Y-49363177D01*
X50385117Y-49530000D01*
X50368687Y-49696823D01*
X50320024Y-49857242D01*
X50250667Y-49987000D01*
X50241004Y-50005078D01*
X50134659Y-50134659D01*
X50005078Y-50241004D01*
X50005076Y-50241005D01*
X49857242Y-50320024D01*
X49696823Y-50368687D01*
X49571804Y-50381000D01*
X49488196Y-50381000D01*
X49363177Y-50368687D01*
X49202758Y-50320024D01*
X49054924Y-50241005D01*
X49054922Y-50241004D01*
X48925341Y-50134659D01*
X48818996Y-50005078D01*
X48809333Y-49987000D01*
X48739976Y-49857242D01*
X48691313Y-49696823D01*
X48674883Y-49530000D01*
X48691313Y-49363177D01*
X48739976Y-49202758D01*
X48818995Y-49054924D01*
X48818996Y-49054922D01*
X48925341Y-48925341D01*
X49054922Y-48818996D01*
X49072634Y-48809529D01*
X49202758Y-48739976D01*
X49363177Y-48691313D01*
X49488196Y-48679000D01*
X49571804Y-48679000D01*
X49696823Y-48691313D01*
X49696823Y-48691313D01*
G37*
G36*
X69325142Y-48748242D02*
G01*
X69473101Y-48809529D01*
X69606255Y-48898499D01*
X69719501Y-49011745D01*
X69808471Y-49144899D01*
X69869758Y-49292858D01*
X69901000Y-49449925D01*
X69901000Y-49610075D01*
X69869758Y-49767142D01*
X69808471Y-49915101D01*
X69719501Y-50048255D01*
X69606255Y-50161501D01*
X69473101Y-50250471D01*
X69325142Y-50311758D01*
X69168075Y-50343000D01*
X69007925Y-50343000D01*
X68850858Y-50311758D01*
X68702899Y-50250471D01*
X68569745Y-50161501D01*
X68456499Y-50048255D01*
X68367529Y-49915101D01*
X68306242Y-49767142D01*
X68275000Y-49610075D01*
X68275000Y-49449925D01*
X68306242Y-49292858D01*
X68367529Y-49144899D01*
X68456499Y-49011745D01*
X68569745Y-48898499D01*
X68702899Y-48809529D01*
X68850858Y-48748242D01*
X69007925Y-48717000D01*
X69168075Y-48717000D01*
X69325142Y-48748242D01*
X69325142Y-48748242D01*
G37*
G36*
X74405142Y-48748242D02*
G01*
X74553101Y-48809529D01*
X74686255Y-48898499D01*
X74799501Y-49011745D01*
X74888471Y-49144899D01*
X74949758Y-49292858D01*
X74981000Y-49449925D01*
X74981000Y-49610075D01*
X74949758Y-49767142D01*
X74888471Y-49915101D01*
X74799501Y-50048255D01*
X74686255Y-50161501D01*
X74553101Y-50250471D01*
X74405142Y-50311758D01*
X74248075Y-50343000D01*
X74087925Y-50343000D01*
X73930858Y-50311758D01*
X73782899Y-50250471D01*
X73649745Y-50161501D01*
X73536499Y-50048255D01*
X73447529Y-49915101D01*
X73386242Y-49767142D01*
X73355000Y-49610075D01*
X73355000Y-49449925D01*
X73386242Y-49292858D01*
X73447529Y-49144899D01*
X73536499Y-49011745D01*
X73649745Y-48898499D01*
X73782899Y-48809529D01*
X73930858Y-48748242D01*
X74087925Y-48717000D01*
X74248075Y-48717000D01*
X74405142Y-48748242D01*
X74405142Y-48748242D01*
G37*
G36*
X77707142Y-48748242D02*
G01*
X77855101Y-48809529D01*
X77988255Y-48898499D01*
X78101501Y-49011745D01*
X78190471Y-49144899D01*
X78251758Y-49292858D01*
X78283000Y-49449925D01*
X78283000Y-49610075D01*
X78251758Y-49767142D01*
X78190471Y-49915101D01*
X78101501Y-50048255D01*
X77988255Y-50161501D01*
X77855101Y-50250471D01*
X77707142Y-50311758D01*
X77550075Y-50343000D01*
X77389925Y-50343000D01*
X77232858Y-50311758D01*
X77084899Y-50250471D01*
X76951745Y-50161501D01*
X76838499Y-50048255D01*
X76749529Y-49915101D01*
X76688242Y-49767142D01*
X76657000Y-49610075D01*
X76657000Y-49449925D01*
X76688242Y-49292858D01*
X76749529Y-49144899D01*
X76838499Y-49011745D01*
X76951745Y-48898499D01*
X77084899Y-48809529D01*
X77232858Y-48748242D01*
X77389925Y-48717000D01*
X77550075Y-48717000D01*
X77707142Y-48748242D01*
X77707142Y-48748242D01*
G37*
G36*
X34527142Y-47478242D02*
G01*
X34675101Y-47539529D01*
X34808255Y-47628499D01*
X34921501Y-47741745D01*
X35010471Y-47874899D01*
X35071758Y-48022858D01*
X35103000Y-48179925D01*
X35103000Y-48340075D01*
X35071758Y-48497142D01*
X35010471Y-48645101D01*
X34921501Y-48778255D01*
X34808255Y-48891501D01*
X34675101Y-48980471D01*
X34527142Y-49041758D01*
X34370075Y-49073000D01*
X34209925Y-49073000D01*
X34052858Y-49041758D01*
X33904899Y-48980471D01*
X33771745Y-48891501D01*
X33658499Y-48778255D01*
X33569529Y-48645101D01*
X33508242Y-48497142D01*
X33477000Y-48340075D01*
X33477000Y-48179925D01*
X33508242Y-48022858D01*
X33569529Y-47874899D01*
X33658499Y-47741745D01*
X33771745Y-47628499D01*
X33904899Y-47539529D01*
X34052858Y-47478242D01*
X34209925Y-47447000D01*
X34370075Y-47447000D01*
X34527142Y-47478242D01*
X34527142Y-47478242D01*
G37*
G36*
X39607142Y-47478242D02*
G01*
X39755101Y-47539529D01*
X39888255Y-47628499D01*
X40001501Y-47741745D01*
X40090471Y-47874899D01*
X40151758Y-48022858D01*
X40183000Y-48179925D01*
X40183000Y-48340075D01*
X40151758Y-48497142D01*
X40090471Y-48645101D01*
X40001501Y-48778255D01*
X39888255Y-48891501D01*
X39755101Y-48980471D01*
X39607142Y-49041758D01*
X39450075Y-49073000D01*
X39289925Y-49073000D01*
X39132858Y-49041758D01*
X38984899Y-48980471D01*
X38851745Y-48891501D01*
X38738499Y-48778255D01*
X38649529Y-48645101D01*
X38588242Y-48497142D01*
X38557000Y-48340075D01*
X38557000Y-48179925D01*
X38588242Y-48022858D01*
X38649529Y-47874899D01*
X38738499Y-47741745D01*
X38851745Y-47628499D01*
X38984899Y-47539529D01*
X39132858Y-47478242D01*
X39289925Y-47447000D01*
X39450075Y-47447000D01*
X39607142Y-47478242D01*
X39607142Y-47478242D01*
G37*
G36*
X21827142Y-47478242D02*
G01*
X21975101Y-47539529D01*
X22108255Y-47628499D01*
X22221501Y-47741745D01*
X22310471Y-47874899D01*
X22371758Y-48022858D01*
X22403000Y-48179925D01*
X22403000Y-48340075D01*
X22371758Y-48497142D01*
X22310471Y-48645101D01*
X22221501Y-48778255D01*
X22108255Y-48891501D01*
X21975101Y-48980471D01*
X21827142Y-49041758D01*
X21670075Y-49073000D01*
X21509925Y-49073000D01*
X21352858Y-49041758D01*
X21204899Y-48980471D01*
X21071745Y-48891501D01*
X20958499Y-48778255D01*
X20869529Y-48645101D01*
X20808242Y-48497142D01*
X20777000Y-48340075D01*
X20777000Y-48179925D01*
X20808242Y-48022858D01*
X20869529Y-47874899D01*
X20958499Y-47741745D01*
X21071745Y-47628499D01*
X21204899Y-47539529D01*
X21352858Y-47478242D01*
X21509925Y-47447000D01*
X21670075Y-47447000D01*
X21827142Y-47478242D01*
X21827142Y-47478242D01*
G37*
G36*
X18017142Y-47478242D02*
G01*
X18165101Y-47539529D01*
X18298255Y-47628499D01*
X18411501Y-47741745D01*
X18500471Y-47874899D01*
X18561758Y-48022858D01*
X18593000Y-48179925D01*
X18593000Y-48340075D01*
X18561758Y-48497142D01*
X18500471Y-48645101D01*
X18411501Y-48778255D01*
X18298255Y-48891501D01*
X18165101Y-48980471D01*
X18017142Y-49041758D01*
X17860075Y-49073000D01*
X17699925Y-49073000D01*
X17542858Y-49041758D01*
X17394899Y-48980471D01*
X17261745Y-48891501D01*
X17148499Y-48778255D01*
X17059529Y-48645101D01*
X16998242Y-48497142D01*
X16967000Y-48340075D01*
X16967000Y-48179925D01*
X16998242Y-48022858D01*
X17059529Y-47874899D01*
X17148499Y-47741745D01*
X17261745Y-47628499D01*
X17394899Y-47539529D01*
X17542858Y-47478242D01*
X17699925Y-47447000D01*
X17860075Y-47447000D01*
X18017142Y-47478242D01*
X18017142Y-47478242D01*
G37*
G36*
X44687142Y-47478242D02*
G01*
X44835101Y-47539529D01*
X44968255Y-47628499D01*
X45081501Y-47741745D01*
X45170471Y-47874899D01*
X45231758Y-48022858D01*
X45263000Y-48179925D01*
X45263000Y-48340075D01*
X45231758Y-48497142D01*
X45170471Y-48645101D01*
X45081501Y-48778255D01*
X44968255Y-48891501D01*
X44835101Y-48980471D01*
X44687142Y-49041758D01*
X44530075Y-49073000D01*
X44369925Y-49073000D01*
X44212858Y-49041758D01*
X44064899Y-48980471D01*
X43931745Y-48891501D01*
X43818499Y-48778255D01*
X43729529Y-48645101D01*
X43668242Y-48497142D01*
X43637000Y-48340075D01*
X43637000Y-48179925D01*
X43668242Y-48022858D01*
X43729529Y-47874899D01*
X43818499Y-47741745D01*
X43931745Y-47628499D01*
X44064899Y-47539529D01*
X44212858Y-47478242D01*
X44369925Y-47447000D01*
X44530075Y-47447000D01*
X44687142Y-47478242D01*
X44687142Y-47478242D01*
G37*
G36*
X64936823Y-46151313D02*
G01*
X65097242Y-46199976D01*
X65227366Y-46269529D01*
X65245078Y-46278996D01*
X65374659Y-46385341D01*
X65481004Y-46514922D01*
X65481005Y-46514924D01*
X65560024Y-46662758D01*
X65608687Y-46823177D01*
X65625117Y-46990000D01*
X65608687Y-47156823D01*
X65560024Y-47317242D01*
X65490667Y-47447000D01*
X65481004Y-47465078D01*
X65374659Y-47594659D01*
X65245078Y-47701004D01*
X65245076Y-47701005D01*
X65097242Y-47780024D01*
X64936823Y-47828687D01*
X64811804Y-47841000D01*
X64728196Y-47841000D01*
X64603177Y-47828687D01*
X64442758Y-47780024D01*
X64294924Y-47701005D01*
X64294922Y-47701004D01*
X64165341Y-47594659D01*
X64058996Y-47465078D01*
X64049333Y-47447000D01*
X63979976Y-47317242D01*
X63931313Y-47156823D01*
X63914883Y-46990000D01*
X63931313Y-46823177D01*
X63979976Y-46662758D01*
X64058995Y-46514924D01*
X64058996Y-46514922D01*
X64165341Y-46385341D01*
X64294922Y-46278996D01*
X64312634Y-46269529D01*
X64442758Y-46199976D01*
X64603177Y-46151313D01*
X64728196Y-46139000D01*
X64811804Y-46139000D01*
X64936823Y-46151313D01*
X64936823Y-46151313D01*
G37*
G36*
X49696823Y-46151313D02*
G01*
X49857242Y-46199976D01*
X49987366Y-46269529D01*
X50005078Y-46278996D01*
X50134659Y-46385341D01*
X50241004Y-46514922D01*
X50241005Y-46514924D01*
X50320024Y-46662758D01*
X50368687Y-46823177D01*
X50385117Y-46990000D01*
X50368687Y-47156823D01*
X50320024Y-47317242D01*
X50250667Y-47447000D01*
X50241004Y-47465078D01*
X50134659Y-47594659D01*
X50005078Y-47701004D01*
X50005076Y-47701005D01*
X49857242Y-47780024D01*
X49696823Y-47828687D01*
X49571804Y-47841000D01*
X49488196Y-47841000D01*
X49363177Y-47828687D01*
X49202758Y-47780024D01*
X49054924Y-47701005D01*
X49054922Y-47701004D01*
X48925341Y-47594659D01*
X48818996Y-47465078D01*
X48809333Y-47447000D01*
X48739976Y-47317242D01*
X48691313Y-47156823D01*
X48674883Y-46990000D01*
X48691313Y-46823177D01*
X48739976Y-46662758D01*
X48818995Y-46514924D01*
X48818996Y-46514922D01*
X48925341Y-46385341D01*
X49054922Y-46278996D01*
X49072634Y-46269529D01*
X49202758Y-46199976D01*
X49363177Y-46151313D01*
X49488196Y-46139000D01*
X49571804Y-46139000D01*
X49696823Y-46151313D01*
X49696823Y-46151313D01*
G37*
G36*
X74481342Y-46208242D02*
G01*
X74629301Y-46269529D01*
X74762455Y-46358499D01*
X74875701Y-46471745D01*
X74964671Y-46604899D01*
X75025958Y-46752858D01*
X75057200Y-46909925D01*
X75057200Y-47070075D01*
X75025958Y-47227142D01*
X74964671Y-47375101D01*
X74875701Y-47508255D01*
X74762455Y-47621501D01*
X74629301Y-47710471D01*
X74481342Y-47771758D01*
X74324275Y-47803000D01*
X74164125Y-47803000D01*
X74007058Y-47771758D01*
X73859099Y-47710471D01*
X73725945Y-47621501D01*
X73612699Y-47508255D01*
X73523729Y-47375101D01*
X73462442Y-47227142D01*
X73431200Y-47070075D01*
X73431200Y-46909925D01*
X73462442Y-46752858D01*
X73523729Y-46604899D01*
X73612699Y-46471745D01*
X73725945Y-46358499D01*
X73859099Y-46269529D01*
X74007058Y-46208242D01*
X74164125Y-46177000D01*
X74324275Y-46177000D01*
X74481342Y-46208242D01*
X74481342Y-46208242D01*
G37*
G36*
X69401342Y-46208242D02*
G01*
X69549301Y-46269529D01*
X69682455Y-46358499D01*
X69795701Y-46471745D01*
X69884671Y-46604899D01*
X69945958Y-46752858D01*
X69977200Y-46909925D01*
X69977200Y-47070075D01*
X69945958Y-47227142D01*
X69884671Y-47375101D01*
X69795701Y-47508255D01*
X69682455Y-47621501D01*
X69549301Y-47710471D01*
X69401342Y-47771758D01*
X69244275Y-47803000D01*
X69084125Y-47803000D01*
X68927058Y-47771758D01*
X68779099Y-47710471D01*
X68645945Y-47621501D01*
X68532699Y-47508255D01*
X68443729Y-47375101D01*
X68382442Y-47227142D01*
X68351200Y-47070075D01*
X68351200Y-46909925D01*
X68382442Y-46752858D01*
X68443729Y-46604899D01*
X68532699Y-46471745D01*
X68645945Y-46358499D01*
X68779099Y-46269529D01*
X68927058Y-46208242D01*
X69084125Y-46177000D01*
X69244275Y-46177000D01*
X69401342Y-46208242D01*
X69401342Y-46208242D01*
G37*
G36*
X77783342Y-46208242D02*
G01*
X77931301Y-46269529D01*
X78064455Y-46358499D01*
X78177701Y-46471745D01*
X78266671Y-46604899D01*
X78327958Y-46752858D01*
X78359200Y-46909925D01*
X78359200Y-47070075D01*
X78327958Y-47227142D01*
X78266671Y-47375101D01*
X78177701Y-47508255D01*
X78064455Y-47621501D01*
X77931301Y-47710471D01*
X77783342Y-47771758D01*
X77626275Y-47803000D01*
X77466125Y-47803000D01*
X77309058Y-47771758D01*
X77161099Y-47710471D01*
X77027945Y-47621501D01*
X76914699Y-47508255D01*
X76825729Y-47375101D01*
X76764442Y-47227142D01*
X76733200Y-47070075D01*
X76733200Y-46909925D01*
X76764442Y-46752858D01*
X76825729Y-46604899D01*
X76914699Y-46471745D01*
X77027945Y-46358499D01*
X77161099Y-46269529D01*
X77309058Y-46208242D01*
X77466125Y-46177000D01*
X77626275Y-46177000D01*
X77783342Y-46208242D01*
X77783342Y-46208242D01*
G37*
G36*
X17940942Y-44938242D02*
G01*
X18088901Y-44999529D01*
X18222055Y-45088499D01*
X18335301Y-45201745D01*
X18424271Y-45334899D01*
X18485558Y-45482858D01*
X18516800Y-45639925D01*
X18516800Y-45800075D01*
X18485558Y-45957142D01*
X18424271Y-46105101D01*
X18335301Y-46238255D01*
X18222055Y-46351501D01*
X18088901Y-46440471D01*
X17940942Y-46501758D01*
X17783875Y-46533000D01*
X17623725Y-46533000D01*
X17466658Y-46501758D01*
X17318699Y-46440471D01*
X17185545Y-46351501D01*
X17072299Y-46238255D01*
X16983329Y-46105101D01*
X16922042Y-45957142D01*
X16890800Y-45800075D01*
X16890800Y-45639925D01*
X16922042Y-45482858D01*
X16983329Y-45334899D01*
X17072299Y-45201745D01*
X17185545Y-45088499D01*
X17318699Y-44999529D01*
X17466658Y-44938242D01*
X17623725Y-44907000D01*
X17783875Y-44907000D01*
X17940942Y-44938242D01*
X17940942Y-44938242D01*
G37*
G36*
X34450942Y-44938242D02*
G01*
X34598901Y-44999529D01*
X34732055Y-45088499D01*
X34845301Y-45201745D01*
X34934271Y-45334899D01*
X34995558Y-45482858D01*
X35026800Y-45639925D01*
X35026800Y-45800075D01*
X34995558Y-45957142D01*
X34934271Y-46105101D01*
X34845301Y-46238255D01*
X34732055Y-46351501D01*
X34598901Y-46440471D01*
X34450942Y-46501758D01*
X34293875Y-46533000D01*
X34133725Y-46533000D01*
X33976658Y-46501758D01*
X33828699Y-46440471D01*
X33695545Y-46351501D01*
X33582299Y-46238255D01*
X33493329Y-46105101D01*
X33432042Y-45957142D01*
X33400800Y-45800075D01*
X33400800Y-45639925D01*
X33432042Y-45482858D01*
X33493329Y-45334899D01*
X33582299Y-45201745D01*
X33695545Y-45088499D01*
X33828699Y-44999529D01*
X33976658Y-44938242D01*
X34133725Y-44907000D01*
X34293875Y-44907000D01*
X34450942Y-44938242D01*
X34450942Y-44938242D01*
G37*
G36*
X44610942Y-44938242D02*
G01*
X44758901Y-44999529D01*
X44892055Y-45088499D01*
X45005301Y-45201745D01*
X45094271Y-45334899D01*
X45155558Y-45482858D01*
X45186800Y-45639925D01*
X45186800Y-45800075D01*
X45155558Y-45957142D01*
X45094271Y-46105101D01*
X45005301Y-46238255D01*
X44892055Y-46351501D01*
X44758901Y-46440471D01*
X44610942Y-46501758D01*
X44453875Y-46533000D01*
X44293725Y-46533000D01*
X44136658Y-46501758D01*
X43988699Y-46440471D01*
X43855545Y-46351501D01*
X43742299Y-46238255D01*
X43653329Y-46105101D01*
X43592042Y-45957142D01*
X43560800Y-45800075D01*
X43560800Y-45639925D01*
X43592042Y-45482858D01*
X43653329Y-45334899D01*
X43742299Y-45201745D01*
X43855545Y-45088499D01*
X43988699Y-44999529D01*
X44136658Y-44938242D01*
X44293725Y-44907000D01*
X44453875Y-44907000D01*
X44610942Y-44938242D01*
X44610942Y-44938242D01*
G37*
G36*
X21750942Y-44938242D02*
G01*
X21898901Y-44999529D01*
X22032055Y-45088499D01*
X22145301Y-45201745D01*
X22234271Y-45334899D01*
X22295558Y-45482858D01*
X22326800Y-45639925D01*
X22326800Y-45800075D01*
X22295558Y-45957142D01*
X22234271Y-46105101D01*
X22145301Y-46238255D01*
X22032055Y-46351501D01*
X21898901Y-46440471D01*
X21750942Y-46501758D01*
X21593875Y-46533000D01*
X21433725Y-46533000D01*
X21276658Y-46501758D01*
X21128699Y-46440471D01*
X20995545Y-46351501D01*
X20882299Y-46238255D01*
X20793329Y-46105101D01*
X20732042Y-45957142D01*
X20700800Y-45800075D01*
X20700800Y-45639925D01*
X20732042Y-45482858D01*
X20793329Y-45334899D01*
X20882299Y-45201745D01*
X20995545Y-45088499D01*
X21128699Y-44999529D01*
X21276658Y-44938242D01*
X21433725Y-44907000D01*
X21593875Y-44907000D01*
X21750942Y-44938242D01*
X21750942Y-44938242D01*
G37*
G36*
X39530942Y-44938242D02*
G01*
X39678901Y-44999529D01*
X39812055Y-45088499D01*
X39925301Y-45201745D01*
X40014271Y-45334899D01*
X40075558Y-45482858D01*
X40106800Y-45639925D01*
X40106800Y-45800075D01*
X40075558Y-45957142D01*
X40014271Y-46105101D01*
X39925301Y-46238255D01*
X39812055Y-46351501D01*
X39678901Y-46440471D01*
X39530942Y-46501758D01*
X39373875Y-46533000D01*
X39213725Y-46533000D01*
X39056658Y-46501758D01*
X38908699Y-46440471D01*
X38775545Y-46351501D01*
X38662299Y-46238255D01*
X38573329Y-46105101D01*
X38512042Y-45957142D01*
X38480800Y-45800075D01*
X38480800Y-45639925D01*
X38512042Y-45482858D01*
X38573329Y-45334899D01*
X38662299Y-45201745D01*
X38775545Y-45088499D01*
X38908699Y-44999529D01*
X39056658Y-44938242D01*
X39213725Y-44907000D01*
X39373875Y-44907000D01*
X39530942Y-44938242D01*
X39530942Y-44938242D01*
G37*
G36*
X64936823Y-43611313D02*
G01*
X65097242Y-43659976D01*
X65227366Y-43729529D01*
X65245078Y-43738996D01*
X65374659Y-43845341D01*
X65481004Y-43974922D01*
X65481005Y-43974924D01*
X65560024Y-44122758D01*
X65608687Y-44283177D01*
X65625117Y-44450000D01*
X65608687Y-44616823D01*
X65560024Y-44777242D01*
X65490667Y-44907000D01*
X65481004Y-44925078D01*
X65374659Y-45054659D01*
X65245078Y-45161004D01*
X65245076Y-45161005D01*
X65097242Y-45240024D01*
X64936823Y-45288687D01*
X64811804Y-45301000D01*
X64728196Y-45301000D01*
X64603177Y-45288687D01*
X64442758Y-45240024D01*
X64294924Y-45161005D01*
X64294922Y-45161004D01*
X64165341Y-45054659D01*
X64058996Y-44925078D01*
X64049333Y-44907000D01*
X63979976Y-44777242D01*
X63931313Y-44616823D01*
X63914883Y-44450000D01*
X63931313Y-44283177D01*
X63979976Y-44122758D01*
X64058995Y-43974924D01*
X64058996Y-43974922D01*
X64165341Y-43845341D01*
X64294922Y-43738996D01*
X64312634Y-43729529D01*
X64442758Y-43659976D01*
X64603177Y-43611313D01*
X64728196Y-43599000D01*
X64811804Y-43599000D01*
X64936823Y-43611313D01*
X64936823Y-43611313D01*
G37*
G36*
X49696823Y-43611313D02*
G01*
X49857242Y-43659976D01*
X49987366Y-43729529D01*
X50005078Y-43738996D01*
X50134659Y-43845341D01*
X50241004Y-43974922D01*
X50241005Y-43974924D01*
X50320024Y-44122758D01*
X50368687Y-44283177D01*
X50385117Y-44450000D01*
X50368687Y-44616823D01*
X50320024Y-44777242D01*
X50250667Y-44907000D01*
X50241004Y-44925078D01*
X50134659Y-45054659D01*
X50005078Y-45161004D01*
X50005076Y-45161005D01*
X49857242Y-45240024D01*
X49696823Y-45288687D01*
X49571804Y-45301000D01*
X49488196Y-45301000D01*
X49363177Y-45288687D01*
X49202758Y-45240024D01*
X49054924Y-45161005D01*
X49054922Y-45161004D01*
X48925341Y-45054659D01*
X48818996Y-44925078D01*
X48809333Y-44907000D01*
X48739976Y-44777242D01*
X48691313Y-44616823D01*
X48674883Y-44450000D01*
X48691313Y-44283177D01*
X48739976Y-44122758D01*
X48818995Y-43974924D01*
X48818996Y-43974922D01*
X48925341Y-43845341D01*
X49054922Y-43738996D01*
X49072634Y-43729529D01*
X49202758Y-43659976D01*
X49363177Y-43611313D01*
X49488196Y-43599000D01*
X49571804Y-43599000D01*
X49696823Y-43611313D01*
X49696823Y-43611313D01*
G37*
G36*
X69325142Y-43668242D02*
G01*
X69473101Y-43729529D01*
X69606255Y-43818499D01*
X69719501Y-43931745D01*
X69808471Y-44064899D01*
X69869758Y-44212858D01*
X69901000Y-44369925D01*
X69901000Y-44530075D01*
X69869758Y-44687142D01*
X69808471Y-44835101D01*
X69719501Y-44968255D01*
X69606255Y-45081501D01*
X69473101Y-45170471D01*
X69325142Y-45231758D01*
X69168075Y-45263000D01*
X69007925Y-45263000D01*
X68850858Y-45231758D01*
X68702899Y-45170471D01*
X68569745Y-45081501D01*
X68456499Y-44968255D01*
X68367529Y-44835101D01*
X68306242Y-44687142D01*
X68275000Y-44530075D01*
X68275000Y-44369925D01*
X68306242Y-44212858D01*
X68367529Y-44064899D01*
X68456499Y-43931745D01*
X68569745Y-43818499D01*
X68702899Y-43729529D01*
X68850858Y-43668242D01*
X69007925Y-43637000D01*
X69168075Y-43637000D01*
X69325142Y-43668242D01*
X69325142Y-43668242D01*
G37*
G36*
X77707142Y-43668242D02*
G01*
X77855101Y-43729529D01*
X77988255Y-43818499D01*
X78101501Y-43931745D01*
X78190471Y-44064899D01*
X78251758Y-44212858D01*
X78283000Y-44369925D01*
X78283000Y-44530075D01*
X78251758Y-44687142D01*
X78190471Y-44835101D01*
X78101501Y-44968255D01*
X77988255Y-45081501D01*
X77855101Y-45170471D01*
X77707142Y-45231758D01*
X77550075Y-45263000D01*
X77389925Y-45263000D01*
X77232858Y-45231758D01*
X77084899Y-45170471D01*
X76951745Y-45081501D01*
X76838499Y-44968255D01*
X76749529Y-44835101D01*
X76688242Y-44687142D01*
X76657000Y-44530075D01*
X76657000Y-44369925D01*
X76688242Y-44212858D01*
X76749529Y-44064899D01*
X76838499Y-43931745D01*
X76951745Y-43818499D01*
X77084899Y-43729529D01*
X77232858Y-43668242D01*
X77389925Y-43637000D01*
X77550075Y-43637000D01*
X77707142Y-43668242D01*
X77707142Y-43668242D01*
G37*
G36*
X74405142Y-43668242D02*
G01*
X74553101Y-43729529D01*
X74686255Y-43818499D01*
X74799501Y-43931745D01*
X74888471Y-44064899D01*
X74949758Y-44212858D01*
X74981000Y-44369925D01*
X74981000Y-44530075D01*
X74949758Y-44687142D01*
X74888471Y-44835101D01*
X74799501Y-44968255D01*
X74686255Y-45081501D01*
X74553101Y-45170471D01*
X74405142Y-45231758D01*
X74248075Y-45263000D01*
X74087925Y-45263000D01*
X73930858Y-45231758D01*
X73782899Y-45170471D01*
X73649745Y-45081501D01*
X73536499Y-44968255D01*
X73447529Y-44835101D01*
X73386242Y-44687142D01*
X73355000Y-44530075D01*
X73355000Y-44369925D01*
X73386242Y-44212858D01*
X73447529Y-44064899D01*
X73536499Y-43931745D01*
X73649745Y-43818499D01*
X73782899Y-43729529D01*
X73930858Y-43668242D01*
X74087925Y-43637000D01*
X74248075Y-43637000D01*
X74405142Y-43668242D01*
X74405142Y-43668242D01*
G37*
G36*
X21827142Y-42398242D02*
G01*
X21975101Y-42459529D01*
X22108255Y-42548499D01*
X22221501Y-42661745D01*
X22310471Y-42794899D01*
X22371758Y-42942858D01*
X22403000Y-43099925D01*
X22403000Y-43260075D01*
X22371758Y-43417142D01*
X22310471Y-43565101D01*
X22221501Y-43698255D01*
X22108255Y-43811501D01*
X21975101Y-43900471D01*
X21827142Y-43961758D01*
X21670075Y-43993000D01*
X21509925Y-43993000D01*
X21352858Y-43961758D01*
X21204899Y-43900471D01*
X21071745Y-43811501D01*
X20958499Y-43698255D01*
X20869529Y-43565101D01*
X20808242Y-43417142D01*
X20777000Y-43260075D01*
X20777000Y-43099925D01*
X20808242Y-42942858D01*
X20869529Y-42794899D01*
X20958499Y-42661745D01*
X21071745Y-42548499D01*
X21204899Y-42459529D01*
X21352858Y-42398242D01*
X21509925Y-42367000D01*
X21670075Y-42367000D01*
X21827142Y-42398242D01*
X21827142Y-42398242D01*
G37*
G36*
X44687142Y-42398242D02*
G01*
X44835101Y-42459529D01*
X44968255Y-42548499D01*
X45081501Y-42661745D01*
X45170471Y-42794899D01*
X45231758Y-42942858D01*
X45263000Y-43099925D01*
X45263000Y-43260075D01*
X45231758Y-43417142D01*
X45170471Y-43565101D01*
X45081501Y-43698255D01*
X44968255Y-43811501D01*
X44835101Y-43900471D01*
X44687142Y-43961758D01*
X44530075Y-43993000D01*
X44369925Y-43993000D01*
X44212858Y-43961758D01*
X44064899Y-43900471D01*
X43931745Y-43811501D01*
X43818499Y-43698255D01*
X43729529Y-43565101D01*
X43668242Y-43417142D01*
X43637000Y-43260075D01*
X43637000Y-43099925D01*
X43668242Y-42942858D01*
X43729529Y-42794899D01*
X43818499Y-42661745D01*
X43931745Y-42548499D01*
X44064899Y-42459529D01*
X44212858Y-42398242D01*
X44369925Y-42367000D01*
X44530075Y-42367000D01*
X44687142Y-42398242D01*
X44687142Y-42398242D01*
G37*
G36*
X18017142Y-42398242D02*
G01*
X18165101Y-42459529D01*
X18298255Y-42548499D01*
X18411501Y-42661745D01*
X18500471Y-42794899D01*
X18561758Y-42942858D01*
X18593000Y-43099925D01*
X18593000Y-43260075D01*
X18561758Y-43417142D01*
X18500471Y-43565101D01*
X18411501Y-43698255D01*
X18298255Y-43811501D01*
X18165101Y-43900471D01*
X18017142Y-43961758D01*
X17860075Y-43993000D01*
X17699925Y-43993000D01*
X17542858Y-43961758D01*
X17394899Y-43900471D01*
X17261745Y-43811501D01*
X17148499Y-43698255D01*
X17059529Y-43565101D01*
X16998242Y-43417142D01*
X16967000Y-43260075D01*
X16967000Y-43099925D01*
X16998242Y-42942858D01*
X17059529Y-42794899D01*
X17148499Y-42661745D01*
X17261745Y-42548499D01*
X17394899Y-42459529D01*
X17542858Y-42398242D01*
X17699925Y-42367000D01*
X17860075Y-42367000D01*
X18017142Y-42398242D01*
X18017142Y-42398242D01*
G37*
G36*
X34527142Y-42398242D02*
G01*
X34675101Y-42459529D01*
X34808255Y-42548499D01*
X34921501Y-42661745D01*
X35010471Y-42794899D01*
X35071758Y-42942858D01*
X35103000Y-43099925D01*
X35103000Y-43260075D01*
X35071758Y-43417142D01*
X35010471Y-43565101D01*
X34921501Y-43698255D01*
X34808255Y-43811501D01*
X34675101Y-43900471D01*
X34527142Y-43961758D01*
X34370075Y-43993000D01*
X34209925Y-43993000D01*
X34052858Y-43961758D01*
X33904899Y-43900471D01*
X33771745Y-43811501D01*
X33658499Y-43698255D01*
X33569529Y-43565101D01*
X33508242Y-43417142D01*
X33477000Y-43260075D01*
X33477000Y-43099925D01*
X33508242Y-42942858D01*
X33569529Y-42794899D01*
X33658499Y-42661745D01*
X33771745Y-42548499D01*
X33904899Y-42459529D01*
X34052858Y-42398242D01*
X34209925Y-42367000D01*
X34370075Y-42367000D01*
X34527142Y-42398242D01*
X34527142Y-42398242D01*
G37*
G36*
X39607142Y-42398242D02*
G01*
X39755101Y-42459529D01*
X39888255Y-42548499D01*
X40001501Y-42661745D01*
X40090471Y-42794899D01*
X40151758Y-42942858D01*
X40183000Y-43099925D01*
X40183000Y-43260075D01*
X40151758Y-43417142D01*
X40090471Y-43565101D01*
X40001501Y-43698255D01*
X39888255Y-43811501D01*
X39755101Y-43900471D01*
X39607142Y-43961758D01*
X39450075Y-43993000D01*
X39289925Y-43993000D01*
X39132858Y-43961758D01*
X38984899Y-43900471D01*
X38851745Y-43811501D01*
X38738499Y-43698255D01*
X38649529Y-43565101D01*
X38588242Y-43417142D01*
X38557000Y-43260075D01*
X38557000Y-43099925D01*
X38588242Y-42942858D01*
X38649529Y-42794899D01*
X38738499Y-42661745D01*
X38851745Y-42548499D01*
X38984899Y-42459529D01*
X39132858Y-42398242D01*
X39289925Y-42367000D01*
X39450075Y-42367000D01*
X39607142Y-42398242D01*
X39607142Y-42398242D01*
G37*
G36*
X64936823Y-41071313D02*
G01*
X65097242Y-41119976D01*
X65227366Y-41189529D01*
X65245078Y-41198996D01*
X65374659Y-41305341D01*
X65481004Y-41434922D01*
X65481005Y-41434924D01*
X65560024Y-41582758D01*
X65608687Y-41743177D01*
X65625117Y-41910000D01*
X65608687Y-42076823D01*
X65560024Y-42237242D01*
X65490667Y-42367000D01*
X65481004Y-42385078D01*
X65374659Y-42514659D01*
X65245078Y-42621004D01*
X65245076Y-42621005D01*
X65097242Y-42700024D01*
X64936823Y-42748687D01*
X64811804Y-42761000D01*
X64728196Y-42761000D01*
X64603177Y-42748687D01*
X64442758Y-42700024D01*
X64294924Y-42621005D01*
X64294922Y-42621004D01*
X64165341Y-42514659D01*
X64058996Y-42385078D01*
X64049333Y-42367000D01*
X63979976Y-42237242D01*
X63931313Y-42076823D01*
X63914883Y-41910000D01*
X63931313Y-41743177D01*
X63979976Y-41582758D01*
X64058995Y-41434924D01*
X64058996Y-41434922D01*
X64165341Y-41305341D01*
X64294922Y-41198996D01*
X64312634Y-41189529D01*
X64442758Y-41119976D01*
X64603177Y-41071313D01*
X64728196Y-41059000D01*
X64811804Y-41059000D01*
X64936823Y-41071313D01*
X64936823Y-41071313D01*
G37*
G36*
X49696823Y-41071313D02*
G01*
X49857242Y-41119976D01*
X49987366Y-41189529D01*
X50005078Y-41198996D01*
X50134659Y-41305341D01*
X50241004Y-41434922D01*
X50241005Y-41434924D01*
X50320024Y-41582758D01*
X50368687Y-41743177D01*
X50385117Y-41910000D01*
X50368687Y-42076823D01*
X50320024Y-42237242D01*
X50250667Y-42367000D01*
X50241004Y-42385078D01*
X50134659Y-42514659D01*
X50005078Y-42621004D01*
X50005076Y-42621005D01*
X49857242Y-42700024D01*
X49696823Y-42748687D01*
X49571804Y-42761000D01*
X49488196Y-42761000D01*
X49363177Y-42748687D01*
X49202758Y-42700024D01*
X49054924Y-42621005D01*
X49054922Y-42621004D01*
X48925341Y-42514659D01*
X48818996Y-42385078D01*
X48809333Y-42367000D01*
X48739976Y-42237242D01*
X48691313Y-42076823D01*
X48674883Y-41910000D01*
X48691313Y-41743177D01*
X48739976Y-41582758D01*
X48818995Y-41434924D01*
X48818996Y-41434922D01*
X48925341Y-41305341D01*
X49054922Y-41198996D01*
X49072634Y-41189529D01*
X49202758Y-41119976D01*
X49363177Y-41071313D01*
X49488196Y-41059000D01*
X49571804Y-41059000D01*
X49696823Y-41071313D01*
X49696823Y-41071313D01*
G37*
G36*
X77707142Y-41128242D02*
G01*
X77855101Y-41189529D01*
X77988255Y-41278499D01*
X78101501Y-41391745D01*
X78190471Y-41524899D01*
X78251758Y-41672858D01*
X78283000Y-41829925D01*
X78283000Y-41990075D01*
X78251758Y-42147142D01*
X78190471Y-42295101D01*
X78101501Y-42428255D01*
X77988255Y-42541501D01*
X77855101Y-42630471D01*
X77707142Y-42691758D01*
X77550075Y-42723000D01*
X77389925Y-42723000D01*
X77232858Y-42691758D01*
X77084899Y-42630471D01*
X76951745Y-42541501D01*
X76838499Y-42428255D01*
X76749529Y-42295101D01*
X76688242Y-42147142D01*
X76657000Y-41990075D01*
X76657000Y-41829925D01*
X76688242Y-41672858D01*
X76749529Y-41524899D01*
X76838499Y-41391745D01*
X76951745Y-41278499D01*
X77084899Y-41189529D01*
X77232858Y-41128242D01*
X77389925Y-41097000D01*
X77550075Y-41097000D01*
X77707142Y-41128242D01*
X77707142Y-41128242D01*
G37*
G36*
X74405142Y-41128242D02*
G01*
X74553101Y-41189529D01*
X74686255Y-41278499D01*
X74799501Y-41391745D01*
X74888471Y-41524899D01*
X74949758Y-41672858D01*
X74981000Y-41829925D01*
X74981000Y-41990075D01*
X74949758Y-42147142D01*
X74888471Y-42295101D01*
X74799501Y-42428255D01*
X74686255Y-42541501D01*
X74553101Y-42630471D01*
X74405142Y-42691758D01*
X74248075Y-42723000D01*
X74087925Y-42723000D01*
X73930858Y-42691758D01*
X73782899Y-42630471D01*
X73649745Y-42541501D01*
X73536499Y-42428255D01*
X73447529Y-42295101D01*
X73386242Y-42147142D01*
X73355000Y-41990075D01*
X73355000Y-41829925D01*
X73386242Y-41672858D01*
X73447529Y-41524899D01*
X73536499Y-41391745D01*
X73649745Y-41278499D01*
X73782899Y-41189529D01*
X73930858Y-41128242D01*
X74087925Y-41097000D01*
X74248075Y-41097000D01*
X74405142Y-41128242D01*
X74405142Y-41128242D01*
G37*
G36*
X69325142Y-41128242D02*
G01*
X69473101Y-41189529D01*
X69606255Y-41278499D01*
X69719501Y-41391745D01*
X69808471Y-41524899D01*
X69869758Y-41672858D01*
X69901000Y-41829925D01*
X69901000Y-41990075D01*
X69869758Y-42147142D01*
X69808471Y-42295101D01*
X69719501Y-42428255D01*
X69606255Y-42541501D01*
X69473101Y-42630471D01*
X69325142Y-42691758D01*
X69168075Y-42723000D01*
X69007925Y-42723000D01*
X68850858Y-42691758D01*
X68702899Y-42630471D01*
X68569745Y-42541501D01*
X68456499Y-42428255D01*
X68367529Y-42295101D01*
X68306242Y-42147142D01*
X68275000Y-41990075D01*
X68275000Y-41829925D01*
X68306242Y-41672858D01*
X68367529Y-41524899D01*
X68456499Y-41391745D01*
X68569745Y-41278499D01*
X68702899Y-41189529D01*
X68850858Y-41128242D01*
X69007925Y-41097000D01*
X69168075Y-41097000D01*
X69325142Y-41128242D01*
X69325142Y-41128242D01*
G37*
G36*
X39530942Y-39858242D02*
G01*
X39678901Y-39919529D01*
X39812055Y-40008499D01*
X39925301Y-40121745D01*
X40014271Y-40254899D01*
X40075558Y-40402858D01*
X40106800Y-40559925D01*
X40106800Y-40720075D01*
X40075558Y-40877142D01*
X40014271Y-41025101D01*
X39925301Y-41158255D01*
X39812055Y-41271501D01*
X39678901Y-41360471D01*
X39530942Y-41421758D01*
X39373875Y-41453000D01*
X39213725Y-41453000D01*
X39056658Y-41421758D01*
X38908699Y-41360471D01*
X38775545Y-41271501D01*
X38662299Y-41158255D01*
X38573329Y-41025101D01*
X38512042Y-40877142D01*
X38480800Y-40720075D01*
X38480800Y-40559925D01*
X38512042Y-40402858D01*
X38573329Y-40254899D01*
X38662299Y-40121745D01*
X38775545Y-40008499D01*
X38908699Y-39919529D01*
X39056658Y-39858242D01*
X39213725Y-39827000D01*
X39373875Y-39827000D01*
X39530942Y-39858242D01*
X39530942Y-39858242D01*
G37*
G36*
X34450942Y-39858242D02*
G01*
X34598901Y-39919529D01*
X34732055Y-40008499D01*
X34845301Y-40121745D01*
X34934271Y-40254899D01*
X34995558Y-40402858D01*
X35026800Y-40559925D01*
X35026800Y-40720075D01*
X34995558Y-40877142D01*
X34934271Y-41025101D01*
X34845301Y-41158255D01*
X34732055Y-41271501D01*
X34598901Y-41360471D01*
X34450942Y-41421758D01*
X34293875Y-41453000D01*
X34133725Y-41453000D01*
X33976658Y-41421758D01*
X33828699Y-41360471D01*
X33695545Y-41271501D01*
X33582299Y-41158255D01*
X33493329Y-41025101D01*
X33432042Y-40877142D01*
X33400800Y-40720075D01*
X33400800Y-40559925D01*
X33432042Y-40402858D01*
X33493329Y-40254899D01*
X33582299Y-40121745D01*
X33695545Y-40008499D01*
X33828699Y-39919529D01*
X33976658Y-39858242D01*
X34133725Y-39827000D01*
X34293875Y-39827000D01*
X34450942Y-39858242D01*
X34450942Y-39858242D01*
G37*
G36*
X17940942Y-39858242D02*
G01*
X18088901Y-39919529D01*
X18222055Y-40008499D01*
X18335301Y-40121745D01*
X18424271Y-40254899D01*
X18485558Y-40402858D01*
X18516800Y-40559925D01*
X18516800Y-40720075D01*
X18485558Y-40877142D01*
X18424271Y-41025101D01*
X18335301Y-41158255D01*
X18222055Y-41271501D01*
X18088901Y-41360471D01*
X17940942Y-41421758D01*
X17783875Y-41453000D01*
X17623725Y-41453000D01*
X17466658Y-41421758D01*
X17318699Y-41360471D01*
X17185545Y-41271501D01*
X17072299Y-41158255D01*
X16983329Y-41025101D01*
X16922042Y-40877142D01*
X16890800Y-40720075D01*
X16890800Y-40559925D01*
X16922042Y-40402858D01*
X16983329Y-40254899D01*
X17072299Y-40121745D01*
X17185545Y-40008499D01*
X17318699Y-39919529D01*
X17466658Y-39858242D01*
X17623725Y-39827000D01*
X17783875Y-39827000D01*
X17940942Y-39858242D01*
X17940942Y-39858242D01*
G37*
G36*
X21750942Y-39858242D02*
G01*
X21898901Y-39919529D01*
X22032055Y-40008499D01*
X22145301Y-40121745D01*
X22234271Y-40254899D01*
X22295558Y-40402858D01*
X22326800Y-40559925D01*
X22326800Y-40720075D01*
X22295558Y-40877142D01*
X22234271Y-41025101D01*
X22145301Y-41158255D01*
X22032055Y-41271501D01*
X21898901Y-41360471D01*
X21750942Y-41421758D01*
X21593875Y-41453000D01*
X21433725Y-41453000D01*
X21276658Y-41421758D01*
X21128699Y-41360471D01*
X20995545Y-41271501D01*
X20882299Y-41158255D01*
X20793329Y-41025101D01*
X20732042Y-40877142D01*
X20700800Y-40720075D01*
X20700800Y-40559925D01*
X20732042Y-40402858D01*
X20793329Y-40254899D01*
X20882299Y-40121745D01*
X20995545Y-40008499D01*
X21128699Y-39919529D01*
X21276658Y-39858242D01*
X21433725Y-39827000D01*
X21593875Y-39827000D01*
X21750942Y-39858242D01*
X21750942Y-39858242D01*
G37*
G36*
X44610942Y-39858242D02*
G01*
X44758901Y-39919529D01*
X44892055Y-40008499D01*
X45005301Y-40121745D01*
X45094271Y-40254899D01*
X45155558Y-40402858D01*
X45186800Y-40559925D01*
X45186800Y-40720075D01*
X45155558Y-40877142D01*
X45094271Y-41025101D01*
X45005301Y-41158255D01*
X44892055Y-41271501D01*
X44758901Y-41360471D01*
X44610942Y-41421758D01*
X44453875Y-41453000D01*
X44293725Y-41453000D01*
X44136658Y-41421758D01*
X43988699Y-41360471D01*
X43855545Y-41271501D01*
X43742299Y-41158255D01*
X43653329Y-41025101D01*
X43592042Y-40877142D01*
X43560800Y-40720075D01*
X43560800Y-40559925D01*
X43592042Y-40402858D01*
X43653329Y-40254899D01*
X43742299Y-40121745D01*
X43855545Y-40008499D01*
X43988699Y-39919529D01*
X44136658Y-39858242D01*
X44293725Y-39827000D01*
X44453875Y-39827000D01*
X44610942Y-39858242D01*
X44610942Y-39858242D01*
G37*
G36*
X49696823Y-38531313D02*
G01*
X49857242Y-38579976D01*
X49987366Y-38649529D01*
X50005078Y-38658996D01*
X50134659Y-38765341D01*
X50241004Y-38894922D01*
X50241005Y-38894924D01*
X50320024Y-39042758D01*
X50368687Y-39203177D01*
X50385117Y-39370000D01*
X50368687Y-39536823D01*
X50320024Y-39697242D01*
X50250667Y-39827000D01*
X50241004Y-39845078D01*
X50134659Y-39974659D01*
X50005078Y-40081004D01*
X50005076Y-40081005D01*
X49857242Y-40160024D01*
X49696823Y-40208687D01*
X49571804Y-40221000D01*
X49488196Y-40221000D01*
X49363177Y-40208687D01*
X49202758Y-40160024D01*
X49054924Y-40081005D01*
X49054922Y-40081004D01*
X48925341Y-39974659D01*
X48818996Y-39845078D01*
X48809333Y-39827000D01*
X48739976Y-39697242D01*
X48691313Y-39536823D01*
X48674883Y-39370000D01*
X48691313Y-39203177D01*
X48739976Y-39042758D01*
X48818995Y-38894924D01*
X48818996Y-38894922D01*
X48925341Y-38765341D01*
X49054922Y-38658996D01*
X49072634Y-38649529D01*
X49202758Y-38579976D01*
X49363177Y-38531313D01*
X49488196Y-38519000D01*
X49571804Y-38519000D01*
X49696823Y-38531313D01*
X49696823Y-38531313D01*
G37*
G36*
X64936823Y-38531313D02*
G01*
X65097242Y-38579976D01*
X65227366Y-38649529D01*
X65245078Y-38658996D01*
X65374659Y-38765341D01*
X65481004Y-38894922D01*
X65481005Y-38894924D01*
X65560024Y-39042758D01*
X65608687Y-39203177D01*
X65625117Y-39370000D01*
X65608687Y-39536823D01*
X65560024Y-39697242D01*
X65490667Y-39827000D01*
X65481004Y-39845078D01*
X65374659Y-39974659D01*
X65245078Y-40081004D01*
X65245076Y-40081005D01*
X65097242Y-40160024D01*
X64936823Y-40208687D01*
X64811804Y-40221000D01*
X64728196Y-40221000D01*
X64603177Y-40208687D01*
X64442758Y-40160024D01*
X64294924Y-40081005D01*
X64294922Y-40081004D01*
X64165341Y-39974659D01*
X64058996Y-39845078D01*
X64049333Y-39827000D01*
X63979976Y-39697242D01*
X63931313Y-39536823D01*
X63914883Y-39370000D01*
X63931313Y-39203177D01*
X63979976Y-39042758D01*
X64058995Y-38894924D01*
X64058996Y-38894922D01*
X64165341Y-38765341D01*
X64294922Y-38658996D01*
X64312634Y-38649529D01*
X64442758Y-38579976D01*
X64603177Y-38531313D01*
X64728196Y-38519000D01*
X64811804Y-38519000D01*
X64936823Y-38531313D01*
X64936823Y-38531313D01*
G37*
G36*
X77707142Y-38588242D02*
G01*
X77855101Y-38649529D01*
X77988255Y-38738499D01*
X78101501Y-38851745D01*
X78190471Y-38984899D01*
X78251758Y-39132858D01*
X78283000Y-39289925D01*
X78283000Y-39450075D01*
X78251758Y-39607142D01*
X78190471Y-39755101D01*
X78101501Y-39888255D01*
X77988255Y-40001501D01*
X77855101Y-40090471D01*
X77707142Y-40151758D01*
X77550075Y-40183000D01*
X77389925Y-40183000D01*
X77232858Y-40151758D01*
X77084899Y-40090471D01*
X76951745Y-40001501D01*
X76838499Y-39888255D01*
X76749529Y-39755101D01*
X76688242Y-39607142D01*
X76657000Y-39450075D01*
X76657000Y-39289925D01*
X76688242Y-39132858D01*
X76749529Y-38984899D01*
X76838499Y-38851745D01*
X76951745Y-38738499D01*
X77084899Y-38649529D01*
X77232858Y-38588242D01*
X77389925Y-38557000D01*
X77550075Y-38557000D01*
X77707142Y-38588242D01*
X77707142Y-38588242D01*
G37*
G36*
X69325142Y-38588242D02*
G01*
X69473101Y-38649529D01*
X69606255Y-38738499D01*
X69719501Y-38851745D01*
X69808471Y-38984899D01*
X69869758Y-39132858D01*
X69901000Y-39289925D01*
X69901000Y-39450075D01*
X69869758Y-39607142D01*
X69808471Y-39755101D01*
X69719501Y-39888255D01*
X69606255Y-40001501D01*
X69473101Y-40090471D01*
X69325142Y-40151758D01*
X69168075Y-40183000D01*
X69007925Y-40183000D01*
X68850858Y-40151758D01*
X68702899Y-40090471D01*
X68569745Y-40001501D01*
X68456499Y-39888255D01*
X68367529Y-39755101D01*
X68306242Y-39607142D01*
X68275000Y-39450075D01*
X68275000Y-39289925D01*
X68306242Y-39132858D01*
X68367529Y-38984899D01*
X68456499Y-38851745D01*
X68569745Y-38738499D01*
X68702899Y-38649529D01*
X68850858Y-38588242D01*
X69007925Y-38557000D01*
X69168075Y-38557000D01*
X69325142Y-38588242D01*
X69325142Y-38588242D01*
G37*
G36*
X74405142Y-38588242D02*
G01*
X74553101Y-38649529D01*
X74686255Y-38738499D01*
X74799501Y-38851745D01*
X74888471Y-38984899D01*
X74949758Y-39132858D01*
X74981000Y-39289925D01*
X74981000Y-39450075D01*
X74949758Y-39607142D01*
X74888471Y-39755101D01*
X74799501Y-39888255D01*
X74686255Y-40001501D01*
X74553101Y-40090471D01*
X74405142Y-40151758D01*
X74248075Y-40183000D01*
X74087925Y-40183000D01*
X73930858Y-40151758D01*
X73782899Y-40090471D01*
X73649745Y-40001501D01*
X73536499Y-39888255D01*
X73447529Y-39755101D01*
X73386242Y-39607142D01*
X73355000Y-39450075D01*
X73355000Y-39289925D01*
X73386242Y-39132858D01*
X73447529Y-38984899D01*
X73536499Y-38851745D01*
X73649745Y-38738499D01*
X73782899Y-38649529D01*
X73930858Y-38588242D01*
X74087925Y-38557000D01*
X74248075Y-38557000D01*
X74405142Y-38588242D01*
X74405142Y-38588242D01*
G37*
G36*
X34527142Y-37318242D02*
G01*
X34675101Y-37379529D01*
X34808255Y-37468499D01*
X34921501Y-37581745D01*
X35010471Y-37714899D01*
X35071758Y-37862858D01*
X35103000Y-38019925D01*
X35103000Y-38180075D01*
X35071758Y-38337142D01*
X35010471Y-38485101D01*
X34921501Y-38618255D01*
X34808255Y-38731501D01*
X34675101Y-38820471D01*
X34527142Y-38881758D01*
X34370075Y-38913000D01*
X34209925Y-38913000D01*
X34052858Y-38881758D01*
X33904899Y-38820471D01*
X33771745Y-38731501D01*
X33658499Y-38618255D01*
X33569529Y-38485101D01*
X33508242Y-38337142D01*
X33477000Y-38180075D01*
X33477000Y-38019925D01*
X33508242Y-37862858D01*
X33569529Y-37714899D01*
X33658499Y-37581745D01*
X33771745Y-37468499D01*
X33904899Y-37379529D01*
X34052858Y-37318242D01*
X34209925Y-37287000D01*
X34370075Y-37287000D01*
X34527142Y-37318242D01*
X34527142Y-37318242D01*
G37*
G36*
X39607142Y-37318242D02*
G01*
X39755101Y-37379529D01*
X39888255Y-37468499D01*
X40001501Y-37581745D01*
X40090471Y-37714899D01*
X40151758Y-37862858D01*
X40183000Y-38019925D01*
X40183000Y-38180075D01*
X40151758Y-38337142D01*
X40090471Y-38485101D01*
X40001501Y-38618255D01*
X39888255Y-38731501D01*
X39755101Y-38820471D01*
X39607142Y-38881758D01*
X39450075Y-38913000D01*
X39289925Y-38913000D01*
X39132858Y-38881758D01*
X38984899Y-38820471D01*
X38851745Y-38731501D01*
X38738499Y-38618255D01*
X38649529Y-38485101D01*
X38588242Y-38337142D01*
X38557000Y-38180075D01*
X38557000Y-38019925D01*
X38588242Y-37862858D01*
X38649529Y-37714899D01*
X38738499Y-37581745D01*
X38851745Y-37468499D01*
X38984899Y-37379529D01*
X39132858Y-37318242D01*
X39289925Y-37287000D01*
X39450075Y-37287000D01*
X39607142Y-37318242D01*
X39607142Y-37318242D01*
G37*
G36*
X44687142Y-37318242D02*
G01*
X44835101Y-37379529D01*
X44968255Y-37468499D01*
X45081501Y-37581745D01*
X45170471Y-37714899D01*
X45231758Y-37862858D01*
X45263000Y-38019925D01*
X45263000Y-38180075D01*
X45231758Y-38337142D01*
X45170471Y-38485101D01*
X45081501Y-38618255D01*
X44968255Y-38731501D01*
X44835101Y-38820471D01*
X44687142Y-38881758D01*
X44530075Y-38913000D01*
X44369925Y-38913000D01*
X44212858Y-38881758D01*
X44064899Y-38820471D01*
X43931745Y-38731501D01*
X43818499Y-38618255D01*
X43729529Y-38485101D01*
X43668242Y-38337142D01*
X43637000Y-38180075D01*
X43637000Y-38019925D01*
X43668242Y-37862858D01*
X43729529Y-37714899D01*
X43818499Y-37581745D01*
X43931745Y-37468499D01*
X44064899Y-37379529D01*
X44212858Y-37318242D01*
X44369925Y-37287000D01*
X44530075Y-37287000D01*
X44687142Y-37318242D01*
X44687142Y-37318242D01*
G37*
G36*
X21827142Y-37318242D02*
G01*
X21975101Y-37379529D01*
X22108255Y-37468499D01*
X22221501Y-37581745D01*
X22310471Y-37714899D01*
X22371758Y-37862858D01*
X22403000Y-38019925D01*
X22403000Y-38180075D01*
X22371758Y-38337142D01*
X22310471Y-38485101D01*
X22221501Y-38618255D01*
X22108255Y-38731501D01*
X21975101Y-38820471D01*
X21827142Y-38881758D01*
X21670075Y-38913000D01*
X21509925Y-38913000D01*
X21352858Y-38881758D01*
X21204899Y-38820471D01*
X21071745Y-38731501D01*
X20958499Y-38618255D01*
X20869529Y-38485101D01*
X20808242Y-38337142D01*
X20777000Y-38180075D01*
X20777000Y-38019925D01*
X20808242Y-37862858D01*
X20869529Y-37714899D01*
X20958499Y-37581745D01*
X21071745Y-37468499D01*
X21204899Y-37379529D01*
X21352858Y-37318242D01*
X21509925Y-37287000D01*
X21670075Y-37287000D01*
X21827142Y-37318242D01*
X21827142Y-37318242D01*
G37*
G36*
X18017142Y-37318242D02*
G01*
X18165101Y-37379529D01*
X18298255Y-37468499D01*
X18411501Y-37581745D01*
X18500471Y-37714899D01*
X18561758Y-37862858D01*
X18593000Y-38019925D01*
X18593000Y-38180075D01*
X18561758Y-38337142D01*
X18500471Y-38485101D01*
X18411501Y-38618255D01*
X18298255Y-38731501D01*
X18165101Y-38820471D01*
X18017142Y-38881758D01*
X17860075Y-38913000D01*
X17699925Y-38913000D01*
X17542858Y-38881758D01*
X17394899Y-38820471D01*
X17261745Y-38731501D01*
X17148499Y-38618255D01*
X17059529Y-38485101D01*
X16998242Y-38337142D01*
X16967000Y-38180075D01*
X16967000Y-38019925D01*
X16998242Y-37862858D01*
X17059529Y-37714899D01*
X17148499Y-37581745D01*
X17261745Y-37468499D01*
X17394899Y-37379529D01*
X17542858Y-37318242D01*
X17699925Y-37287000D01*
X17860075Y-37287000D01*
X18017142Y-37318242D01*
X18017142Y-37318242D01*
G37*
G36*
X49696823Y-35991313D02*
G01*
X49857242Y-36039976D01*
X49987366Y-36109529D01*
X50005078Y-36118996D01*
X50134659Y-36225341D01*
X50241004Y-36354922D01*
X50241005Y-36354924D01*
X50320024Y-36502758D01*
X50368687Y-36663177D01*
X50385117Y-36830000D01*
X50368687Y-36996823D01*
X50320024Y-37157242D01*
X50250667Y-37287000D01*
X50241004Y-37305078D01*
X50134659Y-37434659D01*
X50005078Y-37541004D01*
X50005076Y-37541005D01*
X49857242Y-37620024D01*
X49696823Y-37668687D01*
X49571804Y-37681000D01*
X49488196Y-37681000D01*
X49363177Y-37668687D01*
X49202758Y-37620024D01*
X49054924Y-37541005D01*
X49054922Y-37541004D01*
X48925341Y-37434659D01*
X48818996Y-37305078D01*
X48809333Y-37287000D01*
X48739976Y-37157242D01*
X48691313Y-36996823D01*
X48674883Y-36830000D01*
X48691313Y-36663177D01*
X48739976Y-36502758D01*
X48818995Y-36354924D01*
X48818996Y-36354922D01*
X48925341Y-36225341D01*
X49054922Y-36118996D01*
X49072634Y-36109529D01*
X49202758Y-36039976D01*
X49363177Y-35991313D01*
X49488196Y-35979000D01*
X49571804Y-35979000D01*
X49696823Y-35991313D01*
X49696823Y-35991313D01*
G37*
G36*
X64936823Y-35991313D02*
G01*
X65097242Y-36039976D01*
X65227366Y-36109529D01*
X65245078Y-36118996D01*
X65374659Y-36225341D01*
X65481004Y-36354922D01*
X65481005Y-36354924D01*
X65560024Y-36502758D01*
X65608687Y-36663177D01*
X65625117Y-36830000D01*
X65608687Y-36996823D01*
X65560024Y-37157242D01*
X65490667Y-37287000D01*
X65481004Y-37305078D01*
X65374659Y-37434659D01*
X65245078Y-37541004D01*
X65245076Y-37541005D01*
X65097242Y-37620024D01*
X64936823Y-37668687D01*
X64811804Y-37681000D01*
X64728196Y-37681000D01*
X64603177Y-37668687D01*
X64442758Y-37620024D01*
X64294924Y-37541005D01*
X64294922Y-37541004D01*
X64165341Y-37434659D01*
X64058996Y-37305078D01*
X64049333Y-37287000D01*
X63979976Y-37157242D01*
X63931313Y-36996823D01*
X63914883Y-36830000D01*
X63931313Y-36663177D01*
X63979976Y-36502758D01*
X64058995Y-36354924D01*
X64058996Y-36354922D01*
X64165341Y-36225341D01*
X64294922Y-36118996D01*
X64312634Y-36109529D01*
X64442758Y-36039976D01*
X64603177Y-35991313D01*
X64728196Y-35979000D01*
X64811804Y-35979000D01*
X64936823Y-35991313D01*
X64936823Y-35991313D01*
G37*
G36*
X77783342Y-36048242D02*
G01*
X77931301Y-36109529D01*
X78064455Y-36198499D01*
X78177701Y-36311745D01*
X78266671Y-36444899D01*
X78327958Y-36592858D01*
X78359200Y-36749925D01*
X78359200Y-36910075D01*
X78327958Y-37067142D01*
X78266671Y-37215101D01*
X78177701Y-37348255D01*
X78064455Y-37461501D01*
X77931301Y-37550471D01*
X77783342Y-37611758D01*
X77626275Y-37643000D01*
X77466125Y-37643000D01*
X77309058Y-37611758D01*
X77161099Y-37550471D01*
X77027945Y-37461501D01*
X76914699Y-37348255D01*
X76825729Y-37215101D01*
X76764442Y-37067142D01*
X76733200Y-36910075D01*
X76733200Y-36749925D01*
X76764442Y-36592858D01*
X76825729Y-36444899D01*
X76914699Y-36311745D01*
X77027945Y-36198499D01*
X77161099Y-36109529D01*
X77309058Y-36048242D01*
X77466125Y-36017000D01*
X77626275Y-36017000D01*
X77783342Y-36048242D01*
X77783342Y-36048242D01*
G37*
G36*
X74481342Y-36048242D02*
G01*
X74629301Y-36109529D01*
X74762455Y-36198499D01*
X74875701Y-36311745D01*
X74964671Y-36444899D01*
X75025958Y-36592858D01*
X75057200Y-36749925D01*
X75057200Y-36910075D01*
X75025958Y-37067142D01*
X74964671Y-37215101D01*
X74875701Y-37348255D01*
X74762455Y-37461501D01*
X74629301Y-37550471D01*
X74481342Y-37611758D01*
X74324275Y-37643000D01*
X74164125Y-37643000D01*
X74007058Y-37611758D01*
X73859099Y-37550471D01*
X73725945Y-37461501D01*
X73612699Y-37348255D01*
X73523729Y-37215101D01*
X73462442Y-37067142D01*
X73431200Y-36910075D01*
X73431200Y-36749925D01*
X73462442Y-36592858D01*
X73523729Y-36444899D01*
X73612699Y-36311745D01*
X73725945Y-36198499D01*
X73859099Y-36109529D01*
X74007058Y-36048242D01*
X74164125Y-36017000D01*
X74324275Y-36017000D01*
X74481342Y-36048242D01*
X74481342Y-36048242D01*
G37*
G36*
X69401342Y-36048242D02*
G01*
X69549301Y-36109529D01*
X69682455Y-36198499D01*
X69795701Y-36311745D01*
X69884671Y-36444899D01*
X69945958Y-36592858D01*
X69977200Y-36749925D01*
X69977200Y-36910075D01*
X69945958Y-37067142D01*
X69884671Y-37215101D01*
X69795701Y-37348255D01*
X69682455Y-37461501D01*
X69549301Y-37550471D01*
X69401342Y-37611758D01*
X69244275Y-37643000D01*
X69084125Y-37643000D01*
X68927058Y-37611758D01*
X68779099Y-37550471D01*
X68645945Y-37461501D01*
X68532699Y-37348255D01*
X68443729Y-37215101D01*
X68382442Y-37067142D01*
X68351200Y-36910075D01*
X68351200Y-36749925D01*
X68382442Y-36592858D01*
X68443729Y-36444899D01*
X68532699Y-36311745D01*
X68645945Y-36198499D01*
X68779099Y-36109529D01*
X68927058Y-36048242D01*
X69084125Y-36017000D01*
X69244275Y-36017000D01*
X69401342Y-36048242D01*
X69401342Y-36048242D01*
G37*
G36*
X18017142Y-34778242D02*
G01*
X18165101Y-34839529D01*
X18298255Y-34928499D01*
X18411501Y-35041745D01*
X18500471Y-35174899D01*
X18561758Y-35322858D01*
X18593000Y-35479925D01*
X18593000Y-35640075D01*
X18561758Y-35797142D01*
X18500471Y-35945101D01*
X18411501Y-36078255D01*
X18298255Y-36191501D01*
X18165101Y-36280471D01*
X18017142Y-36341758D01*
X17860075Y-36373000D01*
X17699925Y-36373000D01*
X17542858Y-36341758D01*
X17394899Y-36280471D01*
X17261745Y-36191501D01*
X17148499Y-36078255D01*
X17059529Y-35945101D01*
X16998242Y-35797142D01*
X16967000Y-35640075D01*
X16967000Y-35479925D01*
X16998242Y-35322858D01*
X17059529Y-35174899D01*
X17148499Y-35041745D01*
X17261745Y-34928499D01*
X17394899Y-34839529D01*
X17542858Y-34778242D01*
X17699925Y-34747000D01*
X17860075Y-34747000D01*
X18017142Y-34778242D01*
X18017142Y-34778242D01*
G37*
G36*
X39607142Y-34778242D02*
G01*
X39755101Y-34839529D01*
X39888255Y-34928499D01*
X40001501Y-35041745D01*
X40090471Y-35174899D01*
X40151758Y-35322858D01*
X40183000Y-35479925D01*
X40183000Y-35640075D01*
X40151758Y-35797142D01*
X40090471Y-35945101D01*
X40001501Y-36078255D01*
X39888255Y-36191501D01*
X39755101Y-36280471D01*
X39607142Y-36341758D01*
X39450075Y-36373000D01*
X39289925Y-36373000D01*
X39132858Y-36341758D01*
X38984899Y-36280471D01*
X38851745Y-36191501D01*
X38738499Y-36078255D01*
X38649529Y-35945101D01*
X38588242Y-35797142D01*
X38557000Y-35640075D01*
X38557000Y-35479925D01*
X38588242Y-35322858D01*
X38649529Y-35174899D01*
X38738499Y-35041745D01*
X38851745Y-34928499D01*
X38984899Y-34839529D01*
X39132858Y-34778242D01*
X39289925Y-34747000D01*
X39450075Y-34747000D01*
X39607142Y-34778242D01*
X39607142Y-34778242D01*
G37*
G36*
X34527142Y-34778242D02*
G01*
X34675101Y-34839529D01*
X34808255Y-34928499D01*
X34921501Y-35041745D01*
X35010471Y-35174899D01*
X35071758Y-35322858D01*
X35103000Y-35479925D01*
X35103000Y-35640075D01*
X35071758Y-35797142D01*
X35010471Y-35945101D01*
X34921501Y-36078255D01*
X34808255Y-36191501D01*
X34675101Y-36280471D01*
X34527142Y-36341758D01*
X34370075Y-36373000D01*
X34209925Y-36373000D01*
X34052858Y-36341758D01*
X33904899Y-36280471D01*
X33771745Y-36191501D01*
X33658499Y-36078255D01*
X33569529Y-35945101D01*
X33508242Y-35797142D01*
X33477000Y-35640075D01*
X33477000Y-35479925D01*
X33508242Y-35322858D01*
X33569529Y-35174899D01*
X33658499Y-35041745D01*
X33771745Y-34928499D01*
X33904899Y-34839529D01*
X34052858Y-34778242D01*
X34209925Y-34747000D01*
X34370075Y-34747000D01*
X34527142Y-34778242D01*
X34527142Y-34778242D01*
G37*
G36*
X21827142Y-34778242D02*
G01*
X21975101Y-34839529D01*
X22108255Y-34928499D01*
X22221501Y-35041745D01*
X22310471Y-35174899D01*
X22371758Y-35322858D01*
X22403000Y-35479925D01*
X22403000Y-35640075D01*
X22371758Y-35797142D01*
X22310471Y-35945101D01*
X22221501Y-36078255D01*
X22108255Y-36191501D01*
X21975101Y-36280471D01*
X21827142Y-36341758D01*
X21670075Y-36373000D01*
X21509925Y-36373000D01*
X21352858Y-36341758D01*
X21204899Y-36280471D01*
X21071745Y-36191501D01*
X20958499Y-36078255D01*
X20869529Y-35945101D01*
X20808242Y-35797142D01*
X20777000Y-35640075D01*
X20777000Y-35479925D01*
X20808242Y-35322858D01*
X20869529Y-35174899D01*
X20958499Y-35041745D01*
X21071745Y-34928499D01*
X21204899Y-34839529D01*
X21352858Y-34778242D01*
X21509925Y-34747000D01*
X21670075Y-34747000D01*
X21827142Y-34778242D01*
X21827142Y-34778242D01*
G37*
G36*
X44687142Y-34778242D02*
G01*
X44835101Y-34839529D01*
X44968255Y-34928499D01*
X45081501Y-35041745D01*
X45170471Y-35174899D01*
X45231758Y-35322858D01*
X45263000Y-35479925D01*
X45263000Y-35640075D01*
X45231758Y-35797142D01*
X45170471Y-35945101D01*
X45081501Y-36078255D01*
X44968255Y-36191501D01*
X44835101Y-36280471D01*
X44687142Y-36341758D01*
X44530075Y-36373000D01*
X44369925Y-36373000D01*
X44212858Y-36341758D01*
X44064899Y-36280471D01*
X43931745Y-36191501D01*
X43818499Y-36078255D01*
X43729529Y-35945101D01*
X43668242Y-35797142D01*
X43637000Y-35640075D01*
X43637000Y-35479925D01*
X43668242Y-35322858D01*
X43729529Y-35174899D01*
X43818499Y-35041745D01*
X43931745Y-34928499D01*
X44064899Y-34839529D01*
X44212858Y-34778242D01*
X44369925Y-34747000D01*
X44530075Y-34747000D01*
X44687142Y-34778242D01*
X44687142Y-34778242D01*
G37*
G36*
X49696823Y-33451313D02*
G01*
X49857242Y-33499976D01*
X49987366Y-33569529D01*
X50005078Y-33578996D01*
X50134659Y-33685341D01*
X50241004Y-33814922D01*
X50241005Y-33814924D01*
X50320024Y-33962758D01*
X50368687Y-34123177D01*
X50385117Y-34290000D01*
X50368687Y-34456823D01*
X50320024Y-34617242D01*
X50250667Y-34747000D01*
X50241004Y-34765078D01*
X50134659Y-34894659D01*
X50005078Y-35001004D01*
X50005076Y-35001005D01*
X49857242Y-35080024D01*
X49696823Y-35128687D01*
X49571804Y-35141000D01*
X49488196Y-35141000D01*
X49363177Y-35128687D01*
X49202758Y-35080024D01*
X49054924Y-35001005D01*
X49054922Y-35001004D01*
X48925341Y-34894659D01*
X48818996Y-34765078D01*
X48809333Y-34747000D01*
X48739976Y-34617242D01*
X48691313Y-34456823D01*
X48674883Y-34290000D01*
X48691313Y-34123177D01*
X48739976Y-33962758D01*
X48818995Y-33814924D01*
X48818996Y-33814922D01*
X48925341Y-33685341D01*
X49054922Y-33578996D01*
X49072634Y-33569529D01*
X49202758Y-33499976D01*
X49363177Y-33451313D01*
X49488196Y-33439000D01*
X49571804Y-33439000D01*
X49696823Y-33451313D01*
X49696823Y-33451313D01*
G37*
G36*
X64936823Y-33451313D02*
G01*
X65097242Y-33499976D01*
X65227366Y-33569529D01*
X65245078Y-33578996D01*
X65374659Y-33685341D01*
X65481004Y-33814922D01*
X65481005Y-33814924D01*
X65560024Y-33962758D01*
X65608687Y-34123177D01*
X65625117Y-34290000D01*
X65608687Y-34456823D01*
X65560024Y-34617242D01*
X65490667Y-34747000D01*
X65481004Y-34765078D01*
X65374659Y-34894659D01*
X65245078Y-35001004D01*
X65245076Y-35001005D01*
X65097242Y-35080024D01*
X64936823Y-35128687D01*
X64811804Y-35141000D01*
X64728196Y-35141000D01*
X64603177Y-35128687D01*
X64442758Y-35080024D01*
X64294924Y-35001005D01*
X64294922Y-35001004D01*
X64165341Y-34894659D01*
X64058996Y-34765078D01*
X64049333Y-34747000D01*
X63979976Y-34617242D01*
X63931313Y-34456823D01*
X63914883Y-34290000D01*
X63931313Y-34123177D01*
X63979976Y-33962758D01*
X64058995Y-33814924D01*
X64058996Y-33814922D01*
X64165341Y-33685341D01*
X64294922Y-33578996D01*
X64312634Y-33569529D01*
X64442758Y-33499976D01*
X64603177Y-33451313D01*
X64728196Y-33439000D01*
X64811804Y-33439000D01*
X64936823Y-33451313D01*
X64936823Y-33451313D01*
G37*
G36*
X74405142Y-33508242D02*
G01*
X74553101Y-33569529D01*
X74686255Y-33658499D01*
X74799501Y-33771745D01*
X74888471Y-33904899D01*
X74949758Y-34052858D01*
X74981000Y-34209925D01*
X74981000Y-34370075D01*
X74949758Y-34527142D01*
X74888471Y-34675101D01*
X74799501Y-34808255D01*
X74686255Y-34921501D01*
X74553101Y-35010471D01*
X74405142Y-35071758D01*
X74248075Y-35103000D01*
X74087925Y-35103000D01*
X73930858Y-35071758D01*
X73782899Y-35010471D01*
X73649745Y-34921501D01*
X73536499Y-34808255D01*
X73447529Y-34675101D01*
X73386242Y-34527142D01*
X73355000Y-34370075D01*
X73355000Y-34209925D01*
X73386242Y-34052858D01*
X73447529Y-33904899D01*
X73536499Y-33771745D01*
X73649745Y-33658499D01*
X73782899Y-33569529D01*
X73930858Y-33508242D01*
X74087925Y-33477000D01*
X74248075Y-33477000D01*
X74405142Y-33508242D01*
X74405142Y-33508242D01*
G37*
G36*
X77707142Y-33508242D02*
G01*
X77855101Y-33569529D01*
X77988255Y-33658499D01*
X78101501Y-33771745D01*
X78190471Y-33904899D01*
X78251758Y-34052858D01*
X78283000Y-34209925D01*
X78283000Y-34370075D01*
X78251758Y-34527142D01*
X78190471Y-34675101D01*
X78101501Y-34808255D01*
X77988255Y-34921501D01*
X77855101Y-35010471D01*
X77707142Y-35071758D01*
X77550075Y-35103000D01*
X77389925Y-35103000D01*
X77232858Y-35071758D01*
X77084899Y-35010471D01*
X76951745Y-34921501D01*
X76838499Y-34808255D01*
X76749529Y-34675101D01*
X76688242Y-34527142D01*
X76657000Y-34370075D01*
X76657000Y-34209925D01*
X76688242Y-34052858D01*
X76749529Y-33904899D01*
X76838499Y-33771745D01*
X76951745Y-33658499D01*
X77084899Y-33569529D01*
X77232858Y-33508242D01*
X77389925Y-33477000D01*
X77550075Y-33477000D01*
X77707142Y-33508242D01*
X77707142Y-33508242D01*
G37*
G36*
X69325142Y-33508242D02*
G01*
X69473101Y-33569529D01*
X69606255Y-33658499D01*
X69719501Y-33771745D01*
X69808471Y-33904899D01*
X69869758Y-34052858D01*
X69901000Y-34209925D01*
X69901000Y-34370075D01*
X69869758Y-34527142D01*
X69808471Y-34675101D01*
X69719501Y-34808255D01*
X69606255Y-34921501D01*
X69473101Y-35010471D01*
X69325142Y-35071758D01*
X69168075Y-35103000D01*
X69007925Y-35103000D01*
X68850858Y-35071758D01*
X68702899Y-35010471D01*
X68569745Y-34921501D01*
X68456499Y-34808255D01*
X68367529Y-34675101D01*
X68306242Y-34527142D01*
X68275000Y-34370075D01*
X68275000Y-34209925D01*
X68306242Y-34052858D01*
X68367529Y-33904899D01*
X68456499Y-33771745D01*
X68569745Y-33658499D01*
X68702899Y-33569529D01*
X68850858Y-33508242D01*
X69007925Y-33477000D01*
X69168075Y-33477000D01*
X69325142Y-33508242D01*
X69325142Y-33508242D01*
G37*
G36*
X21827142Y-32238242D02*
G01*
X21975101Y-32299529D01*
X22108255Y-32388499D01*
X22221501Y-32501745D01*
X22310471Y-32634899D01*
X22371758Y-32782858D01*
X22403000Y-32939925D01*
X22403000Y-33100075D01*
X22371758Y-33257142D01*
X22310471Y-33405101D01*
X22221501Y-33538255D01*
X22108255Y-33651501D01*
X21975101Y-33740471D01*
X21827142Y-33801758D01*
X21670075Y-33833000D01*
X21509925Y-33833000D01*
X21352858Y-33801758D01*
X21204899Y-33740471D01*
X21071745Y-33651501D01*
X20958499Y-33538255D01*
X20869529Y-33405101D01*
X20808242Y-33257142D01*
X20777000Y-33100075D01*
X20777000Y-32939925D01*
X20808242Y-32782858D01*
X20869529Y-32634899D01*
X20958499Y-32501745D01*
X21071745Y-32388499D01*
X21204899Y-32299529D01*
X21352858Y-32238242D01*
X21509925Y-32207000D01*
X21670075Y-32207000D01*
X21827142Y-32238242D01*
X21827142Y-32238242D01*
G37*
G36*
X44687142Y-32238242D02*
G01*
X44835101Y-32299529D01*
X44968255Y-32388499D01*
X45081501Y-32501745D01*
X45170471Y-32634899D01*
X45231758Y-32782858D01*
X45263000Y-32939925D01*
X45263000Y-33100075D01*
X45231758Y-33257142D01*
X45170471Y-33405101D01*
X45081501Y-33538255D01*
X44968255Y-33651501D01*
X44835101Y-33740471D01*
X44687142Y-33801758D01*
X44530075Y-33833000D01*
X44369925Y-33833000D01*
X44212858Y-33801758D01*
X44064899Y-33740471D01*
X43931745Y-33651501D01*
X43818499Y-33538255D01*
X43729529Y-33405101D01*
X43668242Y-33257142D01*
X43637000Y-33100075D01*
X43637000Y-32939925D01*
X43668242Y-32782858D01*
X43729529Y-32634899D01*
X43818499Y-32501745D01*
X43931745Y-32388499D01*
X44064899Y-32299529D01*
X44212858Y-32238242D01*
X44369925Y-32207000D01*
X44530075Y-32207000D01*
X44687142Y-32238242D01*
X44687142Y-32238242D01*
G37*
G36*
X18017142Y-32238242D02*
G01*
X18165101Y-32299529D01*
X18298255Y-32388499D01*
X18411501Y-32501745D01*
X18500471Y-32634899D01*
X18561758Y-32782858D01*
X18593000Y-32939925D01*
X18593000Y-33100075D01*
X18561758Y-33257142D01*
X18500471Y-33405101D01*
X18411501Y-33538255D01*
X18298255Y-33651501D01*
X18165101Y-33740471D01*
X18017142Y-33801758D01*
X17860075Y-33833000D01*
X17699925Y-33833000D01*
X17542858Y-33801758D01*
X17394899Y-33740471D01*
X17261745Y-33651501D01*
X17148499Y-33538255D01*
X17059529Y-33405101D01*
X16998242Y-33257142D01*
X16967000Y-33100075D01*
X16967000Y-32939925D01*
X16998242Y-32782858D01*
X17059529Y-32634899D01*
X17148499Y-32501745D01*
X17261745Y-32388499D01*
X17394899Y-32299529D01*
X17542858Y-32238242D01*
X17699925Y-32207000D01*
X17860075Y-32207000D01*
X18017142Y-32238242D01*
X18017142Y-32238242D01*
G37*
G36*
X34527142Y-32238242D02*
G01*
X34675101Y-32299529D01*
X34808255Y-32388499D01*
X34921501Y-32501745D01*
X35010471Y-32634899D01*
X35071758Y-32782858D01*
X35103000Y-32939925D01*
X35103000Y-33100075D01*
X35071758Y-33257142D01*
X35010471Y-33405101D01*
X34921501Y-33538255D01*
X34808255Y-33651501D01*
X34675101Y-33740471D01*
X34527142Y-33801758D01*
X34370075Y-33833000D01*
X34209925Y-33833000D01*
X34052858Y-33801758D01*
X33904899Y-33740471D01*
X33771745Y-33651501D01*
X33658499Y-33538255D01*
X33569529Y-33405101D01*
X33508242Y-33257142D01*
X33477000Y-33100075D01*
X33477000Y-32939925D01*
X33508242Y-32782858D01*
X33569529Y-32634899D01*
X33658499Y-32501745D01*
X33771745Y-32388499D01*
X33904899Y-32299529D01*
X34052858Y-32238242D01*
X34209925Y-32207000D01*
X34370075Y-32207000D01*
X34527142Y-32238242D01*
X34527142Y-32238242D01*
G37*
G36*
X39607142Y-32238242D02*
G01*
X39755101Y-32299529D01*
X39888255Y-32388499D01*
X40001501Y-32501745D01*
X40090471Y-32634899D01*
X40151758Y-32782858D01*
X40183000Y-32939925D01*
X40183000Y-33100075D01*
X40151758Y-33257142D01*
X40090471Y-33405101D01*
X40001501Y-33538255D01*
X39888255Y-33651501D01*
X39755101Y-33740471D01*
X39607142Y-33801758D01*
X39450075Y-33833000D01*
X39289925Y-33833000D01*
X39132858Y-33801758D01*
X38984899Y-33740471D01*
X38851745Y-33651501D01*
X38738499Y-33538255D01*
X38649529Y-33405101D01*
X38588242Y-33257142D01*
X38557000Y-33100075D01*
X38557000Y-32939925D01*
X38588242Y-32782858D01*
X38649529Y-32634899D01*
X38738499Y-32501745D01*
X38851745Y-32388499D01*
X38984899Y-32299529D01*
X39132858Y-32238242D01*
X39289925Y-32207000D01*
X39450075Y-32207000D01*
X39607142Y-32238242D01*
X39607142Y-32238242D01*
G37*
G36*
X49696823Y-30911313D02*
G01*
X49857242Y-30959976D01*
X49987366Y-31029529D01*
X50005078Y-31038996D01*
X50134659Y-31145341D01*
X50241004Y-31274922D01*
X50241005Y-31274924D01*
X50320024Y-31422758D01*
X50368687Y-31583177D01*
X50385117Y-31750000D01*
X50368687Y-31916823D01*
X50320024Y-32077242D01*
X50250667Y-32207000D01*
X50241004Y-32225078D01*
X50134659Y-32354659D01*
X50005078Y-32461004D01*
X50005076Y-32461005D01*
X49857242Y-32540024D01*
X49696823Y-32588687D01*
X49571804Y-32601000D01*
X49488196Y-32601000D01*
X49363177Y-32588687D01*
X49202758Y-32540024D01*
X49054924Y-32461005D01*
X49054922Y-32461004D01*
X48925341Y-32354659D01*
X48818996Y-32225078D01*
X48809333Y-32207000D01*
X48739976Y-32077242D01*
X48691313Y-31916823D01*
X48674883Y-31750000D01*
X48691313Y-31583177D01*
X48739976Y-31422758D01*
X48818995Y-31274924D01*
X48818996Y-31274922D01*
X48925341Y-31145341D01*
X49054922Y-31038996D01*
X49072634Y-31029529D01*
X49202758Y-30959976D01*
X49363177Y-30911313D01*
X49488196Y-30899000D01*
X49571804Y-30899000D01*
X49696823Y-30911313D01*
X49696823Y-30911313D01*
G37*
G36*
X64936823Y-30911313D02*
G01*
X65097242Y-30959976D01*
X65227366Y-31029529D01*
X65245078Y-31038996D01*
X65374659Y-31145341D01*
X65481004Y-31274922D01*
X65481005Y-31274924D01*
X65560024Y-31422758D01*
X65608687Y-31583177D01*
X65625117Y-31750000D01*
X65608687Y-31916823D01*
X65560024Y-32077242D01*
X65490667Y-32207000D01*
X65481004Y-32225078D01*
X65374659Y-32354659D01*
X65245078Y-32461004D01*
X65245076Y-32461005D01*
X65097242Y-32540024D01*
X64936823Y-32588687D01*
X64811804Y-32601000D01*
X64728196Y-32601000D01*
X64603177Y-32588687D01*
X64442758Y-32540024D01*
X64294924Y-32461005D01*
X64294922Y-32461004D01*
X64165341Y-32354659D01*
X64058996Y-32225078D01*
X64049333Y-32207000D01*
X63979976Y-32077242D01*
X63931313Y-31916823D01*
X63914883Y-31750000D01*
X63931313Y-31583177D01*
X63979976Y-31422758D01*
X64058995Y-31274924D01*
X64058996Y-31274922D01*
X64165341Y-31145341D01*
X64294922Y-31038996D01*
X64312634Y-31029529D01*
X64442758Y-30959976D01*
X64603177Y-30911313D01*
X64728196Y-30899000D01*
X64811804Y-30899000D01*
X64936823Y-30911313D01*
X64936823Y-30911313D01*
G37*
G36*
X69401342Y-30968242D02*
G01*
X69549301Y-31029529D01*
X69682455Y-31118499D01*
X69795701Y-31231745D01*
X69884671Y-31364899D01*
X69945958Y-31512858D01*
X69977200Y-31669925D01*
X69977200Y-31830075D01*
X69945958Y-31987142D01*
X69884671Y-32135101D01*
X69795701Y-32268255D01*
X69682455Y-32381501D01*
X69549301Y-32470471D01*
X69401342Y-32531758D01*
X69244275Y-32563000D01*
X69084125Y-32563000D01*
X68927058Y-32531758D01*
X68779099Y-32470471D01*
X68645945Y-32381501D01*
X68532699Y-32268255D01*
X68443729Y-32135101D01*
X68382442Y-31987142D01*
X68351200Y-31830075D01*
X68351200Y-31669925D01*
X68382442Y-31512858D01*
X68443729Y-31364899D01*
X68532699Y-31231745D01*
X68645945Y-31118499D01*
X68779099Y-31029529D01*
X68927058Y-30968242D01*
X69084125Y-30937000D01*
X69244275Y-30937000D01*
X69401342Y-30968242D01*
X69401342Y-30968242D01*
G37*
G36*
X74481342Y-30968242D02*
G01*
X74629301Y-31029529D01*
X74762455Y-31118499D01*
X74875701Y-31231745D01*
X74964671Y-31364899D01*
X75025958Y-31512858D01*
X75057200Y-31669925D01*
X75057200Y-31830075D01*
X75025958Y-31987142D01*
X74964671Y-32135101D01*
X74875701Y-32268255D01*
X74762455Y-32381501D01*
X74629301Y-32470471D01*
X74481342Y-32531758D01*
X74324275Y-32563000D01*
X74164125Y-32563000D01*
X74007058Y-32531758D01*
X73859099Y-32470471D01*
X73725945Y-32381501D01*
X73612699Y-32268255D01*
X73523729Y-32135101D01*
X73462442Y-31987142D01*
X73431200Y-31830075D01*
X73431200Y-31669925D01*
X73462442Y-31512858D01*
X73523729Y-31364899D01*
X73612699Y-31231745D01*
X73725945Y-31118499D01*
X73859099Y-31029529D01*
X74007058Y-30968242D01*
X74164125Y-30937000D01*
X74324275Y-30937000D01*
X74481342Y-30968242D01*
X74481342Y-30968242D01*
G37*
G36*
X77783342Y-30968242D02*
G01*
X77931301Y-31029529D01*
X78064455Y-31118499D01*
X78177701Y-31231745D01*
X78266671Y-31364899D01*
X78327958Y-31512858D01*
X78359200Y-31669925D01*
X78359200Y-31830075D01*
X78327958Y-31987142D01*
X78266671Y-32135101D01*
X78177701Y-32268255D01*
X78064455Y-32381501D01*
X77931301Y-32470471D01*
X77783342Y-32531758D01*
X77626275Y-32563000D01*
X77466125Y-32563000D01*
X77309058Y-32531758D01*
X77161099Y-32470471D01*
X77027945Y-32381501D01*
X76914699Y-32268255D01*
X76825729Y-32135101D01*
X76764442Y-31987142D01*
X76733200Y-31830075D01*
X76733200Y-31669925D01*
X76764442Y-31512858D01*
X76825729Y-31364899D01*
X76914699Y-31231745D01*
X77027945Y-31118499D01*
X77161099Y-31029529D01*
X77309058Y-30968242D01*
X77466125Y-30937000D01*
X77626275Y-30937000D01*
X77783342Y-30968242D01*
X77783342Y-30968242D01*
G37*
G36*
X21750942Y-29698242D02*
G01*
X21898901Y-29759529D01*
X22032055Y-29848499D01*
X22145301Y-29961745D01*
X22234271Y-30094899D01*
X22295558Y-30242858D01*
X22326800Y-30399925D01*
X22326800Y-30560075D01*
X22295558Y-30717142D01*
X22234271Y-30865101D01*
X22145301Y-30998255D01*
X22032055Y-31111501D01*
X21898901Y-31200471D01*
X21750942Y-31261758D01*
X21593875Y-31293000D01*
X21433725Y-31293000D01*
X21276658Y-31261758D01*
X21128699Y-31200471D01*
X20995545Y-31111501D01*
X20882299Y-30998255D01*
X20793329Y-30865101D01*
X20732042Y-30717142D01*
X20700800Y-30560075D01*
X20700800Y-30399925D01*
X20732042Y-30242858D01*
X20793329Y-30094899D01*
X20882299Y-29961745D01*
X20995545Y-29848499D01*
X21128699Y-29759529D01*
X21276658Y-29698242D01*
X21433725Y-29667000D01*
X21593875Y-29667000D01*
X21750942Y-29698242D01*
X21750942Y-29698242D01*
G37*
G36*
X17940942Y-29698242D02*
G01*
X18088901Y-29759529D01*
X18222055Y-29848499D01*
X18335301Y-29961745D01*
X18424271Y-30094899D01*
X18485558Y-30242858D01*
X18516800Y-30399925D01*
X18516800Y-30560075D01*
X18485558Y-30717142D01*
X18424271Y-30865101D01*
X18335301Y-30998255D01*
X18222055Y-31111501D01*
X18088901Y-31200471D01*
X17940942Y-31261758D01*
X17783875Y-31293000D01*
X17623725Y-31293000D01*
X17466658Y-31261758D01*
X17318699Y-31200471D01*
X17185545Y-31111501D01*
X17072299Y-30998255D01*
X16983329Y-30865101D01*
X16922042Y-30717142D01*
X16890800Y-30560075D01*
X16890800Y-30399925D01*
X16922042Y-30242858D01*
X16983329Y-30094899D01*
X17072299Y-29961745D01*
X17185545Y-29848499D01*
X17318699Y-29759529D01*
X17466658Y-29698242D01*
X17623725Y-29667000D01*
X17783875Y-29667000D01*
X17940942Y-29698242D01*
X17940942Y-29698242D01*
G37*
G36*
X34450942Y-29698242D02*
G01*
X34598901Y-29759529D01*
X34732055Y-29848499D01*
X34845301Y-29961745D01*
X34934271Y-30094899D01*
X34995558Y-30242858D01*
X35026800Y-30399925D01*
X35026800Y-30560075D01*
X34995558Y-30717142D01*
X34934271Y-30865101D01*
X34845301Y-30998255D01*
X34732055Y-31111501D01*
X34598901Y-31200471D01*
X34450942Y-31261758D01*
X34293875Y-31293000D01*
X34133725Y-31293000D01*
X33976658Y-31261758D01*
X33828699Y-31200471D01*
X33695545Y-31111501D01*
X33582299Y-30998255D01*
X33493329Y-30865101D01*
X33432042Y-30717142D01*
X33400800Y-30560075D01*
X33400800Y-30399925D01*
X33432042Y-30242858D01*
X33493329Y-30094899D01*
X33582299Y-29961745D01*
X33695545Y-29848499D01*
X33828699Y-29759529D01*
X33976658Y-29698242D01*
X34133725Y-29667000D01*
X34293875Y-29667000D01*
X34450942Y-29698242D01*
X34450942Y-29698242D01*
G37*
G36*
X44610942Y-29698242D02*
G01*
X44758901Y-29759529D01*
X44892055Y-29848499D01*
X45005301Y-29961745D01*
X45094271Y-30094899D01*
X45155558Y-30242858D01*
X45186800Y-30399925D01*
X45186800Y-30560075D01*
X45155558Y-30717142D01*
X45094271Y-30865101D01*
X45005301Y-30998255D01*
X44892055Y-31111501D01*
X44758901Y-31200471D01*
X44610942Y-31261758D01*
X44453875Y-31293000D01*
X44293725Y-31293000D01*
X44136658Y-31261758D01*
X43988699Y-31200471D01*
X43855545Y-31111501D01*
X43742299Y-30998255D01*
X43653329Y-30865101D01*
X43592042Y-30717142D01*
X43560800Y-30560075D01*
X43560800Y-30399925D01*
X43592042Y-30242858D01*
X43653329Y-30094899D01*
X43742299Y-29961745D01*
X43855545Y-29848499D01*
X43988699Y-29759529D01*
X44136658Y-29698242D01*
X44293725Y-29667000D01*
X44453875Y-29667000D01*
X44610942Y-29698242D01*
X44610942Y-29698242D01*
G37*
G36*
X39530942Y-29698242D02*
G01*
X39678901Y-29759529D01*
X39812055Y-29848499D01*
X39925301Y-29961745D01*
X40014271Y-30094899D01*
X40075558Y-30242858D01*
X40106800Y-30399925D01*
X40106800Y-30560075D01*
X40075558Y-30717142D01*
X40014271Y-30865101D01*
X39925301Y-30998255D01*
X39812055Y-31111501D01*
X39678901Y-31200471D01*
X39530942Y-31261758D01*
X39373875Y-31293000D01*
X39213725Y-31293000D01*
X39056658Y-31261758D01*
X38908699Y-31200471D01*
X38775545Y-31111501D01*
X38662299Y-30998255D01*
X38573329Y-30865101D01*
X38512042Y-30717142D01*
X38480800Y-30560075D01*
X38480800Y-30399925D01*
X38512042Y-30242858D01*
X38573329Y-30094899D01*
X38662299Y-29961745D01*
X38775545Y-29848499D01*
X38908699Y-29759529D01*
X39056658Y-29698242D01*
X39213725Y-29667000D01*
X39373875Y-29667000D01*
X39530942Y-29698242D01*
X39530942Y-29698242D01*
G37*
G36*
X64936823Y-28371313D02*
G01*
X65097242Y-28419976D01*
X65227366Y-28489529D01*
X65245078Y-28498996D01*
X65374659Y-28605341D01*
X65481004Y-28734922D01*
X65481005Y-28734924D01*
X65560024Y-28882758D01*
X65608687Y-29043177D01*
X65625117Y-29210000D01*
X65608687Y-29376823D01*
X65560024Y-29537242D01*
X65490667Y-29667000D01*
X65481004Y-29685078D01*
X65374659Y-29814659D01*
X65245078Y-29921004D01*
X65245076Y-29921005D01*
X65097242Y-30000024D01*
X64936823Y-30048687D01*
X64811804Y-30061000D01*
X64728196Y-30061000D01*
X64603177Y-30048687D01*
X64442758Y-30000024D01*
X64294924Y-29921005D01*
X64294922Y-29921004D01*
X64165341Y-29814659D01*
X64058996Y-29685078D01*
X64049333Y-29667000D01*
X63979976Y-29537242D01*
X63931313Y-29376823D01*
X63914883Y-29210000D01*
X63931313Y-29043177D01*
X63979976Y-28882758D01*
X64058995Y-28734924D01*
X64058996Y-28734922D01*
X64165341Y-28605341D01*
X64294922Y-28498996D01*
X64312634Y-28489529D01*
X64442758Y-28419976D01*
X64603177Y-28371313D01*
X64728196Y-28359000D01*
X64811804Y-28359000D01*
X64936823Y-28371313D01*
X64936823Y-28371313D01*
G37*
G36*
X49696823Y-28371313D02*
G01*
X49857242Y-28419976D01*
X49987366Y-28489529D01*
X50005078Y-28498996D01*
X50134659Y-28605341D01*
X50241004Y-28734922D01*
X50241005Y-28734924D01*
X50320024Y-28882758D01*
X50368687Y-29043177D01*
X50385117Y-29210000D01*
X50368687Y-29376823D01*
X50320024Y-29537242D01*
X50250667Y-29667000D01*
X50241004Y-29685078D01*
X50134659Y-29814659D01*
X50005078Y-29921004D01*
X50005076Y-29921005D01*
X49857242Y-30000024D01*
X49696823Y-30048687D01*
X49571804Y-30061000D01*
X49488196Y-30061000D01*
X49363177Y-30048687D01*
X49202758Y-30000024D01*
X49054924Y-29921005D01*
X49054922Y-29921004D01*
X48925341Y-29814659D01*
X48818996Y-29685078D01*
X48809333Y-29667000D01*
X48739976Y-29537242D01*
X48691313Y-29376823D01*
X48674883Y-29210000D01*
X48691313Y-29043177D01*
X48739976Y-28882758D01*
X48818995Y-28734924D01*
X48818996Y-28734922D01*
X48925341Y-28605341D01*
X49054922Y-28498996D01*
X49072634Y-28489529D01*
X49202758Y-28419976D01*
X49363177Y-28371313D01*
X49488196Y-28359000D01*
X49571804Y-28359000D01*
X49696823Y-28371313D01*
X49696823Y-28371313D01*
G37*
G36*
X74405142Y-28428242D02*
G01*
X74553101Y-28489529D01*
X74686255Y-28578499D01*
X74799501Y-28691745D01*
X74888471Y-28824899D01*
X74949758Y-28972858D01*
X74981000Y-29129925D01*
X74981000Y-29290075D01*
X74949758Y-29447142D01*
X74888471Y-29595101D01*
X74799501Y-29728255D01*
X74686255Y-29841501D01*
X74553101Y-29930471D01*
X74405142Y-29991758D01*
X74248075Y-30023000D01*
X74087925Y-30023000D01*
X73930858Y-29991758D01*
X73782899Y-29930471D01*
X73649745Y-29841501D01*
X73536499Y-29728255D01*
X73447529Y-29595101D01*
X73386242Y-29447142D01*
X73355000Y-29290075D01*
X73355000Y-29129925D01*
X73386242Y-28972858D01*
X73447529Y-28824899D01*
X73536499Y-28691745D01*
X73649745Y-28578499D01*
X73782899Y-28489529D01*
X73930858Y-28428242D01*
X74087925Y-28397000D01*
X74248075Y-28397000D01*
X74405142Y-28428242D01*
X74405142Y-28428242D01*
G37*
G36*
X69325142Y-28428242D02*
G01*
X69473101Y-28489529D01*
X69606255Y-28578499D01*
X69719501Y-28691745D01*
X69808471Y-28824899D01*
X69869758Y-28972858D01*
X69901000Y-29129925D01*
X69901000Y-29290075D01*
X69869758Y-29447142D01*
X69808471Y-29595101D01*
X69719501Y-29728255D01*
X69606255Y-29841501D01*
X69473101Y-29930471D01*
X69325142Y-29991758D01*
X69168075Y-30023000D01*
X69007925Y-30023000D01*
X68850858Y-29991758D01*
X68702899Y-29930471D01*
X68569745Y-29841501D01*
X68456499Y-29728255D01*
X68367529Y-29595101D01*
X68306242Y-29447142D01*
X68275000Y-29290075D01*
X68275000Y-29129925D01*
X68306242Y-28972858D01*
X68367529Y-28824899D01*
X68456499Y-28691745D01*
X68569745Y-28578499D01*
X68702899Y-28489529D01*
X68850858Y-28428242D01*
X69007925Y-28397000D01*
X69168075Y-28397000D01*
X69325142Y-28428242D01*
X69325142Y-28428242D01*
G37*
G36*
X77707142Y-28428242D02*
G01*
X77855101Y-28489529D01*
X77988255Y-28578499D01*
X78101501Y-28691745D01*
X78190471Y-28824899D01*
X78251758Y-28972858D01*
X78283000Y-29129925D01*
X78283000Y-29290075D01*
X78251758Y-29447142D01*
X78190471Y-29595101D01*
X78101501Y-29728255D01*
X77988255Y-29841501D01*
X77855101Y-29930471D01*
X77707142Y-29991758D01*
X77550075Y-30023000D01*
X77389925Y-30023000D01*
X77232858Y-29991758D01*
X77084899Y-29930471D01*
X76951745Y-29841501D01*
X76838499Y-29728255D01*
X76749529Y-29595101D01*
X76688242Y-29447142D01*
X76657000Y-29290075D01*
X76657000Y-29129925D01*
X76688242Y-28972858D01*
X76749529Y-28824899D01*
X76838499Y-28691745D01*
X76951745Y-28578499D01*
X77084899Y-28489529D01*
X77232858Y-28428242D01*
X77389925Y-28397000D01*
X77550075Y-28397000D01*
X77707142Y-28428242D01*
X77707142Y-28428242D01*
G37*
G36*
X21827142Y-27158242D02*
G01*
X21975101Y-27219529D01*
X22108255Y-27308499D01*
X22221501Y-27421745D01*
X22310471Y-27554899D01*
X22371758Y-27702858D01*
X22403000Y-27859925D01*
X22403000Y-28020075D01*
X22371758Y-28177142D01*
X22310471Y-28325101D01*
X22221501Y-28458255D01*
X22108255Y-28571501D01*
X21975101Y-28660471D01*
X21827142Y-28721758D01*
X21670075Y-28753000D01*
X21509925Y-28753000D01*
X21352858Y-28721758D01*
X21204899Y-28660471D01*
X21071745Y-28571501D01*
X20958499Y-28458255D01*
X20869529Y-28325101D01*
X20808242Y-28177142D01*
X20777000Y-28020075D01*
X20777000Y-27859925D01*
X20808242Y-27702858D01*
X20869529Y-27554899D01*
X20958499Y-27421745D01*
X21071745Y-27308499D01*
X21204899Y-27219529D01*
X21352858Y-27158242D01*
X21509925Y-27127000D01*
X21670075Y-27127000D01*
X21827142Y-27158242D01*
X21827142Y-27158242D01*
G37*
G36*
X18017142Y-27158242D02*
G01*
X18165101Y-27219529D01*
X18298255Y-27308499D01*
X18411501Y-27421745D01*
X18500471Y-27554899D01*
X18561758Y-27702858D01*
X18593000Y-27859925D01*
X18593000Y-28020075D01*
X18561758Y-28177142D01*
X18500471Y-28325101D01*
X18411501Y-28458255D01*
X18298255Y-28571501D01*
X18165101Y-28660471D01*
X18017142Y-28721758D01*
X17860075Y-28753000D01*
X17699925Y-28753000D01*
X17542858Y-28721758D01*
X17394899Y-28660471D01*
X17261745Y-28571501D01*
X17148499Y-28458255D01*
X17059529Y-28325101D01*
X16998242Y-28177142D01*
X16967000Y-28020075D01*
X16967000Y-27859925D01*
X16998242Y-27702858D01*
X17059529Y-27554899D01*
X17148499Y-27421745D01*
X17261745Y-27308499D01*
X17394899Y-27219529D01*
X17542858Y-27158242D01*
X17699925Y-27127000D01*
X17860075Y-27127000D01*
X18017142Y-27158242D01*
X18017142Y-27158242D01*
G37*
G36*
X39607142Y-27158242D02*
G01*
X39755101Y-27219529D01*
X39888255Y-27308499D01*
X40001501Y-27421745D01*
X40090471Y-27554899D01*
X40151758Y-27702858D01*
X40183000Y-27859925D01*
X40183000Y-28020075D01*
X40151758Y-28177142D01*
X40090471Y-28325101D01*
X40001501Y-28458255D01*
X39888255Y-28571501D01*
X39755101Y-28660471D01*
X39607142Y-28721758D01*
X39450075Y-28753000D01*
X39289925Y-28753000D01*
X39132858Y-28721758D01*
X38984899Y-28660471D01*
X38851745Y-28571501D01*
X38738499Y-28458255D01*
X38649529Y-28325101D01*
X38588242Y-28177142D01*
X38557000Y-28020075D01*
X38557000Y-27859925D01*
X38588242Y-27702858D01*
X38649529Y-27554899D01*
X38738499Y-27421745D01*
X38851745Y-27308499D01*
X38984899Y-27219529D01*
X39132858Y-27158242D01*
X39289925Y-27127000D01*
X39450075Y-27127000D01*
X39607142Y-27158242D01*
X39607142Y-27158242D01*
G37*
G36*
X44687142Y-27158242D02*
G01*
X44835101Y-27219529D01*
X44968255Y-27308499D01*
X45081501Y-27421745D01*
X45170471Y-27554899D01*
X45231758Y-27702858D01*
X45263000Y-27859925D01*
X45263000Y-28020075D01*
X45231758Y-28177142D01*
X45170471Y-28325101D01*
X45081501Y-28458255D01*
X44968255Y-28571501D01*
X44835101Y-28660471D01*
X44687142Y-28721758D01*
X44530075Y-28753000D01*
X44369925Y-28753000D01*
X44212858Y-28721758D01*
X44064899Y-28660471D01*
X43931745Y-28571501D01*
X43818499Y-28458255D01*
X43729529Y-28325101D01*
X43668242Y-28177142D01*
X43637000Y-28020075D01*
X43637000Y-27859925D01*
X43668242Y-27702858D01*
X43729529Y-27554899D01*
X43818499Y-27421745D01*
X43931745Y-27308499D01*
X44064899Y-27219529D01*
X44212858Y-27158242D01*
X44369925Y-27127000D01*
X44530075Y-27127000D01*
X44687142Y-27158242D01*
X44687142Y-27158242D01*
G37*
G36*
X34527142Y-27158242D02*
G01*
X34675101Y-27219529D01*
X34808255Y-27308499D01*
X34921501Y-27421745D01*
X35010471Y-27554899D01*
X35071758Y-27702858D01*
X35103000Y-27859925D01*
X35103000Y-28020075D01*
X35071758Y-28177142D01*
X35010471Y-28325101D01*
X34921501Y-28458255D01*
X34808255Y-28571501D01*
X34675101Y-28660471D01*
X34527142Y-28721758D01*
X34370075Y-28753000D01*
X34209925Y-28753000D01*
X34052858Y-28721758D01*
X33904899Y-28660471D01*
X33771745Y-28571501D01*
X33658499Y-28458255D01*
X33569529Y-28325101D01*
X33508242Y-28177142D01*
X33477000Y-28020075D01*
X33477000Y-27859925D01*
X33508242Y-27702858D01*
X33569529Y-27554899D01*
X33658499Y-27421745D01*
X33771745Y-27308499D01*
X33904899Y-27219529D01*
X34052858Y-27158242D01*
X34209925Y-27127000D01*
X34370075Y-27127000D01*
X34527142Y-27158242D01*
X34527142Y-27158242D01*
G37*
G36*
X49696823Y-25831313D02*
G01*
X49857242Y-25879976D01*
X49987366Y-25949529D01*
X50005078Y-25958996D01*
X50134659Y-26065341D01*
X50241004Y-26194922D01*
X50241005Y-26194924D01*
X50320024Y-26342758D01*
X50368687Y-26503177D01*
X50385117Y-26670000D01*
X50368687Y-26836823D01*
X50320024Y-26997242D01*
X50250667Y-27127000D01*
X50241004Y-27145078D01*
X50134659Y-27274659D01*
X50005078Y-27381004D01*
X50005076Y-27381005D01*
X49857242Y-27460024D01*
X49696823Y-27508687D01*
X49571804Y-27521000D01*
X49488196Y-27521000D01*
X49363177Y-27508687D01*
X49202758Y-27460024D01*
X49054924Y-27381005D01*
X49054922Y-27381004D01*
X48925341Y-27274659D01*
X48818996Y-27145078D01*
X48809333Y-27127000D01*
X48739976Y-26997242D01*
X48691313Y-26836823D01*
X48674883Y-26670000D01*
X48691313Y-26503177D01*
X48739976Y-26342758D01*
X48818995Y-26194924D01*
X48818996Y-26194922D01*
X48925341Y-26065341D01*
X49054922Y-25958996D01*
X49072634Y-25949529D01*
X49202758Y-25879976D01*
X49363177Y-25831313D01*
X49488196Y-25819000D01*
X49571804Y-25819000D01*
X49696823Y-25831313D01*
X49696823Y-25831313D01*
G37*
G36*
X64936823Y-25831313D02*
G01*
X65097242Y-25879976D01*
X65227366Y-25949529D01*
X65245078Y-25958996D01*
X65374659Y-26065341D01*
X65481004Y-26194922D01*
X65481005Y-26194924D01*
X65560024Y-26342758D01*
X65608687Y-26503177D01*
X65625117Y-26670000D01*
X65608687Y-26836823D01*
X65560024Y-26997242D01*
X65490667Y-27127000D01*
X65481004Y-27145078D01*
X65374659Y-27274659D01*
X65245078Y-27381004D01*
X65245076Y-27381005D01*
X65097242Y-27460024D01*
X64936823Y-27508687D01*
X64811804Y-27521000D01*
X64728196Y-27521000D01*
X64603177Y-27508687D01*
X64442758Y-27460024D01*
X64294924Y-27381005D01*
X64294922Y-27381004D01*
X64165341Y-27274659D01*
X64058996Y-27145078D01*
X64049333Y-27127000D01*
X63979976Y-26997242D01*
X63931313Y-26836823D01*
X63914883Y-26670000D01*
X63931313Y-26503177D01*
X63979976Y-26342758D01*
X64058995Y-26194924D01*
X64058996Y-26194922D01*
X64165341Y-26065341D01*
X64294922Y-25958996D01*
X64312634Y-25949529D01*
X64442758Y-25879976D01*
X64603177Y-25831313D01*
X64728196Y-25819000D01*
X64811804Y-25819000D01*
X64936823Y-25831313D01*
X64936823Y-25831313D01*
G37*
G36*
X77783342Y-25888242D02*
G01*
X77931301Y-25949529D01*
X78064455Y-26038499D01*
X78177701Y-26151745D01*
X78266671Y-26284899D01*
X78327958Y-26432858D01*
X78359200Y-26589925D01*
X78359200Y-26750075D01*
X78327958Y-26907142D01*
X78266671Y-27055101D01*
X78177701Y-27188255D01*
X78064455Y-27301501D01*
X77931301Y-27390471D01*
X77783342Y-27451758D01*
X77626275Y-27483000D01*
X77466125Y-27483000D01*
X77309058Y-27451758D01*
X77161099Y-27390471D01*
X77027945Y-27301501D01*
X76914699Y-27188255D01*
X76825729Y-27055101D01*
X76764442Y-26907142D01*
X76733200Y-26750075D01*
X76733200Y-26589925D01*
X76764442Y-26432858D01*
X76825729Y-26284899D01*
X76914699Y-26151745D01*
X77027945Y-26038499D01*
X77161099Y-25949529D01*
X77309058Y-25888242D01*
X77466125Y-25857000D01*
X77626275Y-25857000D01*
X77783342Y-25888242D01*
X77783342Y-25888242D01*
G37*
G36*
X69401342Y-25888242D02*
G01*
X69549301Y-25949529D01*
X69682455Y-26038499D01*
X69795701Y-26151745D01*
X69884671Y-26284899D01*
X69945958Y-26432858D01*
X69977200Y-26589925D01*
X69977200Y-26750075D01*
X69945958Y-26907142D01*
X69884671Y-27055101D01*
X69795701Y-27188255D01*
X69682455Y-27301501D01*
X69549301Y-27390471D01*
X69401342Y-27451758D01*
X69244275Y-27483000D01*
X69084125Y-27483000D01*
X68927058Y-27451758D01*
X68779099Y-27390471D01*
X68645945Y-27301501D01*
X68532699Y-27188255D01*
X68443729Y-27055101D01*
X68382442Y-26907142D01*
X68351200Y-26750075D01*
X68351200Y-26589925D01*
X68382442Y-26432858D01*
X68443729Y-26284899D01*
X68532699Y-26151745D01*
X68645945Y-26038499D01*
X68779099Y-25949529D01*
X68927058Y-25888242D01*
X69084125Y-25857000D01*
X69244275Y-25857000D01*
X69401342Y-25888242D01*
X69401342Y-25888242D01*
G37*
G36*
X74481342Y-25888242D02*
G01*
X74629301Y-25949529D01*
X74762455Y-26038499D01*
X74875701Y-26151745D01*
X74964671Y-26284899D01*
X75025958Y-26432858D01*
X75057200Y-26589925D01*
X75057200Y-26750075D01*
X75025958Y-26907142D01*
X74964671Y-27055101D01*
X74875701Y-27188255D01*
X74762455Y-27301501D01*
X74629301Y-27390471D01*
X74481342Y-27451758D01*
X74324275Y-27483000D01*
X74164125Y-27483000D01*
X74007058Y-27451758D01*
X73859099Y-27390471D01*
X73725945Y-27301501D01*
X73612699Y-27188255D01*
X73523729Y-27055101D01*
X73462442Y-26907142D01*
X73431200Y-26750075D01*
X73431200Y-26589925D01*
X73462442Y-26432858D01*
X73523729Y-26284899D01*
X73612699Y-26151745D01*
X73725945Y-26038499D01*
X73859099Y-25949529D01*
X74007058Y-25888242D01*
X74164125Y-25857000D01*
X74324275Y-25857000D01*
X74481342Y-25888242D01*
X74481342Y-25888242D01*
G37*
G36*
X44687142Y-24618242D02*
G01*
X44835101Y-24679529D01*
X44968255Y-24768499D01*
X45081501Y-24881745D01*
X45170471Y-25014899D01*
X45231758Y-25162858D01*
X45263000Y-25319925D01*
X45263000Y-25480075D01*
X45231758Y-25637142D01*
X45170471Y-25785101D01*
X45081501Y-25918255D01*
X44968255Y-26031501D01*
X44835101Y-26120471D01*
X44687142Y-26181758D01*
X44530075Y-26213000D01*
X44369925Y-26213000D01*
X44212858Y-26181758D01*
X44064899Y-26120471D01*
X43931745Y-26031501D01*
X43818499Y-25918255D01*
X43729529Y-25785101D01*
X43668242Y-25637142D01*
X43637000Y-25480075D01*
X43637000Y-25319925D01*
X43668242Y-25162858D01*
X43729529Y-25014899D01*
X43818499Y-24881745D01*
X43931745Y-24768499D01*
X44064899Y-24679529D01*
X44212858Y-24618242D01*
X44369925Y-24587000D01*
X44530075Y-24587000D01*
X44687142Y-24618242D01*
X44687142Y-24618242D01*
G37*
G36*
X18017142Y-24618242D02*
G01*
X18165101Y-24679529D01*
X18298255Y-24768499D01*
X18411501Y-24881745D01*
X18500471Y-25014899D01*
X18561758Y-25162858D01*
X18593000Y-25319925D01*
X18593000Y-25480075D01*
X18561758Y-25637142D01*
X18500471Y-25785101D01*
X18411501Y-25918255D01*
X18298255Y-26031501D01*
X18165101Y-26120471D01*
X18017142Y-26181758D01*
X17860075Y-26213000D01*
X17699925Y-26213000D01*
X17542858Y-26181758D01*
X17394899Y-26120471D01*
X17261745Y-26031501D01*
X17148499Y-25918255D01*
X17059529Y-25785101D01*
X16998242Y-25637142D01*
X16967000Y-25480075D01*
X16967000Y-25319925D01*
X16998242Y-25162858D01*
X17059529Y-25014899D01*
X17148499Y-24881745D01*
X17261745Y-24768499D01*
X17394899Y-24679529D01*
X17542858Y-24618242D01*
X17699925Y-24587000D01*
X17860075Y-24587000D01*
X18017142Y-24618242D01*
X18017142Y-24618242D01*
G37*
G36*
X21827142Y-24618242D02*
G01*
X21975101Y-24679529D01*
X22108255Y-24768499D01*
X22221501Y-24881745D01*
X22310471Y-25014899D01*
X22371758Y-25162858D01*
X22403000Y-25319925D01*
X22403000Y-25480075D01*
X22371758Y-25637142D01*
X22310471Y-25785101D01*
X22221501Y-25918255D01*
X22108255Y-26031501D01*
X21975101Y-26120471D01*
X21827142Y-26181758D01*
X21670075Y-26213000D01*
X21509925Y-26213000D01*
X21352858Y-26181758D01*
X21204899Y-26120471D01*
X21071745Y-26031501D01*
X20958499Y-25918255D01*
X20869529Y-25785101D01*
X20808242Y-25637142D01*
X20777000Y-25480075D01*
X20777000Y-25319925D01*
X20808242Y-25162858D01*
X20869529Y-25014899D01*
X20958499Y-24881745D01*
X21071745Y-24768499D01*
X21204899Y-24679529D01*
X21352858Y-24618242D01*
X21509925Y-24587000D01*
X21670075Y-24587000D01*
X21827142Y-24618242D01*
X21827142Y-24618242D01*
G37*
G36*
X39607142Y-24618242D02*
G01*
X39755101Y-24679529D01*
X39888255Y-24768499D01*
X40001501Y-24881745D01*
X40090471Y-25014899D01*
X40151758Y-25162858D01*
X40183000Y-25319925D01*
X40183000Y-25480075D01*
X40151758Y-25637142D01*
X40090471Y-25785101D01*
X40001501Y-25918255D01*
X39888255Y-26031501D01*
X39755101Y-26120471D01*
X39607142Y-26181758D01*
X39450075Y-26213000D01*
X39289925Y-26213000D01*
X39132858Y-26181758D01*
X38984899Y-26120471D01*
X38851745Y-26031501D01*
X38738499Y-25918255D01*
X38649529Y-25785101D01*
X38588242Y-25637142D01*
X38557000Y-25480075D01*
X38557000Y-25319925D01*
X38588242Y-25162858D01*
X38649529Y-25014899D01*
X38738499Y-24881745D01*
X38851745Y-24768499D01*
X38984899Y-24679529D01*
X39132858Y-24618242D01*
X39289925Y-24587000D01*
X39450075Y-24587000D01*
X39607142Y-24618242D01*
X39607142Y-24618242D01*
G37*
G36*
X34527142Y-24618242D02*
G01*
X34675101Y-24679529D01*
X34808255Y-24768499D01*
X34921501Y-24881745D01*
X35010471Y-25014899D01*
X35071758Y-25162858D01*
X35103000Y-25319925D01*
X35103000Y-25480075D01*
X35071758Y-25637142D01*
X35010471Y-25785101D01*
X34921501Y-25918255D01*
X34808255Y-26031501D01*
X34675101Y-26120471D01*
X34527142Y-26181758D01*
X34370075Y-26213000D01*
X34209925Y-26213000D01*
X34052858Y-26181758D01*
X33904899Y-26120471D01*
X33771745Y-26031501D01*
X33658499Y-25918255D01*
X33569529Y-25785101D01*
X33508242Y-25637142D01*
X33477000Y-25480075D01*
X33477000Y-25319925D01*
X33508242Y-25162858D01*
X33569529Y-25014899D01*
X33658499Y-24881745D01*
X33771745Y-24768499D01*
X33904899Y-24679529D01*
X34052858Y-24618242D01*
X34209925Y-24587000D01*
X34370075Y-24587000D01*
X34527142Y-24618242D01*
X34527142Y-24618242D01*
G37*
G36*
X50381000Y-24981000D02*
G01*
X48679000Y-24981000D01*
X48679000Y-23279000D01*
X50381000Y-23279000D01*
X50381000Y-24981000D01*
X50381000Y-24981000D01*
G37*
G36*
X64936823Y-23291313D02*
G01*
X65097242Y-23339976D01*
X65227366Y-23409529D01*
X65245078Y-23418996D01*
X65374659Y-23525341D01*
X65481004Y-23654922D01*
X65481005Y-23654924D01*
X65560024Y-23802758D01*
X65608687Y-23963177D01*
X65625117Y-24130000D01*
X65608687Y-24296823D01*
X65560024Y-24457242D01*
X65490667Y-24587000D01*
X65481004Y-24605078D01*
X65374659Y-24734659D01*
X65245078Y-24841004D01*
X65245076Y-24841005D01*
X65097242Y-24920024D01*
X64936823Y-24968687D01*
X64811804Y-24981000D01*
X64728196Y-24981000D01*
X64603177Y-24968687D01*
X64442758Y-24920024D01*
X64294924Y-24841005D01*
X64294922Y-24841004D01*
X64165341Y-24734659D01*
X64058996Y-24605078D01*
X64049333Y-24587000D01*
X63979976Y-24457242D01*
X63931313Y-24296823D01*
X63914883Y-24130000D01*
X63931313Y-23963177D01*
X63979976Y-23802758D01*
X64058995Y-23654924D01*
X64058996Y-23654922D01*
X64165341Y-23525341D01*
X64294922Y-23418996D01*
X64312634Y-23409529D01*
X64442758Y-23339976D01*
X64603177Y-23291313D01*
X64728196Y-23279000D01*
X64811804Y-23279000D01*
X64936823Y-23291313D01*
X64936823Y-23291313D01*
G37*
G36*
X69325142Y-23348242D02*
G01*
X69473101Y-23409529D01*
X69606255Y-23498499D01*
X69719501Y-23611745D01*
X69808471Y-23744899D01*
X69869758Y-23892858D01*
X69901000Y-24049925D01*
X69901000Y-24210075D01*
X69869758Y-24367142D01*
X69808471Y-24515101D01*
X69719501Y-24648255D01*
X69606255Y-24761501D01*
X69473101Y-24850471D01*
X69325142Y-24911758D01*
X69168075Y-24943000D01*
X69007925Y-24943000D01*
X68850858Y-24911758D01*
X68702899Y-24850471D01*
X68569745Y-24761501D01*
X68456499Y-24648255D01*
X68367529Y-24515101D01*
X68306242Y-24367142D01*
X68275000Y-24210075D01*
X68275000Y-24049925D01*
X68306242Y-23892858D01*
X68367529Y-23744899D01*
X68456499Y-23611745D01*
X68569745Y-23498499D01*
X68702899Y-23409529D01*
X68850858Y-23348242D01*
X69007925Y-23317000D01*
X69168075Y-23317000D01*
X69325142Y-23348242D01*
X69325142Y-23348242D01*
G37*
G36*
X77707142Y-23348242D02*
G01*
X77855101Y-23409529D01*
X77988255Y-23498499D01*
X78101501Y-23611745D01*
X78190471Y-23744899D01*
X78251758Y-23892858D01*
X78283000Y-24049925D01*
X78283000Y-24210075D01*
X78251758Y-24367142D01*
X78190471Y-24515101D01*
X78101501Y-24648255D01*
X77988255Y-24761501D01*
X77855101Y-24850471D01*
X77707142Y-24911758D01*
X77550075Y-24943000D01*
X77389925Y-24943000D01*
X77232858Y-24911758D01*
X77084899Y-24850471D01*
X76951745Y-24761501D01*
X76838499Y-24648255D01*
X76749529Y-24515101D01*
X76688242Y-24367142D01*
X76657000Y-24210075D01*
X76657000Y-24049925D01*
X76688242Y-23892858D01*
X76749529Y-23744899D01*
X76838499Y-23611745D01*
X76951745Y-23498499D01*
X77084899Y-23409529D01*
X77232858Y-23348242D01*
X77389925Y-23317000D01*
X77550075Y-23317000D01*
X77707142Y-23348242D01*
X77707142Y-23348242D01*
G37*
G36*
X74405142Y-23348242D02*
G01*
X74553101Y-23409529D01*
X74686255Y-23498499D01*
X74799501Y-23611745D01*
X74888471Y-23744899D01*
X74949758Y-23892858D01*
X74981000Y-24049925D01*
X74981000Y-24210075D01*
X74949758Y-24367142D01*
X74888471Y-24515101D01*
X74799501Y-24648255D01*
X74686255Y-24761501D01*
X74553101Y-24850471D01*
X74405142Y-24911758D01*
X74248075Y-24943000D01*
X74087925Y-24943000D01*
X73930858Y-24911758D01*
X73782899Y-24850471D01*
X73649745Y-24761501D01*
X73536499Y-24648255D01*
X73447529Y-24515101D01*
X73386242Y-24367142D01*
X73355000Y-24210075D01*
X73355000Y-24049925D01*
X73386242Y-23892858D01*
X73447529Y-23744899D01*
X73536499Y-23611745D01*
X73649745Y-23498499D01*
X73782899Y-23409529D01*
X73930858Y-23348242D01*
X74087925Y-23317000D01*
X74248075Y-23317000D01*
X74405142Y-23348242D01*
X74405142Y-23348242D01*
G37*
G36*
X44687142Y-22078242D02*
G01*
X44835101Y-22139529D01*
X44968255Y-22228499D01*
X45081501Y-22341745D01*
X45170471Y-22474899D01*
X45231758Y-22622858D01*
X45263000Y-22779925D01*
X45263000Y-22940075D01*
X45231758Y-23097142D01*
X45170471Y-23245101D01*
X45081501Y-23378255D01*
X44968255Y-23491501D01*
X44835101Y-23580471D01*
X44687142Y-23641758D01*
X44530075Y-23673000D01*
X44369925Y-23673000D01*
X44212858Y-23641758D01*
X44064899Y-23580471D01*
X43931745Y-23491501D01*
X43818499Y-23378255D01*
X43729529Y-23245101D01*
X43668242Y-23097142D01*
X43637000Y-22940075D01*
X43637000Y-22779925D01*
X43668242Y-22622858D01*
X43729529Y-22474899D01*
X43818499Y-22341745D01*
X43931745Y-22228499D01*
X44064899Y-22139529D01*
X44212858Y-22078242D01*
X44369925Y-22047000D01*
X44530075Y-22047000D01*
X44687142Y-22078242D01*
X44687142Y-22078242D01*
G37*
G36*
X39607142Y-22078242D02*
G01*
X39755101Y-22139529D01*
X39888255Y-22228499D01*
X40001501Y-22341745D01*
X40090471Y-22474899D01*
X40151758Y-22622858D01*
X40183000Y-22779925D01*
X40183000Y-22940075D01*
X40151758Y-23097142D01*
X40090471Y-23245101D01*
X40001501Y-23378255D01*
X39888255Y-23491501D01*
X39755101Y-23580471D01*
X39607142Y-23641758D01*
X39450075Y-23673000D01*
X39289925Y-23673000D01*
X39132858Y-23641758D01*
X38984899Y-23580471D01*
X38851745Y-23491501D01*
X38738499Y-23378255D01*
X38649529Y-23245101D01*
X38588242Y-23097142D01*
X38557000Y-22940075D01*
X38557000Y-22779925D01*
X38588242Y-22622858D01*
X38649529Y-22474899D01*
X38738499Y-22341745D01*
X38851745Y-22228499D01*
X38984899Y-22139529D01*
X39132858Y-22078242D01*
X39289925Y-22047000D01*
X39450075Y-22047000D01*
X39607142Y-22078242D01*
X39607142Y-22078242D01*
G37*
G36*
X34527142Y-22078242D02*
G01*
X34675101Y-22139529D01*
X34808255Y-22228499D01*
X34921501Y-22341745D01*
X35010471Y-22474899D01*
X35071758Y-22622858D01*
X35103000Y-22779925D01*
X35103000Y-22940075D01*
X35071758Y-23097142D01*
X35010471Y-23245101D01*
X34921501Y-23378255D01*
X34808255Y-23491501D01*
X34675101Y-23580471D01*
X34527142Y-23641758D01*
X34370075Y-23673000D01*
X34209925Y-23673000D01*
X34052858Y-23641758D01*
X33904899Y-23580471D01*
X33771745Y-23491501D01*
X33658499Y-23378255D01*
X33569529Y-23245101D01*
X33508242Y-23097142D01*
X33477000Y-22940075D01*
X33477000Y-22779925D01*
X33508242Y-22622858D01*
X33569529Y-22474899D01*
X33658499Y-22341745D01*
X33771745Y-22228499D01*
X33904899Y-22139529D01*
X34052858Y-22078242D01*
X34209925Y-22047000D01*
X34370075Y-22047000D01*
X34527142Y-22078242D01*
X34527142Y-22078242D01*
G37*
G36*
X21827142Y-22078242D02*
G01*
X21975101Y-22139529D01*
X22108255Y-22228499D01*
X22221501Y-22341745D01*
X22310471Y-22474899D01*
X22371758Y-22622858D01*
X22403000Y-22779925D01*
X22403000Y-22940075D01*
X22371758Y-23097142D01*
X22310471Y-23245101D01*
X22221501Y-23378255D01*
X22108255Y-23491501D01*
X21975101Y-23580471D01*
X21827142Y-23641758D01*
X21670075Y-23673000D01*
X21509925Y-23673000D01*
X21352858Y-23641758D01*
X21204899Y-23580471D01*
X21071745Y-23491501D01*
X20958499Y-23378255D01*
X20869529Y-23245101D01*
X20808242Y-23097142D01*
X20777000Y-22940075D01*
X20777000Y-22779925D01*
X20808242Y-22622858D01*
X20869529Y-22474899D01*
X20958499Y-22341745D01*
X21071745Y-22228499D01*
X21204899Y-22139529D01*
X21352858Y-22078242D01*
X21509925Y-22047000D01*
X21670075Y-22047000D01*
X21827142Y-22078242D01*
X21827142Y-22078242D01*
G37*
G36*
X18017142Y-22078242D02*
G01*
X18165101Y-22139529D01*
X18298255Y-22228499D01*
X18411501Y-22341745D01*
X18500471Y-22474899D01*
X18561758Y-22622858D01*
X18593000Y-22779925D01*
X18593000Y-22940075D01*
X18561758Y-23097142D01*
X18500471Y-23245101D01*
X18411501Y-23378255D01*
X18298255Y-23491501D01*
X18165101Y-23580471D01*
X18017142Y-23641758D01*
X17860075Y-23673000D01*
X17699925Y-23673000D01*
X17542858Y-23641758D01*
X17394899Y-23580471D01*
X17261745Y-23491501D01*
X17148499Y-23378255D01*
X17059529Y-23245101D01*
X16998242Y-23097142D01*
X16967000Y-22940075D01*
X16967000Y-22779925D01*
X16998242Y-22622858D01*
X17059529Y-22474899D01*
X17148499Y-22341745D01*
X17261745Y-22228499D01*
X17394899Y-22139529D01*
X17542858Y-22078242D01*
X17699925Y-22047000D01*
X17860075Y-22047000D01*
X18017142Y-22078242D01*
X18017142Y-22078242D01*
G37*
G36*
X78964549Y-16651116D02*
G01*
X79075734Y-16673232D01*
X79285203Y-16759997D01*
X79473720Y-16885960D01*
X79634040Y-17046280D01*
X79760003Y-17234797D01*
X79846768Y-17444266D01*
X79891000Y-17666636D01*
X79891000Y-17893364D01*
X79846768Y-18115734D01*
X79760003Y-18325203D01*
X79634040Y-18513720D01*
X79473720Y-18674040D01*
X79285203Y-18800003D01*
X79075734Y-18886768D01*
X78964549Y-18908884D01*
X78853365Y-18931000D01*
X78626635Y-18931000D01*
X78515451Y-18908884D01*
X78404266Y-18886768D01*
X78194797Y-18800003D01*
X78006280Y-18674040D01*
X77845960Y-18513720D01*
X77719997Y-18325203D01*
X77633232Y-18115734D01*
X77589000Y-17893364D01*
X77589000Y-17666636D01*
X77633232Y-17444266D01*
X77719997Y-17234797D01*
X77845960Y-17046280D01*
X78006280Y-16885960D01*
X78194797Y-16759997D01*
X78404266Y-16673232D01*
X78515451Y-16651116D01*
X78626635Y-16629000D01*
X78853365Y-16629000D01*
X78964549Y-16651116D01*
X78964549Y-16651116D01*
G37*
G36*
X15464549Y-16651116D02*
G01*
X15575734Y-16673232D01*
X15785203Y-16759997D01*
X15973720Y-16885960D01*
X16134040Y-17046280D01*
X16260003Y-17234797D01*
X16346768Y-17444266D01*
X16391000Y-17666636D01*
X16391000Y-17893364D01*
X16346768Y-18115734D01*
X16260003Y-18325203D01*
X16134040Y-18513720D01*
X15973720Y-18674040D01*
X15785203Y-18800003D01*
X15575734Y-18886768D01*
X15464549Y-18908884D01*
X15353365Y-18931000D01*
X15126635Y-18931000D01*
X15015451Y-18908884D01*
X14904266Y-18886768D01*
X14694797Y-18800003D01*
X14506280Y-18674040D01*
X14345960Y-18513720D01*
X14219997Y-18325203D01*
X14133232Y-18115734D01*
X14089000Y-17893364D01*
X14089000Y-17666636D01*
X14133232Y-17444266D01*
X14219997Y-17234797D01*
X14345960Y-17046280D01*
X14506280Y-16885960D01*
X14694797Y-16759997D01*
X14904266Y-16673232D01*
X15015451Y-16651116D01*
X15126635Y-16629000D01*
X15353365Y-16629000D01*
X15464549Y-16651116D01*
X15464549Y-16651116D01*
G37*
M02*
