M48
; DRILL file {KiCad (5.1.0)-1} date 11.07.2019 20:22:07
; FORMAT={-:-/ absolute / metric / decimal}
; #@! TF.CreationDate,2019-07-11T20:22:07+02:00
; #@! TF.GenerationSoftware,Kicad,Pcbnew,(5.1.0)-1
FMAT,2
METRIC
T1C0.100
T2C0.762
T3C0.800
T4C1.000
T5C2.200
%
G90
G05
T1
X28.73Y-67.02
X28.75Y-61.96
X46.112Y-58.358
X46.112Y-60.39
X46.112Y-62.422
X46.112Y-64.454
X46.112Y-66.486
X46.112Y-68.518
X46.112Y-70.55
X46.112Y-72.582
T2
X77.47Y-24.13
X77.47Y-29.21
X77.47Y-34.29
X77.47Y-39.37
X77.47Y-41.91
X77.47Y-44.45
X77.47Y-49.53
X77.47Y-52.07
X77.47Y-54.61
X77.546Y-26.67
X77.546Y-31.75
X77.546Y-36.83
X77.546Y-46.99
X69.088Y-24.13
X69.088Y-29.21
X69.088Y-34.29
X69.088Y-39.37
X69.088Y-41.91
X69.088Y-44.45
X69.088Y-49.53
X69.088Y-52.07
X69.088Y-54.61
X69.164Y-26.67
X69.164Y-31.75
X69.164Y-36.83
X69.164Y-46.99
X39.294Y-30.48
X39.294Y-40.64
X39.294Y-45.72
X39.294Y-50.8
X39.37Y-22.86
X39.37Y-25.4
X39.37Y-27.94
X39.37Y-33.02
X39.37Y-35.56
X39.37Y-38.1
X39.37Y-43.18
X39.37Y-48.26
X39.37Y-53.34
X17.704Y-30.48
X17.704Y-40.64
X17.704Y-45.72
X17.704Y-50.8
X17.78Y-22.86
X17.78Y-25.4
X17.78Y-27.94
X17.78Y-33.02
X17.78Y-35.56
X17.78Y-38.1
X17.78Y-43.18
X17.78Y-48.26
X17.78Y-53.34
X21.514Y-30.48
X21.514Y-40.64
X21.514Y-45.72
X21.514Y-50.8
X21.59Y-22.86
X21.59Y-25.4
X21.59Y-27.94
X21.59Y-33.02
X21.59Y-35.56
X21.59Y-38.1
X21.59Y-43.18
X21.59Y-48.26
X21.59Y-53.34
X34.214Y-30.48
X34.214Y-40.64
X34.214Y-45.72
X34.214Y-50.8
X34.29Y-22.86
X34.29Y-25.4
X34.29Y-27.94
X34.29Y-33.02
X34.29Y-35.56
X34.29Y-38.1
X34.29Y-43.18
X34.29Y-48.26
X34.29Y-53.34
X44.374Y-30.48
X44.374Y-40.64
X44.374Y-45.72
X44.374Y-50.8
X44.45Y-22.86
X44.45Y-25.4
X44.45Y-27.94
X44.45Y-33.02
X44.45Y-35.56
X44.45Y-38.1
X44.45Y-43.18
X44.45Y-48.26
X44.45Y-53.34
X74.168Y-24.13
X74.168Y-29.21
X74.168Y-34.29
X74.168Y-39.37
X74.168Y-41.91
X74.168Y-44.45
X74.168Y-49.53
X74.168Y-52.07
X74.168Y-54.61
X74.244Y-26.67
X74.244Y-31.75
X74.244Y-36.83
X74.244Y-46.99
T3
X49.53Y-24.13
X49.53Y-26.67
X49.53Y-29.21
X49.53Y-31.75
X49.53Y-34.29
X49.53Y-36.83
X49.53Y-39.37
X49.53Y-41.91
X49.53Y-44.45
X49.53Y-46.99
X49.53Y-49.53
X49.53Y-52.07
X49.53Y-54.61
X49.53Y-57.15
X49.53Y-59.69
X64.77Y-24.13
X64.77Y-26.67
X64.77Y-29.21
X64.77Y-31.75
X64.77Y-34.29
X64.77Y-36.83
X64.77Y-39.37
X64.77Y-41.91
X64.77Y-44.45
X64.77Y-46.99
X64.77Y-49.53
X64.77Y-52.07
X64.77Y-54.61
X64.77Y-57.15
X64.77Y-59.69
T4
X28.738Y-64.483
T5
X15.24Y-17.78
X78.74Y-17.78
X15.24Y-71.12
X78.74Y-71.12
T0
M30
