G04 #@! TF.GenerationSoftware,KiCad,Pcbnew,(5.1.0)-1*
G04 #@! TF.CreationDate,2019-07-11T20:21:54+02:00*
G04 #@! TF.ProjectId,Arduino_HM_1,41726475-696e-46f5-9f48-4d5f312e6b69,rev?*
G04 #@! TF.SameCoordinates,Original*
G04 #@! TF.FileFunction,Copper,L2,Bot*
G04 #@! TF.FilePolarity,Positive*
%FSLAX46Y46*%
G04 Gerber Fmt 4.6, Leading zero omitted, Abs format (unit mm)*
G04 Created by KiCad (PCBNEW (5.1.0)-1) date 2019-07-11 20:21:54*
%MOMM*%
%LPD*%
G04 APERTURE LIST*
%ADD10C,1.524000*%
%ADD11C,1.000000*%
%ADD12C,1.500000*%
%ADD13O,1.600000X1.600000*%
%ADD14R,1.600000X1.600000*%
%ADD15C,0.250000*%
%ADD16C,0.254000*%
G04 APERTURE END LIST*
D10*
X17780000Y-53340000D03*
X17703800Y-50800000D03*
X17780000Y-48260000D03*
X17780000Y-43180000D03*
X17703800Y-45720000D03*
X17780000Y-33020000D03*
X17780000Y-35560000D03*
X17703800Y-40640000D03*
X17780000Y-38100000D03*
X17703800Y-30480000D03*
X17780000Y-27940000D03*
X17780000Y-25400000D03*
X17780000Y-22860000D03*
X77470000Y-24130000D03*
X77546200Y-26670000D03*
X77470000Y-29210000D03*
X77470000Y-34290000D03*
X77546200Y-31750000D03*
X77470000Y-44450000D03*
X77470000Y-41910000D03*
X77546200Y-36830000D03*
X77470000Y-39370000D03*
X77546200Y-46990000D03*
X77470000Y-49530000D03*
X77470000Y-52070000D03*
X77470000Y-54610000D03*
D11*
X28750000Y-61960000D03*
D12*
X28738400Y-64482600D03*
D11*
X28730000Y-67020000D03*
X46112000Y-58358000D03*
X46112000Y-60390000D03*
X46112000Y-62422000D03*
X46112000Y-64454000D03*
X46112000Y-66486000D03*
X46112000Y-68518000D03*
X46112000Y-70550000D03*
X46112000Y-72582000D03*
D10*
X74168000Y-24130000D03*
X74244200Y-26670000D03*
X74168000Y-29210000D03*
X74168000Y-34290000D03*
X74244200Y-31750000D03*
X74168000Y-44450000D03*
X74168000Y-41910000D03*
X74244200Y-36830000D03*
X74168000Y-39370000D03*
X74244200Y-46990000D03*
X74168000Y-49530000D03*
X74168000Y-52070000D03*
X74168000Y-54610000D03*
X39370000Y-53340000D03*
X39293800Y-50800000D03*
X39370000Y-48260000D03*
X39370000Y-43180000D03*
X39293800Y-45720000D03*
X39370000Y-33020000D03*
X39370000Y-35560000D03*
X39293800Y-40640000D03*
X39370000Y-38100000D03*
X39293800Y-30480000D03*
X39370000Y-27940000D03*
X39370000Y-25400000D03*
X39370000Y-22860000D03*
X34290000Y-53340000D03*
X34213800Y-50800000D03*
X34290000Y-48260000D03*
X34290000Y-43180000D03*
X34213800Y-45720000D03*
X34290000Y-33020000D03*
X34290000Y-35560000D03*
X34213800Y-40640000D03*
X34290000Y-38100000D03*
X34213800Y-30480000D03*
X34290000Y-27940000D03*
X34290000Y-25400000D03*
X34290000Y-22860000D03*
X21590000Y-53340000D03*
X21513800Y-50800000D03*
X21590000Y-48260000D03*
X21590000Y-43180000D03*
X21513800Y-45720000D03*
X21590000Y-33020000D03*
X21590000Y-35560000D03*
X21513800Y-40640000D03*
X21590000Y-38100000D03*
X21513800Y-30480000D03*
X21590000Y-27940000D03*
X21590000Y-25400000D03*
X21590000Y-22860000D03*
X69088000Y-24130000D03*
X69164200Y-26670000D03*
X69088000Y-29210000D03*
X69088000Y-34290000D03*
X69164200Y-31750000D03*
X69088000Y-44450000D03*
X69088000Y-41910000D03*
X69164200Y-36830000D03*
X69088000Y-39370000D03*
X69164200Y-46990000D03*
X69088000Y-49530000D03*
X69088000Y-52070000D03*
X69088000Y-54610000D03*
X44450000Y-53340000D03*
X44373800Y-50800000D03*
X44450000Y-48260000D03*
X44450000Y-43180000D03*
X44373800Y-45720000D03*
X44450000Y-33020000D03*
X44450000Y-35560000D03*
X44373800Y-40640000D03*
X44450000Y-38100000D03*
X44373800Y-30480000D03*
X44450000Y-27940000D03*
X44450000Y-25400000D03*
X44450000Y-22860000D03*
D13*
X64770000Y-59690000D03*
X49530000Y-59690000D03*
X64770000Y-24130000D03*
X49530000Y-57150000D03*
X64770000Y-26670000D03*
X49530000Y-54610000D03*
X64770000Y-29210000D03*
X49530000Y-52070000D03*
X64770000Y-31750000D03*
X49530000Y-49530000D03*
X64770000Y-34290000D03*
X49530000Y-46990000D03*
X64770000Y-36830000D03*
X49530000Y-44450000D03*
X64770000Y-39370000D03*
X49530000Y-41910000D03*
X64770000Y-41910000D03*
X49530000Y-39370000D03*
X64770000Y-44450000D03*
X49530000Y-36830000D03*
X64770000Y-46990000D03*
X49530000Y-34290000D03*
X64770000Y-49530000D03*
X49530000Y-31750000D03*
X64770000Y-52070000D03*
X49530000Y-29210000D03*
X64770000Y-54610000D03*
X49530000Y-26670000D03*
X64770000Y-57150000D03*
D14*
X49530000Y-24130000D03*
D15*
X56848700Y-66486000D02*
X46112000Y-66486000D01*
X63644700Y-59690000D02*
X56848700Y-66486000D01*
X64770000Y-59690000D02*
X63644700Y-59690000D01*
X49530000Y-61036000D02*
X46112000Y-64454000D01*
X49530000Y-59690000D02*
X49530000Y-61036000D01*
X21590000Y-22860000D02*
X21590000Y-25400000D01*
X21590000Y-38100000D02*
X21590000Y-35560000D01*
X21590000Y-40563800D02*
X21590000Y-38100000D01*
X21513800Y-40640000D02*
X21590000Y-40563800D01*
X21590000Y-40716200D02*
X21590000Y-43180000D01*
X21513800Y-40640000D02*
X21590000Y-40716200D01*
X74168000Y-54610000D02*
X74168000Y-52070000D01*
X74168000Y-39370000D02*
X74168000Y-41910000D01*
X74168000Y-36906200D02*
X74168000Y-39370000D01*
X74244200Y-36830000D02*
X74168000Y-36906200D01*
X74168000Y-36753800D02*
X74168000Y-34290000D01*
X74244200Y-36830000D02*
X74168000Y-36753800D01*
X21590000Y-50876200D02*
X21590000Y-53340000D01*
X21513800Y-50800000D02*
X21590000Y-50876200D01*
X21590000Y-50723800D02*
X21590000Y-48260000D01*
X21513800Y-50800000D02*
X21590000Y-50723800D01*
X21590000Y-45643800D02*
X21590000Y-43180000D01*
X21513800Y-45720000D02*
X21590000Y-45643800D01*
X21590000Y-45796200D02*
X21590000Y-48260000D01*
X21513800Y-45720000D02*
X21590000Y-45796200D01*
X21590000Y-35560000D02*
X21590000Y-33020000D01*
X21513800Y-32943800D02*
X21513800Y-30480000D01*
X21590000Y-33020000D02*
X21513800Y-32943800D01*
X21590000Y-25400000D02*
X21590000Y-27940000D01*
X21513800Y-28016200D02*
X21513800Y-30480000D01*
X21590000Y-27940000D02*
X21513800Y-28016200D01*
X45902600Y-51887400D02*
X44450000Y-53340000D01*
X45902600Y-36221400D02*
X45902600Y-51887400D01*
X49248700Y-32875300D02*
X45902600Y-36221400D01*
X49530000Y-32875300D02*
X49248700Y-32875300D01*
X49530000Y-31750000D02*
X49530000Y-32875300D01*
X74168000Y-41910000D02*
X74168000Y-44450000D01*
X74244200Y-44526200D02*
X74244200Y-46990000D01*
X74168000Y-44450000D02*
X74244200Y-44526200D01*
X74168000Y-52070000D02*
X74168000Y-49530000D01*
X74244200Y-49453800D02*
X74244200Y-46990000D01*
X74168000Y-49530000D02*
X74244200Y-49453800D01*
X74168000Y-31826200D02*
X74168000Y-34290000D01*
X74244200Y-31750000D02*
X74168000Y-31826200D01*
X74168000Y-31673800D02*
X74168000Y-29210000D01*
X74244200Y-31750000D02*
X74168000Y-31673800D01*
X64770000Y-26670000D02*
X65895300Y-26670000D01*
X74206100Y-26708100D02*
X72898000Y-25400000D01*
X67165300Y-25400000D02*
X72898000Y-25400000D01*
X65895300Y-26670000D02*
X67165300Y-25400000D01*
X72898000Y-25400000D02*
X74168000Y-24130000D01*
X74244200Y-26670000D02*
X74206100Y-26708100D01*
X74168000Y-26746200D02*
X74168000Y-29210000D01*
X74206100Y-26708100D02*
X74168000Y-26746200D01*
X48404700Y-56065300D02*
X46112000Y-58358000D01*
X48404700Y-48959200D02*
X48404700Y-56065300D01*
X49248600Y-48115300D02*
X48404700Y-48959200D01*
X49530000Y-48115300D02*
X49248600Y-48115300D01*
X49530000Y-46990000D02*
X49530000Y-48115300D01*
X45282500Y-59560500D02*
X46112000Y-60390000D01*
X45282500Y-57551800D02*
X45282500Y-59560500D01*
X47313000Y-55521300D02*
X45282500Y-57551800D01*
X47313000Y-37351000D02*
X47313000Y-55521300D01*
X49248700Y-35415300D02*
X47313000Y-37351000D01*
X49530000Y-35415300D02*
X49248700Y-35415300D01*
X49530000Y-34290000D02*
X49530000Y-35415300D01*
X70675700Y-28181500D02*
X69164200Y-26670000D01*
X70675700Y-49502300D02*
X70675700Y-28181500D01*
X69378000Y-50800000D02*
X70675700Y-49502300D01*
X68811900Y-50800000D02*
X69378000Y-50800000D01*
X65895300Y-53716600D02*
X68811900Y-50800000D01*
X65895300Y-55180800D02*
X65895300Y-53716600D01*
X65051400Y-56024700D02*
X65895300Y-55180800D01*
X64770000Y-56024700D02*
X65051400Y-56024700D01*
X64770000Y-57150000D02*
X64770000Y-56024700D01*
X65133300Y-30335300D02*
X69088000Y-34290000D01*
X64770000Y-30335300D02*
X65133300Y-30335300D01*
X64770000Y-29210000D02*
X64770000Y-30335300D01*
X77470000Y-54610000D02*
X77470000Y-52070000D01*
X77470000Y-39370000D02*
X77470000Y-41910000D01*
X77470000Y-36906200D02*
X77470000Y-39370000D01*
X77546200Y-36830000D02*
X77470000Y-36906200D01*
X77470000Y-36753800D02*
X77470000Y-34290000D01*
X77546200Y-36830000D02*
X77470000Y-36753800D01*
X77470000Y-31826200D02*
X77470000Y-34290000D01*
X77546200Y-31750000D02*
X77470000Y-31826200D01*
X77470000Y-26593800D02*
X77470000Y-24130000D01*
X77546200Y-26670000D02*
X77470000Y-26593800D01*
X17780000Y-22860000D02*
X17780000Y-25400000D01*
X17703800Y-30480000D02*
X17780000Y-30480000D01*
X17780000Y-27940000D02*
X17780000Y-30480000D01*
X17780000Y-30480000D02*
X17780000Y-33020000D01*
X17780000Y-38100000D02*
X17780000Y-35560000D01*
X17780000Y-35560000D02*
X17780000Y-33020000D01*
X17780000Y-40563800D02*
X17780000Y-38100000D01*
X17703800Y-40640000D02*
X17780000Y-40563800D01*
X17780000Y-40716200D02*
X17780000Y-43180000D01*
X17703800Y-40640000D02*
X17780000Y-40716200D01*
X17780000Y-45643800D02*
X17780000Y-43180000D01*
X17703800Y-45720000D02*
X17780000Y-45643800D01*
X17780000Y-48260000D02*
X17703800Y-48260000D01*
X17703800Y-45720000D02*
X17703800Y-48260000D01*
X17703800Y-48260000D02*
X17703800Y-50800000D01*
X17780000Y-50876200D02*
X17780000Y-53340000D01*
X17703800Y-50800000D02*
X17780000Y-50876200D01*
X77470000Y-41910000D02*
X77470000Y-44450000D01*
X77546200Y-44526200D02*
X77546200Y-46990000D01*
X77470000Y-44450000D02*
X77546200Y-44526200D01*
X77470000Y-52070000D02*
X77470000Y-49530000D01*
X77546200Y-49453800D02*
X77546200Y-46990000D01*
X77470000Y-49530000D02*
X77546200Y-49453800D01*
X77546200Y-29133800D02*
X77546200Y-26670000D01*
X77470000Y-29210000D02*
X77546200Y-29133800D01*
X46850000Y-30620000D02*
X44450000Y-33020000D01*
X50035400Y-30620000D02*
X46850000Y-30620000D01*
X50661400Y-31246000D02*
X50035400Y-30620000D01*
X50661400Y-39934600D02*
X50661400Y-31246000D01*
X49811300Y-40784700D02*
X50661400Y-39934600D01*
X49530000Y-40784700D02*
X49811300Y-40784700D01*
X49530000Y-41910000D02*
X49530000Y-40784700D01*
X70195400Y-32781200D02*
X69164200Y-31750000D01*
X70195400Y-34730900D02*
X70195400Y-32781200D01*
X69387000Y-35539300D02*
X70195400Y-34730900D01*
X68857800Y-35539300D02*
X69387000Y-35539300D01*
X65895300Y-38501800D02*
X68857800Y-35539300D01*
X65895300Y-52640800D02*
X65895300Y-38501800D01*
X65051400Y-53484700D02*
X65895300Y-52640800D01*
X64770000Y-53484700D02*
X65051400Y-53484700D01*
X64770000Y-54610000D02*
X64770000Y-53484700D01*
X48260000Y-26670000D02*
X44450000Y-22860000D01*
X49530000Y-26670000D02*
X48260000Y-26670000D01*
D16*
G36*
X81153000Y-73533000D02*
G01*
X46731674Y-73533000D01*
X46835520Y-73463612D01*
X46993612Y-73305520D01*
X47117824Y-73119624D01*
X47203383Y-72913067D01*
X47247000Y-72693788D01*
X47247000Y-72470212D01*
X47203383Y-72250933D01*
X47117824Y-72044376D01*
X46993612Y-71858480D01*
X46835520Y-71700388D01*
X46649624Y-71576176D01*
X46627716Y-71567101D01*
X46675450Y-71541588D01*
X46710561Y-71328166D01*
X46112000Y-70729605D01*
X45513439Y-71328166D01*
X45548550Y-71541588D01*
X45601266Y-71565038D01*
X45574376Y-71576176D01*
X45388480Y-71700388D01*
X45230388Y-71858480D01*
X45106176Y-72044376D01*
X45020617Y-72250933D01*
X44977000Y-72470212D01*
X44977000Y-72693788D01*
X45020617Y-72913067D01*
X45106176Y-73119624D01*
X45230388Y-73305520D01*
X45388480Y-73463612D01*
X45492326Y-73533000D01*
X12827000Y-73533000D01*
X12827000Y-70949117D01*
X13505000Y-70949117D01*
X13505000Y-71290883D01*
X13571675Y-71626081D01*
X13702463Y-71941831D01*
X13892337Y-72225998D01*
X14134002Y-72467663D01*
X14418169Y-72657537D01*
X14733919Y-72788325D01*
X15069117Y-72855000D01*
X15410883Y-72855000D01*
X15746081Y-72788325D01*
X16061831Y-72657537D01*
X16345998Y-72467663D01*
X16587663Y-72225998D01*
X16777537Y-71941831D01*
X16908325Y-71626081D01*
X16975000Y-71290883D01*
X16975000Y-70949117D01*
X16912003Y-70632406D01*
X44974489Y-70632406D01*
X45012423Y-70852740D01*
X45092613Y-71061440D01*
X45120412Y-71113450D01*
X45333834Y-71148561D01*
X45932395Y-70550000D01*
X46291605Y-70550000D01*
X46890166Y-71148561D01*
X47103588Y-71113450D01*
X47176689Y-70949117D01*
X77005000Y-70949117D01*
X77005000Y-71290883D01*
X77071675Y-71626081D01*
X77202463Y-71941831D01*
X77392337Y-72225998D01*
X77634002Y-72467663D01*
X77918169Y-72657537D01*
X78233919Y-72788325D01*
X78569117Y-72855000D01*
X78910883Y-72855000D01*
X79246081Y-72788325D01*
X79561831Y-72657537D01*
X79845998Y-72467663D01*
X80087663Y-72225998D01*
X80277537Y-71941831D01*
X80408325Y-71626081D01*
X80475000Y-71290883D01*
X80475000Y-70949117D01*
X80408325Y-70613919D01*
X80277537Y-70298169D01*
X80087663Y-70014002D01*
X79845998Y-69772337D01*
X79561831Y-69582463D01*
X79246081Y-69451675D01*
X78910883Y-69385000D01*
X78569117Y-69385000D01*
X78233919Y-69451675D01*
X77918169Y-69582463D01*
X77634002Y-69772337D01*
X77392337Y-70014002D01*
X77202463Y-70298169D01*
X77071675Y-70613919D01*
X77005000Y-70949117D01*
X47176689Y-70949117D01*
X47194458Y-70909174D01*
X47243731Y-70691095D01*
X47249511Y-70467594D01*
X47211577Y-70247260D01*
X47131387Y-70038560D01*
X47103588Y-69986550D01*
X46890166Y-69951439D01*
X46291605Y-70550000D01*
X45932395Y-70550000D01*
X45333834Y-69951439D01*
X45120412Y-69986550D01*
X45029542Y-70190826D01*
X44980269Y-70408905D01*
X44974489Y-70632406D01*
X16912003Y-70632406D01*
X16908325Y-70613919D01*
X16777537Y-70298169D01*
X16587663Y-70014002D01*
X16345998Y-69772337D01*
X16061831Y-69582463D01*
X15746081Y-69451675D01*
X15410883Y-69385000D01*
X15069117Y-69385000D01*
X14733919Y-69451675D01*
X14418169Y-69582463D01*
X14134002Y-69772337D01*
X13892337Y-70014002D01*
X13702463Y-70298169D01*
X13571675Y-70613919D01*
X13505000Y-70949117D01*
X12827000Y-70949117D01*
X12827000Y-66908212D01*
X27595000Y-66908212D01*
X27595000Y-67131788D01*
X27638617Y-67351067D01*
X27724176Y-67557624D01*
X27848388Y-67743520D01*
X28006480Y-67901612D01*
X28192376Y-68025824D01*
X28398933Y-68111383D01*
X28618212Y-68155000D01*
X28841788Y-68155000D01*
X29061067Y-68111383D01*
X29267624Y-68025824D01*
X29453520Y-67901612D01*
X29611612Y-67743520D01*
X29735824Y-67557624D01*
X29821383Y-67351067D01*
X29865000Y-67131788D01*
X29865000Y-66908212D01*
X29821383Y-66688933D01*
X29735824Y-66482376D01*
X29611612Y-66296480D01*
X29453520Y-66138388D01*
X29267624Y-66014176D01*
X29061067Y-65928617D01*
X28841788Y-65885000D01*
X28618212Y-65885000D01*
X28398933Y-65928617D01*
X28192376Y-66014176D01*
X28006480Y-66138388D01*
X27848388Y-66296480D01*
X27724176Y-66482376D01*
X27638617Y-66688933D01*
X27595000Y-66908212D01*
X12827000Y-66908212D01*
X12827000Y-64346189D01*
X27353400Y-64346189D01*
X27353400Y-64619011D01*
X27406625Y-64886589D01*
X27511029Y-65138643D01*
X27662601Y-65365486D01*
X27855514Y-65558399D01*
X28082357Y-65709971D01*
X28334411Y-65814375D01*
X28601989Y-65867600D01*
X28874811Y-65867600D01*
X29142389Y-65814375D01*
X29394443Y-65709971D01*
X29621286Y-65558399D01*
X29814199Y-65365486D01*
X29965771Y-65138643D01*
X30070175Y-64886589D01*
X30123400Y-64619011D01*
X30123400Y-64346189D01*
X30070175Y-64078611D01*
X29965771Y-63826557D01*
X29814199Y-63599714D01*
X29621286Y-63406801D01*
X29394443Y-63255229D01*
X29142389Y-63150825D01*
X28874811Y-63097600D01*
X28601989Y-63097600D01*
X28334411Y-63150825D01*
X28082357Y-63255229D01*
X27855514Y-63406801D01*
X27662601Y-63599714D01*
X27511029Y-63826557D01*
X27406625Y-64078611D01*
X27353400Y-64346189D01*
X12827000Y-64346189D01*
X12827000Y-61848212D01*
X27615000Y-61848212D01*
X27615000Y-62071788D01*
X27658617Y-62291067D01*
X27744176Y-62497624D01*
X27868388Y-62683520D01*
X28026480Y-62841612D01*
X28212376Y-62965824D01*
X28418933Y-63051383D01*
X28638212Y-63095000D01*
X28861788Y-63095000D01*
X29081067Y-63051383D01*
X29287624Y-62965824D01*
X29473520Y-62841612D01*
X29631612Y-62683520D01*
X29755824Y-62497624D01*
X29841383Y-62291067D01*
X29885000Y-62071788D01*
X29885000Y-61848212D01*
X29841383Y-61628933D01*
X29755824Y-61422376D01*
X29631612Y-61236480D01*
X29473520Y-61078388D01*
X29287624Y-60954176D01*
X29081067Y-60868617D01*
X28861788Y-60825000D01*
X28638212Y-60825000D01*
X28418933Y-60868617D01*
X28212376Y-60954176D01*
X28026480Y-61078388D01*
X27868388Y-61236480D01*
X27744176Y-61422376D01*
X27658617Y-61628933D01*
X27615000Y-61848212D01*
X12827000Y-61848212D01*
X12827000Y-30342408D01*
X16306800Y-30342408D01*
X16306800Y-30617592D01*
X16360486Y-30887490D01*
X16465795Y-31141727D01*
X16618680Y-31370535D01*
X16813265Y-31565120D01*
X17020000Y-31703257D01*
X17020001Y-31847659D01*
X16889465Y-31934880D01*
X16694880Y-32129465D01*
X16541995Y-32358273D01*
X16436686Y-32612510D01*
X16383000Y-32882408D01*
X16383000Y-33157592D01*
X16436686Y-33427490D01*
X16541995Y-33681727D01*
X16694880Y-33910535D01*
X16889465Y-34105120D01*
X17020001Y-34192341D01*
X17020000Y-34387659D01*
X16889465Y-34474880D01*
X16694880Y-34669465D01*
X16541995Y-34898273D01*
X16436686Y-35152510D01*
X16383000Y-35422408D01*
X16383000Y-35697592D01*
X16436686Y-35967490D01*
X16541995Y-36221727D01*
X16694880Y-36450535D01*
X16889465Y-36645120D01*
X17020001Y-36732341D01*
X17020000Y-36927659D01*
X16889465Y-37014880D01*
X16694880Y-37209465D01*
X16541995Y-37438273D01*
X16436686Y-37692510D01*
X16383000Y-37962408D01*
X16383000Y-38237592D01*
X16436686Y-38507490D01*
X16541995Y-38761727D01*
X16694880Y-38990535D01*
X16889465Y-39185120D01*
X17020001Y-39272341D01*
X17020000Y-39416743D01*
X16813265Y-39554880D01*
X16618680Y-39749465D01*
X16465795Y-39978273D01*
X16360486Y-40232510D01*
X16306800Y-40502408D01*
X16306800Y-40777592D01*
X16360486Y-41047490D01*
X16465795Y-41301727D01*
X16618680Y-41530535D01*
X16813265Y-41725120D01*
X17020000Y-41863257D01*
X17020001Y-42007659D01*
X16889465Y-42094880D01*
X16694880Y-42289465D01*
X16541995Y-42518273D01*
X16436686Y-42772510D01*
X16383000Y-43042408D01*
X16383000Y-43317592D01*
X16436686Y-43587490D01*
X16541995Y-43841727D01*
X16694880Y-44070535D01*
X16889465Y-44265120D01*
X17020001Y-44352341D01*
X17020000Y-44496743D01*
X16813265Y-44634880D01*
X16618680Y-44829465D01*
X16465795Y-45058273D01*
X16360486Y-45312510D01*
X16306800Y-45582408D01*
X16306800Y-45857592D01*
X16360486Y-46127490D01*
X16465795Y-46381727D01*
X16618680Y-46610535D01*
X16813265Y-46805120D01*
X16943800Y-46892341D01*
X16943801Y-47138574D01*
X16889465Y-47174880D01*
X16694880Y-47369465D01*
X16541995Y-47598273D01*
X16436686Y-47852510D01*
X16383000Y-48122408D01*
X16383000Y-48397592D01*
X16436686Y-48667490D01*
X16541995Y-48921727D01*
X16694880Y-49150535D01*
X16889465Y-49345120D01*
X16943800Y-49381426D01*
X16943801Y-49627659D01*
X16813265Y-49714880D01*
X16618680Y-49909465D01*
X16465795Y-50138273D01*
X16360486Y-50392510D01*
X16306800Y-50662408D01*
X16306800Y-50937592D01*
X16360486Y-51207490D01*
X16465795Y-51461727D01*
X16618680Y-51690535D01*
X16813265Y-51885120D01*
X17020000Y-52023257D01*
X17020001Y-52167659D01*
X16889465Y-52254880D01*
X16694880Y-52449465D01*
X16541995Y-52678273D01*
X16436686Y-52932510D01*
X16383000Y-53202408D01*
X16383000Y-53477592D01*
X16436686Y-53747490D01*
X16541995Y-54001727D01*
X16694880Y-54230535D01*
X16889465Y-54425120D01*
X17118273Y-54578005D01*
X17372510Y-54683314D01*
X17642408Y-54737000D01*
X17917592Y-54737000D01*
X18187490Y-54683314D01*
X18441727Y-54578005D01*
X18670535Y-54425120D01*
X18790090Y-54305565D01*
X20804040Y-54305565D01*
X20871020Y-54545656D01*
X21120048Y-54662756D01*
X21387135Y-54729023D01*
X21662017Y-54741910D01*
X21934133Y-54700922D01*
X22193023Y-54607636D01*
X22308980Y-54545656D01*
X22375960Y-54305565D01*
X21590000Y-53519605D01*
X20804040Y-54305565D01*
X18790090Y-54305565D01*
X18865120Y-54230535D01*
X19018005Y-54001727D01*
X19123314Y-53747490D01*
X19177000Y-53477592D01*
X19177000Y-53412017D01*
X20188090Y-53412017D01*
X20229078Y-53684133D01*
X20322364Y-53943023D01*
X20384344Y-54058980D01*
X20624435Y-54125960D01*
X21410395Y-53340000D01*
X21769605Y-53340000D01*
X22555565Y-54125960D01*
X22795656Y-54058980D01*
X22912756Y-53809952D01*
X22979023Y-53542865D01*
X22991910Y-53267983D01*
X22950922Y-52995867D01*
X22857636Y-52736977D01*
X22795656Y-52621020D01*
X22555565Y-52554040D01*
X21769605Y-53340000D01*
X21410395Y-53340000D01*
X20624435Y-52554040D01*
X20384344Y-52621020D01*
X20267244Y-52870048D01*
X20200977Y-53137135D01*
X20188090Y-53412017D01*
X19177000Y-53412017D01*
X19177000Y-53202408D01*
X19123314Y-52932510D01*
X19018005Y-52678273D01*
X18865120Y-52449465D01*
X18670535Y-52254880D01*
X18540000Y-52167659D01*
X18540000Y-51921426D01*
X18594335Y-51885120D01*
X18713890Y-51765565D01*
X20727840Y-51765565D01*
X20794820Y-52005656D01*
X20963439Y-52084945D01*
X20871020Y-52134344D01*
X20804040Y-52374435D01*
X21590000Y-53160395D01*
X22375960Y-52374435D01*
X22308980Y-52134344D01*
X22140361Y-52055055D01*
X22232780Y-52005656D01*
X22299760Y-51765565D01*
X21513800Y-50979605D01*
X20727840Y-51765565D01*
X18713890Y-51765565D01*
X18788920Y-51690535D01*
X18941805Y-51461727D01*
X19047114Y-51207490D01*
X19100800Y-50937592D01*
X19100800Y-50872017D01*
X20111890Y-50872017D01*
X20152878Y-51144133D01*
X20246164Y-51403023D01*
X20308144Y-51518980D01*
X20548235Y-51585960D01*
X21334195Y-50800000D01*
X21693405Y-50800000D01*
X22479365Y-51585960D01*
X22719456Y-51518980D01*
X22836556Y-51269952D01*
X22902823Y-51002865D01*
X22915710Y-50727983D01*
X22874722Y-50455867D01*
X22781436Y-50196977D01*
X22719456Y-50081020D01*
X22479365Y-50014040D01*
X21693405Y-50800000D01*
X21334195Y-50800000D01*
X20548235Y-50014040D01*
X20308144Y-50081020D01*
X20191044Y-50330048D01*
X20124777Y-50597135D01*
X20111890Y-50872017D01*
X19100800Y-50872017D01*
X19100800Y-50662408D01*
X19047114Y-50392510D01*
X18941805Y-50138273D01*
X18788920Y-49909465D01*
X18713890Y-49834435D01*
X20727840Y-49834435D01*
X21513800Y-50620395D01*
X22299760Y-49834435D01*
X22232780Y-49594344D01*
X22135215Y-49548466D01*
X22193023Y-49527636D01*
X22308980Y-49465656D01*
X22375960Y-49225565D01*
X21590000Y-48439605D01*
X20804040Y-49225565D01*
X20871020Y-49465656D01*
X20968585Y-49511534D01*
X20910777Y-49532364D01*
X20794820Y-49594344D01*
X20727840Y-49834435D01*
X18713890Y-49834435D01*
X18594335Y-49714880D01*
X18463800Y-49627659D01*
X18463800Y-49483256D01*
X18670535Y-49345120D01*
X18865120Y-49150535D01*
X19018005Y-48921727D01*
X19123314Y-48667490D01*
X19177000Y-48397592D01*
X19177000Y-48332017D01*
X20188090Y-48332017D01*
X20229078Y-48604133D01*
X20322364Y-48863023D01*
X20384344Y-48978980D01*
X20624435Y-49045960D01*
X21410395Y-48260000D01*
X21769605Y-48260000D01*
X22555565Y-49045960D01*
X22795656Y-48978980D01*
X22912756Y-48729952D01*
X22979023Y-48462865D01*
X22991910Y-48187983D01*
X22950922Y-47915867D01*
X22857636Y-47656977D01*
X22795656Y-47541020D01*
X22555565Y-47474040D01*
X21769605Y-48260000D01*
X21410395Y-48260000D01*
X20624435Y-47474040D01*
X20384344Y-47541020D01*
X20267244Y-47790048D01*
X20200977Y-48057135D01*
X20188090Y-48332017D01*
X19177000Y-48332017D01*
X19177000Y-48122408D01*
X19123314Y-47852510D01*
X19018005Y-47598273D01*
X18865120Y-47369465D01*
X18670535Y-47174880D01*
X18463800Y-47036744D01*
X18463800Y-46892341D01*
X18594335Y-46805120D01*
X18713890Y-46685565D01*
X20727840Y-46685565D01*
X20794820Y-46925656D01*
X20963439Y-47004945D01*
X20871020Y-47054344D01*
X20804040Y-47294435D01*
X21590000Y-48080395D01*
X22375960Y-47294435D01*
X22308980Y-47054344D01*
X22140361Y-46975055D01*
X22232780Y-46925656D01*
X22299760Y-46685565D01*
X21513800Y-45899605D01*
X20727840Y-46685565D01*
X18713890Y-46685565D01*
X18788920Y-46610535D01*
X18941805Y-46381727D01*
X19047114Y-46127490D01*
X19100800Y-45857592D01*
X19100800Y-45792017D01*
X20111890Y-45792017D01*
X20152878Y-46064133D01*
X20246164Y-46323023D01*
X20308144Y-46438980D01*
X20548235Y-46505960D01*
X21334195Y-45720000D01*
X21693405Y-45720000D01*
X22479365Y-46505960D01*
X22719456Y-46438980D01*
X22836556Y-46189952D01*
X22902823Y-45922865D01*
X22915710Y-45647983D01*
X22874722Y-45375867D01*
X22781436Y-45116977D01*
X22719456Y-45001020D01*
X22479365Y-44934040D01*
X21693405Y-45720000D01*
X21334195Y-45720000D01*
X20548235Y-44934040D01*
X20308144Y-45001020D01*
X20191044Y-45250048D01*
X20124777Y-45517135D01*
X20111890Y-45792017D01*
X19100800Y-45792017D01*
X19100800Y-45582408D01*
X19047114Y-45312510D01*
X18941805Y-45058273D01*
X18788920Y-44829465D01*
X18713890Y-44754435D01*
X20727840Y-44754435D01*
X21513800Y-45540395D01*
X22299760Y-44754435D01*
X22232780Y-44514344D01*
X22135215Y-44468466D01*
X22193023Y-44447636D01*
X22308980Y-44385656D01*
X22375960Y-44145565D01*
X21590000Y-43359605D01*
X20804040Y-44145565D01*
X20871020Y-44385656D01*
X20968585Y-44431534D01*
X20910777Y-44452364D01*
X20794820Y-44514344D01*
X20727840Y-44754435D01*
X18713890Y-44754435D01*
X18594335Y-44634880D01*
X18540000Y-44598574D01*
X18540000Y-44352341D01*
X18670535Y-44265120D01*
X18865120Y-44070535D01*
X19018005Y-43841727D01*
X19123314Y-43587490D01*
X19177000Y-43317592D01*
X19177000Y-43252017D01*
X20188090Y-43252017D01*
X20229078Y-43524133D01*
X20322364Y-43783023D01*
X20384344Y-43898980D01*
X20624435Y-43965960D01*
X21410395Y-43180000D01*
X21769605Y-43180000D01*
X22555565Y-43965960D01*
X22795656Y-43898980D01*
X22912756Y-43649952D01*
X22979023Y-43382865D01*
X22991910Y-43107983D01*
X22950922Y-42835867D01*
X22857636Y-42576977D01*
X22795656Y-42461020D01*
X22555565Y-42394040D01*
X21769605Y-43180000D01*
X21410395Y-43180000D01*
X20624435Y-42394040D01*
X20384344Y-42461020D01*
X20267244Y-42710048D01*
X20200977Y-42977135D01*
X20188090Y-43252017D01*
X19177000Y-43252017D01*
X19177000Y-43042408D01*
X19123314Y-42772510D01*
X19018005Y-42518273D01*
X18865120Y-42289465D01*
X18670535Y-42094880D01*
X18540000Y-42007659D01*
X18540000Y-41761426D01*
X18594335Y-41725120D01*
X18713890Y-41605565D01*
X20727840Y-41605565D01*
X20794820Y-41845656D01*
X20963439Y-41924945D01*
X20871020Y-41974344D01*
X20804040Y-42214435D01*
X21590000Y-43000395D01*
X22375960Y-42214435D01*
X22308980Y-41974344D01*
X22140361Y-41895055D01*
X22232780Y-41845656D01*
X22299760Y-41605565D01*
X21513800Y-40819605D01*
X20727840Y-41605565D01*
X18713890Y-41605565D01*
X18788920Y-41530535D01*
X18941805Y-41301727D01*
X19047114Y-41047490D01*
X19100800Y-40777592D01*
X19100800Y-40712017D01*
X20111890Y-40712017D01*
X20152878Y-40984133D01*
X20246164Y-41243023D01*
X20308144Y-41358980D01*
X20548235Y-41425960D01*
X21334195Y-40640000D01*
X21693405Y-40640000D01*
X22479365Y-41425960D01*
X22719456Y-41358980D01*
X22836556Y-41109952D01*
X22902823Y-40842865D01*
X22915710Y-40567983D01*
X22874722Y-40295867D01*
X22781436Y-40036977D01*
X22719456Y-39921020D01*
X22479365Y-39854040D01*
X21693405Y-40640000D01*
X21334195Y-40640000D01*
X20548235Y-39854040D01*
X20308144Y-39921020D01*
X20191044Y-40170048D01*
X20124777Y-40437135D01*
X20111890Y-40712017D01*
X19100800Y-40712017D01*
X19100800Y-40502408D01*
X19047114Y-40232510D01*
X18941805Y-39978273D01*
X18788920Y-39749465D01*
X18713890Y-39674435D01*
X20727840Y-39674435D01*
X21513800Y-40460395D01*
X22299760Y-39674435D01*
X22232780Y-39434344D01*
X22135215Y-39388466D01*
X22193023Y-39367636D01*
X22308980Y-39305656D01*
X22375960Y-39065565D01*
X21590000Y-38279605D01*
X20804040Y-39065565D01*
X20871020Y-39305656D01*
X20968585Y-39351534D01*
X20910777Y-39372364D01*
X20794820Y-39434344D01*
X20727840Y-39674435D01*
X18713890Y-39674435D01*
X18594335Y-39554880D01*
X18540000Y-39518574D01*
X18540000Y-39272341D01*
X18670535Y-39185120D01*
X18865120Y-38990535D01*
X19018005Y-38761727D01*
X19123314Y-38507490D01*
X19177000Y-38237592D01*
X19177000Y-38172017D01*
X20188090Y-38172017D01*
X20229078Y-38444133D01*
X20322364Y-38703023D01*
X20384344Y-38818980D01*
X20624435Y-38885960D01*
X21410395Y-38100000D01*
X21769605Y-38100000D01*
X22555565Y-38885960D01*
X22795656Y-38818980D01*
X22912756Y-38569952D01*
X22979023Y-38302865D01*
X22991910Y-38027983D01*
X22950922Y-37755867D01*
X22857636Y-37496977D01*
X22795656Y-37381020D01*
X22555565Y-37314040D01*
X21769605Y-38100000D01*
X21410395Y-38100000D01*
X20624435Y-37314040D01*
X20384344Y-37381020D01*
X20267244Y-37630048D01*
X20200977Y-37897135D01*
X20188090Y-38172017D01*
X19177000Y-38172017D01*
X19177000Y-37962408D01*
X19123314Y-37692510D01*
X19018005Y-37438273D01*
X18865120Y-37209465D01*
X18670535Y-37014880D01*
X18540000Y-36927659D01*
X18540000Y-36732341D01*
X18670535Y-36645120D01*
X18790090Y-36525565D01*
X20804040Y-36525565D01*
X20871020Y-36765656D01*
X21001644Y-36827079D01*
X20986977Y-36832364D01*
X20871020Y-36894344D01*
X20804040Y-37134435D01*
X21590000Y-37920395D01*
X22375960Y-37134435D01*
X22308980Y-36894344D01*
X22178356Y-36832921D01*
X22193023Y-36827636D01*
X22308980Y-36765656D01*
X22375960Y-36525565D01*
X21590000Y-35739605D01*
X20804040Y-36525565D01*
X18790090Y-36525565D01*
X18865120Y-36450535D01*
X19018005Y-36221727D01*
X19123314Y-35967490D01*
X19177000Y-35697592D01*
X19177000Y-35632017D01*
X20188090Y-35632017D01*
X20229078Y-35904133D01*
X20322364Y-36163023D01*
X20384344Y-36278980D01*
X20624435Y-36345960D01*
X21410395Y-35560000D01*
X21769605Y-35560000D01*
X22555565Y-36345960D01*
X22795656Y-36278980D01*
X22912756Y-36029952D01*
X22979023Y-35762865D01*
X22991910Y-35487983D01*
X22950922Y-35215867D01*
X22857636Y-34956977D01*
X22795656Y-34841020D01*
X22555565Y-34774040D01*
X21769605Y-35560000D01*
X21410395Y-35560000D01*
X20624435Y-34774040D01*
X20384344Y-34841020D01*
X20267244Y-35090048D01*
X20200977Y-35357135D01*
X20188090Y-35632017D01*
X19177000Y-35632017D01*
X19177000Y-35422408D01*
X19123314Y-35152510D01*
X19018005Y-34898273D01*
X18865120Y-34669465D01*
X18670535Y-34474880D01*
X18540000Y-34387659D01*
X18540000Y-34192341D01*
X18670535Y-34105120D01*
X18790090Y-33985565D01*
X20804040Y-33985565D01*
X20871020Y-34225656D01*
X21001644Y-34287079D01*
X20986977Y-34292364D01*
X20871020Y-34354344D01*
X20804040Y-34594435D01*
X21590000Y-35380395D01*
X22375960Y-34594435D01*
X22308980Y-34354344D01*
X22178356Y-34292921D01*
X22193023Y-34287636D01*
X22308980Y-34225656D01*
X22375960Y-33985565D01*
X21590000Y-33199605D01*
X20804040Y-33985565D01*
X18790090Y-33985565D01*
X18865120Y-33910535D01*
X19018005Y-33681727D01*
X19123314Y-33427490D01*
X19177000Y-33157592D01*
X19177000Y-33092017D01*
X20188090Y-33092017D01*
X20229078Y-33364133D01*
X20322364Y-33623023D01*
X20384344Y-33738980D01*
X20624435Y-33805960D01*
X21410395Y-33020000D01*
X21769605Y-33020000D01*
X22555565Y-33805960D01*
X22795656Y-33738980D01*
X22912756Y-33489952D01*
X22979023Y-33222865D01*
X22991910Y-32947983D01*
X22950922Y-32675867D01*
X22857636Y-32416977D01*
X22795656Y-32301020D01*
X22555565Y-32234040D01*
X21769605Y-33020000D01*
X21410395Y-33020000D01*
X20624435Y-32234040D01*
X20384344Y-32301020D01*
X20267244Y-32550048D01*
X20200977Y-32817135D01*
X20188090Y-33092017D01*
X19177000Y-33092017D01*
X19177000Y-32882408D01*
X19123314Y-32612510D01*
X19018005Y-32358273D01*
X18865120Y-32129465D01*
X18670535Y-31934880D01*
X18540000Y-31847659D01*
X18540000Y-31601426D01*
X18594335Y-31565120D01*
X18713890Y-31445565D01*
X20727840Y-31445565D01*
X20794820Y-31685656D01*
X20963439Y-31764945D01*
X20871020Y-31814344D01*
X20804040Y-32054435D01*
X21590000Y-32840395D01*
X22375960Y-32054435D01*
X22308980Y-31814344D01*
X22140361Y-31735055D01*
X22232780Y-31685656D01*
X22299760Y-31445565D01*
X21513800Y-30659605D01*
X20727840Y-31445565D01*
X18713890Y-31445565D01*
X18788920Y-31370535D01*
X18941805Y-31141727D01*
X19047114Y-30887490D01*
X19100800Y-30617592D01*
X19100800Y-30552017D01*
X20111890Y-30552017D01*
X20152878Y-30824133D01*
X20246164Y-31083023D01*
X20308144Y-31198980D01*
X20548235Y-31265960D01*
X21334195Y-30480000D01*
X21693405Y-30480000D01*
X22479365Y-31265960D01*
X22719456Y-31198980D01*
X22836556Y-30949952D01*
X22902823Y-30682865D01*
X22915710Y-30407983D01*
X22905833Y-30342408D01*
X32816800Y-30342408D01*
X32816800Y-30617592D01*
X32870486Y-30887490D01*
X32975795Y-31141727D01*
X33128680Y-31370535D01*
X33323265Y-31565120D01*
X33552073Y-31718005D01*
X33667415Y-31765782D01*
X33628273Y-31781995D01*
X33399465Y-31934880D01*
X33204880Y-32129465D01*
X33051995Y-32358273D01*
X32946686Y-32612510D01*
X32893000Y-32882408D01*
X32893000Y-33157592D01*
X32946686Y-33427490D01*
X33051995Y-33681727D01*
X33204880Y-33910535D01*
X33399465Y-34105120D01*
X33628273Y-34258005D01*
X33705515Y-34290000D01*
X33628273Y-34321995D01*
X33399465Y-34474880D01*
X33204880Y-34669465D01*
X33051995Y-34898273D01*
X32946686Y-35152510D01*
X32893000Y-35422408D01*
X32893000Y-35697592D01*
X32946686Y-35967490D01*
X33051995Y-36221727D01*
X33204880Y-36450535D01*
X33399465Y-36645120D01*
X33628273Y-36798005D01*
X33705515Y-36830000D01*
X33628273Y-36861995D01*
X33399465Y-37014880D01*
X33204880Y-37209465D01*
X33051995Y-37438273D01*
X32946686Y-37692510D01*
X32893000Y-37962408D01*
X32893000Y-38237592D01*
X32946686Y-38507490D01*
X33051995Y-38761727D01*
X33204880Y-38990535D01*
X33399465Y-39185120D01*
X33628273Y-39338005D01*
X33667415Y-39354218D01*
X33552073Y-39401995D01*
X33323265Y-39554880D01*
X33128680Y-39749465D01*
X32975795Y-39978273D01*
X32870486Y-40232510D01*
X32816800Y-40502408D01*
X32816800Y-40777592D01*
X32870486Y-41047490D01*
X32975795Y-41301727D01*
X33128680Y-41530535D01*
X33323265Y-41725120D01*
X33552073Y-41878005D01*
X33667415Y-41925782D01*
X33628273Y-41941995D01*
X33399465Y-42094880D01*
X33204880Y-42289465D01*
X33051995Y-42518273D01*
X32946686Y-42772510D01*
X32893000Y-43042408D01*
X32893000Y-43317592D01*
X32946686Y-43587490D01*
X33051995Y-43841727D01*
X33204880Y-44070535D01*
X33399465Y-44265120D01*
X33628273Y-44418005D01*
X33667415Y-44434218D01*
X33552073Y-44481995D01*
X33323265Y-44634880D01*
X33128680Y-44829465D01*
X32975795Y-45058273D01*
X32870486Y-45312510D01*
X32816800Y-45582408D01*
X32816800Y-45857592D01*
X32870486Y-46127490D01*
X32975795Y-46381727D01*
X33128680Y-46610535D01*
X33323265Y-46805120D01*
X33552073Y-46958005D01*
X33667415Y-47005782D01*
X33628273Y-47021995D01*
X33399465Y-47174880D01*
X33204880Y-47369465D01*
X33051995Y-47598273D01*
X32946686Y-47852510D01*
X32893000Y-48122408D01*
X32893000Y-48397592D01*
X32946686Y-48667490D01*
X33051995Y-48921727D01*
X33204880Y-49150535D01*
X33399465Y-49345120D01*
X33628273Y-49498005D01*
X33667415Y-49514218D01*
X33552073Y-49561995D01*
X33323265Y-49714880D01*
X33128680Y-49909465D01*
X32975795Y-50138273D01*
X32870486Y-50392510D01*
X32816800Y-50662408D01*
X32816800Y-50937592D01*
X32870486Y-51207490D01*
X32975795Y-51461727D01*
X33128680Y-51690535D01*
X33323265Y-51885120D01*
X33552073Y-52038005D01*
X33667415Y-52085782D01*
X33628273Y-52101995D01*
X33399465Y-52254880D01*
X33204880Y-52449465D01*
X33051995Y-52678273D01*
X32946686Y-52932510D01*
X32893000Y-53202408D01*
X32893000Y-53477592D01*
X32946686Y-53747490D01*
X33051995Y-54001727D01*
X33204880Y-54230535D01*
X33399465Y-54425120D01*
X33628273Y-54578005D01*
X33882510Y-54683314D01*
X34152408Y-54737000D01*
X34427592Y-54737000D01*
X34697490Y-54683314D01*
X34951727Y-54578005D01*
X35180535Y-54425120D01*
X35375120Y-54230535D01*
X35528005Y-54001727D01*
X35633314Y-53747490D01*
X35687000Y-53477592D01*
X35687000Y-53202408D01*
X35633314Y-52932510D01*
X35528005Y-52678273D01*
X35375120Y-52449465D01*
X35180535Y-52254880D01*
X34951727Y-52101995D01*
X34836385Y-52054218D01*
X34875527Y-52038005D01*
X35104335Y-51885120D01*
X35298920Y-51690535D01*
X35451805Y-51461727D01*
X35557114Y-51207490D01*
X35610800Y-50937592D01*
X35610800Y-50662408D01*
X35557114Y-50392510D01*
X35451805Y-50138273D01*
X35298920Y-49909465D01*
X35104335Y-49714880D01*
X34875527Y-49561995D01*
X34836385Y-49545782D01*
X34951727Y-49498005D01*
X35180535Y-49345120D01*
X35375120Y-49150535D01*
X35528005Y-48921727D01*
X35633314Y-48667490D01*
X35687000Y-48397592D01*
X35687000Y-48122408D01*
X35633314Y-47852510D01*
X35528005Y-47598273D01*
X35375120Y-47369465D01*
X35180535Y-47174880D01*
X34951727Y-47021995D01*
X34836385Y-46974218D01*
X34875527Y-46958005D01*
X35104335Y-46805120D01*
X35298920Y-46610535D01*
X35451805Y-46381727D01*
X35557114Y-46127490D01*
X35610800Y-45857592D01*
X35610800Y-45582408D01*
X35557114Y-45312510D01*
X35451805Y-45058273D01*
X35298920Y-44829465D01*
X35104335Y-44634880D01*
X34875527Y-44481995D01*
X34836385Y-44465782D01*
X34951727Y-44418005D01*
X35180535Y-44265120D01*
X35375120Y-44070535D01*
X35528005Y-43841727D01*
X35633314Y-43587490D01*
X35687000Y-43317592D01*
X35687000Y-43042408D01*
X35633314Y-42772510D01*
X35528005Y-42518273D01*
X35375120Y-42289465D01*
X35180535Y-42094880D01*
X34951727Y-41941995D01*
X34836385Y-41894218D01*
X34875527Y-41878005D01*
X35104335Y-41725120D01*
X35298920Y-41530535D01*
X35451805Y-41301727D01*
X35557114Y-41047490D01*
X35610800Y-40777592D01*
X35610800Y-40502408D01*
X35557114Y-40232510D01*
X35451805Y-39978273D01*
X35298920Y-39749465D01*
X35104335Y-39554880D01*
X34875527Y-39401995D01*
X34836385Y-39385782D01*
X34951727Y-39338005D01*
X35180535Y-39185120D01*
X35375120Y-38990535D01*
X35528005Y-38761727D01*
X35633314Y-38507490D01*
X35687000Y-38237592D01*
X35687000Y-37962408D01*
X35633314Y-37692510D01*
X35528005Y-37438273D01*
X35375120Y-37209465D01*
X35180535Y-37014880D01*
X34951727Y-36861995D01*
X34874485Y-36830000D01*
X34951727Y-36798005D01*
X35180535Y-36645120D01*
X35375120Y-36450535D01*
X35528005Y-36221727D01*
X35633314Y-35967490D01*
X35687000Y-35697592D01*
X35687000Y-35422408D01*
X35633314Y-35152510D01*
X35528005Y-34898273D01*
X35375120Y-34669465D01*
X35180535Y-34474880D01*
X34951727Y-34321995D01*
X34874485Y-34290000D01*
X34951727Y-34258005D01*
X35180535Y-34105120D01*
X35375120Y-33910535D01*
X35528005Y-33681727D01*
X35633314Y-33427490D01*
X35687000Y-33157592D01*
X35687000Y-32882408D01*
X35633314Y-32612510D01*
X35528005Y-32358273D01*
X35375120Y-32129465D01*
X35180535Y-31934880D01*
X34951727Y-31781995D01*
X34836385Y-31734218D01*
X34875527Y-31718005D01*
X35104335Y-31565120D01*
X35298920Y-31370535D01*
X35451805Y-31141727D01*
X35557114Y-30887490D01*
X35610800Y-30617592D01*
X35610800Y-30342408D01*
X37896800Y-30342408D01*
X37896800Y-30617592D01*
X37950486Y-30887490D01*
X38055795Y-31141727D01*
X38208680Y-31370535D01*
X38403265Y-31565120D01*
X38632073Y-31718005D01*
X38747415Y-31765782D01*
X38708273Y-31781995D01*
X38479465Y-31934880D01*
X38284880Y-32129465D01*
X38131995Y-32358273D01*
X38026686Y-32612510D01*
X37973000Y-32882408D01*
X37973000Y-33157592D01*
X38026686Y-33427490D01*
X38131995Y-33681727D01*
X38284880Y-33910535D01*
X38479465Y-34105120D01*
X38708273Y-34258005D01*
X38785515Y-34290000D01*
X38708273Y-34321995D01*
X38479465Y-34474880D01*
X38284880Y-34669465D01*
X38131995Y-34898273D01*
X38026686Y-35152510D01*
X37973000Y-35422408D01*
X37973000Y-35697592D01*
X38026686Y-35967490D01*
X38131995Y-36221727D01*
X38284880Y-36450535D01*
X38479465Y-36645120D01*
X38708273Y-36798005D01*
X38785515Y-36830000D01*
X38708273Y-36861995D01*
X38479465Y-37014880D01*
X38284880Y-37209465D01*
X38131995Y-37438273D01*
X38026686Y-37692510D01*
X37973000Y-37962408D01*
X37973000Y-38237592D01*
X38026686Y-38507490D01*
X38131995Y-38761727D01*
X38284880Y-38990535D01*
X38479465Y-39185120D01*
X38708273Y-39338005D01*
X38747415Y-39354218D01*
X38632073Y-39401995D01*
X38403265Y-39554880D01*
X38208680Y-39749465D01*
X38055795Y-39978273D01*
X37950486Y-40232510D01*
X37896800Y-40502408D01*
X37896800Y-40777592D01*
X37950486Y-41047490D01*
X38055795Y-41301727D01*
X38208680Y-41530535D01*
X38403265Y-41725120D01*
X38632073Y-41878005D01*
X38747415Y-41925782D01*
X38708273Y-41941995D01*
X38479465Y-42094880D01*
X38284880Y-42289465D01*
X38131995Y-42518273D01*
X38026686Y-42772510D01*
X37973000Y-43042408D01*
X37973000Y-43317592D01*
X38026686Y-43587490D01*
X38131995Y-43841727D01*
X38284880Y-44070535D01*
X38479465Y-44265120D01*
X38708273Y-44418005D01*
X38747415Y-44434218D01*
X38632073Y-44481995D01*
X38403265Y-44634880D01*
X38208680Y-44829465D01*
X38055795Y-45058273D01*
X37950486Y-45312510D01*
X37896800Y-45582408D01*
X37896800Y-45857592D01*
X37950486Y-46127490D01*
X38055795Y-46381727D01*
X38208680Y-46610535D01*
X38403265Y-46805120D01*
X38632073Y-46958005D01*
X38747415Y-47005782D01*
X38708273Y-47021995D01*
X38479465Y-47174880D01*
X38284880Y-47369465D01*
X38131995Y-47598273D01*
X38026686Y-47852510D01*
X37973000Y-48122408D01*
X37973000Y-48397592D01*
X38026686Y-48667490D01*
X38131995Y-48921727D01*
X38284880Y-49150535D01*
X38479465Y-49345120D01*
X38708273Y-49498005D01*
X38747415Y-49514218D01*
X38632073Y-49561995D01*
X38403265Y-49714880D01*
X38208680Y-49909465D01*
X38055795Y-50138273D01*
X37950486Y-50392510D01*
X37896800Y-50662408D01*
X37896800Y-50937592D01*
X37950486Y-51207490D01*
X38055795Y-51461727D01*
X38208680Y-51690535D01*
X38403265Y-51885120D01*
X38632073Y-52038005D01*
X38747415Y-52085782D01*
X38708273Y-52101995D01*
X38479465Y-52254880D01*
X38284880Y-52449465D01*
X38131995Y-52678273D01*
X38026686Y-52932510D01*
X37973000Y-53202408D01*
X37973000Y-53477592D01*
X38026686Y-53747490D01*
X38131995Y-54001727D01*
X38284880Y-54230535D01*
X38479465Y-54425120D01*
X38708273Y-54578005D01*
X38962510Y-54683314D01*
X39232408Y-54737000D01*
X39507592Y-54737000D01*
X39777490Y-54683314D01*
X40031727Y-54578005D01*
X40260535Y-54425120D01*
X40380090Y-54305565D01*
X43664040Y-54305565D01*
X43731020Y-54545656D01*
X43980048Y-54662756D01*
X44247135Y-54729023D01*
X44522017Y-54741910D01*
X44794133Y-54700922D01*
X45053023Y-54607636D01*
X45168980Y-54545656D01*
X45235960Y-54305565D01*
X44450000Y-53519605D01*
X43664040Y-54305565D01*
X40380090Y-54305565D01*
X40455120Y-54230535D01*
X40608005Y-54001727D01*
X40713314Y-53747490D01*
X40767000Y-53477592D01*
X40767000Y-53412017D01*
X43048090Y-53412017D01*
X43089078Y-53684133D01*
X43182364Y-53943023D01*
X43244344Y-54058980D01*
X43484435Y-54125960D01*
X44270395Y-53340000D01*
X44629605Y-53340000D01*
X45415565Y-54125960D01*
X45655656Y-54058980D01*
X45772756Y-53809952D01*
X45839023Y-53542865D01*
X45851910Y-53267983D01*
X45810922Y-52995867D01*
X45717636Y-52736977D01*
X45655656Y-52621020D01*
X45415565Y-52554040D01*
X44629605Y-53340000D01*
X44270395Y-53340000D01*
X43484435Y-52554040D01*
X43244344Y-52621020D01*
X43127244Y-52870048D01*
X43060977Y-53137135D01*
X43048090Y-53412017D01*
X40767000Y-53412017D01*
X40767000Y-53202408D01*
X40713314Y-52932510D01*
X40608005Y-52678273D01*
X40455120Y-52449465D01*
X40260535Y-52254880D01*
X40031727Y-52101995D01*
X39916385Y-52054218D01*
X39955527Y-52038005D01*
X40184335Y-51885120D01*
X40378920Y-51690535D01*
X40531805Y-51461727D01*
X40637114Y-51207490D01*
X40690800Y-50937592D01*
X40690800Y-50662408D01*
X40637114Y-50392510D01*
X40531805Y-50138273D01*
X40378920Y-49909465D01*
X40184335Y-49714880D01*
X39955527Y-49561995D01*
X39916385Y-49545782D01*
X40031727Y-49498005D01*
X40260535Y-49345120D01*
X40455120Y-49150535D01*
X40608005Y-48921727D01*
X40713314Y-48667490D01*
X40767000Y-48397592D01*
X40767000Y-48122408D01*
X40713314Y-47852510D01*
X40608005Y-47598273D01*
X40455120Y-47369465D01*
X40260535Y-47174880D01*
X40031727Y-47021995D01*
X39916385Y-46974218D01*
X39955527Y-46958005D01*
X40184335Y-46805120D01*
X40378920Y-46610535D01*
X40531805Y-46381727D01*
X40637114Y-46127490D01*
X40690800Y-45857592D01*
X40690800Y-45582408D01*
X40637114Y-45312510D01*
X40531805Y-45058273D01*
X40378920Y-44829465D01*
X40184335Y-44634880D01*
X39955527Y-44481995D01*
X39916385Y-44465782D01*
X40031727Y-44418005D01*
X40260535Y-44265120D01*
X40455120Y-44070535D01*
X40608005Y-43841727D01*
X40713314Y-43587490D01*
X40767000Y-43317592D01*
X40767000Y-43042408D01*
X40713314Y-42772510D01*
X40608005Y-42518273D01*
X40455120Y-42289465D01*
X40260535Y-42094880D01*
X40031727Y-41941995D01*
X39916385Y-41894218D01*
X39955527Y-41878005D01*
X40184335Y-41725120D01*
X40378920Y-41530535D01*
X40531805Y-41301727D01*
X40637114Y-41047490D01*
X40690800Y-40777592D01*
X40690800Y-40502408D01*
X40637114Y-40232510D01*
X40531805Y-39978273D01*
X40378920Y-39749465D01*
X40184335Y-39554880D01*
X39955527Y-39401995D01*
X39916385Y-39385782D01*
X40031727Y-39338005D01*
X40260535Y-39185120D01*
X40455120Y-38990535D01*
X40608005Y-38761727D01*
X40713314Y-38507490D01*
X40767000Y-38237592D01*
X40767000Y-37962408D01*
X40713314Y-37692510D01*
X40608005Y-37438273D01*
X40455120Y-37209465D01*
X40260535Y-37014880D01*
X40031727Y-36861995D01*
X39954485Y-36830000D01*
X40031727Y-36798005D01*
X40260535Y-36645120D01*
X40455120Y-36450535D01*
X40608005Y-36221727D01*
X40713314Y-35967490D01*
X40767000Y-35697592D01*
X40767000Y-35422408D01*
X40713314Y-35152510D01*
X40608005Y-34898273D01*
X40455120Y-34669465D01*
X40260535Y-34474880D01*
X40031727Y-34321995D01*
X39954485Y-34290000D01*
X40031727Y-34258005D01*
X40260535Y-34105120D01*
X40455120Y-33910535D01*
X40608005Y-33681727D01*
X40713314Y-33427490D01*
X40767000Y-33157592D01*
X40767000Y-32882408D01*
X40713314Y-32612510D01*
X40608005Y-32358273D01*
X40455120Y-32129465D01*
X40260535Y-31934880D01*
X40031727Y-31781995D01*
X39916385Y-31734218D01*
X39955527Y-31718005D01*
X40184335Y-31565120D01*
X40378920Y-31370535D01*
X40531805Y-31141727D01*
X40637114Y-30887490D01*
X40690800Y-30617592D01*
X40690800Y-30342408D01*
X42976800Y-30342408D01*
X42976800Y-30617592D01*
X43030486Y-30887490D01*
X43135795Y-31141727D01*
X43288680Y-31370535D01*
X43483265Y-31565120D01*
X43712073Y-31718005D01*
X43827415Y-31765782D01*
X43788273Y-31781995D01*
X43559465Y-31934880D01*
X43364880Y-32129465D01*
X43211995Y-32358273D01*
X43106686Y-32612510D01*
X43053000Y-32882408D01*
X43053000Y-33157592D01*
X43106686Y-33427490D01*
X43211995Y-33681727D01*
X43364880Y-33910535D01*
X43559465Y-34105120D01*
X43788273Y-34258005D01*
X43865515Y-34290000D01*
X43788273Y-34321995D01*
X43559465Y-34474880D01*
X43364880Y-34669465D01*
X43211995Y-34898273D01*
X43106686Y-35152510D01*
X43053000Y-35422408D01*
X43053000Y-35697592D01*
X43106686Y-35967490D01*
X43211995Y-36221727D01*
X43364880Y-36450535D01*
X43559465Y-36645120D01*
X43788273Y-36798005D01*
X43865515Y-36830000D01*
X43788273Y-36861995D01*
X43559465Y-37014880D01*
X43364880Y-37209465D01*
X43211995Y-37438273D01*
X43106686Y-37692510D01*
X43053000Y-37962408D01*
X43053000Y-38237592D01*
X43106686Y-38507490D01*
X43211995Y-38761727D01*
X43364880Y-38990535D01*
X43559465Y-39185120D01*
X43788273Y-39338005D01*
X43827415Y-39354218D01*
X43712073Y-39401995D01*
X43483265Y-39554880D01*
X43288680Y-39749465D01*
X43135795Y-39978273D01*
X43030486Y-40232510D01*
X42976800Y-40502408D01*
X42976800Y-40777592D01*
X43030486Y-41047490D01*
X43135795Y-41301727D01*
X43288680Y-41530535D01*
X43483265Y-41725120D01*
X43712073Y-41878005D01*
X43827415Y-41925782D01*
X43788273Y-41941995D01*
X43559465Y-42094880D01*
X43364880Y-42289465D01*
X43211995Y-42518273D01*
X43106686Y-42772510D01*
X43053000Y-43042408D01*
X43053000Y-43317592D01*
X43106686Y-43587490D01*
X43211995Y-43841727D01*
X43364880Y-44070535D01*
X43559465Y-44265120D01*
X43788273Y-44418005D01*
X43827415Y-44434218D01*
X43712073Y-44481995D01*
X43483265Y-44634880D01*
X43288680Y-44829465D01*
X43135795Y-45058273D01*
X43030486Y-45312510D01*
X42976800Y-45582408D01*
X42976800Y-45857592D01*
X43030486Y-46127490D01*
X43135795Y-46381727D01*
X43288680Y-46610535D01*
X43483265Y-46805120D01*
X43712073Y-46958005D01*
X43827415Y-47005782D01*
X43788273Y-47021995D01*
X43559465Y-47174880D01*
X43364880Y-47369465D01*
X43211995Y-47598273D01*
X43106686Y-47852510D01*
X43053000Y-48122408D01*
X43053000Y-48397592D01*
X43106686Y-48667490D01*
X43211995Y-48921727D01*
X43364880Y-49150535D01*
X43559465Y-49345120D01*
X43788273Y-49498005D01*
X43827415Y-49514218D01*
X43712073Y-49561995D01*
X43483265Y-49714880D01*
X43288680Y-49909465D01*
X43135795Y-50138273D01*
X43030486Y-50392510D01*
X42976800Y-50662408D01*
X42976800Y-50937592D01*
X43030486Y-51207490D01*
X43135795Y-51461727D01*
X43288680Y-51690535D01*
X43483265Y-51885120D01*
X43712073Y-52038005D01*
X43824294Y-52084489D01*
X43731020Y-52134344D01*
X43664040Y-52374435D01*
X44450000Y-53160395D01*
X45235960Y-52374435D01*
X45168980Y-52134344D01*
X44997553Y-52053734D01*
X45035527Y-52038005D01*
X45264335Y-51885120D01*
X45458920Y-51690535D01*
X45611805Y-51461727D01*
X45717114Y-51207490D01*
X45770800Y-50937592D01*
X45770800Y-50662408D01*
X45717114Y-50392510D01*
X45611805Y-50138273D01*
X45458920Y-49909465D01*
X45264335Y-49714880D01*
X45035527Y-49561995D01*
X44996385Y-49545782D01*
X45111727Y-49498005D01*
X45340535Y-49345120D01*
X45535120Y-49150535D01*
X45688005Y-48921727D01*
X45793314Y-48667490D01*
X45847000Y-48397592D01*
X45847000Y-48122408D01*
X45793314Y-47852510D01*
X45688005Y-47598273D01*
X45535120Y-47369465D01*
X45340535Y-47174880D01*
X45111727Y-47021995D01*
X44996385Y-46974218D01*
X45035527Y-46958005D01*
X45264335Y-46805120D01*
X45458920Y-46610535D01*
X45611805Y-46381727D01*
X45717114Y-46127490D01*
X45770800Y-45857592D01*
X45770800Y-45582408D01*
X45717114Y-45312510D01*
X45611805Y-45058273D01*
X45458920Y-44829465D01*
X45264335Y-44634880D01*
X45035527Y-44481995D01*
X44996385Y-44465782D01*
X45111727Y-44418005D01*
X45340535Y-44265120D01*
X45535120Y-44070535D01*
X45688005Y-43841727D01*
X45793314Y-43587490D01*
X45847000Y-43317592D01*
X45847000Y-43042408D01*
X45793314Y-42772510D01*
X45688005Y-42518273D01*
X45535120Y-42289465D01*
X45340535Y-42094880D01*
X45111727Y-41941995D01*
X44996385Y-41894218D01*
X45035527Y-41878005D01*
X45264335Y-41725120D01*
X45458920Y-41530535D01*
X45611805Y-41301727D01*
X45717114Y-41047490D01*
X45770800Y-40777592D01*
X45770800Y-40502408D01*
X45717114Y-40232510D01*
X45611805Y-39978273D01*
X45458920Y-39749465D01*
X45264335Y-39554880D01*
X45035527Y-39401995D01*
X44996385Y-39385782D01*
X45111727Y-39338005D01*
X45340535Y-39185120D01*
X45535120Y-38990535D01*
X45688005Y-38761727D01*
X45793314Y-38507490D01*
X45847000Y-38237592D01*
X45847000Y-37962408D01*
X45793314Y-37692510D01*
X45688005Y-37438273D01*
X45535120Y-37209465D01*
X45340535Y-37014880D01*
X45111727Y-36861995D01*
X45034485Y-36830000D01*
X45111727Y-36798005D01*
X45340535Y-36645120D01*
X45535120Y-36450535D01*
X45688005Y-36221727D01*
X45793314Y-35967490D01*
X45847000Y-35697592D01*
X45847000Y-35422408D01*
X45793314Y-35152510D01*
X45688005Y-34898273D01*
X45535120Y-34669465D01*
X45340535Y-34474880D01*
X45111727Y-34321995D01*
X45034485Y-34290000D01*
X45111727Y-34258005D01*
X45340535Y-34105120D01*
X45535120Y-33910535D01*
X45688005Y-33681727D01*
X45793314Y-33427490D01*
X45847000Y-33157592D01*
X45847000Y-32882408D01*
X45816372Y-32728430D01*
X47164802Y-31380000D01*
X48144454Y-31380000D01*
X48138096Y-31400961D01*
X48260085Y-31623000D01*
X49403000Y-31623000D01*
X49403000Y-31603000D01*
X49657000Y-31603000D01*
X49657000Y-31623000D01*
X49677000Y-31623000D01*
X49677000Y-31877000D01*
X49657000Y-31877000D01*
X49657000Y-31897000D01*
X49403000Y-31897000D01*
X49403000Y-31877000D01*
X48260085Y-31877000D01*
X48138096Y-32099039D01*
X48178754Y-32233087D01*
X48298963Y-32487420D01*
X48466481Y-32713414D01*
X48674869Y-32902385D01*
X48866682Y-33017421D01*
X48728899Y-33091068D01*
X48510392Y-33270392D01*
X48331068Y-33488899D01*
X48197818Y-33738192D01*
X48115764Y-34008691D01*
X48088057Y-34290000D01*
X48115764Y-34571309D01*
X48197818Y-34841808D01*
X48331068Y-35091101D01*
X48406357Y-35182841D01*
X46802003Y-36787196D01*
X46772999Y-36810999D01*
X46725508Y-36868868D01*
X46678026Y-36926724D01*
X46633725Y-37009605D01*
X46607454Y-37058754D01*
X46563997Y-37202015D01*
X46553000Y-37313668D01*
X46553000Y-37313678D01*
X46549324Y-37351000D01*
X46553000Y-37388322D01*
X46553001Y-55206497D01*
X44771503Y-56987996D01*
X44742499Y-57011799D01*
X44687371Y-57078974D01*
X44647526Y-57127524D01*
X44615558Y-57187332D01*
X44576954Y-57259554D01*
X44533497Y-57402815D01*
X44522500Y-57514468D01*
X44522500Y-57514478D01*
X44518824Y-57551800D01*
X44522500Y-57589123D01*
X44522501Y-59523168D01*
X44518824Y-59560500D01*
X44533498Y-59709485D01*
X44576954Y-59852746D01*
X44647526Y-59984776D01*
X44708386Y-60058933D01*
X44742500Y-60100501D01*
X44771498Y-60124299D01*
X44977000Y-60329801D01*
X44977000Y-60501788D01*
X45020617Y-60721067D01*
X45106176Y-60927624D01*
X45230388Y-61113520D01*
X45388480Y-61271612D01*
X45574376Y-61395824D01*
X45598943Y-61406000D01*
X45574376Y-61416176D01*
X45388480Y-61540388D01*
X45230388Y-61698480D01*
X45106176Y-61884376D01*
X45020617Y-62090933D01*
X44977000Y-62310212D01*
X44977000Y-62533788D01*
X45020617Y-62753067D01*
X45106176Y-62959624D01*
X45230388Y-63145520D01*
X45388480Y-63303612D01*
X45574376Y-63427824D01*
X45598943Y-63438000D01*
X45574376Y-63448176D01*
X45388480Y-63572388D01*
X45230388Y-63730480D01*
X45106176Y-63916376D01*
X45020617Y-64122933D01*
X44977000Y-64342212D01*
X44977000Y-64565788D01*
X45020617Y-64785067D01*
X45106176Y-64991624D01*
X45230388Y-65177520D01*
X45388480Y-65335612D01*
X45574376Y-65459824D01*
X45598943Y-65470000D01*
X45574376Y-65480176D01*
X45388480Y-65604388D01*
X45230388Y-65762480D01*
X45106176Y-65948376D01*
X45020617Y-66154933D01*
X44977000Y-66374212D01*
X44977000Y-66597788D01*
X45020617Y-66817067D01*
X45106176Y-67023624D01*
X45230388Y-67209520D01*
X45388480Y-67367612D01*
X45574376Y-67491824D01*
X45598943Y-67502000D01*
X45574376Y-67512176D01*
X45388480Y-67636388D01*
X45230388Y-67794480D01*
X45106176Y-67980376D01*
X45020617Y-68186933D01*
X44977000Y-68406212D01*
X44977000Y-68629788D01*
X45020617Y-68849067D01*
X45106176Y-69055624D01*
X45230388Y-69241520D01*
X45388480Y-69399612D01*
X45574376Y-69523824D01*
X45596284Y-69532899D01*
X45548550Y-69558412D01*
X45513439Y-69771834D01*
X46112000Y-70370395D01*
X46710561Y-69771834D01*
X46675450Y-69558412D01*
X46622734Y-69534962D01*
X46649624Y-69523824D01*
X46835520Y-69399612D01*
X46993612Y-69241520D01*
X47117824Y-69055624D01*
X47203383Y-68849067D01*
X47247000Y-68629788D01*
X47247000Y-68406212D01*
X47203383Y-68186933D01*
X47117824Y-67980376D01*
X46993612Y-67794480D01*
X46835520Y-67636388D01*
X46649624Y-67512176D01*
X46625057Y-67502000D01*
X46649624Y-67491824D01*
X46835520Y-67367612D01*
X46957132Y-67246000D01*
X56811378Y-67246000D01*
X56848700Y-67249676D01*
X56886022Y-67246000D01*
X56886033Y-67246000D01*
X56997686Y-67235003D01*
X57140947Y-67191546D01*
X57272976Y-67120974D01*
X57388701Y-67026001D01*
X57412504Y-66996997D01*
X63727630Y-60681872D01*
X63750392Y-60709608D01*
X63968899Y-60888932D01*
X64218192Y-61022182D01*
X64488691Y-61104236D01*
X64699508Y-61125000D01*
X64840492Y-61125000D01*
X65051309Y-61104236D01*
X65321808Y-61022182D01*
X65571101Y-60888932D01*
X65789608Y-60709608D01*
X65968932Y-60491101D01*
X66102182Y-60241808D01*
X66184236Y-59971309D01*
X66211943Y-59690000D01*
X66184236Y-59408691D01*
X66102182Y-59138192D01*
X65968932Y-58888899D01*
X65789608Y-58670392D01*
X65571101Y-58491068D01*
X65438142Y-58420000D01*
X65571101Y-58348932D01*
X65789608Y-58169608D01*
X65968932Y-57951101D01*
X66102182Y-57701808D01*
X66184236Y-57431309D01*
X66211943Y-57150000D01*
X66184236Y-56868691D01*
X66102182Y-56598192D01*
X65968932Y-56348899D01*
X65893688Y-56257214D01*
X66406304Y-55744598D01*
X66435301Y-55720801D01*
X66530274Y-55605076D01*
X66600846Y-55473047D01*
X66644303Y-55329786D01*
X66655300Y-55218133D01*
X66655300Y-55218123D01*
X66658976Y-55180800D01*
X66655300Y-55143477D01*
X66655300Y-54031401D01*
X67892044Y-52794658D01*
X68002880Y-52960535D01*
X68197465Y-53155120D01*
X68426273Y-53308005D01*
X68503515Y-53340000D01*
X68426273Y-53371995D01*
X68197465Y-53524880D01*
X68002880Y-53719465D01*
X67849995Y-53948273D01*
X67744686Y-54202510D01*
X67691000Y-54472408D01*
X67691000Y-54747592D01*
X67744686Y-55017490D01*
X67849995Y-55271727D01*
X68002880Y-55500535D01*
X68197465Y-55695120D01*
X68426273Y-55848005D01*
X68680510Y-55953314D01*
X68950408Y-56007000D01*
X69225592Y-56007000D01*
X69495490Y-55953314D01*
X69749727Y-55848005D01*
X69978535Y-55695120D01*
X70098090Y-55575565D01*
X73382040Y-55575565D01*
X73449020Y-55815656D01*
X73698048Y-55932756D01*
X73965135Y-55999023D01*
X74240017Y-56011910D01*
X74512133Y-55970922D01*
X74771023Y-55877636D01*
X74886980Y-55815656D01*
X74953960Y-55575565D01*
X74168000Y-54789605D01*
X73382040Y-55575565D01*
X70098090Y-55575565D01*
X70173120Y-55500535D01*
X70326005Y-55271727D01*
X70431314Y-55017490D01*
X70485000Y-54747592D01*
X70485000Y-54682017D01*
X72766090Y-54682017D01*
X72807078Y-54954133D01*
X72900364Y-55213023D01*
X72962344Y-55328980D01*
X73202435Y-55395960D01*
X73988395Y-54610000D01*
X74347605Y-54610000D01*
X75133565Y-55395960D01*
X75373656Y-55328980D01*
X75490756Y-55079952D01*
X75557023Y-54812865D01*
X75569910Y-54537983D01*
X75528922Y-54265867D01*
X75435636Y-54006977D01*
X75373656Y-53891020D01*
X75133565Y-53824040D01*
X74347605Y-54610000D01*
X73988395Y-54610000D01*
X73202435Y-53824040D01*
X72962344Y-53891020D01*
X72845244Y-54140048D01*
X72778977Y-54407135D01*
X72766090Y-54682017D01*
X70485000Y-54682017D01*
X70485000Y-54472408D01*
X70431314Y-54202510D01*
X70326005Y-53948273D01*
X70173120Y-53719465D01*
X69978535Y-53524880D01*
X69749727Y-53371995D01*
X69672485Y-53340000D01*
X69749727Y-53308005D01*
X69978535Y-53155120D01*
X70098090Y-53035565D01*
X73382040Y-53035565D01*
X73449020Y-53275656D01*
X73579644Y-53337079D01*
X73564977Y-53342364D01*
X73449020Y-53404344D01*
X73382040Y-53644435D01*
X74168000Y-54430395D01*
X74953960Y-53644435D01*
X74886980Y-53404344D01*
X74756356Y-53342921D01*
X74771023Y-53337636D01*
X74886980Y-53275656D01*
X74953960Y-53035565D01*
X74168000Y-52249605D01*
X73382040Y-53035565D01*
X70098090Y-53035565D01*
X70173120Y-52960535D01*
X70326005Y-52731727D01*
X70431314Y-52477490D01*
X70485000Y-52207592D01*
X70485000Y-52142017D01*
X72766090Y-52142017D01*
X72807078Y-52414133D01*
X72900364Y-52673023D01*
X72962344Y-52788980D01*
X73202435Y-52855960D01*
X73988395Y-52070000D01*
X74347605Y-52070000D01*
X75133565Y-52855960D01*
X75373656Y-52788980D01*
X75490756Y-52539952D01*
X75557023Y-52272865D01*
X75569910Y-51997983D01*
X75528922Y-51725867D01*
X75435636Y-51466977D01*
X75373656Y-51351020D01*
X75133565Y-51284040D01*
X74347605Y-52070000D01*
X73988395Y-52070000D01*
X73202435Y-51284040D01*
X72962344Y-51351020D01*
X72845244Y-51600048D01*
X72778977Y-51867135D01*
X72766090Y-52142017D01*
X70485000Y-52142017D01*
X70485000Y-51932408D01*
X70431314Y-51662510D01*
X70326005Y-51408273D01*
X70173120Y-51179465D01*
X70123228Y-51129573D01*
X70757236Y-50495565D01*
X73382040Y-50495565D01*
X73449020Y-50735656D01*
X73579644Y-50797079D01*
X73564977Y-50802364D01*
X73449020Y-50864344D01*
X73382040Y-51104435D01*
X74168000Y-51890395D01*
X74953960Y-51104435D01*
X74886980Y-50864344D01*
X74756356Y-50802921D01*
X74771023Y-50797636D01*
X74886980Y-50735656D01*
X74953960Y-50495565D01*
X74168000Y-49709605D01*
X73382040Y-50495565D01*
X70757236Y-50495565D01*
X71186704Y-50066098D01*
X71215701Y-50042301D01*
X71279303Y-49964802D01*
X71310674Y-49926577D01*
X71381246Y-49794547D01*
X71395958Y-49746046D01*
X71424703Y-49651286D01*
X71429555Y-49602017D01*
X72766090Y-49602017D01*
X72807078Y-49874133D01*
X72900364Y-50133023D01*
X72962344Y-50248980D01*
X73202435Y-50315960D01*
X73988395Y-49530000D01*
X74347605Y-49530000D01*
X75133565Y-50315960D01*
X75373656Y-50248980D01*
X75490756Y-49999952D01*
X75557023Y-49732865D01*
X75569910Y-49457983D01*
X75528922Y-49185867D01*
X75435636Y-48926977D01*
X75373656Y-48811020D01*
X75133565Y-48744040D01*
X74347605Y-49530000D01*
X73988395Y-49530000D01*
X73202435Y-48744040D01*
X72962344Y-48811020D01*
X72845244Y-49060048D01*
X72778977Y-49327135D01*
X72766090Y-49602017D01*
X71429555Y-49602017D01*
X71435700Y-49539633D01*
X71435700Y-49539623D01*
X71439376Y-49502300D01*
X71435700Y-49464977D01*
X71435700Y-48564435D01*
X73382040Y-48564435D01*
X74168000Y-49350395D01*
X74953960Y-48564435D01*
X74886980Y-48324344D01*
X74789415Y-48278466D01*
X74847223Y-48257636D01*
X74963180Y-48195656D01*
X75030160Y-47955565D01*
X74244200Y-47169605D01*
X73458240Y-47955565D01*
X73525220Y-48195656D01*
X73622785Y-48241534D01*
X73564977Y-48262364D01*
X73449020Y-48324344D01*
X73382040Y-48564435D01*
X71435700Y-48564435D01*
X71435700Y-47062017D01*
X72842290Y-47062017D01*
X72883278Y-47334133D01*
X72976564Y-47593023D01*
X73038544Y-47708980D01*
X73278635Y-47775960D01*
X74064595Y-46990000D01*
X74423805Y-46990000D01*
X75209765Y-47775960D01*
X75449856Y-47708980D01*
X75566956Y-47459952D01*
X75633223Y-47192865D01*
X75646110Y-46917983D01*
X75605122Y-46645867D01*
X75511836Y-46386977D01*
X75449856Y-46271020D01*
X75209765Y-46204040D01*
X74423805Y-46990000D01*
X74064595Y-46990000D01*
X73278635Y-46204040D01*
X73038544Y-46271020D01*
X72921444Y-46520048D01*
X72855177Y-46787135D01*
X72842290Y-47062017D01*
X71435700Y-47062017D01*
X71435700Y-45415565D01*
X73382040Y-45415565D01*
X73449020Y-45655656D01*
X73617639Y-45734945D01*
X73525220Y-45784344D01*
X73458240Y-46024435D01*
X74244200Y-46810395D01*
X75030160Y-46024435D01*
X74963180Y-45784344D01*
X74794561Y-45705055D01*
X74886980Y-45655656D01*
X74953960Y-45415565D01*
X74168000Y-44629605D01*
X73382040Y-45415565D01*
X71435700Y-45415565D01*
X71435700Y-44522017D01*
X72766090Y-44522017D01*
X72807078Y-44794133D01*
X72900364Y-45053023D01*
X72962344Y-45168980D01*
X73202435Y-45235960D01*
X73988395Y-44450000D01*
X74347605Y-44450000D01*
X75133565Y-45235960D01*
X75373656Y-45168980D01*
X75490756Y-44919952D01*
X75557023Y-44652865D01*
X75569910Y-44377983D01*
X75528922Y-44105867D01*
X75435636Y-43846977D01*
X75373656Y-43731020D01*
X75133565Y-43664040D01*
X74347605Y-44450000D01*
X73988395Y-44450000D01*
X73202435Y-43664040D01*
X72962344Y-43731020D01*
X72845244Y-43980048D01*
X72778977Y-44247135D01*
X72766090Y-44522017D01*
X71435700Y-44522017D01*
X71435700Y-42875565D01*
X73382040Y-42875565D01*
X73449020Y-43115656D01*
X73579644Y-43177079D01*
X73564977Y-43182364D01*
X73449020Y-43244344D01*
X73382040Y-43484435D01*
X74168000Y-44270395D01*
X74953960Y-43484435D01*
X74886980Y-43244344D01*
X74756356Y-43182921D01*
X74771023Y-43177636D01*
X74886980Y-43115656D01*
X74953960Y-42875565D01*
X74168000Y-42089605D01*
X73382040Y-42875565D01*
X71435700Y-42875565D01*
X71435700Y-41982017D01*
X72766090Y-41982017D01*
X72807078Y-42254133D01*
X72900364Y-42513023D01*
X72962344Y-42628980D01*
X73202435Y-42695960D01*
X73988395Y-41910000D01*
X74347605Y-41910000D01*
X75133565Y-42695960D01*
X75373656Y-42628980D01*
X75490756Y-42379952D01*
X75557023Y-42112865D01*
X75569910Y-41837983D01*
X75528922Y-41565867D01*
X75435636Y-41306977D01*
X75373656Y-41191020D01*
X75133565Y-41124040D01*
X74347605Y-41910000D01*
X73988395Y-41910000D01*
X73202435Y-41124040D01*
X72962344Y-41191020D01*
X72845244Y-41440048D01*
X72778977Y-41707135D01*
X72766090Y-41982017D01*
X71435700Y-41982017D01*
X71435700Y-40335565D01*
X73382040Y-40335565D01*
X73449020Y-40575656D01*
X73579644Y-40637079D01*
X73564977Y-40642364D01*
X73449020Y-40704344D01*
X73382040Y-40944435D01*
X74168000Y-41730395D01*
X74953960Y-40944435D01*
X74886980Y-40704344D01*
X74756356Y-40642921D01*
X74771023Y-40637636D01*
X74886980Y-40575656D01*
X74953960Y-40335565D01*
X74168000Y-39549605D01*
X73382040Y-40335565D01*
X71435700Y-40335565D01*
X71435700Y-39442017D01*
X72766090Y-39442017D01*
X72807078Y-39714133D01*
X72900364Y-39973023D01*
X72962344Y-40088980D01*
X73202435Y-40155960D01*
X73988395Y-39370000D01*
X74347605Y-39370000D01*
X75133565Y-40155960D01*
X75373656Y-40088980D01*
X75490756Y-39839952D01*
X75557023Y-39572865D01*
X75569910Y-39297983D01*
X75528922Y-39025867D01*
X75435636Y-38766977D01*
X75373656Y-38651020D01*
X75133565Y-38584040D01*
X74347605Y-39370000D01*
X73988395Y-39370000D01*
X73202435Y-38584040D01*
X72962344Y-38651020D01*
X72845244Y-38900048D01*
X72778977Y-39167135D01*
X72766090Y-39442017D01*
X71435700Y-39442017D01*
X71435700Y-38404435D01*
X73382040Y-38404435D01*
X74168000Y-39190395D01*
X74953960Y-38404435D01*
X74886980Y-38164344D01*
X74789415Y-38118466D01*
X74847223Y-38097636D01*
X74963180Y-38035656D01*
X75030160Y-37795565D01*
X74244200Y-37009605D01*
X73458240Y-37795565D01*
X73525220Y-38035656D01*
X73622785Y-38081534D01*
X73564977Y-38102364D01*
X73449020Y-38164344D01*
X73382040Y-38404435D01*
X71435700Y-38404435D01*
X71435700Y-36902017D01*
X72842290Y-36902017D01*
X72883278Y-37174133D01*
X72976564Y-37433023D01*
X73038544Y-37548980D01*
X73278635Y-37615960D01*
X74064595Y-36830000D01*
X74423805Y-36830000D01*
X75209765Y-37615960D01*
X75449856Y-37548980D01*
X75566956Y-37299952D01*
X75633223Y-37032865D01*
X75646110Y-36757983D01*
X75605122Y-36485867D01*
X75511836Y-36226977D01*
X75449856Y-36111020D01*
X75209765Y-36044040D01*
X74423805Y-36830000D01*
X74064595Y-36830000D01*
X73278635Y-36044040D01*
X73038544Y-36111020D01*
X72921444Y-36360048D01*
X72855177Y-36627135D01*
X72842290Y-36902017D01*
X71435700Y-36902017D01*
X71435700Y-35255565D01*
X73382040Y-35255565D01*
X73449020Y-35495656D01*
X73617639Y-35574945D01*
X73525220Y-35624344D01*
X73458240Y-35864435D01*
X74244200Y-36650395D01*
X75030160Y-35864435D01*
X74963180Y-35624344D01*
X74794561Y-35545055D01*
X74886980Y-35495656D01*
X74953960Y-35255565D01*
X74168000Y-34469605D01*
X73382040Y-35255565D01*
X71435700Y-35255565D01*
X71435700Y-34362017D01*
X72766090Y-34362017D01*
X72807078Y-34634133D01*
X72900364Y-34893023D01*
X72962344Y-35008980D01*
X73202435Y-35075960D01*
X73988395Y-34290000D01*
X74347605Y-34290000D01*
X75133565Y-35075960D01*
X75373656Y-35008980D01*
X75490756Y-34759952D01*
X75557023Y-34492865D01*
X75569910Y-34217983D01*
X75528922Y-33945867D01*
X75435636Y-33686977D01*
X75373656Y-33571020D01*
X75133565Y-33504040D01*
X74347605Y-34290000D01*
X73988395Y-34290000D01*
X73202435Y-33504040D01*
X72962344Y-33571020D01*
X72845244Y-33820048D01*
X72778977Y-34087135D01*
X72766090Y-34362017D01*
X71435700Y-34362017D01*
X71435700Y-33324435D01*
X73382040Y-33324435D01*
X74168000Y-34110395D01*
X74953960Y-33324435D01*
X74886980Y-33084344D01*
X74789415Y-33038466D01*
X74847223Y-33017636D01*
X74963180Y-32955656D01*
X75030160Y-32715565D01*
X74244200Y-31929605D01*
X73458240Y-32715565D01*
X73525220Y-32955656D01*
X73622785Y-33001534D01*
X73564977Y-33022364D01*
X73449020Y-33084344D01*
X73382040Y-33324435D01*
X71435700Y-33324435D01*
X71435700Y-31822017D01*
X72842290Y-31822017D01*
X72883278Y-32094133D01*
X72976564Y-32353023D01*
X73038544Y-32468980D01*
X73278635Y-32535960D01*
X74064595Y-31750000D01*
X74423805Y-31750000D01*
X75209765Y-32535960D01*
X75449856Y-32468980D01*
X75566956Y-32219952D01*
X75633223Y-31952865D01*
X75646110Y-31677983D01*
X75605122Y-31405867D01*
X75511836Y-31146977D01*
X75449856Y-31031020D01*
X75209765Y-30964040D01*
X74423805Y-31750000D01*
X74064595Y-31750000D01*
X73278635Y-30964040D01*
X73038544Y-31031020D01*
X72921444Y-31280048D01*
X72855177Y-31547135D01*
X72842290Y-31822017D01*
X71435700Y-31822017D01*
X71435700Y-30175565D01*
X73382040Y-30175565D01*
X73449020Y-30415656D01*
X73617639Y-30494945D01*
X73525220Y-30544344D01*
X73458240Y-30784435D01*
X74244200Y-31570395D01*
X75030160Y-30784435D01*
X74963180Y-30544344D01*
X74794561Y-30465055D01*
X74886980Y-30415656D01*
X74953960Y-30175565D01*
X74168000Y-29389605D01*
X73382040Y-30175565D01*
X71435700Y-30175565D01*
X71435700Y-29282017D01*
X72766090Y-29282017D01*
X72807078Y-29554133D01*
X72900364Y-29813023D01*
X72962344Y-29928980D01*
X73202435Y-29995960D01*
X73988395Y-29210000D01*
X74347605Y-29210000D01*
X75133565Y-29995960D01*
X75373656Y-29928980D01*
X75490756Y-29679952D01*
X75557023Y-29412865D01*
X75569910Y-29137983D01*
X75528922Y-28865867D01*
X75435636Y-28606977D01*
X75373656Y-28491020D01*
X75133565Y-28424040D01*
X74347605Y-29210000D01*
X73988395Y-29210000D01*
X73202435Y-28424040D01*
X72962344Y-28491020D01*
X72845244Y-28740048D01*
X72778977Y-29007135D01*
X72766090Y-29282017D01*
X71435700Y-29282017D01*
X71435700Y-28244435D01*
X73382040Y-28244435D01*
X74168000Y-29030395D01*
X74953960Y-28244435D01*
X74886980Y-28004344D01*
X74789415Y-27958466D01*
X74847223Y-27937636D01*
X74963180Y-27875656D01*
X75030160Y-27635565D01*
X74244200Y-26849605D01*
X73458240Y-27635565D01*
X73525220Y-27875656D01*
X73622785Y-27921534D01*
X73564977Y-27942364D01*
X73449020Y-28004344D01*
X73382040Y-28244435D01*
X71435700Y-28244435D01*
X71435700Y-28218823D01*
X71439376Y-28181500D01*
X71435700Y-28144177D01*
X71435700Y-28144167D01*
X71424703Y-28032514D01*
X71381246Y-27889253D01*
X71310674Y-27757224D01*
X71215701Y-27641499D01*
X71186703Y-27617701D01*
X70530572Y-26961570D01*
X70561200Y-26807592D01*
X70561200Y-26742017D01*
X72842290Y-26742017D01*
X72883278Y-27014133D01*
X72976564Y-27273023D01*
X73038544Y-27388980D01*
X73278635Y-27455960D01*
X74064595Y-26670000D01*
X74423805Y-26670000D01*
X75209765Y-27455960D01*
X75449856Y-27388980D01*
X75566956Y-27139952D01*
X75633223Y-26872865D01*
X75646110Y-26597983D01*
X75605122Y-26325867D01*
X75511836Y-26066977D01*
X75449856Y-25951020D01*
X75209765Y-25884040D01*
X74423805Y-26670000D01*
X74064595Y-26670000D01*
X73278635Y-25884040D01*
X73038544Y-25951020D01*
X72921444Y-26200048D01*
X72855177Y-26467135D01*
X72842290Y-26742017D01*
X70561200Y-26742017D01*
X70561200Y-26532408D01*
X70507514Y-26262510D01*
X70402205Y-26008273D01*
X70249320Y-25779465D01*
X70054735Y-25584880D01*
X69825927Y-25431995D01*
X69710585Y-25384218D01*
X69749727Y-25368005D01*
X69978535Y-25215120D01*
X70098090Y-25095565D01*
X73382040Y-25095565D01*
X73449020Y-25335656D01*
X73617639Y-25414945D01*
X73525220Y-25464344D01*
X73458240Y-25704435D01*
X74244200Y-26490395D01*
X75030160Y-25704435D01*
X74963180Y-25464344D01*
X74794561Y-25385055D01*
X74886980Y-25335656D01*
X74953960Y-25095565D01*
X74168000Y-24309605D01*
X73382040Y-25095565D01*
X70098090Y-25095565D01*
X70173120Y-25020535D01*
X70326005Y-24791727D01*
X70431314Y-24537490D01*
X70485000Y-24267592D01*
X70485000Y-24202017D01*
X72766090Y-24202017D01*
X72807078Y-24474133D01*
X72900364Y-24733023D01*
X72962344Y-24848980D01*
X73202435Y-24915960D01*
X73988395Y-24130000D01*
X74347605Y-24130000D01*
X75133565Y-24915960D01*
X75373656Y-24848980D01*
X75490756Y-24599952D01*
X75557023Y-24332865D01*
X75569910Y-24057983D01*
X75560033Y-23992408D01*
X76073000Y-23992408D01*
X76073000Y-24267592D01*
X76126686Y-24537490D01*
X76231995Y-24791727D01*
X76384880Y-25020535D01*
X76579465Y-25215120D01*
X76710001Y-25302341D01*
X76710000Y-25548574D01*
X76655665Y-25584880D01*
X76461080Y-25779465D01*
X76308195Y-26008273D01*
X76202886Y-26262510D01*
X76149200Y-26532408D01*
X76149200Y-26807592D01*
X76202886Y-27077490D01*
X76308195Y-27331727D01*
X76461080Y-27560535D01*
X76655665Y-27755120D01*
X76786201Y-27842341D01*
X76786200Y-27986743D01*
X76579465Y-28124880D01*
X76384880Y-28319465D01*
X76231995Y-28548273D01*
X76126686Y-28802510D01*
X76073000Y-29072408D01*
X76073000Y-29347592D01*
X76126686Y-29617490D01*
X76231995Y-29871727D01*
X76384880Y-30100535D01*
X76579465Y-30295120D01*
X76808273Y-30448005D01*
X76923615Y-30495782D01*
X76884473Y-30511995D01*
X76655665Y-30664880D01*
X76461080Y-30859465D01*
X76308195Y-31088273D01*
X76202886Y-31342510D01*
X76149200Y-31612408D01*
X76149200Y-31887592D01*
X76202886Y-32157490D01*
X76308195Y-32411727D01*
X76461080Y-32640535D01*
X76655665Y-32835120D01*
X76710000Y-32871426D01*
X76710001Y-33117659D01*
X76579465Y-33204880D01*
X76384880Y-33399465D01*
X76231995Y-33628273D01*
X76126686Y-33882510D01*
X76073000Y-34152408D01*
X76073000Y-34427592D01*
X76126686Y-34697490D01*
X76231995Y-34951727D01*
X76384880Y-35180535D01*
X76579465Y-35375120D01*
X76710001Y-35462341D01*
X76710000Y-35708574D01*
X76655665Y-35744880D01*
X76461080Y-35939465D01*
X76308195Y-36168273D01*
X76202886Y-36422510D01*
X76149200Y-36692408D01*
X76149200Y-36967592D01*
X76202886Y-37237490D01*
X76308195Y-37491727D01*
X76461080Y-37720535D01*
X76655665Y-37915120D01*
X76710000Y-37951426D01*
X76710001Y-38197659D01*
X76579465Y-38284880D01*
X76384880Y-38479465D01*
X76231995Y-38708273D01*
X76126686Y-38962510D01*
X76073000Y-39232408D01*
X76073000Y-39507592D01*
X76126686Y-39777490D01*
X76231995Y-40031727D01*
X76384880Y-40260535D01*
X76579465Y-40455120D01*
X76710000Y-40542341D01*
X76710001Y-40737659D01*
X76579465Y-40824880D01*
X76384880Y-41019465D01*
X76231995Y-41248273D01*
X76126686Y-41502510D01*
X76073000Y-41772408D01*
X76073000Y-42047592D01*
X76126686Y-42317490D01*
X76231995Y-42571727D01*
X76384880Y-42800535D01*
X76579465Y-42995120D01*
X76710000Y-43082341D01*
X76710001Y-43277659D01*
X76579465Y-43364880D01*
X76384880Y-43559465D01*
X76231995Y-43788273D01*
X76126686Y-44042510D01*
X76073000Y-44312408D01*
X76073000Y-44587592D01*
X76126686Y-44857490D01*
X76231995Y-45111727D01*
X76384880Y-45340535D01*
X76579465Y-45535120D01*
X76786200Y-45673257D01*
X76786201Y-45817659D01*
X76655665Y-45904880D01*
X76461080Y-46099465D01*
X76308195Y-46328273D01*
X76202886Y-46582510D01*
X76149200Y-46852408D01*
X76149200Y-47127592D01*
X76202886Y-47397490D01*
X76308195Y-47651727D01*
X76461080Y-47880535D01*
X76655665Y-48075120D01*
X76786201Y-48162341D01*
X76786200Y-48306743D01*
X76579465Y-48444880D01*
X76384880Y-48639465D01*
X76231995Y-48868273D01*
X76126686Y-49122510D01*
X76073000Y-49392408D01*
X76073000Y-49667592D01*
X76126686Y-49937490D01*
X76231995Y-50191727D01*
X76384880Y-50420535D01*
X76579465Y-50615120D01*
X76710001Y-50702341D01*
X76710000Y-50897659D01*
X76579465Y-50984880D01*
X76384880Y-51179465D01*
X76231995Y-51408273D01*
X76126686Y-51662510D01*
X76073000Y-51932408D01*
X76073000Y-52207592D01*
X76126686Y-52477490D01*
X76231995Y-52731727D01*
X76384880Y-52960535D01*
X76579465Y-53155120D01*
X76710001Y-53242341D01*
X76710000Y-53437659D01*
X76579465Y-53524880D01*
X76384880Y-53719465D01*
X76231995Y-53948273D01*
X76126686Y-54202510D01*
X76073000Y-54472408D01*
X76073000Y-54747592D01*
X76126686Y-55017490D01*
X76231995Y-55271727D01*
X76384880Y-55500535D01*
X76579465Y-55695120D01*
X76808273Y-55848005D01*
X77062510Y-55953314D01*
X77332408Y-56007000D01*
X77607592Y-56007000D01*
X77877490Y-55953314D01*
X78131727Y-55848005D01*
X78360535Y-55695120D01*
X78555120Y-55500535D01*
X78708005Y-55271727D01*
X78813314Y-55017490D01*
X78867000Y-54747592D01*
X78867000Y-54472408D01*
X78813314Y-54202510D01*
X78708005Y-53948273D01*
X78555120Y-53719465D01*
X78360535Y-53524880D01*
X78230000Y-53437659D01*
X78230000Y-53242341D01*
X78360535Y-53155120D01*
X78555120Y-52960535D01*
X78708005Y-52731727D01*
X78813314Y-52477490D01*
X78867000Y-52207592D01*
X78867000Y-51932408D01*
X78813314Y-51662510D01*
X78708005Y-51408273D01*
X78555120Y-51179465D01*
X78360535Y-50984880D01*
X78230000Y-50897659D01*
X78230000Y-50702341D01*
X78360535Y-50615120D01*
X78555120Y-50420535D01*
X78708005Y-50191727D01*
X78813314Y-49937490D01*
X78867000Y-49667592D01*
X78867000Y-49392408D01*
X78813314Y-49122510D01*
X78708005Y-48868273D01*
X78555120Y-48639465D01*
X78360535Y-48444880D01*
X78306200Y-48408574D01*
X78306200Y-48162341D01*
X78436735Y-48075120D01*
X78631320Y-47880535D01*
X78784205Y-47651727D01*
X78889514Y-47397490D01*
X78943200Y-47127592D01*
X78943200Y-46852408D01*
X78889514Y-46582510D01*
X78784205Y-46328273D01*
X78631320Y-46099465D01*
X78436735Y-45904880D01*
X78306200Y-45817659D01*
X78306200Y-45571426D01*
X78360535Y-45535120D01*
X78555120Y-45340535D01*
X78708005Y-45111727D01*
X78813314Y-44857490D01*
X78867000Y-44587592D01*
X78867000Y-44312408D01*
X78813314Y-44042510D01*
X78708005Y-43788273D01*
X78555120Y-43559465D01*
X78360535Y-43364880D01*
X78230000Y-43277659D01*
X78230000Y-43082341D01*
X78360535Y-42995120D01*
X78555120Y-42800535D01*
X78708005Y-42571727D01*
X78813314Y-42317490D01*
X78867000Y-42047592D01*
X78867000Y-41772408D01*
X78813314Y-41502510D01*
X78708005Y-41248273D01*
X78555120Y-41019465D01*
X78360535Y-40824880D01*
X78230000Y-40737659D01*
X78230000Y-40542341D01*
X78360535Y-40455120D01*
X78555120Y-40260535D01*
X78708005Y-40031727D01*
X78813314Y-39777490D01*
X78867000Y-39507592D01*
X78867000Y-39232408D01*
X78813314Y-38962510D01*
X78708005Y-38708273D01*
X78555120Y-38479465D01*
X78360535Y-38284880D01*
X78230000Y-38197659D01*
X78230000Y-38053256D01*
X78436735Y-37915120D01*
X78631320Y-37720535D01*
X78784205Y-37491727D01*
X78889514Y-37237490D01*
X78943200Y-36967592D01*
X78943200Y-36692408D01*
X78889514Y-36422510D01*
X78784205Y-36168273D01*
X78631320Y-35939465D01*
X78436735Y-35744880D01*
X78230000Y-35606744D01*
X78230000Y-35462341D01*
X78360535Y-35375120D01*
X78555120Y-35180535D01*
X78708005Y-34951727D01*
X78813314Y-34697490D01*
X78867000Y-34427592D01*
X78867000Y-34152408D01*
X78813314Y-33882510D01*
X78708005Y-33628273D01*
X78555120Y-33399465D01*
X78360535Y-33204880D01*
X78230000Y-33117659D01*
X78230000Y-32973256D01*
X78436735Y-32835120D01*
X78631320Y-32640535D01*
X78784205Y-32411727D01*
X78889514Y-32157490D01*
X78943200Y-31887592D01*
X78943200Y-31612408D01*
X78889514Y-31342510D01*
X78784205Y-31088273D01*
X78631320Y-30859465D01*
X78436735Y-30664880D01*
X78207927Y-30511995D01*
X78092585Y-30464218D01*
X78131727Y-30448005D01*
X78360535Y-30295120D01*
X78555120Y-30100535D01*
X78708005Y-29871727D01*
X78813314Y-29617490D01*
X78867000Y-29347592D01*
X78867000Y-29072408D01*
X78813314Y-28802510D01*
X78708005Y-28548273D01*
X78555120Y-28319465D01*
X78360535Y-28124880D01*
X78306200Y-28088574D01*
X78306200Y-27842341D01*
X78436735Y-27755120D01*
X78631320Y-27560535D01*
X78784205Y-27331727D01*
X78889514Y-27077490D01*
X78943200Y-26807592D01*
X78943200Y-26532408D01*
X78889514Y-26262510D01*
X78784205Y-26008273D01*
X78631320Y-25779465D01*
X78436735Y-25584880D01*
X78230000Y-25446744D01*
X78230000Y-25302341D01*
X78360535Y-25215120D01*
X78555120Y-25020535D01*
X78708005Y-24791727D01*
X78813314Y-24537490D01*
X78867000Y-24267592D01*
X78867000Y-23992408D01*
X78813314Y-23722510D01*
X78708005Y-23468273D01*
X78555120Y-23239465D01*
X78360535Y-23044880D01*
X78131727Y-22891995D01*
X77877490Y-22786686D01*
X77607592Y-22733000D01*
X77332408Y-22733000D01*
X77062510Y-22786686D01*
X76808273Y-22891995D01*
X76579465Y-23044880D01*
X76384880Y-23239465D01*
X76231995Y-23468273D01*
X76126686Y-23722510D01*
X76073000Y-23992408D01*
X75560033Y-23992408D01*
X75528922Y-23785867D01*
X75435636Y-23526977D01*
X75373656Y-23411020D01*
X75133565Y-23344040D01*
X74347605Y-24130000D01*
X73988395Y-24130000D01*
X73202435Y-23344040D01*
X72962344Y-23411020D01*
X72845244Y-23660048D01*
X72778977Y-23927135D01*
X72766090Y-24202017D01*
X70485000Y-24202017D01*
X70485000Y-23992408D01*
X70431314Y-23722510D01*
X70326005Y-23468273D01*
X70173120Y-23239465D01*
X70098090Y-23164435D01*
X73382040Y-23164435D01*
X74168000Y-23950395D01*
X74953960Y-23164435D01*
X74886980Y-22924344D01*
X74637952Y-22807244D01*
X74370865Y-22740977D01*
X74095983Y-22728090D01*
X73823867Y-22769078D01*
X73564977Y-22862364D01*
X73449020Y-22924344D01*
X73382040Y-23164435D01*
X70098090Y-23164435D01*
X69978535Y-23044880D01*
X69749727Y-22891995D01*
X69495490Y-22786686D01*
X69225592Y-22733000D01*
X68950408Y-22733000D01*
X68680510Y-22786686D01*
X68426273Y-22891995D01*
X68197465Y-23044880D01*
X68002880Y-23239465D01*
X67849995Y-23468273D01*
X67744686Y-23722510D01*
X67691000Y-23992408D01*
X67691000Y-24267592D01*
X67744686Y-24537490D01*
X67849995Y-24791727D01*
X68002880Y-25020535D01*
X68197465Y-25215120D01*
X68426273Y-25368005D01*
X68541615Y-25415782D01*
X68502473Y-25431995D01*
X68273665Y-25584880D01*
X68079080Y-25779465D01*
X67926195Y-26008273D01*
X67820886Y-26262510D01*
X67767200Y-26532408D01*
X67767200Y-26807592D01*
X67820886Y-27077490D01*
X67926195Y-27331727D01*
X68079080Y-27560535D01*
X68273665Y-27755120D01*
X68502473Y-27908005D01*
X68541615Y-27924218D01*
X68426273Y-27971995D01*
X68197465Y-28124880D01*
X68002880Y-28319465D01*
X67849995Y-28548273D01*
X67744686Y-28802510D01*
X67691000Y-29072408D01*
X67691000Y-29347592D01*
X67744686Y-29617490D01*
X67849995Y-29871727D01*
X68002880Y-30100535D01*
X68197465Y-30295120D01*
X68426273Y-30448005D01*
X68541615Y-30495782D01*
X68502473Y-30511995D01*
X68273665Y-30664880D01*
X68079080Y-30859465D01*
X67926195Y-31088273D01*
X67820886Y-31342510D01*
X67767200Y-31612408D01*
X67767200Y-31887592D01*
X67768890Y-31896088D01*
X65930604Y-30057803D01*
X65968932Y-30011101D01*
X66102182Y-29761808D01*
X66184236Y-29491309D01*
X66211943Y-29210000D01*
X66184236Y-28928691D01*
X66102182Y-28658192D01*
X65968932Y-28408899D01*
X65789608Y-28190392D01*
X65571101Y-28011068D01*
X65433318Y-27937421D01*
X65625131Y-27822385D01*
X65833519Y-27633414D01*
X66001037Y-27407420D01*
X66121246Y-27153087D01*
X66161904Y-27019039D01*
X66039915Y-26797000D01*
X64897000Y-26797000D01*
X64897000Y-26817000D01*
X64643000Y-26817000D01*
X64643000Y-26797000D01*
X63500085Y-26797000D01*
X63378096Y-27019039D01*
X63418754Y-27153087D01*
X63538963Y-27407420D01*
X63706481Y-27633414D01*
X63914869Y-27822385D01*
X64106682Y-27937421D01*
X63968899Y-28011068D01*
X63750392Y-28190392D01*
X63571068Y-28408899D01*
X63437818Y-28658192D01*
X63355764Y-28928691D01*
X63328057Y-29210000D01*
X63355764Y-29491309D01*
X63437818Y-29761808D01*
X63571068Y-30011101D01*
X63750392Y-30229608D01*
X63968899Y-30408932D01*
X64016058Y-30434139D01*
X64020997Y-30484286D01*
X64031160Y-30517789D01*
X63968899Y-30551068D01*
X63750392Y-30730392D01*
X63571068Y-30948899D01*
X63437818Y-31198192D01*
X63355764Y-31468691D01*
X63328057Y-31750000D01*
X63355764Y-32031309D01*
X63437818Y-32301808D01*
X63571068Y-32551101D01*
X63750392Y-32769608D01*
X63968899Y-32948932D01*
X64101858Y-33020000D01*
X63968899Y-33091068D01*
X63750392Y-33270392D01*
X63571068Y-33488899D01*
X63437818Y-33738192D01*
X63355764Y-34008691D01*
X63328057Y-34290000D01*
X63355764Y-34571309D01*
X63437818Y-34841808D01*
X63571068Y-35091101D01*
X63750392Y-35309608D01*
X63968899Y-35488932D01*
X64101858Y-35560000D01*
X63968899Y-35631068D01*
X63750392Y-35810392D01*
X63571068Y-36028899D01*
X63437818Y-36278192D01*
X63355764Y-36548691D01*
X63328057Y-36830000D01*
X63355764Y-37111309D01*
X63437818Y-37381808D01*
X63571068Y-37631101D01*
X63750392Y-37849608D01*
X63968899Y-38028932D01*
X64101858Y-38100000D01*
X63968899Y-38171068D01*
X63750392Y-38350392D01*
X63571068Y-38568899D01*
X63437818Y-38818192D01*
X63355764Y-39088691D01*
X63328057Y-39370000D01*
X63355764Y-39651309D01*
X63437818Y-39921808D01*
X63571068Y-40171101D01*
X63750392Y-40389608D01*
X63968899Y-40568932D01*
X64101858Y-40640000D01*
X63968899Y-40711068D01*
X63750392Y-40890392D01*
X63571068Y-41108899D01*
X63437818Y-41358192D01*
X63355764Y-41628691D01*
X63328057Y-41910000D01*
X63355764Y-42191309D01*
X63437818Y-42461808D01*
X63571068Y-42711101D01*
X63750392Y-42929608D01*
X63968899Y-43108932D01*
X64101858Y-43180000D01*
X63968899Y-43251068D01*
X63750392Y-43430392D01*
X63571068Y-43648899D01*
X63437818Y-43898192D01*
X63355764Y-44168691D01*
X63328057Y-44450000D01*
X63355764Y-44731309D01*
X63437818Y-45001808D01*
X63571068Y-45251101D01*
X63750392Y-45469608D01*
X63968899Y-45648932D01*
X64101858Y-45720000D01*
X63968899Y-45791068D01*
X63750392Y-45970392D01*
X63571068Y-46188899D01*
X63437818Y-46438192D01*
X63355764Y-46708691D01*
X63328057Y-46990000D01*
X63355764Y-47271309D01*
X63437818Y-47541808D01*
X63571068Y-47791101D01*
X63750392Y-48009608D01*
X63968899Y-48188932D01*
X64101858Y-48260000D01*
X63968899Y-48331068D01*
X63750392Y-48510392D01*
X63571068Y-48728899D01*
X63437818Y-48978192D01*
X63355764Y-49248691D01*
X63328057Y-49530000D01*
X63355764Y-49811309D01*
X63437818Y-50081808D01*
X63571068Y-50331101D01*
X63750392Y-50549608D01*
X63968899Y-50728932D01*
X64101858Y-50800000D01*
X63968899Y-50871068D01*
X63750392Y-51050392D01*
X63571068Y-51268899D01*
X63437818Y-51518192D01*
X63355764Y-51788691D01*
X63328057Y-52070000D01*
X63355764Y-52351309D01*
X63437818Y-52621808D01*
X63571068Y-52871101D01*
X63750392Y-53089608D01*
X63968899Y-53268932D01*
X64031160Y-53302211D01*
X64020997Y-53335714D01*
X64016058Y-53385861D01*
X63968899Y-53411068D01*
X63750392Y-53590392D01*
X63571068Y-53808899D01*
X63437818Y-54058192D01*
X63355764Y-54328691D01*
X63328057Y-54610000D01*
X63355764Y-54891309D01*
X63437818Y-55161808D01*
X63571068Y-55411101D01*
X63750392Y-55629608D01*
X63968899Y-55808932D01*
X64031160Y-55842211D01*
X64020997Y-55875714D01*
X64016058Y-55925861D01*
X63968899Y-55951068D01*
X63750392Y-56130392D01*
X63571068Y-56348899D01*
X63437818Y-56598192D01*
X63355764Y-56868691D01*
X63328057Y-57150000D01*
X63355764Y-57431309D01*
X63437818Y-57701808D01*
X63571068Y-57951101D01*
X63750392Y-58169608D01*
X63968899Y-58348932D01*
X64101858Y-58420000D01*
X63968899Y-58491068D01*
X63750392Y-58670392D01*
X63571068Y-58888899D01*
X63545861Y-58936058D01*
X63495714Y-58940997D01*
X63352453Y-58984454D01*
X63220424Y-59055026D01*
X63104699Y-59149999D01*
X63080901Y-59178997D01*
X56533899Y-65726000D01*
X46957132Y-65726000D01*
X46835520Y-65604388D01*
X46649624Y-65480176D01*
X46625057Y-65470000D01*
X46649624Y-65459824D01*
X46835520Y-65335612D01*
X46993612Y-65177520D01*
X47117824Y-64991624D01*
X47203383Y-64785067D01*
X47247000Y-64565788D01*
X47247000Y-64393801D01*
X50041003Y-61599799D01*
X50070001Y-61576001D01*
X50099228Y-61540388D01*
X50164974Y-61460277D01*
X50235546Y-61328247D01*
X50248058Y-61287000D01*
X50279003Y-61184986D01*
X50290000Y-61073333D01*
X50290000Y-61073323D01*
X50293676Y-61036000D01*
X50290000Y-60998677D01*
X50290000Y-60910901D01*
X50331101Y-60888932D01*
X50549608Y-60709608D01*
X50728932Y-60491101D01*
X50862182Y-60241808D01*
X50944236Y-59971309D01*
X50971943Y-59690000D01*
X50944236Y-59408691D01*
X50862182Y-59138192D01*
X50728932Y-58888899D01*
X50549608Y-58670392D01*
X50331101Y-58491068D01*
X50198142Y-58420000D01*
X50331101Y-58348932D01*
X50549608Y-58169608D01*
X50728932Y-57951101D01*
X50862182Y-57701808D01*
X50944236Y-57431309D01*
X50971943Y-57150000D01*
X50944236Y-56868691D01*
X50862182Y-56598192D01*
X50728932Y-56348899D01*
X50549608Y-56130392D01*
X50331101Y-55951068D01*
X50198142Y-55880000D01*
X50331101Y-55808932D01*
X50549608Y-55629608D01*
X50728932Y-55411101D01*
X50862182Y-55161808D01*
X50944236Y-54891309D01*
X50971943Y-54610000D01*
X50944236Y-54328691D01*
X50862182Y-54058192D01*
X50728932Y-53808899D01*
X50549608Y-53590392D01*
X50331101Y-53411068D01*
X50198142Y-53340000D01*
X50331101Y-53268932D01*
X50549608Y-53089608D01*
X50728932Y-52871101D01*
X50862182Y-52621808D01*
X50944236Y-52351309D01*
X50971943Y-52070000D01*
X50944236Y-51788691D01*
X50862182Y-51518192D01*
X50728932Y-51268899D01*
X50549608Y-51050392D01*
X50331101Y-50871068D01*
X50198142Y-50800000D01*
X50331101Y-50728932D01*
X50549608Y-50549608D01*
X50728932Y-50331101D01*
X50862182Y-50081808D01*
X50944236Y-49811309D01*
X50971943Y-49530000D01*
X50944236Y-49248691D01*
X50862182Y-48978192D01*
X50728932Y-48728899D01*
X50549608Y-48510392D01*
X50331101Y-48331068D01*
X50268840Y-48297789D01*
X50279003Y-48264286D01*
X50283942Y-48214139D01*
X50331101Y-48188932D01*
X50549608Y-48009608D01*
X50728932Y-47791101D01*
X50862182Y-47541808D01*
X50944236Y-47271309D01*
X50971943Y-46990000D01*
X50944236Y-46708691D01*
X50862182Y-46438192D01*
X50728932Y-46188899D01*
X50549608Y-45970392D01*
X50331101Y-45791068D01*
X50198142Y-45720000D01*
X50331101Y-45648932D01*
X50549608Y-45469608D01*
X50728932Y-45251101D01*
X50862182Y-45001808D01*
X50944236Y-44731309D01*
X50971943Y-44450000D01*
X50944236Y-44168691D01*
X50862182Y-43898192D01*
X50728932Y-43648899D01*
X50549608Y-43430392D01*
X50331101Y-43251068D01*
X50198142Y-43180000D01*
X50331101Y-43108932D01*
X50549608Y-42929608D01*
X50728932Y-42711101D01*
X50862182Y-42461808D01*
X50944236Y-42191309D01*
X50971943Y-41910000D01*
X50944236Y-41628691D01*
X50862182Y-41358192D01*
X50728932Y-41108899D01*
X50653643Y-41017159D01*
X51172404Y-40498398D01*
X51201401Y-40474601D01*
X51295104Y-40360424D01*
X51296374Y-40358877D01*
X51366946Y-40226847D01*
X51373513Y-40205198D01*
X51410403Y-40083586D01*
X51421400Y-39971933D01*
X51421400Y-39971923D01*
X51425076Y-39934600D01*
X51421400Y-39897277D01*
X51421400Y-31283325D01*
X51425076Y-31246000D01*
X51421400Y-31208675D01*
X51421400Y-31208667D01*
X51410403Y-31097014D01*
X51366946Y-30953753D01*
X51296374Y-30821724D01*
X51201401Y-30705999D01*
X51172402Y-30682200D01*
X50626327Y-30136126D01*
X50728932Y-30011101D01*
X50862182Y-29761808D01*
X50944236Y-29491309D01*
X50971943Y-29210000D01*
X50944236Y-28928691D01*
X50862182Y-28658192D01*
X50728932Y-28408899D01*
X50549608Y-28190392D01*
X50331101Y-28011068D01*
X50198142Y-27940000D01*
X50331101Y-27868932D01*
X50549608Y-27689608D01*
X50728932Y-27471101D01*
X50862182Y-27221808D01*
X50944236Y-26951309D01*
X50971943Y-26670000D01*
X50944236Y-26388691D01*
X50862182Y-26118192D01*
X50728932Y-25868899D01*
X50549608Y-25650392D01*
X50436518Y-25557581D01*
X50454482Y-25555812D01*
X50574180Y-25519502D01*
X50684494Y-25460537D01*
X50781185Y-25381185D01*
X50860537Y-25284494D01*
X50919502Y-25174180D01*
X50955812Y-25054482D01*
X50968072Y-24930000D01*
X50968072Y-24130000D01*
X63328057Y-24130000D01*
X63355764Y-24411309D01*
X63437818Y-24681808D01*
X63571068Y-24931101D01*
X63750392Y-25149608D01*
X63968899Y-25328932D01*
X64106682Y-25402579D01*
X63914869Y-25517615D01*
X63706481Y-25706586D01*
X63538963Y-25932580D01*
X63418754Y-26186913D01*
X63378096Y-26320961D01*
X63500085Y-26543000D01*
X64643000Y-26543000D01*
X64643000Y-26523000D01*
X64897000Y-26523000D01*
X64897000Y-26543000D01*
X66039915Y-26543000D01*
X66161904Y-26320961D01*
X66121246Y-26186913D01*
X66001037Y-25932580D01*
X65833519Y-25706586D01*
X65625131Y-25517615D01*
X65433318Y-25402579D01*
X65571101Y-25328932D01*
X65789608Y-25149608D01*
X65968932Y-24931101D01*
X66102182Y-24681808D01*
X66184236Y-24411309D01*
X66211943Y-24130000D01*
X66184236Y-23848691D01*
X66102182Y-23578192D01*
X65968932Y-23328899D01*
X65789608Y-23110392D01*
X65571101Y-22931068D01*
X65321808Y-22797818D01*
X65051309Y-22715764D01*
X64840492Y-22695000D01*
X64699508Y-22695000D01*
X64488691Y-22715764D01*
X64218192Y-22797818D01*
X63968899Y-22931068D01*
X63750392Y-23110392D01*
X63571068Y-23328899D01*
X63437818Y-23578192D01*
X63355764Y-23848691D01*
X63328057Y-24130000D01*
X50968072Y-24130000D01*
X50968072Y-23330000D01*
X50955812Y-23205518D01*
X50919502Y-23085820D01*
X50860537Y-22975506D01*
X50781185Y-22878815D01*
X50684494Y-22799463D01*
X50574180Y-22740498D01*
X50454482Y-22704188D01*
X50330000Y-22691928D01*
X48730000Y-22691928D01*
X48605518Y-22704188D01*
X48485820Y-22740498D01*
X48375506Y-22799463D01*
X48278815Y-22878815D01*
X48199463Y-22975506D01*
X48140498Y-23085820D01*
X48104188Y-23205518D01*
X48091928Y-23330000D01*
X48091928Y-24930000D01*
X48104188Y-25054482D01*
X48140498Y-25174180D01*
X48199463Y-25284494D01*
X48278815Y-25381185D01*
X48375506Y-25460537D01*
X48485820Y-25519502D01*
X48605518Y-25555812D01*
X48623482Y-25557581D01*
X48510392Y-25650392D01*
X48422406Y-25757604D01*
X45816372Y-23151571D01*
X45847000Y-22997592D01*
X45847000Y-22722408D01*
X45793314Y-22452510D01*
X45688005Y-22198273D01*
X45535120Y-21969465D01*
X45340535Y-21774880D01*
X45111727Y-21621995D01*
X44857490Y-21516686D01*
X44587592Y-21463000D01*
X44312408Y-21463000D01*
X44042510Y-21516686D01*
X43788273Y-21621995D01*
X43559465Y-21774880D01*
X43364880Y-21969465D01*
X43211995Y-22198273D01*
X43106686Y-22452510D01*
X43053000Y-22722408D01*
X43053000Y-22997592D01*
X43106686Y-23267490D01*
X43211995Y-23521727D01*
X43364880Y-23750535D01*
X43559465Y-23945120D01*
X43788273Y-24098005D01*
X43865515Y-24130000D01*
X43788273Y-24161995D01*
X43559465Y-24314880D01*
X43364880Y-24509465D01*
X43211995Y-24738273D01*
X43106686Y-24992510D01*
X43053000Y-25262408D01*
X43053000Y-25537592D01*
X43106686Y-25807490D01*
X43211995Y-26061727D01*
X43364880Y-26290535D01*
X43559465Y-26485120D01*
X43788273Y-26638005D01*
X43865515Y-26670000D01*
X43788273Y-26701995D01*
X43559465Y-26854880D01*
X43364880Y-27049465D01*
X43211995Y-27278273D01*
X43106686Y-27532510D01*
X43053000Y-27802408D01*
X43053000Y-28077592D01*
X43106686Y-28347490D01*
X43211995Y-28601727D01*
X43364880Y-28830535D01*
X43559465Y-29025120D01*
X43788273Y-29178005D01*
X43827415Y-29194218D01*
X43712073Y-29241995D01*
X43483265Y-29394880D01*
X43288680Y-29589465D01*
X43135795Y-29818273D01*
X43030486Y-30072510D01*
X42976800Y-30342408D01*
X40690800Y-30342408D01*
X40637114Y-30072510D01*
X40531805Y-29818273D01*
X40378920Y-29589465D01*
X40184335Y-29394880D01*
X39955527Y-29241995D01*
X39916385Y-29225782D01*
X40031727Y-29178005D01*
X40260535Y-29025120D01*
X40455120Y-28830535D01*
X40608005Y-28601727D01*
X40713314Y-28347490D01*
X40767000Y-28077592D01*
X40767000Y-27802408D01*
X40713314Y-27532510D01*
X40608005Y-27278273D01*
X40455120Y-27049465D01*
X40260535Y-26854880D01*
X40031727Y-26701995D01*
X39954485Y-26670000D01*
X40031727Y-26638005D01*
X40260535Y-26485120D01*
X40455120Y-26290535D01*
X40608005Y-26061727D01*
X40713314Y-25807490D01*
X40767000Y-25537592D01*
X40767000Y-25262408D01*
X40713314Y-24992510D01*
X40608005Y-24738273D01*
X40455120Y-24509465D01*
X40260535Y-24314880D01*
X40031727Y-24161995D01*
X39954485Y-24130000D01*
X40031727Y-24098005D01*
X40260535Y-23945120D01*
X40455120Y-23750535D01*
X40608005Y-23521727D01*
X40713314Y-23267490D01*
X40767000Y-22997592D01*
X40767000Y-22722408D01*
X40713314Y-22452510D01*
X40608005Y-22198273D01*
X40455120Y-21969465D01*
X40260535Y-21774880D01*
X40031727Y-21621995D01*
X39777490Y-21516686D01*
X39507592Y-21463000D01*
X39232408Y-21463000D01*
X38962510Y-21516686D01*
X38708273Y-21621995D01*
X38479465Y-21774880D01*
X38284880Y-21969465D01*
X38131995Y-22198273D01*
X38026686Y-22452510D01*
X37973000Y-22722408D01*
X37973000Y-22997592D01*
X38026686Y-23267490D01*
X38131995Y-23521727D01*
X38284880Y-23750535D01*
X38479465Y-23945120D01*
X38708273Y-24098005D01*
X38785515Y-24130000D01*
X38708273Y-24161995D01*
X38479465Y-24314880D01*
X38284880Y-24509465D01*
X38131995Y-24738273D01*
X38026686Y-24992510D01*
X37973000Y-25262408D01*
X37973000Y-25537592D01*
X38026686Y-25807490D01*
X38131995Y-26061727D01*
X38284880Y-26290535D01*
X38479465Y-26485120D01*
X38708273Y-26638005D01*
X38785515Y-26670000D01*
X38708273Y-26701995D01*
X38479465Y-26854880D01*
X38284880Y-27049465D01*
X38131995Y-27278273D01*
X38026686Y-27532510D01*
X37973000Y-27802408D01*
X37973000Y-28077592D01*
X38026686Y-28347490D01*
X38131995Y-28601727D01*
X38284880Y-28830535D01*
X38479465Y-29025120D01*
X38708273Y-29178005D01*
X38747415Y-29194218D01*
X38632073Y-29241995D01*
X38403265Y-29394880D01*
X38208680Y-29589465D01*
X38055795Y-29818273D01*
X37950486Y-30072510D01*
X37896800Y-30342408D01*
X35610800Y-30342408D01*
X35557114Y-30072510D01*
X35451805Y-29818273D01*
X35298920Y-29589465D01*
X35104335Y-29394880D01*
X34875527Y-29241995D01*
X34836385Y-29225782D01*
X34951727Y-29178005D01*
X35180535Y-29025120D01*
X35375120Y-28830535D01*
X35528005Y-28601727D01*
X35633314Y-28347490D01*
X35687000Y-28077592D01*
X35687000Y-27802408D01*
X35633314Y-27532510D01*
X35528005Y-27278273D01*
X35375120Y-27049465D01*
X35180535Y-26854880D01*
X34951727Y-26701995D01*
X34874485Y-26670000D01*
X34951727Y-26638005D01*
X35180535Y-26485120D01*
X35375120Y-26290535D01*
X35528005Y-26061727D01*
X35633314Y-25807490D01*
X35687000Y-25537592D01*
X35687000Y-25262408D01*
X35633314Y-24992510D01*
X35528005Y-24738273D01*
X35375120Y-24509465D01*
X35180535Y-24314880D01*
X34951727Y-24161995D01*
X34874485Y-24130000D01*
X34951727Y-24098005D01*
X35180535Y-23945120D01*
X35375120Y-23750535D01*
X35528005Y-23521727D01*
X35633314Y-23267490D01*
X35687000Y-22997592D01*
X35687000Y-22722408D01*
X35633314Y-22452510D01*
X35528005Y-22198273D01*
X35375120Y-21969465D01*
X35180535Y-21774880D01*
X34951727Y-21621995D01*
X34697490Y-21516686D01*
X34427592Y-21463000D01*
X34152408Y-21463000D01*
X33882510Y-21516686D01*
X33628273Y-21621995D01*
X33399465Y-21774880D01*
X33204880Y-21969465D01*
X33051995Y-22198273D01*
X32946686Y-22452510D01*
X32893000Y-22722408D01*
X32893000Y-22997592D01*
X32946686Y-23267490D01*
X33051995Y-23521727D01*
X33204880Y-23750535D01*
X33399465Y-23945120D01*
X33628273Y-24098005D01*
X33705515Y-24130000D01*
X33628273Y-24161995D01*
X33399465Y-24314880D01*
X33204880Y-24509465D01*
X33051995Y-24738273D01*
X32946686Y-24992510D01*
X32893000Y-25262408D01*
X32893000Y-25537592D01*
X32946686Y-25807490D01*
X33051995Y-26061727D01*
X33204880Y-26290535D01*
X33399465Y-26485120D01*
X33628273Y-26638005D01*
X33705515Y-26670000D01*
X33628273Y-26701995D01*
X33399465Y-26854880D01*
X33204880Y-27049465D01*
X33051995Y-27278273D01*
X32946686Y-27532510D01*
X32893000Y-27802408D01*
X32893000Y-28077592D01*
X32946686Y-28347490D01*
X33051995Y-28601727D01*
X33204880Y-28830535D01*
X33399465Y-29025120D01*
X33628273Y-29178005D01*
X33667415Y-29194218D01*
X33552073Y-29241995D01*
X33323265Y-29394880D01*
X33128680Y-29589465D01*
X32975795Y-29818273D01*
X32870486Y-30072510D01*
X32816800Y-30342408D01*
X22905833Y-30342408D01*
X22874722Y-30135867D01*
X22781436Y-29876977D01*
X22719456Y-29761020D01*
X22479365Y-29694040D01*
X21693405Y-30480000D01*
X21334195Y-30480000D01*
X20548235Y-29694040D01*
X20308144Y-29761020D01*
X20191044Y-30010048D01*
X20124777Y-30277135D01*
X20111890Y-30552017D01*
X19100800Y-30552017D01*
X19100800Y-30342408D01*
X19047114Y-30072510D01*
X18941805Y-29818273D01*
X18788920Y-29589465D01*
X18713890Y-29514435D01*
X20727840Y-29514435D01*
X21513800Y-30300395D01*
X22299760Y-29514435D01*
X22232780Y-29274344D01*
X22135215Y-29228466D01*
X22193023Y-29207636D01*
X22308980Y-29145656D01*
X22375960Y-28905565D01*
X21590000Y-28119605D01*
X20804040Y-28905565D01*
X20871020Y-29145656D01*
X20968585Y-29191534D01*
X20910777Y-29212364D01*
X20794820Y-29274344D01*
X20727840Y-29514435D01*
X18713890Y-29514435D01*
X18594335Y-29394880D01*
X18540000Y-29358574D01*
X18540000Y-29112341D01*
X18670535Y-29025120D01*
X18865120Y-28830535D01*
X19018005Y-28601727D01*
X19123314Y-28347490D01*
X19177000Y-28077592D01*
X19177000Y-28012017D01*
X20188090Y-28012017D01*
X20229078Y-28284133D01*
X20322364Y-28543023D01*
X20384344Y-28658980D01*
X20624435Y-28725960D01*
X21410395Y-27940000D01*
X21769605Y-27940000D01*
X22555565Y-28725960D01*
X22795656Y-28658980D01*
X22912756Y-28409952D01*
X22979023Y-28142865D01*
X22991910Y-27867983D01*
X22950922Y-27595867D01*
X22857636Y-27336977D01*
X22795656Y-27221020D01*
X22555565Y-27154040D01*
X21769605Y-27940000D01*
X21410395Y-27940000D01*
X20624435Y-27154040D01*
X20384344Y-27221020D01*
X20267244Y-27470048D01*
X20200977Y-27737135D01*
X20188090Y-28012017D01*
X19177000Y-28012017D01*
X19177000Y-27802408D01*
X19123314Y-27532510D01*
X19018005Y-27278273D01*
X18865120Y-27049465D01*
X18670535Y-26854880D01*
X18441727Y-26701995D01*
X18364485Y-26670000D01*
X18441727Y-26638005D01*
X18670535Y-26485120D01*
X18790090Y-26365565D01*
X20804040Y-26365565D01*
X20871020Y-26605656D01*
X21001644Y-26667079D01*
X20986977Y-26672364D01*
X20871020Y-26734344D01*
X20804040Y-26974435D01*
X21590000Y-27760395D01*
X22375960Y-26974435D01*
X22308980Y-26734344D01*
X22178356Y-26672921D01*
X22193023Y-26667636D01*
X22308980Y-26605656D01*
X22375960Y-26365565D01*
X21590000Y-25579605D01*
X20804040Y-26365565D01*
X18790090Y-26365565D01*
X18865120Y-26290535D01*
X19018005Y-26061727D01*
X19123314Y-25807490D01*
X19177000Y-25537592D01*
X19177000Y-25472017D01*
X20188090Y-25472017D01*
X20229078Y-25744133D01*
X20322364Y-26003023D01*
X20384344Y-26118980D01*
X20624435Y-26185960D01*
X21410395Y-25400000D01*
X21769605Y-25400000D01*
X22555565Y-26185960D01*
X22795656Y-26118980D01*
X22912756Y-25869952D01*
X22979023Y-25602865D01*
X22991910Y-25327983D01*
X22950922Y-25055867D01*
X22857636Y-24796977D01*
X22795656Y-24681020D01*
X22555565Y-24614040D01*
X21769605Y-25400000D01*
X21410395Y-25400000D01*
X20624435Y-24614040D01*
X20384344Y-24681020D01*
X20267244Y-24930048D01*
X20200977Y-25197135D01*
X20188090Y-25472017D01*
X19177000Y-25472017D01*
X19177000Y-25262408D01*
X19123314Y-24992510D01*
X19018005Y-24738273D01*
X18865120Y-24509465D01*
X18670535Y-24314880D01*
X18540000Y-24227659D01*
X18540000Y-24032341D01*
X18670535Y-23945120D01*
X18790090Y-23825565D01*
X20804040Y-23825565D01*
X20871020Y-24065656D01*
X21001644Y-24127079D01*
X20986977Y-24132364D01*
X20871020Y-24194344D01*
X20804040Y-24434435D01*
X21590000Y-25220395D01*
X22375960Y-24434435D01*
X22308980Y-24194344D01*
X22178356Y-24132921D01*
X22193023Y-24127636D01*
X22308980Y-24065656D01*
X22375960Y-23825565D01*
X21590000Y-23039605D01*
X20804040Y-23825565D01*
X18790090Y-23825565D01*
X18865120Y-23750535D01*
X19018005Y-23521727D01*
X19123314Y-23267490D01*
X19177000Y-22997592D01*
X19177000Y-22932017D01*
X20188090Y-22932017D01*
X20229078Y-23204133D01*
X20322364Y-23463023D01*
X20384344Y-23578980D01*
X20624435Y-23645960D01*
X21410395Y-22860000D01*
X21769605Y-22860000D01*
X22555565Y-23645960D01*
X22795656Y-23578980D01*
X22912756Y-23329952D01*
X22979023Y-23062865D01*
X22991910Y-22787983D01*
X22950922Y-22515867D01*
X22857636Y-22256977D01*
X22795656Y-22141020D01*
X22555565Y-22074040D01*
X21769605Y-22860000D01*
X21410395Y-22860000D01*
X20624435Y-22074040D01*
X20384344Y-22141020D01*
X20267244Y-22390048D01*
X20200977Y-22657135D01*
X20188090Y-22932017D01*
X19177000Y-22932017D01*
X19177000Y-22722408D01*
X19123314Y-22452510D01*
X19018005Y-22198273D01*
X18865120Y-21969465D01*
X18790090Y-21894435D01*
X20804040Y-21894435D01*
X21590000Y-22680395D01*
X22375960Y-21894435D01*
X22308980Y-21654344D01*
X22059952Y-21537244D01*
X21792865Y-21470977D01*
X21517983Y-21458090D01*
X21245867Y-21499078D01*
X20986977Y-21592364D01*
X20871020Y-21654344D01*
X20804040Y-21894435D01*
X18790090Y-21894435D01*
X18670535Y-21774880D01*
X18441727Y-21621995D01*
X18187490Y-21516686D01*
X17917592Y-21463000D01*
X17642408Y-21463000D01*
X17372510Y-21516686D01*
X17118273Y-21621995D01*
X16889465Y-21774880D01*
X16694880Y-21969465D01*
X16541995Y-22198273D01*
X16436686Y-22452510D01*
X16383000Y-22722408D01*
X16383000Y-22997592D01*
X16436686Y-23267490D01*
X16541995Y-23521727D01*
X16694880Y-23750535D01*
X16889465Y-23945120D01*
X17020000Y-24032341D01*
X17020001Y-24227659D01*
X16889465Y-24314880D01*
X16694880Y-24509465D01*
X16541995Y-24738273D01*
X16436686Y-24992510D01*
X16383000Y-25262408D01*
X16383000Y-25537592D01*
X16436686Y-25807490D01*
X16541995Y-26061727D01*
X16694880Y-26290535D01*
X16889465Y-26485120D01*
X17118273Y-26638005D01*
X17195515Y-26670000D01*
X17118273Y-26701995D01*
X16889465Y-26854880D01*
X16694880Y-27049465D01*
X16541995Y-27278273D01*
X16436686Y-27532510D01*
X16383000Y-27802408D01*
X16383000Y-28077592D01*
X16436686Y-28347490D01*
X16541995Y-28601727D01*
X16694880Y-28830535D01*
X16889465Y-29025120D01*
X17020000Y-29112341D01*
X17020001Y-29256743D01*
X16813265Y-29394880D01*
X16618680Y-29589465D01*
X16465795Y-29818273D01*
X16360486Y-30072510D01*
X16306800Y-30342408D01*
X12827000Y-30342408D01*
X12827000Y-17609117D01*
X13505000Y-17609117D01*
X13505000Y-17950883D01*
X13571675Y-18286081D01*
X13702463Y-18601831D01*
X13892337Y-18885998D01*
X14134002Y-19127663D01*
X14418169Y-19317537D01*
X14733919Y-19448325D01*
X15069117Y-19515000D01*
X15410883Y-19515000D01*
X15746081Y-19448325D01*
X16061831Y-19317537D01*
X16345998Y-19127663D01*
X16587663Y-18885998D01*
X16777537Y-18601831D01*
X16908325Y-18286081D01*
X16975000Y-17950883D01*
X16975000Y-17609117D01*
X77005000Y-17609117D01*
X77005000Y-17950883D01*
X77071675Y-18286081D01*
X77202463Y-18601831D01*
X77392337Y-18885998D01*
X77634002Y-19127663D01*
X77918169Y-19317537D01*
X78233919Y-19448325D01*
X78569117Y-19515000D01*
X78910883Y-19515000D01*
X79246081Y-19448325D01*
X79561831Y-19317537D01*
X79845998Y-19127663D01*
X80087663Y-18885998D01*
X80277537Y-18601831D01*
X80408325Y-18286081D01*
X80475000Y-17950883D01*
X80475000Y-17609117D01*
X80408325Y-17273919D01*
X80277537Y-16958169D01*
X80087663Y-16674002D01*
X79845998Y-16432337D01*
X79561831Y-16242463D01*
X79246081Y-16111675D01*
X78910883Y-16045000D01*
X78569117Y-16045000D01*
X78233919Y-16111675D01*
X77918169Y-16242463D01*
X77634002Y-16432337D01*
X77392337Y-16674002D01*
X77202463Y-16958169D01*
X77071675Y-17273919D01*
X77005000Y-17609117D01*
X16975000Y-17609117D01*
X16908325Y-17273919D01*
X16777537Y-16958169D01*
X16587663Y-16674002D01*
X16345998Y-16432337D01*
X16061831Y-16242463D01*
X15746081Y-16111675D01*
X15410883Y-16045000D01*
X15069117Y-16045000D01*
X14733919Y-16111675D01*
X14418169Y-16242463D01*
X14134002Y-16432337D01*
X13892337Y-16674002D01*
X13702463Y-16958169D01*
X13571675Y-17273919D01*
X13505000Y-17609117D01*
X12827000Y-17609117D01*
X12827000Y-15367000D01*
X81153000Y-15367000D01*
X81153000Y-73533000D01*
X81153000Y-73533000D01*
G37*
X81153000Y-73533000D02*
X46731674Y-73533000D01*
X46835520Y-73463612D01*
X46993612Y-73305520D01*
X47117824Y-73119624D01*
X47203383Y-72913067D01*
X47247000Y-72693788D01*
X47247000Y-72470212D01*
X47203383Y-72250933D01*
X47117824Y-72044376D01*
X46993612Y-71858480D01*
X46835520Y-71700388D01*
X46649624Y-71576176D01*
X46627716Y-71567101D01*
X46675450Y-71541588D01*
X46710561Y-71328166D01*
X46112000Y-70729605D01*
X45513439Y-71328166D01*
X45548550Y-71541588D01*
X45601266Y-71565038D01*
X45574376Y-71576176D01*
X45388480Y-71700388D01*
X45230388Y-71858480D01*
X45106176Y-72044376D01*
X45020617Y-72250933D01*
X44977000Y-72470212D01*
X44977000Y-72693788D01*
X45020617Y-72913067D01*
X45106176Y-73119624D01*
X45230388Y-73305520D01*
X45388480Y-73463612D01*
X45492326Y-73533000D01*
X12827000Y-73533000D01*
X12827000Y-70949117D01*
X13505000Y-70949117D01*
X13505000Y-71290883D01*
X13571675Y-71626081D01*
X13702463Y-71941831D01*
X13892337Y-72225998D01*
X14134002Y-72467663D01*
X14418169Y-72657537D01*
X14733919Y-72788325D01*
X15069117Y-72855000D01*
X15410883Y-72855000D01*
X15746081Y-72788325D01*
X16061831Y-72657537D01*
X16345998Y-72467663D01*
X16587663Y-72225998D01*
X16777537Y-71941831D01*
X16908325Y-71626081D01*
X16975000Y-71290883D01*
X16975000Y-70949117D01*
X16912003Y-70632406D01*
X44974489Y-70632406D01*
X45012423Y-70852740D01*
X45092613Y-71061440D01*
X45120412Y-71113450D01*
X45333834Y-71148561D01*
X45932395Y-70550000D01*
X46291605Y-70550000D01*
X46890166Y-71148561D01*
X47103588Y-71113450D01*
X47176689Y-70949117D01*
X77005000Y-70949117D01*
X77005000Y-71290883D01*
X77071675Y-71626081D01*
X77202463Y-71941831D01*
X77392337Y-72225998D01*
X77634002Y-72467663D01*
X77918169Y-72657537D01*
X78233919Y-72788325D01*
X78569117Y-72855000D01*
X78910883Y-72855000D01*
X79246081Y-72788325D01*
X79561831Y-72657537D01*
X79845998Y-72467663D01*
X80087663Y-72225998D01*
X80277537Y-71941831D01*
X80408325Y-71626081D01*
X80475000Y-71290883D01*
X80475000Y-70949117D01*
X80408325Y-70613919D01*
X80277537Y-70298169D01*
X80087663Y-70014002D01*
X79845998Y-69772337D01*
X79561831Y-69582463D01*
X79246081Y-69451675D01*
X78910883Y-69385000D01*
X78569117Y-69385000D01*
X78233919Y-69451675D01*
X77918169Y-69582463D01*
X77634002Y-69772337D01*
X77392337Y-70014002D01*
X77202463Y-70298169D01*
X77071675Y-70613919D01*
X77005000Y-70949117D01*
X47176689Y-70949117D01*
X47194458Y-70909174D01*
X47243731Y-70691095D01*
X47249511Y-70467594D01*
X47211577Y-70247260D01*
X47131387Y-70038560D01*
X47103588Y-69986550D01*
X46890166Y-69951439D01*
X46291605Y-70550000D01*
X45932395Y-70550000D01*
X45333834Y-69951439D01*
X45120412Y-69986550D01*
X45029542Y-70190826D01*
X44980269Y-70408905D01*
X44974489Y-70632406D01*
X16912003Y-70632406D01*
X16908325Y-70613919D01*
X16777537Y-70298169D01*
X16587663Y-70014002D01*
X16345998Y-69772337D01*
X16061831Y-69582463D01*
X15746081Y-69451675D01*
X15410883Y-69385000D01*
X15069117Y-69385000D01*
X14733919Y-69451675D01*
X14418169Y-69582463D01*
X14134002Y-69772337D01*
X13892337Y-70014002D01*
X13702463Y-70298169D01*
X13571675Y-70613919D01*
X13505000Y-70949117D01*
X12827000Y-70949117D01*
X12827000Y-66908212D01*
X27595000Y-66908212D01*
X27595000Y-67131788D01*
X27638617Y-67351067D01*
X27724176Y-67557624D01*
X27848388Y-67743520D01*
X28006480Y-67901612D01*
X28192376Y-68025824D01*
X28398933Y-68111383D01*
X28618212Y-68155000D01*
X28841788Y-68155000D01*
X29061067Y-68111383D01*
X29267624Y-68025824D01*
X29453520Y-67901612D01*
X29611612Y-67743520D01*
X29735824Y-67557624D01*
X29821383Y-67351067D01*
X29865000Y-67131788D01*
X29865000Y-66908212D01*
X29821383Y-66688933D01*
X29735824Y-66482376D01*
X29611612Y-66296480D01*
X29453520Y-66138388D01*
X29267624Y-66014176D01*
X29061067Y-65928617D01*
X28841788Y-65885000D01*
X28618212Y-65885000D01*
X28398933Y-65928617D01*
X28192376Y-66014176D01*
X28006480Y-66138388D01*
X27848388Y-66296480D01*
X27724176Y-66482376D01*
X27638617Y-66688933D01*
X27595000Y-66908212D01*
X12827000Y-66908212D01*
X12827000Y-64346189D01*
X27353400Y-64346189D01*
X27353400Y-64619011D01*
X27406625Y-64886589D01*
X27511029Y-65138643D01*
X27662601Y-65365486D01*
X27855514Y-65558399D01*
X28082357Y-65709971D01*
X28334411Y-65814375D01*
X28601989Y-65867600D01*
X28874811Y-65867600D01*
X29142389Y-65814375D01*
X29394443Y-65709971D01*
X29621286Y-65558399D01*
X29814199Y-65365486D01*
X29965771Y-65138643D01*
X30070175Y-64886589D01*
X30123400Y-64619011D01*
X30123400Y-64346189D01*
X30070175Y-64078611D01*
X29965771Y-63826557D01*
X29814199Y-63599714D01*
X29621286Y-63406801D01*
X29394443Y-63255229D01*
X29142389Y-63150825D01*
X28874811Y-63097600D01*
X28601989Y-63097600D01*
X28334411Y-63150825D01*
X28082357Y-63255229D01*
X27855514Y-63406801D01*
X27662601Y-63599714D01*
X27511029Y-63826557D01*
X27406625Y-64078611D01*
X27353400Y-64346189D01*
X12827000Y-64346189D01*
X12827000Y-61848212D01*
X27615000Y-61848212D01*
X27615000Y-62071788D01*
X27658617Y-62291067D01*
X27744176Y-62497624D01*
X27868388Y-62683520D01*
X28026480Y-62841612D01*
X28212376Y-62965824D01*
X28418933Y-63051383D01*
X28638212Y-63095000D01*
X28861788Y-63095000D01*
X29081067Y-63051383D01*
X29287624Y-62965824D01*
X29473520Y-62841612D01*
X29631612Y-62683520D01*
X29755824Y-62497624D01*
X29841383Y-62291067D01*
X29885000Y-62071788D01*
X29885000Y-61848212D01*
X29841383Y-61628933D01*
X29755824Y-61422376D01*
X29631612Y-61236480D01*
X29473520Y-61078388D01*
X29287624Y-60954176D01*
X29081067Y-60868617D01*
X28861788Y-60825000D01*
X28638212Y-60825000D01*
X28418933Y-60868617D01*
X28212376Y-60954176D01*
X28026480Y-61078388D01*
X27868388Y-61236480D01*
X27744176Y-61422376D01*
X27658617Y-61628933D01*
X27615000Y-61848212D01*
X12827000Y-61848212D01*
X12827000Y-30342408D01*
X16306800Y-30342408D01*
X16306800Y-30617592D01*
X16360486Y-30887490D01*
X16465795Y-31141727D01*
X16618680Y-31370535D01*
X16813265Y-31565120D01*
X17020000Y-31703257D01*
X17020001Y-31847659D01*
X16889465Y-31934880D01*
X16694880Y-32129465D01*
X16541995Y-32358273D01*
X16436686Y-32612510D01*
X16383000Y-32882408D01*
X16383000Y-33157592D01*
X16436686Y-33427490D01*
X16541995Y-33681727D01*
X16694880Y-33910535D01*
X16889465Y-34105120D01*
X17020001Y-34192341D01*
X17020000Y-34387659D01*
X16889465Y-34474880D01*
X16694880Y-34669465D01*
X16541995Y-34898273D01*
X16436686Y-35152510D01*
X16383000Y-35422408D01*
X16383000Y-35697592D01*
X16436686Y-35967490D01*
X16541995Y-36221727D01*
X16694880Y-36450535D01*
X16889465Y-36645120D01*
X17020001Y-36732341D01*
X17020000Y-36927659D01*
X16889465Y-37014880D01*
X16694880Y-37209465D01*
X16541995Y-37438273D01*
X16436686Y-37692510D01*
X16383000Y-37962408D01*
X16383000Y-38237592D01*
X16436686Y-38507490D01*
X16541995Y-38761727D01*
X16694880Y-38990535D01*
X16889465Y-39185120D01*
X17020001Y-39272341D01*
X17020000Y-39416743D01*
X16813265Y-39554880D01*
X16618680Y-39749465D01*
X16465795Y-39978273D01*
X16360486Y-40232510D01*
X16306800Y-40502408D01*
X16306800Y-40777592D01*
X16360486Y-41047490D01*
X16465795Y-41301727D01*
X16618680Y-41530535D01*
X16813265Y-41725120D01*
X17020000Y-41863257D01*
X17020001Y-42007659D01*
X16889465Y-42094880D01*
X16694880Y-42289465D01*
X16541995Y-42518273D01*
X16436686Y-42772510D01*
X16383000Y-43042408D01*
X16383000Y-43317592D01*
X16436686Y-43587490D01*
X16541995Y-43841727D01*
X16694880Y-44070535D01*
X16889465Y-44265120D01*
X17020001Y-44352341D01*
X17020000Y-44496743D01*
X16813265Y-44634880D01*
X16618680Y-44829465D01*
X16465795Y-45058273D01*
X16360486Y-45312510D01*
X16306800Y-45582408D01*
X16306800Y-45857592D01*
X16360486Y-46127490D01*
X16465795Y-46381727D01*
X16618680Y-46610535D01*
X16813265Y-46805120D01*
X16943800Y-46892341D01*
X16943801Y-47138574D01*
X16889465Y-47174880D01*
X16694880Y-47369465D01*
X16541995Y-47598273D01*
X16436686Y-47852510D01*
X16383000Y-48122408D01*
X16383000Y-48397592D01*
X16436686Y-48667490D01*
X16541995Y-48921727D01*
X16694880Y-49150535D01*
X16889465Y-49345120D01*
X16943800Y-49381426D01*
X16943801Y-49627659D01*
X16813265Y-49714880D01*
X16618680Y-49909465D01*
X16465795Y-50138273D01*
X16360486Y-50392510D01*
X16306800Y-50662408D01*
X16306800Y-50937592D01*
X16360486Y-51207490D01*
X16465795Y-51461727D01*
X16618680Y-51690535D01*
X16813265Y-51885120D01*
X17020000Y-52023257D01*
X17020001Y-52167659D01*
X16889465Y-52254880D01*
X16694880Y-52449465D01*
X16541995Y-52678273D01*
X16436686Y-52932510D01*
X16383000Y-53202408D01*
X16383000Y-53477592D01*
X16436686Y-53747490D01*
X16541995Y-54001727D01*
X16694880Y-54230535D01*
X16889465Y-54425120D01*
X17118273Y-54578005D01*
X17372510Y-54683314D01*
X17642408Y-54737000D01*
X17917592Y-54737000D01*
X18187490Y-54683314D01*
X18441727Y-54578005D01*
X18670535Y-54425120D01*
X18790090Y-54305565D01*
X20804040Y-54305565D01*
X20871020Y-54545656D01*
X21120048Y-54662756D01*
X21387135Y-54729023D01*
X21662017Y-54741910D01*
X21934133Y-54700922D01*
X22193023Y-54607636D01*
X22308980Y-54545656D01*
X22375960Y-54305565D01*
X21590000Y-53519605D01*
X20804040Y-54305565D01*
X18790090Y-54305565D01*
X18865120Y-54230535D01*
X19018005Y-54001727D01*
X19123314Y-53747490D01*
X19177000Y-53477592D01*
X19177000Y-53412017D01*
X20188090Y-53412017D01*
X20229078Y-53684133D01*
X20322364Y-53943023D01*
X20384344Y-54058980D01*
X20624435Y-54125960D01*
X21410395Y-53340000D01*
X21769605Y-53340000D01*
X22555565Y-54125960D01*
X22795656Y-54058980D01*
X22912756Y-53809952D01*
X22979023Y-53542865D01*
X22991910Y-53267983D01*
X22950922Y-52995867D01*
X22857636Y-52736977D01*
X22795656Y-52621020D01*
X22555565Y-52554040D01*
X21769605Y-53340000D01*
X21410395Y-53340000D01*
X20624435Y-52554040D01*
X20384344Y-52621020D01*
X20267244Y-52870048D01*
X20200977Y-53137135D01*
X20188090Y-53412017D01*
X19177000Y-53412017D01*
X19177000Y-53202408D01*
X19123314Y-52932510D01*
X19018005Y-52678273D01*
X18865120Y-52449465D01*
X18670535Y-52254880D01*
X18540000Y-52167659D01*
X18540000Y-51921426D01*
X18594335Y-51885120D01*
X18713890Y-51765565D01*
X20727840Y-51765565D01*
X20794820Y-52005656D01*
X20963439Y-52084945D01*
X20871020Y-52134344D01*
X20804040Y-52374435D01*
X21590000Y-53160395D01*
X22375960Y-52374435D01*
X22308980Y-52134344D01*
X22140361Y-52055055D01*
X22232780Y-52005656D01*
X22299760Y-51765565D01*
X21513800Y-50979605D01*
X20727840Y-51765565D01*
X18713890Y-51765565D01*
X18788920Y-51690535D01*
X18941805Y-51461727D01*
X19047114Y-51207490D01*
X19100800Y-50937592D01*
X19100800Y-50872017D01*
X20111890Y-50872017D01*
X20152878Y-51144133D01*
X20246164Y-51403023D01*
X20308144Y-51518980D01*
X20548235Y-51585960D01*
X21334195Y-50800000D01*
X21693405Y-50800000D01*
X22479365Y-51585960D01*
X22719456Y-51518980D01*
X22836556Y-51269952D01*
X22902823Y-51002865D01*
X22915710Y-50727983D01*
X22874722Y-50455867D01*
X22781436Y-50196977D01*
X22719456Y-50081020D01*
X22479365Y-50014040D01*
X21693405Y-50800000D01*
X21334195Y-50800000D01*
X20548235Y-50014040D01*
X20308144Y-50081020D01*
X20191044Y-50330048D01*
X20124777Y-50597135D01*
X20111890Y-50872017D01*
X19100800Y-50872017D01*
X19100800Y-50662408D01*
X19047114Y-50392510D01*
X18941805Y-50138273D01*
X18788920Y-49909465D01*
X18713890Y-49834435D01*
X20727840Y-49834435D01*
X21513800Y-50620395D01*
X22299760Y-49834435D01*
X22232780Y-49594344D01*
X22135215Y-49548466D01*
X22193023Y-49527636D01*
X22308980Y-49465656D01*
X22375960Y-49225565D01*
X21590000Y-48439605D01*
X20804040Y-49225565D01*
X20871020Y-49465656D01*
X20968585Y-49511534D01*
X20910777Y-49532364D01*
X20794820Y-49594344D01*
X20727840Y-49834435D01*
X18713890Y-49834435D01*
X18594335Y-49714880D01*
X18463800Y-49627659D01*
X18463800Y-49483256D01*
X18670535Y-49345120D01*
X18865120Y-49150535D01*
X19018005Y-48921727D01*
X19123314Y-48667490D01*
X19177000Y-48397592D01*
X19177000Y-48332017D01*
X20188090Y-48332017D01*
X20229078Y-48604133D01*
X20322364Y-48863023D01*
X20384344Y-48978980D01*
X20624435Y-49045960D01*
X21410395Y-48260000D01*
X21769605Y-48260000D01*
X22555565Y-49045960D01*
X22795656Y-48978980D01*
X22912756Y-48729952D01*
X22979023Y-48462865D01*
X22991910Y-48187983D01*
X22950922Y-47915867D01*
X22857636Y-47656977D01*
X22795656Y-47541020D01*
X22555565Y-47474040D01*
X21769605Y-48260000D01*
X21410395Y-48260000D01*
X20624435Y-47474040D01*
X20384344Y-47541020D01*
X20267244Y-47790048D01*
X20200977Y-48057135D01*
X20188090Y-48332017D01*
X19177000Y-48332017D01*
X19177000Y-48122408D01*
X19123314Y-47852510D01*
X19018005Y-47598273D01*
X18865120Y-47369465D01*
X18670535Y-47174880D01*
X18463800Y-47036744D01*
X18463800Y-46892341D01*
X18594335Y-46805120D01*
X18713890Y-46685565D01*
X20727840Y-46685565D01*
X20794820Y-46925656D01*
X20963439Y-47004945D01*
X20871020Y-47054344D01*
X20804040Y-47294435D01*
X21590000Y-48080395D01*
X22375960Y-47294435D01*
X22308980Y-47054344D01*
X22140361Y-46975055D01*
X22232780Y-46925656D01*
X22299760Y-46685565D01*
X21513800Y-45899605D01*
X20727840Y-46685565D01*
X18713890Y-46685565D01*
X18788920Y-46610535D01*
X18941805Y-46381727D01*
X19047114Y-46127490D01*
X19100800Y-45857592D01*
X19100800Y-45792017D01*
X20111890Y-45792017D01*
X20152878Y-46064133D01*
X20246164Y-46323023D01*
X20308144Y-46438980D01*
X20548235Y-46505960D01*
X21334195Y-45720000D01*
X21693405Y-45720000D01*
X22479365Y-46505960D01*
X22719456Y-46438980D01*
X22836556Y-46189952D01*
X22902823Y-45922865D01*
X22915710Y-45647983D01*
X22874722Y-45375867D01*
X22781436Y-45116977D01*
X22719456Y-45001020D01*
X22479365Y-44934040D01*
X21693405Y-45720000D01*
X21334195Y-45720000D01*
X20548235Y-44934040D01*
X20308144Y-45001020D01*
X20191044Y-45250048D01*
X20124777Y-45517135D01*
X20111890Y-45792017D01*
X19100800Y-45792017D01*
X19100800Y-45582408D01*
X19047114Y-45312510D01*
X18941805Y-45058273D01*
X18788920Y-44829465D01*
X18713890Y-44754435D01*
X20727840Y-44754435D01*
X21513800Y-45540395D01*
X22299760Y-44754435D01*
X22232780Y-44514344D01*
X22135215Y-44468466D01*
X22193023Y-44447636D01*
X22308980Y-44385656D01*
X22375960Y-44145565D01*
X21590000Y-43359605D01*
X20804040Y-44145565D01*
X20871020Y-44385656D01*
X20968585Y-44431534D01*
X20910777Y-44452364D01*
X20794820Y-44514344D01*
X20727840Y-44754435D01*
X18713890Y-44754435D01*
X18594335Y-44634880D01*
X18540000Y-44598574D01*
X18540000Y-44352341D01*
X18670535Y-44265120D01*
X18865120Y-44070535D01*
X19018005Y-43841727D01*
X19123314Y-43587490D01*
X19177000Y-43317592D01*
X19177000Y-43252017D01*
X20188090Y-43252017D01*
X20229078Y-43524133D01*
X20322364Y-43783023D01*
X20384344Y-43898980D01*
X20624435Y-43965960D01*
X21410395Y-43180000D01*
X21769605Y-43180000D01*
X22555565Y-43965960D01*
X22795656Y-43898980D01*
X22912756Y-43649952D01*
X22979023Y-43382865D01*
X22991910Y-43107983D01*
X22950922Y-42835867D01*
X22857636Y-42576977D01*
X22795656Y-42461020D01*
X22555565Y-42394040D01*
X21769605Y-43180000D01*
X21410395Y-43180000D01*
X20624435Y-42394040D01*
X20384344Y-42461020D01*
X20267244Y-42710048D01*
X20200977Y-42977135D01*
X20188090Y-43252017D01*
X19177000Y-43252017D01*
X19177000Y-43042408D01*
X19123314Y-42772510D01*
X19018005Y-42518273D01*
X18865120Y-42289465D01*
X18670535Y-42094880D01*
X18540000Y-42007659D01*
X18540000Y-41761426D01*
X18594335Y-41725120D01*
X18713890Y-41605565D01*
X20727840Y-41605565D01*
X20794820Y-41845656D01*
X20963439Y-41924945D01*
X20871020Y-41974344D01*
X20804040Y-42214435D01*
X21590000Y-43000395D01*
X22375960Y-42214435D01*
X22308980Y-41974344D01*
X22140361Y-41895055D01*
X22232780Y-41845656D01*
X22299760Y-41605565D01*
X21513800Y-40819605D01*
X20727840Y-41605565D01*
X18713890Y-41605565D01*
X18788920Y-41530535D01*
X18941805Y-41301727D01*
X19047114Y-41047490D01*
X19100800Y-40777592D01*
X19100800Y-40712017D01*
X20111890Y-40712017D01*
X20152878Y-40984133D01*
X20246164Y-41243023D01*
X20308144Y-41358980D01*
X20548235Y-41425960D01*
X21334195Y-40640000D01*
X21693405Y-40640000D01*
X22479365Y-41425960D01*
X22719456Y-41358980D01*
X22836556Y-41109952D01*
X22902823Y-40842865D01*
X22915710Y-40567983D01*
X22874722Y-40295867D01*
X22781436Y-40036977D01*
X22719456Y-39921020D01*
X22479365Y-39854040D01*
X21693405Y-40640000D01*
X21334195Y-40640000D01*
X20548235Y-39854040D01*
X20308144Y-39921020D01*
X20191044Y-40170048D01*
X20124777Y-40437135D01*
X20111890Y-40712017D01*
X19100800Y-40712017D01*
X19100800Y-40502408D01*
X19047114Y-40232510D01*
X18941805Y-39978273D01*
X18788920Y-39749465D01*
X18713890Y-39674435D01*
X20727840Y-39674435D01*
X21513800Y-40460395D01*
X22299760Y-39674435D01*
X22232780Y-39434344D01*
X22135215Y-39388466D01*
X22193023Y-39367636D01*
X22308980Y-39305656D01*
X22375960Y-39065565D01*
X21590000Y-38279605D01*
X20804040Y-39065565D01*
X20871020Y-39305656D01*
X20968585Y-39351534D01*
X20910777Y-39372364D01*
X20794820Y-39434344D01*
X20727840Y-39674435D01*
X18713890Y-39674435D01*
X18594335Y-39554880D01*
X18540000Y-39518574D01*
X18540000Y-39272341D01*
X18670535Y-39185120D01*
X18865120Y-38990535D01*
X19018005Y-38761727D01*
X19123314Y-38507490D01*
X19177000Y-38237592D01*
X19177000Y-38172017D01*
X20188090Y-38172017D01*
X20229078Y-38444133D01*
X20322364Y-38703023D01*
X20384344Y-38818980D01*
X20624435Y-38885960D01*
X21410395Y-38100000D01*
X21769605Y-38100000D01*
X22555565Y-38885960D01*
X22795656Y-38818980D01*
X22912756Y-38569952D01*
X22979023Y-38302865D01*
X22991910Y-38027983D01*
X22950922Y-37755867D01*
X22857636Y-37496977D01*
X22795656Y-37381020D01*
X22555565Y-37314040D01*
X21769605Y-38100000D01*
X21410395Y-38100000D01*
X20624435Y-37314040D01*
X20384344Y-37381020D01*
X20267244Y-37630048D01*
X20200977Y-37897135D01*
X20188090Y-38172017D01*
X19177000Y-38172017D01*
X19177000Y-37962408D01*
X19123314Y-37692510D01*
X19018005Y-37438273D01*
X18865120Y-37209465D01*
X18670535Y-37014880D01*
X18540000Y-36927659D01*
X18540000Y-36732341D01*
X18670535Y-36645120D01*
X18790090Y-36525565D01*
X20804040Y-36525565D01*
X20871020Y-36765656D01*
X21001644Y-36827079D01*
X20986977Y-36832364D01*
X20871020Y-36894344D01*
X20804040Y-37134435D01*
X21590000Y-37920395D01*
X22375960Y-37134435D01*
X22308980Y-36894344D01*
X22178356Y-36832921D01*
X22193023Y-36827636D01*
X22308980Y-36765656D01*
X22375960Y-36525565D01*
X21590000Y-35739605D01*
X20804040Y-36525565D01*
X18790090Y-36525565D01*
X18865120Y-36450535D01*
X19018005Y-36221727D01*
X19123314Y-35967490D01*
X19177000Y-35697592D01*
X19177000Y-35632017D01*
X20188090Y-35632017D01*
X20229078Y-35904133D01*
X20322364Y-36163023D01*
X20384344Y-36278980D01*
X20624435Y-36345960D01*
X21410395Y-35560000D01*
X21769605Y-35560000D01*
X22555565Y-36345960D01*
X22795656Y-36278980D01*
X22912756Y-36029952D01*
X22979023Y-35762865D01*
X22991910Y-35487983D01*
X22950922Y-35215867D01*
X22857636Y-34956977D01*
X22795656Y-34841020D01*
X22555565Y-34774040D01*
X21769605Y-35560000D01*
X21410395Y-35560000D01*
X20624435Y-34774040D01*
X20384344Y-34841020D01*
X20267244Y-35090048D01*
X20200977Y-35357135D01*
X20188090Y-35632017D01*
X19177000Y-35632017D01*
X19177000Y-35422408D01*
X19123314Y-35152510D01*
X19018005Y-34898273D01*
X18865120Y-34669465D01*
X18670535Y-34474880D01*
X18540000Y-34387659D01*
X18540000Y-34192341D01*
X18670535Y-34105120D01*
X18790090Y-33985565D01*
X20804040Y-33985565D01*
X20871020Y-34225656D01*
X21001644Y-34287079D01*
X20986977Y-34292364D01*
X20871020Y-34354344D01*
X20804040Y-34594435D01*
X21590000Y-35380395D01*
X22375960Y-34594435D01*
X22308980Y-34354344D01*
X22178356Y-34292921D01*
X22193023Y-34287636D01*
X22308980Y-34225656D01*
X22375960Y-33985565D01*
X21590000Y-33199605D01*
X20804040Y-33985565D01*
X18790090Y-33985565D01*
X18865120Y-33910535D01*
X19018005Y-33681727D01*
X19123314Y-33427490D01*
X19177000Y-33157592D01*
X19177000Y-33092017D01*
X20188090Y-33092017D01*
X20229078Y-33364133D01*
X20322364Y-33623023D01*
X20384344Y-33738980D01*
X20624435Y-33805960D01*
X21410395Y-33020000D01*
X21769605Y-33020000D01*
X22555565Y-33805960D01*
X22795656Y-33738980D01*
X22912756Y-33489952D01*
X22979023Y-33222865D01*
X22991910Y-32947983D01*
X22950922Y-32675867D01*
X22857636Y-32416977D01*
X22795656Y-32301020D01*
X22555565Y-32234040D01*
X21769605Y-33020000D01*
X21410395Y-33020000D01*
X20624435Y-32234040D01*
X20384344Y-32301020D01*
X20267244Y-32550048D01*
X20200977Y-32817135D01*
X20188090Y-33092017D01*
X19177000Y-33092017D01*
X19177000Y-32882408D01*
X19123314Y-32612510D01*
X19018005Y-32358273D01*
X18865120Y-32129465D01*
X18670535Y-31934880D01*
X18540000Y-31847659D01*
X18540000Y-31601426D01*
X18594335Y-31565120D01*
X18713890Y-31445565D01*
X20727840Y-31445565D01*
X20794820Y-31685656D01*
X20963439Y-31764945D01*
X20871020Y-31814344D01*
X20804040Y-32054435D01*
X21590000Y-32840395D01*
X22375960Y-32054435D01*
X22308980Y-31814344D01*
X22140361Y-31735055D01*
X22232780Y-31685656D01*
X22299760Y-31445565D01*
X21513800Y-30659605D01*
X20727840Y-31445565D01*
X18713890Y-31445565D01*
X18788920Y-31370535D01*
X18941805Y-31141727D01*
X19047114Y-30887490D01*
X19100800Y-30617592D01*
X19100800Y-30552017D01*
X20111890Y-30552017D01*
X20152878Y-30824133D01*
X20246164Y-31083023D01*
X20308144Y-31198980D01*
X20548235Y-31265960D01*
X21334195Y-30480000D01*
X21693405Y-30480000D01*
X22479365Y-31265960D01*
X22719456Y-31198980D01*
X22836556Y-30949952D01*
X22902823Y-30682865D01*
X22915710Y-30407983D01*
X22905833Y-30342408D01*
X32816800Y-30342408D01*
X32816800Y-30617592D01*
X32870486Y-30887490D01*
X32975795Y-31141727D01*
X33128680Y-31370535D01*
X33323265Y-31565120D01*
X33552073Y-31718005D01*
X33667415Y-31765782D01*
X33628273Y-31781995D01*
X33399465Y-31934880D01*
X33204880Y-32129465D01*
X33051995Y-32358273D01*
X32946686Y-32612510D01*
X32893000Y-32882408D01*
X32893000Y-33157592D01*
X32946686Y-33427490D01*
X33051995Y-33681727D01*
X33204880Y-33910535D01*
X33399465Y-34105120D01*
X33628273Y-34258005D01*
X33705515Y-34290000D01*
X33628273Y-34321995D01*
X33399465Y-34474880D01*
X33204880Y-34669465D01*
X33051995Y-34898273D01*
X32946686Y-35152510D01*
X32893000Y-35422408D01*
X32893000Y-35697592D01*
X32946686Y-35967490D01*
X33051995Y-36221727D01*
X33204880Y-36450535D01*
X33399465Y-36645120D01*
X33628273Y-36798005D01*
X33705515Y-36830000D01*
X33628273Y-36861995D01*
X33399465Y-37014880D01*
X33204880Y-37209465D01*
X33051995Y-37438273D01*
X32946686Y-37692510D01*
X32893000Y-37962408D01*
X32893000Y-38237592D01*
X32946686Y-38507490D01*
X33051995Y-38761727D01*
X33204880Y-38990535D01*
X33399465Y-39185120D01*
X33628273Y-39338005D01*
X33667415Y-39354218D01*
X33552073Y-39401995D01*
X33323265Y-39554880D01*
X33128680Y-39749465D01*
X32975795Y-39978273D01*
X32870486Y-40232510D01*
X32816800Y-40502408D01*
X32816800Y-40777592D01*
X32870486Y-41047490D01*
X32975795Y-41301727D01*
X33128680Y-41530535D01*
X33323265Y-41725120D01*
X33552073Y-41878005D01*
X33667415Y-41925782D01*
X33628273Y-41941995D01*
X33399465Y-42094880D01*
X33204880Y-42289465D01*
X33051995Y-42518273D01*
X32946686Y-42772510D01*
X32893000Y-43042408D01*
X32893000Y-43317592D01*
X32946686Y-43587490D01*
X33051995Y-43841727D01*
X33204880Y-44070535D01*
X33399465Y-44265120D01*
X33628273Y-44418005D01*
X33667415Y-44434218D01*
X33552073Y-44481995D01*
X33323265Y-44634880D01*
X33128680Y-44829465D01*
X32975795Y-45058273D01*
X32870486Y-45312510D01*
X32816800Y-45582408D01*
X32816800Y-45857592D01*
X32870486Y-46127490D01*
X32975795Y-46381727D01*
X33128680Y-46610535D01*
X33323265Y-46805120D01*
X33552073Y-46958005D01*
X33667415Y-47005782D01*
X33628273Y-47021995D01*
X33399465Y-47174880D01*
X33204880Y-47369465D01*
X33051995Y-47598273D01*
X32946686Y-47852510D01*
X32893000Y-48122408D01*
X32893000Y-48397592D01*
X32946686Y-48667490D01*
X33051995Y-48921727D01*
X33204880Y-49150535D01*
X33399465Y-49345120D01*
X33628273Y-49498005D01*
X33667415Y-49514218D01*
X33552073Y-49561995D01*
X33323265Y-49714880D01*
X33128680Y-49909465D01*
X32975795Y-50138273D01*
X32870486Y-50392510D01*
X32816800Y-50662408D01*
X32816800Y-50937592D01*
X32870486Y-51207490D01*
X32975795Y-51461727D01*
X33128680Y-51690535D01*
X33323265Y-51885120D01*
X33552073Y-52038005D01*
X33667415Y-52085782D01*
X33628273Y-52101995D01*
X33399465Y-52254880D01*
X33204880Y-52449465D01*
X33051995Y-52678273D01*
X32946686Y-52932510D01*
X32893000Y-53202408D01*
X32893000Y-53477592D01*
X32946686Y-53747490D01*
X33051995Y-54001727D01*
X33204880Y-54230535D01*
X33399465Y-54425120D01*
X33628273Y-54578005D01*
X33882510Y-54683314D01*
X34152408Y-54737000D01*
X34427592Y-54737000D01*
X34697490Y-54683314D01*
X34951727Y-54578005D01*
X35180535Y-54425120D01*
X35375120Y-54230535D01*
X35528005Y-54001727D01*
X35633314Y-53747490D01*
X35687000Y-53477592D01*
X35687000Y-53202408D01*
X35633314Y-52932510D01*
X35528005Y-52678273D01*
X35375120Y-52449465D01*
X35180535Y-52254880D01*
X34951727Y-52101995D01*
X34836385Y-52054218D01*
X34875527Y-52038005D01*
X35104335Y-51885120D01*
X35298920Y-51690535D01*
X35451805Y-51461727D01*
X35557114Y-51207490D01*
X35610800Y-50937592D01*
X35610800Y-50662408D01*
X35557114Y-50392510D01*
X35451805Y-50138273D01*
X35298920Y-49909465D01*
X35104335Y-49714880D01*
X34875527Y-49561995D01*
X34836385Y-49545782D01*
X34951727Y-49498005D01*
X35180535Y-49345120D01*
X35375120Y-49150535D01*
X35528005Y-48921727D01*
X35633314Y-48667490D01*
X35687000Y-48397592D01*
X35687000Y-48122408D01*
X35633314Y-47852510D01*
X35528005Y-47598273D01*
X35375120Y-47369465D01*
X35180535Y-47174880D01*
X34951727Y-47021995D01*
X34836385Y-46974218D01*
X34875527Y-46958005D01*
X35104335Y-46805120D01*
X35298920Y-46610535D01*
X35451805Y-46381727D01*
X35557114Y-46127490D01*
X35610800Y-45857592D01*
X35610800Y-45582408D01*
X35557114Y-45312510D01*
X35451805Y-45058273D01*
X35298920Y-44829465D01*
X35104335Y-44634880D01*
X34875527Y-44481995D01*
X34836385Y-44465782D01*
X34951727Y-44418005D01*
X35180535Y-44265120D01*
X35375120Y-44070535D01*
X35528005Y-43841727D01*
X35633314Y-43587490D01*
X35687000Y-43317592D01*
X35687000Y-43042408D01*
X35633314Y-42772510D01*
X35528005Y-42518273D01*
X35375120Y-42289465D01*
X35180535Y-42094880D01*
X34951727Y-41941995D01*
X34836385Y-41894218D01*
X34875527Y-41878005D01*
X35104335Y-41725120D01*
X35298920Y-41530535D01*
X35451805Y-41301727D01*
X35557114Y-41047490D01*
X35610800Y-40777592D01*
X35610800Y-40502408D01*
X35557114Y-40232510D01*
X35451805Y-39978273D01*
X35298920Y-39749465D01*
X35104335Y-39554880D01*
X34875527Y-39401995D01*
X34836385Y-39385782D01*
X34951727Y-39338005D01*
X35180535Y-39185120D01*
X35375120Y-38990535D01*
X35528005Y-38761727D01*
X35633314Y-38507490D01*
X35687000Y-38237592D01*
X35687000Y-37962408D01*
X35633314Y-37692510D01*
X35528005Y-37438273D01*
X35375120Y-37209465D01*
X35180535Y-37014880D01*
X34951727Y-36861995D01*
X34874485Y-36830000D01*
X34951727Y-36798005D01*
X35180535Y-36645120D01*
X35375120Y-36450535D01*
X35528005Y-36221727D01*
X35633314Y-35967490D01*
X35687000Y-35697592D01*
X35687000Y-35422408D01*
X35633314Y-35152510D01*
X35528005Y-34898273D01*
X35375120Y-34669465D01*
X35180535Y-34474880D01*
X34951727Y-34321995D01*
X34874485Y-34290000D01*
X34951727Y-34258005D01*
X35180535Y-34105120D01*
X35375120Y-33910535D01*
X35528005Y-33681727D01*
X35633314Y-33427490D01*
X35687000Y-33157592D01*
X35687000Y-32882408D01*
X35633314Y-32612510D01*
X35528005Y-32358273D01*
X35375120Y-32129465D01*
X35180535Y-31934880D01*
X34951727Y-31781995D01*
X34836385Y-31734218D01*
X34875527Y-31718005D01*
X35104335Y-31565120D01*
X35298920Y-31370535D01*
X35451805Y-31141727D01*
X35557114Y-30887490D01*
X35610800Y-30617592D01*
X35610800Y-30342408D01*
X37896800Y-30342408D01*
X37896800Y-30617592D01*
X37950486Y-30887490D01*
X38055795Y-31141727D01*
X38208680Y-31370535D01*
X38403265Y-31565120D01*
X38632073Y-31718005D01*
X38747415Y-31765782D01*
X38708273Y-31781995D01*
X38479465Y-31934880D01*
X38284880Y-32129465D01*
X38131995Y-32358273D01*
X38026686Y-32612510D01*
X37973000Y-32882408D01*
X37973000Y-33157592D01*
X38026686Y-33427490D01*
X38131995Y-33681727D01*
X38284880Y-33910535D01*
X38479465Y-34105120D01*
X38708273Y-34258005D01*
X38785515Y-34290000D01*
X38708273Y-34321995D01*
X38479465Y-34474880D01*
X38284880Y-34669465D01*
X38131995Y-34898273D01*
X38026686Y-35152510D01*
X37973000Y-35422408D01*
X37973000Y-35697592D01*
X38026686Y-35967490D01*
X38131995Y-36221727D01*
X38284880Y-36450535D01*
X38479465Y-36645120D01*
X38708273Y-36798005D01*
X38785515Y-36830000D01*
X38708273Y-36861995D01*
X38479465Y-37014880D01*
X38284880Y-37209465D01*
X38131995Y-37438273D01*
X38026686Y-37692510D01*
X37973000Y-37962408D01*
X37973000Y-38237592D01*
X38026686Y-38507490D01*
X38131995Y-38761727D01*
X38284880Y-38990535D01*
X38479465Y-39185120D01*
X38708273Y-39338005D01*
X38747415Y-39354218D01*
X38632073Y-39401995D01*
X38403265Y-39554880D01*
X38208680Y-39749465D01*
X38055795Y-39978273D01*
X37950486Y-40232510D01*
X37896800Y-40502408D01*
X37896800Y-40777592D01*
X37950486Y-41047490D01*
X38055795Y-41301727D01*
X38208680Y-41530535D01*
X38403265Y-41725120D01*
X38632073Y-41878005D01*
X38747415Y-41925782D01*
X38708273Y-41941995D01*
X38479465Y-42094880D01*
X38284880Y-42289465D01*
X38131995Y-42518273D01*
X38026686Y-42772510D01*
X37973000Y-43042408D01*
X37973000Y-43317592D01*
X38026686Y-43587490D01*
X38131995Y-43841727D01*
X38284880Y-44070535D01*
X38479465Y-44265120D01*
X38708273Y-44418005D01*
X38747415Y-44434218D01*
X38632073Y-44481995D01*
X38403265Y-44634880D01*
X38208680Y-44829465D01*
X38055795Y-45058273D01*
X37950486Y-45312510D01*
X37896800Y-45582408D01*
X37896800Y-45857592D01*
X37950486Y-46127490D01*
X38055795Y-46381727D01*
X38208680Y-46610535D01*
X38403265Y-46805120D01*
X38632073Y-46958005D01*
X38747415Y-47005782D01*
X38708273Y-47021995D01*
X38479465Y-47174880D01*
X38284880Y-47369465D01*
X38131995Y-47598273D01*
X38026686Y-47852510D01*
X37973000Y-48122408D01*
X37973000Y-48397592D01*
X38026686Y-48667490D01*
X38131995Y-48921727D01*
X38284880Y-49150535D01*
X38479465Y-49345120D01*
X38708273Y-49498005D01*
X38747415Y-49514218D01*
X38632073Y-49561995D01*
X38403265Y-49714880D01*
X38208680Y-49909465D01*
X38055795Y-50138273D01*
X37950486Y-50392510D01*
X37896800Y-50662408D01*
X37896800Y-50937592D01*
X37950486Y-51207490D01*
X38055795Y-51461727D01*
X38208680Y-51690535D01*
X38403265Y-51885120D01*
X38632073Y-52038005D01*
X38747415Y-52085782D01*
X38708273Y-52101995D01*
X38479465Y-52254880D01*
X38284880Y-52449465D01*
X38131995Y-52678273D01*
X38026686Y-52932510D01*
X37973000Y-53202408D01*
X37973000Y-53477592D01*
X38026686Y-53747490D01*
X38131995Y-54001727D01*
X38284880Y-54230535D01*
X38479465Y-54425120D01*
X38708273Y-54578005D01*
X38962510Y-54683314D01*
X39232408Y-54737000D01*
X39507592Y-54737000D01*
X39777490Y-54683314D01*
X40031727Y-54578005D01*
X40260535Y-54425120D01*
X40380090Y-54305565D01*
X43664040Y-54305565D01*
X43731020Y-54545656D01*
X43980048Y-54662756D01*
X44247135Y-54729023D01*
X44522017Y-54741910D01*
X44794133Y-54700922D01*
X45053023Y-54607636D01*
X45168980Y-54545656D01*
X45235960Y-54305565D01*
X44450000Y-53519605D01*
X43664040Y-54305565D01*
X40380090Y-54305565D01*
X40455120Y-54230535D01*
X40608005Y-54001727D01*
X40713314Y-53747490D01*
X40767000Y-53477592D01*
X40767000Y-53412017D01*
X43048090Y-53412017D01*
X43089078Y-53684133D01*
X43182364Y-53943023D01*
X43244344Y-54058980D01*
X43484435Y-54125960D01*
X44270395Y-53340000D01*
X44629605Y-53340000D01*
X45415565Y-54125960D01*
X45655656Y-54058980D01*
X45772756Y-53809952D01*
X45839023Y-53542865D01*
X45851910Y-53267983D01*
X45810922Y-52995867D01*
X45717636Y-52736977D01*
X45655656Y-52621020D01*
X45415565Y-52554040D01*
X44629605Y-53340000D01*
X44270395Y-53340000D01*
X43484435Y-52554040D01*
X43244344Y-52621020D01*
X43127244Y-52870048D01*
X43060977Y-53137135D01*
X43048090Y-53412017D01*
X40767000Y-53412017D01*
X40767000Y-53202408D01*
X40713314Y-52932510D01*
X40608005Y-52678273D01*
X40455120Y-52449465D01*
X40260535Y-52254880D01*
X40031727Y-52101995D01*
X39916385Y-52054218D01*
X39955527Y-52038005D01*
X40184335Y-51885120D01*
X40378920Y-51690535D01*
X40531805Y-51461727D01*
X40637114Y-51207490D01*
X40690800Y-50937592D01*
X40690800Y-50662408D01*
X40637114Y-50392510D01*
X40531805Y-50138273D01*
X40378920Y-49909465D01*
X40184335Y-49714880D01*
X39955527Y-49561995D01*
X39916385Y-49545782D01*
X40031727Y-49498005D01*
X40260535Y-49345120D01*
X40455120Y-49150535D01*
X40608005Y-48921727D01*
X40713314Y-48667490D01*
X40767000Y-48397592D01*
X40767000Y-48122408D01*
X40713314Y-47852510D01*
X40608005Y-47598273D01*
X40455120Y-47369465D01*
X40260535Y-47174880D01*
X40031727Y-47021995D01*
X39916385Y-46974218D01*
X39955527Y-46958005D01*
X40184335Y-46805120D01*
X40378920Y-46610535D01*
X40531805Y-46381727D01*
X40637114Y-46127490D01*
X40690800Y-45857592D01*
X40690800Y-45582408D01*
X40637114Y-45312510D01*
X40531805Y-45058273D01*
X40378920Y-44829465D01*
X40184335Y-44634880D01*
X39955527Y-44481995D01*
X39916385Y-44465782D01*
X40031727Y-44418005D01*
X40260535Y-44265120D01*
X40455120Y-44070535D01*
X40608005Y-43841727D01*
X40713314Y-43587490D01*
X40767000Y-43317592D01*
X40767000Y-43042408D01*
X40713314Y-42772510D01*
X40608005Y-42518273D01*
X40455120Y-42289465D01*
X40260535Y-42094880D01*
X40031727Y-41941995D01*
X39916385Y-41894218D01*
X39955527Y-41878005D01*
X40184335Y-41725120D01*
X40378920Y-41530535D01*
X40531805Y-41301727D01*
X40637114Y-41047490D01*
X40690800Y-40777592D01*
X40690800Y-40502408D01*
X40637114Y-40232510D01*
X40531805Y-39978273D01*
X40378920Y-39749465D01*
X40184335Y-39554880D01*
X39955527Y-39401995D01*
X39916385Y-39385782D01*
X40031727Y-39338005D01*
X40260535Y-39185120D01*
X40455120Y-38990535D01*
X40608005Y-38761727D01*
X40713314Y-38507490D01*
X40767000Y-38237592D01*
X40767000Y-37962408D01*
X40713314Y-37692510D01*
X40608005Y-37438273D01*
X40455120Y-37209465D01*
X40260535Y-37014880D01*
X40031727Y-36861995D01*
X39954485Y-36830000D01*
X40031727Y-36798005D01*
X40260535Y-36645120D01*
X40455120Y-36450535D01*
X40608005Y-36221727D01*
X40713314Y-35967490D01*
X40767000Y-35697592D01*
X40767000Y-35422408D01*
X40713314Y-35152510D01*
X40608005Y-34898273D01*
X40455120Y-34669465D01*
X40260535Y-34474880D01*
X40031727Y-34321995D01*
X39954485Y-34290000D01*
X40031727Y-34258005D01*
X40260535Y-34105120D01*
X40455120Y-33910535D01*
X40608005Y-33681727D01*
X40713314Y-33427490D01*
X40767000Y-33157592D01*
X40767000Y-32882408D01*
X40713314Y-32612510D01*
X40608005Y-32358273D01*
X40455120Y-32129465D01*
X40260535Y-31934880D01*
X40031727Y-31781995D01*
X39916385Y-31734218D01*
X39955527Y-31718005D01*
X40184335Y-31565120D01*
X40378920Y-31370535D01*
X40531805Y-31141727D01*
X40637114Y-30887490D01*
X40690800Y-30617592D01*
X40690800Y-30342408D01*
X42976800Y-30342408D01*
X42976800Y-30617592D01*
X43030486Y-30887490D01*
X43135795Y-31141727D01*
X43288680Y-31370535D01*
X43483265Y-31565120D01*
X43712073Y-31718005D01*
X43827415Y-31765782D01*
X43788273Y-31781995D01*
X43559465Y-31934880D01*
X43364880Y-32129465D01*
X43211995Y-32358273D01*
X43106686Y-32612510D01*
X43053000Y-32882408D01*
X43053000Y-33157592D01*
X43106686Y-33427490D01*
X43211995Y-33681727D01*
X43364880Y-33910535D01*
X43559465Y-34105120D01*
X43788273Y-34258005D01*
X43865515Y-34290000D01*
X43788273Y-34321995D01*
X43559465Y-34474880D01*
X43364880Y-34669465D01*
X43211995Y-34898273D01*
X43106686Y-35152510D01*
X43053000Y-35422408D01*
X43053000Y-35697592D01*
X43106686Y-35967490D01*
X43211995Y-36221727D01*
X43364880Y-36450535D01*
X43559465Y-36645120D01*
X43788273Y-36798005D01*
X43865515Y-36830000D01*
X43788273Y-36861995D01*
X43559465Y-37014880D01*
X43364880Y-37209465D01*
X43211995Y-37438273D01*
X43106686Y-37692510D01*
X43053000Y-37962408D01*
X43053000Y-38237592D01*
X43106686Y-38507490D01*
X43211995Y-38761727D01*
X43364880Y-38990535D01*
X43559465Y-39185120D01*
X43788273Y-39338005D01*
X43827415Y-39354218D01*
X43712073Y-39401995D01*
X43483265Y-39554880D01*
X43288680Y-39749465D01*
X43135795Y-39978273D01*
X43030486Y-40232510D01*
X42976800Y-40502408D01*
X42976800Y-40777592D01*
X43030486Y-41047490D01*
X43135795Y-41301727D01*
X43288680Y-41530535D01*
X43483265Y-41725120D01*
X43712073Y-41878005D01*
X43827415Y-41925782D01*
X43788273Y-41941995D01*
X43559465Y-42094880D01*
X43364880Y-42289465D01*
X43211995Y-42518273D01*
X43106686Y-42772510D01*
X43053000Y-43042408D01*
X43053000Y-43317592D01*
X43106686Y-43587490D01*
X43211995Y-43841727D01*
X43364880Y-44070535D01*
X43559465Y-44265120D01*
X43788273Y-44418005D01*
X43827415Y-44434218D01*
X43712073Y-44481995D01*
X43483265Y-44634880D01*
X43288680Y-44829465D01*
X43135795Y-45058273D01*
X43030486Y-45312510D01*
X42976800Y-45582408D01*
X42976800Y-45857592D01*
X43030486Y-46127490D01*
X43135795Y-46381727D01*
X43288680Y-46610535D01*
X43483265Y-46805120D01*
X43712073Y-46958005D01*
X43827415Y-47005782D01*
X43788273Y-47021995D01*
X43559465Y-47174880D01*
X43364880Y-47369465D01*
X43211995Y-47598273D01*
X43106686Y-47852510D01*
X43053000Y-48122408D01*
X43053000Y-48397592D01*
X43106686Y-48667490D01*
X43211995Y-48921727D01*
X43364880Y-49150535D01*
X43559465Y-49345120D01*
X43788273Y-49498005D01*
X43827415Y-49514218D01*
X43712073Y-49561995D01*
X43483265Y-49714880D01*
X43288680Y-49909465D01*
X43135795Y-50138273D01*
X43030486Y-50392510D01*
X42976800Y-50662408D01*
X42976800Y-50937592D01*
X43030486Y-51207490D01*
X43135795Y-51461727D01*
X43288680Y-51690535D01*
X43483265Y-51885120D01*
X43712073Y-52038005D01*
X43824294Y-52084489D01*
X43731020Y-52134344D01*
X43664040Y-52374435D01*
X44450000Y-53160395D01*
X45235960Y-52374435D01*
X45168980Y-52134344D01*
X44997553Y-52053734D01*
X45035527Y-52038005D01*
X45264335Y-51885120D01*
X45458920Y-51690535D01*
X45611805Y-51461727D01*
X45717114Y-51207490D01*
X45770800Y-50937592D01*
X45770800Y-50662408D01*
X45717114Y-50392510D01*
X45611805Y-50138273D01*
X45458920Y-49909465D01*
X45264335Y-49714880D01*
X45035527Y-49561995D01*
X44996385Y-49545782D01*
X45111727Y-49498005D01*
X45340535Y-49345120D01*
X45535120Y-49150535D01*
X45688005Y-48921727D01*
X45793314Y-48667490D01*
X45847000Y-48397592D01*
X45847000Y-48122408D01*
X45793314Y-47852510D01*
X45688005Y-47598273D01*
X45535120Y-47369465D01*
X45340535Y-47174880D01*
X45111727Y-47021995D01*
X44996385Y-46974218D01*
X45035527Y-46958005D01*
X45264335Y-46805120D01*
X45458920Y-46610535D01*
X45611805Y-46381727D01*
X45717114Y-46127490D01*
X45770800Y-45857592D01*
X45770800Y-45582408D01*
X45717114Y-45312510D01*
X45611805Y-45058273D01*
X45458920Y-44829465D01*
X45264335Y-44634880D01*
X45035527Y-44481995D01*
X44996385Y-44465782D01*
X45111727Y-44418005D01*
X45340535Y-44265120D01*
X45535120Y-44070535D01*
X45688005Y-43841727D01*
X45793314Y-43587490D01*
X45847000Y-43317592D01*
X45847000Y-43042408D01*
X45793314Y-42772510D01*
X45688005Y-42518273D01*
X45535120Y-42289465D01*
X45340535Y-42094880D01*
X45111727Y-41941995D01*
X44996385Y-41894218D01*
X45035527Y-41878005D01*
X45264335Y-41725120D01*
X45458920Y-41530535D01*
X45611805Y-41301727D01*
X45717114Y-41047490D01*
X45770800Y-40777592D01*
X45770800Y-40502408D01*
X45717114Y-40232510D01*
X45611805Y-39978273D01*
X45458920Y-39749465D01*
X45264335Y-39554880D01*
X45035527Y-39401995D01*
X44996385Y-39385782D01*
X45111727Y-39338005D01*
X45340535Y-39185120D01*
X45535120Y-38990535D01*
X45688005Y-38761727D01*
X45793314Y-38507490D01*
X45847000Y-38237592D01*
X45847000Y-37962408D01*
X45793314Y-37692510D01*
X45688005Y-37438273D01*
X45535120Y-37209465D01*
X45340535Y-37014880D01*
X45111727Y-36861995D01*
X45034485Y-36830000D01*
X45111727Y-36798005D01*
X45340535Y-36645120D01*
X45535120Y-36450535D01*
X45688005Y-36221727D01*
X45793314Y-35967490D01*
X45847000Y-35697592D01*
X45847000Y-35422408D01*
X45793314Y-35152510D01*
X45688005Y-34898273D01*
X45535120Y-34669465D01*
X45340535Y-34474880D01*
X45111727Y-34321995D01*
X45034485Y-34290000D01*
X45111727Y-34258005D01*
X45340535Y-34105120D01*
X45535120Y-33910535D01*
X45688005Y-33681727D01*
X45793314Y-33427490D01*
X45847000Y-33157592D01*
X45847000Y-32882408D01*
X45816372Y-32728430D01*
X47164802Y-31380000D01*
X48144454Y-31380000D01*
X48138096Y-31400961D01*
X48260085Y-31623000D01*
X49403000Y-31623000D01*
X49403000Y-31603000D01*
X49657000Y-31603000D01*
X49657000Y-31623000D01*
X49677000Y-31623000D01*
X49677000Y-31877000D01*
X49657000Y-31877000D01*
X49657000Y-31897000D01*
X49403000Y-31897000D01*
X49403000Y-31877000D01*
X48260085Y-31877000D01*
X48138096Y-32099039D01*
X48178754Y-32233087D01*
X48298963Y-32487420D01*
X48466481Y-32713414D01*
X48674869Y-32902385D01*
X48866682Y-33017421D01*
X48728899Y-33091068D01*
X48510392Y-33270392D01*
X48331068Y-33488899D01*
X48197818Y-33738192D01*
X48115764Y-34008691D01*
X48088057Y-34290000D01*
X48115764Y-34571309D01*
X48197818Y-34841808D01*
X48331068Y-35091101D01*
X48406357Y-35182841D01*
X46802003Y-36787196D01*
X46772999Y-36810999D01*
X46725508Y-36868868D01*
X46678026Y-36926724D01*
X46633725Y-37009605D01*
X46607454Y-37058754D01*
X46563997Y-37202015D01*
X46553000Y-37313668D01*
X46553000Y-37313678D01*
X46549324Y-37351000D01*
X46553000Y-37388322D01*
X46553001Y-55206497D01*
X44771503Y-56987996D01*
X44742499Y-57011799D01*
X44687371Y-57078974D01*
X44647526Y-57127524D01*
X44615558Y-57187332D01*
X44576954Y-57259554D01*
X44533497Y-57402815D01*
X44522500Y-57514468D01*
X44522500Y-57514478D01*
X44518824Y-57551800D01*
X44522500Y-57589123D01*
X44522501Y-59523168D01*
X44518824Y-59560500D01*
X44533498Y-59709485D01*
X44576954Y-59852746D01*
X44647526Y-59984776D01*
X44708386Y-60058933D01*
X44742500Y-60100501D01*
X44771498Y-60124299D01*
X44977000Y-60329801D01*
X44977000Y-60501788D01*
X45020617Y-60721067D01*
X45106176Y-60927624D01*
X45230388Y-61113520D01*
X45388480Y-61271612D01*
X45574376Y-61395824D01*
X45598943Y-61406000D01*
X45574376Y-61416176D01*
X45388480Y-61540388D01*
X45230388Y-61698480D01*
X45106176Y-61884376D01*
X45020617Y-62090933D01*
X44977000Y-62310212D01*
X44977000Y-62533788D01*
X45020617Y-62753067D01*
X45106176Y-62959624D01*
X45230388Y-63145520D01*
X45388480Y-63303612D01*
X45574376Y-63427824D01*
X45598943Y-63438000D01*
X45574376Y-63448176D01*
X45388480Y-63572388D01*
X45230388Y-63730480D01*
X45106176Y-63916376D01*
X45020617Y-64122933D01*
X44977000Y-64342212D01*
X44977000Y-64565788D01*
X45020617Y-64785067D01*
X45106176Y-64991624D01*
X45230388Y-65177520D01*
X45388480Y-65335612D01*
X45574376Y-65459824D01*
X45598943Y-65470000D01*
X45574376Y-65480176D01*
X45388480Y-65604388D01*
X45230388Y-65762480D01*
X45106176Y-65948376D01*
X45020617Y-66154933D01*
X44977000Y-66374212D01*
X44977000Y-66597788D01*
X45020617Y-66817067D01*
X45106176Y-67023624D01*
X45230388Y-67209520D01*
X45388480Y-67367612D01*
X45574376Y-67491824D01*
X45598943Y-67502000D01*
X45574376Y-67512176D01*
X45388480Y-67636388D01*
X45230388Y-67794480D01*
X45106176Y-67980376D01*
X45020617Y-68186933D01*
X44977000Y-68406212D01*
X44977000Y-68629788D01*
X45020617Y-68849067D01*
X45106176Y-69055624D01*
X45230388Y-69241520D01*
X45388480Y-69399612D01*
X45574376Y-69523824D01*
X45596284Y-69532899D01*
X45548550Y-69558412D01*
X45513439Y-69771834D01*
X46112000Y-70370395D01*
X46710561Y-69771834D01*
X46675450Y-69558412D01*
X46622734Y-69534962D01*
X46649624Y-69523824D01*
X46835520Y-69399612D01*
X46993612Y-69241520D01*
X47117824Y-69055624D01*
X47203383Y-68849067D01*
X47247000Y-68629788D01*
X47247000Y-68406212D01*
X47203383Y-68186933D01*
X47117824Y-67980376D01*
X46993612Y-67794480D01*
X46835520Y-67636388D01*
X46649624Y-67512176D01*
X46625057Y-67502000D01*
X46649624Y-67491824D01*
X46835520Y-67367612D01*
X46957132Y-67246000D01*
X56811378Y-67246000D01*
X56848700Y-67249676D01*
X56886022Y-67246000D01*
X56886033Y-67246000D01*
X56997686Y-67235003D01*
X57140947Y-67191546D01*
X57272976Y-67120974D01*
X57388701Y-67026001D01*
X57412504Y-66996997D01*
X63727630Y-60681872D01*
X63750392Y-60709608D01*
X63968899Y-60888932D01*
X64218192Y-61022182D01*
X64488691Y-61104236D01*
X64699508Y-61125000D01*
X64840492Y-61125000D01*
X65051309Y-61104236D01*
X65321808Y-61022182D01*
X65571101Y-60888932D01*
X65789608Y-60709608D01*
X65968932Y-60491101D01*
X66102182Y-60241808D01*
X66184236Y-59971309D01*
X66211943Y-59690000D01*
X66184236Y-59408691D01*
X66102182Y-59138192D01*
X65968932Y-58888899D01*
X65789608Y-58670392D01*
X65571101Y-58491068D01*
X65438142Y-58420000D01*
X65571101Y-58348932D01*
X65789608Y-58169608D01*
X65968932Y-57951101D01*
X66102182Y-57701808D01*
X66184236Y-57431309D01*
X66211943Y-57150000D01*
X66184236Y-56868691D01*
X66102182Y-56598192D01*
X65968932Y-56348899D01*
X65893688Y-56257214D01*
X66406304Y-55744598D01*
X66435301Y-55720801D01*
X66530274Y-55605076D01*
X66600846Y-55473047D01*
X66644303Y-55329786D01*
X66655300Y-55218133D01*
X66655300Y-55218123D01*
X66658976Y-55180800D01*
X66655300Y-55143477D01*
X66655300Y-54031401D01*
X67892044Y-52794658D01*
X68002880Y-52960535D01*
X68197465Y-53155120D01*
X68426273Y-53308005D01*
X68503515Y-53340000D01*
X68426273Y-53371995D01*
X68197465Y-53524880D01*
X68002880Y-53719465D01*
X67849995Y-53948273D01*
X67744686Y-54202510D01*
X67691000Y-54472408D01*
X67691000Y-54747592D01*
X67744686Y-55017490D01*
X67849995Y-55271727D01*
X68002880Y-55500535D01*
X68197465Y-55695120D01*
X68426273Y-55848005D01*
X68680510Y-55953314D01*
X68950408Y-56007000D01*
X69225592Y-56007000D01*
X69495490Y-55953314D01*
X69749727Y-55848005D01*
X69978535Y-55695120D01*
X70098090Y-55575565D01*
X73382040Y-55575565D01*
X73449020Y-55815656D01*
X73698048Y-55932756D01*
X73965135Y-55999023D01*
X74240017Y-56011910D01*
X74512133Y-55970922D01*
X74771023Y-55877636D01*
X74886980Y-55815656D01*
X74953960Y-55575565D01*
X74168000Y-54789605D01*
X73382040Y-55575565D01*
X70098090Y-55575565D01*
X70173120Y-55500535D01*
X70326005Y-55271727D01*
X70431314Y-55017490D01*
X70485000Y-54747592D01*
X70485000Y-54682017D01*
X72766090Y-54682017D01*
X72807078Y-54954133D01*
X72900364Y-55213023D01*
X72962344Y-55328980D01*
X73202435Y-55395960D01*
X73988395Y-54610000D01*
X74347605Y-54610000D01*
X75133565Y-55395960D01*
X75373656Y-55328980D01*
X75490756Y-55079952D01*
X75557023Y-54812865D01*
X75569910Y-54537983D01*
X75528922Y-54265867D01*
X75435636Y-54006977D01*
X75373656Y-53891020D01*
X75133565Y-53824040D01*
X74347605Y-54610000D01*
X73988395Y-54610000D01*
X73202435Y-53824040D01*
X72962344Y-53891020D01*
X72845244Y-54140048D01*
X72778977Y-54407135D01*
X72766090Y-54682017D01*
X70485000Y-54682017D01*
X70485000Y-54472408D01*
X70431314Y-54202510D01*
X70326005Y-53948273D01*
X70173120Y-53719465D01*
X69978535Y-53524880D01*
X69749727Y-53371995D01*
X69672485Y-53340000D01*
X69749727Y-53308005D01*
X69978535Y-53155120D01*
X70098090Y-53035565D01*
X73382040Y-53035565D01*
X73449020Y-53275656D01*
X73579644Y-53337079D01*
X73564977Y-53342364D01*
X73449020Y-53404344D01*
X73382040Y-53644435D01*
X74168000Y-54430395D01*
X74953960Y-53644435D01*
X74886980Y-53404344D01*
X74756356Y-53342921D01*
X74771023Y-53337636D01*
X74886980Y-53275656D01*
X74953960Y-53035565D01*
X74168000Y-52249605D01*
X73382040Y-53035565D01*
X70098090Y-53035565D01*
X70173120Y-52960535D01*
X70326005Y-52731727D01*
X70431314Y-52477490D01*
X70485000Y-52207592D01*
X70485000Y-52142017D01*
X72766090Y-52142017D01*
X72807078Y-52414133D01*
X72900364Y-52673023D01*
X72962344Y-52788980D01*
X73202435Y-52855960D01*
X73988395Y-52070000D01*
X74347605Y-52070000D01*
X75133565Y-52855960D01*
X75373656Y-52788980D01*
X75490756Y-52539952D01*
X75557023Y-52272865D01*
X75569910Y-51997983D01*
X75528922Y-51725867D01*
X75435636Y-51466977D01*
X75373656Y-51351020D01*
X75133565Y-51284040D01*
X74347605Y-52070000D01*
X73988395Y-52070000D01*
X73202435Y-51284040D01*
X72962344Y-51351020D01*
X72845244Y-51600048D01*
X72778977Y-51867135D01*
X72766090Y-52142017D01*
X70485000Y-52142017D01*
X70485000Y-51932408D01*
X70431314Y-51662510D01*
X70326005Y-51408273D01*
X70173120Y-51179465D01*
X70123228Y-51129573D01*
X70757236Y-50495565D01*
X73382040Y-50495565D01*
X73449020Y-50735656D01*
X73579644Y-50797079D01*
X73564977Y-50802364D01*
X73449020Y-50864344D01*
X73382040Y-51104435D01*
X74168000Y-51890395D01*
X74953960Y-51104435D01*
X74886980Y-50864344D01*
X74756356Y-50802921D01*
X74771023Y-50797636D01*
X74886980Y-50735656D01*
X74953960Y-50495565D01*
X74168000Y-49709605D01*
X73382040Y-50495565D01*
X70757236Y-50495565D01*
X71186704Y-50066098D01*
X71215701Y-50042301D01*
X71279303Y-49964802D01*
X71310674Y-49926577D01*
X71381246Y-49794547D01*
X71395958Y-49746046D01*
X71424703Y-49651286D01*
X71429555Y-49602017D01*
X72766090Y-49602017D01*
X72807078Y-49874133D01*
X72900364Y-50133023D01*
X72962344Y-50248980D01*
X73202435Y-50315960D01*
X73988395Y-49530000D01*
X74347605Y-49530000D01*
X75133565Y-50315960D01*
X75373656Y-50248980D01*
X75490756Y-49999952D01*
X75557023Y-49732865D01*
X75569910Y-49457983D01*
X75528922Y-49185867D01*
X75435636Y-48926977D01*
X75373656Y-48811020D01*
X75133565Y-48744040D01*
X74347605Y-49530000D01*
X73988395Y-49530000D01*
X73202435Y-48744040D01*
X72962344Y-48811020D01*
X72845244Y-49060048D01*
X72778977Y-49327135D01*
X72766090Y-49602017D01*
X71429555Y-49602017D01*
X71435700Y-49539633D01*
X71435700Y-49539623D01*
X71439376Y-49502300D01*
X71435700Y-49464977D01*
X71435700Y-48564435D01*
X73382040Y-48564435D01*
X74168000Y-49350395D01*
X74953960Y-48564435D01*
X74886980Y-48324344D01*
X74789415Y-48278466D01*
X74847223Y-48257636D01*
X74963180Y-48195656D01*
X75030160Y-47955565D01*
X74244200Y-47169605D01*
X73458240Y-47955565D01*
X73525220Y-48195656D01*
X73622785Y-48241534D01*
X73564977Y-48262364D01*
X73449020Y-48324344D01*
X73382040Y-48564435D01*
X71435700Y-48564435D01*
X71435700Y-47062017D01*
X72842290Y-47062017D01*
X72883278Y-47334133D01*
X72976564Y-47593023D01*
X73038544Y-47708980D01*
X73278635Y-47775960D01*
X74064595Y-46990000D01*
X74423805Y-46990000D01*
X75209765Y-47775960D01*
X75449856Y-47708980D01*
X75566956Y-47459952D01*
X75633223Y-47192865D01*
X75646110Y-46917983D01*
X75605122Y-46645867D01*
X75511836Y-46386977D01*
X75449856Y-46271020D01*
X75209765Y-46204040D01*
X74423805Y-46990000D01*
X74064595Y-46990000D01*
X73278635Y-46204040D01*
X73038544Y-46271020D01*
X72921444Y-46520048D01*
X72855177Y-46787135D01*
X72842290Y-47062017D01*
X71435700Y-47062017D01*
X71435700Y-45415565D01*
X73382040Y-45415565D01*
X73449020Y-45655656D01*
X73617639Y-45734945D01*
X73525220Y-45784344D01*
X73458240Y-46024435D01*
X74244200Y-46810395D01*
X75030160Y-46024435D01*
X74963180Y-45784344D01*
X74794561Y-45705055D01*
X74886980Y-45655656D01*
X74953960Y-45415565D01*
X74168000Y-44629605D01*
X73382040Y-45415565D01*
X71435700Y-45415565D01*
X71435700Y-44522017D01*
X72766090Y-44522017D01*
X72807078Y-44794133D01*
X72900364Y-45053023D01*
X72962344Y-45168980D01*
X73202435Y-45235960D01*
X73988395Y-44450000D01*
X74347605Y-44450000D01*
X75133565Y-45235960D01*
X75373656Y-45168980D01*
X75490756Y-44919952D01*
X75557023Y-44652865D01*
X75569910Y-44377983D01*
X75528922Y-44105867D01*
X75435636Y-43846977D01*
X75373656Y-43731020D01*
X75133565Y-43664040D01*
X74347605Y-44450000D01*
X73988395Y-44450000D01*
X73202435Y-43664040D01*
X72962344Y-43731020D01*
X72845244Y-43980048D01*
X72778977Y-44247135D01*
X72766090Y-44522017D01*
X71435700Y-44522017D01*
X71435700Y-42875565D01*
X73382040Y-42875565D01*
X73449020Y-43115656D01*
X73579644Y-43177079D01*
X73564977Y-43182364D01*
X73449020Y-43244344D01*
X73382040Y-43484435D01*
X74168000Y-44270395D01*
X74953960Y-43484435D01*
X74886980Y-43244344D01*
X74756356Y-43182921D01*
X74771023Y-43177636D01*
X74886980Y-43115656D01*
X74953960Y-42875565D01*
X74168000Y-42089605D01*
X73382040Y-42875565D01*
X71435700Y-42875565D01*
X71435700Y-41982017D01*
X72766090Y-41982017D01*
X72807078Y-42254133D01*
X72900364Y-42513023D01*
X72962344Y-42628980D01*
X73202435Y-42695960D01*
X73988395Y-41910000D01*
X74347605Y-41910000D01*
X75133565Y-42695960D01*
X75373656Y-42628980D01*
X75490756Y-42379952D01*
X75557023Y-42112865D01*
X75569910Y-41837983D01*
X75528922Y-41565867D01*
X75435636Y-41306977D01*
X75373656Y-41191020D01*
X75133565Y-41124040D01*
X74347605Y-41910000D01*
X73988395Y-41910000D01*
X73202435Y-41124040D01*
X72962344Y-41191020D01*
X72845244Y-41440048D01*
X72778977Y-41707135D01*
X72766090Y-41982017D01*
X71435700Y-41982017D01*
X71435700Y-40335565D01*
X73382040Y-40335565D01*
X73449020Y-40575656D01*
X73579644Y-40637079D01*
X73564977Y-40642364D01*
X73449020Y-40704344D01*
X73382040Y-40944435D01*
X74168000Y-41730395D01*
X74953960Y-40944435D01*
X74886980Y-40704344D01*
X74756356Y-40642921D01*
X74771023Y-40637636D01*
X74886980Y-40575656D01*
X74953960Y-40335565D01*
X74168000Y-39549605D01*
X73382040Y-40335565D01*
X71435700Y-40335565D01*
X71435700Y-39442017D01*
X72766090Y-39442017D01*
X72807078Y-39714133D01*
X72900364Y-39973023D01*
X72962344Y-40088980D01*
X73202435Y-40155960D01*
X73988395Y-39370000D01*
X74347605Y-39370000D01*
X75133565Y-40155960D01*
X75373656Y-40088980D01*
X75490756Y-39839952D01*
X75557023Y-39572865D01*
X75569910Y-39297983D01*
X75528922Y-39025867D01*
X75435636Y-38766977D01*
X75373656Y-38651020D01*
X75133565Y-38584040D01*
X74347605Y-39370000D01*
X73988395Y-39370000D01*
X73202435Y-38584040D01*
X72962344Y-38651020D01*
X72845244Y-38900048D01*
X72778977Y-39167135D01*
X72766090Y-39442017D01*
X71435700Y-39442017D01*
X71435700Y-38404435D01*
X73382040Y-38404435D01*
X74168000Y-39190395D01*
X74953960Y-38404435D01*
X74886980Y-38164344D01*
X74789415Y-38118466D01*
X74847223Y-38097636D01*
X74963180Y-38035656D01*
X75030160Y-37795565D01*
X74244200Y-37009605D01*
X73458240Y-37795565D01*
X73525220Y-38035656D01*
X73622785Y-38081534D01*
X73564977Y-38102364D01*
X73449020Y-38164344D01*
X73382040Y-38404435D01*
X71435700Y-38404435D01*
X71435700Y-36902017D01*
X72842290Y-36902017D01*
X72883278Y-37174133D01*
X72976564Y-37433023D01*
X73038544Y-37548980D01*
X73278635Y-37615960D01*
X74064595Y-36830000D01*
X74423805Y-36830000D01*
X75209765Y-37615960D01*
X75449856Y-37548980D01*
X75566956Y-37299952D01*
X75633223Y-37032865D01*
X75646110Y-36757983D01*
X75605122Y-36485867D01*
X75511836Y-36226977D01*
X75449856Y-36111020D01*
X75209765Y-36044040D01*
X74423805Y-36830000D01*
X74064595Y-36830000D01*
X73278635Y-36044040D01*
X73038544Y-36111020D01*
X72921444Y-36360048D01*
X72855177Y-36627135D01*
X72842290Y-36902017D01*
X71435700Y-36902017D01*
X71435700Y-35255565D01*
X73382040Y-35255565D01*
X73449020Y-35495656D01*
X73617639Y-35574945D01*
X73525220Y-35624344D01*
X73458240Y-35864435D01*
X74244200Y-36650395D01*
X75030160Y-35864435D01*
X74963180Y-35624344D01*
X74794561Y-35545055D01*
X74886980Y-35495656D01*
X74953960Y-35255565D01*
X74168000Y-34469605D01*
X73382040Y-35255565D01*
X71435700Y-35255565D01*
X71435700Y-34362017D01*
X72766090Y-34362017D01*
X72807078Y-34634133D01*
X72900364Y-34893023D01*
X72962344Y-35008980D01*
X73202435Y-35075960D01*
X73988395Y-34290000D01*
X74347605Y-34290000D01*
X75133565Y-35075960D01*
X75373656Y-35008980D01*
X75490756Y-34759952D01*
X75557023Y-34492865D01*
X75569910Y-34217983D01*
X75528922Y-33945867D01*
X75435636Y-33686977D01*
X75373656Y-33571020D01*
X75133565Y-33504040D01*
X74347605Y-34290000D01*
X73988395Y-34290000D01*
X73202435Y-33504040D01*
X72962344Y-33571020D01*
X72845244Y-33820048D01*
X72778977Y-34087135D01*
X72766090Y-34362017D01*
X71435700Y-34362017D01*
X71435700Y-33324435D01*
X73382040Y-33324435D01*
X74168000Y-34110395D01*
X74953960Y-33324435D01*
X74886980Y-33084344D01*
X74789415Y-33038466D01*
X74847223Y-33017636D01*
X74963180Y-32955656D01*
X75030160Y-32715565D01*
X74244200Y-31929605D01*
X73458240Y-32715565D01*
X73525220Y-32955656D01*
X73622785Y-33001534D01*
X73564977Y-33022364D01*
X73449020Y-33084344D01*
X73382040Y-33324435D01*
X71435700Y-33324435D01*
X71435700Y-31822017D01*
X72842290Y-31822017D01*
X72883278Y-32094133D01*
X72976564Y-32353023D01*
X73038544Y-32468980D01*
X73278635Y-32535960D01*
X74064595Y-31750000D01*
X74423805Y-31750000D01*
X75209765Y-32535960D01*
X75449856Y-32468980D01*
X75566956Y-32219952D01*
X75633223Y-31952865D01*
X75646110Y-31677983D01*
X75605122Y-31405867D01*
X75511836Y-31146977D01*
X75449856Y-31031020D01*
X75209765Y-30964040D01*
X74423805Y-31750000D01*
X74064595Y-31750000D01*
X73278635Y-30964040D01*
X73038544Y-31031020D01*
X72921444Y-31280048D01*
X72855177Y-31547135D01*
X72842290Y-31822017D01*
X71435700Y-31822017D01*
X71435700Y-30175565D01*
X73382040Y-30175565D01*
X73449020Y-30415656D01*
X73617639Y-30494945D01*
X73525220Y-30544344D01*
X73458240Y-30784435D01*
X74244200Y-31570395D01*
X75030160Y-30784435D01*
X74963180Y-30544344D01*
X74794561Y-30465055D01*
X74886980Y-30415656D01*
X74953960Y-30175565D01*
X74168000Y-29389605D01*
X73382040Y-30175565D01*
X71435700Y-30175565D01*
X71435700Y-29282017D01*
X72766090Y-29282017D01*
X72807078Y-29554133D01*
X72900364Y-29813023D01*
X72962344Y-29928980D01*
X73202435Y-29995960D01*
X73988395Y-29210000D01*
X74347605Y-29210000D01*
X75133565Y-29995960D01*
X75373656Y-29928980D01*
X75490756Y-29679952D01*
X75557023Y-29412865D01*
X75569910Y-29137983D01*
X75528922Y-28865867D01*
X75435636Y-28606977D01*
X75373656Y-28491020D01*
X75133565Y-28424040D01*
X74347605Y-29210000D01*
X73988395Y-29210000D01*
X73202435Y-28424040D01*
X72962344Y-28491020D01*
X72845244Y-28740048D01*
X72778977Y-29007135D01*
X72766090Y-29282017D01*
X71435700Y-29282017D01*
X71435700Y-28244435D01*
X73382040Y-28244435D01*
X74168000Y-29030395D01*
X74953960Y-28244435D01*
X74886980Y-28004344D01*
X74789415Y-27958466D01*
X74847223Y-27937636D01*
X74963180Y-27875656D01*
X75030160Y-27635565D01*
X74244200Y-26849605D01*
X73458240Y-27635565D01*
X73525220Y-27875656D01*
X73622785Y-27921534D01*
X73564977Y-27942364D01*
X73449020Y-28004344D01*
X73382040Y-28244435D01*
X71435700Y-28244435D01*
X71435700Y-28218823D01*
X71439376Y-28181500D01*
X71435700Y-28144177D01*
X71435700Y-28144167D01*
X71424703Y-28032514D01*
X71381246Y-27889253D01*
X71310674Y-27757224D01*
X71215701Y-27641499D01*
X71186703Y-27617701D01*
X70530572Y-26961570D01*
X70561200Y-26807592D01*
X70561200Y-26742017D01*
X72842290Y-26742017D01*
X72883278Y-27014133D01*
X72976564Y-27273023D01*
X73038544Y-27388980D01*
X73278635Y-27455960D01*
X74064595Y-26670000D01*
X74423805Y-26670000D01*
X75209765Y-27455960D01*
X75449856Y-27388980D01*
X75566956Y-27139952D01*
X75633223Y-26872865D01*
X75646110Y-26597983D01*
X75605122Y-26325867D01*
X75511836Y-26066977D01*
X75449856Y-25951020D01*
X75209765Y-25884040D01*
X74423805Y-26670000D01*
X74064595Y-26670000D01*
X73278635Y-25884040D01*
X73038544Y-25951020D01*
X72921444Y-26200048D01*
X72855177Y-26467135D01*
X72842290Y-26742017D01*
X70561200Y-26742017D01*
X70561200Y-26532408D01*
X70507514Y-26262510D01*
X70402205Y-26008273D01*
X70249320Y-25779465D01*
X70054735Y-25584880D01*
X69825927Y-25431995D01*
X69710585Y-25384218D01*
X69749727Y-25368005D01*
X69978535Y-25215120D01*
X70098090Y-25095565D01*
X73382040Y-25095565D01*
X73449020Y-25335656D01*
X73617639Y-25414945D01*
X73525220Y-25464344D01*
X73458240Y-25704435D01*
X74244200Y-26490395D01*
X75030160Y-25704435D01*
X74963180Y-25464344D01*
X74794561Y-25385055D01*
X74886980Y-25335656D01*
X74953960Y-25095565D01*
X74168000Y-24309605D01*
X73382040Y-25095565D01*
X70098090Y-25095565D01*
X70173120Y-25020535D01*
X70326005Y-24791727D01*
X70431314Y-24537490D01*
X70485000Y-24267592D01*
X70485000Y-24202017D01*
X72766090Y-24202017D01*
X72807078Y-24474133D01*
X72900364Y-24733023D01*
X72962344Y-24848980D01*
X73202435Y-24915960D01*
X73988395Y-24130000D01*
X74347605Y-24130000D01*
X75133565Y-24915960D01*
X75373656Y-24848980D01*
X75490756Y-24599952D01*
X75557023Y-24332865D01*
X75569910Y-24057983D01*
X75560033Y-23992408D01*
X76073000Y-23992408D01*
X76073000Y-24267592D01*
X76126686Y-24537490D01*
X76231995Y-24791727D01*
X76384880Y-25020535D01*
X76579465Y-25215120D01*
X76710001Y-25302341D01*
X76710000Y-25548574D01*
X76655665Y-25584880D01*
X76461080Y-25779465D01*
X76308195Y-26008273D01*
X76202886Y-26262510D01*
X76149200Y-26532408D01*
X76149200Y-26807592D01*
X76202886Y-27077490D01*
X76308195Y-27331727D01*
X76461080Y-27560535D01*
X76655665Y-27755120D01*
X76786201Y-27842341D01*
X76786200Y-27986743D01*
X76579465Y-28124880D01*
X76384880Y-28319465D01*
X76231995Y-28548273D01*
X76126686Y-28802510D01*
X76073000Y-29072408D01*
X76073000Y-29347592D01*
X76126686Y-29617490D01*
X76231995Y-29871727D01*
X76384880Y-30100535D01*
X76579465Y-30295120D01*
X76808273Y-30448005D01*
X76923615Y-30495782D01*
X76884473Y-30511995D01*
X76655665Y-30664880D01*
X76461080Y-30859465D01*
X76308195Y-31088273D01*
X76202886Y-31342510D01*
X76149200Y-31612408D01*
X76149200Y-31887592D01*
X76202886Y-32157490D01*
X76308195Y-32411727D01*
X76461080Y-32640535D01*
X76655665Y-32835120D01*
X76710000Y-32871426D01*
X76710001Y-33117659D01*
X76579465Y-33204880D01*
X76384880Y-33399465D01*
X76231995Y-33628273D01*
X76126686Y-33882510D01*
X76073000Y-34152408D01*
X76073000Y-34427592D01*
X76126686Y-34697490D01*
X76231995Y-34951727D01*
X76384880Y-35180535D01*
X76579465Y-35375120D01*
X76710001Y-35462341D01*
X76710000Y-35708574D01*
X76655665Y-35744880D01*
X76461080Y-35939465D01*
X76308195Y-36168273D01*
X76202886Y-36422510D01*
X76149200Y-36692408D01*
X76149200Y-36967592D01*
X76202886Y-37237490D01*
X76308195Y-37491727D01*
X76461080Y-37720535D01*
X76655665Y-37915120D01*
X76710000Y-37951426D01*
X76710001Y-38197659D01*
X76579465Y-38284880D01*
X76384880Y-38479465D01*
X76231995Y-38708273D01*
X76126686Y-38962510D01*
X76073000Y-39232408D01*
X76073000Y-39507592D01*
X76126686Y-39777490D01*
X76231995Y-40031727D01*
X76384880Y-40260535D01*
X76579465Y-40455120D01*
X76710000Y-40542341D01*
X76710001Y-40737659D01*
X76579465Y-40824880D01*
X76384880Y-41019465D01*
X76231995Y-41248273D01*
X76126686Y-41502510D01*
X76073000Y-41772408D01*
X76073000Y-42047592D01*
X76126686Y-42317490D01*
X76231995Y-42571727D01*
X76384880Y-42800535D01*
X76579465Y-42995120D01*
X76710000Y-43082341D01*
X76710001Y-43277659D01*
X76579465Y-43364880D01*
X76384880Y-43559465D01*
X76231995Y-43788273D01*
X76126686Y-44042510D01*
X76073000Y-44312408D01*
X76073000Y-44587592D01*
X76126686Y-44857490D01*
X76231995Y-45111727D01*
X76384880Y-45340535D01*
X76579465Y-45535120D01*
X76786200Y-45673257D01*
X76786201Y-45817659D01*
X76655665Y-45904880D01*
X76461080Y-46099465D01*
X76308195Y-46328273D01*
X76202886Y-46582510D01*
X76149200Y-46852408D01*
X76149200Y-47127592D01*
X76202886Y-47397490D01*
X76308195Y-47651727D01*
X76461080Y-47880535D01*
X76655665Y-48075120D01*
X76786201Y-48162341D01*
X76786200Y-48306743D01*
X76579465Y-48444880D01*
X76384880Y-48639465D01*
X76231995Y-48868273D01*
X76126686Y-49122510D01*
X76073000Y-49392408D01*
X76073000Y-49667592D01*
X76126686Y-49937490D01*
X76231995Y-50191727D01*
X76384880Y-50420535D01*
X76579465Y-50615120D01*
X76710001Y-50702341D01*
X76710000Y-50897659D01*
X76579465Y-50984880D01*
X76384880Y-51179465D01*
X76231995Y-51408273D01*
X76126686Y-51662510D01*
X76073000Y-51932408D01*
X76073000Y-52207592D01*
X76126686Y-52477490D01*
X76231995Y-52731727D01*
X76384880Y-52960535D01*
X76579465Y-53155120D01*
X76710001Y-53242341D01*
X76710000Y-53437659D01*
X76579465Y-53524880D01*
X76384880Y-53719465D01*
X76231995Y-53948273D01*
X76126686Y-54202510D01*
X76073000Y-54472408D01*
X76073000Y-54747592D01*
X76126686Y-55017490D01*
X76231995Y-55271727D01*
X76384880Y-55500535D01*
X76579465Y-55695120D01*
X76808273Y-55848005D01*
X77062510Y-55953314D01*
X77332408Y-56007000D01*
X77607592Y-56007000D01*
X77877490Y-55953314D01*
X78131727Y-55848005D01*
X78360535Y-55695120D01*
X78555120Y-55500535D01*
X78708005Y-55271727D01*
X78813314Y-55017490D01*
X78867000Y-54747592D01*
X78867000Y-54472408D01*
X78813314Y-54202510D01*
X78708005Y-53948273D01*
X78555120Y-53719465D01*
X78360535Y-53524880D01*
X78230000Y-53437659D01*
X78230000Y-53242341D01*
X78360535Y-53155120D01*
X78555120Y-52960535D01*
X78708005Y-52731727D01*
X78813314Y-52477490D01*
X78867000Y-52207592D01*
X78867000Y-51932408D01*
X78813314Y-51662510D01*
X78708005Y-51408273D01*
X78555120Y-51179465D01*
X78360535Y-50984880D01*
X78230000Y-50897659D01*
X78230000Y-50702341D01*
X78360535Y-50615120D01*
X78555120Y-50420535D01*
X78708005Y-50191727D01*
X78813314Y-49937490D01*
X78867000Y-49667592D01*
X78867000Y-49392408D01*
X78813314Y-49122510D01*
X78708005Y-48868273D01*
X78555120Y-48639465D01*
X78360535Y-48444880D01*
X78306200Y-48408574D01*
X78306200Y-48162341D01*
X78436735Y-48075120D01*
X78631320Y-47880535D01*
X78784205Y-47651727D01*
X78889514Y-47397490D01*
X78943200Y-47127592D01*
X78943200Y-46852408D01*
X78889514Y-46582510D01*
X78784205Y-46328273D01*
X78631320Y-46099465D01*
X78436735Y-45904880D01*
X78306200Y-45817659D01*
X78306200Y-45571426D01*
X78360535Y-45535120D01*
X78555120Y-45340535D01*
X78708005Y-45111727D01*
X78813314Y-44857490D01*
X78867000Y-44587592D01*
X78867000Y-44312408D01*
X78813314Y-44042510D01*
X78708005Y-43788273D01*
X78555120Y-43559465D01*
X78360535Y-43364880D01*
X78230000Y-43277659D01*
X78230000Y-43082341D01*
X78360535Y-42995120D01*
X78555120Y-42800535D01*
X78708005Y-42571727D01*
X78813314Y-42317490D01*
X78867000Y-42047592D01*
X78867000Y-41772408D01*
X78813314Y-41502510D01*
X78708005Y-41248273D01*
X78555120Y-41019465D01*
X78360535Y-40824880D01*
X78230000Y-40737659D01*
X78230000Y-40542341D01*
X78360535Y-40455120D01*
X78555120Y-40260535D01*
X78708005Y-40031727D01*
X78813314Y-39777490D01*
X78867000Y-39507592D01*
X78867000Y-39232408D01*
X78813314Y-38962510D01*
X78708005Y-38708273D01*
X78555120Y-38479465D01*
X78360535Y-38284880D01*
X78230000Y-38197659D01*
X78230000Y-38053256D01*
X78436735Y-37915120D01*
X78631320Y-37720535D01*
X78784205Y-37491727D01*
X78889514Y-37237490D01*
X78943200Y-36967592D01*
X78943200Y-36692408D01*
X78889514Y-36422510D01*
X78784205Y-36168273D01*
X78631320Y-35939465D01*
X78436735Y-35744880D01*
X78230000Y-35606744D01*
X78230000Y-35462341D01*
X78360535Y-35375120D01*
X78555120Y-35180535D01*
X78708005Y-34951727D01*
X78813314Y-34697490D01*
X78867000Y-34427592D01*
X78867000Y-34152408D01*
X78813314Y-33882510D01*
X78708005Y-33628273D01*
X78555120Y-33399465D01*
X78360535Y-33204880D01*
X78230000Y-33117659D01*
X78230000Y-32973256D01*
X78436735Y-32835120D01*
X78631320Y-32640535D01*
X78784205Y-32411727D01*
X78889514Y-32157490D01*
X78943200Y-31887592D01*
X78943200Y-31612408D01*
X78889514Y-31342510D01*
X78784205Y-31088273D01*
X78631320Y-30859465D01*
X78436735Y-30664880D01*
X78207927Y-30511995D01*
X78092585Y-30464218D01*
X78131727Y-30448005D01*
X78360535Y-30295120D01*
X78555120Y-30100535D01*
X78708005Y-29871727D01*
X78813314Y-29617490D01*
X78867000Y-29347592D01*
X78867000Y-29072408D01*
X78813314Y-28802510D01*
X78708005Y-28548273D01*
X78555120Y-28319465D01*
X78360535Y-28124880D01*
X78306200Y-28088574D01*
X78306200Y-27842341D01*
X78436735Y-27755120D01*
X78631320Y-27560535D01*
X78784205Y-27331727D01*
X78889514Y-27077490D01*
X78943200Y-26807592D01*
X78943200Y-26532408D01*
X78889514Y-26262510D01*
X78784205Y-26008273D01*
X78631320Y-25779465D01*
X78436735Y-25584880D01*
X78230000Y-25446744D01*
X78230000Y-25302341D01*
X78360535Y-25215120D01*
X78555120Y-25020535D01*
X78708005Y-24791727D01*
X78813314Y-24537490D01*
X78867000Y-24267592D01*
X78867000Y-23992408D01*
X78813314Y-23722510D01*
X78708005Y-23468273D01*
X78555120Y-23239465D01*
X78360535Y-23044880D01*
X78131727Y-22891995D01*
X77877490Y-22786686D01*
X77607592Y-22733000D01*
X77332408Y-22733000D01*
X77062510Y-22786686D01*
X76808273Y-22891995D01*
X76579465Y-23044880D01*
X76384880Y-23239465D01*
X76231995Y-23468273D01*
X76126686Y-23722510D01*
X76073000Y-23992408D01*
X75560033Y-23992408D01*
X75528922Y-23785867D01*
X75435636Y-23526977D01*
X75373656Y-23411020D01*
X75133565Y-23344040D01*
X74347605Y-24130000D01*
X73988395Y-24130000D01*
X73202435Y-23344040D01*
X72962344Y-23411020D01*
X72845244Y-23660048D01*
X72778977Y-23927135D01*
X72766090Y-24202017D01*
X70485000Y-24202017D01*
X70485000Y-23992408D01*
X70431314Y-23722510D01*
X70326005Y-23468273D01*
X70173120Y-23239465D01*
X70098090Y-23164435D01*
X73382040Y-23164435D01*
X74168000Y-23950395D01*
X74953960Y-23164435D01*
X74886980Y-22924344D01*
X74637952Y-22807244D01*
X74370865Y-22740977D01*
X74095983Y-22728090D01*
X73823867Y-22769078D01*
X73564977Y-22862364D01*
X73449020Y-22924344D01*
X73382040Y-23164435D01*
X70098090Y-23164435D01*
X69978535Y-23044880D01*
X69749727Y-22891995D01*
X69495490Y-22786686D01*
X69225592Y-22733000D01*
X68950408Y-22733000D01*
X68680510Y-22786686D01*
X68426273Y-22891995D01*
X68197465Y-23044880D01*
X68002880Y-23239465D01*
X67849995Y-23468273D01*
X67744686Y-23722510D01*
X67691000Y-23992408D01*
X67691000Y-24267592D01*
X67744686Y-24537490D01*
X67849995Y-24791727D01*
X68002880Y-25020535D01*
X68197465Y-25215120D01*
X68426273Y-25368005D01*
X68541615Y-25415782D01*
X68502473Y-25431995D01*
X68273665Y-25584880D01*
X68079080Y-25779465D01*
X67926195Y-26008273D01*
X67820886Y-26262510D01*
X67767200Y-26532408D01*
X67767200Y-26807592D01*
X67820886Y-27077490D01*
X67926195Y-27331727D01*
X68079080Y-27560535D01*
X68273665Y-27755120D01*
X68502473Y-27908005D01*
X68541615Y-27924218D01*
X68426273Y-27971995D01*
X68197465Y-28124880D01*
X68002880Y-28319465D01*
X67849995Y-28548273D01*
X67744686Y-28802510D01*
X67691000Y-29072408D01*
X67691000Y-29347592D01*
X67744686Y-29617490D01*
X67849995Y-29871727D01*
X68002880Y-30100535D01*
X68197465Y-30295120D01*
X68426273Y-30448005D01*
X68541615Y-30495782D01*
X68502473Y-30511995D01*
X68273665Y-30664880D01*
X68079080Y-30859465D01*
X67926195Y-31088273D01*
X67820886Y-31342510D01*
X67767200Y-31612408D01*
X67767200Y-31887592D01*
X67768890Y-31896088D01*
X65930604Y-30057803D01*
X65968932Y-30011101D01*
X66102182Y-29761808D01*
X66184236Y-29491309D01*
X66211943Y-29210000D01*
X66184236Y-28928691D01*
X66102182Y-28658192D01*
X65968932Y-28408899D01*
X65789608Y-28190392D01*
X65571101Y-28011068D01*
X65433318Y-27937421D01*
X65625131Y-27822385D01*
X65833519Y-27633414D01*
X66001037Y-27407420D01*
X66121246Y-27153087D01*
X66161904Y-27019039D01*
X66039915Y-26797000D01*
X64897000Y-26797000D01*
X64897000Y-26817000D01*
X64643000Y-26817000D01*
X64643000Y-26797000D01*
X63500085Y-26797000D01*
X63378096Y-27019039D01*
X63418754Y-27153087D01*
X63538963Y-27407420D01*
X63706481Y-27633414D01*
X63914869Y-27822385D01*
X64106682Y-27937421D01*
X63968899Y-28011068D01*
X63750392Y-28190392D01*
X63571068Y-28408899D01*
X63437818Y-28658192D01*
X63355764Y-28928691D01*
X63328057Y-29210000D01*
X63355764Y-29491309D01*
X63437818Y-29761808D01*
X63571068Y-30011101D01*
X63750392Y-30229608D01*
X63968899Y-30408932D01*
X64016058Y-30434139D01*
X64020997Y-30484286D01*
X64031160Y-30517789D01*
X63968899Y-30551068D01*
X63750392Y-30730392D01*
X63571068Y-30948899D01*
X63437818Y-31198192D01*
X63355764Y-31468691D01*
X63328057Y-31750000D01*
X63355764Y-32031309D01*
X63437818Y-32301808D01*
X63571068Y-32551101D01*
X63750392Y-32769608D01*
X63968899Y-32948932D01*
X64101858Y-33020000D01*
X63968899Y-33091068D01*
X63750392Y-33270392D01*
X63571068Y-33488899D01*
X63437818Y-33738192D01*
X63355764Y-34008691D01*
X63328057Y-34290000D01*
X63355764Y-34571309D01*
X63437818Y-34841808D01*
X63571068Y-35091101D01*
X63750392Y-35309608D01*
X63968899Y-35488932D01*
X64101858Y-35560000D01*
X63968899Y-35631068D01*
X63750392Y-35810392D01*
X63571068Y-36028899D01*
X63437818Y-36278192D01*
X63355764Y-36548691D01*
X63328057Y-36830000D01*
X63355764Y-37111309D01*
X63437818Y-37381808D01*
X63571068Y-37631101D01*
X63750392Y-37849608D01*
X63968899Y-38028932D01*
X64101858Y-38100000D01*
X63968899Y-38171068D01*
X63750392Y-38350392D01*
X63571068Y-38568899D01*
X63437818Y-38818192D01*
X63355764Y-39088691D01*
X63328057Y-39370000D01*
X63355764Y-39651309D01*
X63437818Y-39921808D01*
X63571068Y-40171101D01*
X63750392Y-40389608D01*
X63968899Y-40568932D01*
X64101858Y-40640000D01*
X63968899Y-40711068D01*
X63750392Y-40890392D01*
X63571068Y-41108899D01*
X63437818Y-41358192D01*
X63355764Y-41628691D01*
X63328057Y-41910000D01*
X63355764Y-42191309D01*
X63437818Y-42461808D01*
X63571068Y-42711101D01*
X63750392Y-42929608D01*
X63968899Y-43108932D01*
X64101858Y-43180000D01*
X63968899Y-43251068D01*
X63750392Y-43430392D01*
X63571068Y-43648899D01*
X63437818Y-43898192D01*
X63355764Y-44168691D01*
X63328057Y-44450000D01*
X63355764Y-44731309D01*
X63437818Y-45001808D01*
X63571068Y-45251101D01*
X63750392Y-45469608D01*
X63968899Y-45648932D01*
X64101858Y-45720000D01*
X63968899Y-45791068D01*
X63750392Y-45970392D01*
X63571068Y-46188899D01*
X63437818Y-46438192D01*
X63355764Y-46708691D01*
X63328057Y-46990000D01*
X63355764Y-47271309D01*
X63437818Y-47541808D01*
X63571068Y-47791101D01*
X63750392Y-48009608D01*
X63968899Y-48188932D01*
X64101858Y-48260000D01*
X63968899Y-48331068D01*
X63750392Y-48510392D01*
X63571068Y-48728899D01*
X63437818Y-48978192D01*
X63355764Y-49248691D01*
X63328057Y-49530000D01*
X63355764Y-49811309D01*
X63437818Y-50081808D01*
X63571068Y-50331101D01*
X63750392Y-50549608D01*
X63968899Y-50728932D01*
X64101858Y-50800000D01*
X63968899Y-50871068D01*
X63750392Y-51050392D01*
X63571068Y-51268899D01*
X63437818Y-51518192D01*
X63355764Y-51788691D01*
X63328057Y-52070000D01*
X63355764Y-52351309D01*
X63437818Y-52621808D01*
X63571068Y-52871101D01*
X63750392Y-53089608D01*
X63968899Y-53268932D01*
X64031160Y-53302211D01*
X64020997Y-53335714D01*
X64016058Y-53385861D01*
X63968899Y-53411068D01*
X63750392Y-53590392D01*
X63571068Y-53808899D01*
X63437818Y-54058192D01*
X63355764Y-54328691D01*
X63328057Y-54610000D01*
X63355764Y-54891309D01*
X63437818Y-55161808D01*
X63571068Y-55411101D01*
X63750392Y-55629608D01*
X63968899Y-55808932D01*
X64031160Y-55842211D01*
X64020997Y-55875714D01*
X64016058Y-55925861D01*
X63968899Y-55951068D01*
X63750392Y-56130392D01*
X63571068Y-56348899D01*
X63437818Y-56598192D01*
X63355764Y-56868691D01*
X63328057Y-57150000D01*
X63355764Y-57431309D01*
X63437818Y-57701808D01*
X63571068Y-57951101D01*
X63750392Y-58169608D01*
X63968899Y-58348932D01*
X64101858Y-58420000D01*
X63968899Y-58491068D01*
X63750392Y-58670392D01*
X63571068Y-58888899D01*
X63545861Y-58936058D01*
X63495714Y-58940997D01*
X63352453Y-58984454D01*
X63220424Y-59055026D01*
X63104699Y-59149999D01*
X63080901Y-59178997D01*
X56533899Y-65726000D01*
X46957132Y-65726000D01*
X46835520Y-65604388D01*
X46649624Y-65480176D01*
X46625057Y-65470000D01*
X46649624Y-65459824D01*
X46835520Y-65335612D01*
X46993612Y-65177520D01*
X47117824Y-64991624D01*
X47203383Y-64785067D01*
X47247000Y-64565788D01*
X47247000Y-64393801D01*
X50041003Y-61599799D01*
X50070001Y-61576001D01*
X50099228Y-61540388D01*
X50164974Y-61460277D01*
X50235546Y-61328247D01*
X50248058Y-61287000D01*
X50279003Y-61184986D01*
X50290000Y-61073333D01*
X50290000Y-61073323D01*
X50293676Y-61036000D01*
X50290000Y-60998677D01*
X50290000Y-60910901D01*
X50331101Y-60888932D01*
X50549608Y-60709608D01*
X50728932Y-60491101D01*
X50862182Y-60241808D01*
X50944236Y-59971309D01*
X50971943Y-59690000D01*
X50944236Y-59408691D01*
X50862182Y-59138192D01*
X50728932Y-58888899D01*
X50549608Y-58670392D01*
X50331101Y-58491068D01*
X50198142Y-58420000D01*
X50331101Y-58348932D01*
X50549608Y-58169608D01*
X50728932Y-57951101D01*
X50862182Y-57701808D01*
X50944236Y-57431309D01*
X50971943Y-57150000D01*
X50944236Y-56868691D01*
X50862182Y-56598192D01*
X50728932Y-56348899D01*
X50549608Y-56130392D01*
X50331101Y-55951068D01*
X50198142Y-55880000D01*
X50331101Y-55808932D01*
X50549608Y-55629608D01*
X50728932Y-55411101D01*
X50862182Y-55161808D01*
X50944236Y-54891309D01*
X50971943Y-54610000D01*
X50944236Y-54328691D01*
X50862182Y-54058192D01*
X50728932Y-53808899D01*
X50549608Y-53590392D01*
X50331101Y-53411068D01*
X50198142Y-53340000D01*
X50331101Y-53268932D01*
X50549608Y-53089608D01*
X50728932Y-52871101D01*
X50862182Y-52621808D01*
X50944236Y-52351309D01*
X50971943Y-52070000D01*
X50944236Y-51788691D01*
X50862182Y-51518192D01*
X50728932Y-51268899D01*
X50549608Y-51050392D01*
X50331101Y-50871068D01*
X50198142Y-50800000D01*
X50331101Y-50728932D01*
X50549608Y-50549608D01*
X50728932Y-50331101D01*
X50862182Y-50081808D01*
X50944236Y-49811309D01*
X50971943Y-49530000D01*
X50944236Y-49248691D01*
X50862182Y-48978192D01*
X50728932Y-48728899D01*
X50549608Y-48510392D01*
X50331101Y-48331068D01*
X50268840Y-48297789D01*
X50279003Y-48264286D01*
X50283942Y-48214139D01*
X50331101Y-48188932D01*
X50549608Y-48009608D01*
X50728932Y-47791101D01*
X50862182Y-47541808D01*
X50944236Y-47271309D01*
X50971943Y-46990000D01*
X50944236Y-46708691D01*
X50862182Y-46438192D01*
X50728932Y-46188899D01*
X50549608Y-45970392D01*
X50331101Y-45791068D01*
X50198142Y-45720000D01*
X50331101Y-45648932D01*
X50549608Y-45469608D01*
X50728932Y-45251101D01*
X50862182Y-45001808D01*
X50944236Y-44731309D01*
X50971943Y-44450000D01*
X50944236Y-44168691D01*
X50862182Y-43898192D01*
X50728932Y-43648899D01*
X50549608Y-43430392D01*
X50331101Y-43251068D01*
X50198142Y-43180000D01*
X50331101Y-43108932D01*
X50549608Y-42929608D01*
X50728932Y-42711101D01*
X50862182Y-42461808D01*
X50944236Y-42191309D01*
X50971943Y-41910000D01*
X50944236Y-41628691D01*
X50862182Y-41358192D01*
X50728932Y-41108899D01*
X50653643Y-41017159D01*
X51172404Y-40498398D01*
X51201401Y-40474601D01*
X51295104Y-40360424D01*
X51296374Y-40358877D01*
X51366946Y-40226847D01*
X51373513Y-40205198D01*
X51410403Y-40083586D01*
X51421400Y-39971933D01*
X51421400Y-39971923D01*
X51425076Y-39934600D01*
X51421400Y-39897277D01*
X51421400Y-31283325D01*
X51425076Y-31246000D01*
X51421400Y-31208675D01*
X51421400Y-31208667D01*
X51410403Y-31097014D01*
X51366946Y-30953753D01*
X51296374Y-30821724D01*
X51201401Y-30705999D01*
X51172402Y-30682200D01*
X50626327Y-30136126D01*
X50728932Y-30011101D01*
X50862182Y-29761808D01*
X50944236Y-29491309D01*
X50971943Y-29210000D01*
X50944236Y-28928691D01*
X50862182Y-28658192D01*
X50728932Y-28408899D01*
X50549608Y-28190392D01*
X50331101Y-28011068D01*
X50198142Y-27940000D01*
X50331101Y-27868932D01*
X50549608Y-27689608D01*
X50728932Y-27471101D01*
X50862182Y-27221808D01*
X50944236Y-26951309D01*
X50971943Y-26670000D01*
X50944236Y-26388691D01*
X50862182Y-26118192D01*
X50728932Y-25868899D01*
X50549608Y-25650392D01*
X50436518Y-25557581D01*
X50454482Y-25555812D01*
X50574180Y-25519502D01*
X50684494Y-25460537D01*
X50781185Y-25381185D01*
X50860537Y-25284494D01*
X50919502Y-25174180D01*
X50955812Y-25054482D01*
X50968072Y-24930000D01*
X50968072Y-24130000D01*
X63328057Y-24130000D01*
X63355764Y-24411309D01*
X63437818Y-24681808D01*
X63571068Y-24931101D01*
X63750392Y-25149608D01*
X63968899Y-25328932D01*
X64106682Y-25402579D01*
X63914869Y-25517615D01*
X63706481Y-25706586D01*
X63538963Y-25932580D01*
X63418754Y-26186913D01*
X63378096Y-26320961D01*
X63500085Y-26543000D01*
X64643000Y-26543000D01*
X64643000Y-26523000D01*
X64897000Y-26523000D01*
X64897000Y-26543000D01*
X66039915Y-26543000D01*
X66161904Y-26320961D01*
X66121246Y-26186913D01*
X66001037Y-25932580D01*
X65833519Y-25706586D01*
X65625131Y-25517615D01*
X65433318Y-25402579D01*
X65571101Y-25328932D01*
X65789608Y-25149608D01*
X65968932Y-24931101D01*
X66102182Y-24681808D01*
X66184236Y-24411309D01*
X66211943Y-24130000D01*
X66184236Y-23848691D01*
X66102182Y-23578192D01*
X65968932Y-23328899D01*
X65789608Y-23110392D01*
X65571101Y-22931068D01*
X65321808Y-22797818D01*
X65051309Y-22715764D01*
X64840492Y-22695000D01*
X64699508Y-22695000D01*
X64488691Y-22715764D01*
X64218192Y-22797818D01*
X63968899Y-22931068D01*
X63750392Y-23110392D01*
X63571068Y-23328899D01*
X63437818Y-23578192D01*
X63355764Y-23848691D01*
X63328057Y-24130000D01*
X50968072Y-24130000D01*
X50968072Y-23330000D01*
X50955812Y-23205518D01*
X50919502Y-23085820D01*
X50860537Y-22975506D01*
X50781185Y-22878815D01*
X50684494Y-22799463D01*
X50574180Y-22740498D01*
X50454482Y-22704188D01*
X50330000Y-22691928D01*
X48730000Y-22691928D01*
X48605518Y-22704188D01*
X48485820Y-22740498D01*
X48375506Y-22799463D01*
X48278815Y-22878815D01*
X48199463Y-22975506D01*
X48140498Y-23085820D01*
X48104188Y-23205518D01*
X48091928Y-23330000D01*
X48091928Y-24930000D01*
X48104188Y-25054482D01*
X48140498Y-25174180D01*
X48199463Y-25284494D01*
X48278815Y-25381185D01*
X48375506Y-25460537D01*
X48485820Y-25519502D01*
X48605518Y-25555812D01*
X48623482Y-25557581D01*
X48510392Y-25650392D01*
X48422406Y-25757604D01*
X45816372Y-23151571D01*
X45847000Y-22997592D01*
X45847000Y-22722408D01*
X45793314Y-22452510D01*
X45688005Y-22198273D01*
X45535120Y-21969465D01*
X45340535Y-21774880D01*
X45111727Y-21621995D01*
X44857490Y-21516686D01*
X44587592Y-21463000D01*
X44312408Y-21463000D01*
X44042510Y-21516686D01*
X43788273Y-21621995D01*
X43559465Y-21774880D01*
X43364880Y-21969465D01*
X43211995Y-22198273D01*
X43106686Y-22452510D01*
X43053000Y-22722408D01*
X43053000Y-22997592D01*
X43106686Y-23267490D01*
X43211995Y-23521727D01*
X43364880Y-23750535D01*
X43559465Y-23945120D01*
X43788273Y-24098005D01*
X43865515Y-24130000D01*
X43788273Y-24161995D01*
X43559465Y-24314880D01*
X43364880Y-24509465D01*
X43211995Y-24738273D01*
X43106686Y-24992510D01*
X43053000Y-25262408D01*
X43053000Y-25537592D01*
X43106686Y-25807490D01*
X43211995Y-26061727D01*
X43364880Y-26290535D01*
X43559465Y-26485120D01*
X43788273Y-26638005D01*
X43865515Y-26670000D01*
X43788273Y-26701995D01*
X43559465Y-26854880D01*
X43364880Y-27049465D01*
X43211995Y-27278273D01*
X43106686Y-27532510D01*
X43053000Y-27802408D01*
X43053000Y-28077592D01*
X43106686Y-28347490D01*
X43211995Y-28601727D01*
X43364880Y-28830535D01*
X43559465Y-29025120D01*
X43788273Y-29178005D01*
X43827415Y-29194218D01*
X43712073Y-29241995D01*
X43483265Y-29394880D01*
X43288680Y-29589465D01*
X43135795Y-29818273D01*
X43030486Y-30072510D01*
X42976800Y-30342408D01*
X40690800Y-30342408D01*
X40637114Y-30072510D01*
X40531805Y-29818273D01*
X40378920Y-29589465D01*
X40184335Y-29394880D01*
X39955527Y-29241995D01*
X39916385Y-29225782D01*
X40031727Y-29178005D01*
X40260535Y-29025120D01*
X40455120Y-28830535D01*
X40608005Y-28601727D01*
X40713314Y-28347490D01*
X40767000Y-28077592D01*
X40767000Y-27802408D01*
X40713314Y-27532510D01*
X40608005Y-27278273D01*
X40455120Y-27049465D01*
X40260535Y-26854880D01*
X40031727Y-26701995D01*
X39954485Y-26670000D01*
X40031727Y-26638005D01*
X40260535Y-26485120D01*
X40455120Y-26290535D01*
X40608005Y-26061727D01*
X40713314Y-25807490D01*
X40767000Y-25537592D01*
X40767000Y-25262408D01*
X40713314Y-24992510D01*
X40608005Y-24738273D01*
X40455120Y-24509465D01*
X40260535Y-24314880D01*
X40031727Y-24161995D01*
X39954485Y-24130000D01*
X40031727Y-24098005D01*
X40260535Y-23945120D01*
X40455120Y-23750535D01*
X40608005Y-23521727D01*
X40713314Y-23267490D01*
X40767000Y-22997592D01*
X40767000Y-22722408D01*
X40713314Y-22452510D01*
X40608005Y-22198273D01*
X40455120Y-21969465D01*
X40260535Y-21774880D01*
X40031727Y-21621995D01*
X39777490Y-21516686D01*
X39507592Y-21463000D01*
X39232408Y-21463000D01*
X38962510Y-21516686D01*
X38708273Y-21621995D01*
X38479465Y-21774880D01*
X38284880Y-21969465D01*
X38131995Y-22198273D01*
X38026686Y-22452510D01*
X37973000Y-22722408D01*
X37973000Y-22997592D01*
X38026686Y-23267490D01*
X38131995Y-23521727D01*
X38284880Y-23750535D01*
X38479465Y-23945120D01*
X38708273Y-24098005D01*
X38785515Y-24130000D01*
X38708273Y-24161995D01*
X38479465Y-24314880D01*
X38284880Y-24509465D01*
X38131995Y-24738273D01*
X38026686Y-24992510D01*
X37973000Y-25262408D01*
X37973000Y-25537592D01*
X38026686Y-25807490D01*
X38131995Y-26061727D01*
X38284880Y-26290535D01*
X38479465Y-26485120D01*
X38708273Y-26638005D01*
X38785515Y-26670000D01*
X38708273Y-26701995D01*
X38479465Y-26854880D01*
X38284880Y-27049465D01*
X38131995Y-27278273D01*
X38026686Y-27532510D01*
X37973000Y-27802408D01*
X37973000Y-28077592D01*
X38026686Y-28347490D01*
X38131995Y-28601727D01*
X38284880Y-28830535D01*
X38479465Y-29025120D01*
X38708273Y-29178005D01*
X38747415Y-29194218D01*
X38632073Y-29241995D01*
X38403265Y-29394880D01*
X38208680Y-29589465D01*
X38055795Y-29818273D01*
X37950486Y-30072510D01*
X37896800Y-30342408D01*
X35610800Y-30342408D01*
X35557114Y-30072510D01*
X35451805Y-29818273D01*
X35298920Y-29589465D01*
X35104335Y-29394880D01*
X34875527Y-29241995D01*
X34836385Y-29225782D01*
X34951727Y-29178005D01*
X35180535Y-29025120D01*
X35375120Y-28830535D01*
X35528005Y-28601727D01*
X35633314Y-28347490D01*
X35687000Y-28077592D01*
X35687000Y-27802408D01*
X35633314Y-27532510D01*
X35528005Y-27278273D01*
X35375120Y-27049465D01*
X35180535Y-26854880D01*
X34951727Y-26701995D01*
X34874485Y-26670000D01*
X34951727Y-26638005D01*
X35180535Y-26485120D01*
X35375120Y-26290535D01*
X35528005Y-26061727D01*
X35633314Y-25807490D01*
X35687000Y-25537592D01*
X35687000Y-25262408D01*
X35633314Y-24992510D01*
X35528005Y-24738273D01*
X35375120Y-24509465D01*
X35180535Y-24314880D01*
X34951727Y-24161995D01*
X34874485Y-24130000D01*
X34951727Y-24098005D01*
X35180535Y-23945120D01*
X35375120Y-23750535D01*
X35528005Y-23521727D01*
X35633314Y-23267490D01*
X35687000Y-22997592D01*
X35687000Y-22722408D01*
X35633314Y-22452510D01*
X35528005Y-22198273D01*
X35375120Y-21969465D01*
X35180535Y-21774880D01*
X34951727Y-21621995D01*
X34697490Y-21516686D01*
X34427592Y-21463000D01*
X34152408Y-21463000D01*
X33882510Y-21516686D01*
X33628273Y-21621995D01*
X33399465Y-21774880D01*
X33204880Y-21969465D01*
X33051995Y-22198273D01*
X32946686Y-22452510D01*
X32893000Y-22722408D01*
X32893000Y-22997592D01*
X32946686Y-23267490D01*
X33051995Y-23521727D01*
X33204880Y-23750535D01*
X33399465Y-23945120D01*
X33628273Y-24098005D01*
X33705515Y-24130000D01*
X33628273Y-24161995D01*
X33399465Y-24314880D01*
X33204880Y-24509465D01*
X33051995Y-24738273D01*
X32946686Y-24992510D01*
X32893000Y-25262408D01*
X32893000Y-25537592D01*
X32946686Y-25807490D01*
X33051995Y-26061727D01*
X33204880Y-26290535D01*
X33399465Y-26485120D01*
X33628273Y-26638005D01*
X33705515Y-26670000D01*
X33628273Y-26701995D01*
X33399465Y-26854880D01*
X33204880Y-27049465D01*
X33051995Y-27278273D01*
X32946686Y-27532510D01*
X32893000Y-27802408D01*
X32893000Y-28077592D01*
X32946686Y-28347490D01*
X33051995Y-28601727D01*
X33204880Y-28830535D01*
X33399465Y-29025120D01*
X33628273Y-29178005D01*
X33667415Y-29194218D01*
X33552073Y-29241995D01*
X33323265Y-29394880D01*
X33128680Y-29589465D01*
X32975795Y-29818273D01*
X32870486Y-30072510D01*
X32816800Y-30342408D01*
X22905833Y-30342408D01*
X22874722Y-30135867D01*
X22781436Y-29876977D01*
X22719456Y-29761020D01*
X22479365Y-29694040D01*
X21693405Y-30480000D01*
X21334195Y-30480000D01*
X20548235Y-29694040D01*
X20308144Y-29761020D01*
X20191044Y-30010048D01*
X20124777Y-30277135D01*
X20111890Y-30552017D01*
X19100800Y-30552017D01*
X19100800Y-30342408D01*
X19047114Y-30072510D01*
X18941805Y-29818273D01*
X18788920Y-29589465D01*
X18713890Y-29514435D01*
X20727840Y-29514435D01*
X21513800Y-30300395D01*
X22299760Y-29514435D01*
X22232780Y-29274344D01*
X22135215Y-29228466D01*
X22193023Y-29207636D01*
X22308980Y-29145656D01*
X22375960Y-28905565D01*
X21590000Y-28119605D01*
X20804040Y-28905565D01*
X20871020Y-29145656D01*
X20968585Y-29191534D01*
X20910777Y-29212364D01*
X20794820Y-29274344D01*
X20727840Y-29514435D01*
X18713890Y-29514435D01*
X18594335Y-29394880D01*
X18540000Y-29358574D01*
X18540000Y-29112341D01*
X18670535Y-29025120D01*
X18865120Y-28830535D01*
X19018005Y-28601727D01*
X19123314Y-28347490D01*
X19177000Y-28077592D01*
X19177000Y-28012017D01*
X20188090Y-28012017D01*
X20229078Y-28284133D01*
X20322364Y-28543023D01*
X20384344Y-28658980D01*
X20624435Y-28725960D01*
X21410395Y-27940000D01*
X21769605Y-27940000D01*
X22555565Y-28725960D01*
X22795656Y-28658980D01*
X22912756Y-28409952D01*
X22979023Y-28142865D01*
X22991910Y-27867983D01*
X22950922Y-27595867D01*
X22857636Y-27336977D01*
X22795656Y-27221020D01*
X22555565Y-27154040D01*
X21769605Y-27940000D01*
X21410395Y-27940000D01*
X20624435Y-27154040D01*
X20384344Y-27221020D01*
X20267244Y-27470048D01*
X20200977Y-27737135D01*
X20188090Y-28012017D01*
X19177000Y-28012017D01*
X19177000Y-27802408D01*
X19123314Y-27532510D01*
X19018005Y-27278273D01*
X18865120Y-27049465D01*
X18670535Y-26854880D01*
X18441727Y-26701995D01*
X18364485Y-26670000D01*
X18441727Y-26638005D01*
X18670535Y-26485120D01*
X18790090Y-26365565D01*
X20804040Y-26365565D01*
X20871020Y-26605656D01*
X21001644Y-26667079D01*
X20986977Y-26672364D01*
X20871020Y-26734344D01*
X20804040Y-26974435D01*
X21590000Y-27760395D01*
X22375960Y-26974435D01*
X22308980Y-26734344D01*
X22178356Y-26672921D01*
X22193023Y-26667636D01*
X22308980Y-26605656D01*
X22375960Y-26365565D01*
X21590000Y-25579605D01*
X20804040Y-26365565D01*
X18790090Y-26365565D01*
X18865120Y-26290535D01*
X19018005Y-26061727D01*
X19123314Y-25807490D01*
X19177000Y-25537592D01*
X19177000Y-25472017D01*
X20188090Y-25472017D01*
X20229078Y-25744133D01*
X20322364Y-26003023D01*
X20384344Y-26118980D01*
X20624435Y-26185960D01*
X21410395Y-25400000D01*
X21769605Y-25400000D01*
X22555565Y-26185960D01*
X22795656Y-26118980D01*
X22912756Y-25869952D01*
X22979023Y-25602865D01*
X22991910Y-25327983D01*
X22950922Y-25055867D01*
X22857636Y-24796977D01*
X22795656Y-24681020D01*
X22555565Y-24614040D01*
X21769605Y-25400000D01*
X21410395Y-25400000D01*
X20624435Y-24614040D01*
X20384344Y-24681020D01*
X20267244Y-24930048D01*
X20200977Y-25197135D01*
X20188090Y-25472017D01*
X19177000Y-25472017D01*
X19177000Y-25262408D01*
X19123314Y-24992510D01*
X19018005Y-24738273D01*
X18865120Y-24509465D01*
X18670535Y-24314880D01*
X18540000Y-24227659D01*
X18540000Y-24032341D01*
X18670535Y-23945120D01*
X18790090Y-23825565D01*
X20804040Y-23825565D01*
X20871020Y-24065656D01*
X21001644Y-24127079D01*
X20986977Y-24132364D01*
X20871020Y-24194344D01*
X20804040Y-24434435D01*
X21590000Y-25220395D01*
X22375960Y-24434435D01*
X22308980Y-24194344D01*
X22178356Y-24132921D01*
X22193023Y-24127636D01*
X22308980Y-24065656D01*
X22375960Y-23825565D01*
X21590000Y-23039605D01*
X20804040Y-23825565D01*
X18790090Y-23825565D01*
X18865120Y-23750535D01*
X19018005Y-23521727D01*
X19123314Y-23267490D01*
X19177000Y-22997592D01*
X19177000Y-22932017D01*
X20188090Y-22932017D01*
X20229078Y-23204133D01*
X20322364Y-23463023D01*
X20384344Y-23578980D01*
X20624435Y-23645960D01*
X21410395Y-22860000D01*
X21769605Y-22860000D01*
X22555565Y-23645960D01*
X22795656Y-23578980D01*
X22912756Y-23329952D01*
X22979023Y-23062865D01*
X22991910Y-22787983D01*
X22950922Y-22515867D01*
X22857636Y-22256977D01*
X22795656Y-22141020D01*
X22555565Y-22074040D01*
X21769605Y-22860000D01*
X21410395Y-22860000D01*
X20624435Y-22074040D01*
X20384344Y-22141020D01*
X20267244Y-22390048D01*
X20200977Y-22657135D01*
X20188090Y-22932017D01*
X19177000Y-22932017D01*
X19177000Y-22722408D01*
X19123314Y-22452510D01*
X19018005Y-22198273D01*
X18865120Y-21969465D01*
X18790090Y-21894435D01*
X20804040Y-21894435D01*
X21590000Y-22680395D01*
X22375960Y-21894435D01*
X22308980Y-21654344D01*
X22059952Y-21537244D01*
X21792865Y-21470977D01*
X21517983Y-21458090D01*
X21245867Y-21499078D01*
X20986977Y-21592364D01*
X20871020Y-21654344D01*
X20804040Y-21894435D01*
X18790090Y-21894435D01*
X18670535Y-21774880D01*
X18441727Y-21621995D01*
X18187490Y-21516686D01*
X17917592Y-21463000D01*
X17642408Y-21463000D01*
X17372510Y-21516686D01*
X17118273Y-21621995D01*
X16889465Y-21774880D01*
X16694880Y-21969465D01*
X16541995Y-22198273D01*
X16436686Y-22452510D01*
X16383000Y-22722408D01*
X16383000Y-22997592D01*
X16436686Y-23267490D01*
X16541995Y-23521727D01*
X16694880Y-23750535D01*
X16889465Y-23945120D01*
X17020000Y-24032341D01*
X17020001Y-24227659D01*
X16889465Y-24314880D01*
X16694880Y-24509465D01*
X16541995Y-24738273D01*
X16436686Y-24992510D01*
X16383000Y-25262408D01*
X16383000Y-25537592D01*
X16436686Y-25807490D01*
X16541995Y-26061727D01*
X16694880Y-26290535D01*
X16889465Y-26485120D01*
X17118273Y-26638005D01*
X17195515Y-26670000D01*
X17118273Y-26701995D01*
X16889465Y-26854880D01*
X16694880Y-27049465D01*
X16541995Y-27278273D01*
X16436686Y-27532510D01*
X16383000Y-27802408D01*
X16383000Y-28077592D01*
X16436686Y-28347490D01*
X16541995Y-28601727D01*
X16694880Y-28830535D01*
X16889465Y-29025120D01*
X17020000Y-29112341D01*
X17020001Y-29256743D01*
X16813265Y-29394880D01*
X16618680Y-29589465D01*
X16465795Y-29818273D01*
X16360486Y-30072510D01*
X16306800Y-30342408D01*
X12827000Y-30342408D01*
X12827000Y-17609117D01*
X13505000Y-17609117D01*
X13505000Y-17950883D01*
X13571675Y-18286081D01*
X13702463Y-18601831D01*
X13892337Y-18885998D01*
X14134002Y-19127663D01*
X14418169Y-19317537D01*
X14733919Y-19448325D01*
X15069117Y-19515000D01*
X15410883Y-19515000D01*
X15746081Y-19448325D01*
X16061831Y-19317537D01*
X16345998Y-19127663D01*
X16587663Y-18885998D01*
X16777537Y-18601831D01*
X16908325Y-18286081D01*
X16975000Y-17950883D01*
X16975000Y-17609117D01*
X77005000Y-17609117D01*
X77005000Y-17950883D01*
X77071675Y-18286081D01*
X77202463Y-18601831D01*
X77392337Y-18885998D01*
X77634002Y-19127663D01*
X77918169Y-19317537D01*
X78233919Y-19448325D01*
X78569117Y-19515000D01*
X78910883Y-19515000D01*
X79246081Y-19448325D01*
X79561831Y-19317537D01*
X79845998Y-19127663D01*
X80087663Y-18885998D01*
X80277537Y-18601831D01*
X80408325Y-18286081D01*
X80475000Y-17950883D01*
X80475000Y-17609117D01*
X80408325Y-17273919D01*
X80277537Y-16958169D01*
X80087663Y-16674002D01*
X79845998Y-16432337D01*
X79561831Y-16242463D01*
X79246081Y-16111675D01*
X78910883Y-16045000D01*
X78569117Y-16045000D01*
X78233919Y-16111675D01*
X77918169Y-16242463D01*
X77634002Y-16432337D01*
X77392337Y-16674002D01*
X77202463Y-16958169D01*
X77071675Y-17273919D01*
X77005000Y-17609117D01*
X16975000Y-17609117D01*
X16908325Y-17273919D01*
X16777537Y-16958169D01*
X16587663Y-16674002D01*
X16345998Y-16432337D01*
X16061831Y-16242463D01*
X15746081Y-16111675D01*
X15410883Y-16045000D01*
X15069117Y-16045000D01*
X14733919Y-16111675D01*
X14418169Y-16242463D01*
X14134002Y-16432337D01*
X13892337Y-16674002D01*
X13702463Y-16958169D01*
X13571675Y-17273919D01*
X13505000Y-17609117D01*
X12827000Y-17609117D01*
X12827000Y-15367000D01*
X81153000Y-15367000D01*
X81153000Y-73533000D01*
M02*
