G04 #@! TF.GenerationSoftware,KiCad,Pcbnew,(5.1.0)-1*
G04 #@! TF.CreationDate,2019-07-11T20:21:55+02:00*
G04 #@! TF.ProjectId,Arduino_HM_1,41726475-696e-46f5-9f48-4d5f312e6b69,rev?*
G04 #@! TF.SameCoordinates,Original*
G04 #@! TF.FileFunction,Legend,Top*
G04 #@! TF.FilePolarity,Positive*
%FSLAX46Y46*%
G04 Gerber Fmt 4.6, Leading zero omitted, Abs format (unit mm)*
G04 Created by KiCad (PCBNEW (5.1.0)-1) date 2019-07-11 20:21:55*
%MOMM*%
%LPD*%
G04 APERTURE LIST*
%ADD10C,0.120000*%
%ADD11C,0.150000*%
G04 APERTURE END LIST*
D10*
X81280000Y-73660000D02*
X12700000Y-73660000D01*
X81280000Y-15240000D02*
X81280000Y-73660000D01*
X12700000Y-15240000D02*
X81280000Y-15240000D01*
X12700000Y-73660000D02*
X12700000Y-15240000D01*
X15240000Y-55118000D02*
X15240000Y-53086000D01*
X20320000Y-55118000D02*
X15240000Y-55118000D01*
X20320000Y-53086000D02*
X20320000Y-55118000D01*
X15240000Y-53086000D02*
X15240000Y-20320000D01*
X20320000Y-20320000D02*
X20320000Y-53086000D01*
X15240000Y-20320000D02*
X20320000Y-20320000D01*
X80010000Y-22352000D02*
X80010000Y-24384000D01*
X74930000Y-22352000D02*
X80010000Y-22352000D01*
X74930000Y-24384000D02*
X74930000Y-22352000D01*
X80010000Y-24384000D02*
X80010000Y-57150000D01*
X74930000Y-57150000D02*
X74930000Y-24384000D01*
X80010000Y-57150000D02*
X74930000Y-57150000D01*
X46990000Y-55626000D02*
X46990000Y-73660000D01*
X26924000Y-55626000D02*
X46990000Y-55626000D01*
X26924000Y-73660000D02*
X26924000Y-55626000D01*
X46990000Y-73660000D02*
X26924000Y-73660000D01*
X46620000Y-58358000D02*
G75*
G03X46620000Y-58358000I-508000J0D01*
G01*
X46620000Y-60390000D02*
G75*
G03X46620000Y-60390000I-508000J0D01*
G01*
X46620000Y-66486000D02*
G75*
G03X46620000Y-66486000I-508000J0D01*
G01*
X46620000Y-62422000D02*
G75*
G03X46620000Y-62422000I-508000J0D01*
G01*
X46620000Y-64454000D02*
G75*
G03X46620000Y-64454000I-508000J0D01*
G01*
X46620000Y-68518000D02*
G75*
G03X46620000Y-68518000I-508000J0D01*
G01*
X46620000Y-70550000D02*
G75*
G03X46620000Y-70550000I-508000J0D01*
G01*
X46620000Y-72582000D02*
G75*
G03X46620000Y-72582000I-508000J0D01*
G01*
X76708000Y-22352000D02*
X76708000Y-24384000D01*
X71628000Y-22352000D02*
X76708000Y-22352000D01*
X71628000Y-24384000D02*
X71628000Y-22352000D01*
X76708000Y-24384000D02*
X76708000Y-57150000D01*
X71628000Y-57150000D02*
X71628000Y-24384000D01*
X76708000Y-57150000D02*
X71628000Y-57150000D01*
X36830000Y-55118000D02*
X36830000Y-53086000D01*
X41910000Y-55118000D02*
X36830000Y-55118000D01*
X41910000Y-53086000D02*
X41910000Y-55118000D01*
X36830000Y-53086000D02*
X36830000Y-20320000D01*
X41910000Y-20320000D02*
X41910000Y-53086000D01*
X36830000Y-20320000D02*
X41910000Y-20320000D01*
X31750000Y-55118000D02*
X31750000Y-53086000D01*
X36830000Y-55118000D02*
X31750000Y-55118000D01*
X36830000Y-53086000D02*
X36830000Y-55118000D01*
X31750000Y-53086000D02*
X31750000Y-20320000D01*
X36830000Y-20320000D02*
X36830000Y-53086000D01*
X31750000Y-20320000D02*
X36830000Y-20320000D01*
X19050000Y-55118000D02*
X19050000Y-53086000D01*
X24130000Y-55118000D02*
X19050000Y-55118000D01*
X24130000Y-53086000D02*
X24130000Y-55118000D01*
X19050000Y-53086000D02*
X19050000Y-20320000D01*
X24130000Y-20320000D02*
X24130000Y-53086000D01*
X19050000Y-20320000D02*
X24130000Y-20320000D01*
X71628000Y-22352000D02*
X71628000Y-24384000D01*
X66548000Y-22352000D02*
X71628000Y-22352000D01*
X66548000Y-24384000D02*
X66548000Y-22352000D01*
X71628000Y-24384000D02*
X71628000Y-57150000D01*
X66548000Y-57150000D02*
X66548000Y-24384000D01*
X71628000Y-57150000D02*
X66548000Y-57150000D01*
X41910000Y-55118000D02*
X41910000Y-53086000D01*
X46990000Y-55118000D02*
X41910000Y-55118000D01*
X46990000Y-53086000D02*
X46990000Y-55118000D01*
X41910000Y-53086000D02*
X41910000Y-20320000D01*
X46990000Y-20320000D02*
X46990000Y-53086000D01*
X41910000Y-20320000D02*
X46990000Y-20320000D01*
X66170000Y-20190000D02*
X48130000Y-20190000D01*
X66170000Y-63630000D02*
X66170000Y-20190000D01*
X48130000Y-63630000D02*
X66170000Y-63630000D01*
X50800000Y-60960000D02*
X48130000Y-60960000D01*
X50800000Y-25400000D02*
X50800000Y-60960000D01*
X50800000Y-25400000D02*
X48130000Y-25400000D01*
X63500000Y-60960000D02*
X66170000Y-60960000D01*
X63500000Y-22860000D02*
X63500000Y-60960000D01*
X63500000Y-22860000D02*
X66170000Y-22860000D01*
X48130000Y-20190000D02*
X48130000Y-22860000D01*
X48130000Y-25400000D02*
X48130000Y-63630000D01*
X50800000Y-22860000D02*
X48130000Y-22860000D01*
X50800000Y-25400000D02*
X50800000Y-22860000D01*
D11*
X14478095Y-20272380D02*
X14478095Y-21081904D01*
X14525714Y-21177142D01*
X14573333Y-21224761D01*
X14668571Y-21272380D01*
X14859047Y-21272380D01*
X14954285Y-21224761D01*
X15001904Y-21177142D01*
X15049523Y-21081904D01*
X15049523Y-20272380D01*
X15573333Y-21272380D02*
X15763809Y-21272380D01*
X15859047Y-21224761D01*
X15906666Y-21177142D01*
X16001904Y-21034285D01*
X16049523Y-20843809D01*
X16049523Y-20462857D01*
X16001904Y-20367619D01*
X15954285Y-20320000D01*
X15859047Y-20272380D01*
X15668571Y-20272380D01*
X15573333Y-20320000D01*
X15525714Y-20367619D01*
X15478095Y-20462857D01*
X15478095Y-20700952D01*
X15525714Y-20796190D01*
X15573333Y-20843809D01*
X15668571Y-20891428D01*
X15859047Y-20891428D01*
X15954285Y-20843809D01*
X16001904Y-20796190D01*
X16049523Y-20700952D01*
X79248095Y-56102380D02*
X79248095Y-56911904D01*
X79295714Y-57007142D01*
X79343333Y-57054761D01*
X79438571Y-57102380D01*
X79629047Y-57102380D01*
X79724285Y-57054761D01*
X79771904Y-57007142D01*
X79819523Y-56911904D01*
X79819523Y-56102380D01*
X80438571Y-56530952D02*
X80343333Y-56483333D01*
X80295714Y-56435714D01*
X80248095Y-56340476D01*
X80248095Y-56292857D01*
X80295714Y-56197619D01*
X80343333Y-56150000D01*
X80438571Y-56102380D01*
X80629047Y-56102380D01*
X80724285Y-56150000D01*
X80771904Y-56197619D01*
X80819523Y-56292857D01*
X80819523Y-56340476D01*
X80771904Y-56435714D01*
X80724285Y-56483333D01*
X80629047Y-56530952D01*
X80438571Y-56530952D01*
X80343333Y-56578571D01*
X80295714Y-56626190D01*
X80248095Y-56721428D01*
X80248095Y-56911904D01*
X80295714Y-57007142D01*
X80343333Y-57054761D01*
X80438571Y-57102380D01*
X80629047Y-57102380D01*
X80724285Y-57054761D01*
X80771904Y-57007142D01*
X80819523Y-56911904D01*
X80819523Y-56721428D01*
X80771904Y-56626190D01*
X80724285Y-56578571D01*
X80629047Y-56530952D01*
X47128095Y-73312380D02*
X47128095Y-74121904D01*
X47175714Y-74217142D01*
X47223333Y-74264761D01*
X47318571Y-74312380D01*
X47509047Y-74312380D01*
X47604285Y-74264761D01*
X47651904Y-74217142D01*
X47699523Y-74121904D01*
X47699523Y-73312380D01*
X48699523Y-74312380D02*
X48128095Y-74312380D01*
X48413809Y-74312380D02*
X48413809Y-73312380D01*
X48318571Y-73455238D01*
X48223333Y-73550476D01*
X48128095Y-73598095D01*
X46556666Y-70248380D02*
X46223333Y-69772190D01*
X45985238Y-70248380D02*
X45985238Y-69248380D01*
X46366190Y-69248380D01*
X46461428Y-69296000D01*
X46509047Y-69343619D01*
X46556666Y-69438857D01*
X46556666Y-69581714D01*
X46509047Y-69676952D01*
X46461428Y-69724571D01*
X46366190Y-69772190D01*
X45985238Y-69772190D01*
X46985238Y-69724571D02*
X47318571Y-69724571D01*
X47461428Y-70248380D02*
X46985238Y-70248380D01*
X46985238Y-69248380D01*
X47461428Y-69248380D01*
X48223333Y-69724571D02*
X47890000Y-69724571D01*
X47890000Y-70248380D02*
X47890000Y-69248380D01*
X48366190Y-69248380D01*
X48890000Y-69248380D02*
X48890000Y-69486476D01*
X48651904Y-69391238D02*
X48890000Y-69486476D01*
X49128095Y-69391238D01*
X48747142Y-69676952D02*
X48890000Y-69486476D01*
X49032857Y-69676952D01*
X49651904Y-69248380D02*
X49651904Y-69486476D01*
X49413809Y-69391238D02*
X49651904Y-69486476D01*
X49890000Y-69391238D01*
X49509047Y-69676952D02*
X49651904Y-69486476D01*
X49794761Y-69676952D01*
X75946095Y-56102380D02*
X75946095Y-56911904D01*
X75993714Y-57007142D01*
X76041333Y-57054761D01*
X76136571Y-57102380D01*
X76327047Y-57102380D01*
X76422285Y-57054761D01*
X76469904Y-57007142D01*
X76517523Y-56911904D01*
X76517523Y-56102380D01*
X76898476Y-56102380D02*
X77565142Y-56102380D01*
X77136571Y-57102380D01*
X77978095Y-68672380D02*
X77978095Y-67672380D01*
X77978095Y-68148571D02*
X78549523Y-68148571D01*
X78549523Y-68672380D02*
X78549523Y-67672380D01*
X79454285Y-68005714D02*
X79454285Y-68672380D01*
X79216190Y-67624761D02*
X78978095Y-68339047D01*
X79597142Y-68339047D01*
X77978095Y-15332380D02*
X77978095Y-14332380D01*
X77978095Y-14808571D02*
X78549523Y-14808571D01*
X78549523Y-15332380D02*
X78549523Y-14332380D01*
X78930476Y-14332380D02*
X79549523Y-14332380D01*
X79216190Y-14713333D01*
X79359047Y-14713333D01*
X79454285Y-14760952D01*
X79501904Y-14808571D01*
X79549523Y-14903809D01*
X79549523Y-15141904D01*
X79501904Y-15237142D01*
X79454285Y-15284761D01*
X79359047Y-15332380D01*
X79073333Y-15332380D01*
X78978095Y-15284761D01*
X78930476Y-15237142D01*
X14478095Y-68672380D02*
X14478095Y-67672380D01*
X14478095Y-68148571D02*
X15049523Y-68148571D01*
X15049523Y-68672380D02*
X15049523Y-67672380D01*
X15478095Y-67767619D02*
X15525714Y-67720000D01*
X15620952Y-67672380D01*
X15859047Y-67672380D01*
X15954285Y-67720000D01*
X16001904Y-67767619D01*
X16049523Y-67862857D01*
X16049523Y-67958095D01*
X16001904Y-68100952D01*
X15430476Y-68672380D01*
X16049523Y-68672380D01*
X14478095Y-15332380D02*
X14478095Y-14332380D01*
X14478095Y-14808571D02*
X15049523Y-14808571D01*
X15049523Y-15332380D02*
X15049523Y-14332380D01*
X16049523Y-15332380D02*
X15478095Y-15332380D01*
X15763809Y-15332380D02*
X15763809Y-14332380D01*
X15668571Y-14475238D01*
X15573333Y-14570476D01*
X15478095Y-14618095D01*
X36068095Y-20272380D02*
X36068095Y-21081904D01*
X36115714Y-21177142D01*
X36163333Y-21224761D01*
X36258571Y-21272380D01*
X36449047Y-21272380D01*
X36544285Y-21224761D01*
X36591904Y-21177142D01*
X36639523Y-21081904D01*
X36639523Y-20272380D01*
X37544285Y-20272380D02*
X37353809Y-20272380D01*
X37258571Y-20320000D01*
X37210952Y-20367619D01*
X37115714Y-20510476D01*
X37068095Y-20700952D01*
X37068095Y-21081904D01*
X37115714Y-21177142D01*
X37163333Y-21224761D01*
X37258571Y-21272380D01*
X37449047Y-21272380D01*
X37544285Y-21224761D01*
X37591904Y-21177142D01*
X37639523Y-21081904D01*
X37639523Y-20843809D01*
X37591904Y-20748571D01*
X37544285Y-20700952D01*
X37449047Y-20653333D01*
X37258571Y-20653333D01*
X37163333Y-20700952D01*
X37115714Y-20748571D01*
X37068095Y-20843809D01*
X30988095Y-20272380D02*
X30988095Y-21081904D01*
X31035714Y-21177142D01*
X31083333Y-21224761D01*
X31178571Y-21272380D01*
X31369047Y-21272380D01*
X31464285Y-21224761D01*
X31511904Y-21177142D01*
X31559523Y-21081904D01*
X31559523Y-20272380D01*
X32511904Y-20272380D02*
X32035714Y-20272380D01*
X31988095Y-20748571D01*
X32035714Y-20700952D01*
X32130952Y-20653333D01*
X32369047Y-20653333D01*
X32464285Y-20700952D01*
X32511904Y-20748571D01*
X32559523Y-20843809D01*
X32559523Y-21081904D01*
X32511904Y-21177142D01*
X32464285Y-21224761D01*
X32369047Y-21272380D01*
X32130952Y-21272380D01*
X32035714Y-21224761D01*
X31988095Y-21177142D01*
X18288095Y-20272380D02*
X18288095Y-21081904D01*
X18335714Y-21177142D01*
X18383333Y-21224761D01*
X18478571Y-21272380D01*
X18669047Y-21272380D01*
X18764285Y-21224761D01*
X18811904Y-21177142D01*
X18859523Y-21081904D01*
X18859523Y-20272380D01*
X19764285Y-20605714D02*
X19764285Y-21272380D01*
X19526190Y-20224761D02*
X19288095Y-20939047D01*
X19907142Y-20939047D01*
X70866095Y-56102380D02*
X70866095Y-56911904D01*
X70913714Y-57007142D01*
X70961333Y-57054761D01*
X71056571Y-57102380D01*
X71247047Y-57102380D01*
X71342285Y-57054761D01*
X71389904Y-57007142D01*
X71437523Y-56911904D01*
X71437523Y-56102380D01*
X71818476Y-56102380D02*
X72437523Y-56102380D01*
X72104190Y-56483333D01*
X72247047Y-56483333D01*
X72342285Y-56530952D01*
X72389904Y-56578571D01*
X72437523Y-56673809D01*
X72437523Y-56911904D01*
X72389904Y-57007142D01*
X72342285Y-57054761D01*
X72247047Y-57102380D01*
X71961333Y-57102380D01*
X71866095Y-57054761D01*
X71818476Y-57007142D01*
X41148095Y-20272380D02*
X41148095Y-21081904D01*
X41195714Y-21177142D01*
X41243333Y-21224761D01*
X41338571Y-21272380D01*
X41529047Y-21272380D01*
X41624285Y-21224761D01*
X41671904Y-21177142D01*
X41719523Y-21081904D01*
X41719523Y-20272380D01*
X42148095Y-20367619D02*
X42195714Y-20320000D01*
X42290952Y-20272380D01*
X42529047Y-20272380D01*
X42624285Y-20320000D01*
X42671904Y-20367619D01*
X42719523Y-20462857D01*
X42719523Y-20558095D01*
X42671904Y-20700952D01*
X42100476Y-21272380D01*
X42719523Y-21272380D01*
X56435714Y-19216666D02*
X56911904Y-19216666D01*
X56340476Y-19502380D02*
X56673809Y-18502380D01*
X57007142Y-19502380D01*
X57864285Y-19502380D02*
X57292857Y-19502380D01*
X57578571Y-19502380D02*
X57578571Y-18502380D01*
X57483333Y-18645238D01*
X57388095Y-18740476D01*
X57292857Y-18788095D01*
M02*
